<?xml version="1.0" standalone="no"?><!DOCTYPE svg PUBLIC "-//W3C//DTD SVG 1.1//EN" "http://www.w3.org/Graphics/SVG/1.1/DTD/svg11.dtd"><svg t="1606981538703" class="icon" viewBox="0 0 1024 1024" version="1.1" xmlns="http://www.w3.org/2000/svg" p-id="1662" xmlns:xlink="http://www.w3.org/1999/xlink" width="200" height="200"><defs><style type="text/css"></style></defs><path d="M283.473171 71.180488h283.47317c16.234146 0 28.721951-12.487805 28.721952-28.721951 0-16.234146-12.487805-28.721951-28.721952-28.721952H283.473171c-16.234146 0-28.721951 12.487805-28.721951 28.721952 0 16.234146 12.487805 28.721951 28.721951 28.721951z" p-id="1663" fill="#253647"></path><path d="M709.307317 826.692683l-3.746341 3.746341c-6.243902 6.243902-14.985366 9.990244-23.72683 9.990244s-18.731707-3.746341-24.975609-11.239024c-6.243902-7.492683-8.741463-16.234146-8.741464-24.97561V799.219512c8.741463-78.673171 29.970732-154.84878 62.439025-226.029268L849.170732 274.731707V71.180488c0-31.219512-24.97561-57.443902-56.195122-57.443903h-109.892683c-6.243902 0-12.487805 4.995122-13.736586 11.239025l-21.229268 81.170731c-3.746341 12.487805-14.985366 21.229268-27.473171 21.229269H228.526829c-12.487805 0-23.726829-8.741463-27.47317-21.229269L179.82439 24.97561c-1.24878-6.243902-7.492683-11.239024-13.736585-11.239025H56.195122C24.97561 14.985366 0 39.960976 0 71.180488v881.639024c0 31.219512 24.97561 57.443902 56.195122 57.443903h735.531707c31.219512 0 56.195122-24.97561 56.195122-57.443903V613.15122l-8.741463 18.731707c-31.219512 71.180488-74.926829 137.365854-129.873171 194.809756zM196.058537 333.42439h455.804878c14.985366 0 27.473171 12.487805 27.47317 27.473171 0 14.985366-12.487805 27.473171-27.47317 27.473171H196.058537c-14.985366 0-27.473171-12.487805-27.473171-27.473171 1.24878-14.985366 12.487805-27.473171 27.473171-27.473171zM524.487805 847.921951H189.814634c-14.985366 0-27.473171-12.487805-27.473171-27.473171s12.487805-27.473171 27.473171-27.47317H524.487805c14.985366 0 27.473171 12.487805 27.473171 27.47317s-12.487805 27.473171-27.473171 27.473171z m68.682927-229.77561H196.058537c-14.985366 0-27.473171-12.487805-27.473171-27.47317 0-14.985366 12.487805-27.473171 27.473171-27.473171h397.112195c14.985366 0 27.473171 12.487805 27.47317 27.473171 0 14.985366-12.487805 27.473171-27.47317 27.47317z" p-id="1664" fill="#253647"></path><path d="M1000.273171 109.892683c-19.980488-9.990244-44.956098 0-53.697561 19.980488L738.029268 584.429268c-31.219512 68.682927-51.2 142.360976-59.941463 217.287805v4.995122c0 2.497561 3.746341 4.995122 4.995122 2.497561l3.746341-3.746341c51.2-54.946341 93.658537-118.634146 124.878049-187.317074l208.546342-454.556097c9.990244-19.980488 0-43.707317-19.980488-53.697561z" p-id="1665" fill="#253647"></path></svg>