<?xml version="1.0" standalone="no"?><!DOCTYPE svg PUBLIC "-//W3C//DTD SVG 1.1//EN" "http://www.w3.org/Graphics/SVG/1.1/DTD/svg11.dtd"><svg t="1606981260788" class="icon" viewBox="0 0 1024 1024" version="1.1" xmlns="http://www.w3.org/2000/svg" p-id="1643" xmlns:xlink="http://www.w3.org/1999/xlink" width="200" height="200"><defs><style type="text/css"></style></defs><path d="M274.023437 217.049217c0 0 2.111934 1.855942 5.791819 4.79985 23.03928 18.495422 114.268429 85.341333 228.79285 85.341333 114.780413 0 208.025499-67.037905 231.320771-85.341333 3.679885-2.87991 5.75982-4.671854 5.75982-4.671854s113.084466-109.724571 54.494297-155.803131c-58.654167-46.110559-145.819443 15.903503-145.819443 15.903503s-66.525921-77.277585-145.851442-77.277585c-79.325521 0-143.9955 77.085591-143.9955 77.085591s-87.069279-61.822068-145.211462-15.775507c-58.174182 46.07856 54.686291 155.771132 54.686291 155.771132z" p-id="1644" fill="#253647"></path><path d="M962.993906 864.420987c0 0 36.15887-193.305959-46.462548-369.780444-20.255367-43.294647-42.206681-76.47761-63.966001-102.108809-71.485766-84.125371-140.763601-85.341333-140.763601-85.341333s-87.101278 57.630199-202.969657 57.630199c-115.83638 0-198.07381-57.630199-198.07381-57.630199s-70.429799-0.447986-143.387519 85.341333c-22.07931 25.951189-44.350614 59.646136-64.989969 103.772757-80.189494 171.290647-45.342583 368.148495-45.342583 368.148495s-185.210212 159.547014 452.529858 159.547014c637.740071 0 453.457829-159.547014 453.457829-159.547014zM337.829443 497.200462l150.747289 0 0 260.535858-34.398925 0 0-224.888972-81.117465 0 0 225.688947-35.230899 0 0-261.335833zM338.661417 862.181057l-20.895347-32.766976c30.303053-13.503578 51.1984-30.71904 62.270054-51.614387 10.655667-22.111309 16.383488-51.1984 17.59945-86.429299l0-131.899878 32.798975 0 0 131.899878c-1.215962 46.270554-9.023718 83.133402-23.35927 111.004531-13.919565 25.791194-36.862848 45.886566-68.413862 59.806131zM475.489141 854.821287c-13.11959-19.263398-30.71904-39.742758-53.662323-61.43808l24.575232-23.743258c22.111309 19.647386 40.95872 38.910784 56.126246 58.174182l-27.039155 27.039155zM695.866254 597.965314l-43.83863 0 0 215.449267c0 29.087091-12.703603 43.83863-37.278835 43.83863l-53.278335 0-8.607731-36.862848c16.799475 1.631949 32.766976 2.463923 48.350489 2.463923 8.607731 0 13.11959-6.559795 13.11959-19.263398l0-158.523046c-24.191244 63.518015-59.006156 117.148339-104.060748 160.570982l-21.311334-34.814912c51.1984-45.054592 88.477235-102.428799 111.836505-172.858598l-92.189119 0 0-36.446861 105.692697 0 0-77.853567 37.694822 0 0 77.853567 43.83863 0c0 0 0 36.446861 0 36.446861z" p-id="1645" fill="#253647"></path></svg>