<svg xmlns="http://www.w3.org/2000/svg" width="283.66" height="100.844" viewBox="0 0 283.66 100.844">
  <metadata><?xpacket begin="﻿" id="W5M0MpCehiHzreSzNTczkc9d"?>
<x:xmpmeta xmlns:x="adobe:ns:meta/" x:xmptk="Adobe XMP Core 5.6-c138 79.159824, 2016/09/14-01:09:01        ">
   <rdf:RDF xmlns:rdf="http://www.w3.org/1999/02/22-rdf-syntax-ns#">
      <rdf:Description rdf:about=""/>
   </rdf:RDF>
</x:xmpmeta>
                                                                                                    
                                                                                                    
                                                                                                    
                                                                                                    
                                                                                                    
                                                                                                    
                                                                                                    
                                                                                                    
                                                                                                    
                                                                                                    
                                                                                                    
                                                                                                    
                                                                                                    
                                                                                                    
                                                                                                    
                                                                                                    
                                                                                                    
                                                                                                    
                                                                                                    
                                                                                                    
                           
<?xpacket end="w"?></metadata>
<defs>
    <style>
      .cls-1 {
        fill: #323232;
        fill-rule: evenodd;
      }
    </style>
  </defs>
  <path id="Preferential_activities" data-name="Preferential activities" class="cls-1" d="M1068.53,216.1l-6.7,28.584h4.54v39.744h13.68V240.36h-2.81l5.55-24.264h-14.26Zm22.97,0-1.37,11.232h-7.06v6.84h6.27l-6.05,50.256h13.97l6.26-50.256h2.23v42.048a7.919,7.919,0,0,0,.65,3.2,9.127,9.127,0,0,0,4.36,4.356,7.856,7.856,0,0,0,3.2.648h14.55l1.65-6.84h-10.73V234.168h1.95a7.856,7.856,0,0,0,3.2-.648,8.626,8.626,0,0,0,2.63-1.8,8.143,8.143,0,0,0,1.73-2.592,8,8,0,0,0,.65-3.168v-8.208h-13.68v9.576h-11.6l1.44-11.232H1091.5Zm42.91,8.856h26.71V226.9h-17.21a7.856,7.856,0,0,0-3.2.648,8.23,8.23,0,0,0-2.56,1.728,8.651,8.651,0,0,0-1.8,2.628,7.911,7.911,0,0,0-.64,3.2v10.872a7.911,7.911,0,0,0,.64,3.2,7.8,7.8,0,0,0,1.8,2.556,8.23,8.23,0,0,0,2.56,1.728,7.856,7.856,0,0,0,3.2.648h17.21v2.88h-27.29v6.768h60.05a7.938,7.938,0,0,0,3.21-.648,8.159,8.159,0,0,0,4.28-4.284,7.916,7.916,0,0,0,.65-3.2v-0.072h-13.61v1.44H1174.8v-2.88h17.14a7.856,7.856,0,0,0,3.2-.648,9.339,9.339,0,0,0,2.63-1.728,8.252,8.252,0,0,0,1.73-2.556,7.916,7.916,0,0,0,.65-3.2V235.1a7.916,7.916,0,0,0-.65-3.2,9.208,9.208,0,0,0-1.73-2.628,9.339,9.339,0,0,0-2.63-1.728,7.856,7.856,0,0,0-3.2-.648H1174.8v-1.944h26.71v-6.84H1174.8v-1.944h-13.68v1.944h-26.71v6.84Zm14.98,8.784h11.73v3.384h-11.73v-3.384Zm37.08,0v3.384H1174.8v-3.384h11.67Zm-37.08,10.224h11.73v3.384h-11.73V243.96Zm25.41,3.384V243.96h11.67v3.384H1174.8Zm-5.18,17.784,1.73,10.3h12.6l-1.66-10.3h-12.67ZM1137,265.7l-2.95,18.144h12.6l3.02-18.144H1137Zm15.34,0v10.512a7.756,7.756,0,0,0,.65,3.2,9.021,9.021,0,0,0,4.39,4.356,7.955,7.955,0,0,0,3.17.648h24.62l2.23-6.84h-21.38V265.7h-13.68Zm33.91,0,2.95,18.144h12.67l-3.02-18.144h-12.6ZM1227,241.512h16.71v8.064h-7.92a7.869,7.869,0,0,0-3.21.648,8.3,8.3,0,0,0-2.55,1.728,7.657,7.657,0,0,0-1.8,2.556,7.753,7.753,0,0,0-.65,3.2V276.36a7.83,7.83,0,0,0,.65,3.168,7.566,7.566,0,0,0,1.8,2.592,7.745,7.745,0,0,0,2.55,1.8,7.869,7.869,0,0,0,3.21.648h29.52a7.89,7.89,0,0,0,3.2-.648,8.644,8.644,0,0,0,2.63-1.8,8.312,8.312,0,0,0,1.73-2.592,7.991,7.991,0,0,0,.64-3.168V257.712a7.911,7.911,0,0,0-.64-3.2,8.429,8.429,0,0,0-1.73-2.556,9.339,9.339,0,0,0-2.63-1.728,7.89,7.89,0,0,0-3.2-.648h-7.92v-8.064h16.7v-6.84h-16.7V224.448h15.62v-6.84h-44.86v6.84h15.56v10.224H1227v6.84Zm-21.17-16.632h18.65v-6.84h-18.65v6.84Zm0,15.192h18.65v-6.84h-18.65v6.84Zm4.97,9.072-4.97,34.92h13.61l5.04-34.92H1210.8Zm30.46,7.2h18.57v21.384h-18.57V256.344Zm88.63-40.032h-13.61l-0.5,5.9h-4.18v6.84h3.6l-4.46,55.368h13.68l4.46-55.368h3.03v48.528h-3.82v6.84h9.29a7.8,7.8,0,0,0,5.76-2.448,8.441,8.441,0,0,0,1.73-2.556,7.914,7.914,0,0,0,.64-3.2V230.424a7.911,7.911,0,0,0-.64-3.2,9.423,9.423,0,0,0-1.73-2.628,8.348,8.348,0,0,0-2.56-1.728,7.856,7.856,0,0,0-3.2-.648h-7.99Zm-50.76,8.784h29.81v-6.84h-29.81v6.84Zm-1.3,20.016h4.04l-3.03,29.808a7.541,7.541,0,0,0,.36,3.42,8.7,8.7,0,0,0,1.69,2.88,8.106,8.106,0,0,0,6.09,2.7h14.04a7.991,7.991,0,0,0,3.17-.648,8.538,8.538,0,0,0,2.66-1.8,8.143,8.143,0,0,0,1.73-2.592,8,8,0,0,0,.65-3.168V251.3h-11.52V277.08h-5.12l3.1-31.968h14.54v-6.84h-32.4v6.84Zm-192.78,64.272h2.25a7.636,7.636,0,0,0,4.89-1.476,5.452,5.452,0,0,0,2.04-4.547,5.668,5.668,0,0,0-.6-2.661,4.006,4.006,0,0,0-2.54-1.992,12.756,12.756,0,0,0-3.34-.328h-5.07v18.188h2.37v-7.184Zm0-9.187h2.74a5.054,5.054,0,0,1,2.87.645,2.947,2.947,0,0,1,1.12,2.618,3.663,3.663,0,0,1-1.47,3.286,6.644,6.644,0,0,1-3.67.822h-1.59V300.2Zm13.82,9.9a6.429,6.429,0,0,1,.76-3.281,3.017,3.017,0,0,1,2.78-1.618,3.764,3.764,0,0,1,1.64.375v-2.261a3.122,3.122,0,0,0-1.17-.2,4,4,0,0,0-1.47.281,5.037,5.037,0,0,0-2.54,2.39v-2.308h-2.18v13.09h2.18V310.1Zm15.65,3.223a1.505,1.505,0,0,1-.97,1.418,3.972,3.972,0,0,1-1.79.375,3.886,3.886,0,0,1-3.19-1.418,5.175,5.175,0,0,1-1.08-3.4h9.3v-0.726a8.444,8.444,0,0,0-.71-3.809,4.77,4.77,0,0,0-4.6-2.648,5.554,5.554,0,0,0-4.55,2.121,7.507,7.507,0,0,0-1.59,4.875,7.2,7.2,0,0,0,1.59,4.863,5.794,5.794,0,0,0,4.64,1.957,6.736,6.736,0,0,0,2.61-.469,4.424,4.424,0,0,0,1.71-1.23,2.857,2.857,0,0,0,.81-1.91V313.2h-2.18v0.118Zm-5.73-7.207a3.134,3.134,0,0,1,2.45-1.184,3.784,3.784,0,0,1,1.81.416,3.035,3.035,0,0,1,1.23,1.3,3.852,3.852,0,0,1,.42,1.758v0.258h-7.07a5.421,5.421,0,0,1,1.16-2.543h0Zm14.35-.821h3.82v-1.816h-3.82v-1.023a3.746,3.746,0,0,1,.5-2.209,2.368,2.368,0,0,1,2.03-.776,10.93,10.93,0,0,1,1.46.129v-1.781a12.892,12.892,0,0,0-1.84-.164q-4.335,0-4.33,5.214v0.61h-1.91v1.816h1.91v11.274h2.18V305.294Zm14.56,8.028a1.505,1.505,0,0,1-.97,1.418,3.972,3.972,0,0,1-1.79.375,3.886,3.886,0,0,1-3.19-1.418,5.175,5.175,0,0,1-1.08-3.4h9.3v-0.726a8.444,8.444,0,0,0-.71-3.809,4.77,4.77,0,0,0-4.6-2.648,5.554,5.554,0,0,0-4.55,2.121,7.507,7.507,0,0,0-1.59,4.875,7.2,7.2,0,0,0,1.59,4.863,5.794,5.794,0,0,0,4.64,1.957,6.771,6.771,0,0,0,2.61-.469,4.424,4.424,0,0,0,1.71-1.23,2.857,2.857,0,0,0,.81-1.91V313.2h-2.18v0.118Zm-5.73-7.207a3.134,3.134,0,0,1,2.45-1.184,3.784,3.784,0,0,1,1.81.416,3.035,3.035,0,0,1,1.23,1.3,3.852,3.852,0,0,1,.42,1.758v0.258h-7.07a5.421,5.421,0,0,1,1.16-2.543h0Zm13.16,3.984a6.532,6.532,0,0,1,.76-3.281,3.038,3.038,0,0,1,2.78-1.618,3.7,3.7,0,0,1,1.64.375v-2.261a3.122,3.122,0,0,0-1.17-.2,3.908,3.908,0,0,0-1.46.281,5.056,5.056,0,0,0-2.55,2.39v-2.308h-2.18v13.09h2.18V310.1Zm15.66,3.223a1.505,1.505,0,0,1-.97,1.418,3.987,3.987,0,0,1-1.8.375,3.853,3.853,0,0,1-3.18-1.418,5.175,5.175,0,0,1-1.08-3.4h9.29v-0.726a8.457,8.457,0,0,0-.7-3.809,4.784,4.784,0,0,0-4.61-2.648,5.535,5.535,0,0,0-4.54,2.121,7.458,7.458,0,0,0-1.6,4.875,7.156,7.156,0,0,0,1.6,4.863,5.794,5.794,0,0,0,4.64,1.957,6.807,6.807,0,0,0,2.61-.469,4.577,4.577,0,0,0,1.71-1.23,2.857,2.857,0,0,0,.81-1.91V313.2h-2.18v0.118Zm-5.73-7.207a3.12,3.12,0,0,1,2.45-1.184,3.716,3.716,0,0,1,1.8.416,2.923,2.923,0,0,1,1.23,1.3,3.862,3.862,0,0,1,.43,1.758v0.258h-7.07a5.326,5.326,0,0,1,1.16-2.543h0Zm13.16,4.019a6.231,6.231,0,0,1,.53-2.883,3.46,3.46,0,0,1,3.21-2.133,2.774,2.774,0,0,1,1.47.411,2.353,2.353,0,0,1,1.04,1.628,12.681,12.681,0,0,1,.11,2.016v7.395h2.18v-8.332a6.851,6.851,0,0,0-.54-3.141,3.891,3.891,0,0,0-3.72-1.98,4.511,4.511,0,0,0-1.57.257,5.589,5.589,0,0,0-2.71,2.368v-2.262h-2.18v13.09h2.18v-6.434Zm17.89,4.981a2.8,2.8,0,0,1-1.38-.317,2.137,2.137,0,0,1-1.01-1.512,10.569,10.569,0,0,1-.11-1.886v-6.106h3.82v-1.816h-3.82v-3.094h-2.18v3.094h-2.28v1.816h2.28v6.727a6.564,6.564,0,0,0,.51,2.988,3.826,3.826,0,0,0,3.68,1.922,11.259,11.259,0,0,0,2.44-.387v-1.828a7.439,7.439,0,0,1-1.95.4h0Zm4.57,1.453h2.18v-13.09h-2.18v13.09Zm2.18-16V298.38h-2.18v2.192h2.18Zm13.83,16a13.753,13.753,0,0,1-.46-3.891v-5.086a5.4,5.4,0,0,0-.53-2.848c-0.79-1.093-2.22-1.64-4.32-1.64a7.278,7.278,0,0,0-2.65.469,4.745,4.745,0,0,0-1.81,1.23,2.861,2.861,0,0,0-.87,1.957v0.176h2.37v-0.188a1.7,1.7,0,0,1,.99-1.547,3.871,3.871,0,0,1,1.89-.445c1.84,0,2.75.727,2.75,2.18v1.476l-1.17.223a20.6,20.6,0,0,0-4.49,1.242,3.78,3.78,0,0,0-2.51,3.469,3.373,3.373,0,0,0,1.1,2.625,3.834,3.834,0,0,0,2.69.961,6.322,6.322,0,0,0,4.38-2.18,6.293,6.293,0,0,0,.34,1.817h2.3Zm-2.64-5.309a4.205,4.205,0,0,1-.48,2.057,4,4,0,0,1-1.36,1.424,3.312,3.312,0,0,1-1.82.55,2.577,2.577,0,0,1-1.07-.246,1.688,1.688,0,0,1-1.09-1.652c0-.961.66-1.735,1.99-2.32a24.205,24.205,0,0,1,3.18-.95l0.65-.164v1.3Zm7.73-13.605h-2.18v18.914h2.18V297.654Zm21.83,18.914a13.4,13.4,0,0,1-.46-3.891v-5.086a5.281,5.281,0,0,0-.54-2.848c-0.78-1.093-2.22-1.64-4.31-1.64a7.278,7.278,0,0,0-2.65.469,4.745,4.745,0,0,0-1.81,1.23,2.861,2.861,0,0,0-.87,1.957v0.176h2.37v-0.188a1.7,1.7,0,0,1,.99-1.547,3.871,3.871,0,0,1,1.89-.445c1.83,0,2.75.727,2.75,2.18v1.476l-1.17.223a20.433,20.433,0,0,0-4.49,1.242,3.79,3.79,0,0,0-2.52,3.469,3.406,3.406,0,0,0,1.1,2.625,3.876,3.876,0,0,0,2.7.961,6.359,6.359,0,0,0,4.38-2.18,6.293,6.293,0,0,0,.34,1.817h2.3Zm-2.64-5.309a4.205,4.205,0,0,1-.48,2.057,4,4,0,0,1-1.36,1.424,3.344,3.344,0,0,1-1.83.55,2.533,2.533,0,0,1-1.06-.246,1.688,1.688,0,0,1-1.09-1.652c0-.961.66-1.735,1.99-2.32a24.205,24.205,0,0,1,3.18-.95l0.65-.164v1.3Zm13.73,2.063a1.517,1.517,0,0,1-.92,1.418,3.713,3.713,0,0,1-1.75.375,3.314,3.314,0,0,1-3.03-1.606,7.761,7.761,0,0,1,0-6.984,3.32,3.32,0,0,1,3.03-1.594,3.246,3.246,0,0,1,2.05.539,1.586,1.586,0,0,1,.62,1.254v0.117h2.19v-0.117a2.892,2.892,0,0,0-.66-1.84,5.214,5.214,0,0,0-4.32-1.769,5.509,5.509,0,0,0-4.6,1.992,9.165,9.165,0,0,0,0,9.832,5.509,5.509,0,0,0,4.6,1.992,6.353,6.353,0,0,0,2.59-.481,4.459,4.459,0,0,0,1.64-1.242,2.948,2.948,0,0,0,.75-1.886V313.2h-2.19v0.118Zm10.98,1.793a2.871,2.871,0,0,1-1.39-.317,2.1,2.1,0,0,1-1-1.512,10.334,10.334,0,0,1-.12-1.886v-6.106h3.82v-1.816h-3.82v-3.094h-2.18v3.094h-2.28v1.816h2.28v6.727a6.564,6.564,0,0,0,.51,2.988,3.836,3.836,0,0,0,3.68,1.922,11.171,11.171,0,0,0,2.44-.387v-1.828a7.385,7.385,0,0,1-1.94.4h0Zm4.57,1.453h2.18v-13.09h-2.18v13.09Zm2.18-16V298.38h-2.18v2.192h2.18Zm9.51,16,5.49-13.09h-2.18l-4.29,10.25-4.2-10.25h-2.33l5.33,13.09h2.18Zm7.49,0h2.18v-13.09h-2.18v13.09Zm2.18-16V298.38h-2.18v2.192h2.18Zm9.53,14.543a2.871,2.871,0,0,1-1.39-.317,2.1,2.1,0,0,1-1-1.512,10.334,10.334,0,0,1-.12-1.886v-6.106h3.82v-1.816h-3.82v-3.094h-2.18v3.094h-2.27v1.816h2.27v6.727a6.564,6.564,0,0,0,.51,2.988,3.836,3.836,0,0,0,3.68,1.922,11.171,11.171,0,0,0,2.44-.387v-1.828a7.385,7.385,0,0,1-1.94.4h0Zm4.57,1.453h2.18v-13.09h-2.18v13.09Zm2.18-16V298.38h-2.18v2.192h2.18Zm12.02,12.75a1.505,1.505,0,0,1-.97,1.418,3.987,3.987,0,0,1-1.8.375,3.853,3.853,0,0,1-3.18-1.418,5.175,5.175,0,0,1-1.08-3.4h9.29v-0.726a8.457,8.457,0,0,0-.7-3.809,4.784,4.784,0,0,0-4.61-2.648,5.535,5.535,0,0,0-4.54,2.121,7.458,7.458,0,0,0-1.6,4.875,7.156,7.156,0,0,0,1.6,4.863,5.794,5.794,0,0,0,4.64,1.957,6.807,6.807,0,0,0,2.61-.469,4.577,4.577,0,0,0,1.71-1.23,2.857,2.857,0,0,0,.81-1.91V313.2h-2.18v0.118Zm-5.73-7.207a3.134,3.134,0,0,1,2.45-1.184,3.716,3.716,0,0,1,1.8.416,2.923,2.923,0,0,1,1.23,1.3,3.862,3.862,0,0,1,.43,1.758v0.258h-7.07a5.326,5.326,0,0,1,1.16-2.543h0Zm10.18,7.043a3.13,3.13,0,0,0,.64,1.957,5.085,5.085,0,0,0,4.38,1.816,5.9,5.9,0,0,0,3.63-1.055,3.9,3.9,0,0,0,1.58-3.328,2.844,2.844,0,0,0-1.07-2.414,5.242,5.242,0,0,0-1.34-.691q-0.225-.082-1.44-0.434l-1.82-.515c-1.31-.368-1.97-0.926-1.97-1.676a1.6,1.6,0,0,1,.92-1.477,3.638,3.638,0,0,1,1.79-.41q2.43,0,2.43,1.406v0.047h2.19v-0.047a2.738,2.738,0,0,0-1.49-2.531,6.82,6.82,0,0,0-6.4.222A3.369,3.369,0,0,0,1314.8,307a3.156,3.156,0,0,0,2.59,3.15l3.36,1.052c1.09,0.336,1.64.905,1.64,1.709a1.879,1.879,0,0,1-1.03,1.674,3.759,3.759,0,0,1-1.99.527c-1.89,0-2.83-.653-2.83-1.957v-0.047h-2.18v0.047Z" transform="translate(-1061.84 -216.094)"/>
</svg>
