<svg xmlns="http://www.w3.org/2000/svg" viewBox="0 0 162.52 196.93"><defs><style>.cls-1{fill:#fffdfe;}.cls-2{fill:#cac7ca;}</style></defs><title>资源 1</title><g id="图层_2" data-name="图层 2"><g id="图层_1-2" data-name="图层 1"><path class="cls-1" d="M162.52,154.07a43.09,43.09,0,0,0-42.85-38.63H99.48a4.63,4.63,0,0,1-4.63-4.63v-2.19A4.71,4.71,0,0,1,98,104.25c19.71-7.41,33.2-39.74,30.46-62.59A47.69,47.69,0,0,0,86.74.3,48.58,48.58,0,0,0,81.53,0h-.16A47.53,47.53,0,0,0,33.72,47.53c0,20.45,12.93,50.1,31.05,56.8a4.57,4.57,0,0,1,2.9,4.32v2.16A4.63,4.63,0,0,1,63,115.44H42.85A43.09,43.09,0,0,0,0,154.07a98.46,98.46,0,0,0,162.52,0Zm0,0"/><path class="cls-2" d="M96.51,22.44c12.61,3.47,24.49,11.23,32.1,21.47-.05-.75-.08-1.52-.17-2.25A47.69,47.69,0,0,0,86.74.3,48.58,48.58,0,0,0,81.53,0h-.16A47.51,47.51,0,0,0,34.48,39.33h0c.61.86,1.2,1.72,1.85,2.55l.72-.88c6.79-8.08,18.14-10,27.79-5.67A23.77,23.77,0,0,0,96.51,22.44Zm0,0"/><path class="cls-2" d="M162.52,154.07a43.09,43.09,0,0,0-42.85-38.63h-4.45L94.84,135.82H67.68L57.49,129,45.85,115.44h-3A43.09,43.09,0,0,0,0,154.07a98.46,98.46,0,0,0,162.52,0Zm0,0"/></g></g></svg>