<?xml version="1.0" encoding="utf-8"?>
<!-- Generator: Adobe Illustrator 21.1.0, SVG Export Plug-In . SVG Version: 6.00 Build 0)  -->
<svg version="1.1" id="图层_1" xmlns="http://www.w3.org/2000/svg" xmlns:xlink="http://www.w3.org/1999/xlink" x="0px" y="0px"
	 viewBox="0 0 1024 1024" style="enable-background:new 0 0 1024 1024;" xml:space="preserve">
<style type="text/css">
	.st0{fill:#E5BD56;}
	.st1{fill:#641E7C;}
</style>
<path class="st0" d="M72,310.3h189.1c0,0,35.7,0,42.4,11.1h-35v11.8l53.9,0.7c0,0,8.7,6.6,8.7,11.8l-62.6,0.7v11.1h69.3
	c4.8,2.9,7.2,8.5,6.1,14h-216v12.5l219.4-0.7c0,0,1.3,9.5,1.3,12.5H127.9v12.5l221.5-0.7c0,0,1.3,7.3-2.1,12.5l-219.4,2.2v11.8
	l216.1-1.4c0,0,0,9.6-5.5,12.5l-210.7,1.4v11l204-1.4c0,0-0.7,11.8-8,14l-195.9,0.7v11.8l179.7-1.4c0,0-4,14.7-31.6,13.2l-33.6-0.7
	v10.9l54.6,0.7c0,0,22.8,0,26.3,10.3l-80.8,2.2v10.9h95c0,0,8.7,7.3,8.7,11.8l-218.1,1.4v13.2l222.8-2.2c0,0,8.8,6.6,8.8,13.1
	l-231.5,1.4v11.1h235c0,0,2.6,3.6,1.3,10.3l-236.3,2.3v11.1h236.3c0,0,2,6.6,0,11.7l-236.3,1.5v11.8h234.2c1,4.7-0.2,9.6-3.4,13.2
	H127.9v11.9l226.2-0.7c0,0-0.8,11.8-5.4,12.5h-80v12.5l69.3-0.7c0,0-4.7,11.8-9.4,13.2l-59.9,0.7v12.5l40.3-0.7
	c0,0-6.1,14-59.2,11.8l-177.6-0.8L72,310.3z"/>
<path class="st1" d="M564.6,493.7l1.4,179.9l54.8,0.7l-0.7-87.3c-2.9-41,14.5-46.9,14.5-46.9c38.9-22.5,54.1,12.5,54.1,12.5
	l0.7,121.6h54.1l-1.4-134.8c-11.5-62.8-70-52.3-70-52.3c-23-2.7-53.4,25.8-53.4,25.8l0.8-19.2L564.6,493.7z M762.9,420.3l1.4,253.2
	h54.1l-0.7-40.4l26.7-33l44.1,74l63.5-1.9l-68.5-115l56.9-72.1h-62.7l-61.5,73.4L813.5,421L762.9,420.3z M545.7,653.6l-2.1-118.9
	c-2.8-64.2-115.4-43-115.4-43c-60.6,9.4-54.1,58.2-54.1,58.2l54.1-0.7c1.4-29.1,49-19.2,49-19.2c32.5,24.5-5.8,30.4-5.8,30.4
	c-17.4,0-73.6,14.5-73.6,14.5c-34.6,11.9-32.5,45.6-32.5,45.6c0,50.9,50.4,54.2,50.4,54.2c46.9,10,75.8-17.9,75.8-17.9l3.7,18.5
	l57.6-1.3l-7.2-20.6L545.7,653.6z M492,610.7c0,0-5.6,16.6-22.3,23.8c0,0-36.3,17.9-47.9-6.6c0,0-3.9-15.5,12.7-21.5
	c0,0,43.2-14.2,58-18.9C493.3,595.2,493.2,603,492,610.7L492,610.7z"/>
</svg>
