<svg xmlns="http://www.w3.org/2000/svg" xmlns:xlink="http://www.w3.org/1999/xlink" viewBox="0 0 667.18 665.65"><defs><style>.cls-1{fill:none;}.cls-2{clip-path:url(#clip-path);}.cls-3{fill:#aeecff;}.cls-4{fill:#e3faff;}.cls-5{fill:#ffff5f;}.cls-6{fill:#66bf47;}.cls-7{fill:#3fb018;}.cls-8{fill:#5aa93e;}</style><clipPath id="clip-path" transform="translate(0 -0.35)"><rect class="cls-1" x="0.12" width="667.88" height="666.96"/></clipPath></defs><title>资源 1</title><g id="图层_2" data-name="图层 2"><g id="图层_1-2" data-name="图层 1"><g class="cls-2"><path class="cls-3" d="M1.58,333.15c0,183.8,149,332.8,332.8,332.8s332.8-149,332.8-332.8S518.18.35,334.38.35s-332.8,149-332.8,332.8Zm0,0" transform="translate(0 -0.35)"/><path class="cls-4" d="M504.16,87.65,468.48,52.27,7,271.25s-17.15,64.16,2.2,141.93c133.58-86.37,402.84-264.55,495-325.53Zm-63.85,82.69L216.11,369.45l74.7,45.93,185.6-218.73ZM503,205.1,409.9,431.4h83.2L537.9,218Zm69.43-16.59V448.4l80.54-18.89L604.16,188.15Zm0,0" transform="translate(0 -0.35)"/></g><path class="cls-5" d="M420.66,116.57A116.17,116.17,0,1,0,536.83.4,116.17,116.17,0,0,0,420.66,116.57Zm0,0" transform="translate(0 -0.35)"/><path class="cls-6" d="M334.33,666c86.53,0,165.12-33.28,224.26-87.45a88.09,88.09,0,0,0-22.12-38L275.71,279.7a90,90,0,0,0-126.93,0L12.39,416C49.3,559.71,179.25,666,334.33,666Zm0,0" transform="translate(0 -0.35)"/><path class="cls-7" d="M170.85,622.84A332.13,332.13,0,0,0,654.53,423l-81.31-81.25a90,90,0,0,0-126.92,0L185.54,602.56a87.47,87.47,0,0,0-14.69,20.27Zm0,0" transform="translate(0 -0.35)"/><path class="cls-8" d="M334.33,666a331,331,0,0,0,149.14-35.59l-177-176.94a102.65,102.65,0,0,0-144.79,0L74.44,540.71A331.88,331.88,0,0,0,334.33,666Zm0,0" transform="translate(0 -0.35)"/></g></g></svg>