<?xml version="1.0" encoding="utf-8"?>
<!-- Generator: Adobe Illustrator 21.1.0, SVG Export Plug-In . SVG Version: 6.00 Build 0)  -->
<svg version="1.1" id="图层_1" xmlns="http://www.w3.org/2000/svg" xmlns:xlink="http://www.w3.org/1999/xlink" x="0px" y="0px"
	 viewBox="0 0 1024 1024" style="enable-background:new 0 0 1024 1024;" xml:space="preserve">
<style type="text/css">
	.st0{fill:#009B89;}
	.st1{fill:#2C5082;}
</style>
<path class="st0" d="M516.2,598.8l81,43.1l-81,43v51.7l202.5-101.9l-202.5-86.1V598.8z M516.2,204.3v-41.6h2.8
	c145.3-4.3,434.4,50.2,433,219.5H817.9C798.4,254.5,655.9,200,516.2,204.3L516.2,204.3z M435.2,641.9l75.4-45.9l5.6,2.8v-50.2
	l-19.5-8.6c0,0-293.4,11.5-268.2-198c30.8-84.7,159.3-134.9,287.8-137.7v-41.6C356.9,167,134.9,211.4,92.9,359.3
	c-1.4,5.7-2.8,10-2.8,14.4v20.1c8.3,84.7,129.9,182.2,329.6,182.2l-107.5,66.1l191.3,100.4l12.6-5.7v-51.7l-2.8,1.4L435.2,641.9
	L435.2,641.9z"/>
<path class="st1" d="M590.2,383.6l-75.4,44.5l-5.6-1.4v50.2l18.2,7.1c0,0,293.3-10,269.6,198C764.8,766.7,637.7,817,509.2,819.8
	v41.6c159.3-5.7,381.3-48.8,423.2-196.6c1.4-4.3,2.8-8.6,2.8-14.4v-18.6c-8.4-86.1-131.3-182.2-329.7-183.7l106.2-64.6l-190-101.9
	l-12.6,7.2v50.2l2.8-1.4L590.2,383.6L590.2,383.6z M509.2,426.7l-81-43.1l81-44.5V289L306.7,389.4l202.5,87.5
	C509.2,476.9,509.2,426.7,509.2,426.7z M509.2,819.8v41.6h-2.8C361.2,864.3,72,811.2,72,641.9h135.5
	C227.1,768.2,368.1,822.7,509.2,819.8L509.2,819.8z"/>
</svg>
