<?xml version="1.0" encoding="utf-8"?>
<!-- Generator: Adobe Illustrator 21.1.0, SVG Export Plug-In . SVG Version: 6.00 Build 0)  -->
<svg version="1.1" id="图层_1" xmlns="http://www.w3.org/2000/svg" xmlns:xlink="http://www.w3.org/1999/xlink" x="0px" y="0px"
	 viewBox="0 0 100 100" style="enable-background:new 0 0 100 100;" xml:space="preserve">
<style type="text/css">
	.st0{clip-path:url(#SVGID_2_);fill:#F8E294;}
	.st1{clip-path:url(#SVGID_2_);fill:#F6D65D;}
	.st2{clip-path:url(#SVGID_2_);fill:#F2C13A;}
	.st3{fill:#582A14;}
	.st4{clip-path:url(#SVGID_4_);fill:#C44F1C;}
	.st5{clip-path:url(#SVGID_4_);fill:#D98613;}
</style>
<g>
	<g>
		<defs>
			<rect id="SVGID_1_" x="-0.1" y="0.4" width="100" height="100"/>
		</defs>
		<clipPath id="SVGID_2_">
			<use xlink:href="#SVGID_1_"  style="overflow:visible;"/>
		</clipPath>
		<path class="st0" d="M-0.1,50.3c0,27.6,22.4,49.9,50,49.9c27.6,0,50-22.3,50-49.9c0-27.6-22.4-49.9-50-49.9
			C22.3,0.4-0.1,22.8-0.1,50.3L-0.1,50.3z M-0.1,50.3"/>
		<path class="st1" d="M6.3,58.2c0,4.8,0.7,9.5,2.1,14.1c8.9,16.8,27,26.6,46,24.9c18.9-1.8,35-14.8,40.6-33
			c5.6-18.2-0.3-37.9-15-50c-15.5-8.3-34.2-7.9-49.3,1.2C15.5,24.4,6.3,40.6,6.3,58.2L6.3,58.2z M6.3,58.2"/>
		<path class="st2" d="M41.6,94.7c-5.6,0-11.3-0.7-16.7-2.3c14.8,9.2,33.4,9.7,48.6,1.2C88.7,85.1,98,69,97.9,51.7
			C90.9,77,67.9,94.5,41.6,94.7L41.6,94.7z M41.6,94.7"/>
	</g>
	<path class="st3" d="M27.8,39.5c0,3,2.4,5.4,5.4,5.4c3,0,5.4-2.4,5.4-5.4c0-3-2.4-5.4-5.4-5.4C30.2,34.1,27.8,36.5,27.8,39.5
		L27.8,39.5z M27.8,39.5"/>
	<path class="st3" d="M61.2,39.5c0,3,2.4,5.4,5.4,5.4c3,0,5.4-2.4,5.4-5.4c0-3-2.4-5.4-5.4-5.4C63.6,34.1,61.2,36.5,61.2,39.5
		L61.2,39.5z M61.2,39.5"/>
	<g>
		<defs>
			<rect id="SVGID_3_" x="-0.1" y="0.4" width="100" height="100"/>
		</defs>
		<clipPath id="SVGID_4_">
			<use xlink:href="#SVGID_3_"  style="overflow:visible;"/>
		</clipPath>
		<path class="st4" d="M49.9,81c-16.9,0-30.6-13.7-30.7-30.6c0.1-1.1,1.1-2,2.2-2c1.1,0,2.1,0.9,2.2,2c0,14.5,11.8,26.2,26.3,26.2
			s26.3-11.7,26.3-26.2c0.1-1.1,1.1-2,2.2-2c1.1,0,2.1,0.9,2.2,2C80.5,67.2,66.8,81,49.9,81L49.9,81z M49.9,81"/>
		<path class="st5" d="M91.6,22.9C78,2.2,51.2-5.4,28.8,5.1C6.3,15.6-5.1,40.9,2,64.6c7.1,23.7,30.6,38.7,55.1,35.1
			c24.5-3.6,42.7-24.6,42.7-49.4C99.8,40.6,97,31.1,91.6,22.9L91.6,22.9z M49.9,97.3c-25.9,0-47-21-47-46.9c0-25.9,21-46.9,47-46.9
			c25.9,0,47,21,47,46.9C96.9,76.3,75.8,97.3,49.9,97.3L49.9,97.3z M49.9,97.3"/>
	</g>
</g>
</svg>
