<?xml version="1.0" encoding="utf-8"?>
<!-- Generator: Adobe Illustrator 19.0.0, SVG Export Plug-In . SVG Version: 6.00 Build 0)  -->
<svg version="1.1" id="图层_1" xmlns="http://www.w3.org/2000/svg" xmlns:xlink="http://www.w3.org/1999/xlink" x="0px" y="0px"
	 viewBox="971 -1171.7 2902.7 2902.7" style="enable-background:new 971 -1171.7 2902.7 2902.7;" xml:space="preserve">
<style type="text/css">
	.st0{fill:#999999;}
	.st1{fill:none;}
</style>
<g>
	<path class="st0" d="M1663.8-131.5c0,103.8,85.4,189.2,189.2,189.2c103.8,0,189.2-85.4,189.2-189.2c0-103.8-85.4-189.2-189.2-189.2
		C1749.2-320.6,1663.8-235.3,1663.8-131.5L1663.8-131.5z"/>
	<path d="M2420.6,1089.1"/>
	<path class="st0" d="M2420.6,1723.6c-791.4,0-1435.1-646-1435.1-1437.4c0-791.4,643.7-1435.1,1435.1-1435.1
		c791.4,0,1437.4,643.7,1437.4,1437.4S3212,1723.6,2420.6,1723.6L2420.6,1723.6z M2420.6-994.4c-706,0-1280.5,574.5-1280.5,1280.5
		c0,706,574.5,1280.5,1280.5,1280.5c706,0,1280.5-574.5,1280.5-1280.5C3701.2-419.9,3126.7-994.4,2420.6-994.4L2420.6-994.4z"/>
	<rect x="985.9" y="-1148.5" class="st1" width="2872.5" height="2875.7"/>
	<path class="st0" d="M2799-131.5c0,103.8,85.4,189.2,189.2,189.2c103.8,0,189.2-85.4,189.2-189.2c0-103.8-85.4-189.2-189.2-189.2
		C2884.4-320.6,2799-235.3,2799-131.5L2799-131.5z"/>
	<path class="st0" d="M2994.5,458.1H1846.7h-133.6V599c0,334.8,316.8,606.3,707.5,606.3c390.7,0,707.5-271.4,707.5-606.3V458.1
		L2994.5,458.1L2994.5,458.1z M2994.5,599c0,260.7-257.5,472.7-573.9,472.7c-316.4,0-573.9-212-573.9-472.7v-7.3h1147.8V599z"/>
</g>
</svg>
