<svg xmlns="http://www.w3.org/2000/svg" width="283.25" height="105.5" viewBox="0 0 283.25 105.5">
  <metadata><?xpacket begin="﻿" id="W5M0MpCehiHzreSzNTczkc9d"?>
<x:xmpmeta xmlns:x="adobe:ns:meta/" x:xmptk="Adobe XMP Core 5.6-c138 79.159824, 2016/09/14-01:09:01        ">
   <rdf:RDF xmlns:rdf="http://www.w3.org/1999/02/22-rdf-syntax-ns#">
      <rdf:Description rdf:about=""/>
   </rdf:RDF>
</x:xmpmeta>
                                                                                                    
                                                                                                    
                                                                                                    
                                                                                                    
                                                                                                    
                                                                                                    
                                                                                                    
                                                                                                    
                                                                                                    
                                                                                                    
                                                                                                    
                                                                                                    
                                                                                                    
                                                                                                    
                                                                                                    
                                                                                                    
                                                                                                    
                                                                                                    
                                                                                                    
                                                                                                    
                           
<?xpacket end="w"?></metadata>
<defs>
    <style>
      .cls-1 {
        fill: #323232;
        fill-rule: evenodd;
      }
    </style>
  </defs>
  <path id="Lottery_ticket_hall" data-name="Lottery ticket hall" class="cls-1" d="M1110.17,238.056h14.26l11.73-20.232h-14.25Zm-2.52-19.656h-39.02v6.84h39.02V218.4Zm-39.31,9.288,1.51,17.424h11.59l-1.58-17.424h-11.52Zm13.53,0,1.59,17.424h11.01l-1.58-17.424h-11.02Zm15.12,0-1.58,17.424h11.02l1.58-17.424h-11.02Zm13.18,32.76h14.26l11.73-20.232h-14.25ZM1081.3,247.7v3.1h-13.47v6.84h13.47V284.5h13.68V257.64h13.46V250.8h-13.46v-3.1H1081.3Zm-2.59,36.792,1.36-24.84h-10.72l-1.52,24.84h10.88Zm29.73,0-1.51-24.84H1096.2l1.37,24.84h10.87Zm1.73,0h14.26l11.73-21.816h-14.25Zm30.31-59.9h18.07v3.384h-10.22a6.781,6.781,0,0,0-2.7.54,6.6,6.6,0,0,0-2.12,1.4,6.847,6.847,0,0,0-1.48,2.2,6.6,6.6,0,0,0-.54,2.628v7.848a6.526,6.526,0,0,0,.54,2.664,6.961,6.961,0,0,0,1.48,2.16,6.064,6.064,0,0,0,2.12,1.476,6.781,6.781,0,0,0,2.7.54h51.26a6.621,6.621,0,0,0,2.63-.54,7.021,7.021,0,0,0,2.2-1.476,7.106,7.106,0,0,0,1.47-2.16,6.526,6.526,0,0,0,.54-2.664v-7.848a6.6,6.6,0,0,0-.54-2.628,6.986,6.986,0,0,0-1.47-2.2,7.748,7.748,0,0,0-2.2-1.4,6.621,6.621,0,0,0-2.63-.54h-10.22v-3.384h18.07v-6.84h-66.96v6.84Zm31.75,0h3.46v3.384h-3.46v-3.384Zm-17.06,18v-7.848h3.38v7.848h-3.38Zm17.06-7.848h3.46v7.848h-3.46v-7.848Zm20.52,0v7.848h-3.38v-7.848h3.38ZM1141.99,259.3h63.94v-6.84h-63.94v6.84Zm-1.36,9.648h27.14v8.712h-5.62v6.84h11.09a7.938,7.938,0,0,0,3.21-.648,8.6,8.6,0,0,0,2.62-1.8,8.143,8.143,0,0,0,1.73-2.592,8,8,0,0,0,.65-3.168v-7.344h25.85v-6.768h-66.67v6.768Zm6.62,2.016-7.42,12.312h13.68l7.42-12.312h-13.68Zm39.74,0,7.49,12.312h13.61l-7.49-12.312h-13.61Zm65.81-54.792h-13.68v17.64h-26.71v6.84h24.77l-25.35,43.776h14.69l19.37-34.056,19.51,34.056h14.69l-23.9-41.472h-6.05l1.29-2.3h28.08v-6.84H1252.8v-17.64Zm98.28,1.584h-56.81a7.856,7.856,0,0,0-3.2.648,8.348,8.348,0,0,0-2.56,1.728,8.526,8.526,0,0,0-1.8,2.664,7.987,7.987,0,0,0-.64,3.168V284.5h13.68v-59.9h51.33v-6.84Zm-48.31,21.24h17.28v38.664h-9.07v6.84h14.54a7.938,7.938,0,0,0,3.21-.648,8.6,8.6,0,0,0,2.62-1.8,8.143,8.143,0,0,0,1.73-2.592,8,8,0,0,0,.65-3.168v-37.3h17.35v-6.84h-48.31v6.84Zm-191.18,77.576v-2h-9.54V298.38h-2.37v18.188h11.91Zm12.27-1.653a8.452,8.452,0,0,0,0-9.785,6.327,6.327,0,0,0-9.25-.011,8.514,8.514,0,0,0,0,9.8,6.313,6.313,0,0,0,9.25,0h0Zm-7.62-1.441a7.089,7.089,0,0,1,0-6.914,3.561,3.561,0,0,1,5.99.012,7.066,7.066,0,0,1,0,6.9,3.554,3.554,0,0,1-5.99,0h0Zm18.06,1.641a2.8,2.8,0,0,1-1.38-.317,2.108,2.108,0,0,1-1.01-1.512,10.334,10.334,0,0,1-.12-1.886v-6.106h3.82v-1.816h-3.82v-3.094h-2.18v3.094h-2.27v1.816h2.27v6.727a6.542,6.542,0,0,0,.52,2.988,3.817,3.817,0,0,0,3.68,1.922,11.348,11.348,0,0,0,2.44-.387v-1.828a7.439,7.439,0,0,1-1.95.4h0Zm10.64,0a2.8,2.8,0,0,1-1.38-.317,2.108,2.108,0,0,1-1.01-1.512,10.334,10.334,0,0,1-.12-1.886v-6.106h3.82v-1.816h-3.82v-3.094h-2.18v3.094h-2.27v1.816h2.27v6.727a6.542,6.542,0,0,0,.52,2.988,3.817,3.817,0,0,0,3.68,1.922,11.348,11.348,0,0,0,2.44-.387v-1.828a7.439,7.439,0,0,1-1.95.4h0Zm13.14-1.793a1.52,1.52,0,0,1-.97,1.418,3.987,3.987,0,0,1-1.8.375,3.853,3.853,0,0,1-3.18-1.418,5.175,5.175,0,0,1-1.08-3.4h9.29v-0.726a8.457,8.457,0,0,0-.7-3.809,4.784,4.784,0,0,0-4.61-2.648,5.568,5.568,0,0,0-4.55,2.121,7.507,7.507,0,0,0-1.59,4.875,7.2,7.2,0,0,0,1.59,4.863,5.829,5.829,0,0,0,4.65,1.957,6.807,6.807,0,0,0,2.61-.469,4.577,4.577,0,0,0,1.71-1.23,2.857,2.857,0,0,0,.81-1.91V313.2h-2.18v0.118Zm-5.73-7.208a3.119,3.119,0,0,1,2.45-1.183,3.743,3.743,0,0,1,1.8.416,2.923,2.923,0,0,1,1.23,1.3,3.852,3.852,0,0,1,.42,1.758v0.257h-7.06a5.334,5.334,0,0,1,1.16-2.543h0Zm13.16,3.985a6.429,6.429,0,0,1,.76-3.281,3.016,3.016,0,0,1,2.78-1.617,3.717,3.717,0,0,1,1.64.374v-2.261a3.122,3.122,0,0,0-1.17-.2,4,4,0,0,0-1.47.281,5.037,5.037,0,0,0-2.54,2.39v-2.308h-2.18v13.09h2.18V310.1Zm11.13,6.41a11.969,11.969,0,0,1-1.21,2.32,3.381,3.381,0,0,1-2.72,1.008h-1.23v1.817h1.65a5.9,5.9,0,0,0,2.23-.352,4.9,4.9,0,0,0,2.15-2.016,20.8,20.8,0,0,0,1.3-2.707l5.52-13.1h-2.19l-4.1,9.708-4.37-9.708h-2.43l5.62,12.527Zm23.75-1.394a2.831,2.831,0,0,1-1.38-.317,2.137,2.137,0,0,1-1.01-1.512,11.634,11.634,0,0,1-.11-1.886v-6.106h3.82v-1.816h-3.82v-3.094h-2.18v3.094h-2.28v1.816h2.28v6.727a6.564,6.564,0,0,0,.51,2.988,3.826,3.826,0,0,0,3.68,1.922,11.259,11.259,0,0,0,2.44-.387v-1.828a7.439,7.439,0,0,1-1.95.4h0Zm4.57,1.453h2.18v-13.09h-2.18v13.09Zm2.18-16V298.38h-2.18v2.192h2.18Zm11.64,12.75a1.508,1.508,0,0,1-.91,1.418,3.755,3.755,0,0,1-1.76.375,3.335,3.335,0,0,1-3.03-1.606,7.761,7.761,0,0,1,0-6.984,3.342,3.342,0,0,1,3.03-1.594,3.227,3.227,0,0,1,2.05.539,1.586,1.586,0,0,1,.62,1.254v0.117h2.19v-0.117a2.939,2.939,0,0,0-.65-1.84,5.251,5.251,0,0,0-4.33-1.769,5.5,5.5,0,0,0-4.59,1.992,9.165,9.165,0,0,0,0,9.832,5.5,5.5,0,0,0,4.59,1.992,6.32,6.32,0,0,0,2.59-.481,4.379,4.379,0,0,0,1.64-1.242,2.948,2.948,0,0,0,.75-1.886V313.2h-2.19v0.118Zm7.2-3.62,5.8,6.866h2.73l-5.87-7.022,5.66-6.068h-2.52l-5.8,6.224V297.654h-2.29v18.914h2.29V309.7Zm19.19,3.62a1.505,1.505,0,0,1-.97,1.418,3.972,3.972,0,0,1-1.79.375,3.872,3.872,0,0,1-3.19-1.418,5.175,5.175,0,0,1-1.08-3.4h9.29v-0.726a8.457,8.457,0,0,0-.7-3.809,4.775,4.775,0,0,0-4.61-2.648,5.535,5.535,0,0,0-4.54,2.121,7.514,7.514,0,0,0-1.6,4.875,7.207,7.207,0,0,0,1.6,4.863,5.794,5.794,0,0,0,4.64,1.957,6.807,6.807,0,0,0,2.61-.469,4.424,4.424,0,0,0,1.71-1.23,2.857,2.857,0,0,0,.81-1.91V313.2h-2.18v0.118Zm-5.73-7.208a3.133,3.133,0,0,1,2.45-1.183,3.784,3.784,0,0,1,1.81.416,3.035,3.035,0,0,1,1.23,1.3,3.852,3.852,0,0,1,.42,1.758v0.257h-7.07a5.43,5.43,0,0,1,1.16-2.543h0Zm17.05,9a2.8,2.8,0,0,1-1.38-.317,2.108,2.108,0,0,1-1.01-1.512,10.334,10.334,0,0,1-.12-1.886v-6.106h3.82v-1.816h-3.82v-3.094h-2.18v3.094h-2.27v1.816h2.27v6.727a6.542,6.542,0,0,0,.52,2.988,3.826,3.826,0,0,0,3.68,1.922,11.348,11.348,0,0,0,2.44-.387v-1.828a7.439,7.439,0,0,1-1.95.4h0Zm14.76-4.981a6.378,6.378,0,0,1,.52-2.883,3.479,3.479,0,0,1,3.21-2.132,2.73,2.73,0,0,1,1.5.41,2.366,2.366,0,0,1,1.01,1.64,11.168,11.168,0,0,1,.12,2v7.395h2.18v-8.332a6.851,6.851,0,0,0-.54-3.141,3.906,3.906,0,0,0-3.73-1.98,4.552,4.552,0,0,0-1.57.257,5.613,5.613,0,0,0-2.7,2.368v-8.086h-2.18v18.914h2.18v-6.434Zm22.19,6.434a13.753,13.753,0,0,1-.46-3.891v-5.086a5.4,5.4,0,0,0-.53-2.848c-0.79-1.093-2.22-1.64-4.32-1.64a7.278,7.278,0,0,0-2.65.469,4.745,4.745,0,0,0-1.81,1.23,2.861,2.861,0,0,0-.87,1.957v0.176h2.37v-0.188a1.7,1.7,0,0,1,.99-1.546,3.86,3.86,0,0,1,1.89-.446c1.84,0,2.75.727,2.75,2.18v1.476l-1.17.223a20.6,20.6,0,0,0-4.49,1.242,3.79,3.79,0,0,0-2.52,3.469,3.38,3.38,0,0,0,1.11,2.625,3.834,3.834,0,0,0,2.69.961,6.341,6.341,0,0,0,4.38-2.18,6.293,6.293,0,0,0,.34,1.817h2.3Zm-2.64-5.309a4.205,4.205,0,0,1-.48,2.057,4,4,0,0,1-1.36,1.424,3.312,3.312,0,0,1-1.82.55,2.542,2.542,0,0,1-1.07-.246,1.688,1.688,0,0,1-1.09-1.652c0-.961.66-1.734,1.99-2.32a24.205,24.205,0,0,1,3.18-.95l0.65-.164v1.3Zm7.73-13.605h-2.18v18.914h2.18V297.654Zm5.63,0h-2.18v18.914h2.18V297.654Z" transform="translate(-1067.84 -216.156)"/>
</svg>
