<svg xmlns="http://www.w3.org/2000/svg" xmlns:xlink="http://www.w3.org/1999/xlink" viewBox="0 0 483.22 141.98"><defs><style>.cls-1{fill:url(#linear-gradient);}.cls-2{fill:url(#linear-gradient-2);}.cls-3{fill:url(#linear-gradient-3);}.cls-4{fill:url(#linear-gradient-4);}.cls-5{fill:url(#linear-gradient-5);}.cls-6{fill:url(#linear-gradient-6);}.cls-7{fill:url(#linear-gradient-7);}.cls-8{fill:url(#linear-gradient-8);}.cls-9{fill:url(#linear-gradient-9);}.cls-10{fill:url(#linear-gradient-10);}.cls-11{fill:url(#linear-gradient-11);}.cls-12{fill:url(#linear-gradient-12);}.cls-13{fill:url(#linear-gradient-13);}.cls-14{fill:url(#linear-gradient-14);}.cls-15{fill:url(#linear-gradient-15);}.cls-16{fill:url(#linear-gradient-16);}.cls-17{fill:url(#linear-gradient-17);}.cls-18{fill:url(#linear-gradient-18);}.cls-19{fill:url(#linear-gradient-19);}.cls-20{fill:url(#linear-gradient-20);}.cls-21{fill:url(#linear-gradient-21);}.cls-22{fill:url(#linear-gradient-22);}.cls-23{fill:url(#linear-gradient-23);}.cls-24{fill:url(#linear-gradient-24);}.cls-25{fill:url(#linear-gradient-25);}.cls-26{fill:url(#linear-gradient-26);}.cls-27{fill:url(#linear-gradient-27);}.cls-28{fill:url(#linear-gradient-28);}.cls-29{fill:url(#linear-gradient-29);}.cls-30{fill:url(#linear-gradient-30);}.cls-31{fill:url(#linear-gradient-31);}.cls-32{fill:url(#linear-gradient-32);}.cls-33{fill:url(#linear-gradient-33);}.cls-34{fill:url(#linear-gradient-34);}.cls-35{fill:url(#linear-gradient-35);}.cls-36{fill:url(#linear-gradient-36);}.cls-37{fill:url(#linear-gradient-37);}.cls-38{fill:url(#linear-gradient-38);}.cls-39{fill:url(#linear-gradient-39);}.cls-40{fill:url(#linear-gradient-40);}.cls-41{fill:url(#linear-gradient-41);}.cls-42{fill:url(#linear-gradient-42);}.cls-43{fill:url(#linear-gradient-43);}.cls-44{fill:url(#linear-gradient-44);}.cls-45{fill:url(#linear-gradient-45);}.cls-46{fill:url(#linear-gradient-46);}.cls-47{fill:url(#linear-gradient-47);}.cls-48{fill:url(#linear-gradient-48);}.cls-49{fill:url(#linear-gradient-49);}.cls-50{fill:url(#linear-gradient-50);}.cls-51{fill:url(#linear-gradient-51);}.cls-52{fill:url(#linear-gradient-52);}.cls-53{fill:url(#linear-gradient-53);}.cls-54{fill:url(#linear-gradient-54);}.cls-55{fill:url(#linear-gradient-55);}.cls-56{fill:url(#linear-gradient-56);}.cls-57{fill:url(#linear-gradient-57);}.cls-58{fill:url(#linear-gradient-58);}.cls-59{fill:url(#linear-gradient-59);}.cls-60{fill:url(#linear-gradient-60);}.cls-61{fill:url(#linear-gradient-61);}.cls-62{clip-path:url(#clip-path);}.cls-63{isolation:isolate;}.cls-64{fill:url(#linear-gradient-63);}.cls-65{fill:url(#linear-gradient-64);}</style><linearGradient id="linear-gradient" x1="458.52" y1="65.83" x2="473.02" y2="62.08" gradientUnits="userSpaceOnUse"><stop offset="0" stop-color="#aa4335"/><stop offset="1" stop-color="#f97158"/></linearGradient><linearGradient id="linear-gradient-2" x1="312.63" y1="97.59" x2="275.13" y2="82.84" xlink:href="#linear-gradient"/><linearGradient id="linear-gradient-3" x1="330.44" y1="52.29" x2="292.94" y2="37.54" xlink:href="#linear-gradient"/><linearGradient id="linear-gradient-4" x1="318.35" y1="83.03" x2="280.85" y2="68.28" xlink:href="#linear-gradient"/><linearGradient id="linear-gradient-5" x1="319.87" y1="79.18" x2="282.37" y2="64.43" xlink:href="#linear-gradient"/><linearGradient id="linear-gradient-6" x1="332.73" y1="46.48" x2="295.23" y2="31.73" xlink:href="#linear-gradient"/><linearGradient id="linear-gradient-7" x1="337.66" y1="33.94" x2="300.16" y2="19.19" xlink:href="#linear-gradient"/><linearGradient id="linear-gradient-8" x1="295.55" y1="48.3" x2="332.21" y2="64.97" xlink:href="#linear-gradient"/><linearGradient id="linear-gradient-9" x1="308.75" y1="-10.54" x2="350.75" y2="30.13" xlink:href="#linear-gradient"/><linearGradient id="linear-gradient-10" x1="256.7" y1="65.67" x2="234.7" y2="77.67" xlink:href="#linear-gradient"/><linearGradient id="linear-gradient-11" x1="239.79" y1="91.7" x2="195.79" y2="48.2" gradientUnits="userSpaceOnUse"><stop offset="0.34" stop-color="#575757"/><stop offset="0.47" stop-color="#1d1d1d"/></linearGradient><linearGradient id="linear-gradient-12" x1="145.37" y1="80.23" x2="105.87" y2="58.73" xlink:href="#linear-gradient-11"/><linearGradient id="linear-gradient-13" x1="114.88" y1="52.94" x2="114.17" y2="83.14" gradientUnits="userSpaceOnUse"><stop offset="0.34" stop-color="#575757"/><stop offset="1" stop-color="#1d1d1d"/></linearGradient><linearGradient id="linear-gradient-14" x1="208.18" y1="53.68" x2="207.46" y2="83.88" xlink:href="#linear-gradient-13"/><linearGradient id="linear-gradient-15" x1="94.13" y1="88.29" x2="94.13" y2="120.79" xlink:href="#linear-gradient-11"/><linearGradient id="linear-gradient-16" x1="142.14" y1="88.29" x2="142.14" y2="120.79" xlink:href="#linear-gradient-11"/><linearGradient id="linear-gradient-17" x1="191.28" y1="88.13" x2="191.28" y2="120.94" xlink:href="#linear-gradient-11"/><linearGradient id="linear-gradient-18" x1="227.42" y1="88.06" x2="227.42" y2="121.09" xlink:href="#linear-gradient-11"/><linearGradient id="linear-gradient-19" x1="263.93" y1="88.19" x2="263.93" y2="121.18" xlink:href="#linear-gradient-11"/><linearGradient id="linear-gradient-20" x1="298.66" y1="125.7" x2="298.66" y2="133.87" xlink:href="#linear-gradient-11"/><linearGradient id="linear-gradient-21" x1="332.53" y1="88.14" x2="332.53" y2="120.64" xlink:href="#linear-gradient-11"/><linearGradient id="linear-gradient-22" x1="382.81" y1="88.14" x2="382.81" y2="120.64" xlink:href="#linear-gradient-11"/><linearGradient id="linear-gradient-23" x1="343.14" y1="78.4" x2="363.81" y2="85.73" gradientUnits="userSpaceOnUse"><stop offset="0.44" stop-color="#aa4335"/><stop offset="0.5" stop-color="#f97158"/></linearGradient><linearGradient id="linear-gradient-24" x1="357.13" y1="38.98" x2="377.8" y2="46.31" xlink:href="#linear-gradient-23"/><linearGradient id="linear-gradient-25" x1="365.86" y1="14.37" x2="386.53" y2="21.7" xlink:href="#linear-gradient-23"/><linearGradient id="linear-gradient-26" x1="351.47" y1="54.93" x2="372.14" y2="62.26" xlink:href="#linear-gradient-23"/><linearGradient id="linear-gradient-27" x1="357.5" y1="37.95" x2="378.16" y2="45.28" xlink:href="#linear-gradient-23"/><linearGradient id="linear-gradient-28" x1="320.45" y1="72.58" x2="345.12" y2="79.25" xlink:href="#linear-gradient"/><linearGradient id="linear-gradient-29" x1="330.78" y1="34.35" x2="355.45" y2="41.01" xlink:href="#linear-gradient"/><linearGradient id="linear-gradient-30" x1="337.62" y1="9.06" x2="362.29" y2="15.73" xlink:href="#linear-gradient"/><linearGradient id="linear-gradient-31" x1="326.04" y1="51.9" x2="350.71" y2="58.57" xlink:href="#linear-gradient"/><linearGradient id="linear-gradient-32" x1="330.12" y1="36.81" x2="354.79" y2="43.48" xlink:href="#linear-gradient"/><linearGradient id="linear-gradient-33" x1="344.32" y1="75.24" x2="335.57" y2="84.99" xlink:href="#linear-gradient"/><linearGradient id="linear-gradient-34" x1="145.24" y1="69.75" x2="52.74" y2="71.75" xlink:href="#linear-gradient-11"/><linearGradient id="linear-gradient-35" x1="145.73" y1="92.39" x2="53.23" y2="94.39" xlink:href="#linear-gradient-11"/><linearGradient id="linear-gradient-36" x1="144.34" y1="28.45" x2="51.84" y2="30.45" xlink:href="#linear-gradient-11"/><linearGradient id="linear-gradient-37" x1="144.79" y1="49.06" x2="52.29" y2="51.06" xlink:href="#linear-gradient-11"/><linearGradient id="linear-gradient-38" x1="3.97" y1="37.63" x2="35.61" y2="76.15" xlink:href="#linear-gradient-11"/><linearGradient id="linear-gradient-39" x1="-12.18" y1="50.89" x2="19.46" y2="89.41" xlink:href="#linear-gradient-11"/><linearGradient id="linear-gradient-40" x1="3.46" y1="38.04" x2="35.1" y2="76.57" xlink:href="#linear-gradient-11"/><linearGradient id="linear-gradient-41" x1="145.03" y1="60.37" x2="52.53" y2="62.37" xlink:href="#linear-gradient-11"/><linearGradient id="linear-gradient-42" x1="3.96" y1="37.63" x2="35.6" y2="76.16" xlink:href="#linear-gradient-11"/><linearGradient id="linear-gradient-43" x1="85.4" y1="21.07" x2="54.55" y2="18.37" xlink:href="#linear-gradient-11"/><linearGradient id="linear-gradient-44" x1="81.63" y1="59.9" x2="50.13" y2="57.15" xlink:href="#linear-gradient-11"/><linearGradient id="linear-gradient-45" x1="245.92" y1="38.56" x2="161.26" y2="38.56" xlink:href="#linear-gradient-11"/><linearGradient id="linear-gradient-46" x1="245.92" y1="16.53" x2="161.26" y2="16.53" xlink:href="#linear-gradient-11"/><linearGradient id="linear-gradient-47" x1="245.92" y1="46.9" x2="161.26" y2="46.9" xlink:href="#linear-gradient-11"/><linearGradient id="linear-gradient-48" x1="245.92" y1="20.88" x2="161.26" y2="20.88" xlink:href="#linear-gradient-11"/><linearGradient id="linear-gradient-49" x1="187.14" y1="22.66" x2="146.14" y2="14.16" xlink:href="#linear-gradient-11"/><linearGradient id="linear-gradient-50" x1="182.25" y1="46.24" x2="141.25" y2="37.74" xlink:href="#linear-gradient-11"/><linearGradient id="linear-gradient-51" x1="245.92" y1="60.06" x2="161.26" y2="60.06" xlink:href="#linear-gradient-11"/><linearGradient id="linear-gradient-52" x1="178.32" y1="65.19" x2="137.32" y2="56.69" xlink:href="#linear-gradient-11"/><linearGradient id="linear-gradient-53" x1="328.97" y1="39.46" x2="312.97" y2="58.13" xlink:href="#linear-gradient"/><linearGradient id="linear-gradient-54" x1="326.92" y1="1.37" x2="330.59" y2="18.03" xlink:href="#linear-gradient"/><linearGradient id="linear-gradient-55" x1="270.13" y1="27.67" x2="248.8" y2="24.34" xlink:href="#linear-gradient"/><linearGradient id="linear-gradient-56" x1="267.07" y1="47.28" x2="245.73" y2="43.95" xlink:href="#linear-gradient"/><linearGradient id="linear-gradient-57" x1="272.26" y1="14.04" x2="250.93" y2="10.71" xlink:href="#linear-gradient"/><linearGradient id="linear-gradient-58" x1="350.67" y1="50.55" x2="345.67" y2="48.89" xlink:href="#linear-gradient"/><linearGradient id="linear-gradient-59" x1="357.02" y1="31.51" x2="352.02" y2="29.84" xlink:href="#linear-gradient"/><linearGradient id="linear-gradient-60" x1="363.89" y1="10.9" x2="358.89" y2="9.23" xlink:href="#linear-gradient"/><linearGradient id="linear-gradient-61" x1="346.7" y1="62.46" x2="341.7" y2="60.79" xlink:href="#linear-gradient"/><clipPath id="clip-path"><path id="SVGID" class="cls-1" d="M456.8,79.09l-7.89,1.1.85-.13.67-.11.69-.13.77-.16.75-.17.65-.16.68-.18c.57-.16,1-.29,1.41-.43l.63-.22.68-.25.69-.28.59-.26.6-.28c.53-.26.9-.45,1.26-.65l.54-.31.58-.36.62-.41.5-.36.5-.39.61-.5c6.5-5.6.67-17.34-9.57-18.48l-1-.09-1-.07-1,0H449l-.79,0-.81.05-.81.07-.74.09,7.89-1.1.74-.09.81-.07.81-.05.79,0h1.71l1,0,1,.07,1,.09c10.23,1.14,16.07,12.88,9.57,18.48l-.61.5-.5.39-.5.36-.62.41-.58.36-.54.31c-.36.2-.73.4-1.26.65l-.6.28-.59.26-.69.28-.68.25-.63.22c-.42.14-.84.27-1.41.43l-.68.18-.65.16-.75.17-.77.16-.69.13-.67.11Z"/></clipPath><linearGradient id="linear-gradient-63" x1="461.55" y1="77.53" x2="476.05" y2="73.78" xlink:href="#linear-gradient"/><linearGradient id="linear-gradient-64" x1="458.49" y1="65.72" x2="472.99" y2="61.97" xlink:href="#linear-gradient"/></defs><title>logo-ttcp</title><g id="图层_2" data-name="图层 2"><g id="图层_1-2" data-name="图层 1"><path class="cls-2" d="M260.5,58.29H247.16s2.41,2.91-1.6,12.53a48.3,48.3,0,0,1-10,15.27h13.8A32.79,32.79,0,0,0,258,72.18C260.66,63.5,260.5,58.29,260.5,58.29Z"/><polygon class="cls-3" points="270.86 32.92 271.35 19.39 257.41 19.39 256.64 32.92 270.86 32.92"/><path class="cls-4" d="M282.2,70.82c-2,10.45-.83,15.27-.83,15.27h13.85a60.25,60.25,0,0,1,.1-15.27,32.71,32.71,0,0,1,4.83-12.53H286.88S284.16,60.36,282.2,70.82Z"/><polygon class="cls-5" points="306.4 40.96 288.42 40.96 290.37 34.82 270.71 34.82 268.76 40.96 250.17 40.96 248.03 49.53 267.35 49.64 255.94 86.97 273.6 86.97 284.8 49.74 300.22 49.84 304.19 49.84 306.4 40.96"/><polygon class="cls-6" points="287.68 32.92 288.26 19.39 274.6 19.39 273.83 32.92 287.68 32.92"/><polygon class="cls-7" points="288.52 32.92 303.67 32.92 311.93 17.12 314.86 17.12 317.23 7.59 258.72 7.59 256.35 17.12 296.78 17.12 288.52 32.92"/><path class="cls-8" d="M300.3,85.47s15,1.94,15.29,1.4c15-19,18.58-56,18.58-56L320.7,29.61C318.6,60.26,300.3,85.47,300.3,85.47Z"/><path class="cls-9" d="M339.79.71C332.64-1.71,324.24,2.24,321,9.53s0,15.15,7.15,17.57,15.55-1.53,18.76-8.82S346.95,3.13,339.79.71Z"/><path class="cls-10" d="M251,72.18c2.66-8.68,2.5-13.89,2.5-13.9h-6.34s2.41,2.91-1.6,12.53a48.3,48.3,0,0,1-10,15.27h6.8A32.79,32.79,0,0,0,251,72.18Z"/><path class="cls-11" d="M204.56,51.68a40.6,40.6,0,0,0-3.64,19.41c.66,11.17,6.95,15.74,6.95,15.74h22.68a32.76,32.76,0,0,1-8.4-17.57,23.69,23.69,0,0,1,4.24-17.57Z"/><path class="cls-12" d="M128.85,68.51a23.69,23.69,0,0,1,4.24-17.57H111.27a40.6,40.6,0,0,0-3.64,19.41c.66,11.17,6.95,15.74,6.95,15.74h22.68A32.76,32.76,0,0,1,128.85,68.51Z"/><path class="cls-13" d="M114.13,70.34a40.6,40.6,0,0,1,3.64-19.41h-6.5a40.6,40.6,0,0,0-3.64,19.41c.66,11.17,6.95,15.74,6.95,15.74h6.5S114.79,81.51,114.13,70.34Z"/><path class="cls-14" d="M207.42,71.09a40.6,40.6,0,0,1,3.64-19.41h-6.5a40.6,40.6,0,0,0-3.64,19.41c.66,11.17,6.95,15.74,6.95,15.74h6.5S208.08,82.25,207.42,71.09Z"/><polygon class="cls-15" points="71.85 100.92 85.12 100.92 80.97 141.29 95.65 141.29 99.8 100.92 116.41 100.92 116.41 94.91 71.85 94.91 71.85 100.92"/><polygon class="cls-16" points="119.86 100.92 133.13 100.92 128.98 141.29 143.67 141.29 147.82 100.92 164.42 100.92 164.42 94.91 119.86 94.91 119.86 100.92"/><polygon class="cls-17" points="188.16 126.54 181.09 94.81 167.79 94.81 180.55 141.64 192.41 141.64 214.77 94.81 201.5 94.81 188.16 126.54"/><polygon class="cls-18" points="218.07 141.92 232.66 141.92 236.78 94.78 222.19 94.78 218.07 141.92"/><path class="cls-19" d="M240.74,142h14.18l2-22.7h28.8l1.42-24.37H244.86Zm17.8-41.51h14.06l-.88,13.24H257.37Z"/><polygon class="cls-20" points="291.84 139.03 303.44 139.03 305.49 127.36 294.07 127.36 291.84 139.03"/><polygon class="cls-21" points="309.26 141.13 352.28 141.13 352.28 135.13 324.29 135.13 327.37 100.76 355.8 100.76 355.8 94.75 313.32 94.75 309.26 141.13"/><polygon class="cls-22" points="406.08 100.76 406.08 94.75 363.6 94.75 359.54 141.13 402.56 141.13 402.56 135.13 374.57 135.13 377.65 100.76 406.08 100.76"/><path class="cls-23" d="M340.43,74.34s2,1-.34,4.1-7.39,6.21-7.39,6.21h19.66s1.73-.41,4.81-4.84,2.56-5.47,2.56-5.47Z"/><polygon class="cls-24" points="430.56 45.38 343.14 45.38 341.24 53 428.66 53 430.56 45.38"/><path class="cls-25" d="M354.79,17.86,344.58,42.4H429l7.56-24.54H417L418.75,13h20.12l1.9-7.62H353.86L352,13h23.19l-1.87,4.88Zm55.66,7h6l-3.53,10.6h-6.27ZM393.88,13h5.81L398,17.86h-5.81Zm-3.74,11.85h5.71l-3.94,10.6h-5.76Zm-14.64,0-4.08,10.6H365.7L370,24.83Z"/><polygon class="cls-26" points="428.45 56.99 339.37 56.99 337.31 65.22 371.56 65.34 371.66 65.34 364.03 84.64 385.92 84.64 393.25 65.34 426.4 65.22 428.45 56.99"/><path class="cls-27" d="M470.55,48.93c-11.17-6.87-27.45-6.29-34.75,4.31a26,26,0,0,0-3.43,6.5,26.57,26.57,0,0,0-1.06,5.62c2.57-7.25,12-10.66,22.36-9.51s16.21,12.9,9.61,18.49c-17.12,14.49-60.16-.85-60.16-.85l-5.21,8.62c1.88.64,64.17,16.4,81.4-4.77C487.63,67.1,481.72,55.8,470.55,48.93Z"/><path class="cls-28" d="M340.4,74.39s2,1-.34,4.1-7.39,6.21-7.39,6.21h19.66s1.73-.41,4.81-4.84,2.56-5.47,2.56-5.47Z"/><polygon class="cls-29" points="430.54 45.43 343.12 45.43 341.22 53.05 428.63 53.05 430.54 45.43"/><path class="cls-30" d="M354.76,17.91,344.56,42.45H429l7.56-24.54H416.95L418.72,13h20.12l1.9-7.62H353.84L351.94,13h23.19l-1.87,4.88Zm55.66,7h6l-3.53,10.6h-6.27ZM393.86,13h5.81l-1.73,4.88h-5.81Zm-3.74,11.85h5.71l-3.94,10.6h-5.76Zm-14.64,0-4.08,10.6h-5.72l4.27-10.6Z"/><polygon class="cls-31" points="428.43 57.04 339.34 57.04 337.29 65.27 371.54 65.39 371.63 65.39 364 84.7 385.89 84.7 393.22 65.39 426.38 65.27 428.43 57.04"/><path class="cls-32" d="M470.52,49c-11.17-6.87-27.45-6.29-34.75,4.31a26,26,0,0,0-3.43,6.5,26.57,26.57,0,0,0-1.06,5.62c2.57-7.25,12-10.66,22.36-9.51s16.21,12.9,9.61,18.49c-17.12,14.49-60.16-.85-60.16-.85l-5.21,8.62c1.88.64,64.17,16.4,81.4-4.77C487.61,67.15,481.69,55.85,470.52,49Z"/><path class="cls-33" d="M346.09,78.43c2.35-3.08.34-4.1.34-4.1h-6s2,1-.34,4.1-7.39,6.21-7.39,6.21h6S343.74,81.52,346.09,78.43Z"/><path class="cls-34" d="M4.18,79.13c-.27-.44-.43-.69-.58-1l-.44-.8c-.25-.47-.39-.74-.53-1l-.3-.65L2,75.05l-.26-.67-.25-.68L1.31,73C.13,67.19.11,66.91.09,66.62s0-.49,0-.63l0-.93A27.47,27.47,0,0,0,2.31,75.77a16.61,16.61,0,0,0,2.86,4.84l-.5-.72Z"/><path class="cls-35" d="M42.42,94.79l-1.08.13L40.21,95l-1.4.1-1.09,0-.77,0h-.84l-1,0-.91,0-1-.05-1-.08-.9-.09-.29,0A43.66,43.66,0,0,0,50,93.75l-7.47,1Z"/><path class="cls-36" d="M25.43,31.15l1-.19,1-.17,2.77-.38a31.7,31.7,0,0,0-6.39,1.14l.82-.21Z"/><path class="cls-37" d="M155.06,16.45l2.21-8.75H72.42L70.2,16.45H97.3L87,33.82l-24.12-.11-2.21,8.75,21.46,0S71.27,61.72,53.43,73.15v.13c-6.5,4.58-14.08,7.76-23.18,6.48a20.66,20.66,0,0,1-15.09-8,19.07,19.07,0,0,1-3.35-6,18.34,18.34,0,0,1-1-5.86c0-10.81,9.38-19.56,21-19.56a21.28,21.28,0,0,1,18,9.57c.14-.33.28-.69.41-1.09a12.81,12.81,0,0,0-1.85-12.23C45.3,32.55,39,30.24,32,30.33l-.9.24-1,.29-.84.28-1,.36-.29.11-.13.05-.52.21-.83.36-1,.46-.93.49-.8.45-.72.44-.57.36-.56.38-.67.48-.53.41-.55.44-.62.52-.51.45-.53.49-.57.56-.48.49-.51.54-.53.59-.45.52-.5.61-.47.6L14.7,42l-.47.65-.43.63-.38.58-.44.7-.39.64-.35.6-.4.74-.34.66-.3.61-.36.77-.3.67-.27.63-.32.8-.26.69-.23.64c-.07.2-.14.4-.27.84L9,53.58l-.19.66c-.06.2-.11.41-.22.87l-.16.68-.14.66c0,.2-.08.41-.17.88,0,.13,0,.27-.12.69l-.1.66c0,.21-.06.41-.18,1.58,0,.13,0,.27-.06.66,0,.2,0,.41-.08,1.58,0,.14,0,.27,0,.69q0,.28,0,.56l0,1.21c0,.14,0,.29,0,.63s0,.57,1.22,6.41l.22.68.25.68.26.67.28.66.3.65c.14.27.28.54.53,1l.44.79c.15.26.3.51.58,1l.49.76c.16.24.33.48.62.89l.54.73.66.83.59.7.69.76.64.67.7.68.7.65.68.6.79.64.67.52.86.63.7.48.88.57.74.45.9.51.77.42.91.46.81.38.9.4.86.35.88.34.92.33.82.27,1,.31.82.23,1,.27.83.2,1,.21.86.16,1,.17.87.13,1,.12.9.09,1,.08,1,.05.91,0,1,0h.84l.77,0,1.09,0,1.4-.1,1.13-.11L50,93.75h0a33.72,33.72,0,0,0,5.07-2v0a68.28,68.28,0,0,0,12.4-6.86c.63-.44,1.24-.88,1.84-1.34,16.28-12.47,36.6-40.68,36.6-40.68l43.77.32,2.08-9.07-42.13-.25,10.47-17.42Z"/><path class="cls-38" d="M50.1,93.74h0Z"/><path class="cls-39" d="M6.13,81.69c-.34-.35-.65-.71-1-1.08l.12.17.54.73.66.83.59.7.69.76.64.67.7.68.7.65.68.6.79.64.67.52.86.63.7.48.88.57.74.45.9.51.77.42.91.46.81.38.9.4.86.35.88.34.92.33.82.27,1,.31.82.23,1,.27.83.2,1,.21.86.16,1,.17.87.13.72.09C20.69,93.33,11.05,88.44,6.13,81.69Z"/><path class="cls-40" d="M17.42,34.14a31.27,31.27,0,0,1,6.34-2.59l-.18,0-1,.29-.84.28-1,.36h0l-.26.1-.13.05-.52.21-.83.36-1,.46-.93.49-.8.45-.72.44-.57.37-.56.38-.67.48-.53.41-.55.44-.62.52-.51.45-.53.49-.57.56-.48.49-.51.54L9,40.81l-.45.52-.5.61-.47.6-.41.55-.47.65-.43.63-.38.58-.44.7L5,46.28l-.35.6-.4.74-.34.66-.3.61-.36.77-.3.67L2.71,51l-.32.8-.26.69-.23.64c-.07.2-.14.4-.27.84l-.21.68-.19.66c-.06.2-.11.41-.22.87l-.16.68-.14.66c0,.2-.08.41-.17.88,0,.13,0,.27-.12.69l-.1.66c0,.21-.06.41-.18,1.58,0,.13,0,.27-.06.66,0,.2,0,.41-.08,1.58,0,.14,0,.27,0,.69q0,.28,0,.56v.28C-.21,52.76,6.92,39.87,17.42,34.14Z"/><path class="cls-41" d="M48.91,93.88,47.77,94l-1.4.1-1.09,0-.77,0h-.84l-1,0-.91,0-1-.05-1-.08-.9-.09-1-.12-.87-.13-1-.17-.86-.16-1-.21-.83-.2-1-.27-.82-.23-1-.31-.82-.27-.92-.33-.88-.34L27,90.8l-.9-.4L25.29,90l-.91-.46-.77-.42-.9-.51L22,88.18l-.88-.57-.7-.48-.86-.63L18.84,86l-.79-.64-.68-.6-.7-.65-.7-.68-.64-.67L14.64,82l-.59-.7-.66-.83-.54-.73c-.29-.41-.46-.65-.62-.89l-.49-.76c-.27-.44-.43-.69-.58-1l-.44-.79c-.25-.47-.39-.74-.53-1l-.3-.65L9.61,74l-.26-.67-.25-.68L8.88,72c-1.18-5.84-1.2-6.13-1.22-6.41s0-.49,0-.63l0-1.21q0-.28,0-.56c0-.42,0-.55,0-.69,0-1.17.06-1.37.08-1.58,0-.39,0-.53.06-.66.13-1.17.16-1.38.18-1.58L8,58c.07-.42.09-.56.12-.69.09-.47.13-.67.17-.88l.14-.66.16-.68c.12-.46.17-.66.22-.87L9,53.58l.21-.68c.14-.44.21-.64.27-.84l.23-.64.26-.69.32-.8.27-.63.3-.67.36-.77.3-.61.34-.66.4-.74.35-.6L13,44.6l.44-.7.38-.58.43-.63L14.7,42l.41-.55.47-.6.5-.61.45-.52.53-.59.51-.54.48-.49.57-.56.53-.49.51-.45.62-.52.55-.44.53-.41.67-.48.56-.38.57-.36.72-.44.8-.45.93-.49,1-.46.83-.36.52-.21.13-.05.29-.11,1-.36.84-.28,1-.29.9-.24q-.94,0-1.9.08l-2.77.38-1,.17-1,.19-.85.2-.82.21a31.27,31.27,0,0,0-6.34,2.59C6.92,39.87-.21,52.76,0,65.06L0,66c0,.14,0,.29,0,.63s0,.57,1.22,6.41l.22.68.25.68.26.67.28.66.3.65c.14.27.28.54.53,1l.44.8c.15.26.3.51.58,1l.49.76.5.72c.31.37.62.73,1,1.08,4.92,6.74,14.56,11.63,25,13.2l.29,0,.9.09,1,.08,1,.05.91,0,1,0H37l.77,0,1.09,0,1.4-.1,1.13-.11,1.08-.13.12,0,7.47-1h0Z"/><path class="cls-42" d="M48.91,93.88,47.77,94l-1.4.1-1.09,0-.77,0h-.84l-1,0-.91,0-1-.05-1-.08-.9-.09-1-.12-.87-.13-1-.17-.86-.16-1-.21-.83-.2-1-.27-.82-.23-1-.31-.82-.27-.92-.33-.88-.34L27,90.8l-.9-.4L25.29,90l-.91-.46-.77-.42-.9-.51L22,88.18l-.88-.57-.7-.48-.86-.63L18.84,86l-.79-.64-.68-.6-.7-.65-.7-.68-.64-.67L14.64,82l-.59-.7-.66-.83-.54-.73c-.29-.41-.46-.65-.62-.89l-.49-.76c-.27-.44-.43-.69-.58-1l-.44-.79c-.25-.47-.39-.74-.53-1l-.3-.65L9.61,74l-.26-.67-.25-.68L8.88,72c-1.18-5.84-1.2-6.13-1.22-6.41s0-.49,0-.63l0-1.21q0-.28,0-.56c0-.42,0-.55,0-.69,0-1.17.06-1.37.08-1.58,0-.39,0-.53.06-.66.13-1.17.16-1.38.18-1.58L8,58c.07-.42.09-.56.12-.69.09-.47.13-.67.17-.88l.14-.66.16-.68c.12-.46.17-.66.22-.87L9,53.58l.21-.68c.14-.44.21-.64.27-.84l.23-.64.26-.69.32-.8.27-.63.3-.67.36-.77.3-.61.34-.66.4-.74.35-.6L13,44.6l.44-.7.38-.58.43-.63L14.7,42l.41-.55.47-.6.5-.61.45-.52.53-.59.51-.54.48-.49.57-.56.53-.49.51-.45.62-.52.55-.44.53-.41.67-.48.56-.38.57-.36.72-.44.8-.45.93-.49,1-.46.83-.36.52-.21.13-.05.29-.11,1-.36.84-.28,1-.29.9-.24q-.94,0-1.9.08l-2.77.38-1,.17-1,.19-.85.2-.82.21a31.27,31.27,0,0,0-6.34,2.59C6.92,39.87-.21,52.76,0,65.06L0,66c0,.14,0,.29,0,.63s0,.57,1.22,6.41l.22.68.25.68.26.67.28.66.3.65c.14.27.28.54.53,1l.44.8c.15.26.3.51.58,1l.49.76.5.72c.31.37.62.73,1,1.08,4.92,6.74,14.56,11.63,25,13.2l.29,0,.9.09,1,.08,1,.05.91,0,1,0H37l.77,0,1.09,0,1.4-.1,1.13-.11,1.08-.13.12,0,7.47-1h0Z"/><polygon class="cls-43" points="77.19 15.5 79.34 7.7 72.42 7.7 70.2 16.45 95.58 16.45 86.57 34.01 94.13 32.96 103.78 15.33 77.19 15.5"/><path class="cls-44" d="M70.55,33.75l-7.64,0-2.21,8.75L82,42.8c-.51,1-10.19,19.51-27.46,31.54l-.72.54-.6.43-.58.41-.58.39-.58.38-.72.45-.66.4-.62.35-.62.34-.62.32-.61.3-.82.38-.68.3-.65.27-.13.05-.07,0-.1,0-.07,0-.27.1-.66.24-.77.25-.79.24-.71.19-.69.17-.7.15-.7.13-.61.1-.3,0h0l7.56-1,.91-.14.7-.13.7-.15.69-.17.71-.19.79-.24.77-.25.66-.24.27-.1.07,0,.13,0h0l.14-.06.65-.27.68-.3.82-.38.61-.3.62-.32.62-.34.62-.35.66-.4.72-.45.58-.38.58-.39.58-.41.6-.43.72-.54c17.27-12,27-30.56,27.46-31.54l-21-.43Z"/><path class="cls-45" d="M155.82,42.9l2.12-8.77h-.18l0,.07-2.17,8.68,0,.13L176,42.88l.06-.13Z"/><polygon class="cls-46" points="165.08 16.49 165.05 16.61 191.76 16.61 191.84 16.46 165.08 16.49"/><path class="cls-47" d="M249.91,16.61l2.21-8.88h-77.3L173,15.39l26.76,0L190,33,182.28,34l-.09.16-16.64,0-1.85,7.64,20.23-.15c-.14.32-2.81,6.39-11.51,19.8-10.55,16.27-22.28,23.08-22.9,23.44L141.63,86c.62-.36,12.35-7.17,22.9-23.44,4.89-7.53,7.87-12.74,9.58-15.92-1.75,3.21-4.84,8.53-9.83,16C153.51,78.92,141,86.08,141,86.08h30.41s6.9-4.16,15.42-19.1c8.4-14.73,14.06-22.91,14.06-22.91l43.76.29,3.2-10.23H204.67L215,16.61Z"/><polygon class="cls-48" points="199.73 15.36 172.97 15.39 174.82 7.73 167.26 7.73 165.08 16.49 191.84 16.46 191.76 16.61 192.15 16.61 182.28 34.04 189.98 32.96 199.73 15.36"/><polygon class="cls-49" points="199.73 15.36 172.97 15.39 174.82 7.73 167.26 7.73 165.08 16.49 191.84 16.46 191.76 16.61 192.15 16.61 182.28 34.04 189.98 32.96 199.73 15.36"/><path class="cls-50" d="M176,42.88c-.18.4-.74,1.62-1.88,3.74,1.37-2.51,1.92-3.74,1.92-3.74Z"/><path class="cls-51" d="M141.63,86l7.89-1.1c.62-.36,12.35-7.17,22.9-23.44C181.13,48,183.79,42,183.94,41.64l-20.23.15,1.85-7.64-7.62,0-2.12,8.77L176,42.75l-.06.13h0s-.55,1.23-1.92,3.74c-1.7,3.18-4.69,8.4-9.58,15.92C154,78.82,142.25,85.63,141.63,86Z"/><path class="cls-52" d="M141.63,86l7.89-1.1c.62-.36,12.35-7.17,22.9-23.44C181.13,48,183.79,42,183.94,41.64l-20.23.15,1.85-7.64-7.62,0-2.12,8.77L176,42.75l-.06.13h0s-.55,1.23-1.92,3.74c-1.7,3.18-4.69,8.4-9.58,15.92C154,78.82,142.25,85.63,141.63,86Z"/><path class="cls-53" d="M320.7,30.07c-2.1,30.65-20.4,55.86-20.4,55.86s2.06.27,4.67.57c1.8-2.6,18.09-26.83,20.19-56Z"/><path class="cls-54" d="M331.69,27.11c-7.15-2.42-10.36-10.28-7.15-17.57A16.14,16.14,0,0,1,336.35.24l.81-.12a14.39,14.39,0,0,0-4.31.12A16.14,16.14,0,0,0,321,9.54c-3.2,7.29,0,15.15,7.15,17.57a13.37,13.37,0,0,0,1.94.48,14.17,14.17,0,0,0,4.21.09c-.24,0-.48-.05-.71-.09A13.37,13.37,0,0,1,331.69,27.11Z"/><polygon class="cls-55" points="256.64 32.89 261.24 32.89 263.9 19.37 257.41 19.37 256.64 32.89"/><polygon class="cls-56" points="248.03 49.5 257.96 49.56 259.66 40.93 250.17 40.93 248.03 49.5"/><polygon class="cls-57" points="258.72 7.56 256.35 17.09 264.35 17.09 266.23 7.56 258.72 7.56"/><polygon class="cls-58" points="341.24 53.12 350.07 53.12 352.65 45.5 343.14 45.5 341.24 53.12"/><polygon class="cls-59" points="344.58 42.53 353.66 42.53 361.96 17.99 354.79 17.99 344.58 42.53"/><polygon class="cls-60" points="353.86 5.49 351.96 13.11 363.62 13.11 366.2 5.49 353.86 5.49"/><polygon class="cls-61" points="337.31 65.34 345.93 65.37 348.72 57.12 339.37 57.12 337.31 65.34"/><path id="SVGID-2" data-name="SVGID" class="cls-1" d="M456.8,79.09l-7.89,1.1.85-.13.67-.11.69-.13.77-.16.75-.17.65-.16.68-.18c.57-.16,1-.29,1.41-.43l.63-.22.68-.25.69-.28.59-.26.6-.28c.53-.26.9-.45,1.26-.65l.54-.31.58-.36.62-.41.5-.36.5-.39.61-.5c6.5-5.6.67-17.34-9.57-18.48l-1-.09-1-.07-1,0H449l-.79,0-.81.05-.81.07-.74.09,7.89-1.1.74-.09.81-.07.81-.05.79,0h1.71l1,0,1,.07,1,.09c10.23,1.14,16.07,12.88,9.57,18.48l-.61.5-.5.39-.5.36-.62.41-.58.36-.54.31c-.36.2-.73.4-1.26.65l-.6.28-.59.26-.69.28-.68.25-.63.22c-.42.14-.84.27-1.41.43l-.68.18-.65.16-.75.17-.77.16-.69.13-.67.11Z"/><g class="cls-62"><g class="cls-63"><path class="cls-64" d="M456.8,79.09l-7.89,1.1.85-.13.67-.11.69-.13.77-.16.75-.17.65-.16.68-.18c.57-.16,1-.29,1.41-.43l.63-.22.68-.25.13-.05,7.89-1.1-.13.05-.68.25-.63.22c-.42.14-.84.27-1.41.43l-.68.18-.65.16-.75.17-.77.16-.69.13-.67.11-.85.13"/><path class="cls-65" d="M464.72,77.09l-7.89,1.1.56-.23.59-.26.6-.28c.53-.26.9-.45,1.26-.65l.54-.31.58-.36.62-.41.5-.36.5-.39.61-.5c6.5-5.6.67-17.34-9.57-18.48l-1-.09-1-.07-1,0H449l-.79,0-.81.05-.81.07-.74.09,7.89-1.1.74-.09.81-.07.81-.05.79,0h1.71l1,0,1,.07,1,.09c10.23,1.14,16.07,12.88,9.57,18.48l-.61.5-.5.39-.5.36-.62.41-.58.36-.54.31c-.36.2-.73.4-1.26.65l-.6.28-.59.26-.56.23"/></g></g></g></g></svg>