<svg xmlns="http://www.w3.org/2000/svg" viewBox="0 0 498.82 325.57"><defs><style>.cls-1{fill:#ffea98;}.cls-2{fill:#d61c03;}.cls-3{fill:#bc1504;}.cls-4{fill:#d23608;}.cls-5{fill:#ffbe04;}.cls-6{fill:#fff8c4;stroke:#eaa700;stroke-miterlimit:10;stroke-width:3px;}.cls-7{fill:#fe6401;}.cls-8{font-size:23.33px;font-family:MicrosoftYaHei-Bold, Microsoft YaHei;font-weight:700;}.cls-10,.cls-8{fill:#fff;}.cls-9{fill:#ff895f;}.cls-11{fill:#fadf9d;}.cls-12{fill:#ffcc74;}.cls-13{fill:#f5db93;}.cls-14{fill:#86e2f6;}.cls-15{fill:#83d7ea;}.cls-16{fill:#f1654b;}.cls-17{fill:#f28204;}.cls-18{fill:#f5645a;}.cls-19{fill:#cd4d47;}.cls-20{fill:#df5854;}.cls-21{fill:#ffee50;}.cls-22{fill:#fcdb2f;}.cls-23{fill:#f7bf0b;}.cls-24{fill:#f61d1f;}.cls-25{fill:#dc1014;}.cls-26{fill:#f4292e;}.cls-27{fill:#eb272d;}.cls-28{fill:#ba1f23;}.cls-29{fill:#c72126;}.cls-30{fill:#ce2226;}.cls-31{fill:#de252a;}.cls-32{fill:#d31015;}.cls-33{fill:#e41016;}.cls-34{fill:#f8bbbc;}.cls-35{fill:#fdf1f0;}.cls-36{fill:#f82a30;}.cls-37{fill:#f6282f;}.cls-38{fill:#e9272d;}.cls-39{fill:#df0207;}.cls-40{fill:#ae1d21;}.cls-41{fill:#b01d21;}.cls-42{fill:#ce2327;}.cls-43{fill:#bb1f23;}.cls-44{fill:#b21e21;}.cls-45{fill:#fdf622;}.cls-46{fill:#f0282e;}.cls-47{fill:#f2292e;}.cls-48{fill:#f1292f;}.cls-49{fill:#fbf01f;}.cls-50{fill:#fa2c32;}.cls-51{fill:#dd252a;}.cls-52{fill:#db252a;}.cls-53{fill:#e5262c;}.cls-54{fill:#b91f23;}.cls-55{fill:#b71f23;}.cls-56{fill:#a31d24;}.cls-57{fill:#c52126;}.cls-58{fill:#dc252a;}.cls-59{fill:#e8272d;}.cls-60{fill:#e9272c;}.cls-61{fill:#c82126;}.cls-62{fill:#c52125;}</style></defs><title>资源 1</title><g id="图层_2" data-name="图层 2"><g id="图层_1-2" data-name="图层 1"><ellipse class="cls-1" cx="359.51" cy="189.39" rx="60.21" ry="42.69" transform="translate(30.53 427.89) rotate(-63.72)"/><polygon class="cls-2" points="318.75 284.89 345.07 325.57 270.09 321.58 278.07 284.89 318.75 284.89"/><path class="cls-3" d="M273,308.09l33.14-12.45,11,13.23S299.77,321.64,280,322.11l-9.92-.53Z"/><polygon class="cls-2" points="154.44 283.97 128.12 324.64 203.09 320.66 195.12 283.97 154.44 283.97"/><path class="cls-3" d="M200.16,307.17,167,294.72,156,308s17.38,12.76,37.13,13.23l9.92-.53Z"/><circle class="cls-4" cx="235.25" cy="158.42" r="158.42"/><circle class="cls-5" cx="235.25" cy="158.42" r="153.56"/><circle class="cls-6" cx="235.25" cy="158.42" r="133.88"/><path class="cls-6" d="M186.94,33.54A134.35,134.35,0,0,0,116,97.48l121,52.66Z"/><path class="cls-6" d="M126.46,205.91l-14.09,5.7a134.35,134.35,0,0,0,70.45,70l54.41-122.27Z"/><path class="cls-6" d="M361.23,203.8l-2-.48L247.92,154.87,240.43,158l52.17,121.4A134.3,134.3,0,0,0,361.23,203.8Z"/><path class="cls-6" d="M247.92,154.87l111.41-46.81A134.34,134.34,0,0,0,291.67,37l-51,114.71Z"/><path class="cls-6" d="M240.63,151.7,291.67,37a134.2,134.2,0,0,0-104.74-3.45L237,150.14Z"/><path class="cls-6" d="M237.22,159.37,182.81,281.63a134.19,134.19,0,0,0,109.78-2.21L240.43,158Z"/><path class="cls-6" d="M359.26,203.32l2,.48a134.3,134.3,0,0,0-1.91-95.74L247.92,154.87Z"/><path class="cls-6" d="M237.22,159.37l1.93-4.33-2.1-4.9L116,97.48a134.16,134.16,0,0,0-3.66,114.13l14.09-5.7Z"/><polygon class="cls-6" points="239.15 155.04 240.43 158.02 247.92 154.87 240.63 151.7 239.15 155.04"/><polygon class="cls-6" points="237.22 159.37 240.43 158.02 239.15 155.04 237.22 159.37"/><polygon class="cls-6" points="237.04 150.14 239.15 155.04 240.63 151.7 237.04 150.14"/><path class="cls-5" d="M246.23,107.53l-11-19.4-9,19.81a47.87,47.87,0,1,0,19.94-.41Z"/><circle class="cls-7" cx="236.69" cy="154.49" r="40.33"/><text class="cls-8" transform="translate(211.46 150.14)">点击<tspan x="0" y="27.99">抽奖</tspan></text><ellipse class="cls-9" cx="387.33" cy="221.91" rx="60.21" ry="42.69" transform="translate(12.83 464.85) rotate(-62.78)"/><path class="cls-10" d="M413.63,177.14a5.8,5.8,0,0,0-.91.08C419.6,178.32,425,191.68,425,208s-5.44,29.71-12.33,30.8a5.8,5.8,0,0,0,.91.08c7.31,0,13.24-13.83,13.24-30.88S420.94,177.14,413.63,177.14Z"/><polygon class="cls-11" points="60.74 200.26 116.67 171.07 99.8 142.78 44 171.07 60.74 200.26"/><polygon class="cls-12" points="65.64 146.28 35.44 159.65 45.69 179.63 48.75 178.1 74.75 165.1 107.84 143.56 98.63 128.9 65.64 146.28"/><polygon class="cls-13" points="26.35 142.78 24.8 149.79 29.99 149.79 29.99 142.78 26.35 142.78"/><polygon class="cls-14" points="3.52 171.07 0 179.63 5.85 179.63 8.96 171.07 3.52 171.07"/><rect class="cls-15" x="39.72" y="187.42" width="5.45" height="8.17"/><polygon class="cls-14" points="57.24 106.06 53.73 111.12 59.96 115.01 63.08 110.53 57.24 106.06"/><polygon class="cls-16" points="72.42 62.46 65.8 62.46 75.92 72.58 77.87 72.58 75.92 85.42 92.66 97.1 85.65 88.3 87.6 76.08 72.42 62.46"/><line class="cls-17" x1="73.97" y1="62.46" x2="65.8" y2="62.46"/><path class="cls-18" d="M63.08,139.54s-18.3-6.23-24.33-1.17c-5.06,4.48-6.28,11-4.91,14.14s8.61,5.9,8.61,5.9h6s9.37-.52,18.52-12.13c-.19-.71,0-6.16,0-6.16Z"/><path class="cls-18" d="M70.86,136.39S82.34,115.59,89.55,115c6,.19,12.85,1.36,12.26,8l-.58,6.62-3.7,8.56-20.24,4.61Z"/><path class="cls-19" d="M48.44,158.42s9.37-.52,18.52-12.13a2.74,2.74,0,0,1-.06-.47,25.4,25.4,0,0,0-7.61-1.14c-10.17,0-18.45,5.73-18.79,12.9,1.12.53,1.93.84,1.93.84Z"/><path class="cls-20" d="M71.52,135.24s-4.74-1.77-5.52,1.7-.42,11.26,2.71,14.86,9.16,8.47,10.14,2.24-2.38-13.78-4.77-16.16"/><polygon class="cls-13" points="472.47 164.84 474.02 171.84 468.83 171.84 468.83 164.84 472.47 164.84"/><polygon class="cls-14" points="495.3 193.13 498.82 201.69 492.97 201.69 489.85 193.13 495.3 193.13"/><rect class="cls-15" x="453.65" y="209.47" width="5.45" height="8.17"/><polygon class="cls-14" points="441.58 128.12 445.09 133.18 438.86 137.07 435.74 132.59 441.58 128.12"/><polygon class="cls-16" points="426.4 84.52 433.02 84.52 422.9 94.64 420.95 94.64 422.9 107.48 406.16 119.16 413.17 110.36 411.22 98.14 426.4 84.52"/><line class="cls-17" x1="424.84" y1="84.51" x2="433.02" y2="84.51"/><circle class="cls-21" cx="377.54" cy="248.43" r="56.68" transform="matrix(0.28, -0.96, 0.96, 0.28, 32.17, 539.93)"/><circle class="cls-22" cx="377.54" cy="248.43" r="51.2" transform="translate(32.17 539.93) rotate(-73.51)"/><path class="cls-17" d="M411.53,222.23l-12.61-3.73L384,235.32q-2.17,2.49-3.73,4.34c-.7-5.69-1.95-14.43-3.78-26.41l-.22-1.46-13-3.85,6.06,34.11-10.8-3.2-3.26,11,14.28,4.23-1.36,4.58-14.28-4.23-3.29,11.11,14.28,4.23L361,283l11.55,3.42,3.9-13.17,13.77,4.08,3.29-11.11-13.77-4.08,1.36-4.58,13.77,4.08,3.26-11-10.43-3.09Z"/><path class="cls-23" d="M411.06,223.8l-12.61-3.73L383.57,236.9q-2.17,2.49-3.73,4.34c-.7-5.69-1.95-14.43-3.78-26.41l-.22-1.46-13-3.85,6.06,34.11-10.8-3.2-3.26,11,14.28,4.23-1.36,4.58L353.46,256l-3.29,11.11,14.28,4.23-3.9,13.17L372.1,288l3.9-13.17,13.77,4.08,3.29-11.11-13.77-4.08,1.36-4.58,13.77,4.08,3.26-11-10.43-3.09Z"/><path class="cls-24" d="M173.41,269.76c.17-.41.12-.9.46-1.25l-.34,1.28Z"/><path class="cls-25" d="M115.05,209.12l.13.65a.19.19,0,0,1,0,.19c-.56,1.09,0,2,.52,2.89.27.33.21.75.32,1.12,0,.21.1.44-.13.6a7.17,7.17,0,0,1-1.18-2.28,4.56,4.56,0,0,1-.08-3C114.79,208.75,114.92,209.16,115.05,209.12Z"/><path class="cls-26" d="M117.9,218.5c-.22-.41-.84-.47-.84-1.12,0-.31-.34-.36-.55,0a7.11,7.11,0,0,1-.42-2.42c0-.26.17-.18.31-.15a.48.48,0,0,1,.2.26c0,.87.75,1.43,1,2.21C117.71,217.66,118.19,218,117.9,218.5Z"/><path class="cls-27" d="M116.42,214.87a.31.31,0,0,0-.33.07l-.2-.37V214c-.05-.22.07-.4.23-.21S116.74,214.39,116.42,214.87Z"/><path class="cls-26" d="M116.48,217.5c.37.15.16.42.13.65A.81.81,0,0,1,116.48,217.5Z"/><path class="cls-28" d="M121.21,219.38c-.22,0-.23,0-.11.2.23.35.69.54.69,1a.38.38,0,0,1-.52-.13,19.52,19.52,0,0,1-2.27-2.86c-.34-.6-.73-1.21-1.13-1.78a.37.37,0,0,1,0-.22c.09-.21.21-.33.41-.11a30.91,30.91,0,0,0,2.63,3.4C121,219.06,121.18,219.17,121.21,219.38Z"/><path class="cls-29" d="M118.24,215.51a.27.27,0,0,0-.36.21c-.29.11-.4-.1-.52-.29a18.12,18.12,0,0,1-1.83-4.11c-.16-.45-.12-.46.27-.47a26,26,0,0,0,2,3.82A3.32,3.32,0,0,1,118.24,215.51Z"/><path class="cls-30" d="M115.81,210.86c-.09,0-.25,0-.21.1a17,17,0,0,0,2.15,4.71s.09,0,.13.06h0c.1.46.77.73.47,1.34-.33.14-.44-.1-.56-.32a26.8,26.8,0,0,1-2.08-4.22c-.06-.15-.15-.16-.26-.2a3.79,3.79,0,0,1-.31-2.41l0-.14A1.83,1.83,0,0,1,115.81,210.86Z"/><path class="cls-26" d="M117.9,218.5a1.32,1.32,0,0,1,.67.55,6.57,6.57,0,0,0,1.27,1.61c.16.17.31.32.24.58C119.3,220.37,118.15,219.79,117.9,218.5Z"/><path class="cls-31" d="M121,221.18a6.56,6.56,0,0,1-1.64-1.72c-.23-.29-.39-.63-.76-.77-.46-.91-1.11-1.71-1.63-2.59a3.48,3.48,0,0,1-.46-1.05l-.1-.18c.07-.43-.28-.7-.4-1.06,0,0-.05,0-.06,0a1,1,0,0,0-.07.13c-.27-.29,0-.75-.34-1,0-.2-.16-.41,0-.61.4-.38.26.11.3.21a29.23,29.23,0,0,0,2.29,4.46s.09,0,.13.06a13,13,0,0,1,1.81,2.37,2.32,2.32,0,0,0,.63.95C120.95,220.58,121.19,220.82,121,221.18Z"/><path class="cls-32" d="M115.57,212.33a1,1,0,0,1,0,.61,3.77,3.77,0,0,1-.76-2.77c0-.22.13-.31.34-.27A15.41,15.41,0,0,0,115.57,212.33Z"/><path class="cls-27" d="M116.53,215c.65,1.24,1.66,2.27,2.09,3.64-.57-.31-.58-1.09-1.16-1.39-.39-.47-.47-1.12-.93-1.55C116.33,215.56,116.47,215.28,116.53,215Z"/><path class="cls-29" d="M121.93,220.66a1.49,1.49,0,0,0,.91,1.17,3.25,3.25,0,0,0,.89.84c.21.11.43.26.29.57a.45.45,0,0,1-.21,0,7.56,7.56,0,0,1-2.52-2.13,12.74,12.74,0,0,1-1.35-1.65l-1.65-2.44c.22-.55-.58-.8-.41-1.34.67.45.87,1.25,1.31,1.86a10.57,10.57,0,0,0,1.81,2.25c.3.24.28.77.79.79Z"/><path class="cls-33" d="M173.52,269.8a6,6,0,0,1-4.68,4.63c-5.36,1.34-10.74,2.62-16.1,3.94q-10.2,2.51-20.4,5a9.74,9.74,0,0,1-3.59.3.23.23,0,0,1-.2,0,7.65,7.65,0,0,0-1.41-.4.65.65,0,0,0-.3.05l-.14,0c0-.23-.2-.26-.34-.34a6.18,6.18,0,0,1-3.3-4.65q-2.23-12.65-4.51-25.29l-4.49-25.22c-.78-4.4-1.58-8.8-2.34-13.2a5.94,5.94,0,0,1,3.2-6.75c.53.33.32.79.21,1.23-.21,0-.27.07-.35.32-.65,1.95.36,3.47,1.19,5.05a1.1,1.1,0,0,1,.23.47c.08.8.25,1.58.41,2.37a1.58,1.58,0,0,1,0,.21,2,2,0,0,0,.13.71c.85,4.72,1.68,9.44,2.52,14.16q1.41,7.84,2.81,15.69,1.5,8.32,2.94,16.65c.51,2.92,1.08,5.83,1.55,8.76a6.37,6.37,0,0,0,2.5,4.47,7.1,7.1,0,0,0,6.07,1.09q6.87-1.72,13.75-3.39l16.92-4.14c2.5-.61,5-1.2,7.49-1.82A.25.25,0,0,1,173.52,269.8Z"/><path class="cls-34" d="M128.6,283.63l.15.09,0,.11-1.86-.5.2-.13A5.82,5.82,0,0,1,128.6,283.63Z"/><path class="cls-35" d="M160.06,205.28l0,.13a1.61,1.61,0,0,1-1.72-.45l0-.14Z"/><path class="cls-36" d="M158.31,204.95l1.72.45a6.51,6.51,0,0,1,2.89,2.34,4.3,4.3,0,0,0-.41,1.95,1.81,1.81,0,0,1,0,.22,2.38,2.38,0,0,0,0,.8,14.46,14.46,0,0,1-.71,3.14c-.06.26-.14.52-.21.78a16.08,16.08,0,0,1-3.1,5.08,21.33,21.33,0,0,1-3.9,3.3c-6.3,3.91-13.15,4.81-20.36,3.64a29.66,29.66,0,0,1-6.78-2.34,25.33,25.33,0,0,1-6.23-4.73,32.44,32.44,0,0,1-3.13-4c-.64-1.18-1.3-2.35-2-3.52a3.6,3.6,0,0,1-.48-1.14,3.11,3.11,0,0,0-.55-1.14c-.1-.22-.23-.44,0-.68,0-.42.16-.86-.12-1.26a6,6,0,0,1,3.3-.94q15.16-.77,30.32-1.5c.34,0,.69,0,1,0a1.65,1.65,0,0,0,1.2,0c2.21-.24,4.43-.3,6.64-.37Z"/><path class="cls-37" d="M150.78,205.37a.93.93,0,0,1-1.2,0A3.8,3.8,0,0,1,150.78,205.37Z"/><path class="cls-36" d="M116.48,217.5l0-.14c.2-.4.54-.47.65-.11s.54.68.74,1.07l.12.17a6.79,6.79,0,0,0,2.27,2.67,42.44,42.44,0,0,0,3.63,3.26,22.31,22.31,0,0,0,4,2.39,24.83,24.83,0,0,0,4.76,1.77c1.09.3,2.22.45,3.32.74a3.78,3.78,0,0,0,1.24,0c1.53-.12,3.06.25,4.57,0a27.65,27.65,0,0,0,3.07-.34c.83-.14,1.67-.28,2.49-.48a28.58,28.58,0,0,0,5.58-2.06,21.6,21.6,0,0,0,4.14-2.75,16.72,16.72,0,0,0,1.67-1.65,20.39,20.39,0,0,0,2.11-2.72,14.69,14.69,0,0,0,1.37-2.48,30.79,30.79,0,0,0,1.2-5.36,17.92,17.92,0,0,0-.08-2.13c0-.28-.56-.6.05-.84a5.68,5.68,0,0,1,.88,2.48l7.93,47.11q.74,4.41,1.48,8.83a5.42,5.42,0,0,1,.09,1.54c-.24.38-.17.88-.46,1.25-1.77.63-3.62.9-5.43,1.37-2.6.68-5.19,1.38-7.81,2-3.17.72-6.31,1.57-9.47,2.34l-12.56,3a25.14,25.14,0,0,1-4.32.94c-3.58.22-6.66-1.76-7.32-5.53-.33-1.89-.67-3.79-1-5.68l-1.35-7.63c-.86-4.88-1.71-9.76-2.59-14.64-.69-3.86-1.42-7.71-2.11-11.57-.76-4.32-1.49-8.64-2.24-13-.19-1.09-.39-2.18-.59-3.27C116.55,217.93,116.64,217.69,116.48,217.5Z"/><path class="cls-38" d="M163.48,208.55c-.41.32.15.49.11.76a13.88,13.88,0,0,0-.17,2.63,17.67,17.67,0,0,1-3.29,8.65,13.24,13.24,0,0,0-1,1.25,22.52,22.52,0,0,1-4.68,3.77,9.56,9.56,0,0,1-2.06,1.1c-.23.07-.45.22-.7,0s.15-.38.29-.53a40.34,40.34,0,0,0,4-2.45,15.36,15.36,0,0,0,3.3-3.17,16.25,16.25,0,0,0,3.52-11c-.26-.18-.17.27-.35.21a7.56,7.56,0,0,1,.16-2c0-.18.24-.05.37,0A2.59,2.59,0,0,1,163.48,208.55Z"/><path class="cls-39" d="M128.6,283.63l-1.56-.42A2.3,2.3,0,0,1,128.6,283.63Z"/><path class="cls-40" d="M134.35,226.47c7.16,1.15,13.94.22,20.19-3.64a.38.38,0,0,1,0,.65,1.35,1.35,0,0,0-.38.41.91.91,0,0,1-.2.24c-.87.55-1.88.84-2.72,1.45a14.29,14.29,0,0,0-1.77.68,28.08,28.08,0,0,1-4.72,1.31,2.39,2.39,0,0,1-1.13.17,8.24,8.24,0,0,0-1.49.07l-.19,0a2,2,0,0,0-1.14.08,1,1,0,0,1-.59,0,.85.85,0,0,0-.64,0l-.19,0a5.23,5.23,0,0,0-.89-.09,2,2,0,0,1-.52,0,1.88,1.88,0,0,0-.95-.06,12.13,12.13,0,0,1-3.37-.77,9,9,0,0,0-2.79-.75.66.66,0,0,1-.21-.15.3.3,0,0,1,0-.35c.12-.14.29-.12.45-.14a1.14,1.14,0,0,1,.45.15,16,16,0,0,0,2.17.59C133.91,226.37,134.12,226.57,134.35,226.47Z"/><path class="cls-41" d="M134.35,226.47c-.21.17-.41,0-.61,0a8.1,8.1,0,0,1-2.29-.62l-.43-.12a.41.41,0,0,1-.28,0s-.06-.07-.08,0l0,.06-.08.29c-.35.19-.68,0-1-.08-.9-.28-1.68-.84-2.55-1.16-.34-.13-.14-.58-.31-.56a1.17,1.17,0,0,1-1-.28c-1.24-1.12-2.63-2.07-3.9-3.15a1,1,0,0,1-.16-.15c-.22-.39-.58-.68-.79-1.07s0-.39.26-.24c.92.81,1.81,1.68,2.78,2.43a22.37,22.37,0,0,0,9,4.3C133.45,226.21,133.9,226.35,134.35,226.47Z"/><path class="cls-42" d="M162.39,209.75c0-.17.08-.33.14-.5s0-.29.2-.19.08.22.06.34a15.57,15.57,0,0,1-.39,4.37,16.63,16.63,0,0,1-2.34,5.75c-.18.29-.49.49-.57.85-.28.39-.67.69-.94,1.09-.09.13-.23.34-.47.17-.19-.53.33-.78.44-1.19a12.3,12.3,0,0,1,1.05-1.61,23,23,0,0,0,2.46-5.72,5.64,5.64,0,0,0-.18.59c-.06.24-.12.48-.2.71s0,.39-.3.29a26.37,26.37,0,0,0,1-4.2c-.11-.26.17-.49.05-.76Z"/><path class="cls-43" d="M161.36,214.7c.5-.5.33-1.26.75-1.79-.33,1.07-.59,2.15-.94,3.22a26.08,26.08,0,0,1-2.48,4.46c-.42.22-.61.68-.95,1-.19.16-.31.46-.65.3-.13-.41.2-.62.4-.88s.77-.69.82-1.26A18.9,18.9,0,0,0,161.36,214.7Z"/><path class="cls-44" d="M158.31,219.72c.21,0,.38,0,.2.27-.31.41-.64.8-1,1.2a1.45,1.45,0,0,0-.42.68c-.09.34-.38.5-.63.69a5.3,5.3,0,0,0-1.5,1.06c-.29.25-.59.58-1,.17,0-.4.84-.35.56-.94A27.58,27.58,0,0,0,158.31,219.72Z"/><path class="cls-38" d="M162.39,209.75c.18.27,0,.5-.05.76C162.16,210.24,162.36,210,162.39,209.75Z"/><path class="cls-45" d="M151.33,252.57l0,.16c.12.25,0,.52.07.78h0c.2.21.17.65.61.63,2.29-.38,4.58-.75,6.86-1.16.47-.09.65,0,.72.49q.25,1.69.6,3.36c.11.52-.05.69-.56.77-2.22.36-4.43.78-6.65,1.14-.54.09-.69.25-.58.82.33,1.67.58,3.36.91,5,.1.52-.05.69-.55.77-2,.32-3.95.65-5.92,1-.47.09-.59,0-.67-.48-.28-1.73-.61-3.45-.89-5.19-.08-.47-.22-.59-.71-.5-2.28.43-4.58.79-6.86,1.23-.61.12-.79-.07-.87-.61-.16-1.1-.33-2.2-.56-3.29-.11-.51.06-.61.52-.69,2.15-.35,4.28-.74,6.42-1.12,1.16-.21,1.36-.53.84-1.59a7.25,7.25,0,0,0-1-1.29c-.19-.23-.45-.13-.69-.09-1.92.33-3.85.62-5.77,1-.68.14-.86-.06-1-.68-.15-1-.38-1.93-.58-2.9-.06-.13,0-.28,0-.42-.19-.49.1-.62.49-.67,1.54-.29,3.08-.59,4.62-.87.67-.12.25-.43.11-.65q-2.46-3.76-4.94-7.5l-2.85-4.35c2.46-.43,4.82-.83,7.17-1.26.4-.07.46.19.58.42l6.66,12.25c0,.06.1.1.23.23.25-1.46.5-2.83.73-4.21.54-3.26,1.09-6.53,1.61-9.8a.76.76,0,0,1,.74-.74c2-.32,4-.67,5.92-1,.6-.11.77-.07.6.61-.92,3.7-1.79,7.4-2.68,11.11-.2.84-.37,1.68-.58,2.61,1.35-.24,2.61-.43,3.87-.69.61-.13.88,0,1,.66.13,1.1.34,2.2.58,3.29.12.56,0,.73-.58.81-1.93.31-3.84.69-5.77,1-.5.08-.76.28-.79.77C151.49,252,151.49,252.31,151.33,252.57Z"/><path class="cls-46" d="M117.9,218.5c0-.45-.35-.78-.45-1.2.36-.11.47.18.61.4a2.4,2.4,0,0,0,.69.84,24.34,24.34,0,0,1,1.76,2,4.28,4.28,0,0,0,.57.55c.87,1.05,2,1.78,2.93,2.82a16.53,16.53,0,0,0,5.06,3.07,28.68,28.68,0,0,0,5,1.45,11.48,11.48,0,0,0,3.55.46,20.81,20.81,0,0,0,6.3-.05c.37,0,.76-.28,1.13,0a.25.25,0,0,1-.09.32,23.55,23.55,0,0,1-5.18.37c-1.18-.11-2.35,0-3.53,0a.8.8,0,0,1-.22,0c-1-.3-2.11-.45-3.15-.71A23.92,23.92,0,0,1,121,222.08c-.28-.3-.6-.56-.9-.85C119.39,220.3,118.57,219.46,117.9,218.5Z"/><path class="cls-47" d="M159,221.89c.15-.52.6-.81.9-1.21a16.12,16.12,0,0,0,2.9-6.13,14.29,14.29,0,0,0,.53-5c0-.33.22-.16.3-.26a8.75,8.75,0,0,1-.12,3.32,9.44,9.44,0,0,0-.23,1.44,13,13,0,0,1-1.59,4.6,31.52,31.52,0,0,1-2.55,3.49s-.14,0-.21,0A.21.21,0,0,1,159,221.89Z"/><path class="cls-48" d="M159,221.89l-.08.29a15.52,15.52,0,0,1-3.73,3.2,15.2,15.2,0,0,0-1.93,1.2,4.64,4.64,0,0,1-2.3,1,2.28,2.28,0,0,0-.68.26,14.88,14.88,0,0,1-2.79.82.36.36,0,0,1-.41-.06c0-.51.47-.54.76-.6a23.54,23.54,0,0,0,3.51-1.22.69.69,0,0,1,.35-.06,8.6,8.6,0,0,0,3.25-1.59A37.7,37.7,0,0,0,159,221.89Z"/><path class="cls-47" d="M147,228.51l.43.12c-.07.06-.14.16-.22.18l-2.24.39.08-.29c.13-.44.55-.25.82-.4S146.65,228.09,147,228.51Z"/><path class="cls-49" d="M135.47,249.09c-.63.16-.31.72-.44,1.09C134.71,249.14,134.71,249.14,135.47,249.09Z"/><path class="cls-50" d="M152,254.14c-.67.24-.58-.25-.61-.63C151.76,253.51,151.72,254,152,254.14Z"/><path class="cls-50" d="M151.33,252.57a1.59,1.59,0,0,1,.32-.84A1,1,0,0,1,151.33,252.57Z"/><path class="cls-50" d="M151.35,253.51a1,1,0,0,1-.07-.78C151.55,253,151.42,253.24,151.35,253.51Z"/><path class="cls-50" d="M152,252.58a.48.48,0,0,1-.13.49A.43.43,0,0,1,152,252.58Z"/><path class="cls-51" d="M159.35,220.46a13.91,13.91,0,0,1,1.35-2.33,22.8,22.8,0,0,0,1-2.42,17,17,0,0,0,1-5.95,1.73,1.73,0,0,1,.08-.36c.1,0,.28-.08.26.13a39.07,39.07,0,0,1-.5,4.39,16.57,16.57,0,0,1-2.29,5.59,4,4,0,0,1-1,1.24A.21.21,0,0,1,159.35,220.46Z"/><path class="cls-52" d="M159.35,220.46l-.08.29a10.26,10.26,0,0,1-1.75,1.95,27.49,27.49,0,0,1-4,2.88,14.56,14.56,0,0,0-1.41.76,17.49,17.49,0,0,1-3.05,1.29c-.27.1-.54.29-.82,0s.22-.43.45-.52a36.82,36.82,0,0,0,3.81-1.59,20.86,20.86,0,0,0,4.72-3.22,3.65,3.65,0,0,1,.81-.63l.11,0C158.58,221.32,158.83,220.75,159.35,220.46Z"/><path class="cls-53" d="M148.2,227.59a6.47,6.47,0,0,0,2.05-.59,11.24,11.24,0,0,1,1.82-.67l-.4.35a12.34,12.34,0,0,1-3.58,1.37,2.43,2.43,0,0,0-1.06.45c-.4-.17-.74.15-1.12.16a.8.8,0,0,1-.54-.08c0-.47.47-.31.64-.55a4.08,4.08,0,0,1,1.31-.34,1.78,1.78,0,0,0,.78-.09Z"/><path class="cls-54" d="M121.93,220.66c1.32,1.05,2.72,2,3.94,3.18.42.41,1,.15,1.37.43-.06.21-.28,0-.34.12s.07.22.18.26a18.58,18.58,0,0,0,3.54,1.43l.14,0c.55.37,1.22.24,1.81.48a8.39,8.39,0,0,0,1.06.29,29,29,0,0,0,3.62.82c.26-.13.5.15.76.05l.47,0c.36-.1.68.24,1,.13h0c.19-.16.44-.05.65-.13s.41.18.61,0c.41,0,.82,0,1.22,0h0c.51-.19,1.08,0,1.59-.19s.77,0,1.12-.16a.6.6,0,0,1,.56.11c0,.39-.31.3-.5.37s-.61.13-.91.24a35.23,35.23,0,0,1-6.62.1,26.74,26.74,0,0,1-5.42-1,16.14,16.14,0,0,1-3.54-1.44,1.88,1.88,0,0,0-.86-.37,2.37,2.37,0,0,1-1-.53,2.48,2.48,0,0,0-.5-.53c-1.09-.69-2-1.57-3.08-2.33-.42-.15-.61-.55-.91-.84S121.78,220.82,121.93,220.66Z"/><path class="cls-55" d="M145.28,227.58l-.57-.15a17.34,17.34,0,0,0,2.65-.68,12.65,12.65,0,0,0,2.37-.8,3.48,3.48,0,0,1,1.5-.44.23.23,0,0,1,.29,0c0,.4-.39.44-.66.56a6.78,6.78,0,0,0-1,.48,2,2,0,0,1-.49.21c-1.12.16-2.13.72-3.27.82C145.79,227.63,145.53,227.78,145.28,227.58Z"/><path class="cls-55" d="M151.51,225.57l-.29-.08a7.46,7.46,0,0,1,2.69-1.43.14.14,0,0,1,.18.06.32.32,0,0,1-.1.33A6.36,6.36,0,0,1,151.51,225.57Z"/><path class="cls-43" d="M154.06,224.1l-.14,0,.08-.29c.42.16.66-.11,1-.35.47-.39.84-1,1.56-1,.12.35-.21.45-.36.66l-.16.13c-.43.24-.77.61-1.21.82C154.55,224.17,154.31,224.4,154.06,224.1Z"/><path class="cls-41" d="M133.63,226.89a6,6,0,0,1-2.87-.77,10.14,10.14,0,0,1,2.23.45C133.22,226.64,133.5,226.62,133.63,226.89Z"/><path class="cls-56" d="M131.45,225.84l2.29.62A4,4,0,0,1,131.45,225.84Z"/><path class="cls-55" d="M143.59,227.58a2.38,2.38,0,0,1-1.59.19C142.48,227.33,143.06,227.68,143.59,227.58Z"/><path class="cls-55" d="M142,227.77a1.67,1.67,0,0,1-1.22,0A1.36,1.36,0,0,1,142,227.77Z"/><path class="cls-55" d="M139.51,227.86c-.38.19-.69-.09-1-.13C138.85,227.54,139.16,227.83,139.51,227.86Z"/><path class="cls-55" d="M140.16,227.73a.81.81,0,0,1-.65.13C139.66,227.49,139.93,227.7,140.16,227.73Z"/><path class="cls-55" d="M138,227.76c-.27.18-.5,0-.76-.05C137.52,227.47,137.76,227.65,138,227.76Z"/><path class="cls-56" d="M130.69,225.79c-.09,0-.24,0-.28-.23l.6.16A.3.3,0,0,1,130.69,225.79Z"/><path class="cls-57" d="M156,223.1l.48-.64a1.37,1.37,0,0,1,.62-.6,5.09,5.09,0,0,0,1.19-1.16c.13-.15.19-.28.38-.11-.16.38-.57.62-.6,1.07h0a9.59,9.59,0,0,0-1.4,1.16C156.51,223,156.34,223.22,156,223.1Z"/><path class="cls-58" d="M119.94,219.5c1,.72,1.56,1.8,2.49,2.55a8.79,8.79,0,0,0,1.44,1.13,8,8,0,0,1,2,1.28,23.34,23.34,0,0,0,5.17,2.48,25.92,25.92,0,0,0,8.26,1.4,24.78,24.78,0,0,0,5-.28,2.78,2.78,0,0,0,1.06-.09.83.83,0,0,1,.75.13c-.08.42-.5.26-.73.42a3.73,3.73,0,0,1-1.75.4,23.1,23.1,0,0,1-6,.06,24.81,24.81,0,0,1-6.85-1.35,20.93,20.93,0,0,1-4.63-2.1c-.8-.47-1.51-1.08-2.28-1.59-.87-1-2.07-1.63-2.79-2.75C120.89,220.48,120,220.24,119.94,219.5Z"/><path class="cls-59" d="M123.82,223.94c.72.06,1.14.65,1.69,1a21,21,0,0,0,4.73,2.3l2.31.76a27.81,27.81,0,0,0,5.15.92s0,.08,0,.11,0,0-.06,0a9.53,9.53,0,0,1-3.43-.4c-1.11-.23-2.2-.53-3.29-.81a17.33,17.33,0,0,1-4.11-1.75,20.58,20.58,0,0,1-2.77-1.81A.57.57,0,0,1,123.82,223.94Z"/><path class="cls-60" d="M137.65,229.05l0-.14a37.52,37.52,0,0,0,7.64-.4l.57.15c-.25.18-.6,0-.83.24-1.11.11-2.22.25-3.34.33A11.46,11.46,0,0,1,137.65,229.05Z"/><path class="cls-42" d="M146.06,228.1c-.59-.1-1.14.3-1.73.15a.18.18,0,0,1,0-.14s0-.07,0-.06a1.72,1.72,0,0,1,.9-.27,41.35,41.35,0,0,0,4.12-1.09.51.51,0,0,1,.36-.21A23.24,23.24,0,0,0,156,223.1h0c.56-.17.86-.67,1.29-1,.23-.18.43-.48.79-.43a20.08,20.08,0,0,1-4.34,3.36,32.44,32.44,0,0,1-5.44,2.4c-.05,0-.08.12-.12.18h0c-.26.13-.57.12-.83.24Z"/><path class="cls-58" d="M147.36,227.83a.71.71,0,0,1,.83-.24C148,228,147.68,227.9,147.36,227.83Z"/><path class="cls-61" d="M144.37,228.1l0,.14a26.65,26.65,0,0,1-7.9.13,23.48,23.48,0,0,1-9.52-3.06,16.65,16.65,0,0,1-3-2.13l.14,0c.18-.11.33,0,.46.1a13.51,13.51,0,0,1,1.89,1.46c.38.11.69.42,1.11.45.21.26.6.12.82.38a23,23,0,0,0,6.43,2.08,31.47,31.47,0,0,0,5.32.47c1.3,0,2.6-.11,3.9-.17A.33.33,0,0,1,144.37,228.1Z"/><path class="cls-57" d="M144.37,228.1l-.43-.12c.38-.34.92-.18,1.34-.41a22.25,22.25,0,0,0,3.45-.86,1,1,0,0,1,.63,0,15.82,15.82,0,0,1-3.64,1.13C145.28,227.92,144.82,228,144.37,228.1Z"/><path class="cls-62" d="M126.36,224.77c-.88-.38-1.45-1.22-2.35-1.56-.08-.38-.41-.5-.68-.7a1.09,1.09,0,0,1-.49-.69c1.11.82,2.13,1.77,3.31,2.51A.39.39,0,0,1,126.36,224.77Z"/><path class="cls-62" d="M128.28,225.6c-.27-.12-.64,0-.82-.38C127.74,225.35,128.1,225.28,128.28,225.6Z"/><path class="cls-57" d="M156,223.1a6.6,6.6,0,0,1-2.09,1.58c-.92.59-2,1-2.93,1.49a2.42,2.42,0,0,1-1.27.3c.49-.5,1.25-.47,1.78-.9s1.31-.62,2-1c.23-.12.51-.21.59-.51a1.82,1.82,0,0,0,1.21-.58A2.06,2.06,0,0,1,156,223.1Z"/><path class="cls-24" d="M155.76,246.86c-.22-.46-.66-.8-.69-1.35l.81,1.28Z"/><path class="cls-25" d="M59.73,248.68l.65.39a.21.21,0,0,1,.16.15c.48,1.31,1.66,1.54,2.82,1.8.48,0,.79.4,1.18.6.19.15.45.26.4.58a8.18,8.18,0,0,1-2.83-.78,5.21,5.21,0,0,1-2.61-2.3C59.22,248.61,59.67,248.82,59.73,248.68Z"/><path class="cls-26" d="M69.8,253.57c-.51-.13-1,.34-1.59-.16-.25-.24-.57,0-.44.44a8.11,8.11,0,0,1-2.36-1.52c-.21-.2,0-.28.12-.38a.55.55,0,0,1,.37,0c.75.66,1.78.48,2.61.89C68.95,253.08,69.58,252.93,69.8,253.57Z"/><path class="cls-27" d="M65.61,252a.35.35,0,0,0-.2.33l-.47-.11-.5-.48c-.22-.13-.28-.37,0-.35C64.89,251.39,65.45,251.35,65.61,252Z"/><path class="cls-26" d="M67.86,254c.41-.19.48.19.64.39A.92.92,0,0,1,67.86,254Z"/><path class="cls-28" d="M73.1,251.49c-.2.16-.17.2.09.24.47.08,1-.15,1.4.23a.43.43,0,0,1-.51.33,22.27,22.27,0,0,1-4.15-.32c-.77-.19-1.57-.33-2.37-.44a.42.42,0,0,1-.22-.13c-.11-.24-.11-.43.23-.43a35.27,35.27,0,0,0,4.89.43A1.09,1.09,0,0,1,73.1,251.49Z"/><path class="cls-29" d="M67.56,251a.3.3,0,0,0-.1.46c-.13.32-.4.26-.65.21A20.67,20.67,0,0,1,62,250c-.5-.22-.48-.26-.18-.59a29.68,29.68,0,0,0,4.74,1.29A3.79,3.79,0,0,1,67.56,251Z"/><path class="cls-30" d="M61.78,249.4c-.08.07-.22.19-.08.25a19.43,19.43,0,0,0,5.61,1.85s.1,0,.15-.06h0c.47.27,1.21-.08,1.48.65-.13.38-.43.29-.7.23a30.59,30.59,0,0,1-5.14-1.54.36.36,0,0,0-.37.06,4.33,4.33,0,0,1-2.26-1.61l-.09-.15A2.09,2.09,0,0,1,61.78,249.4Z"/><path class="cls-26" d="M69.8,253.57a1.51,1.51,0,0,1,1-.14,7.5,7.5,0,0,0,2.34.19c.26,0,.51,0,.67.25C72.45,253.85,71.07,254.37,69.8,253.57Z"/><path class="cls-31" d="M74.46,253a7.48,7.48,0,0,1-2.72,0,2.19,2.19,0,0,0-1.23,0c-1.12-.32-2.29-.39-3.43-.64a4,4,0,0,1-1.24-.43l-.23-.05c-.3-.39-.8-.31-1.19-.49,0,0,0,0,0,.07a1.19,1.19,0,0,0,.06.16c-.45,0-.63-.59-1.11-.51-.21-.12-.47-.18-.51-.48,0-.63.3-.13.41-.09a33.36,33.36,0,0,0,5.51,1.55s.1,0,.15-.06a14.81,14.81,0,0,1,3.39.33,2.65,2.65,0,0,0,1.28.21C73.91,252.63,74.29,252.62,74.46,253Z"/><path class="cls-32" d="M62.83,250.74a1.18,1.18,0,0,1,.51.48,4.3,4.3,0,0,1-2.91-1.51c-.17-.2-.16-.34,0-.49A17.58,17.58,0,0,0,62.83,250.74Z"/><path class="cls-27" d="M65.84,252c1.54.41,3.19.37,4.67,1.07-.7.23-1.36-.36-2.07-.1-.69,0-1.3-.47-2-.42C66.11,252.61,66,252.28,65.84,252Z"/><path class="cls-29" d="M74.73,251.87a1.7,1.7,0,0,0,1.69.14,3.71,3.71,0,0,0,1.39-.09c.25-.09.55-.15.71.2a.52.52,0,0,1-.13.22,8.63,8.63,0,0,1-3.74.46,14.54,14.54,0,0,1-2.43-.15l-3.32-.52c-.29-.61-1.12-.14-1.44-.7a7.34,7.34,0,0,1,2.57.34,12.06,12.06,0,0,0,3.28.23c.43-.07.87.36,1.28,0Z"/><path class="cls-33" d="M155.88,246.78a6.88,6.88,0,0,1,.25,7.51c-3,5.53-6.13,11-9.19,16.53q-5.81,10.49-11.59,21a11.11,11.11,0,0,1-2.53,3.24.26.26,0,0,1-.19.13,8.73,8.73,0,0,0-1.43.87.74.74,0,0,0-.19.29l-.14.09c-.19-.19-.38,0-.55,0a7.06,7.06,0,0,1-6.45-.85q-12.32-7.94-24.67-15.84L74.61,264c-4.29-2.76-8.59-5.5-12.86-8.28-2.94-1.91-3.93-4.44-3.17-7.91.69-.19.91.34,1.19.78-.15.18-.15.28,0,.54,1.12,2.05,3.19,2.39,5.15,2.92a1.26,1.26,0,0,1,.58.17c.73.55,1.52,1,2.3,1.49l.19.14a2.33,2.33,0,0,0,.7.44c4.61,2.94,9.21,5.92,13.81,8.87L97.81,273q8.13,5.19,16.22,10.45c2.84,1.84,5.72,3.62,8.54,5.49a7.27,7.27,0,0,0,5.68,1.37,8.1,8.1,0,0,0,5.62-4.24q3.89-7.08,7.83-14.14,4.83-8.69,9.66-17.38c1.43-2.56,2.87-5.11,4.29-7.68A.28.28,0,0,1,155.88,246.78Z"/><path class="cls-34" d="M132.62,295.12l.19,0,.06.12L131,296.36l0-.26A6.65,6.65,0,0,1,132.62,295.12Z"/><path class="cls-35" d="M91.42,208l.08.13a1.83,1.83,0,0,1-1.72,1.09l-.09-.14Z"/><path class="cls-36" d="M89.79,209.23l1.72-1.09a7.43,7.43,0,0,1,4.2-.61A4.9,4.9,0,0,0,97,209.39l.18.17a2.71,2.71,0,0,0,.67.61,16.51,16.51,0,0,1,2.08,3c.18.25.33.52.49.78a18.35,18.35,0,0,1,1.85,6.53,24.34,24.34,0,0,1-.26,5.82c-1.62,8.31-6.17,14.74-12.74,19.87a33.84,33.84,0,0,1-7.22,3.86,28.9,28.9,0,0,1-8.79,1.55,37,37,0,0,1-5.76-.47c-1.48-.39-3-.74-4.47-1.09a4.11,4.11,0,0,1-1.33-.48,3.55,3.55,0,0,0-1.38-.43c-.26-.09-.55-.15-.61-.49-.39-.29-.6-.8-1.15-.88a6.85,6.85,0,0,1,1.77-3.48Q71.47,231,82.61,217.77c.25-.3.52-.58.79-.88a1.88,1.88,0,0,0,.9-1c1.51-2,3.18-3.94,4.85-5.85C89.37,209.76,89.57,209.49,89.79,209.23Z"/><path class="cls-37" d="M84.3,215.86c-.05.57-.26.8-.9,1C83.7,216.55,83.89,216.11,84.3,215.86Z"/><path class="cls-36" d="M67.86,254l-.09-.14c-.18-.48,0-.82.42-.63s1,.08,1.47.22l.24,0c1.31.58,2.66.28,4,.16a48.43,48.43,0,0,0,5.55-.51,25.45,25.45,0,0,0,5.13-1.53A28.33,28.33,0,0,0,89.75,249c1.1-.69,2.1-1.52,3.19-2.21a4.32,4.32,0,0,0,1-1c1.09-1.37,2.58-2.37,3.56-3.81a31.56,31.56,0,0,0,2.09-2.83c.53-.81,1.06-1.61,1.53-2.46a32.61,32.61,0,0,0,2.61-6.27,24.65,24.65,0,0,0,.91-5.6,19.08,19.08,0,0,0-.09-2.68,23.27,23.27,0,0,0-.64-3.88,16.76,16.76,0,0,0-1-3.07A35.13,35.13,0,0,0,99.32,210a20.45,20.45,0,0,0-1.84-1.59c-.24-.21-.93,0-.66-.7a6.48,6.48,0,0,1,2.76,1.18l45.59,29.9,8.54,5.61a6.19,6.19,0,0,1,1.36,1.12c.13.5.61.83.69,1.35-.84,2-2.06,3.73-3.07,5.61-1.45,2.7-2.87,5.42-4.4,8.08-1.86,3.21-3.58,6.5-5.39,9.74q-3.6,6.44-7.21,12.87a28.69,28.69,0,0,1-2.56,4.35c-2.59,3.17-6.64,4.21-10.3,1.84-1.84-1.19-3.69-2.37-5.54-3.56L109.86,281q-7.13-4.6-14.26-9.19c-3.77-2.41-7.56-4.79-11.32-7.21-4.2-2.71-8.39-5.45-12.58-8.17-1.06-.69-2.13-1.36-3.19-2C68.28,254.26,68.14,254,67.86,254Z"/><path class="cls-38" d="M96.81,207.7c-.05.59.53.25.72.49.51.9,1.42,1.4,2.07,2.18a20.16,20.16,0,0,1,4.69,9.46,15.11,15.11,0,0,0,.26,1.82,25.7,25.7,0,0,1-.47,6.84,10.91,10.91,0,0,1-.68,2.57c-.12.25-.17.55-.5.62-.32-.13-.2-.42-.22-.65a46,46,0,0,0,1-5.21,17.53,17.53,0,0,0-.1-5.22,18.54,18.54,0,0,0-6.52-11.51c-.36.08.09.34-.1.46-.68-.39-1-1.13-1.52-1.65-.15-.14.14-.24.25-.35A3,3,0,0,1,96.81,207.7Z"/><path class="cls-39" d="M132.62,295.12l-1.56,1A2.63,2.63,0,0,1,132.62,295.12Z"/><path class="cls-40" d="M89.23,246c6.51-5.1,11-11.5,12.62-19.72.39,0,.55.17.53.52a1.54,1.54,0,0,0,0,.63,1,1,0,0,1,0,.35c-.21,1.15-.75,2.22-.89,3.4a16.3,16.3,0,0,0-.81,2,32,32,0,0,1-2.57,5,2.72,2.72,0,0,1-.73,1.08,9.4,9.4,0,0,0-1.1,1.3.82.82,0,0,1-.12.19,2.29,2.29,0,0,0-.81,1,1.17,1.17,0,0,1-.46.49,1,1,0,0,0-.5.54.9.9,0,0,1-.12.19c-.24.25-.57.38-.77.68a2.26,2.26,0,0,1-.39.45c-.36.14-.55.47-.78.75A13.85,13.85,0,0,1,89.16,247a10.29,10.29,0,0,0-2.79,1.76.75.75,0,0,1-.28.06.34.34,0,0,1-.3-.26c0-.21.12-.34.23-.48a1.31,1.31,0,0,1,.47-.26,18.26,18.26,0,0,0,2.17-1.36C88.8,246.27,89.13,246.25,89.23,246Z"/><path class="cls-41" d="M89.23,246c0,.3-.3.36-.48.5a9.24,9.24,0,0,1-2.29,1.44l-.43.27c0,.12-.13.17-.22.24s-.1,0-.06.07h.08l.18.29c-.11.44-.51.59-.84.78-.93.53-2,.75-3,1.23-.37.19-.59-.33-.71-.18a1.33,1.33,0,0,1-1,.58c-1.9.17-3.77.59-5.66.82a1.09,1.09,0,0,1-.25,0c-.5-.12-1,0-1.51-.16s-.36-.27,0-.4c1.4-.14,2.81-.22,4.19-.44a25.53,25.53,0,0,0,10.58-4.2C88.31,246.53,88.78,246.26,89.23,246Z"/><path class="cls-42" d="M97,209.53c-.1-.17-.22-.33-.31-.5s-.22-.24,0-.32.24.1.33.21a17.77,17.77,0,0,1,3.36,3.71,19,19,0,0,1,3,6.42c.1.38,0,.79.26,1.14.11.54.06,1.09.19,1.63,0,.18.11.46-.22.53-.59-.24-.4-.88-.65-1.3a14,14,0,0,1-.53-2.13,26.29,26.29,0,0,0-2.88-6.5,6.43,6.43,0,0,0,.35.61c.15.24.31.47.44.72s.32.31,0,.48a30.1,30.1,0,0,0-2.75-4.07c-.3-.11-.28-.52-.59-.63Z"/><path class="cls-43" d="M100.32,214.24c0-.8-.8-1.25-.91-2,.63,1.11,1.34,2.16,2,3.28,1,1.75,1.2,3.7,1.81,5.54a6.35,6.35,0,0,0,.08,1.55c0,.29.15.62-.26.77-.45-.21-.36-.65-.43-1-.11-.56,0-1.18-.42-1.66A21.57,21.57,0,0,0,100.32,214.24Z"/><path class="cls-44" d="M102.15,220.68c.15-.2.31-.3.38,0,.11.58.18,1.16.26,1.74a1.66,1.66,0,0,0,.24.88,1.55,1.55,0,0,1,.09,1.06,6,6,0,0,0-.27,2.08c0,.44,0,.95-.63,1-.3-.35.35-1-.36-1.19A31.48,31.48,0,0,0,102.15,220.68Z"/><path class="cls-38" d="M97,209.53c.36.05.41.41.59.63C97.2,210.11,97.16,209.76,97,209.53Z"/><path class="cls-45" d="M124.24,252l.09.16c.31.09.46.39.71.55h0c.34,0,.68.36,1,0,1.45-2.21,2.92-4.42,4.35-6.65.3-.46.5-.54,1-.22q1.6,1.1,3.27,2.1c.52.31.53.58.21,1.06-1.42,2.14-2.79,4.31-4.21,6.45-.34.52-.32.78.23,1.12,1.66,1,3.26,2.12,4.92,3.14.52.32.54.58.22,1.06-1.26,1.9-2.52,3.81-3.73,5.74-.29.46-.49.47-.92.19-1.67-1.11-3.37-2.16-5-3.28-.46-.3-.67-.28-1,.2-1.41,2.24-2.89,4.44-4.29,6.69-.37.6-.67.61-1.19.25-1-.72-2.1-1.43-3.19-2.08-.51-.31-.47-.52-.18-1,1.37-2.07,2.7-4.16,4-6.25.73-1.13.61-1.55-.69-1.94a8.28,8.28,0,0,0-1.85-.17c-.34,0-.46.28-.62.51-1.22,1.87-2.47,3.71-3.63,5.61-.41.67-.72.67-1.31.28-.93-.63-1.92-1.18-2.88-1.76-.16-.05-.23-.22-.38-.28-.56-.21-.44-.56-.18-.93,1-1.52,1.9-3,2.86-4.54.42-.66-.17-.55-.46-.6l-10.1-1.68-5.86-1c1.55-2.39,3-4.67,4.5-7,.25-.39.51-.24.8-.16l15.42,3.92a1.8,1.8,0,0,0,.37,0c-1-1.34-2-2.61-3-3.87q-3.47-4.48-7-8.94a.87.87,0,0,1-.05-1.19c1.26-1.91,2.51-3.82,3.72-5.76.37-.59.54-.69,1,0,2.38,3.63,4.81,7.24,7.22,10.85.54.81,1.11,1.61,1.74,2.51.85-1.31,1.67-2.52,2.42-3.77.37-.61.67-.75,1.3-.29,1,.75,2.11,1.42,3.2,2.06.56.33.57.61.23,1.12-1.23,1.86-2.4,3.75-3.64,5.61a.88.88,0,0,0,0,1.26C123.88,251.42,124.15,251.67,124.24,252Z"/><path class="cls-46" d="M69.8,253.57c-.38-.34-.92-.31-1.35-.55.19-.39.52-.25.8-.2a2.74,2.74,0,0,0,1.24.07,27.78,27.78,0,0,1,3.05.09,4.88,4.88,0,0,0,.9-.06c1.55.09,3.08-.32,4.63-.26a18.86,18.86,0,0,0,6.5-1.85,32.73,32.73,0,0,0,5.11-3.09,13.1,13.1,0,0,0,3.14-2.61,23.75,23.75,0,0,0,4.84-5.32c.26-.34.35-.86.9-.92a.29.29,0,0,1,.2.32A26.88,26.88,0,0,1,96,243.8c-1,.9-1.81,2-2.72,3a.91.91,0,0,1-.2.16c-1.06.64-2,1.42-3,2.09a27.88,27.88,0,0,1-5.45,2.75,24.36,24.36,0,0,1-9.46,2c-.47,0-.94.06-1.41.1C72.46,253.72,71.12,253.75,69.8,253.57Z"/><path class="cls-47" d="M104.48,221.83a4.32,4.32,0,0,1-.31-1.7,18.4,18.4,0,0,0-2.88-7.17,16.31,16.31,0,0,0-3.77-4.31c-.31-.23,0-.31,0-.45.93.84,2.06,1.45,2.68,2.67a10.77,10.77,0,0,0,1,1.31,14.83,14.83,0,0,1,2.62,4.9,36,36,0,0,1,1,4.84c0,.06-.1.13-.15.19A.23.23,0,0,1,104.48,221.83Z"/><path class="cls-48" d="M104.48,221.83l.18.29a17.71,17.71,0,0,1-.22,5.6,17.35,17.35,0,0,0-.49,2.55,5.3,5.3,0,0,1-1,2.67,2.6,2.6,0,0,0-.31.77,17,17,0,0,1-1.48,3,.41.41,0,0,1-.37.3c-.43-.4-.09-.81.09-1.1a26.86,26.86,0,0,0,1.7-3.88.79.79,0,0,1,.22-.35,9.81,9.81,0,0,0,1.19-4A43,43,0,0,0,104.48,221.83Z"/><path class="cls-47" d="M100.76,236.95l.43-.27c0,.11,0,.24,0,.32-.46.73-.94,1.45-1.41,2.17l-.18-.29c-.27-.45.22-.66.3-1C100.14,237.55,100.12,236.94,100.76,236.95Z"/><path class="cls-49" d="M109,262.58c-.35.66.36.82.57,1.22C108.48,263.26,108.48,263.26,109,262.58Z"/><path class="cls-50" d="M126,252.7c-.32.75-.67.29-1,0C125.37,252.37,125.72,252.77,126,252.7Z"/><path class="cls-50" d="M124.24,252a1.81,1.81,0,0,1-.45-.92A1.17,1.17,0,0,1,124.24,252Z"/><path class="cls-50" d="M125,252.72a1.16,1.16,0,0,1-.71-.55C124.74,252.13,124.87,252.45,125,252.72Z"/><path class="cls-50" d="M124.76,251.46a.55.55,0,0,1,.31.49A.49.49,0,0,1,124.76,251.46Z"/><path class="cls-51" d="M103.58,220.39a15.88,15.88,0,0,1-.91-2.94,26,26,0,0,0-1.25-2.72,19.34,19.34,0,0,0-4.19-5.46,2,2,0,0,1-.24-.35c.09-.08.15-.29.31-.11a44.59,44.59,0,0,1,3.29,3.82,18.91,18.91,0,0,1,2.91,6.25,4.6,4.6,0,0,1,.26,1.79A.23.23,0,0,1,103.58,220.39Z"/><path class="cls-52" d="M103.58,220.39l.18.29a11.71,11.71,0,0,1,.27,3,31.38,31.38,0,0,1-.72,5.61,16.62,16.62,0,0,0-.46,1.77,20,20,0,0,1-1.28,3.56c-.13.3-.18.68-.63.69-.45-.21-.19-.51-.09-.78a42,42,0,0,0,1.62-4.41,23.8,23.8,0,0,0,1-6.45,4.17,4.17,0,0,1,.1-1.17l.06-.1C103.71,221.7,103.43,221.05,103.58,220.39Z"/><path class="cls-53" d="M100.91,235.26a7.38,7.38,0,0,0,1.1-2.18,12.83,12.83,0,0,1,.85-2l0,.61a14.08,14.08,0,0,1-1.63,4.06,2.77,2.77,0,0,0-.44,1.24c-.46.21-.45.74-.73,1.06-.09.21-.3.29-.48.39-.43-.33.11-.64,0-1a4.65,4.65,0,0,1,.73-1.36,2,2,0,0,0,.52-.72Z"/><path class="cls-54" d="M74.73,251.87c1.9-.29,3.79-.73,5.72-.83.67,0,.87-.68,1.42-.81.13.21-.24.22-.16.38s.24.11.35,0c1.29-.66,2.77-.92,3.94-1.85l.14-.09c.73-.17,1.15-.84,1.8-1.14a9.58,9.58,0,0,0,1.07-.66,33.05,33.05,0,0,0,3.5-2.39c.1-.32.51-.3.63-.59l.34-.41c.2-.38.72-.38.91-.77h0c0-.28.3-.41.39-.65s.46-.2.48-.5c.31-.35.66-.66,1-1h0c.24-.58.87-.87,1.08-1.47.22-.37.64-.61.73-1.06a.69.69,0,0,1,.52-.39c.35.27,0,.49-.08.7s-.37.61-.5.95a40.21,40.21,0,0,1-5.06,5.62,30.52,30.52,0,0,1-5,3.76,18.42,18.42,0,0,1-4,1.85,2.14,2.14,0,0,0-1,.43,2.7,2.7,0,0,1-1.26.47,2.83,2.83,0,0,0-.83,0c-1.43.37-2.9.49-4.34.77a3.09,3.09,0,0,1-1.41.11C74.86,252.34,74.75,252.12,74.73,251.87Z"/><path class="cls-55" d="M98.63,237.69l-.57.36a19.79,19.79,0,0,0,1.48-2.75,14.43,14.43,0,0,0,1.17-2.61,4,4,0,0,1,.79-1.6.26.26,0,0,1,.26-.21c.31.34.07.67,0,1a7.74,7.74,0,0,0-.41,1.25,2.31,2.31,0,0,1-.2.57c-.73,1.06-1,2.35-1.84,3.37C99.07,237.3,99,237.64,98.63,237.69Z"/><path class="cls-55" d="M101.78,230.92l-.29.18a8.52,8.52,0,0,1,.89-3.36.16.16,0,0,1,.19-.1.36.36,0,0,1,.2.34A7.25,7.25,0,0,1,101.78,230.92Z"/><path class="cls-43" d="M102.53,227.65l-.14.09-.18-.29c.46-.23.42-.64.44-1.07,0-.7-.16-1.45.4-2.05.39.17.22.52.27.81a1.48,1.48,0,0,1,0,.23c-.13.54-.08,1.12-.25,1.65C103,227.29,103,227.66,102.53,227.65Z"/><path class="cls-41" d="M89,246.91a6.89,6.89,0,0,1-2.87,1.8,11.57,11.57,0,0,1,2.11-1.52C88.49,247.06,88.69,246.81,89,246.91Z"/><path class="cls-56" d="M86.45,247.92l2.29-1.44A4.54,4.54,0,0,1,86.45,247.92Z"/><path class="cls-55" d="M97.32,239.11c-.11.67-.63,1-1.08,1.47C96.25,239.84,97,239.63,97.32,239.11Z"/><path class="cls-55" d="M96.24,240.58a1.9,1.9,0,0,1-1,1C95.49,241.15,95.71,240.72,96.24,240.58Z"/><path class="cls-55" d="M94.4,242.74c-.13.47-.62.51-.91.77C93.61,243,94.1,243,94.4,242.74Z"/><path class="cls-55" d="M94.79,242.09a.93.93,0,0,1-.39.65C94.2,242.33,94.58,242.26,94.79,242.09Z"/><path class="cls-55" d="M93.14,243.93c-.05.37-.41.41-.63.59C92.52,244.1,92.86,244,93.14,243.93Z"/><path class="cls-56" d="M85.82,248.52c-.11,0-.2.19-.41.06l.6-.38A.35.35,0,0,1,85.82,248.52Z"/><path class="cls-57" d="M103.21,225.22l-.16-.9a1.57,1.57,0,0,1,0-1,5.81,5.81,0,0,0,0-1.9c0-.22-.09-.38.21-.4.2.43.07,1,.43,1.33h0a11,11,0,0,0-.11,2.07C103.49,224.72,103.56,225.05,103.21,225.22Z"/><path class="cls-58" d="M72.22,252.65c1.35-.25,2.71.09,4.06-.11a10,10,0,0,0,2.06-.33,9.07,9.07,0,0,1,2.59-.64,26.64,26.64,0,0,0,6.09-2.4,29.58,29.58,0,0,0,7.57-5.83,28.28,28.28,0,0,0,3.64-4.41,3.17,3.17,0,0,0,.75-1,.94.94,0,0,1,.69-.53c.29.4-.17.62-.22.93a4.26,4.26,0,0,1-1,1.77,26.36,26.36,0,0,1-4.6,5.07,28.31,28.31,0,0,1-6.45,4.69A23.89,23.89,0,0,1,82,252.15c-1,.31-2.07.42-3.1.68-1.49,0-3,.47-4.47.21C73.77,252.6,72.9,253.14,72.22,252.65Z"/><path class="cls-59" d="M78.93,252.83c.61-.56,1.43-.44,2.15-.64a24,24,0,0,0,5.6-2.17c.8-.46,1.62-.9,2.43-1.35a31.74,31.74,0,0,0,4.76-3.59q.1,0,.11.07s0,.07,0,.08a10.88,10.88,0,0,1-3,2.56c-1.05.75-2.15,1.43-3.23,2.13A19.78,19.78,0,0,1,83.08,252a23.49,23.49,0,0,1-3.66.92A.64.64,0,0,1,78.93,252.83Z"/><path class="cls-60" d="M94,245.22l-.09-.14a42.82,42.82,0,0,0,5.59-6.71L100,238c0,.35-.46.51-.45.88-.77,1-1.51,2.05-2.31,3A13.08,13.08,0,0,1,94,245.22Z"/><path class="cls-42" d="M99.67,237.44c-.54.42-.63,1.19-1.22,1.56a.2.2,0,0,1-.12-.09s0-.07,0-.08a2,2,0,0,1,.47-1,47.18,47.18,0,0,0,2.28-4.29.59.59,0,0,1,.11-.47,26.52,26.52,0,0,0,2.05-7.89h0a4.81,4.81,0,0,0,.15-1.86c0-.33-.07-.73.25-1a22.91,22.91,0,0,1-.56,6.24,37,37,0,0,1-2.21,6.42c0,.06,0,.16.06.24h0c-.1.32-.34.57-.45.88Z"/><path class="cls-58" d="M100.46,236.14a.81.81,0,0,1,.45-.88C101.08,235.72,100.76,235.93,100.46,236.14Z"/><path class="cls-61" d="M98.36,238.86l.09.14a30.41,30.41,0,0,1-6,6.71,26.79,26.79,0,0,1-9.95,5.59,19,19,0,0,1-4.14.9l.14-.09c0-.24.25-.29.44-.31a15.42,15.42,0,0,1,2.69-.45c.39-.23.88-.25,1.24-.57.38,0,.57-.41,1-.4a26.3,26.3,0,0,0,6.73-3.77A35.91,35.91,0,0,0,95,242.52c1-1.1,1.93-2.26,2.89-3.4A.37.37,0,0,1,98.36,238.86Z"/><path class="cls-57" d="M98.36,238.86l-.43.27c0-.59.56-.91.7-1.44a25.39,25.39,0,0,0,2-3.55,1.1,1.1,0,0,1,.46-.56,18.05,18.05,0,0,1-1.87,3.92C98.92,238,98.63,238.4,98.36,238.86Z"/><path class="cls-62" d="M81.61,251.36c-1,.44-2.14.27-3.12.76-.38-.23-.74,0-1.11,0a1.24,1.24,0,0,1-1-.13c1.55-.29,3.13-.41,4.67-.82A.44.44,0,0,1,81.61,251.36Z"/><path class="cls-62" d="M83.8,250.39c-.32.13-.54.5-1,.4C83.16,250.65,83.38,250.28,83.8,250.39Z"/><path class="cls-57" d="M103.21,225.22a7.53,7.53,0,0,1-.29,3c-.22,1.23-.69,2.41-1,3.61a2.77,2.77,0,0,1-.73,1.3c0-.8.58-1.41.63-2.19.24-.79.5-1.58.72-2.38a1,1,0,0,0,0-.89,2.08,2.08,0,0,0,.46-1.46A2.36,2.36,0,0,1,103.21,225.22Z"/><circle class="cls-21" cx="105.93" cy="200.23" r="35.38" transform="translate(-101 292.39) rotate(-86.13)"/><circle class="cls-22" cx="105.93" cy="200.23" r="31.96" transform="translate(-101 292.39) rotate(-86.13)"/><path class="cls-17" d="M123.06,179.63l-8.19-.55-6.77,12.28q-1,1.81-1.68,3.16c-1.2-3.37-3.15-8.52-5.9-15.57l-.34-.86-8.46-.57,8.35,20-7-.48-.49,7.16,9.28.63-.2,3-9.28-.63-.49,7.22,9.28.63-.58,8.56,7.5.51.58-8.56,8.95.61.49-7.22-8.95-.61.2-3,8.95.61.49-7.16-6.77-.46Z"/><path class="cls-23" d="M123,180.65l-8.19-.55L108,192.38q-1,1.81-1.68,3.16c-1.2-3.37-3.15-8.52-5.9-15.57l-.34-.86-8.46-.57,8.35,20L93,198l-.49,7.16,9.28.63-.2,3-9.28-.63-.49,7.22,9.28.63-.58,8.56,7.5.51.58-8.56,8.95.61.49-7.22-8.95-.61.2-3,8.95.61.49-7.16-6.77-.46Z"/></g></g></svg>