<?xml version="1.0" encoding="utf-8"?>
<!-- Generator: Adobe Illustrator 19.0.0, SVG Export Plug-In . SVG Version: 6.00 Build 0)  -->
<svg version="1.1" id="图层_1" xmlns="http://www.w3.org/2000/svg" xmlns:xlink="http://www.w3.org/1999/xlink" x="0px" y="0px"
	 viewBox="-393 194.1 172.9 172.9" style="enable-background:new -393 194.1 172.9 172.9;" xml:space="preserve">
<style type="text/css">
	.st0{fill:#1FD305;stroke:#30A138;stroke-miterlimit:10;}
</style>
<path class="st0" d="M-264.7,280.6c-5.8,0-10.5-4.7-10.5-10.5c0-5.8,4.7-10.5,10.5-10.5c5.8,0,10.5,4.7,10.5,10.5
	C-254.2,275.9-258.9,280.6-264.7,280.6L-264.7,280.6L-264.7,280.6z M-306.5,280.6c-5.8,0-10.5-4.7-10.5-10.5
	c0-5.8,4.7-10.5,10.5-10.5c5.8,0,10.5,4.7,10.5,10.5C-296.1,275.9-300.8,280.6-306.5,280.6L-306.5,280.6L-306.5,280.6z
	 M-348.4,280.6c-5.8,0-10.5-4.7-10.5-10.5c0-5.8,4.7-10.5,10.5-10.5c5.8,0,10.5,4.7,10.5,10.5C-337.9,275.9-342.6,280.6-348.4,280.6
	L-348.4,280.6L-348.4,280.6z M-306.5,196.9c-46.2,0-83.7,32.8-83.7,73.2c0,23.1,12.3,43.7,31.4,57.1v37l36.7-22.2
	c5.1,0.8,10.3,1.3,15.6,1.3c46.2,0,83.7-32.8,83.7-73.2C-222.9,229.7-260.3,196.9-306.5,196.9L-306.5,196.9L-306.5,196.9z"/>
</svg>
