<?xml version="1.0" encoding="utf-8"?>
<!-- Generator: Adobe Illustrator 17.0.0, SVG Export Plug-In . SVG Version: 6.00 Build 0)  -->
<!DOCTYPE svg PUBLIC "-//W3C//DTD SVG 1.1//EN" "http://www.w3.org/Graphics/SVG/1.1/DTD/svg11.dtd">
<svg version="1.1" id="图层_1" xmlns="http://www.w3.org/2000/svg" xmlns:xlink="http://www.w3.org/1999/xlink" x="0px" y="0px"
	 width="612px" height="792px" viewBox="0 0 612 792" enable-background="new 0 0 612 792" xml:space="preserve">
<circle fill="#FFFFFF" cx="302" cy="389" r="230.5"/>
<path fill="#F74E47" d="M306,658.969C160.77,658.969,43.031,541.23,43.031,396S160.77,133.031,306,133.031
	S568.969,250.77,568.969,396S451.23,658.969,306,658.969z M306,570.217c78.891,0,144.573-69.029,144.573-147.92
	c0-9.861,0-19.723-3.287-29.584c0,0-26.297-91.979-118.396-65.802c0,0,0,3.287-3.287,3.287c39.386,6.574,72.316,46.02,72.316,91.979
	c0,52.594-39.386,95.326-91.979,95.326c-49.307,0-91.979-42.732-91.979-95.326c0-19.723,6.574-36.158,16.436-52.594
	c32.871-49.307,78.891-72.316,118.396-88.752c32.871-13.208,65.802-13.208,75.604-16.436c3.287-49.307-42.732-42.732-52.594-42.732
	c-131.484,36.158-190.652,6.574-203.801,3.287c6.514,49.366,62.395,65.862,62.395,65.862c-3.287,6.574-3.287,6.574-13.208,16.436
	c-32.871,26.297-55.881,65.802-55.881,115.049C161.427,504.475,227.109,570.217,306,570.217z M348.732,422.297L306,376.277
	l-42.732,46.02L306,468.316L348.732,422.297z"/>
</svg>
