<?xml version="1.0" encoding="utf-8"?>
<!-- Generator: Adobe Illustrator 17.0.0, SVG Export Plug-In . SVG Version: 6.00 Build 0)  -->
<!DOCTYPE svg PUBLIC "-//W3C//DTD SVG 1.1//EN" "http://www.w3.org/Graphics/SVG/1.1/DTD/svg11.dtd">
<svg version="1.1" id="图层_1" xmlns="http://www.w3.org/2000/svg" xmlns:xlink="http://www.w3.org/1999/xlink" x="0px" y="0px"
	 width="612px" height="792px" viewBox="0 0 612 792" enable-background="new 0 0 612 792" xml:space="preserve">
<rect x="75.5" y="168.5" fill="#FFFFFF" width="457" height="438"/>
<g>
	<polygon fill="#C81522" points="265.658,278.561 137.999,278.561 137.999,296.729 265.658,296.729 	"/>
	<path fill="#C81522" d="M518.885,133.031H93.115c-27.671,0-50.084,22.412-50.084,50.084v425.77
		c0,27.671,22.412,50.084,50.084,50.084h425.77c27.671,0,50.084-22.412,50.084-50.084v-425.77
		C568.969,155.443,546.557,133.031,518.885,133.031z M313.172,238.338h40.82l5.319-11.415h27.074l-5.259,11.415h125.209v15.001
		H374.193l-19.962,43.39h43.928v-32.273h26.895v32.273H499.7v15.001h-74.587v40.88c0,12.79-3.586,22.352-10.758,28.628
		c-7.172,6.216-18.468,9.563-33.947,10.041v-14.344c5.977-0.06,10.399-1.434,13.388-4.004c2.929-2.57,4.423-6.395,4.423-15.3v-45.96
		h-78.413l27.253-58.331h-33.887V238.338z M369.77,321.652c0,0-8.546,40.641-41.238,69.149h-15.36
		c11.355-16.197,23.428-40.402,27.074-69.149L369.77,321.652L369.77,321.652z M112.18,311.671v-47.992h179.297v47.872l0,0v0.12
		h-76.261v40.7c0,12.79-3.586,22.293-10.698,28.508c-7.172,6.216-18.468,9.563-33.827,10.041v-14.284
		c5.917-0.12,10.399-1.434,13.328-4.004c2.929-2.57,4.363-6.753,4.363-15.18V311.73H112.18V311.671z M132.56,321.532h29.405
		c0,0-8.487,40.521-41.119,68.91h-15.3C116.961,374.305,128.974,350.22,132.56,321.532z M297.155,563.105
		c-41.418-5.618-74.05-12.909-97.896-21.874c-24.444,8.905-55.343,16.436-92.816,22.591V549
		c29.524-4.721,53.61-10.818,72.376-18.348c-17.631-10.818-33.768-25.4-48.53-43.689h33.23
		c11.893,13.148,24.384,23.966,37.473,32.453c16.436-9.383,30.899-23.01,43.39-40.88H119.232v-15.539h68.133v-24.683h-81.7v-15.539
		h81.7v-21.157h28.927v21.157h80.863v15.539h-80.863v24.683h61.32v15.539c-15.898,22.532-34.365,39.744-55.343,51.458
		c19.842,8.905,44.824,15.061,74.886,18.348V563.105z M282.751,390.442c-32.632-28.389-41.119-68.91-41.119-68.91h29.405
		c3.586,28.688,15.659,52.773,26.954,68.91H282.751z M298.051,253.519H105.666v-14.941h82.716v-11.296h26.954v11.296h82.716V253.519
		z M361.881,564.479h-25.819V460.905c-6.634,3.347-14.404,6.216-23.309,8.546v-12.85c19.962-10.459,32.752-29.285,38.31-56.419l0,0
		h27.492c-3.885,16.196-9.443,29.285-16.675,39.326L361.881,564.479L361.881,564.479z M403.538,508.061
		c-2.211-14.762-7.232-29.763-15.001-45.004h23.309c8.307,14.284,13.866,29.285,16.675,45.004H403.538z M505.916,443.753h-23.667
		c0,29.943-0.06,65.862,0.06,75.424c0.299,41.896-24.384,45.9-43.45,45.9v-7.112c13.328-3.586,15.718-12.252,15.718-32.513v-81.7
		h-79.369v-15.718h79.369v-28.03l0,0h27.731c0,0,0,11.774-0.06,28.03h9.981h13.686L505.916,443.753L505.916,443.753z M491.034,390.8
		c-32.752-28.508-41.298-69.149-41.298-69.149h29.584c3.586,28.807,15.718,53.012,27.014,69.149H491.034z"/>
</g>
</svg>
