<?xml version="1.0" encoding="utf-8"?>
<!-- Generator: Adobe Illustrator 19.0.0, SVG Export Plug-In . SVG Version: 6.00 Build 0)  -->
<svg version="1.1" id="Layer_1" xmlns="http://www.w3.org/2000/svg" xmlns:xlink="http://www.w3.org/1999/xlink" x="0px" y="0px"
	 width="354px" height="124px" viewBox="0 0 354 124" style="enable-background:new 0 0 354 124;" xml:space="preserve">
<style type="text/css">
	.st0{fill:#FEDC00;}
	.st1{fill:#1D907E;}
	.st2{fill:url(#XMLID_87_);}
</style>
<g id="XMLID_2_">
	<path id="XMLID_18_" class="st0" d="M341.7,122.5c-0.4,0-0.8,0-1.1,0c-5.4-0.3-31.9-4.3-44.8-10.4h-0.1c-7.3,0-20-1.4-45.3-4.3
		c-9.1-1-19.7-2.2-32.2-3.6c-14.6-1.6-30.1-2.4-46-2.4c-41.5,0-76.8,5.4-97.9,8.7c-4.6,0.7-8.6,1.3-11.6,1.7
		c-8.3,7.4-43,8.9-49.5,8.9c-0.7,0-1.2,0-1.7,0c-4.3-0.2-9.1-1.9-9.8-4.9c-0.6-2.6,1.9-5.5,7.5-8.7C23,99.5,29.6,72.6,29.7,63.7
		c0.1-4.6-5.4-10.8-10.6-16.8c-4.4-5-8.9-10.2-10.3-14.6c-0.4-1.2-0.2-2.3,0.5-3.4c2.8-4.6,14.8-7.3,24.4-8.8c0-0.3,0.1-0.5,0.1-0.7
		C36.3,9.2,78.5,6.3,119.3,3.6c6.8-0.5,13.2-0.9,19.4-1.4c6.1-0.5,13.8-0.7,22.7-0.7c48.5,0,124,6.8,138.2,9.1
		c9.2,1.5,14.6,3.9,16.4,7.5c0.6-0.1,1.3-0.1,1.9-0.1c0.5,0,1,0,1.5,0.1c1.2,0.2,28.5,5.6,32.5,13.2c0.6,1.2,0.7,2.4,0.2,3.5
		c-1.8,4.2-6.9,8.8-11.8,13.4c-5.9,5.4-12,11-12.4,15.6c-0.8,8.9,3.1,36.3,16.3,45.5c5.2,3.7,7.5,6.8,6.7,9.3
		C350,121.5,345.4,122.5,341.7,122.5z"/>
	<path id="XMLID_15_" class="st1" d="M161.4,2c49,0,124.8,7,138.1,9.1c11.3,1.8,15,4.8,16.2,7.6c0.7-0.1,1.5-0.2,2.2-0.2
		c0.5,0,0.9,0,1.4,0.1c0,0,36.2,7,32.3,16c-3.9,9-23.5,20.4-24.2,29.1c-0.8,8.7,3.1,36.6,16.5,46c12.7,8.9,4.4,12.3-2.3,12.3
		c-0.4,0-0.7,0-1.1,0c-5.3-0.3-32-4.3-44.7-10.4c-0.1,0-0.1,0-0.2,0c-10,0-30.6-2.8-77.5-7.9c-15.8-1.7-31.3-2.4-46.1-2.4
		c-51.2,0-93.7,8.4-109.7,10.4c-7.5,6.9-39.9,8.9-49.3,8.9c-0.7,0-1.2,0-1.6,0c-6.7-0.3-16.2-4.7-2.1-12.6
		c14.1-8,20.7-35.4,20.9-44.2c0.1-8.7-17.9-22.1-20.9-31.5c-2-6.4,14.3-10,24.9-11.6c0-0.4,0.1-0.8,0.2-1.1
		C37.1,8,95.7,5.9,138.8,2.7C145.2,2.2,152.9,2,161.4,2 M161.4,1c-8.9,0-16.6,0.2-22.7,0.7c-6.2,0.5-12.6,0.9-19.4,1.4
		c-19.9,1.3-40.4,2.7-56.5,5c-19.2,2.7-28.2,6.2-29.4,11.2c0,0.1-0.1,0.3-0.1,0.4c-9.7,1.5-21.5,4.3-24.4,8.9
		c-0.8,1.2-0.9,2.5-0.5,3.8c1.4,4.4,5.8,9.4,10.4,14.7c5.2,5.9,10.5,12.1,10.5,16.5C29.1,73.3,22,99.6,8.8,107
		c-5.8,3.3-8.4,6.4-7.7,9.2c0.8,3.3,5.9,5,10.3,5.2c0.4,0,1,0,1.7,0c6.5,0,41.1-1.6,49.7-8.9c3-0.4,7-1,11.5-1.7
		c21.1-3.2,56.3-8.7,97.8-8.7c15.9,0,31.3,0.8,45.9,2.4c12.5,1.4,23,2.6,32.2,3.6c25.3,2.9,38,4.3,45.4,4.3
		c13,6.1,39.5,10.1,44.9,10.4c0.4,0,0.8,0,1.2,0c3.9,0,8.7-1.1,9.7-4.3c0.9-2.7-1.4-6.1-6.9-9.9c-12.4-8.7-16.9-35.5-16.1-45.1
		c0.4-4.4,6.4-9.9,12.2-15.3c5.2-4.8,10.1-9.3,11.9-13.5c0.6-1.3,0.5-2.6-0.2-4c-4.1-7.8-31.7-13.2-32.8-13.4l0,0l0,0
		c-0.5-0.1-1-0.1-1.5-0.1c-0.5,0-1.1,0-1.6,0.1c-2-3.6-7.5-6-16.6-7.5C285.6,7.8,210,1,161.4,1L161.4,1z"/>
</g>
<linearGradient id="XMLID_87_" gradientUnits="userSpaceOnUse" x1="-242.7134" y1="596.6763" x2="-240.6358" y2="596.8946" gradientTransform="matrix(135.1682 0 0 -52.3296 32854.7617 31287.8047)">
	<stop  offset="0" style="stop-color:#FABD00"/>
	<stop  offset="0.52" style="stop-color:#FBDD03"/>
	<stop  offset="1" style="stop-color:#FABD00"/>
</linearGradient>
<path id="XMLID_1_" class="st2" d="M34.4,19.5c-2.7,11.5,10.8,92.6,23,92.5c12.1-0.1,82.8-17,160.8-8.4s83.4,10.5,87.7,4.2
	c4.3-6.3,10.4-83,10.4-86.2s-1.1-8-16.7-10.5C284,8.6,182.2-0.6,138.8,2.7C95.7,5.9,37.1,8,34.4,19.5z"/>
</svg>
