<svg xmlns="http://www.w3.org/2000/svg" viewBox="0 0 863.97 880"><defs><style>.cls-1{fill:#6eb3ef;}.cls-2{fill:#3b72a2;}.cls-3{fill:#f3f61d;}.cls-4{fill:#ea5514;}.cls-5{fill:#fff;}</style></defs><title>ahk3</title><g id="图层_2" data-name="图层 2"><g id="图层_1-2" data-name="图层 1"><path class="cls-1" d="M523.94,869.82C757,818.09,904.76,583.72,854,346.34S573.09-41.55,340,10.18-40.79,296.28,10,533.66,290.88,921.55,523.94,869.82Z"/><ellipse class="cls-2" cx="401.62" cy="423.18" rx="365.04" ry="376.96"/><ellipse class="cls-1" cx="377.63" cy="400.3" rx="325.75" ry="336.39"/><polygon class="cls-2" points="435.09 125.34 165.11 217.65 150.39 381.11 150.39 469.46 185.73 593.16 268.2 641.76 383.06 668.26 400.22 682.53 500.87 662.37 642.24 526.89 676.11 419.19 667.27 255.94 685.89 225.52 646.65 210.28 435.09 125.34"/><path class="cls-3" d="M683.14,213.59l2.6-1.31-2.54,1.5ZM161.51,228.22,396.22,374.5l9.13,329.23,8-330.14L683.2,213.78c26.67,91.79,17.52,329.74,13.53,341.85-12.35,37.43-222.95,142.84-277.36,157-64.3,16.69-278-101.82-279-108.13-8.08-54.61-7.38-358,1.47-392.29,85.79-28.48,198.58-66.27,284.37-94.75,80.19,13.21,229.27,66.13,256.37,94.39.18.58.35,1.17.52,1.77L402.62,354.81ZM621,528.93h0c16.13-33.17,18.9-63.35,2.14-89.18-15-18.42-40.16-15-68.1-5.51l75.07-137.63L491.23,354.42c-22.17,7.84-30.74,27-30,53.95,4.47,4.59,65.77-25,98.66-37.43l-43.43,77.62v19.82c27.17-5.14,64.67,17.38,51.44,64.17-21.26,39.76-65.34,82.12-111,130.72C551.46,617.47,607.77,556.18,621,528.93Zm-272.39,130c21.89-17.12.93-117.25-36.46-106.25C294.8,577,324.47,664.21,348.6,658.94Zm-104-158c8.22,3.67,21.26,2.95,24.66,11-7.68,33.76-17.51,94.5-10.18,114.51,17.51-19.27,34-69.92,36.46-103.49h0c13.61-7.58,52.38,23,79.91,24.72,3.39-17,3.57-27.2-1.59-31.69-13.82-10.62-32.73-9.43-30.23-19.5,2.38-18,10.38-45,7.15-53.91Q338.4,431,313.21,421.66c5.26-11.84,9.87-26.12,6-42.08-13.1-14.1-43.91-19.42-50.15-13.93-1.1,8.58,12.43,13,18,14.47,5,2.69,1,23.69-1.8,29.42-6.26,3.93-21.57-14.41-28.9-9.1-3.64,21.54,10.06,29.92,24.35,34.7,3.78-.3,3.48,39.68-1.74,37.16-3.88,2.36-26.14-16-33.91-12.12C237.42,464.52,241.54,488.33,244.58,500.94ZM163.07,431c3.22,8.44,5.37,25.39,9.66,25.32,7-3.4,5-13.94,7.51-20.92,5.81-.27,19.91,2.21,21.71,8.53-8.13,27.73-16.68,72.17-8.85,87.81,8.58,12.9,22.27,13.45,38.7,13.17h0c8,1.46-7.74-67.67,2.06-96.56,6.63-5,30.64,13.28,34.32,4.67,7.74-8.5-4.86-17.85-31.37-27.81-.09-30.92,14.72-68.66,23.87-101-19.8,1.62-37.76,36.17-54.7,89.19l-14.14-6.53c21-53.77,9.59-76.78-22.36-77.69-3.52.79-3.6,41.61-1.3,68.25C151.18,394.22,141.26,416.43,163.07,431ZM386.61,180.68c-98.52-9.29-140.48,64.13-49,73.16L351,234.23c-34.08-10-16.08-32.05,18.09-27.18l17.56-26.37h0ZM417,145.85,343.88,254.42h17.63l64.2-94.89H459.6l9-12.43L417,145.85Zm13.4,17.83L358.05,271h17.63l63.44-93.64H473l12.72-13.68H430.42Zm20.12,89.85c104,11.26,137.24-52.27,48.48-73H443.84L370.79,287.7h56.77Zm14.34-21.06,17.85-26C524.39,207.72,500.34,238,464.88,232.47ZM325.28,455.79c.09,11.15,1.06,32.24-5.81,35.24-6.94,0-12.42-2-14.64-8.26-1.62-4.7.76-18.93,4.19-32.55C311.58,447.37,316,445.14,325.28,455.79Zm-13.53-30.92h0Z"/><path class="cls-4" d="M524,869.82c117.13-26,212.68-98.14,272.34-193.6H67.6C162.05,827.38,342.13,910.19,524,869.82Z"/><path class="cls-5" d="M374.94,741.93l.35-4.73h32.78l-.28,4.73h13.28v13.49H407l-1.62,27.34-16.81,15.33,23.52,31h-41l-20.48-30-24.51,30h-41.4l28-32.07-15-15.61,3.39-26H284.87V741.94H303l.57-4.73h32.56l-.56,4.73h39.42Zm-37.51-30.66,2.33-5.51h38.79l-2.4,5.51h45.49L418,734.45H387l2.4-9.68H321.89l-3.61,9.68H285.23l9.11-23.17Zm36.66,44.15H333.9l-2.26,18.37,19.22,21.26,22-21.26Z"/><path class="cls-5" d="M443.64,736.85v-23l32.78-9.25V727Zm6.43,26.63-6.43,2V742.22l32.78-10.31-4.73,97.34H446.82ZM495,788.7l-8.9,40.55h-14l9.19-40.55Zm15.47-23.53-8.12,10.1h13.78l-1.41-6.57h15l3.18,17.17H516.61l-3.32,43.38H492.38l3.53-43.38H477.26v-8l9.82-12.72h-9.46v-6.36l9-10h-9V737.2h54.61v11.58H510.46l-4.59,5.79h26.21v10.6H510.46Zm20.77-41.32,7.27-18.08h22l-3.53,8.9h23.38v13.49H531l-.28,5.79H478.11l2.54-25.29h14.13l-1.27,13.7H497l1.2-16.6h16.25l-1.06,16.6H517l.84-13.7H532Zm.28,98.33,6.5-60.12L532.29,731h18.16l4.24,27.48L561.4,731h18.22l-8,31.58,7.91,66.68H559.77l-5.37-58.49-5.3,58.49H519L517.6,788.7h12.29Z"/></g></g></svg>