<svg xmlns="http://www.w3.org/2000/svg" viewBox="0 0 595.22 606.28"><defs><style>.cls-1{fill:#028b69;}.cls-2{fill:#06b187;}.cls-3{fill:#d5df35;}.cls-4{fill:#e8670f;}.cls-5{fill:#fff;}</style></defs><title>资源 1</title><g id="图层_2" data-name="图层 2"><g id="图层_1-2" data-name="图层 1"><path class="cls-1" d="M361,599.28c160.5-35.6,262.29-197.09,227.39-360.69S394.77-28.6,234.28,7-28.11,204.09,6.89,367.69,200.38,634.88,361,599.28Z"/><ellipse class="cls-2" cx="276.68" cy="291.49" rx="251.49" ry="259.79"/><ellipse class="cls-1" cx="260.18" cy="275.79" rx="224.39" ry="231.79"/><polygon class="cls-1" points="297.58 91.1 109.69 160.19 97.39 318.39 172.18 449.58 277.58 487.78 377.78 437.38 456.27 367.09 456.27 181.69 471.47 159.69 427.88 139.79 297.58 91.1"/><path class="cls-3" d="M469.07,150.09l1.8-.9-1.8,1Zm-359.39,10.1L271.38,261l6.3,226.79,5.5-227.49,185.89-110.1c18.4,63.2,12,227.19,9.3,235.49-8.5,25.8-153.6,98.4-191.09,108.2-44.3,11.5-191.49-70.2-192.09-74.5-5.5-37.6-5.1-246.69,1-270.29,59.1-19.6,136.8-45.7,195.89-65.3,55.3,9.1,158,45.6,176.59,65a5.22,5.22,0,0,1,.3,1.2l-193.29,97.4ZM426.17,367.39h0c11.1-22.9,13.1-43.6,1.5-61.4-10.4-12.7-27.7-10.4-46.9-3.8l51.7-94.8-95.7,39.8c-15.3,5.4-21.2,18.6-20.7,37.1,3,3.2,45.3-17.2,68-25.8L354.18,312v13.7c18.7-3.5,44.6,12,35.4,44.2-14.7,27.4-45,56.6-76.4,90C378.28,428.39,417.07,386.19,426.17,367.39ZM238.48,457c15.1-11.8.6-80.8-25.1-73.2C201.38,400.49,221.88,460.58,238.48,457Zm-71.6-108.9c5.7,2.5,14.7,2,17,7.6-5.3,23.3-12,65.1-7,78.9,12-13.3,23.4-48.2,25.1-71.3h0c9.4-5.2,36.1,15.8,55.1,17,2.4-11.7,2.4-18.7-1.1-21.9-9.5-7.3-22.5-6.5-20.8-13.5,1.6-12.4,7.2-31,4.9-37.1q-8.55-7.95-25.8-14.4c3.7-8.2,6.8-18,4.2-29-9-9.7-30.2-13.4-34.6-9.6-.7,5.9,8.6,8.9,12.4,9.9,3.4,1.8.7,16.3-1.2,20.3-4.3,2.7-14.9-9.9-19.9-6.3-2.5,14.8,6.9,20.6,16.8,23.9,2.6-.2,2.4,27.3-1.2,25.6-2.7,1.6-18-11-23.3-8.3C161.88,323,164.78,339.39,166.88,348.09Zm-56.2-48.2c2.2,5.8,3.7,17.5,6.6,17.5,4.9-2.4,3.4-9.6,5.1-14.4,4-.2,13.7,1.5,14.9,5.9-5.6,19.1-11.5,49.7-6.1,60.5,5.9,8.9,15.4,9.3,26.7,9.1h0c5.5,1-5.3-46.6,1.4-66.6,4.5-3.5,21.1,9.1,23.7,3.2,5.3-5.9-3.4-12.3-21.6-19.1-.1-21.3,10.1-47.3,16.4-69.6-13.7,1.1-26,24.9-37.7,61.4l-9.7-4.5c14.4-37.1,6.6-52.9-15.4-53.5-2.4.5-2.5,28.7-.9,47C102.59,274.59,95.69,289.89,110.69,299.89Zm154-172.49c-67.8-6.4-96.7,44.2-33.8,50.5l9.2-13.5c-23.5-6.8-11.1-22.1,12.4-18.7l12.2-18.3Zm21-23.9-50.4,74.8h12.2l44.2-65.4H315l8.8-9.4h-38.1Zm9.2,12.2L245,189.59h12.2l43.7-64.5h23.3l8.8-9.4Zm13.9,61.9c71.6,7.8,94.6-36,33.4-50.3h-38l-50.3,73.8h39Zm9.9-14.5,12.3-17.9C359.68,146.09,343.08,166.89,318.68,163.09ZM222.48,317c.1,7.7.7,22.2-4,24.3-4.8,0-8.5-1.4-10.1-5.7-1.1-3.2.5-13.1,2.9-22.5C213,311.19,216.08,309.69,222.48,317Zm-9.3-21.3Z"/><path class="cls-4" d="M361,599.28c80.7-17.9,146.6-67.6,187.59-133.4h-502C111.69,570,235.68,627.08,361,599.28Z"/><path id="十分" class="cls-5" d="M367.41,522.39v43.88a2.26,2.26,0,0,1-1.91,2.55,3.1,3.1,0,0,1-.64,0H343.05v8.37h48.24a5.89,5.89,0,0,0,6.84-4.76,6.12,6.12,0,0,0,0-2.07V514H299.64v8.37H311.9l-6.18,44.14a2.37,2.37,0,0,1-2.43,2.31.55.55,0,0,1-.19,0h-4.2v8.37h29.76a6,6,0,0,0,7-5,5.94,5.94,0,0,0,.07-1.3l6.84-48.57,24.85,0Zm16.08-38.22H356.68l14.5,26.69h28.46ZM328.1,510.86l15.07-26.69H315l-16.29,26.69Z"/><path class="cls-5" d="M196.54,484h96.33v7.8H241.42l-3,25.47h46v52.17h8.93v7.8H195.92v-7.8h12.22l5.13-44.37H198.8v-7.8h15.3l3-25.47H196.54Zm41.18,41.08-5.14,44.37h27.52V525.11Z"/></g></g></svg>