<?xml version="1.0" encoding="utf-8"?>
<!-- Generator: Adobe Illustrator 22.0.0, SVG Export Plug-In . SVG Version: 6.00 Build 0)  -->
<svg version="1.1" id="图层_1" xmlns="http://www.w3.org/2000/svg" xmlns:xlink="http://www.w3.org/1999/xlink" x="0px" y="0px"
	 viewBox="0 0 880 896.2" style="enable-background:new 0 0 880 896.2;" xml:space="preserve">
<style type="text/css">
	.st0{fill:#FFC200;}
	.st1{fill:#846414;}
	.st2{fill:#FFFFFF;}
	.st3{fill:#F3FF00;}
</style>
<path class="st0" d="M533.7,886C771,833.3,921.5,594.6,869.8,352.8S583.7-42.3,346.3,10.4S-41.5,301.8,10.2,543.6
	S296.3,938.6,533.7,886z"/>
<ellipse class="st1" cx="409.1" cy="431" rx="371.8" ry="384"/>
<ellipse class="st0" cx="384.6" cy="407.7" rx="331.8" ry="342.6"/>
<g>
	<g>
		<g>
			<path class="st1" d="M575.5,488.3c-22.9,0-44.2-5.9-62.9-16.1v-16.1c16.1,7.7,33.2,13.6,33.2,13.6l6.8-20.4l-39.1-19.6v-74.8
				c0,36.5,29.7,65.5,65.5,65.5c36.5,0,65.5-29.7,65.5-65.5s-29.7-65.5-65.5-65.5c-36.5,0-65.5,29.7-65.5,65.5v-72.3l39.1-20.4
				l-6.8-21.3c0,0-16.1,5.9-32.3,14.5v-12.8c18.7-10.2,40-16.1,62.9-16.1c72.3,0,131.7,58.7,131.7,131.7S648.5,488.3,575.5,488.3z
				 M605.2,235.1l-9.4,19.6l48.4,34l14.5-14.5C645.2,256.3,605.2,235.1,605.2,235.1z M644.3,420.3l-48.4,34l8.5,18.7
				c21.3-5.9,54.4-37.4,54.4-37.4L644.3,420.3z M670.7,323.5l-5.1,59.4l19.6,5.1c9.4-20.4,6.8-65.5,6.8-65.5L670.7,323.5z
				 M575.5,308.1l24.6,19.6c0,0,28.9,12.8,19.6,39.1c0,0-11.9,22.2-39.1,5.1c0,0,4.2,15.3,19.6,14.5v9.4h-48.4v-9.4
				c0,0,19.6,1.7,19.6-14.5c0,0-26.4,20.4-39.1-5.1c0,0-5.1-17.8,9.4-34C541.4,332.8,566.9,313.2,575.5,308.1z M434.3,308.1h-44.2
				v-24.6c0,0,33.2-10.2,58.7-62.9H493v262.6h-58.7V308.1L434.3,308.1z M414.9,386.4c0,0,1.7,102-96.9,102c0,0-92.6-2.6-92.6-96.9
				c0,0,1.7-49.3,39.1-92.6l58.7-78.2h73l-62.9,82.4C332.4,303.1,414.9,312.4,414.9,386.4z M317.9,371
				c-1.7-22.2-28.9-14.5-28.9-14.5c-26.4,7.7-24.6,28.9-24.6,28.9c6.8,37.4,53.5,58.7,53.5,58.7h5.1l44.2-39.1
				c18.7-38.3-9.4-48.4-9.4-48.4C327.3,347.3,317.9,371,317.9,371z M94.4,483.2L182,274.1H84.2l24.6-53.5h155.5L157.3,483.2H94.4z"
				/>
		</g>
	</g>
	<ellipse class="st1" cx="312.3" cy="374.8" rx="74.1" ry="79.2"/>
	<path class="st1" d="M576.5,227.2c-24.8,0-47.9,7.5-67.1,20.2v203.1c19.3,12.7,42.3,20.2,67.1,20.2c67.2,0,121.7-54.6,121.7-121.7
		S643.8,227.2,576.5,227.2z"/>
	<g>
		<path class="st2" d="M572.3,481.9c-22.9,0-44.2-5.9-62.9-16.1v-16.1c16.1,7.7,33.2,13.6,33.2,13.6l6.8-20.4l-39.1-19.5v-74.8
			c0,36.5,29.7,65.5,65.5,65.5c36.5,0,65.5-29.7,65.5-65.5s-29.8-65.5-65.5-65.5c-36.5,0-65.5,29.7-65.5,65.5v-72.3l39.1-20.4
			l-6.8-21.3c0,0-16.1,5.9-32.3,14.5v-12.8c18.7-10.2,40-16.1,62.9-16.1c72.3,0,131.7,58.7,131.7,131.7S645.4,481.9,572.3,481.9z
			 M602,228.6l-9.4,19.6l48.4,34l14.5-14.5C642,249.9,602,228.6,602,228.6z M641.2,414l-48.4,34l8.5,18.7
			c21.3-5.9,54.4-37.4,54.4-37.4L641.2,414z M667.5,317l-5.1,59.4l19.6,5.1c9.4-20.4,6.8-65.5,6.8-65.5L667.5,317z M572.3,301.8
			l24.6,19.6c0,0,28.9,12.8,19.6,39.1c0,0-11.9,22.2-39.1,5.1c0,0,4.2,15.3,19.6,14.5v9.4h-48.4v-9.5c0,0,19.6,1.7,19.6-14.5
			c0,0-26.4,20.4-39.1-5.1c0,0-5.1-17.8,9.4-34C538.3,326.4,563.8,306.9,572.3,301.8z M431.2,301.8H387v-24.6
			c0,0,33.2-10.2,58.7-62.9h44.2v262.6h-58.7V301.8L431.2,301.8z M411.6,379.9c0,0,1.7,102-96.9,102c0,0-92.6-2.6-92.6-96.9
			c0,0,1.7-49.3,39.1-92.6l58.7-78.2H393l-62.9,82.5C329.3,296.6,411.6,306,411.6,379.9z M314.8,364.7
			c-1.7-22.2-28.9-14.5-28.9-14.5c-26.4,7.7-24.6,28.9-24.6,28.9c6.8,37.4,53.5,58.7,53.5,58.7h5.1l44.2-39.1
			c18.7-38.3-9.4-48.4-9.4-48.4C324.1,340.8,314.8,364.7,314.8,364.7z M91.2,476.9l87.5-209.1H81l24.6-53.5h155.5L154,476.9
			L91.2,476.9L91.2,476.9z"/>
	</g>
	<g>
		<path class="st1" d="M552.5,513.2v37.6h6.9v-41.6h22.8v41.6h4v19.8h-33.7v14.9h29.7v88.1h-22.8v-68.3h-6.9v1
			c1,34.6-8.9,58.3-30.7,71.3v-20.7c4-8.9,6.9-22.8,6.9-41.6V513.5h23.8V513.2z M125.2,533v-19.8h94.1c18.8,0,37.6-1.9,56.4-6.9
			v20.7c-17.7,4-34.6,6-51.4,6H125.2z M279.5,574.6h-29.7v-7.9h-97.9v7.9h-29.7v-26.7H142c0-1.9-1-4.9-3-9.8c0-1-1-1.9-1-1.9h26.8
			c0,1,1,1.9,1.9,4c1,1,1.9,4,4,6.9h18.8c0-3-1.9-6.9-4-11.9h26.7c0,1,1,1.9,1.9,4c1,1,1.9,4,4,6.9h14.9c0-1,1-1.9,1-4
			c1-1,1.9-4,4-8.9h29.7c-1.9,4.9-4,8.9-6.9,12.8h19.8v28.6h-1.3V574.6z M119.3,598.3v-18.8h43.5c1-3,1.9-6,3-8.9h32.6
			c0,3-1,6-3,8.9h88.1v18.8h-96.9c-1,3-1.9,4.9-4,6.9h87.1V623c-8.9,11.9-19.8,20.7-30.7,26.7c11.9,3,25.8,6,42.5,6.9v17.7
			c-29.7-3-53.4-6.9-71.3-12.8c-18.8,6-42.5,10.9-70.2,12.8v-17.7c16.8-1.9,31.6-4,41.6-6.9c-6.9-4.9-13.9-10.9-20.7-17.7
			c-11.9,9.8-25.8,18.8-43.5,25.8v-19.8c15.8-10.9,27.7-23.7,36.5-40.5L119.3,598.3L119.3,598.3z M195.4,628c4.9,4,9.8,6.9,15.8,9.8
			c6-3,11.9-7.9,19.8-14.9h-60.4c0,0-1,1-1.9,1.9c-1,1-1.9,1.9-1.9,3h28.6V628z M322.1,550.8v-20.7h12.8v-23.7h27.7v23.7h10.9v-11.9
			h9.8v-12.8H412v12.8h34.6v-12.8h28.6v12.8h9.8v20.7h-9.8v77.2h10.9v20.7H372.3v-20.7h1c-4-4.9-6.9-9.8-9.8-14.9v73.2h-27.7v-61.3
			c-4.9,11.9-9.8,20.7-14.9,26.7v-32.6c6.9-16.8,11.9-35.6,13.9-56.4C334.9,550.8,322.1,550.8,322.1,550.8z M413,617.1h33.7v-12.8
			H413V617.1L413,617.1z M413,584.5h33.7v-12.8H413V584.5L413,584.5z M413,551.8h33.7V539H413V551.8L413,551.8z M375.5,592.4v23.7
			h7.9V539h-8.9v11.9h-10.9C365.6,565.7,369.5,579.6,375.5,592.4z M395.3,641.9H423c-6.9,21.8-23.7,32.6-51.4,34.6v-17.7
			C382.3,657.7,390.4,651.7,395.3,641.9z M487.3,658.6v17.7c-27.7-1-45.5-12.8-51.4-34.6h27.7C468.5,651.7,476.4,657.7,487.3,658.6z
			 M595,611.2c6-3,10.9-6,14.9-9.8H591v-85.1h23.7c1-3,1.9-6,1.9-9.8h30.7c0,1.9-1,4-1.9,6.9c0,1.9-1,3-1,4h40.5v58.3
			c0,17.7-7.9,26.7-23.7,26.7h-22.8c-1,1-1.9,3-3,4h22.9V625H690v20.7h-31.6v29.7h-27.7v-29.7h-43.5V625h7.9V611.2L595,611.2z
			 M662.3,536.9h-11.9v12.8h11.9V536.9z M654.4,582.5c6,0,7.9-1.9,7.9-7.9v-6h-11.9c0,4.9,0,9.8-1,13.9L654.4,582.5L654.4,582.5z
			 M624.7,536.9h-11.9v12.8h11.9V536.9z M613.8,568.7v13.9h8.9c1-3,1-7.9,1-13.9H613.8z M630.7,625v-13.9c-6,4-13.9,8.9-23.7,13.9
			H630.7z"/>
	</g>
	<g>
		<path class="st3" d="M550,504.7v37.6h6.9v-41.6h22.8v41.6h4v19.8H550V577h29.7v88.1h-22.8v-68.3H550v1c1,34.6-8.9,58.3-30.7,71.3
			v-20.7c4-8.9,6.9-22.8,6.9-41.6V504.9H550V504.7z M122.6,524.5v-19.8h94.1c18.8,0,37.6-1.9,56.4-6.9v20.7c-17.7,4-34.6,6-51.4,6
			H122.6z M276.9,566h-29.7v-7.9h-97.9v7.9h-29.7v-26.7h19.8c0-1.9-1-4.9-3-9.8c0-1-1-1.9-1-1.9h26.8c0,1,1,1.9,1.9,4
			c1,1,1.9,4,4,6.9H187c0-3-1.9-6.9-4-11.9h26.7c0,1,1,1.9,1.9,4c1,1,1.9,4,4,6.9h14.9c0-1,1-1.9,1-4c1-1,1.9-4,4-8.9h29.7
			c-1.9,4.9-4,8.9-6.9,12.8h19.8v28.6h-1.3V566z M116.7,589.8V571h43.5c1-3,1.9-6,3-8.9h32.6c0,3-1,6-3,8.9H281v18.8h-96.9
			c-1,3-1.9,4.9-4,6.9h87.1v17.7c-8.9,11.9-19.8,20.7-30.7,26.7c11.9,3,25.8,6,42.5,6.9v17.7c-29.7-3-53.4-6.9-71.3-12.8
			c-18.8,6-42.5,10.9-70.2,12.8V648c16.8-1.9,31.6-4,41.6-6.9c-6.9-4.9-13.9-10.9-20.7-17.7c-11.9,9.8-25.8,18.8-43.5,25.8v-19.8
			c15.8-10.9,27.7-23.7,36.5-40.5L116.7,589.8L116.7,589.8z M192.8,619.5c4.9,4,9.8,6.9,15.8,9.8c6-3,11.9-7.9,19.8-14.9H168
			c0,0-1,1-1.9,1.9c-1,1-1.9,1.9-1.9,3h28.6V619.5z M319.5,542.2v-20.7h12.8v-23.7H360v23.7h10.9v-11.9h9.8v-12.8h28.6v12.8H444
			v-12.8h28.6v12.8h9.8v20.7h-9.8v77.2h10.9v20.7H369.8v-20.7h1c-4-4.9-6.9-9.8-9.8-14.9v73.2h-27.7v-61.3
			c-4.9,11.9-9.8,20.7-14.9,26.7v-32.6c6.9-16.8,11.9-35.6,13.9-56.4C332.3,542.2,319.5,542.2,319.5,542.2z M410.4,608.6h33.7v-12.8
			h-33.7V608.6L410.4,608.6z M410.4,575.9h33.7v-12.8h-33.7V575.9L410.4,575.9z M410.4,543.3h33.7v-12.8h-33.7V543.3L410.4,543.3z
			 M372.9,583.8v23.7h7.9v-77.2h-8.9v11.9h-10.9C363,557.1,366.9,570.9,372.9,583.8z M392.7,633.2h27.7
			c-6.9,21.8-23.7,32.6-51.4,34.6V650C379.7,649.1,387.8,643.2,392.7,633.2z M484.7,650v17.7c-27.7-1-45.5-12.8-51.4-34.6H461
			C465.9,643.2,473.8,649.1,484.7,650z M592.4,602.6c6-3,10.9-6,14.9-9.8h-18.9v-85.1h23.7c1-3,1.9-6,1.9-9.8h30.7
			c0,1.9-1,4-1.9,6.9c0,1.9-1,3-1,4h40.5V567c0,17.7-7.9,26.7-23.7,26.7h-22.8c-1,1-1.9,3-3,4h22.9v18.8h31.6v20.7h-31.6v29.7h-27.7
			v-29.7h-43.5v-20.7h7.9V602.6L592.4,602.6z M659.7,528.4h-11.9v12.8h11.9V528.4z M651.8,573.9c6,0,7.9-1.9,7.9-7.9v-6h-11.9
			c0,4.9,0,9.8-1,13.9L651.8,573.9L651.8,573.9z M622.1,528.4h-11.9v12.8h11.9V528.4z M611.2,560.1V574h8.9c1-3,1-7.9,1-13.9H611.2z
			 M628.1,616.5v-13.9c-6,4-13.9,8.9-23.7,13.9H628.1z"/>
	</g>
</g>
</svg>
