<?xml version="1.0" encoding="utf-8"?>
<!-- Generator: Adobe Illustrator 18.1.1, SVG Export Plug-In . SVG Version: 6.00 Build 0)  -->
<svg version="1.1" id="图层_1" xmlns="http://www.w3.org/2000/svg" xmlns:xlink="http://www.w3.org/1999/xlink" x="0px" y="0px"
	 viewBox="0 0 150 150" enable-background="new 0 0 150 150" xml:space="preserve">

<style type="text/css">
	path{fill:#c6ae6b;}
</style>
<g>
	<path fill="#fff" d="M96.9,85.4c-2.7,0-5.2-0.7-7.4-1.9v-1.9c1.9,0.9,3.9,1.6,3.9,1.6l0.8-2.4l-4.6-2.3v-8.8
		c0,4.3,3.5,7.7,7.7,7.7c4.3,0,7.7-3.5,7.7-7.7s-3.5-7.7-7.7-7.7c-4.3,0-7.7,3.5-7.7,7.7v-8.5l4.6-2.4l-0.8-2.5c0,0-1.9,0.7-3.8,1.7
		v-1.5c2.2-1.2,4.7-1.9,7.4-1.9c8.5,0,15.5,6.9,15.5,15.5S105.5,85.4,96.9,85.4z M100.4,55.6l-1.1,2.3l5.7,4l1.7-1.7
		C105.1,58.1,100.4,55.6,100.4,55.6z M105,77.4l-5.7,4l1,2.2c2.5-0.7,6.4-4.4,6.4-4.4L105,77.4z M108.1,66l-0.6,7l2.3,0.6
		c1.1-2.4,0.8-7.7,0.8-7.7L108.1,66z M96.9,64.2l2.9,2.3c0,0,3.4,1.5,2.3,4.6c0,0-1.4,2.6-4.6,0.6c0,0,0.5,1.8,2.3,1.7v1.1h-5.7
		v-1.1c0,0,2.3,0.2,2.3-1.7c0,0-3.1,2.4-4.6-0.6c0,0-0.6-2.1,1.1-4C92.9,67.1,95.9,64.8,96.9,64.2z M89.7,88.1v3.8h0.7v-4.2h2.3v4.2
		h0.4v2h-3.4v1.5h3v8.9h-2.3v-6.9h-0.7v0.1c0.1,3.5-0.9,5.9-3.1,7.2v-2.1c0.4-0.9,0.7-2.3,0.7-4.2V88.1L89.7,88.1L89.7,88.1z
		 M80.3,64.2h-5.2v-2.9c0,0,3.9-1.2,6.9-7.4h5.2v30.9h-6.9L80.3,64.2L80.3,64.2z M78,73.4c0,0,0.2,12-11.4,12
		c0,0-10.9-0.3-10.9-11.4c0,0,0.2-5.8,4.6-10.9l6.9-9.2h8.6l-7.4,9.7C68.3,63.6,78,64.7,78,73.4z M66.6,71.6
		c-0.2-2.6-3.4-1.7-3.4-1.7c-3.1,0.9-2.9,3.4-2.9,3.4c0.8,4.4,6.3,6.9,6.3,6.9h0.6l5.2-4.6c2.2-4.5-1.1-5.7-1.1-5.7
		C67.7,68.8,66.6,71.6,66.6,71.6z M40.3,84.8l10.3-24.6H39.1l2.9-6.3h18.3L47.7,84.8H40.3z M46.5,90.1v-2H56c1.9,0,3.8-0.2,5.7-0.7
		v2.1c-1.8,0.4-3.5,0.6-5.2,0.6H46.5z M62.1,94.3h-3v-0.8h-9.9v0.8h-3v-2.7h2c0-0.2-0.1-0.5-0.3-1c0-0.1-0.1-0.2-0.1-0.2h2.7
		c0,0.1,0.1,0.2,0.2,0.4c0.1,0.1,0.2,0.4,0.4,0.7H53c0-0.3-0.2-0.7-0.4-1.2h2.7c0,0.1,0.1,0.2,0.2,0.4c0.1,0.1,0.2,0.4,0.4,0.7h1.5
		c0-0.1,0.1-0.2,0.1-0.4c0.1-0.1,0.2-0.4,0.4-0.9h3c-0.2,0.5-0.4,0.9-0.7,1.3h2V94.3z M45.9,96.7v-1.9h4.4c0.1-0.3,0.2-0.6,0.3-0.9
		h3.3c0,0.3-0.1,0.6-0.3,0.9h8.9v1.9h-9.8c-0.1,0.3-0.2,0.5-0.4,0.7h8.8v1.8c-0.9,1.2-2,2.1-3.1,2.7c1.2,0.3,2.6,0.6,4.3,0.7v1.8
		c-3-0.3-5.4-0.7-7.2-1.3c-1.9,0.6-4.3,1.1-7.1,1.3v-1.8c1.7-0.2,3.2-0.4,4.2-0.7c-0.7-0.5-1.4-1.1-2.1-1.8c-1.2,1-2.6,1.9-4.4,2.6
		v-2c1.6-1.1,2.8-2.4,3.7-4.1L45.9,96.7L45.9,96.7z M53.6,99.7c0.5,0.4,1,0.7,1.6,1c0.6-0.3,1.2-0.8,2-1.5h-6.1c0,0-0.1,0.1-0.2,0.2
		c-0.1,0.1-0.2,0.2-0.2,0.3L53.6,99.7L53.6,99.7z M66.4,91.9v-2.1h1.3v-2.4h2.8v2.4h1.1v-1.2h1v-1.3h2.9v1.3H79v-1.3h2.9v1.3h1v2.1
		h-1v7.8H83v2.1H71.5v-2.1h0.1c-0.4-0.5-0.7-1-1-1.5v7.4h-2.8v-6.2c-0.5,1.2-1,2.1-1.5,2.7v-3.3c0.7-1.7,1.2-3.6,1.4-5.7H66.4z
		 M75.6,98.6H79v-1.3h-3.4L75.6,98.6L75.6,98.6z M75.6,95.3H79V94h-3.4L75.6,95.3L75.6,95.3z M75.6,92H79v-1.3h-3.4L75.6,92L75.6,92
		z M71.8,96.1v2.4h0.8v-7.8h-0.9v1.2h-1.1C70.8,93.4,71.2,94.8,71.8,96.1z M73.8,101.1h2.8c-0.7,2.2-2.4,3.3-5.2,3.5v-1.8
		C72.5,102.7,73.3,102.1,73.8,101.1z M83.1,102.8v1.8c-2.8-0.1-4.6-1.3-5.2-3.5h2.8C81.2,102.1,82,102.7,83.1,102.8z M94,98
		c0.6-0.3,1.1-0.6,1.5-1h-1.9v-8.6H96c0.1-0.3,0.2-0.6,0.2-1h3.1c0,0.2-0.1,0.4-0.2,0.7c0,0.2-0.1,0.3-0.1,0.4h4.1v5.9
		c0,1.8-0.8,2.7-2.4,2.7h-2.3c-0.1,0.1-0.2,0.3-0.3,0.4h2.3v1.9h3.2v2.1h-3.2v3h-2.8v-3h-4.4v-2.1H94L94,98L94,98z M100.8,90.5h-1.2
		v1.3h1.2V90.5z M100,95.1c0.6,0,0.8-0.2,0.8-0.8v-0.6h-1.2c0,0.5,0,1-0.1,1.4H100z M97,90.5h-1.2v1.3H97V90.5z M95.9,93.7v1.4h0.9
		c0.1-0.3,0.1-0.8,0.1-1.4H95.9z M97.6,99.4V98c-0.6,0.4-1.4,0.9-2.4,1.4H97.6z"/>
</g>
</svg>
