<?xml version="1.0" encoding="utf-8"?>
<!-- Generator: Adobe Illustrator 21.1.0, SVG Export Plug-In . SVG Version: 6.00 Build 0)  -->
<svg version="1.1" id="图层_1" xmlns="http://www.w3.org/2000/svg" xmlns:xlink="http://www.w3.org/1999/xlink" x="0px" y="0px"
	 viewBox="0 0 880 896.2" style="enable-background:new 0 0 880 896.2;" xml:space="preserve">
<style type="text/css">
	.st0{fill:#4AA751;}
	.st1{fill:#1F6A38;}
	.st2{fill:#387D3D;}
	.st3{opacity:0.75;}
	.st4{fill:#FFFFFF;}
	.st5{fill:#FFD60B;}
	.st6{fill:#FFDE3C;}
</style>
<path class="st0" d="M533.7,886C771,833.3,921.5,594.6,869.8,352.8S583.7-42.3,346.3,10.4S-41.5,301.8,10.2,543.6
	S296.3,938.6,533.7,886z"/>
<ellipse class="st1" cx="409.1" cy="431" rx="371.8" ry="384"/>
<ellipse class="st0" cx="384.6" cy="407.7" rx="331.8" ry="342.6"/>
<polygon class="st2" points="240.5,356.7 207.5,397.7 207.5,443.7 228.5,479.7 259.5,479.7 277.4,488.7 313.5,488.7 330,472.7 
	334.5,432.8 343.4,397.7 314.5,380.7 261.5,364.7 "/>
<g>
	<g class="st3">
		<path class="st1" d="M150.9,547.9h58.6l-5.6,13.8H162l-13.3,133.8h179.5l4.1-133.8h-77.1l5.9-13.8H337v-18.6h-186V547.9z
			 M280.7,678.2h-82l4.4-47.8h79.8L280.7,678.2z M285.3,578.9l-1.7,35.5h-79l3.2-35.5H285.3z"/>
		<polygon class="st1" points="351.2,585.6 376.2,585.6 356.4,612.8 431.4,612.8 351.2,632.5 351.2,659.4 431.1,638.1 429.9,648.1 
			351.2,669.5 351.2,696.5 426.8,674.3 424.2,696.5 468.6,696.5 475,631.2 492.9,695.3 533.4,695.3 511.8,620.8 533.4,593.7 
			495.6,593.7 476.5,615.7 478.5,595.4 411.5,595.4 418.8,585.6 534.1,585.6 534.1,567 351.2,567 		"/>
		<path class="st1" d="M523.2,204.7l-67.3,66.9c0,0,2.8,20.2,24.1,31.4c18.5,9.7-13.8,34.9-13.8,34.9l52.3,17.7l10-21.9l47-30.7
			l-6.5-36.3L523.2,204.7z"/>
		<path class="st1" d="M598.8,384.3c0,0,18.7,66.3,25.3,70.8S613,475.7,613,475.7l-78.9,18l-18.4-35.3l-45.5-25
			c0,0,22.7-19.5,29.3-18.6c6.7,0.9,31.3,0,31.3,0s43.5,28.6,48.8,10.9C585,408,591,384.3,591,384.3L598.8,384.3L598.8,384.3z"/>
		<polygon class="st1" points="477.4,525.3 424,525.3 421.3,532.9 358.6,532.9 350.4,561.8 392.5,561.8 395.4,551.5 492.8,551.5 
			491.1,561.8 532.1,561.8 536.1,532.9 474.7,532.9 		"/>
		<path class="st1" d="M517.1,218.9c2.5,9.2,8.4,19.4,14.6,29.8c7.5,12.5,15.6,25.2,18.8,36.8c1.3,4.5,1.8,8.7,1.3,12.8
			c-1.3,10.8-10.8,21-25.3,20.9c-6-0.1-12.9-1.9-20.5-6.3c-0.8,2.6-1.6,5.3-2.1,8.1c-2.8,13.2,0.9,18.1,4.5,29.4
			c-5.1-2.4-11.9-4.5-17.8-5.8c-3-0.6-6.3-1.1-9.5-1.5l13.2,37.2l0.2,0.6c5.2,14.6,1.5,30.2-8.3,40.9l43.3,9.2l9.8,2.1
			c15.2,3.2,30-6.5,33.2-21.7l1.8-8.5l22.3-105.7l21.9-103.9c3.2-15.2-6.5-30.1-21.6-33.3L468,132.4c-15.2-3.2-30,6.5-33.2,21.7
			l-7.7,36.3l28.8,81.2C467.2,252.1,502.5,237,517.1,218.9z"/>
		<polygon class="st1" points="242.8,270.1 259.5,297.9 336.2,332.7 372.8,355.6 416.1,312.8 416.1,250.7 391.6,233.7 372.5,233.7 
					"/>
		<path class="st1" d="M246.2,279.4l17.9-10.6c6.2-3.7,13.3-5.6,20.5-5.6c11.4,0,22.2,4.9,29.8,13.1c7.5-2.9,17.2-4.1,29.3-2.8
			c7.9-8,15.7-13,22.8-15.7c21-7.9,37.4,3.9,41.1,18.3c0.3,1.3,0.5,2.5,0.7,3.8l-3.9,18.3c-8.7,18.1-28.8,36-31.6,57.4
			c-4.7-4.5-10.5-7.7-16.7-10.3l55.6,94.5l54-19.2c1.8-0.6,3.5-1.5,5.1-2.4c2.2-1.3,4.1-2.9,5.8-4.7l7.1-13.4c0-0.2,0.1-0.3,0.1-0.5
			c0.1-0.4,0.2-0.9,0.2-1.3c0-0.3,0.1-0.5,0.1-0.8c0.1-0.4,0.1-0.8,0.1-1.3c0-0.3,0-0.6,0-0.9c0-0.4,0-0.8,0-1.2
			c0-0.6,0-1.2-0.1-1.8c0-0.4-0.1-0.7-0.1-1.1c0-0.4-0.1-0.9-0.2-1.3c0-0.3-0.1-0.6-0.2-0.9c-0.1-0.5-0.2-0.9-0.3-1.4
			c-0.1-0.2-0.1-0.5-0.2-0.7c-0.2-0.7-0.4-1.5-0.7-2.2l-7.6-21.4l-5.8-16.4l-47.2-133.2l-13.8-39.1c-5.2-14.6-21.2-22.3-35.8-17.1
			l-124.2,44.1c-14.6,5.2-22.2,21.2-17,35.8L246.2,279.4z"/>
		<path class="st1" d="M563.6,508.6h75.3L704,385.5c7.2-13.7,2-30.7-11.7-37.9l-84.2-44.6l-19.3,91.8c2.1-1.4,4.2-2.7,6.3-4.2
			c-0.3,9.4,0.6,18.8,2.4,27.9c3.5,17.2,10.5,33.5,20.9,47.9c-27.1-0.8-53.8,7.4-75.7,23.3c0.4-13.2-1.4-26.3-5.1-38.8
			c-0.6-2.1-1.3-4.1-2-6.1l-51.9-11c-4.4-0.9-7.9-4.1-9.3-8.4c-0.8-2.5-0.8-5.1,0-7.5l-40.5,76.7c-1.7,3.2-2.7,6.7-3,10.1h46.6
			c6.2,0,12.1,2.8,16,7.6h42.7c4.2,0,8.3,1.4,11.7,3.7C551.7,511.5,557.3,508.6,563.6,508.6z"/>
		<path class="st1" d="M358.6,512.2H408c3.8-4.7,9.7-7.6,16-7.6h0.2c2.5-7.4,1.9-15.8-2.3-23.1l-22.1-37.5l-61.6-104.6l-29.4-49.9
			c-1.5-2.5-3.3-4.8-5.4-6.6c-8.9-8-22.2-9.7-33-3.3l-20,11.8l-93.5,55.2c-13.3,7.9-17.8,25.1-9.9,38.4l72.7,123.6H337
			c5.3,0,10,2,13.6,5.3C353.1,512.9,355.8,512.2,358.6,512.2z M332.2,440.9c-5.2,3-11,3.7-16.4,2.4c-4.2-0.2-7.8-0.4-11.5,0.2
			c-1.2,0.2-2.5,0.5-3.7,0.9l8.9,15.2c6.9,11.8,13.1,12.9,23.5,18.9c-5.5,1.7-12,4.8-17.3,7.9c-5.3,3.1-11.1,7.4-15.3,11.3
			c-0.2-11.9,1.8-17.9-5.1-29.7l-8.9-15.2c-2.9,2.7-4.6,5.5-6.3,8.6c-0.7,1.3-1.4,2.7-2.1,4.2c-1.5,5.4-4.9,10.2-10.1,13.2
			c-10.5,6.2-24,2.7-30.2-7.8s-2.7-24,7.8-30.2c5.2-3,11-3.7,16.4-2.4c5.6,0.3,10,0.6,15.3-1.2l-1.4-2.3c-5.7-9.8-11-12.2-18.5-16.2
			c-5.2-1.5-9.9-4.9-12.9-10c-6.2-10.5-2.7-24,7.8-30.2c10.5-6.2,24-2.7,30.2,7.8c0.3,0.5,0.6,1,0.8,1.6c2.3,4.7,2.8,9.8,1.7,14.6
			c-0.2,8.5-0.6,14.3,5.2,24.1l1.3,2.3c2.3-2.2,3.9-4.4,5.3-6.8c1.1-1.8,2-3.8,3.1-6c1.5-5.4,4.9-10.2,10.1-13.2
			c10.5-6.2,24-2.7,30.2,7.8C346.2,421.1,342.7,434.7,332.2,440.9z"/>
		<polygon class="st1" points="670.6,584.4 672.4,553.4 625.9,553.4 623.9,584.4 599.8,584.4 605.4,547.9 730.3,547.9 730.3,529.3 
			563.6,529.3 550.9,603 622.6,603 616.3,697.7 663.9,697.7 669.5,603 734.7,603 734.7,584.4 		"/>
		<polygon class="st1" points="546.4,695.4 587.6,695.4 613,607.4 573.8,607.4 		"/>
		<polygon class="st1" points="675.6,607.4 694,695.4 732.6,695.4 713.8,607.4 		"/>
	</g>
	<g>
		<g>
			<path class="st4" d="M143.9,540.9h58.6l-5.6,13.8H155l-13.3,133.8h179.5l4.1-133.8h-77.1l5.9-13.8H330v-18.6h-186V540.9z
				 M273.7,671.2h-82l4.4-47.8h79.8L273.7,671.2z M278.3,571.9l-1.7,35.5h-79l3.2-35.5H278.3z"/>
			<polygon class="st4" points="344.2,578.6 369.2,578.6 349.4,605.8 424.4,605.8 344.2,625.5 344.2,652.4 424.1,631.1 422.9,641.1 
				344.2,662.5 344.2,689.5 419.8,667.3 417.2,689.5 461.6,689.5 468,624.2 485.9,688.3 526.4,688.3 504.8,613.8 526.4,586.7 
				488.6,586.7 469.5,608.7 471.5,588.4 404.5,588.4 411.8,578.6 527.1,578.6 527.1,560 344.2,560 			"/>
			<path class="st2" d="M516.2,197.7l-67.3,66.9c0,0,2.8,20.2,24.1,31.4c18.5,9.7-13.8,34.9-13.8,34.9l52.3,17.7l10-21.9l47-30.7
				l-6.5-36.3L516.2,197.7z"/>
			<path class="st2" d="M591.8,377.3c0,0,18.7,66.3,25.3,70.8S606,468.7,606,468.7l-78.9,18l-18.4-35.3l-45.5-25
				c0,0,22.7-19.5,29.3-18.6c6.7,0.9,31.3,0,31.3,0s43.5,28.6,48.8,10.9C578,401,584,377.3,584,377.3L591.8,377.3L591.8,377.3z"/>
			<polygon class="st4" points="470.4,518.3 417,518.3 414.3,525.9 351.6,525.9 343.4,554.8 385.5,554.8 388.4,544.5 485.8,544.5 
				484.1,554.8 525.1,554.8 529.1,525.9 467.7,525.9 			"/>
			<path class="st5" d="M510.1,211.9c2.5,9.2,8.4,19.4,14.6,29.8c7.5,12.5,15.6,25.2,18.8,36.8c1.3,4.5,1.8,8.7,1.3,12.8
				c-1.3,10.8-10.8,21-25.3,20.9c-6-0.1-12.9-1.9-20.5-6.3c-0.8,2.6-1.6,5.3-2.1,8.1c-2.8,13.2,0.9,18.1,4.5,29.4
				c-5.1-2.4-11.9-4.5-17.8-5.8c-3-0.6-6.3-1.1-9.5-1.5l13.2,37.2l0.2,0.6c5.2,14.6,1.5,30.2-8.3,40.9l43.3,9.2l9.8,2.1
				c15.2,3.2,30-6.5,33.2-21.7l1.8-8.5l22.3-105.7l21.9-103.9c3.2-15.2-6.5-30.1-21.6-33.3L461,125.4c-15.2-3.2-30,6.5-33.2,21.7
				l-7.7,36.3l28.8,81.2C460.2,245.1,495.5,230,510.1,211.9z"/>
			<polygon class="st2" points="235.8,263.1 252.5,290.9 329.2,325.7 365.8,348.6 409.1,305.8 409.1,243.7 384.6,226.7 365.5,226.7 
							"/>
			<path class="st5" d="M239.2,272.4l17.9-10.6c6.2-3.7,13.3-5.6,20.5-5.6c11.4,0,22.2,4.9,29.8,13.1c7.5-2.9,17.2-4.1,29.3-2.8
				c7.9-8,15.7-13,22.8-15.7c21-7.9,37.4,3.9,41.1,18.3c0.3,1.3,0.5,2.5,0.7,3.8l-3.9,18.3c-8.7,18.1-28.8,36-31.6,57.4
				c-4.7-4.5-10.5-7.7-16.7-10.3l55.6,94.5l54-19.2c1.8-0.6,3.5-1.5,5.1-2.4c2.2-1.3,4.1-2.9,5.8-4.7l7.1-13.4
				c0-0.2,0.1-0.3,0.1-0.5c0.1-0.4,0.2-0.9,0.2-1.3c0-0.3,0.1-0.5,0.1-0.8c0.1-0.4,0.1-0.8,0.1-1.3c0-0.3,0-0.6,0-0.9
				c0-0.4,0-0.8,0-1.2c0-0.6,0-1.2-0.1-1.8c0-0.4-0.1-0.7-0.1-1.1c0-0.4-0.1-0.9-0.2-1.3c0-0.3-0.1-0.6-0.2-0.9
				c-0.1-0.5-0.2-0.9-0.3-1.4c-0.1-0.2-0.1-0.5-0.2-0.7c-0.2-0.7-0.4-1.5-0.7-2.2l-7.6-21.4l-5.8-16.4l-47.2-133.2l-13.8-39.1
				c-5.2-14.6-21.2-22.3-35.8-17.1l-124.2,44.1c-14.6,5.2-22.2,21.2-17,35.8L239.2,272.4z"/>
			<path class="st6" d="M556.6,501.6h75.3L697,378.5c7.2-13.7,2-30.7-11.7-37.9l-84.2-44.6l-19.3,91.8c2.1-1.4,4.2-2.7,6.3-4.2
				c-0.3,9.4,0.6,18.8,2.4,27.9c3.5,17.2,10.5,33.5,20.9,47.9c-27.1-0.8-53.8,7.4-75.7,23.3c0.4-13.2-1.4-26.3-5.1-38.8
				c-0.6-2.1-1.3-4.1-2-6.1l-51.9-11c-4.4-0.9-7.9-4.1-9.3-8.4c-0.8-2.5-0.8-5.1,0-7.5l-40.5,76.7c-1.7,3.2-2.7,6.7-3,10.1h46.6
				c6.2,0,12.1,2.8,16,7.6h42.7c4.2,0,8.3,1.4,11.7,3.7C544.7,504.5,550.3,501.6,556.6,501.6z"/>
			<path class="st5" d="M351.6,505.2H401c3.8-4.7,9.7-7.6,16-7.6h0.2c2.5-7.4,1.9-15.8-2.3-23.1l-22.1-37.5l-61.6-104.6l-29.4-49.9
				c-1.5-2.5-3.3-4.8-5.4-6.6c-8.9-8-22.2-9.7-33-3.3l-20,11.8l-93.5,55.2c-13.3,7.9-17.8,25.1-9.9,38.4l72.7,123.6H330
				c5.3,0,10,2,13.6,5.3C346.1,505.9,348.8,505.2,351.6,505.2z M325.2,433.9c-5.2,3-11,3.7-16.4,2.4c-4.2-0.2-7.8-0.4-11.5,0.2
				c-1.2,0.2-2.5,0.5-3.7,0.9l8.9,15.2c6.9,11.8,13.1,12.9,23.5,18.9c-5.5,1.7-12,4.8-17.3,7.9c-5.3,3.1-11.1,7.4-15.3,11.3
				c-0.2-11.9,1.8-17.9-5.1-29.7l-8.9-15.2c-2.9,2.7-4.6,5.5-6.3,8.6c-0.7,1.3-1.4,2.7-2.1,4.2c-1.5,5.4-4.9,10.2-10.1,13.2
				c-10.5,6.2-24,2.7-30.2-7.8s-2.7-24,7.8-30.2c5.2-3,11-3.7,16.4-2.4c5.6,0.3,10,0.6,15.3-1.2l-1.4-2.3
				c-5.7-9.8-11-12.2-18.5-16.2c-5.2-1.5-9.9-4.9-12.9-10c-6.2-10.5-2.7-24,7.8-30.2c10.5-6.2,24-2.7,30.2,7.8
				c0.3,0.5,0.6,1,0.8,1.6c2.3,4.7,2.8,9.8,1.7,14.6c-0.2,8.5-0.6,14.3,5.2,24.1l1.3,2.3c2.3-2.2,3.9-4.4,5.3-6.8
				c1.1-1.8,2-3.8,3.1-6c1.5-5.4,4.9-10.2,10.1-13.2c10.5-6.2,24-2.7,30.2,7.8C339.2,414.1,335.7,427.7,325.2,433.9z"/>
			<polygon class="st4" points="663.6,577.4 665.4,546.4 618.9,546.4 616.9,577.4 592.8,577.4 598.4,540.9 723.3,540.9 723.3,522.3 
				556.6,522.3 543.9,596 615.6,596 609.3,690.7 656.9,690.7 662.5,596 727.7,596 727.7,577.4 			"/>
			<polygon class="st4" points="539.4,688.4 580.6,688.4 606,600.4 566.8,600.4 			"/>
			<polygon class="st4" points="668.6,600.4 687,688.4 725.6,688.4 706.8,600.4 			"/>
		</g>
	</g>
</g>
</svg>
