<svg xmlns="http://www.w3.org/2000/svg" viewBox="0 0 863.97 880"><defs><style>.cls-1{isolation:isolate;}.cls-2{fill:#de794c;}.cls-3{fill:#ba4439;}.cls-4{opacity:0.8;mix-blend-mode:multiply;}.cls-5{fill:#be3f1f;}.cls-6{fill:#fff;}.cls-7{fill:#f4e35b;}.cls-7,.cls-8{stroke:#be3f1f;stroke-width:2px;fill-rule:evenodd;}.cls-7,.cls-8,.cls-9{stroke-miterlimit:10;}.cls-8{fill:#f2dc58;}.cls-9{fill:#49b463;stroke:#227c3d;stroke-width:6px;}.cls-10{fill:#21813f;}.cls-11{fill:#227c3d;}</style></defs><title>csqqc</title><g class="cls-1"><g id="图层_2" data-name="图层 2"><g id="图层_1-2" data-name="图层 1"><path class="cls-2" d="M523.94,869.82C757,818.09,904.76,583.72,854,346.34S573.09-41.55,340,10.18-40.79,296.28,10,533.66,290.88,921.55,523.94,869.82Z"/><ellipse class="cls-3" cx="401.62" cy="423.18" rx="365.04" ry="376.96"/><ellipse class="cls-2" cx="367.45" cy="405.98" rx="314.58" ry="324.86"/><g class="cls-4"><path class="cls-5" d="M177.91,520.9l-5.4,142H59.88L73.57,441.41H181.05l-.75,18.15h62.28l.75-23.34h54.37l-.88,23.34h8.54v26.58h-9.42l-6.4,176.74H193.61ZM125.18,637.73l4.14-88.3H114.63L109,637.73Zm8-171.42H119.9l-3.77,60h14.19Zm45.46,37.47h42.57l15.19,134.73,5.15-152.36H179.3Z"/><path class="cls-5" d="M435.08,520.9l-5.4,142H317l13.69-221.47H438.22l-.75,18.15h62.28l.75-23.34h54.37L554,459.57h8.54v26.58h-9.42l-6.4,176.74H450.77ZM382.34,637.73l4.14-88.3H371.79l-5.65,88.3Zm8-171.42H377.06l-3.77,60h14.19Zm45.46,37.47H478.4l15.19,134.73,5.15-152.36H436.46Z"/><path class="cls-5" d="M675.16,559.41l-5,103.61H622.42l6.28-103.61h-3.14L610.75,660.55H573.45L589.9,559.41H575.84V534.65h50.23l1.13-17.12h53.12l-1.13,17.12h48.59v24.77H714l7,101.14H683.57l-5-101.14Zm51.48-91.29L715,512.21H674l11.68-44.09H576.47V441.54H734.56v26.58Zm-145.78,6.35h37.67l7.79,37.73H587.89Zm46.46,0h36.92l7.53,37.73H634.35Zm191.62,101v45.13l-92.42,43.57V619.84Zm0-74v42.4L731.54,585v-42.4Zm0-70.15v41.49l-85.39,42.79V472.79Z"/></g><path class="cls-6" d="M169.91,504.9l-5.4,142H51.88L65.57,425.41H173.05l-.75,18.15h62.28l.75-23.34h54.37l-.88,23.34h8.54v26.58h-9.42l-6.4,176.74H185.61ZM117.18,621.73l4.14-88.3H106.63L101,621.73Zm8-171.42H111.9l-3.77,60h14.19Zm45.46,37.47h42.57l15.19,134.73,5.15-152.36H171.3Z"/><path class="cls-6" d="M427.08,504.9l-5.4,142H309l13.69-221.47H430.22l-.75,18.15h62.28l.75-23.34h54.37L546,443.57h8.54v26.58h-9.42l-6.4,176.74H442.77ZM374.34,621.73l4.14-88.3H363.79l-5.65,88.3Zm8-171.42H369.06l-3.77,60h14.19Zm45.46,37.47H470.4l15.19,134.73,5.15-152.36H428.46Z"/><path class="cls-6" d="M667.16,543.41l-5,103.61H614.42l6.28-103.61h-3.14L602.75,644.55H565.45L581.9,543.41H567.84V518.65h50.23l1.13-17.12h53.12l-1.13,17.12h48.59v24.77H706l7,101.14H675.57l-5-101.14Zm51.48-91.29L707,496.21H666l11.68-44.09H568.47V425.54H726.56v26.58Zm-145.78,6.35h37.67l7.79,37.73H579.89Zm46.46,0h36.92l7.53,37.73H626.35Zm191.62,101v45.13l-92.42,43.57V603.84Zm0-74v42.4L723.54,569v-42.4Zm0-70.15v41.49l-85.39,42.79V456.79Z"/><path class="cls-7" d="M607.93,195.67,613.19,237l34.13,22.25-36.43,17.89L601,317.44l-27.77-30.23-40.27,2.69,19.26-36.57-14.95-38.69,39.68,7.63,31-26.6"/><path class="cls-8" d="M453.35,116.08l25.45,50.76,54.11,12.28L494,219.77l5.41,56.87L449.87,251,399.1,273.88l8.34-56.5-36.78-42.74,54.67-9.28,28-49.29"/><ellipse class="cls-9" cx="174.43" cy="195.67" rx="160.31" ry="165.55"/><path class="cls-10" d="M240.36,44.68a167,167,0,0,1,63,131.31c0,91.43-71.77,165.55-160.31,165.55a155.25,155.25,0,0,1-65.92-14.76A156.2,156.2,0,0,0,174.43,361C263,361,334.74,286.9,334.74,195.47,334.74,128.33,296,70.66,240.36,44.68Z"/><g class="cls-4"><path class="cls-11" d="M85.88,217.22H44.55L51,177.34h38l.35-4.58H44.61V163H90.21l.35-4.76h-43v-9.76H153.72v9.76H117.35l-.4,4.76h39.48v9.76H116.2l-.4,4.58h38.33l-2,39.88H112.63l-.4,5.3h42.31v9.76H111.42l-.63,8h45v9.76H44.9v-9.76H84l.63-8H47.55v-9.76H85.42Zm.69-8.93.63-7.62h-13l-1.1,7.62Zm1.79-22H76.26l-.86,6.25H87.84ZM114,200.68l-.63,7.62h12.8l.52-7.62Zm.63-8.15h12.62l.4-6.25H115.11Z"/><path class="cls-11" d="M195.4,182.94h15.16l4.5-14.11h26.46l-4.38,14.11h36.66v11.37H259.49l12,55.77H244.91l-10-55.77h-1.33l-17.35,55.77h-27L207,194.31H194.3l-5.36,55.77H162.6l9.11-98.15H212.4l1.44-5.89h31.07l-1.44,5.89h31v12.2H197.24Z"/></g><path class="cls-6" d="M82.88,211.22H41.55L48,171.34h38l.35-4.58H41.61V157H87.21l.35-4.76h-43v-9.76H150.72v9.76H114.35l-.4,4.76h39.48v9.76H113.2l-.4,4.58h38.33l-2,39.88H109.63l-.4,5.3h42.31v9.76H108.42l-.63,8h45v9.76H41.9v-9.76H81l.63-8H44.55v-9.76H82.42Zm.69-8.93.63-7.62h-13l-1.1,7.62Zm1.79-22H73.26l-.86,6.25H84.84ZM111,194.68l-.63,7.62h12.8l.52-7.62Zm.63-8.15h12.62l.4-6.25H112.11Z"/><path class="cls-6" d="M192.4,176.94h15.16l4.5-14.11h26.46l-4.38,14.11h36.66v11.37H256.49l12,55.77H241.91l-10-55.77h-1.33l-17.35,55.77h-27L204,188.31H191.3l-5.36,55.77H159.6l9.11-98.15H209.4l1.44-5.89h31.07l-1.44,5.89h31v12.2H194.24Z"/></g></g></g></svg>