<?xml version="1.0" encoding="utf-8"?>
<!-- Generator: Adobe Illustrator 21.1.0, SVG Export Plug-In . SVG Version: 6.00 Build 0)  -->
<svg version="1.1" id="图层_1" xmlns="http://www.w3.org/2000/svg" xmlns:xlink="http://www.w3.org/1999/xlink" x="0px" y="0px"
	 viewBox="0 0 880 896.3" style="enable-background:new 0 0 880 896.3;" xml:space="preserve">
<style type="text/css">
	.st0{fill:#D4254F;}
	.st1{fill:#870A28;}
	.st2{fill:#FFFFFF;}
	.st3{opacity:0.75;}
	.st4{fill:#F4D537;}
</style>
<path class="st0" d="M533.7,885.9C771,833.2,921.5,594.5,869.8,352.7S583.7-42.3,346.3,10.3S-41.5,301.8,10.2,543.5
	S296.3,938.6,533.7,885.9z"/>
<ellipse class="st1" cx="409.1" cy="431" rx="371.8" ry="384"/>
<ellipse class="st0" cx="384.6" cy="407.7" rx="331.8" ry="342.6"/>
<polygon class="st2" points="277.1,571 321.8,571 348,502.3 305.3,502.3 "/>
<polygon class="st2" points="464,571 444.5,502.3 402.5,502.3 421.4,571 "/>
<g>
	<g class="st3">
		<polygon class="st1" points="275.6,559.7 234.1,559.7 239.1,453.8 275.4,448.1 275.4,427.6 240,433 241.2,408.1 194.8,408.1 
			185.8,578.3 275.6,578.3 		"/>
		<polygon class="st1" points="128.6,437 86.8,437 86.8,455.6 127.6,455.6 121.3,559.7 86.6,559.7 86.6,578.3 167.3,578.3 
			176.9,408.1 130.4,408.1 		"/>
		<polygon class="st1" points="475.2,416.5 409.7,416.5 414.3,408.2 360.6,408.2 355.9,416.5 285.9,416.5 285.9,433.7 475.2,433.7 
					"/>
		<path class="st1" d="M405.8,505.2h59.9l3.4-64.4H303.8l-14,64.4h69.1l-7.5,72.8h48.8L405.8,505.2z M341.5,489.2l7-32.4h73.9
			l-1.9,32.4H341.5z"/>
		<polygon class="st1" points="624.1,490.9 632,408 499.7,408 499.7,428.7 580.9,428.7 576.4,470.3 495.1,470.3 486.3,580 620,580 
			620,559.3 537.4,559.3 542.8,490.9 		"/>
		<path class="st1" d="M658.5,408.3l-14.3,171.8h133l10.7-171.8H658.5z M730.6,559.5h-36.9l5.7-68.2h35.4L730.6,559.5z M736.1,470.6
			h-34.9l3.5-41.7h33.9L736.1,470.6z"/>
		<path class="st1" d="M229.3,686.1c53.8,52,128.2,79.5,215,79.5c86.9,0,161.2-27.5,215-79.5c17.7-17.1,32.9-36.7,45.4-58.6H183.9
			C196.4,649.4,211.6,669,229.3,686.1z"/>
		<ellipse class="st1" cx="444.2" cy="285.6" rx="154.3" ry="68"/>
		<path class="st1" d="M444.3,126.8c-110.5,0-203.5,111.9-256.7,239.6H701C647.9,238.8,554.8,126.8,444.3,126.8z M384.1,299.8
			c-4.9,3.1-10.7,4.9-17,4.9c-17.7,0-32-14.4-32-32c0-14.7,9.9-27.1,23.4-30.8c2.7-0.8,5.6-1.2,8.6-1.2c17.7,0,32,14.4,32,32
			C399.1,284,393.1,294.1,384.1,299.8z M450,348.6l-41.9-33.3l0-0.1l82.3,0L450,348.6z M521.6,304.6c-4.9,0-9.5-1.1-13.6-3
			c-10.9-5.1-18.4-16.2-18.4-29c0-17.7,14.4-32,32-32c3.4,0,6.6,0.5,9.7,1.5c12.9,4.1,22.3,16.2,22.3,30.5
			C553.6,290.3,539.2,304.6,521.6,304.6z"/>
	</g>
	<g>
		<g>
			<polygon class="st2" points="268.6,552.7 227.1,552.7 232.1,446.8 268.4,441.1 268.4,420.6 233,426 234.2,401.1 187.8,401.1 
				178.8,571.3 268.6,571.3 			"/>
			<polygon class="st2" points="121.6,430 79.8,430 79.8,448.6 120.6,448.6 114.3,552.7 79.6,552.7 79.6,571.3 160.3,571.3 
				169.9,401.1 123.4,401.1 			"/>
			<polygon class="st2" points="468.2,409.5 402.7,409.5 407.3,401.2 353.6,401.2 348.9,409.5 278.9,409.5 278.9,426.7 468.2,426.7 
							"/>
			<path class="st2" d="M398.8,498.2h59.9l3.4-64.4H296.8l-14,64.4h69.1l-7.5,72.8h48.8L398.8,498.2z M334.5,482.2l7-32.4h73.9
				l-1.9,32.4H334.5z"/>
			<polygon class="st2" points="617.1,483.9 625,401 492.7,401 492.7,421.7 573.9,421.7 569.4,463.3 488.1,463.3 479.3,573 613,573 
				613,552.3 530.4,552.3 535.8,483.9 			"/>
			<path class="st2" d="M651.5,401.3l-14.3,171.8h133l10.7-171.8H651.5z M723.6,552.5h-36.9l5.7-68.2h35.4L723.6,552.5z
				 M729.1,463.6h-34.9l3.5-41.7h33.9L729.1,463.6z"/>
			<path class="st4" d="M222.3,679.1c53.8,52,128.2,79.5,215,79.5c86.9,0,161.2-27.5,215-79.5c17.7-17.1,32.9-36.7,45.4-58.6H176.9
				C189.4,642.4,204.6,662,222.3,679.1z"/>
			<ellipse class="st1" cx="437.2" cy="278.6" rx="154.4" ry="68"/>
			<path class="st4" d="M437.3,119.8c-110.5,0-203.5,111.9-256.7,239.6H694C640.9,231.8,547.8,119.8,437.3,119.8z M377.1,292.8
				c-4.9,3.1-10.7,4.9-17,4.9c-17.7,0-32-14.4-32-32c0-14.7,9.9-27.1,23.4-30.8c2.7-0.8,5.6-1.2,8.6-1.2c17.7,0,32,14.4,32,32
				C392.1,277,386.1,287.1,377.1,292.8z M443,341.6l-41.9-33.3l0-0.1l82.3,0L443,341.6z M514.6,297.6c-4.9,0-9.5-1.1-13.6-3
				c-10.9-5.1-18.4-16.2-18.4-29c0-17.7,14.4-32,32-32c3.4,0,6.6,0.5,9.7,1.5c12.9,4.1,22.3,16.2,22.3,30.5
				C546.6,283.3,532.2,297.6,514.6,297.6z"/>
		</g>
	</g>
</g>
</svg>
