<?xml version="1.0" encoding="utf-8"?>
<!-- Generator: Adobe Illustrator 21.1.0, SVG Export Plug-In . SVG Version: 6.00 Build 0)  -->
<svg version="1.1" id="图层_1" xmlns="http://www.w3.org/2000/svg" xmlns:xlink="http://www.w3.org/1999/xlink" x="0px" y="0px"
	 viewBox="0 0 880 896.3" style="enable-background:new 0 0 880 896.3;" xml:space="preserve">
<style type="text/css">
	.st0{fill:#3365A1;}
	.st1{fill:#123054;}
	.st2{fill:#F4D537;}
	.st3{opacity:0.75;}
	.st4{fill:#FFFFFF;}
</style>
<path class="st0" d="M533.7,886C771,833.3,921.5,594.6,869.8,352.8S583.7-42.3,346.3,10.4S-41.5,301.8,10.2,543.6
	S296.3,938.6,533.7,886z"/>
<ellipse class="st1" cx="409.1" cy="431" rx="371.8" ry="384"/>
<ellipse class="st0" cx="384.6" cy="407.7" rx="331.8" ry="342.6"/>
<path class="st2" d="M208.6,710.7c57.9,55.9,137.9,85.5,231.4,85.5c93.5,0,173.5-29.6,231.4-85.5c19.1-18.4,35.4-39.5,48.9-63H159.7
	C173.2,671.2,189.6,692.3,208.6,710.7z"/>
<g>
	<g class="st3">
		<path class="st1" d="M213.4,448.7h-72.5l-9.7,141.4h77.8L213.4,448.7z M177,575h-12.3l6.7-111.3h10.3L177,575z"/>
		<polygon class="st1" points="96,450.3 96.9,442 64.8,442 64,450.3 50.1,450.3 50.1,466.5 62.2,466.5 49,590.1 81.8,590.1 
			94.3,466.5 100.8,466.5 92.5,590.1 126.7,590.1 134.8,450.3 		"/>
		<polygon class="st1" points="372.4,445.4 243.1,445.4 225.3,463.5 265.7,463.5 270.9,458.1 344,458.1 348,463.5 388.2,463.5 		"/>
		<polygon class="st1" points="387.6,533.4 387.6,519.5 225.8,519.5 225.8,533.4 295.8,533.4 295.2,538.9 225.8,538.9 225.8,551.6 
			293.8,551.6 293.2,557.6 225.3,557.6 225.3,570.3 291.9,570.3 291.2,577.1 243.1,577.1 243.1,589.9 331.4,589.9 333.1,570.3 
			387.1,570.3 387.1,557.6 334.2,557.6 334.7,551.6 387.1,551.6 387.1,538.9 335.9,538.9 336.4,533.4 		"/>
		<path class="st1" d="M382,514.6l2.7-32.2H232.4l-6.6,32.2H382z M266.7,494h79.6l-1.1,9H265L266.7,494z"/>
		<rect x="229.7" y="466.5" class="st1" width="154.3" height="11.6"/>
		<polygon class="st1" points="561.5,467.2 491.3,467.2 501.3,442.3 458.1,442.3 447.9,467.2 397.8,467.2 397.8,484.6 440.8,484.6 
			397.4,589.9 441.5,589.9 484.2,484.6 493.6,484.6 518.7,589.9 560,589.9 533.3,484.6 561.5,484.6 		"/>
		<polygon class="st1" points="696.1,510.9 703.2,442.1 583,442.1 583,459.3 656.8,459.3 652.7,493.8 578.7,493.8 570.8,584.7 
			692.4,584.7 692.4,567.6 617.2,567.6 622.1,510.9 		"/>
		<path class="st1" d="M727.4,442.3l-13,142.5h120.9l9.8-142.5H727.4z M792.9,567.7h-33.5l5.2-56.5h32.2L792.9,567.7z M797.9,494
			h-31.7l3.2-34.6h30.8L797.9,494z"/>
		<ellipse class="st1" cx="454.7" cy="289.2" rx="147.8" ry="74.5"/>
		<path class="st1" d="M447,116c-118.9,0-219,120.4-276.2,257.8h552.4C666,236.4,565.9,116,447,116z M382.1,302
			c-5.3,3.3-11.5,5.2-18.2,5.2c-19,0-34.4-15.5-34.4-34.5c0-15.8,10.7-29.1,25.2-33.2c2.9-0.8,6-1.3,9.3-1.3
			c19,0,34.5,15.5,34.5,34.5C398.4,285.1,391.9,295.9,382.1,302z M453.1,354.6L408,318.8l0-0.1l88.5,0L453.1,354.6z M530.1,307.3
			c-5.2,0-10.2-1.2-14.6-3.3c-11.7-5.5-19.8-17.4-19.8-31.2c0-19,15.5-34.5,34.5-34.5c3.6,0,7.1,0.6,10.4,1.6
			c13.9,4.4,24,17.5,24,32.8C564.6,291.8,549.1,307.3,530.1,307.3z"/>
	</g>
	<g>
		<g>
			<path class="st4" d="M206.4,441.7h-72.5l-9.7,141.4h77.8L206.4,441.7z M170,568h-12.3l6.7-111.3h10.3L170,568z"/>
			<polygon class="st4" points="89,443.3 89.9,435 57.8,435 57,443.3 43.1,443.3 43.1,459.5 55.2,459.5 42,583.1 74.8,583.1 
				87.3,459.5 93.8,459.5 85.5,583.1 119.7,583.1 127.8,443.3 			"/>
			<polygon class="st4" points="365.4,438.4 236.1,438.4 218.3,456.5 258.7,456.5 263.9,451.1 337,451.1 341,456.5 381.2,456.5 			
				"/>
			<polygon class="st4" points="380.6,526.4 380.6,512.5 218.8,512.5 218.8,526.4 288.8,526.4 288.2,531.9 218.8,531.9 218.8,544.6 
				286.8,544.6 286.2,550.6 218.3,550.6 218.3,563.3 284.9,563.3 284.2,570.1 236.1,570.1 236.1,582.9 324.4,582.9 326.1,563.3 
				380.1,563.3 380.1,550.6 327.2,550.6 327.7,544.6 380.1,544.6 380.1,531.9 328.9,531.9 329.4,526.4 			"/>
			<path class="st4" d="M375,507.6l2.7-32.2H225.4l-6.6,32.2H375z M259.7,487h79.6l-1.1,9H258L259.7,487z"/>
			<rect x="222.7" y="459.5" class="st4" width="154.3" height="11.6"/>
			<polygon class="st4" points="554.5,460.2 484.3,460.2 494.3,435.3 451.1,435.3 440.9,460.2 390.8,460.2 390.8,477.6 433.8,477.6 
				390.4,582.9 434.5,582.9 477.2,477.6 486.6,477.6 511.7,582.9 553,582.9 526.3,477.6 554.5,477.6 			"/>
			<polygon class="st4" points="689.1,503.9 696.2,435.1 576,435.1 576,452.3 649.8,452.3 645.7,486.8 571.7,486.8 563.8,577.7 
				685.4,577.7 685.4,560.6 610.2,560.6 615.1,503.9 			"/>
			<path class="st4" d="M720.4,435.3l-13,142.5h120.9l9.8-142.5H720.4z M785.9,560.7h-33.5l5.2-56.5h32.2L785.9,560.7z M790.9,487
				h-31.7l3.2-34.6h30.8L790.9,487z"/>
			<ellipse class="st1" cx="447.7" cy="282.2" rx="147.8" ry="74.5"/>
			<path class="st2" d="M440,109c-118.9,0-219,120.4-276.2,257.8h552.4C659,229.4,558.9,109,440,109z M375.1,295
				c-5.3,3.3-11.5,5.2-18.2,5.2c-19,0-34.4-15.5-34.4-34.5c0-15.8,10.7-29.1,25.2-33.2c2.9-0.8,6-1.3,9.3-1.3
				c19,0,34.5,15.5,34.5,34.5C391.4,278.1,384.9,288.9,375.1,295z M446.1,347.6L401,311.8l0-0.1l88.5,0L446.1,347.6z M523.1,300.3
				c-5.2,0-10.2-1.2-14.6-3.3c-11.7-5.5-19.8-17.4-19.8-31.2c0-19,15.5-34.5,34.5-34.5c3.6,0,7.1,0.6,10.4,1.6
				c13.9,4.4,24,17.5,24,32.8C557.6,284.8,542.1,300.3,523.1,300.3z"/>
		</g>
	</g>
</g>
</svg>
