<?xml version="1.0" encoding="utf-8"?>
<!-- Generator: Adobe Illustrator 21.1.0, SVG Export Plug-In . SVG Version: 6.00 Build 0)  -->
<svg version="1.1" id="图层_1" xmlns="http://www.w3.org/2000/svg" xmlns:xlink="http://www.w3.org/1999/xlink" x="0px" y="0px"
	 viewBox="0 0 880 896.3" style="enable-background:new 0 0 880 896.3;" xml:space="preserve">
<style type="text/css">
	.st0{fill:#D339AC;}
	.st1{fill:#7A1164;}
	.st2{fill:#801369;}
	.st3{fill:#FFFFFF;}
	.st4{fill:#F4D43A;}
	.st5{fill:#F4D537;}
</style>
<path class="st0" d="M533.7,886C771,833.3,921.6,594.6,869.8,352.8C818.1,111,583.7-42.3,346.3,10.4S-41.5,301.8,10.2,543.6
	S296.3,938.6,533.7,886z"/>
<ellipse class="st1" cx="409.1" cy="431" rx="371.8" ry="384"/>
<ellipse class="st0" cx="384.6" cy="407.7" rx="331.8" ry="342.6"/>
<image style="overflow:visible;opacity:0.75;enable-background:new    ;" width="1024" height="1024" xlink:href="5522E21F.png"  transform="matrix(1 0 0 1 -8478.4004 -8346.8457)">
</image>
<ellipse class="st2" cx="445" cy="243.1" rx="154.2" ry="76.7"/>
<g>
	<polygon class="st2" points="634.7,476.4 643.3,385.7 498.6,385.7 498.6,408.3 587.5,408.3 582.5,453.8 493.5,453.8 483.9,573.9 
		630.3,573.9 630.3,551.3 539.8,551.3 545.7,476.4 	"/>
	<path class="st2" d="M672.4,385.9L656.7,574h145.6L814,385.9L672.4,385.9L672.4,385.9z M751.3,551.5h-40.4l6.3-74.6H756
		L751.3,551.5z M757.4,454.2h-38.2l3.8-45.7h37.1L757.4,454.2z"/>
	<polygon class="st2" points="123.4,419.7 134.6,463.4 176.7,463.4 165.1,419.7 	"/>
	<path class="st2" d="M181.9,574.3H234l3.2-86.6h17.6v-19.1H238l3-78.4H68.2L61,468.7H46v19.1h13.2l-8,86.6h51.3l7.5-86.6h75.9
		L181.9,574.3z M111.8,468.7l5.1-57.8h72.7l-2.7,57.8H111.8z"/>
	<polygon class="st2" points="334.3,574.3 371,527.3 401.3,574.3 467.4,574.3 429.8,523.8 466.2,493.2 466.2,480.5 341.2,480.5 
		346.6,472.9 291,472.9 271.2,499.6 399.8,499.6 371.1,521.8 347.5,504.7 287.5,504.7 311.8,523.8 266.2,574.3 	"/>
	<polygon class="st2" points="475.4,450.4 396,450.4 397.4,438 469.2,438 469.2,420.3 399.5,420.3 400.5,411 472.2,411 472.2,391.9 
		402.7,391.9 403.3,385.8 350.2,385.8 349.4,391.9 270.4,391.9 270.4,411 346.7,411 345.4,420.3 273.1,420.3 273.1,438 343.1,438 
		341.3,450.4 266.6,450.4 266.6,469.5 475.4,469.5 	"/>
</g>
<polygon class="st3" points="634.7,470.9 643.3,380.2 498.6,380.2 498.6,402.7 587.5,402.7 582.5,448.3 493.5,448.3 483.9,568.4 
	630.3,568.4 630.3,545.8 539.8,545.8 545.7,470.9 "/>
<path class="st3" d="M672.4,380.4l-15.7,188.1h145.6L814,380.4H672.4L672.4,380.4z M751.3,545.9h-40.4l6.3-74.6H756L751.3,545.9z
	 M757.4,448.7h-38.2L723,403h37.1L757.4,448.7z"/>
<path class="st4" d="M202.5,684.5c58.9,56.9,140.3,87,235.4,87c95.1,0,176.5-30.1,235.4-87c19.4-18.7,36-40.2,49.7-64.1H152.8
	C166.5,644.3,183.1,665.8,202.5,684.5z"/>
<path class="st5" d="M437.9,72.3c-120.9,0-222.8,122.5-281,262.3h562C660.7,194.8,558.9,72.3,437.9,72.3z M371.9,261.6
	c-5.4,3.4-11.7,5.3-18.6,5.3c-19.3,0-35.1-15.7-35.1-35.1c0-16.1,10.9-29.6,25.6-33.8c3-0.8,6.2-1.3,9.4-1.3c19.3,0,35,15.7,35,35
	C388.4,244.4,381.8,255.4,371.9,261.6z M444.1,315.1l-45.9-36.5v-0.1l90-0.1L444.1,315.1z M522.5,267c-5.3,0-10.4-1.2-14.9-3.3
	c-11.9-5.6-20.2-17.7-20.2-31.7c0-19.3,15.7-35,35.1-35c3.7,0,7.3,0.6,10.6,1.6c14.2,4.5,24.4,17.8,24.4,33.4
	C557.5,251.2,541.8,267,522.5,267z"/>
<polygon class="st3" points="123.4,414.2 134.6,457.8 176.7,457.8 165.1,414.2 "/>
<path class="st3" d="M181.9,568.8H234l3.2-86.6h17.6v-19.1H238l3-78.4H68.2L61,463.1H46v19.1h13.2l-8,86.6h51.3l7.5-86.6H186
	L181.9,568.8z M111.8,463.1l5.1-57.8h72.7l-2.7,57.8H111.8z"/>
<polygon class="st3" points="334.3,568.8 371,521.8 401.3,568.8 467.4,568.8 429.8,518.2 466.2,487.7 466.2,475 341.2,475 
	346.6,467.3 291,467.3 271.2,494.1 399.8,494.1 371.1,516.3 347.5,499.1 287.5,499.1 311.8,518.2 266.2,568.8 "/>
<polygon class="st3" points="475.4,444.9 396,444.9 397.4,432.5 469.2,432.5 469.2,414.8 399.5,414.8 400.5,405.4 472.2,405.4 
	472.2,386.3 402.7,386.3 403.3,380.3 350.2,380.3 349.4,386.3 270.4,386.3 270.4,405.4 346.7,405.4 345.4,414.8 273.1,414.8 
	273.1,432.5 343.1,432.5 341.3,444.9 266.6,444.9 266.6,464 475.4,464 "/>
<image style="overflow:visible;enable-background:new    ;" width="703" height="341" xlink:href="5522E21D.jpeg"  transform="matrix(1.599 0 0 1.5943 834.0155 -803.6729)">
</image>
</svg>
