<?xml version="1.0" encoding="utf-8"?>
<!-- Generator: Adobe Illustrator 21.1.0, SVG Export Plug-In . SVG Version: 6.00 Build 0)  -->
<svg version="1.1" id="图层_1" xmlns="http://www.w3.org/2000/svg" xmlns:xlink="http://www.w3.org/1999/xlink" x="0px" y="0px"
	 viewBox="0 0 880 896.3" style="enable-background:new 0 0 880 896.3;" xml:space="preserve">
<style type="text/css">
	.st0{fill:#C24A74;}
	.st1{fill:#75203F;}
	.st2{fill:#F4D43A;}
	.st3{enable-background:new    ;}
	.st4{fill:#FFFFFF;}
</style>
<path class="st0" d="M533.7,886C771,833.3,921.6,594.6,869.8,352.8C818.1,111,583.7-42.3,346.3,10.4S-41.5,301.8,10.2,543.6
	S296.3,938.6,533.7,886z"/>
<ellipse class="st1" cx="409.1" cy="431" rx="371.8" ry="384"/>
<ellipse class="st0" cx="384.6" cy="407.7" rx="331.8" ry="342.6"/>
<image style="overflow:visible;opacity:0.75;enable-background:new    ;" width="1024" height="1024" xlink:href="D47103DC.png"  transform="matrix(1 0 0 1 -8478.4004 -8346.8457)">
</image>
<ellipse class="st1" cx="433.9" cy="262.8" rx="148.1" ry="75.5"/>
<path class="st2" d="M198.9,690.4c56.9,54.9,135.4,84,227.2,84c91.8,0,170.3-29,227.2-84c18.7-18.1,34.7-38.8,48-61.9H150.9
	C164.1,651.5,180.1,672.3,198.9,690.4z"/>
<path class="st2" d="M426.1,99.5c-116.7,0-215,118.2-271.2,253.1h542.4C641.1,217.7,542.8,99.5,426.1,99.5z M362.4,282.2
	c-5.2,3.3-11.3,5.2-17.9,5.2c-18.7,0-33.8-15.2-33.8-33.8c0-15.5,10.5-28.6,24.7-32.6c2.9-0.8,5.9-1.2,9.1-1.2
	c18.6,0,33.8,15.2,33.8,33.8C378.3,265.6,371.9,276.2,362.4,282.2z M432,333.8l-44.3-35.2v-0.1l86.9,0L432,333.8z M507.7,287.4
	c-5.1,0-10-1.2-14.4-3.2c-11.5-5.4-19.5-17.1-19.5-30.6c0-18.7,15.2-33.8,33.8-33.8c3.6,0,7,0.6,10.2,1.6
	c13.7,4.4,23.6,17.2,23.6,32.2C541.5,272.2,526.3,287.4,507.7,287.4z"/>
<g>
	<g>
		<g>
			<polygon class="st1" points="612.5,495 620.8,407.5 481.1,407.5 481.1,429.3 566.9,429.3 562,473.2 476.1,473.2 466.9,589.1 
				608.2,589.1 608.2,567.3 520.8,567.3 526.6,495 			"/>
		</g>
		<g>
			<g>
				<path class="st1" d="M648.8,407.7l-15.2,181.5h140.5l11.3-181.5L648.8,407.7L648.8,407.7z M725,567.4h-39l6.1-72h37.4L725,567.4
					z M730.8,473.6H694l3.7-44.1h35.8L730.8,473.6z"/>
			</g>
		</g>
		<g class="st3">
			<g>
				<path class="st1" d="M75,518.2l-7.7,18.4h-25l9.7-22.7h46.3l8,22.7H81L75,518.2z M125.1,545.1h48.2v17.1h-49.1l-0.5,10H176v17.1
					H42.3v-17.1h48.1l0.8-10h-46v-17.1h47.2l0.3-4.6h32.8L125.1,545.1z M93.8,465.5H45.1l5.3-53.4H174l-1.5,53.4h-46.7l-0.3,5.2H173
					v15.6h-48.2l-0.3,5.7h50.5v17.1H43V492h49.4l0.3-5.7H45.1v-15.6h48.4L93.8,465.5z M99.1,427.7H73.8l-2.4,22.2h26.3L99.1,427.7z
					 M93.3,431.3l4.1,15.3H77.9l-4.1-15.3H93.3z M106.1,514h24.8l8.8,22.7h-25.5L106.1,514z M123.8,427.7l-1.4,22.2h25.2l1.3-22.2
					L123.8,427.7L123.8,427.7z M147.9,431.3l-5.2,14.5h-19.1l5.4-14.5H147.9z M139.6,514H165l8.1,22.7h-25.8L139.6,514z"/>
				<path class="st1" d="M182.5,589.5l7.1-141.2h30.1l0.9-16.5H184v-19.9h133.7v19.9h-30.1l-0.9,16.5h29.2l-3.4,141.2H182.5
					L182.5,589.5z M213.9,571h68.4l0.8-25.8H252l3.8-78.3h-6.9l-3.8,78.3h-29.9L213.9,571z M226.1,466.9h-7.2l-3,61.2h7L226.1,466.9
					z M250.8,431.8l-1,16.5h6.8l0.8-16.5L250.8,431.8L250.8,431.8z M278.4,466.9l-2.8,61.2h8.1l1.9-61.2H278.4L278.4,466.9z"/>
				<path class="st1" d="M422.1,509.9h-96.9v-17.1h134.2v17.1h-5l-1.7,79.6h-33.2L422.1,509.9z M326.3,588.5l7.7-69.1h80.5
					l-2.1,69.1H326.3z M422,428.9h-95.5v-17.1h132.4v17.1h-4.8l-1.5,58.9h-32.7L422,428.9z M336.5,436.8h79.2l-1.9,48.7h-82.4
					L336.5,436.8z M359.8,571.4h21.7l1.7-35h-19.6L359.8,571.4z M362.6,469.8h22.8l1-17.5h-21.8L362.6,469.8z"/>
			</g>
		</g>
	</g>
</g>
<g>
	<polygon class="st4" points="616,484.2 624.3,396.6 484.6,396.6 484.6,418.4 570.4,418.4 565.6,462.4 479.6,462.4 470.4,578.2 
		611.7,578.2 611.7,556.4 524.3,556.4 530.1,484.2 	"/>
	<path class="st4" d="M652.4,396.8l-15.2,181.5h140.5L789,396.8H652.4z M728.5,556.6h-39l6.1-72H733L728.5,556.6z M734.3,462.7
		h-36.8l3.7-44.1H737L734.3,462.7z"/>
	<g class="st3">
		<g>
			<path class="st4" d="M78.5,507.4l-7.7,18.4h-25l9.7-22.7h46.3l8,22.7H84.5L78.5,507.4z M128.6,534.2h48.2v17.1h-49.1l-0.5,10
				h52.3v17.1H45.8v-17.1h48.1l0.8-10h-46v-17.1h47.2l0.3-4.6h32.8L128.6,534.2z M97.3,454.6H48.6l5.3-53.4h123.6l-1.5,53.4h-46.7
				l-0.3,5.2h47.4v15.6h-48.2l-0.3,5.7h50.5v17.1H46.5v-17.1h49.4l0.3-5.7H48.6v-15.6H97L97.3,454.6z M102.6,416.8H77.4L75,439h26.3
				L102.6,416.8z M96.9,420.5l4.1,15.3H81.4l-4.1-15.3H96.9z M109.6,503.1h24.8l8.8,22.7h-25.5L109.6,503.1z M127.3,416.8L126,439
				h25.2l1.3-22.2H127.3L127.3,416.8z M151.4,420.5l-5.2,14.5h-19.1l5.4-14.5H151.4L151.4,420.5z M143.1,503.1h25.4l8.1,22.7h-25.8
				L143.1,503.1z"/>
			<path class="st4" d="M186,578.6l7.1-141.2h30.1l0.9-16.5h-36.7V401h133.7v19.9H291l-0.9,16.5h29.2L316,578.6H186z M217.4,560.1
				h68.4l0.8-25.8h-31.1l3.8-78.3h-6.9l-3.8,78.3h-29.9L217.4,560.1z M229.6,456.1h-7.2l-3,61.2h7.1L229.6,456.1z M254.3,420.9
				l-1,16.5h6.8l0.8-16.5H254.3L254.3,420.9z M281.9,456.1l-2.8,61.2h8.1l1.9-61.2H281.9z"/>
			<path class="st4" d="M425.6,499h-96.9V482h134.2V499h-5l-1.7,79.6h-33.2L425.6,499z M329.8,577.6l7.7-69.1H418l-2.1,69.1H329.8z
				 M425.5,418.1h-95.5V401h132.4v17.1h-4.8l-1.5,58.9h-32.7L425.5,418.1z M340,425.9h79.2l-1.9,48.7H335L340,425.9z M363.3,560.5
				H385l1.7-35H367L363.3,560.5z M366.1,459h22.8l1-17.5H368L366.1,459z"/>
		</g>
	</g>
</g>
</svg>
