<?xml version="1.0" encoding="utf-8"?>
<!-- Generator: Adobe Illustrator 21.1.0, SVG Export Plug-In . SVG Version: 6.00 Build 0)  -->
<svg version="1.1" id="图层_1" xmlns="http://www.w3.org/2000/svg" xmlns:xlink="http://www.w3.org/1999/xlink" x="0px" y="0px"
	 viewBox="0 0 880 896.3" style="enable-background:new 0 0 880 896.3;" xml:space="preserve">
<style type="text/css">
	.st0{fill:#9948C2;}
	.st1{fill:#592075;}
	.st2{opacity:0.75;}
	.st3{fill:#F4D537;}
	.st4{fill:#FFFFFF;}
</style>
<path class="st0" d="M533.7,886C771,833.3,921.5,594.6,869.8,352.8S583.7-42.3,346.3,10.4S-41.5,301.8,10.2,543.6
	S296.3,938.6,533.7,886z"/>
<ellipse class="st1" cx="409.1" cy="431" rx="371.8" ry="384"/>
<ellipse class="st0" cx="384.6" cy="407.7" rx="331.8" ry="342.6"/>
<g>
	<g class="st2">
		<path class="st1" d="M209.5,704c59.4,57.4,141.5,87.8,237.5,87.8s178-30.3,237.5-87.8c19.6-18.9,36.3-40.6,50.2-64.7H159.4
			C173.2,663.4,190,685.1,209.5,704z"/>
		<ellipse class="st1" cx="360.1" cy="243.7" rx="47.5" ry="46"/>
		<ellipse class="st1" cx="533.9" cy="243.7" rx="47.5" ry="46"/>
		<polygon class="st1" points="398.5,289.7 511.5,286.7 461.5,337.7 		"/>
		<path class="st1" d="M447,86.4C325,86.4,222.2,210,163.5,351h566.9C671.8,210,569,86.4,447,86.4z M380.4,277.4
			c-5.4,3.4-11.9,5.4-18.7,5.4c-19.5,0-35.4-15.9-35.4-35.4c0-16.2,11-29.9,25.9-34.1c3-0.8,6.2-1.3,9.5-1.3
			c19.5,0,35.4,15.9,35.4,35.4C397.1,260,390.4,271.1,380.4,277.4z M453.3,331.3L407,294.6l0-0.1l90.8-0.1L453.3,331.3z
			 M532.3,282.8c-5.4,0-10.4-1.2-15-3.4c-12-5.7-20.4-17.9-20.4-32c0-19.5,15.9-35.4,35.4-35.4c3.7,0,7.3,0.6,10.7,1.7
			c14.3,4.5,24.6,17.9,24.6,33.7C567.7,266.9,551.8,282.8,532.3,282.8z"/>
		<path class="st1" d="M41.4,570.4v18.2h214v-18.2h-86.9l1.2-15h83.2v-18.2h-81.6l0.8-9.9h76.3l3.8-74.5h-74l0.8-8.6h77.6v-18.2
			h-76.2l0.8-8.9h70.2v-18.2H46.5V417h83l-0.7,8.9h-88v18.2h86.4l-0.7,8.6H53.2l-12.5,74.5h79.8l-0.9,9.9H46.5v18.2h71.6l-1.2,15
			H41.4L41.4,570.4z M176.8,469.4H201l-0.8,11.7h-24.4L176.8,469.4z M174.6,496.3h24.5l-1,14.2h-24.7L174.6,496.3z M101.9,469.4
			h23.4l-1,11.7h-24L101.9,469.4z M95.8,510.5l2.1-14.2H123l-1.2,14.2H95.8z"/>
		<polygon class="st1" points="484.4,428 484.4,405.2 424.5,405.2 427.3,394.2 367.4,394.2 364.6,405.2 286.1,405.2 268.5,588.6 
			319.3,588.6 329.7,484.4 354.1,484.4 319.9,588.6 371.9,588.6 405.4,484.4 408,484.4 427.3,588.6 478.6,588.6 455.5,484.4 
			483.1,484.4 483.1,463.1 412.3,463.1 420.8,436.8 369.7,436.8 361,463.1 331.8,463.1 335.3,428 		"/>
		<polygon class="st1" points="659.3,483.4 668.6,393.9 512,393.9 512,416.2 608.2,416.2 602.8,461.2 506.5,461.2 496.2,579.6 
			654.5,579.6 654.5,557.3 556.6,557.3 563,483.4 		"/>
		<path class="st1" d="M700.1,394.2l-17,185.5h157.5l12.7-185.5L700.1,394.2L700.1,394.2z M785.4,557.5h-43.7l6.8-73.6h41.9
			L785.4,557.5z M792,461.5h-41.3l4.2-45.1H795L792,461.5z"/>
	</g>
	<g>
		<g>
			<path class="st3" d="M202.5,697c59.4,57.4,141.5,87.8,237.5,87.8s178-30.3,237.5-87.8c19.6-18.9,36.3-40.6,50.2-64.7H152.4
				C166.2,656.4,183,678.1,202.5,697z"/>
			<g>
				<ellipse class="st1" cx="353.1" cy="236.7" rx="47.5" ry="46"/>
				<ellipse class="st1" cx="526.9" cy="236.7" rx="47.5" ry="46"/>
				<polygon class="st1" points="391.5,282.7 504.5,279.7 454.5,330.7 				"/>
			</g>
			<path class="st3" d="M440,79.4C318,79.4,215.2,203,156.5,344h566.9C664.8,203,562,79.4,440,79.4z M373.4,270.4
				c-5.4,3.4-11.9,5.4-18.7,5.4c-19.5,0-35.4-15.9-35.4-35.4c0-16.2,11-29.9,25.9-34.1c3-0.8,6.2-1.3,9.5-1.3
				c19.5,0,35.4,15.9,35.4,35.4C390.1,253,383.4,264.1,373.4,270.4z M446.3,324.3L400,287.6l0-0.1l90.8-0.1L446.3,324.3z
				 M525.3,275.8c-5.4,0-10.4-1.2-15-3.4c-12-5.7-20.4-17.9-20.4-32c0-19.5,15.9-35.4,35.4-35.4c3.7,0,7.3,0.6,10.7,1.7
				c14.3,4.5,24.6,17.9,24.6,33.7C560.7,259.9,544.8,275.8,525.3,275.8z"/>
			<path class="st4" d="M34.4,563.4v18.2h214v-18.2h-86.9l1.2-15h83.2v-18.2h-81.6l0.8-9.9h76.3l3.8-74.5h-74l0.8-8.6h77.6v-18.2
				h-76.2l0.8-8.9h70.2v-18.2H39.5V410h83l-0.7,8.9h-88v18.2h86.4l-0.7,8.6H46.2l-12.5,74.5h79.8l-0.9,9.9H39.5v18.2h71.6l-1.2,15
				H34.4L34.4,563.4z M169.8,462.4H194l-0.8,11.7h-24.4L169.8,462.4z M167.6,489.3h24.5l-1,14.2h-24.7L167.6,489.3z M94.9,462.4
				h23.4l-1,11.7h-24L94.9,462.4z M88.8,503.5l2.1-14.2H116l-1.2,14.2H88.8z"/>
			<polygon class="st4" points="477.4,421 477.4,398.2 417.5,398.2 420.3,387.2 360.4,387.2 357.6,398.2 279.1,398.2 261.5,581.6 
				312.3,581.6 322.7,477.4 347.1,477.4 312.9,581.6 364.9,581.6 398.4,477.4 401,477.4 420.3,581.6 471.6,581.6 448.5,477.4 
				476.1,477.4 476.1,456.1 405.3,456.1 413.8,429.8 362.7,429.8 354,456.1 324.8,456.1 328.3,421 			"/>
			<polygon class="st4" points="652.3,476.4 661.6,386.9 505,386.9 505,409.2 601.2,409.2 595.8,454.2 499.5,454.2 489.2,572.6 
				647.5,572.6 647.5,550.3 549.6,550.3 556,476.4 			"/>
			<path class="st4" d="M693.1,387.2l-17,185.5h157.5l12.7-185.5L693.1,387.2L693.1,387.2z M778.4,550.5h-43.7l6.8-73.6h41.9
				L778.4,550.5z M785,454.5h-41.3l4.2-45.1H788L785,454.5z"/>
		</g>
	</g>
</g>
</svg>
