<?xml version="1.0" encoding="utf-8"?>
<!-- Generator: Adobe Illustrator 21.1.0, SVG Export Plug-In . SVG Version: 6.00 Build 0)  -->
<svg version="1.1" id="图层_1" xmlns="http://www.w3.org/2000/svg" xmlns:xlink="http://www.w3.org/1999/xlink" x="0px" y="0px"
	 viewBox="0 0 880 896.3" style="enable-background:new 0 0 880 896.3;" xml:space="preserve">
<style type="text/css">
	.st0{fill:#409196;}
	.st1{fill:#174C4F;}
	.st2{enable-background:new    ;}
	.st3{fill:#FFFFFF;}
	.st4{fill:#F4D43A;}
	.st5{fill:#0D4C48;}
</style>
<path class="st0" d="M533.7,886C771,833.3,921.6,594.6,869.8,352.8C818.1,111,583.7-42.3,346.3,10.4S-41.5,301.8,10.2,543.6
	S296.3,938.6,533.7,886z"/>
<ellipse class="st1" cx="409.1" cy="431" rx="371.8" ry="384"/>
<ellipse class="st0" cx="384.6" cy="407.7" rx="331.8" ry="342.6"/>
<image style="overflow:visible;opacity:0.75;enable-background:new    ;" width="1024" height="1024" xlink:href="B4538574.png"  transform="matrix(1 0 0 1 -8478.4004 -8346.8457)">
</image>
<g>
	<g>
		<polygon class="st1" points="645.5,512.2 653.9,423.2 511.8,423.2 511.8,445.3 599.1,445.3 594.2,490.1 506.8,490.1 497.4,608 
			641.1,608 641.1,585.8 552.2,585.8 558.1,512.2 		"/>
		<path class="st1" d="M682.5,423.4l-15.4,184.7H810l11.5-184.7H682.5z M759.9,585.9h-39.6l6.2-73.3h38L759.9,585.9z M765.9,490.4
			h-37.5l3.8-44.9h36.4L765.9,490.4z"/>
		<g class="st2">
			<path class="st1" d="M94.8,569.5h-7.4l5.7,38.9H72.3l-4.9-38.9h-4l-8.2,38.8H33.5l8.7-38.8h-8.4v-20.2h3.9l2.6-92.5h-6.7v-20.2
				h7.3l0.3-13.1h22.3l-0.3,13.1h7.3l0.3-13.1h21.8l-0.2,13.1H99l0.3-8.9h46v20.2h-25.4l-0.8,28.6H145l-2.4,131.8h-20.3l2.8-113
				h-6.5l-3.2,113H93.5L94.8,569.5z M60.1,549.3h8.1l0.4-20.8h-7.9L60.1,549.3z M69,509.7l0.3-17.6h-7.7l-0.5,17.6H69z M62.6,456.8
				l-0.4,16.6h7.6l0.3-16.6H62.6L62.6,456.8z M95.4,549.3l2.9-92.5H92l-1.6,92.5H95.4z"/>
			<path class="st1" d="M193.1,531.8h-39.3l6.9-104.2h100.4l-2.8,104.2h-38l-0.6,14.9h41.4v18.7h-42.2l-1,24.1h45.5v18.7h-112v-18.7
				h39l1.1-24.1h-37.9v-18.7h38.7L193.1,531.8z M195.2,486.5h-12.6l-1.7,26.6H194L195.2,486.5z M196,469.1l1-22.8h-11.9l-1.4,22.8
				H196z M222.3,486.5l-1.1,26.6h11.7l1-26.6H222.3z M223,469.1h11.6l0.9-22.8h-11.5L223,469.1z"/>
			<path class="st1" d="M269.9,604.8v-21.7h111.6v21.7H269.9z M283.8,436.6l-3.1-13h28.2l3.5,13H341l2.8-13h28.5l-2.8,13h12.1v21.7
				h-111v-21.7L283.8,436.6L283.8,436.6z M274.5,522.1v-20.2h103.4v20.2H274.5z"/>
			<path class="st1" d="M450.7,440H496v18.7h-46l-1,27.4h50.8v20.2h-54.6l-4,102h-28.5l4.4-102h-29.1v-20.2h33l2.6-62.9h27.6
				L450.7,440z M448.6,512.9h25.6l18.7,91.9h-26.5L448.6,512.9z"/>
		</g>
	</g>
</g>
<polygon class="st3" points="649.2,496.2 657.7,407.1 515.6,407.1 515.6,429.3 602.9,429.3 597.9,474 510.6,474 501.2,591.9 
	644.9,591.9 644.9,569.8 556,569.8 561.8,496.2 "/>
<path class="st3" d="M686.3,407.4l-15.4,184.7h142.9l11.5-184.7H686.3z M763.7,569.9h-39.6l6.2-73.3h38L763.7,569.9z M769.7,474.4
	h-37.5l3.8-44.9h36.4L769.7,474.4z"/>
<path class="st4" d="M198.3,706c57.8,55.9,137.8,85.4,231.1,85.4c93.4,0,173.3-29.5,231.1-85.4c19-18.4,35.3-39.5,48.8-63H149.5
	C163,666.5,179.3,687.6,198.3,706z"/>
<ellipse class="st5" cx="426.5" cy="262.7" rx="138" ry="78"/>
<path class="st4" d="M429.5,104.9c-118.7,0-218.8,120.3-275.9,257.5h551.8C648.3,225.2,548.2,104.9,429.5,104.9z M364.7,290.8
	c-5.3,3.3-11.5,5.2-18.2,5.2c-19,0-34.4-15.4-34.4-34.4c0-15.8,10.7-29.1,25.2-33.1c2.9-0.8,6-1.3,9.2-1.3c19,0,34.4,15.4,34.4,34.4
	C380.9,273.9,374.4,284.7,364.7,290.8z M435.6,343.3l-45-35.8l0-0.1l88.4,0L435.6,343.3z M512.5,296c-5.2,0-10.2-1.2-14.6-3.3
	c-11.7-5.5-19.8-17.4-19.8-31.2c0-19,15.4-34.4,34.4-34.4c3.6,0,7.1,0.6,10.4,1.6c13.9,4.4,24,17.5,24,32.8
	C546.9,280.6,531.5,296,512.5,296z"/>
<g class="st2">
	<path class="st3" d="M98.6,553.5h-7.4l5.7,38.9H76.1l-4.9-38.9h-4L59,592.3H37.3l8.7-38.8h-8.4v-20.2h3.9l2.6-92.5h-6.7v-20.2h7.3
		l0.3-13.1h22.3l-0.3,13.1h7.3l0.3-13.1h21.8l-0.2,13.1h6.7l0.3-8.9h46v20.2h-25.4l-0.8,28.6h25.8l-2.4,131.8H126l2.8-113h-6.5
		l-3.2,113H97.3L98.6,553.5z M63.9,533.3h8.1l0.4-20.8h-7.9L63.9,533.3z M72.7,493.7l0.3-17.6h-7.7L65,493.7H72.7z M66.3,440.7
		l-0.4,16.6h7.6l0.3-16.6L66.3,440.7L66.3,440.7z M99.2,533.3l2.9-92.5h-6.4l-1.6,92.5H99.2z"/>
	<path class="st3" d="M196.9,515.8h-39.3l6.9-104.2H265l-2.8,104.2h-38l-0.6,14.9H265v18.7h-42.2l-1,24.1h45.5v18.7h-112v-18.7h39
		l1.1-24.1h-37.9v-18.7h38.7L196.9,515.8z M199,470.5h-12.6l-1.7,26.6h13.1L199,470.5z M199.7,453.1l1-22.8h-11.9l-1.4,22.8H199.7z
		 M226,470.5l-1.1,26.6h11.7l1-26.6H226z M226.7,453.1h11.6l0.9-22.8h-11.5L226.7,453.1z"/>
	<path class="st3" d="M273.7,588.8v-21.7h111.6v21.7H273.7z M287.5,420.6l-3.1-13h28.2l3.5,13h28.7l2.8-13H376l-2.8,13h12.1v21.7
		h-111v-21.7H287.5z M278.3,506.1v-20.2h103.4v20.2H278.3z"/>
	<path class="st3" d="M454.5,424h45.3v18.7h-46l-1,27.4h50.8v20.2H449l-4,102h-28.5l4.4-102h-29.1v-20.2h33l2.6-62.9h27.6L454.5,424
		z M452.4,496.9h25.6l18.7,91.9h-26.5L452.4,496.9z"/>
</g>
</svg>
