<?xml version="1.0" encoding="utf-8"?>
<!-- Generator: Adobe Illustrator 24.0.1, SVG Export Plug-In . SVG Version: 6.00 Build 0)  -->
<svg version="1.1" id="图层_1" xmlns="http://www.w3.org/2000/svg" xmlns:xlink="http://www.w3.org/1999/xlink" x="0px" y="0px"
	 viewBox="0 0 880 896.3" style="enable-background:new 0 0 880 896.3;" xml:space="preserve">
<style type="text/css">
	.st0{fill:#D4254F;}
	.st1{fill:#870A28;}
	.st2{opacity:0.75;}
	.st3{fill:#F4D537;}
	.st4{fill:#FFFFFF;}
</style>
<path class="st0" d="M533.7,885.9C771,833.2,921.5,594.5,869.8,352.7S583.7-42.3,346.3,10.3S-41.5,301.8,10.2,543.5
	S296.3,938.6,533.7,885.9z"/>
<ellipse class="st1" cx="409.1" cy="431" rx="371.8" ry="384"/>
<ellipse class="st0" cx="384.6" cy="407.7" rx="331.8" ry="342.6"/>
<g>
	<g class="st2">
		<path class="st1" d="M229.3,686.1c53.8,52,128.2,79.5,215,79.5c86.9,0,161.2-27.5,215-79.5c17.7-17.1,32.9-36.7,45.4-58.6H183.9
			C196.4,649.4,211.6,669,229.3,686.1z"/>
		<ellipse class="st1" cx="444.2" cy="285.6" rx="154.3" ry="68"/>
		<path class="st1" d="M444.3,126.8c-110.5,0-203.5,111.9-256.7,239.6H701C647.9,238.8,554.8,126.8,444.3,126.8z M384.1,299.8
			c-4.9,3.1-10.7,4.9-17,4.9c-17.7,0-32-14.4-32-32c0-14.7,9.9-27.1,23.4-30.8c2.7-0.8,5.6-1.2,8.6-1.2c17.7,0,32,14.4,32,32
			C399.1,284,393.1,294.1,384.1,299.8z M450,348.6l-41.9-33.3v-0.1h82.3L450,348.6z M521.6,304.6c-4.9,0-9.5-1.1-13.6-3
			c-10.9-5.1-18.4-16.2-18.4-29c0-17.7,14.4-32,32-32c3.4,0,6.6,0.5,9.7,1.5c12.9,4.1,22.3,16.2,22.3,30.5
			C553.6,290.3,539.2,304.6,521.6,304.6z"/>
	</g>
	<g>
		<g>
			<path class="st3" d="M222.3,679.1c53.8,52,128.2,79.5,215,79.5c86.9,0,161.2-27.5,215-79.5c17.7-17.1,32.9-36.7,45.4-58.6H176.9
				C189.4,642.4,204.6,662,222.3,679.1z"/>
			<ellipse class="st1" cx="437.2" cy="278.6" rx="154.4" ry="68"/>
			<path class="st3" d="M437.3,119.8c-110.5,0-203.5,111.9-256.7,239.6H694C640.9,231.8,547.8,119.8,437.3,119.8z M377.1,292.8
				c-4.9,3.1-10.7,4.9-17,4.9c-17.7,0-32-14.4-32-32c0-14.7,9.9-27.1,23.4-30.8c2.7-0.8,5.6-1.2,8.6-1.2c17.7,0,32,14.4,32,32
				C392.1,277,386.1,287.1,377.1,292.8z M443,341.6l-41.9-33.3v-0.1h82.3L443,341.6z M514.6,297.6c-4.9,0-9.5-1.1-13.6-3
				c-10.9-5.1-18.4-16.2-18.4-29c0-17.7,14.4-32,32-32c3.4,0,6.6,0.5,9.7,1.5c12.9,4.1,22.3,16.2,22.3,30.5
				C546.6,283.3,532.2,297.6,514.6,297.6z"/>
		</g>
	</g>
</g>
<g>
	<path class="st1" d="M58.9,559.4L69.1,486H186l-2.6,73.4H58.9z M63.3,476.7l-0.1-12.4l28.5-37.7h38.9l-26.7,35.6h51.7l-4.8-20h30.2
		l8.5,34.5H63.3z M95.6,546h54.4l2.6-46.5h-50.9L95.6,546z"/>
	<path class="st1" d="M234.3,498.6l-11.9,60.9H196l13.2-60.9H234.3z M232.3,458.4h-25.4l-7.3-28.4h25.1L232.3,458.4z M233.7,493
		h-25.5l-6.7-30.3h24.8L233.7,493z M257.8,446.5h-1.4l-8.5,29.5h-17.2l9.6-29.5h-7.2V433h33.2l2-6.3h29.6l-2,6.3h33.3v13.5h-6.8
		l5.9,29.5h-17l-5-29.5h-1.5l-1.8,31.3h-21.3l1.8-31.3h-4.3l-2.8,31.3h-21.8L257.8,446.5z M327.7,521.7l-2.6,37.9h-86v-12.5h56.3
		l1.3-13h-62l6.2-33h55.2l0.9-7.8h-60.3V481h90.2l-2.2,32.8h-57.1l-1.4,8H327.7z"/>
	<path class="st1" d="M355.3,527.4h33.6l-19,32.4h-33.6L355.3,527.4z M443.1,492.4l-1.8,18.7h26.1v12.5H336.5v-12.5h6.7l6.2-52.6
		h114.5v12.5H381l-1.1,10.1h85.8v11.4H443.1z M388.4,432.6l2.2-5.9h35.7l-2.3,5.9h43.6l-2,22.2h-30.1l1.1-8.7h-66l-2.4,8.7h-31.2
		l6.9-22.2H388.4z M408.9,511.1l2.1-18.7h-32.3l-1.9,18.7H408.9z M450.3,527.4l13.9,32.4h-31.8l-13.6-32.4H450.3z"/>
	<path class="st1" d="M526.4,491.6h-48.1l9.1-61.9h118l-2.9,61.9h-43.8l-0.4,7h49v13.5h-16.6l13.2,47.5H574l-11.7-47.5h-4.8l-3,49.3
		h-33.3l3.7-49.3h-2.9L505,559.7h-30.3l18.5-47.5h-17.6v-13.5h50.3L526.4,491.6z M528.2,466.8h-15.6l-1.5,11.4h16.2L528.2,466.8z
		 M530,443.3h-14.3l-1.4,11h14.9L530,443.3z M560.1,466.8l-0.7,11.4h13.4l0.7-11.4H560.1z M560.9,454.3h13.4l0.7-11h-13.4
		L560.9,454.3z"/>
	<path class="st1" d="M702.2,491.1h-51.9l-3.5,44.7h52.8v13.5h-85.4l5.6-71.7h51.9l2.9-27.2h-51.8v-13.5h84.4L702.2,491.1z"/>
	<path class="st1" d="M806.8,437.1l-6.9,112.3H715l9.2-112.3H806.8z M772.9,491.3h-22.6l-3.7,44.6h23.5L772.9,491.3z M773.7,477.8
		l1.6-27.3h-21.6l-2.2,27.3H773.7z"/>
</g>
<g>
	<path class="st4" d="M48.9,549.4L59.1,476H176l-2.6,73.4H48.9z M53.3,466.7l-0.1-12.4l28.5-37.7h38.9l-26.7,35.6h51.7l-4.8-20h30.2
		l8.5,34.5H53.3z M85.6,536h54.4l2.6-46.5H91.7L85.6,536z"/>
	<path class="st4" d="M224.3,488.6l-11.9,60.9H186l13.2-60.9H224.3z M222.3,448.4h-25.4l-7.3-28.4h25.1L222.3,448.4z M223.7,483
		h-25.5l-6.7-30.3h24.8L223.7,483z M247.8,436.5h-1.4l-8.5,29.5h-17.2l9.6-29.5h-7.2V423h33.2l2-6.3h29.6l-2,6.3h33.3v13.5h-6.8
		l5.9,29.5h-17l-5-29.5h-1.5l-1.8,31.3h-21.3l1.8-31.3h-4.3l-2.8,31.3h-21.8L247.8,436.5z M317.7,511.7l-2.6,37.9h-86v-12.5h56.3
		l1.3-13h-62l6.2-33h55.2l0.9-7.8h-60.3V471h90.2l-2.2,32.8h-57.1l-1.4,8H317.7z"/>
	<path class="st4" d="M345.3,517.4h33.6l-19,32.4h-33.6L345.3,517.4z M433.1,482.4l-1.8,18.7h26.1v12.5H326.5v-12.5h6.7l6.2-52.6
		h114.5v12.5H371l-1.1,10.1h85.8v11.4H433.1z M378.4,422.6l2.2-5.9h35.7l-2.3,5.9h43.6l-2,22.2h-30.1l1.1-8.7h-66l-2.4,8.7h-31.2
		l6.9-22.2H378.4z M398.9,501.1l2.1-18.7h-32.3l-1.9,18.7H398.9z M440.3,517.4l13.9,32.4h-31.8l-13.6-32.4H440.3z"/>
	<path class="st4" d="M516.4,481.6h-48.1l9.1-61.9h118l-2.9,61.9h-43.8l-0.4,7h49v13.5h-16.6l13.2,47.5H564l-11.7-47.5h-4.8l-3,49.3
		h-33.3l3.7-49.3h-2.9L495,549.7h-30.3l18.5-47.5h-17.6v-13.5h50.3L516.4,481.6z M518.2,456.8h-15.6l-1.5,11.4h16.2L518.2,456.8z
		 M520,433.3h-14.3l-1.4,11h14.9L520,433.3z M550.1,456.8l-0.7,11.4h13.4l0.7-11.4H550.1z M550.9,444.3h13.4l0.7-11h-13.4
		L550.9,444.3z"/>
	<path class="st4" d="M692.2,481.1h-51.9l-3.5,44.7h52.8v13.5h-85.4l5.6-71.7h51.9l2.9-27.2h-51.8v-13.5h84.4L692.2,481.1z"/>
	<path class="st4" d="M796.8,427.1l-6.9,112.3H705l9.2-112.3H796.8z M762.9,481.3h-22.6l-3.7,44.6h23.5L762.9,481.3z M763.7,467.8
		l1.6-27.3h-21.6l-2.2,27.3H763.7z"/>
</g>
</svg>
