<?xml version="1.0" encoding="utf-8"?>
<!-- Generator: Adobe Illustrator 21.1.0, SVG Export Plug-In . SVG Version: 6.00 Build 0)  -->
<svg version="1.1" id="图层_1" xmlns="http://www.w3.org/2000/svg" xmlns:xlink="http://www.w3.org/1999/xlink" x="0px" y="0px"
	 viewBox="0 0 880 896.3" style="enable-background:new 0 0 880 896.3;" xml:space="preserve">
<style type="text/css">
	.st0{fill:#8D9111;}
	.st1{fill:#454702;}
	.st2{fill:#F4D43A;}
	.st3{fill:#00320D;}
	.st4{fill:#FFFFFF;}
</style>
<path class="st0" d="M533.7,886C771,833.3,921.6,594.6,869.8,352.8C818.1,111,583.7-42.3,346.3,10.4S-41.5,301.8,10.2,543.6
	S296.3,938.6,533.7,886z"/>
<ellipse class="st1" cx="409.1" cy="431" rx="371.8" ry="384"/>
<ellipse class="st0" cx="384.6" cy="407.7" rx="331.8" ry="342.6"/>
<image style="overflow:visible;opacity:0.75;enable-background:new    ;" width="1024" height="1024" xlink:href="67BC389F.png"  transform="matrix(1 0 0 1 -8478.4004 -8346.8457)">
</image>
<path class="st2" d="M192,702.6c59.2,57.2,141.1,87.5,236.7,87.5c95.6,0,177.4-30.2,236.7-87.5c19.5-18.8,36.2-40.4,50-64.5H142
	C155.8,662.1,172.5,683.7,192,702.6z"/>
<ellipse class="st1" cx="435.8" cy="264.9" rx="154.8" ry="74.6"/>
<path class="st2" d="M428.7,87.1c-121.6,0-224,123.2-282.5,263.7h565C652.7,210.2,550.3,87.1,428.7,87.1z M362.4,277.4
	c-5.4,3.4-11.8,5.4-18.7,5.4c-19.4,0-35.2-15.8-35.2-35.2c0-16.2,10.9-29.8,25.8-33.9c3-0.8,6.2-1.3,9.5-1.3
	c19.4,0,35.2,15.8,35.2,35.2C378.9,260.1,372.3,271.1,362.4,277.4z M434.9,331.1l-46.1-36.6v-0.1l90.5,0L434.9,331.1z M513.7,282.7
	c-5.3,0-10.4-1.2-15-3.3c-12-5.6-20.3-17.8-20.3-31.9c0-19.4,15.8-35.2,35.2-35.2c3.7,0,7.3,0.6,10.7,1.7
	c14.2,4.5,24.6,17.9,24.6,33.6C548.9,266.9,533.1,282.7,513.7,282.7z"/>
<g>
	<g>
		<polygon class="st3" points="611.4,494.3 620.1,403.1 474.6,403.1 474.6,425.8 563.9,425.8 558.9,471.6 469.4,471.6 459.8,592.3 
			607,592.3 607,569.6 516,569.6 521.9,494.3 		"/>
		<path class="st3" d="M649.3,403.4l-15.8,189.1h146.3l11.8-189.1L649.3,403.4L649.3,403.4z M728.6,569.8h-40.6l6.3-75h39
			L728.6,569.8z M734.7,472h-38.4l3.9-45.9h37.3L734.7,472z"/>
		<g>
			<path class="st3" d="M116.2,414.8h4.8v20.7h-5.5l-1.4,40.1l6.9-2.6v22.2l-7.8,3l-3.4,94.5H65.7v-20.7h10.1l2.2-59.8l-11.8,4.7
				V494l12.7-4.9l2-53.7H66.2v-20.7h15.5l0.4-11.3h34.7L116.2,414.8z M154.8,533.8h-8.2l-4.7,59h-25.5l5.1-59h-4.2v-19.3h5.9
				l3.3-36.9h-4.1v-19.3h5.8l2.6-29.8h-7.5v-20.9h62.6l-6.6,185.2h-27.1L154.8,533.8z M155.6,514.5l1.7-36.9H151l-2.9,36.9H155.6z
				 M152.5,458.3h5.6l1.3-29.8h-4.5L152.5,458.3z M215.7,429.8l-4.9,162.9h-25.8l4.8-185.2h57.6v23.2l-8.2,47.7h8.2l-6.9,109h-24.1
				l6.7-90.8h-6v-12.5l9.4-54.3L215.7,429.8L215.7,429.8z"/>
			<path class="st3" d="M306.7,476.7h5.4l0.5-7.4h28.1l-0.6,7.4h7.5l0.4-7.4h28.1l-0.4,7.4h5.4V496h-6.5l-1.9,34.6l-6.2,21.2
				l9.6,40.8h-29.5l-6.9-36.9l-9.6,36.9h-30.5l14.3-42.5l-5.8-17.8l2.5-36.3H305l-8.5,96.6H257l15.7-176.9h102.5l-1.7-12.4h35.4
				l1.9,12.4h6l-1.2-8.2h20.7l3.4,28.9h-25.8l5.9,38.8l19.1-11.4v26.1l-15.5,9.3l14,93.3h-37.6l-10.1-73l-11.8,7.3v-26.8l8.3-5
				l-8.1-58.8h-68l-0.7,8.5h67.4v17.8h-69L306.7,476.7z M346.5,496h-8l-2.2,27.2l3.9,17.5l4.8-17.5L346.5,496z"/>
		</g>
	</g>
</g>
<g>
	<polygon class="st4" points="613.4,487.7 622,396.5 476.5,396.5 476.5,419.2 565.9,419.2 560.8,465 471.4,465 461.8,585.8 
		608.9,585.8 608.9,563.1 517.9,563.1 523.9,487.7 	"/>
	<path class="st4" d="M651.3,396.8l-15.8,189.1h146.3l11.8-189.1H651.3z M730.6,563.2H690l6.3-75h39L730.6,563.2z M736.7,465.4
		h-38.4l3.9-45.9h37.3L736.7,465.4z"/>
	<g>
		<path class="st4" d="M118.1,408.2h4.8v20.7h-5.5L116,469l6.9-2.6v22.2l-7.8,3l-3.4,94.5H67.6v-20.7h10.1l2.2-59.8l-11.8,4.7v-22.9
			l12.7-4.9l2-53.7H68.1v-20.7h15.5l0.4-11.3h34.7L118.1,408.2z M156.7,527.2h-8.2l-4.7,59h-25.5l5.2-59h-4.2v-19.3h5.9l3.3-36.9
			h-4.1v-19.3h5.8l2.6-29.8h-7.5V401h62.6l-6.6,185.2h-27.1L156.7,527.2z M157.5,507.9l1.7-36.9h-6.3l-2.9,36.9H157.5z M154.4,451.8
			h5.6l1.3-29.8h-4.5L154.4,451.8z M217.7,423.2l-4.9,162.9H187l4.8-185.2h57.6v23.2l-8.2,47.7h8.2l-6.9,108.9h-24.1l6.7-90.8h-6
			v-12.5l9.4-54.3L217.7,423.2L217.7,423.2z"/>
		<path class="st4" d="M308.6,470.1h5.4l0.5-7.4h28.1l-0.6,7.4h7.5l0.4-7.4H378l-0.4,7.4h5.4v19.3h-6.5l-1.9,34.6l-6.2,21.2
			l9.6,40.8h-29.5l-6.9-36.9l-9.6,36.9h-30.5l14.3-42.5l-5.8-17.8l2.5-36.3h-5.7l-8.5,96.6H259L274.7,409h102.5l-1.7-12.4h35.4
			l1.9,12.4h6l-1.2-8.2h20.7l3.4,28.9h-25.8l5.9,38.8l19.1-11.4v26.1l-15.5,9.3l14,93.3h-37.6l-10.1-73l-11.8,7.3v-26.8l8.3-5
			l-8.1-58.8h-68l-0.7,8.5h67.4V456h-69L308.6,470.1z M348.4,489.4h-8l-2.2,27.2l3.9,17.5l4.8-17.5L348.4,489.4z"/>
	</g>
</g>
</svg>
