<?xml version="1.0" encoding="utf-8"?>
<!-- Generator: Adobe Illustrator 21.1.0, SVG Export Plug-In . SVG Version: 6.00 Build 0)  -->
<svg version="1.1" id="图层_1" xmlns="http://www.w3.org/2000/svg" xmlns:xlink="http://www.w3.org/1999/xlink" x="0px" y="0px"
	 viewBox="0 0 880 896.3" style="enable-background:new 0 0 880 896.3;" xml:space="preserve">
<style type="text/css">
	.st0{fill:#12916E;}
	.st1{fill:#024432;}
	.st2{opacity:0.75;}
	.st3{fill:#FFFFFF;}
	.st4{fill:#F4D537;}
</style>
<path class="st0" d="M533.7,886C771,833.3,921.5,594.6,869.8,352.8S583.7-42.3,346.3,10.4S-41.5,301.8,10.2,543.6
	S296.3,938.6,533.7,886z"/>
<ellipse class="st1" cx="409.1" cy="431" rx="371.8" ry="384"/>
<ellipse class="st0" cx="384.6" cy="407.7" rx="331.8" ry="342.6"/>
<g>
	<g class="st2">
		<path class="st1" d="M168.2,588.7H208l7.7-113.9h9.7l-4.8,113.9h38.8l4.5-132.9H217l2-28.9h46v-20.4h-83.2l-0.4,4.8h-40.1l4.3-9.1
			H98l-4.3,9.1H56.8v20.4h77.3l-7.8,20.1H167l6.3-20.1h6.6l-1.9,26.3h-68l-5.9-20H63.5l5.8,20H56.3v20.4h40.4l-0.6,15.9H56.8v20.4
			h10.4L55.4,588h29.3l10-73.1h3.1l-4.2,73.9h39.2l3.1-73.9h2l3.7,73.1h26.5L168.2,588.7L168.2,588.7z M140,494.4l1.2-15.9h35.3
			l-1.2,15.9H140z M165.1,514.9h8.6l-4.8,66L165.1,514.9z"/>
		<rect x="350.1" y="489.8" class="st1" width="132.9" height="14.6"/>
		<path class="st1" d="M278,571.5v17.5h65l6-114.3h-36.1l2-15.3h32.8l2.8-52.9h-72.6v17.9h36.3l-1.3,16.8h-29.9l-5.6,51.8H314
			l-0.9,12.6h-6.4l0.3-7.3h-21.4l-0.3,7.3H276v14.5h8.6l-1.5,29.1h-7.4v14.6h33.8l-0.5,7.6L278,571.5L278,571.5z M304.3,549.3
			l1.5-29.1h6.4l-1.9,29.1H304.3z"/>
		<path class="st1" d="M359.7,428.4l-8,56.8h127.8l2.4-56.8H359.7L359.7,428.4z M400.9,470.5h-12.3l1-7.8h12.1L400.9,470.5z
			 M402.9,449.5h-12l0.7-6.5h11.8L402.9,449.5z M445.9,470.5h-12.9l0.6-7.8h12.6L445.9,470.5z M447,449.5h-12.2l0.5-6.5h12
			L447,449.5z"/>
		<rect x="355.1" y="406.6" class="st1" width="128.8" height="16"/>
		<path class="st1" d="M480.6,509.6h-126l-7.8,57.3h131.4L480.6,509.6z M398.2,552.4h-13.8l1.1-8.6h13.6L398.2,552.4z M400.2,530.8
			H387l0.7-6.6h13.1L400.2,530.8z M443.4,552.4h-13l0.7-8.6H444L443.4,552.4z M444.6,530.8h-12.4l0.5-6.6H445L444.6,530.8z"/>
		<rect x="346.1" y="572.7" class="st1" width="136.8" height="15.9"/>
		<polygon class="st1" points="651.8,495.9 660.8,409.7 509.9,409.7 509.9,431.2 602.6,431.2 597.3,474.5 504.6,474.5 494.6,588.6 
			647.2,588.6 647.2,567.1 552.8,567.1 559,495.9 		"/>
		<path class="st1" d="M691.1,410l-16.4,178.7h151.7L838.6,410L691.1,410L691.1,410z M773.3,567.2h-42.1l6.5-70.9h40.4L773.3,567.2z
			 M779.6,474.8h-39.8l4-43.4h38.7L779.6,474.8z"/>
		<path class="st1" d="M216.7,699.6c57.6,55.7,137.3,85.1,230.3,85.1s172.6-29.4,230.3-85.1c19-18.3,35.2-39.3,48.6-62.7H168.1
			C181.5,660.3,197.8,681.3,216.7,699.6z"/>
		<ellipse class="st1" cx="455.5" cy="271.7" rx="154" ry="72"/>
		<path class="st1" d="M447,100.8c-118.3,0-217.9,119.8-274.9,256.5h549.7C665,220.6,565.3,100.8,447,100.8z M382.5,285.9
			c-5.3,3.3-11.5,5.2-18.2,5.2c-18.9,0-34.3-15.4-34.3-34.3c0-15.7,10.6-29,25.1-33c2.9-0.8,6-1.3,9.2-1.3
			c18.9,0,34.3,15.4,34.3,34.3C398.6,269.1,392.1,279.9,382.5,285.9z M453.1,338.3l-44.9-35.7l0-0.1l88.1,0L453.1,338.3z
			 M529.7,291.2c-5.2,0-10.1-1.2-14.5-3.2c-11.7-5.5-19.7-17.3-19.7-31c0-18.9,15.4-34.3,34.3-34.3c3.6,0,7.1,0.6,10.4,1.6
			c13.8,4.4,23.9,17.4,23.9,32.7C564,275.8,548.6,291.2,529.7,291.2z"/>
	</g>
	<g>
		<g>
			<path class="st3" d="M161.2,581.7H201l7.7-113.9h9.7l-4.8,113.9h38.8l4.5-132.9H210l2-28.9h46v-20.4h-83.2l-0.4,4.8h-40.1
				l4.3-9.1H91l-4.3,9.1H49.8v20.4h77.3l-7.8,20.1H160l6.3-20.1h6.6l-1.9,26.3h-68l-5.9-20H56.5l5.8,20H49.3v20.4h40.4l-0.6,15.9
				H49.8v20.4h10.4L48.4,581h29.3l10-73.1h3.1l-4.2,73.9h39.2l3.1-73.9h2l3.7,73.1h26.5L161.2,581.7L161.2,581.7z M133,487.4
				l1.2-15.9h35.3l-1.2,15.9H133z M158.1,507.9h8.6l-4.8,66L158.1,507.9z"/>
			<rect x="343.1" y="482.8" class="st3" width="132.9" height="14.6"/>
			<path class="st3" d="M271,564.5v17.5h65l6-114.3h-36.1l2-15.3h32.8l2.8-52.9h-72.6v17.9h36.3l-1.3,16.8h-29.9l-5.6,51.8H307
				l-0.9,12.6h-6.4l0.3-7.3h-21.4l-0.3,7.3H269v14.5h8.6l-1.5,29.1h-7.4v14.6h33.8l-0.5,7.6L271,564.5L271,564.5z M297.3,542.3
				l1.5-29.1h6.4l-1.9,29.1H297.3z"/>
			<path class="st3" d="M352.7,421.4l-8,56.8h127.8l2.4-56.8H352.7L352.7,421.4z M393.9,463.5h-12.3l1-7.8h12.1L393.9,463.5z
				 M395.9,442.5h-12l0.7-6.5h11.8L395.9,442.5z M438.9,463.5h-12.9l0.6-7.8h12.6L438.9,463.5z M440,442.5h-12.2l0.5-6.5h12
				L440,442.5z"/>
			<rect x="348.1" y="399.6" class="st3" width="128.8" height="16"/>
			<path class="st3" d="M473.6,502.6h-126l-7.8,57.3h131.4L473.6,502.6z M391.2,545.4h-13.8l1.1-8.6h13.6L391.2,545.4z M393.2,523.8
				H380l0.7-6.6h13.1L393.2,523.8z M436.4,545.4h-13l0.7-8.6H437L436.4,545.4z M437.6,523.8h-12.4l0.5-6.6H438L437.6,523.8z"/>
			<rect x="339.1" y="565.7" class="st3" width="136.8" height="15.9"/>
			<polygon class="st3" points="644.8,488.9 653.8,402.7 502.9,402.7 502.9,424.2 595.6,424.2 590.3,467.5 497.6,467.5 487.6,581.6 
				640.2,581.6 640.2,560.1 545.8,560.1 552,488.9 			"/>
			<path class="st3" d="M684.1,403l-16.4,178.7h151.7L831.6,403L684.1,403L684.1,403z M766.3,560.2h-42.1l6.5-70.9h40.4L766.3,560.2
				z M772.6,467.8h-39.8l4-43.4h38.7L772.6,467.8z"/>
			<g>
				<path class="st4" d="M209.7,692.6c57.6,55.7,137.3,85.1,230.3,85.1s172.6-29.4,230.3-85.1c19-18.3,35.2-39.3,48.6-62.7H161.1
					C174.5,653.3,190.8,674.3,209.7,692.6z"/>
				<ellipse class="st1" cx="448.5" cy="264.7" rx="154" ry="72"/>
				<path class="st4" d="M440,93.8c-118.3,0-217.9,119.8-274.9,256.5h549.7C658,213.6,558.3,93.8,440,93.8z M375.5,278.9
					c-5.3,3.3-11.5,5.2-18.2,5.2c-18.9,0-34.3-15.4-34.3-34.3c0-15.7,10.6-29,25.1-33c2.9-0.8,6-1.3,9.2-1.3
					c18.9,0,34.3,15.4,34.3,34.3C391.6,262.1,385.1,272.9,375.5,278.9z M446.1,331.3l-44.9-35.7l0-0.1l88.1,0L446.1,331.3z
					 M522.7,284.2c-5.2,0-10.1-1.2-14.5-3.2c-11.7-5.5-19.7-17.3-19.7-31c0-18.9,15.4-34.3,34.3-34.3c3.6,0,7.1,0.6,10.4,1.6
					c13.8,4.4,23.9,17.4,23.9,32.7C557,268.8,541.6,284.2,522.7,284.2z"/>
			</g>
		</g>
	</g>
</g>
</svg>
