<?xml version="1.0" encoding="utf-8"?>
<!-- Generator: Adobe Illustrator 21.1.0, SVG Export Plug-In . SVG Version: 6.00 Build 0)  -->
<svg version="1.1" id="图层_1" xmlns="http://www.w3.org/2000/svg" xmlns:xlink="http://www.w3.org/1999/xlink" x="0px" y="0px"
	 viewBox="0 0 880 896.3" style="enable-background:new 0 0 880 896.3;" xml:space="preserve">
<style type="text/css">
	.st0{fill:#007CA3;}
	.st1{fill:#003849;}
	.st2{fill:#F4D43A;}
	.st3{fill:#05394D;}
	.st4{enable-background:new    ;}
	.st5{fill:#FFFFFF;}
</style>
<path class="st0" d="M533.7,886C771,833.3,921.6,594.6,869.8,352.8C818.1,111,583.7-42.3,346.3,10.4S-41.5,301.8,10.2,543.6
	S296.3,938.6,533.7,886z"/>
<ellipse class="st1" cx="409.1" cy="431" rx="371.8" ry="384"/>
<ellipse class="st0" cx="384.6" cy="407.7" rx="331.8" ry="342.6"/>
<image style="overflow:visible;opacity:0.75;enable-background:new    ;" width="1024" height="1024" xlink:href="EA35A39C.png"  transform="matrix(1 0 0 1 -8478.4004 -8346.8457)">
</image>
<path class="st2" d="M194.4,694.2c58.6,56.6,139.6,86.5,234.1,86.5c94.6,0,175.6-29.9,234.2-86.5c19.3-18.6,35.8-40,49.5-63.8H145
	C158.6,654.2,175.2,675.5,194.4,694.2z"/>
<ellipse class="st3" cx="429.9" cy="256.2" rx="142.8" ry="71.9"/>
<path class="st2" d="M428.6,85.2c-120.3,0-221.6,121.9-279.5,260.9h559C650.2,207.1,548.9,85.2,428.6,85.2z M363,273.5
	c-5.4,3.4-11.7,5.3-18.5,5.3c-19.2,0-34.9-15.6-34.9-34.9c0-16,10.8-29.5,25.5-33.6c3-0.8,6.1-1.3,9.4-1.3
	c19.2,0,34.9,15.6,34.9,34.9C379.4,256.4,372.8,267.3,363,273.5z M434.8,326.7l-45.6-36.3l0-0.1l89.6-0.1L434.8,326.7z M512.7,278.8
	c-5.3,0-10.3-1.2-14.8-3.3c-11.8-5.6-20.1-17.6-20.1-31.6c0-19.2,15.6-34.9,34.9-34.9c3.7,0,7.2,0.6,10.6,1.6
	c14.1,4.5,24.3,17.7,24.3,33.2C547.6,263.2,531.9,278.8,512.7,278.8z"/>
<g>
	<g>
		<polygon class="st1" points="629.5,490.6 638.1,400.4 494.1,400.4 494.1,422.9 582.5,422.9 577.6,468.2 489,468.2 479.5,587.6 
			625.1,587.6 625.1,565.1 535.1,565.1 541,490.6 		"/>
		<path class="st1" d="M667,400.6l-15.6,187.1h144.8l11.7-187.1H667L667,400.6z M745.5,565.3h-40.2l6.2-74.2h38.5L745.5,565.3z
			 M751.5,468.5h-38l3.8-45.4h36.9L751.5,468.5z"/>
		<g class="st4">
			<path class="st1" d="M105.8,462.3l-23.4,64.8h20.1v20.5H52.8v-18.3L74.9,468H53.6v-18.9L74.4,401h29.8l-19.3,46.5h20.9
				L105.8,462.3L105.8,462.3z M106.1,567.5l5.5-77.5h-4.9v-20.5h6.4l3.1-44.1h-9.8v-20.5h78.6l-3.2,162.6h3.7V588H52.8v-20.5H106.1
				L106.1,567.5z M133.9,567.5h19.4l2-77.5h-16.3L133.9,567.5z M143.1,425.4l-2.9,44.1h15.6l1.1-44.1L143.1,425.4L143.1,425.4z"/>
			<path class="st1" d="M191.7,588l7-145.5h29.8l0.9-17.1h-36.3v-20.5h132.2v20.5h-29.8l-0.9,17.1h28.9L320.3,588H191.7z
				 M222.8,568.9h67.6l0.8-26.6h-30.8l3.8-80.7h-6.8l-3.8,80.7H224L222.8,568.9z M234.9,461.7h-7.1l-2.9,63.1h7L234.9,461.7z
				 M259.3,425.4l-1,17.1h6.8l0.8-17.1H259.3z M286.5,461.7l-2.8,63.1h8l1.8-63.1H286.5z"/>
			<path class="st1" d="M332.9,584.4v-22h132.3v22H332.9z M349.3,414.1l-3.7-13.2H379l4.1,13.2h34l3.3-13.2h33.8l-3.3,13.2h14.4v22
				H333.7v-22H349.3L349.3,414.1z M338.4,500.6v-20.5h122.5v20.5H338.4z"/>
		</g>
	</g>
</g>
<g>
	<polygon class="st5" points="629.5,481.7 638.1,391.4 494.1,391.4 494.1,413.9 582.5,413.9 577.6,459.2 489,459.2 479.5,578.6 
		625.1,578.6 625.1,556.2 535.1,556.2 541,481.7 	"/>
	<path class="st5" d="M667,391.7l-15.6,187.1h144.8l11.7-187.1H667L667,391.7z M745.5,556.3h-40.2l6.2-74.2h38.5L745.5,556.3z
		 M751.5,459.6h-38l3.8-45.4h36.9L751.5,459.6z"/>
	<g class="st4">
		<path class="st5" d="M105.8,453.3l-23.4,64.8h20.1v20.5H52.8v-18.3L74.9,459H53.6v-18.9L74.4,392h29.8l-19.3,46.5h20.9
			L105.8,453.3L105.8,453.3z M106.1,558.6l5.5-77.5h-4.9v-20.5h6.4l3.1-44.1h-9.8V396h78.6l-3.2,162.6h3.7V579H52.8v-20.5
			L106.1,558.6L106.1,558.6z M133.9,558.6h19.4l2-77.5h-16.3L133.9,558.6z M143.1,416.4l-2.9,44.1h15.6l1.1-44.1L143.1,416.4
			L143.1,416.4z"/>
		<path class="st5" d="M191.7,579l7-145.5h29.8l0.9-17.1h-36.3V396h132.2v20.5h-29.8l-0.9,17.1h28.9L320.3,579H191.7z M222.8,560
			h67.6l0.8-26.6h-30.8l3.8-80.7h-6.8l-3.8,80.7H224L222.8,560z M234.9,452.7h-7.1l-2.9,63.1h7L234.9,452.7z M259.3,416.4l-1,17.1
			h6.8l0.8-17.1L259.3,416.4L259.3,416.4z M286.5,452.7l-2.8,63.1h8l1.8-63.1H286.5z"/>
		<path class="st5" d="M332.9,575.4v-22h132.3v22H332.9z M349.3,405.1l-3.7-13.2H379l4.1,13.2h34l3.3-13.2h33.8l-3.3,13.2h14.4v22
			H333.7v-22H349.3z M338.4,491.6v-20.5h122.5v20.5H338.4z"/>
	</g>
</g>
</svg>
