<?xml version="1.0" encoding="utf-8"?>
<!-- Generator: Adobe Illustrator 21.1.0, SVG Export Plug-In . SVG Version: 6.00 Build 0)  -->
<svg version="1.1" id="图层_1" xmlns="http://www.w3.org/2000/svg" xmlns:xlink="http://www.w3.org/1999/xlink" x="0px" y="0px"
	 viewBox="0 0 880 896.3" style="enable-background:new 0 0 880 896.3;" xml:space="preserve">
<style type="text/css">
	.st0{fill:#9CC237;}
	.st1{fill:#5B7516;}
	.st2{fill:#A2C53C;}
	.st3{opacity:0.75;}
	.st4{fill:#FFFFFF;}
	.st5{fill:#F08318;}
	.st6{fill:#C163CC;}
	.st7{fill:#F1EB40;}
</style>
<path class="st0" d="M533.7,886C771,833.3,921.5,594.6,869.8,352.8S583.7-42.3,346.3,10.4S-41.5,301.8,10.2,543.6
	S296.3,938.6,533.7,886z"/>
<ellipse class="st1" cx="409.1" cy="431" rx="371.8" ry="384"/>
<ellipse class="st2" cx="384.6" cy="407.7" rx="331.8" ry="342.6"/>
<g>
	<g class="st3">
		<path class="st1" d="M695.8,266.8c26.1,9.5,52.3,19,78.4,28.4c-11.3-11.6-39-23.3-55-30.3c-41.5-18.3-82.9-33.8-133.4-45.5
			c-13.1-2.3-26.1-4.6-39.2-7c-0.7,8.7-4.4,12.6-7,19c-0.8,0.8-1.7,1.7-2.5,2.5C594.8,240.2,646.8,251.5,695.8,266.8z"/>
		<path class="st1" d="M480.8,170.1c-13.9,35.2-27.8,70.4-41.7,105.6h26.6c4.4-10.7,8.8-21.5,13.3-32.2c9.5-0.2,19-0.4,28.4-0.6
			c10.5-2.1,20-8.9,25.3-16.4c12.5-17.9,4.9-46-12-53.1C510.8,169.2,494,169.9,480.8,170.1z M504.9,199.8c2,1.1,2.1,1.8,3.2,3.8
			c0,11.8-9.1,17-20.2,15.8c0-0.2,0-0.4,0-0.6c2.9-7.2,5.9-14.3,8.9-21.5C500.8,197.3,502.8,197.8,504.9,199.8z"/>
		<path class="st1" d="M422.7,257.4h12.6c11.8-30.1,23.6-60.3,35.4-90.4h23.4c1.5-4,3-8,4.4-12h-35.4
			C449.7,189.1,436.2,223.2,422.7,257.4z"/>
		<path class="st1" d="M413.8,243.5c18.9,0.2,17-14,22.1-26.6c8.4-21.5,16.9-43,25.3-64.5H484c2.3-4.4,4.6-8.9,7-13.3h-37.3h0
			c-13.3,34.1-26.5,68.3-39.8,102.4L413.8,243.5L413.8,243.5z"/>
		<path class="st1" d="M405.6,243.5h3.8c2.7-7.6,5.5-15.2,8.2-22.8c-5.3,0.3-7.3-0.3-8.8-3.8c-5.2-11.5,8.2-19.6,19-19
			c3.4-8.8,6.7-17.7,10.1-26.5c-3.6-1.8-10.4-1.4-15.8-1.3c-15.3,6-28.9,5.4-37.9,17.1v0C364.3,212.7,380.3,236.1,405.6,243.5z"/>
		<path class="st1" d="M215.3,271.3c36.4-12.6,73.8-19.7,114.4-28.4c15.2-2.3,30.3-4.6,45.5-7c-3.6-6.3-7.1-12.4-8.2-21.5h-3.8
			c-9.3,1.9-18.5,3.8-27.8,5.7c-24.6,6.3-49.4,12.6-72.1,21.5c-24.8,9.7-49.6,19.8-72.7,31.6h0c-11.8,6.3-23.6,12.6-35.4,19
			C175.3,285.2,195.3,278.2,215.3,271.3z"/>
		<path class="st1" d="M602.9,518h0.1c28.7,0,52.1-23.4,52.1-52.1s-23.4-52.1-52.1-52.1s-52.1,23.4-52.1,52.1c0,2.3,0.2,4.7,0.5,6.9
			c0.1,0.6,0.1,1.3,0,1.9C555.6,499.5,577.3,518,602.9,518z"/>
		<path class="st1" d="M760.5,460.8c-30.4,0-55.2-25.4-55.2-56.5c0-21.4,11.7-40.6,29.6-50.1c-15.3-18-57.5-58.9-125.3-58.9
			l-170.7,0l-13.8,62c-0.8,3.5-3.6,6.1-7.1,6.6c-0.4,0.1-0.8,0.1-1.2,0.1c-3.1,0-6-1.7-7.5-4.4c-0.3-0.5-26.7-46.8-115.7-46.8
			l-2.9,0c-88.4,0-139.9,47.7-153.2,95.3h84.9c5.9-12.2,22.5-39.9,53.1-39.9c11.2,0,23,3.9,35.7,12c8.6,6.7,16.7,21.9,14.1,39.4
			c-2.6,17.3-16.3,41.8-65.4,64.3c12,7.8,27.5,20.7,34.8,39.2c6.5,16.3,5.6,33.7-2.5,51.5c-10,24.8-43.2,37.7-70.8,37.7
			c-6.5,0-12.8-0.7-18.6-2c-0.5-0.1-1.1-0.3-1.6-0.5c-19.6-8.7-28.8-27.1-26-51.5c-8.5-0.1-18.5-0.1-28.6-0.1
			c-20.5,0-41.6,0.1-52.2,0.2c-2.1,14-4.5,48.1,15.5,74.7c6.4,8.6,14.9,15.9,25.3,21.6c28.2,11.7,57.4,17.6,86.7,17.6
			c20.2,0,40.6-2.8,61.1-8.4c51.5-12.6,70.4-37.6,70.5-37.8c1.6-2.2,4.2-3.6,7-3.6h116.8l19.5-98.1c0.6-3.1,3-5.7,6.1-6.6
			c0.8-0.2,1.6-0.3,2.3-0.3c0.1,0,0.3,0,0.4,0c-7.8-15-12.2-32-12.2-50.1c0-59,46.7-106.9,104.1-106.9c27.4,0,53.3,10.8,72.8,30.4
			c20.2,20.3,31.4,47.5,31.3,76.6c0,59-46.7,106.9-104.1,106.9c-25.8,0-49.4-9.7-67.6-25.7l-32,170c16.3-1.3,50-5.4,89.8-18.4
			c46.4-15.2,110.5-49.5,143.2-85.7c45.2-50.5,47.7-126.7,46.8-156.2C772.2,459.8,766.4,460.8,760.5,460.8z M398.8,502.3
			c-0.2,2.6-1.6,5-3.8,6.5c-1.4,0.9-3,1.4-4.7,1.4c-0.9,0-1.9-0.2-2.8-0.5l-4.8-1.6c-1.6-0.5-2.9-1.5-4-2.8
			c-0.1-0.1-9.7-12.2-24.3-21.2c-2.3-1.4-3.8-3.8-4-6.5c-0.2-2.7,0.8-5.3,2.8-7.1c15.8-14.2,35.5-27.5,36.4-28
			c1.4-1,3.1-1.4,4.8-1.4c1.5,0,3,0.4,4.3,1.2c2.8,1.7,4.5,4.8,4.2,8L398.8,502.3z"/>
		<path class="st1" d="M820.8,338.3c-0.5-5.5-4-11.5-12.2-12.9c-0.8,0.3-1.6,0.6-2.4,0.8c-5.4,1.9-7.4,2.7-8.7,4.5
			c-3.4,4.6-2.3,10.6-0.4,14.4c1.1,2.2,4.4,7.4,10.8,7.4c1,0,2.1-0.1,3.3-0.4C821.3,349.7,821,340.2,820.8,338.3z"/>
		<path class="st1" d="M766.6,371.3c-16.6,0-30.1,13.5-30.1,30.1s13.5,30.1,30.1,30.1c16.6,0,30.1-13.5,30.1-30.1
			S783.2,371.3,766.6,371.3z"/>
	</g>
	<g>
		<g>
			<g>
				<path class="st4" d="M688.8,259.8c26.1,9.5,52.3,19,78.4,28.4c-11.3-11.6-39-23.3-55-30.3c-41.5-18.3-82.9-33.8-133.4-45.5
					c-13.1-2.3-26.1-4.6-39.2-7c-0.7,8.7-4.4,12.6-7,19c-0.8,0.8-1.7,1.7-2.5,2.5C587.8,233.2,639.8,244.5,688.8,259.8z"/>
				<path class="st4" d="M473.8,163.1c-13.9,35.2-27.8,70.4-41.7,105.6h26.6c4.4-10.7,8.8-21.5,13.3-32.2c9.5-0.2,19-0.4,28.4-0.6
					c10.5-2.1,20-8.9,25.3-16.4c12.5-17.9,4.9-46-12-53.1C503.8,162.2,487,162.9,473.8,163.1z M497.9,192.8c2,1.1,2.1,1.8,3.2,3.8
					c0,11.8-9.1,17-20.2,15.8c0-0.2,0-0.4,0-0.6c2.9-7.2,5.9-14.3,8.9-21.5C493.8,190.3,495.8,190.8,497.9,192.8z"/>
				<path class="st4" d="M415.7,250.4h12.6c11.8-30.1,23.6-60.3,35.4-90.4h23.4c1.5-4,3-8,4.4-12h-35.4
					C442.7,182.1,429.2,216.2,415.7,250.4z"/>
				<path class="st4" d="M406.8,236.5c18.9,0.2,17-14,22.1-26.6c8.4-21.5,16.9-43,25.3-64.5H477c2.3-4.4,4.6-8.9,7-13.3h-37.3h0
					c-13.3,34.1-26.5,68.3-39.8,102.4L406.8,236.5L406.8,236.5z"/>
				<path class="st4" d="M398.6,236.5h3.8c2.7-7.6,5.5-15.2,8.2-22.8c-5.3,0.3-7.3-0.3-8.8-3.8c-5.2-11.5,8.2-19.6,19-19
					c3.4-8.8,6.7-17.7,10.1-26.5c-3.6-1.8-10.4-1.4-15.8-1.3c-15.3,6-28.9,5.4-37.9,17.1v0C357.3,205.7,373.3,229.1,398.6,236.5z"/>
				<path class="st4" d="M208.3,264.3c36.4-12.6,73.8-19.7,114.4-28.4c15.2-2.3,30.3-4.6,45.5-7c-3.6-6.3-7.1-12.4-8.2-21.5h-3.8
					c-9.3,1.9-18.5,3.8-27.8,5.7c-24.6,6.3-49.4,12.6-72.1,21.5c-24.8,9.7-49.6,19.8-72.7,31.6h0c-11.8,6.3-23.6,12.6-35.4,19
					C168.3,278.2,188.3,271.2,208.3,264.3z"/>
			</g>
			<path class="st5" d="M595.9,511h0.1c28.7,0,52.1-23.4,52.1-52.1s-23.4-52.1-52.1-52.1s-52.1,23.4-52.1,52.1
				c0,2.3,0.2,4.7,0.5,6.9c0.1,0.6,0.1,1.3,0,1.9C548.6,492.5,570.3,511,595.9,511z"/>
			<path class="st4" d="M753.5,453.8c-30.4,0-55.2-25.4-55.2-56.5c0-21.4,11.7-40.6,29.6-50.1c-15.3-18-57.5-58.9-125.3-58.9
				l-170.7,0l-13.8,62c-0.8,3.5-3.6,6.1-7.1,6.6c-0.4,0.1-0.8,0.1-1.2,0.1c-3.1,0-6-1.7-7.5-4.4c-0.3-0.5-26.7-46.8-115.7-46.8
				l-2.9,0c-88.4,0-139.9,47.7-153.2,95.3h84.9c5.9-12.2,22.5-39.9,53.1-39.9c11.2,0,23,3.9,35.7,12c8.6,6.7,16.7,21.9,14.1,39.4
				c-2.6,17.3-16.3,41.8-65.4,64.3c12,7.8,27.4,20.7,34.8,39.2c6.5,16.3,5.6,33.7-2.5,51.5c-10,24.8-43.2,37.7-70.8,37.7
				c-6.5,0-12.8-0.7-18.6-2c-0.5-0.1-1.1-0.3-1.6-0.5c-19.6-8.7-28.8-27.1-26-51.5c-8.5-0.1-18.5-0.1-28.6-0.1
				c-20.5,0-41.6,0.1-52.2,0.2c-2.1,14-4.5,48.1,15.5,74.7c6.4,8.6,14.9,15.9,25.3,21.6c28.2,11.7,57.4,17.6,86.7,17.6
				c20.2,0,40.6-2.8,61.1-8.4c51.5-12.6,70.4-37.6,70.5-37.8c1.6-2.2,4.2-3.6,7-3.6h116.8l19.5-98.1c0.6-3.1,3-5.7,6.1-6.6
				c0.8-0.2,1.6-0.3,2.3-0.3c0.1,0,0.3,0,0.4,0c-7.8-15-12.2-32-12.2-50.1c0-59,46.7-106.9,104.1-106.9c27.4,0,53.3,10.8,72.8,30.4
				c20.2,20.3,31.4,47.5,31.3,76.6c0,59-46.7,106.9-104.1,106.9c-25.8,0-49.4-9.7-67.6-25.7l-32,170c16.3-1.3,50-5.4,89.8-18.4
				c46.4-15.2,110.5-49.5,143.2-85.7c45.2-50.5,47.7-126.7,46.8-156.2C765.2,452.8,759.4,453.8,753.5,453.8z M391.8,495.3
				c-0.2,2.6-1.6,5-3.8,6.5c-1.4,0.9-3,1.4-4.7,1.4c-0.9,0-1.9-0.2-2.8-0.5l-4.8-1.6c-1.6-0.5-2.9-1.5-4-2.8
				c-0.1-0.1-9.7-12.2-24.3-21.2c-2.3-1.4-3.8-3.8-4-6.5c-0.2-2.7,0.8-5.3,2.8-7.1c15.8-14.2,35.5-27.5,36.4-28
				c1.4-1,3.1-1.4,4.8-1.4c1.5,0,3,0.4,4.3,1.2c2.8,1.7,4.5,4.8,4.2,8L391.8,495.3z"/>
			<path class="st6" d="M813.8,331.3c-0.5-5.5-4-11.5-12.2-12.9c-0.8,0.3-1.6,0.6-2.4,0.8c-5.4,1.9-7.4,2.7-8.7,4.5
				c-3.4,4.6-2.3,10.6-0.4,14.4c1.1,2.2,4.4,7.4,10.8,7.4c1,0,2.1-0.1,3.3-0.4C814.3,342.7,814,333.2,813.8,331.3z"/>
			<path class="st7" d="M759.6,364.3c-16.6,0-30.1,13.5-30.1,30.1s13.5,30.1,30.1,30.1c16.6,0,30.1-13.5,30.1-30.1
				S776.2,364.3,759.6,364.3z"/>
		</g>
	</g>
</g>
</svg>
