<?xml version="1.0" encoding="utf-8"?>
<!-- Generator: Adobe Illustrator 24.0.1, SVG Export Plug-In . SVG Version: 6.00 Build 0)  -->
<svg version="1.1" id="图层_1" xmlns="http://www.w3.org/2000/svg" xmlns:xlink="http://www.w3.org/1999/xlink" x="0px" y="0px"
	 viewBox="0 0 880 896.3" style="enable-background:new 0 0 880 896.3;" xml:space="preserve">
<style type="text/css">
	.st0{fill:#E6A824;}
	.st1{fill:#996B09;}
	.st2{fill:#FFFFFF;}
</style>
<path class="st0" d="M533.7,886C771,833.3,921.5,594.6,869.8,352.8S583.7-42.3,346.3,10.4S-41.5,301.8,10.2,543.6
	S296.3,938.6,533.7,886z"/>
<ellipse class="st1" cx="409.1" cy="431" rx="371.8" ry="384"/>
<ellipse class="st0" cx="384.6" cy="407.7" rx="331.8" ry="342.6"/>
<path class="st1" d="M343.6,439.5c-2.7,1.9-8.1,1.9-11,3.7c-2.5,4.8-4.5,10-7.3,14.7C338.9,458,343.3,446.3,343.6,439.5z
	 M361.3,384.5c-11.5,2-14.5,10.3-17.7,18.3C355.8,401.9,364.4,393.5,361.3,384.5z M142,457.8c4.9-1,9.5-2.2,13.4-4
	c0.5-5.5,4.2-8.5,4.9-13.9C148,437,144.7,449.7,142,457.8z M124,512.8c2.9-2.2,8.4-2.6,12.9-3.7c0.5-5.8,5.2-8.5,5.1-14.7
	c-5.6,0-7.6,2.5-12.9,2.7C128,502.2,122.3,508.9,124,512.8L124,512.8z M643.4,227.3c8-16.7,31.2-18.4,48.4-26.1
	c-5.5,13.7-12.9,25.5-19.1,38.5c-28.3,17.1-75.9,15.4-95.5,41c10.6-0.8,24.4-9.3,36.9-12.4v38.5c-13.4,4.7-26.9,9.3-39.4,14.9
	c-3-8.3-0.4-21.9-1.3-32.3c-9.8,8.7-18.3,29.3-26.7,43.5c-12.8,4.9-26.3,9.2-38.2,14.9c12.5-28.3,33.7-59,49.6-88.2
	C586.8,249,615.3,238.4,643.4,227.3z M575.9,441c-14.7,4.9-29.2,10-42.4,16.3c4.8-25.5,17-54.5,25.7-80.3
	c-17.3,22-31.2,58.2-47.5,85.3c-14.2,3.7-25.8,9.9-39.8,13.8c18.7-34.5,36.6-69.7,55.2-104.2c-5.6,1.6-11.4,3.1-15.4,6.2
	c-3-7.9,5.3-15.7,5.1-25.1c18.8-6.4,35.5-14.7,55.2-20.1c2.5-4.6,4.2-10.1,6.4-15c15.2-4.1,28.9-9.5,42.4-15.1c2.4,1.2-2,6.3-1.3,10
	c18.5-6.2,34.9-14.5,53.9-20.1c-2.3,8.7-6,15.9-7.7,25.1c-6.1,3.3-12.8,5.9-19.3,8.8c-2.3,29.5-5.8,57.9-9,86.6
	c-13,4.9-26.6,9.2-38.5,15c-1-19.4,2.6-45.1,3.8-66.5C592.1,386.5,585.1,414.8,575.9,441L575.9,441z M526.9,564.5
	c-6.2,0.7-10.4,2.8-16.9,3.2c3.1-20-13.5-30.5-19.7-39.9c6-0.8,11.8-1.7,15.5-4.3c6,2.5,7,9,12.7,11.8c4.7-10.8,11.5-20,26.8-22.6
	C543.5,529.1,520.2,538.2,526.9,564.5z M636.8,292.9v-39.6c12.1-4.7,23.1-10.7,35.2-15.4c2.9,6.5,0.6,28.7,0,39.6
	C660.7,283.1,649,288.2,636.8,292.9z M416.9,311.2c-2.7,9.8-6.5,18.5-18.3,19.7c-8.2,19.3-15.6,39.5-23.6,59
	c1.7,2.3,8.2-1.2,10.5-2.5c-7.5,31.5-23.9,65.2-35.4,97.1c-26.2,9.9-53.1,19-79.8,28.3c21.5-58.1,44.7-114.5,65.5-173.3
	C363.7,330.9,388.6,319.4,416.9,311.2z M150,557.8c-27.5,9.1-55.3,17.8-81.3,28.3c17.8-56.6,45-115.1,65.3-173.3
	c27.1-9.5,53.1-19.8,81.3-28.3c-0.1,6-2.6,9.9-4,14.7c-4.3,1.4-7.9,3.4-13.3,3.7c-7.5,19.7-15.4,39.1-22.7,59
	c3.1,3.6,7.2-2.3,12-1.2C174.9,493.1,161.8,524.9,150,557.8z M194.4,524.1c11.5-2.3,21.7-6,29.1-12.5c-0.8-21.7,22.7-29.8,25.5-48.7
	c1.5-10.5-4.5-23.6,2.4-34.9c-19.6,7.3-38.4,15.4-58.2,22.5c3.8-16,10.4-29.1,14.5-44.9c20.8-6.9,39.4-16,60.6-22.5
	c4.3-13.9,9.2-27.1,14.5-39.9c12.7-3.9,23.8-9.6,36.4-13.7c-2.9,12.8-7.4,24-10.9,36.2c3.4,0.5,12.5-3.7,17-6.2
	c-0.7,23.4-11.5,47.1-33.9,52.4c-6.8,21.4-13.5,46.3-21.8,69.8c-7.4,21.1-15.3,48.5-29.1,61.1c-15.7,14.3-37.9,16.7-61.8,24.9
	C184.1,553.4,188.8,538.3,194.4,524.1L194.4,524.1z M197.2,462.3c1.4-11,21.1-27.6,33.4-21.6C246.6,465.8,193.2,493.4,197.2,462.3
	L197.2,462.3z M251.8,646.1c-11.3,4.9-24.8,7.4-35.1,13.3c-2.7-14.5-0.4-34.3-1.2-50.8c19.3-15.7,15.7,16.4,14.1,32.6
	c4.8,0.1,15-4.6,21.1-7.3C253.3,635.7,251,642.4,251.8,646.1L251.8,646.1z M260.3,637.5c-6.9-4.5-10.8-17.7-6.6-29.4
	c3.3-9.1,21.6-20,30.3-21.5C333.4,578.4,292.4,658.5,260.3,637.5z M398.6,561.5c-22.8,1.2-17.6,21-14.6,38.4
	c-3.2,5.9-11.4,7.3-18.6,9.6v-37.3c-10.1,1.2-16.2,6.2-26.6,7.2v39.7c-5.5,1-9.7,3.2-15.9,3.6v-36c-3.6-1.9-10,3.8-16,3.6v-12
	c30.8-9.4,58.6-21.5,91.6-28.8v12H398.6z M361.9,494.5c5.4-27.5,16.2-49.9,47.3-53.6c1.8-18.5,22-30.3,29.7-44.9
	c6.3-11.9-5.4-27.2,5.4-41.2c-21.9,7.2-44.3,14-64.9,22.5c1.2-13.1,11.2-28.7,14.8-43.7c22.1-9.2,45.9-16.7,68.9-24.9
	c4.2-12.6,8.7-25.1,13.5-37.4c14.3-5.1,27.7-11,43.3-15c-4.1,12.4-8.4,24.7-13.5,36.2c7.8-1.1,13.1-4.6,20.3-6.2
	c-4.3,16-12.2,28.6-16.2,44.9c-7.3,2.4-13.7,5.7-21.6,7.5c-12.3,32.3-23.7,70.5-40.6,103.5c-4.8,9.4-12.5,24.2-18.9,28.7
	c-8.4,5.8-23.1,8.6-33.8,12.5C385,487.1,373.7,490.3,361.9,494.5z M415.8,389.9c5.8,15.2-11.9,31.2-28.6,31.3
	C363.3,411.5,408.1,369.8,415.8,389.9z M432.9,553.2v12.5c-11.1,0.9-20,4.4-20.6,18c7.2,2.7,14.3-6.7,22.9-6.9v12.5
	c-12.7,4.5-24.3,10.3-36.7,15.2v-58.1c11.9-5,23-11,35.5-15.2c-0.8,5.6,1.1,7.9,1.2,12.5c-7.9,2.4-15.2,5.6-22.9,8.3v9.7
	C420.6,560.4,425.2,555,432.9,553.2z M435.2,586.1v-46.6c16.4-2,30-11.1,49-7.6c7.3,9.6-2.1,18.2-8.9,23.8
	c6.5,3.6,12.8,7.3,14.9,14.1c-2.7,4.9-13,4.3-19.3,6.5c-5.4-4.4-6.7-11.7-14.9-14.1c-8.9,1.1-2.5,13.4-4.5,19.5
	C446.1,583.2,440.9,584.8,435.2,586.1z M741.7,224.2c-2.9,21.2,10.5,36,7.6,55.8c-2.9,20.1-23.8,28.3-32.8,47.2
	c-3.4,7.1-3.2,17.2-6.3,26.1c-8.7,24.6-27.3,42.1-17.7,68.2c2.9,8,13,18.2,21.5,24.8c9.3,7.2,22.1,12.9,22.8,23.6
	c0.5,7.7-9.3,21.1-15.2,27.3c-10.2,10.8-24.9,21.6-37.9,32.3c-12.5,10.2-25.5,21.4-37.9,31c-46.4,36-101.2,55.5-113.8,124.1
	c-26,10-51.5,20.6-78.4,29.8c22.9-51,58-87.9,101.1-119.1c42.2-30.6,99-47.3,121.3-98c-15.9-9.6-37.5-13.7-49.3-27.3
	c4-50.2,55.7-68.3,58.2-122.9c0.8-18.6-3.8-36-2.5-53.3c3.2-43.5,18.4-75.8,39.2-106.8c19.7-6.5,39.1-14,58.1-22.3h3.8
	C767.8,187.9,745.5,195.9,741.7,224.2z M471.9,536.2c-1.9-0.3-1.8-2.6-1.7-4.9c-7.7-1-9.5,3.7-16.6,3.3v14.9
	C462.8,548.2,469.2,544.1,471.9,536.2L471.9,536.2z M282.7,604.7c-11.4-3.7-15.8,24-9.7,35.9C289.7,645.2,293.1,608.1,282.7,604.7z"
	/>
<path class="st2" d="M345.6,430c-2.7,1.9-8.1,1.9-11,3.7c-2.5,4.8-4.5,10-7.3,14.7C340.9,448.5,345.3,436.8,345.6,430z M363.3,375
	c-11.5,2-14.5,10.3-17.7,18.3C357.8,392.4,366.4,384,363.3,375z M144,448.3c4.9-1,9.5-2.2,13.4-4c0.5-5.5,4.2-8.5,4.9-13.9
	C150,427.5,146.7,440.2,144,448.3z M126,503.3c2.9-2.2,8.4-2.6,12.9-3.7c0.5-5.8,5.2-8.5,5.1-14.7c-5.6,0-7.6,2.5-12.9,2.7
	C130,492.7,124.3,499.4,126,503.3L126,503.3z M645.4,217.9c8-16.7,31.2-18.4,48.4-26.1c-5.5,13.7-12.9,25.5-19.1,38.5
	c-28.3,17.1-75.9,15.4-95.5,41c10.6-0.8,24.4-9.3,36.9-12.4v38.5c-13.4,4.7-26.9,9.3-39.4,14.9c-3-8.3-0.4-21.9-1.3-32.3
	c-9.8,8.7-18.3,29.3-26.7,43.5c-12.8,4.9-26.3,9.2-38.2,14.9c12.5-28.3,33.7-59,49.6-88.2C588.8,239.6,617.3,228.9,645.4,217.9z
	 M577.9,431.5c-14.7,4.9-29.2,10-42.4,16.3c4.8-25.5,17-54.5,25.7-80.3c-17.3,22-31.2,58.2-47.5,85.3c-14.2,3.7-25.8,9.9-39.8,13.8
	c18.7-34.5,36.6-69.7,55.2-104.2c-5.6,1.6-11.4,3.1-15.4,6.2c-3-7.9,5.3-15.7,5.1-25.1c18.8-6.4,35.5-14.7,55.2-20.1
	c2.5-4.6,4.2-10.1,6.4-15c15.2-4.1,28.9-9.5,42.4-15.1c2.4,1.2-2,6.3-1.3,10c18.5-6.2,34.9-14.5,53.9-20.1c-2.3,8.7-6,15.9-7.7,25.1
	c-6.1,3.3-12.8,5.9-19.3,8.8c-2.3,29.5-5.8,57.9-9,86.6c-13,4.9-26.6,9.2-38.5,15c-1-19.4,2.6-45.1,3.8-66.5
	C594.1,377,587.1,405.4,577.9,431.5L577.9,431.5z M528.9,555c-6.2,0.7-10.4,2.8-16.9,3.2c3.1-20-13.5-30.5-19.7-39.9
	c6-0.8,11.8-1.7,15.5-4.3c6,2.5,7,9,12.7,11.8c4.7-10.8,11.5-20,26.8-22.6C545.5,519.7,522.2,528.7,528.9,555z M638.8,283.4v-39.6
	c12.1-4.7,23.1-10.7,35.2-15.4c2.9,6.5,0.6,28.7,0,39.6C662.7,273.6,651,278.8,638.8,283.4z M418.9,301.7
	c-2.7,9.8-6.5,18.5-18.3,19.7c-8.2,19.3-15.6,39.5-23.6,59c1.7,2.3,8.2-1.2,10.5-2.5c-7.5,31.5-23.9,65.2-35.4,97.1
	c-26.2,9.9-53.1,19-79.8,28.3c21.5-58.1,44.7-114.5,65.5-173.3C365.7,321.4,390.6,310,418.9,301.7z M152,548.3
	c-27.5,9.1-55.3,17.8-81.3,28.3c17.8-56.6,45-115.1,65.3-173.3c27.1-9.5,53.1-19.8,81.3-28.3c-0.1,6-2.6,9.9-4,14.7
	c-4.3,1.4-7.9,3.4-13.3,3.7c-7.5,19.7-15.4,39.1-22.7,59c3.1,3.6,7.2-2.3,12-1.2C176.9,483.7,163.8,515.4,152,548.3z M196.4,514.6
	c11.5-2.3,21.7-6,29.1-12.5c-0.8-21.7,22.7-29.8,25.5-48.7c1.5-10.5-4.5-23.6,2.4-34.9c-19.6,7.3-38.4,15.4-58.2,22.5
	c3.8-16,10.4-29.1,14.5-44.9c20.8-6.9,39.4-16,60.6-22.5c4.3-13.9,9.2-27.1,14.5-39.9c12.7-3.9,23.8-9.6,36.4-13.7
	c-2.9,12.8-7.4,24-10.9,36.2c3.4,0.5,12.5-3.7,17-6.2c-0.7,23.4-11.5,47.1-33.9,52.4c-6.8,21.4-13.5,46.3-21.8,69.8
	c-7.4,21.1-15.3,48.5-29.1,61.1c-15.7,14.3-37.9,16.7-61.8,24.9C186.1,544,190.8,528.8,196.4,514.6L196.4,514.6z M199.2,452.9
	c1.4-11,21.1-27.6,33.4-21.6C248.6,456.3,195.2,483.9,199.2,452.9L199.2,452.9z M253.8,636.6c-11.3,4.9-24.8,7.4-35.1,13.3
	c-2.7-14.5-0.4-34.3-1.2-50.8c19.3-15.7,15.7,16.4,14.1,32.6c4.8,0.1,15-4.6,21.1-7.3C255.3,626.2,253,633,253.8,636.6L253.8,636.6z
	 M262.3,628.1c-6.9-4.5-10.8-17.7-6.6-29.4c3.3-9.1,21.6-20,30.3-21.5C335.4,569,294.4,649,262.3,628.1z M400.6,552
	c-22.8,1.2-17.6,21-14.6,38.4c-3.2,5.9-11.4,7.3-18.6,9.6v-37.3c-10.1,1.2-16.2,6.2-26.6,7.2v39.7c-5.5,1-9.7,3.2-15.9,3.6v-36
	c-3.6-1.9-10,3.8-16,3.6v-12c30.8-9.4,58.6-21.5,91.6-28.8v12H400.6z M363.9,485c5.4-27.5,16.2-49.9,47.3-53.6
	c1.8-18.5,22-30.3,29.7-44.9c6.3-11.9-5.4-27.2,5.4-41.2c-21.9,7.2-44.3,14-64.9,22.5c1.2-13.1,11.2-28.7,14.8-43.7
	c22.1-9.2,45.9-16.7,68.9-24.9c4.2-12.6,8.7-25.1,13.5-37.4c14.3-5.1,27.7-11,43.3-15c-4.1,12.4-8.4,24.7-13.5,36.2
	c7.8-1.1,13.1-4.6,20.3-6.2c-4.3,16-12.2,28.6-16.2,44.9c-7.3,2.4-13.7,5.7-21.6,7.5c-12.3,32.3-23.7,70.5-40.6,103.5
	c-4.8,9.4-12.5,24.2-18.9,28.7c-8.4,5.8-23.1,8.6-33.8,12.5C387,477.7,375.7,480.8,363.9,485z M417.8,380.4
	c5.8,15.2-11.9,31.2-28.6,31.3C365.3,402,410.1,360.4,417.8,380.4z M434.9,543.8v12.5c-11.1,0.9-20,4.4-20.6,18
	c7.2,2.7,14.3-6.7,22.9-6.9v12.5c-12.7,4.5-24.3,10.3-36.7,15.2V537c11.9-5,23-11,35.5-15.2c-0.8,5.6,1.1,7.9,1.2,12.5
	c-7.9,2.4-15.2,5.6-22.9,8.3v9.7C422.6,550.9,427.2,545.5,434.9,543.8z M437.2,576.6V530c16.4-2,30-11.1,49-7.6
	c7.3,9.6-2.1,18.2-8.9,23.8c6.5,3.6,12.8,7.3,14.9,14.1c-2.7,4.9-13,4.3-19.3,6.5c-5.4-4.4-6.7-11.7-14.9-14.1
	c-8.9,1.1-2.5,13.4-4.5,19.5C448.1,573.8,442.9,575.4,437.2,576.6z M743.7,214.7c-2.9,21.2,10.5,36,7.6,55.8
	c-2.9,20.1-23.8,28.3-32.8,47.2c-3.4,7.1-3.2,17.2-6.3,26.1c-8.7,24.6-27.3,42.1-17.7,68.2c2.9,8,13,18.2,21.5,24.8
	c9.3,7.2,22.1,12.9,22.8,23.6c0.5,7.7-9.3,21.1-15.2,27.3c-10.2,10.8-24.9,21.6-37.9,32.3c-12.5,10.2-25.5,21.4-37.9,31
	c-46.4,36-101.2,55.5-113.8,124.1c-26,10-51.5,20.6-78.4,29.8c22.9-51,58-87.9,101.1-119.1c42.2-30.6,99-47.3,121.3-98
	c-15.9-9.6-37.5-13.7-49.3-27.3c4-50.2,55.7-68.3,58.2-122.9c0.8-18.6-3.8-36-2.5-53.3c3.2-43.5,18.4-75.8,39.2-106.8
	c19.7-6.5,39.1-14,58.1-22.3h3.8C769.8,178.4,747.5,186.4,743.7,214.7z M473.9,526.7c-1.9-0.3-1.8-2.6-1.7-4.9
	c-7.7-1-9.5,3.7-16.6,3.3V540C464.8,538.7,471.3,534.6,473.9,526.7L473.9,526.7z M284.7,595.3c-11.4-3.7-15.8,24-9.7,35.9
	C291.7,635.8,295.1,598.6,284.7,595.3z"/>
</svg>
