<?xml version="1.0" encoding="utf-8"?>
<!-- Generator: Adobe Illustrator 24.0.1, SVG Export Plug-In . SVG Version: 6.00 Build 0)  -->
<svg version="1.1" id="图层_1" xmlns="http://www.w3.org/2000/svg" xmlns:xlink="http://www.w3.org/1999/xlink" x="0px" y="0px"
	 viewBox="0 0 880 896.3" style="enable-background:new 0 0 880 896.3;" xml:space="preserve">
<style type="text/css">
	.st0{fill:#40A0B3;}
	.st1{fill:#1A5A66;}
	.st2{fill:#FFFFFF;}
	.st3{fill:#FCFC00;}
</style>
<path class="st0" d="M533.7,886C771,833.3,921.5,594.6,869.8,352.8S583.7-42.3,346.3,10.4S-41.5,301.8,10.2,543.6
	S296.3,938.6,533.7,886z"/>
<ellipse class="st1" cx="409.1" cy="431" rx="371.8" ry="384"/>
<ellipse class="st0" cx="384.6" cy="407.7" rx="331.8" ry="342.6"/>
<path class="st1" d="M426.4,412.8h-50.6c-1.1-9.1-1.2-18.2-3.7-26.5s-6.4-16.7-11.6-23.6c-9.4-12.6-24.3-15.5-38.9-9.3
	c-12.1,5.1-21.1,14-27.9,25c-14.6,23.8-19.3,49.3-11,76.4c4,13.1,11.9,23.4,25.3,28c11,3.7,21.4,1.4,31.1-4.5
	c10.6-6.5,18.3-15.8,24.6-26.4c0.9-1.5,2.7-3.4,4.2-3.4c18.4-0.2,36.7-0.2,55.3-0.2c0.1,1.1,0.3,1.8,0.1,2.4
	c-7,22.8-16.7,44.3-32.5,62.3c-20.8,23.8-47.2,34.4-78.3,34c-12.9-0.2-25.5-1.7-37.7-6.2c-27.6-10.2-43.9-30.4-48.5-59.2
	c-7-44.9,0-87.6,27.1-124.6c27.3-37.3,65.6-50.1,110-41.9c27.6,5.1,44.9,24,55,49.9C424.2,380,426.7,395.9,426.4,412.8"/>
<path class="st1" d="M248.1,339.3c-8.6-15.6-22-22.3-39.3-22.2c-40.2,0.1-80.5,0-120.7,0c-1.8,0-3.5,0.2-5.6,0.2l-2.7,22.2h19.8
	c0,1.7,0.1,2.6,0,3.5c-6.2,47.5-12.3,95-18.6,142.5c-0.2,1.2-2.4,3-3.7,3.1c-5.4,0.4-10.8,0.2-16.8,0.2l-7.7,59.5h87.9l7.8-59.5
	h-17.6l5.4-41.8h6.5c19.1,0,38.2,0.1,57.4-0.1c12.2-0.2,13.2-1.4,14.3-13.3v-0.5c4-31.8,13.1-61.6,33.4-86.9
	C249.7,343.5,249.5,341.8,248.1,339.3L248.1,339.3z M194.7,403.4c-3,2.8-7.3,5.6-11.2,5.9c-12.2,0.8-24.5,0.5-36.7,0.6
	c-1.8,0-3.5-0.2-5.8-0.3l9.1-70c13.2,0,26-0.4,38.7,0.2c6.9,0.3,11.7,5.2,14.8,11.4C211.2,366.3,207.1,392,194.7,403.4L194.7,403.4z
	 M636.5,534.3c0.3,1.7,0.2,3.7,1,4.5c27.1,28.2,63.7,37.4,96.4,19.5c11.3-6.2,20.9-15.1,29.2-25.9l3.7-4.8l4.6,7
	c-11.7,15.9-26.2,29.7-43.3,39.3c-42.6,24-85.4,23.5-128-0.2c-2.8-1.5-4.7-1.5-7.5-0.1c-48.6,25.8-96.1,25.2-141.6-9.2
	c-9.1-6.9-16.7-16.7-24.9-25.2c-1-1-1.7-2.5-3-4.4c10.8-0.6,21-1.3,31.1-1.8c12.5-0.7,25-1.3,37.5-2.1c3.3-0.2,5.5,0.7,7.9,3.5
	c18.3,22,40.4,34.3,67.3,33c21.4-1.1,39.9-10.9,55.5-27.5C626.9,534.9,631.5,533.9,636.5,534.3 M780.7,345l-5.5,5.8
	c-6-6.4-11.7-13.5-18.2-19.3c-29.2-26-68.3-26.5-99.7-1.8c-4,3.2-7.9,6.7-11.6,10.4c-0.9,0.9-1.1,2.6-1.7,4.5
	c-4.8,1-9.1-0.6-13.5-5.3c-14.6-15.6-31.9-25.3-51.9-27.3c-22.5-2.2-42.6,5.2-60.2,21.5c-4.2,3.9-8,8.6-12.1,12.7
	c-1.1,1.1-2.9,2.2-4.4,2.1c-23.3-1.2-46.6-2.6-70.4-3.9c0.7-1.2,1.2-2.3,1.9-3.2c30.3-39.2,68.4-56.2,113.7-52.5
	c19.3,1.6,37.6,7.8,54.9,17.7c1.5,0.9,4.1,0.3,5.8-0.6c52.1-27.9,101.9-23.8,148.8,14.8C765.2,327.4,772.5,336.5,780.7,345"/>
<path class="st1" d="M598.1,490.9l-6,32.3h-109l5-27c41.6-50.3,66.6-81.5,74.9-93.4c8.3-12,13.1-21.3,14.3-28c1-5.1,0.7-9-0.6-11.5
	c-1.4-2.5-3.9-3.8-7.7-3.8s-6.8,1.4-9.2,4.2c-2.4,2.8-4.3,8.4-5.9,16.7l-3.3,18h-44.4l1.3-6.9c2-10.6,4.1-19,6.4-25.1
	s6.2-12.1,11.8-18.1c5.6-5.9,12.3-10.4,20-13.4c7.8-3,16.7-4.6,26.7-4.6c19.7,0,33.8,4.7,42.1,14c8.4,9.3,11.3,21.1,8.6,35.4
	c-2,10.8-7,22.3-14.9,34.4s-29.4,37.7-64.5,76.9L598.1,490.9L598.1,490.9z M725.9,415.8c6.8,2.8,11.6,7,14.5,12.6s2.4,18.8-1.5,39.8
	c-2.8,15.3-6.5,26.5-10.9,33.8c-4.5,7.2-11.6,13.2-21.5,17.8s-22.4,7-37.5,7c-14.7,0-26-2.2-33.7-6.7c-7.8-4.4-12.8-10.3-15.2-17.7
	c-2.4-7.3-2-19.5,1.2-36.6c2.1-11.5,4.9-21.4,8.3-29.8c3.4-8.4,10.4-15.2,21.1-20.2c-5.6-2.8-9.4-7.3-11.3-13.4
	c-1.9-6.1-2-13.9-0.3-23.3c3-16.3,10-28.5,21-36.6s25.9-12.2,44.8-12.2c21.8,0,36.1,4.3,42.9,13c6.7,8.6,8.6,21,5.7,37
	c-1.9,10.2-4.6,17.6-8.2,22.1C741.7,406.9,735.3,411.4,725.9,415.8z M692,453.8c1.3-7.2,1.5-12.1,0.3-14.4c-1.1-2.4-3.3-3.6-6.7-3.6
	c-3.3,0-5.8,1.2-7.7,3.4c-1.9,2.3-3.5,7.1-4.8,14.5l-4.5,24.5c-1.5,8.2-1.7,13.4-0.5,15.8c1.2,2.3,3.5,3.5,6.9,3.5
	c3.5,0,6.1-1.2,7.8-3.6s3.3-7.7,4.8-16.1L692,453.8L692,453.8z M705.6,375.2c1.2-6.4,1.4-10.6,0.6-12.7c-0.8-2.1-2.9-3.1-6.2-3.1
	s-5.7,1.1-7.2,3.3c-1.6,2.2-2.9,6.4-4,12.4l-2.7,14.4c-1.1,5.7-1.1,9.6-0.2,11.8c0.9,2.2,2.9,3.3,6,3.3c3.3,0,5.7-1.1,7.2-3.2
	s2.9-6.6,4.2-13.3L705.6,375.2L705.6,375.2z"/>
<path class="st2" d="M427.6,400.2H377c-1.1-9.1-1.2-18.2-3.7-26.5s-6.4-16.7-11.6-23.6c-9.4-12.6-24.3-15.5-38.9-9.3
	c-12.1,5.1-21.1,14-27.9,25c-14.6,23.8-19.3,49.3-11,76.4c4,13.1,11.9,23.4,25.3,28c11,3.7,21.4,1.4,31.1-4.5
	c10.6-6.5,18.3-15.8,24.6-26.4c0.9-1.5,2.7-3.4,4.2-3.4c18.4-0.2,36.7-0.2,55.3-0.2c0.1,1.1,0.3,1.8,0.1,2.4
	c-7,22.8-16.7,44.3-32.5,62.3c-20.8,23.8-47.2,34.4-78.3,34c-12.9-0.2-25.5-1.7-37.7-6.2c-27.6-10.2-43.9-30.4-48.5-59.2
	c-7-44.9,0-87.6,27.1-124.6c27.3-37.3,65.6-50.1,110-41.9c27.6,5.1,44.9,24,55,49.9C425.4,367.4,427.9,383.3,427.6,400.2"/>
<path class="st2" d="M249.3,326.7c-8.6-15.6-22-22.3-39.3-22.2c-40.2,0.1-80.5,0-120.7,0c-1.8,0-3.5,0.2-5.6,0.2L81,326.9h19.8
	c0,1.7,0.1,2.6,0,3.5c-6.2,47.5-12.3,95-18.6,142.5c-0.2,1.2-2.4,3-3.7,3.1c-5.4,0.4-10.8,0.2-16.8,0.2L54,535.7h87.9l7.8-59.5
	h-17.6l5.4-41.8h6.5c19.1,0,38.2,0.1,57.4-0.1c12.2-0.2,13.2-1.4,14.3-13.3v-0.5c4-31.8,13.1-61.6,33.4-86.9
	C250.9,330.9,250.7,329.2,249.3,326.7L249.3,326.7z M195.9,390.8c-3,2.8-7.3,5.6-11.2,5.9c-12.2,0.8-24.5,0.5-36.7,0.6
	c-1.8,0-3.5-0.2-5.8-0.3l9.1-70c13.2,0,26-0.4,38.7,0.2c6.9,0.3,11.7,5.2,14.8,11.4C212.4,353.7,208.3,379.4,195.9,390.8
	L195.9,390.8z M637.7,521.7c0.3,1.7,0.2,3.7,1,4.5c27.1,28.2,63.7,37.4,96.4,19.5c11.3-6.2,20.9-15.1,29.2-25.9l3.7-4.8l4.6,7
	c-11.7,15.9-26.2,29.7-43.3,39.3c-42.6,24-85.4,23.5-128-0.2c-2.8-1.5-4.7-1.5-7.5-0.1c-48.6,25.8-96.1,25.2-141.6-9.2
	c-9.1-6.9-16.7-16.7-24.9-25.2c-1-1-1.7-2.5-3-4.4c10.8-0.6,21-1.3,31.1-1.8c12.5-0.7,25-1.3,37.5-2.1c3.3-0.2,5.5,0.7,7.9,3.5
	c18.3,22,40.4,34.3,67.3,33c21.4-1.1,39.9-10.9,55.5-27.5C628.1,522.3,632.7,521.3,637.7,521.7 M781.9,332.4l-5.5,5.8
	c-6-6.4-11.7-13.5-18.2-19.3c-29.2-26-68.3-26.5-99.7-1.8c-4,3.2-7.9,6.7-11.6,10.4c-0.9,0.9-1.1,2.6-1.7,4.5
	c-4.8,1-9.1-0.6-13.5-5.3c-14.6-15.6-31.9-25.3-51.9-27.3c-22.5-2.2-42.6,5.2-60.2,21.5c-4.2,3.9-8,8.6-12.1,12.7
	c-1.1,1.1-2.9,2.2-4.4,2.1c-23.3-1.2-46.6-2.6-70.4-3.9c0.7-1.2,1.2-2.3,1.9-3.2c30.3-39.2,68.4-56.2,113.7-52.5
	c19.3,1.6,37.6,7.8,54.9,17.7c1.5,0.9,4.1,0.3,5.8-0.6c52.1-27.9,101.9-23.8,148.8,14.8C766.4,314.8,773.7,323.9,781.9,332.4"/>
<path class="st3" d="M599.3,479.3l-6,32.3h-109l5-27c41.6-50.3,66.6-81.5,74.9-93.4c8.3-12,13.1-21.3,14.3-28c1-5.1,0.7-9-0.6-11.5
	c-1.4-2.5-3.9-3.8-7.7-3.8s-6.8,1.4-9.2,4.2c-2.4,2.8-4.3,8.4-5.9,16.7l-3.3,18h-44.4l1.3-6.9c2-10.6,4.1-19,6.4-25.1
	s6.2-12.1,11.8-18.1c5.6-5.9,12.3-10.4,20-13.4c7.8-3,16.7-4.6,26.7-4.6c19.7,0,33.8,4.7,42.1,14c8.4,9.3,11.3,21.1,8.6,35.4
	c-2,10.8-7,22.3-14.9,34.4s-29.4,37.7-64.5,76.9L599.3,479.3L599.3,479.3z M727.1,404.2c6.8,2.8,11.6,7,14.5,12.6s2.4,18.8-1.5,39.8
	c-2.8,15.3-6.5,26.5-10.9,33.8c-4.5,7.2-11.6,13.2-21.5,17.8c-9.9,4.6-22.4,7-37.5,7c-14.7,0-26-2.2-33.7-6.7
	c-7.8-4.4-12.8-10.3-15.2-17.7c-2.4-7.3-2-19.5,1.2-36.6c2.1-11.5,4.9-21.4,8.3-29.8c3.4-8.4,10.4-15.2,21.1-20.2
	c-5.6-2.8-9.4-7.3-11.3-13.4c-1.9-6.1-2-13.9-0.3-23.3c3-16.3,10-28.5,21-36.6s25.9-12.2,44.8-12.2c21.8,0,36.1,4.3,42.9,13
	c6.7,8.6,8.6,21,5.7,37c-1.9,10.2-4.6,17.6-8.2,22.1C742.9,395.3,736.5,399.8,727.1,404.2z M693.2,442.2c1.3-7.2,1.5-12.1,0.3-14.4
	c-1.1-2.4-3.3-3.6-6.7-3.6c-3.3,0-5.8,1.2-7.7,3.4c-1.9,2.3-3.5,7.1-4.8,14.5l-4.5,24.5c-1.5,8.2-1.7,13.4-0.5,15.8
	c1.2,2.3,3.5,3.5,6.9,3.5c3.5,0,6.1-1.2,7.8-3.6s3.3-7.7,4.8-16.1L693.2,442.2L693.2,442.2z M706.8,363.6c1.2-6.4,1.4-10.6,0.6-12.7
	c-0.8-2.1-2.9-3.1-6.2-3.1s-5.7,1.1-7.2,3.3c-1.6,2.2-2.9,6.4-4,12.4l-2.7,14.4c-1.1,5.7-1.1,9.6-0.2,11.8c0.9,2.2,2.9,3.3,6,3.3
	c3.3,0,5.7-1.1,7.2-3.2s2.9-6.6,4.2-13.3L706.8,363.6L706.8,363.6z"/>
</svg>
