<?xml version="1.0" encoding="utf-8"?>
<!-- Generator: Adobe Illustrator 24.0.1, SVG Export Plug-In . SVG Version: 6.00 Build 0)  -->
<svg version="1.1" id="图层_1" xmlns="http://www.w3.org/2000/svg" xmlns:xlink="http://www.w3.org/1999/xlink" x="0px" y="0px"
	 viewBox="0 0 880 896.3" style="enable-background:new 0 0 880 896.3;" xml:space="preserve">
<style type="text/css">
	.st0{fill:#E15421;}
	.st1{fill:#942D07;}
	.st2{fill:#FCF500;}
	.st3{fill:#FBAC0C;}
	.st4{fill:#CCE70B;}
	.st5{fill:#146E27;}
	.st6{fill:#28AECE;}
	.st7{fill:#C01083;}
	.st8{fill:#FFFFFF;}
	.st9{fill:#FF0000;}
</style>
<path class="st0" d="M533.7,886C771,833.3,921.5,594.6,869.8,352.8S583.7-42.3,346.3,10.4S-41.5,301.8,10.2,543.6
	S296.3,938.6,533.7,886z"/>
<ellipse class="st1" cx="409.1" cy="431" rx="371.8" ry="384"/>
<ellipse class="st0" cx="384.6" cy="407.7" rx="331.8" ry="342.6"/>
<path class="st1" d="M168.2,387.7h23.3V466c0,5.5-0.6,10.9-1.8,17s-6.8,9.1-16.6,9.1h-28.2v-19.4H159c3.1,0,5.5-0.6,6.8-2.4
	c1.2-1.8,2.5-4.9,2.5-10.3C168.2,459.9,168.2,387.7,168.2,387.7z M295.3,358v19.4H146.1V358H295.3z M270.7,387.7v72.2
	c0,4.9,0.6,8.5,1.8,10.3c1.2,1.8,3.7,2.4,6.8,2.4H294V492h-28.9c-9.8,0-15.3-3-16.6-9.1c-1.2-5.5-1.8-10.9-1.8-17.6v-77.7
	L270.7,387.7L270.7,387.7z M437.7,348.3l11.1,22.5c0.6,1.8,2.5,3.6,4.3,4.2c0,0,1.2,0,3.1,0h0.6h4.9v17h-12.3c0,0-0.6,0-1.2,0
	c-3.1,0-6.1-0.6-9.2-1.8c-3.1-1.8-5.5-4.9-6.8-8.5l-9.8-16.4h-66.9l-15.3,20.6c-3.1,3.6-6.8,6.1-11.7,7.9c1.2-0.6-1.2,0-3.7,0
	c-0.6,0-1.2,0-1.8,0h-9.2v-18.2h3.1c2.5,0,4.3-0.6,6.1-1.2c1.8-1.2,3.7-3.6,6.8-7.9l11.1-17.6L437.7,348.3L437.7,348.3z
	 M461.6,401.1v17H314.9v-17H461.6z M458.6,429v41.3c0,0.6,0,1.2,0,1.2c0,4.9-1.2,9.7-3.7,14c-1.8,3.6-7.4,5.5-16.6,5.5h-121v-62
	H458.6L458.6,429z M340.7,446v25.5h88.4c3.7,0,5.5-1.8,5.5-5.5v-20H340.7L340.7,446z M512,402.3h-17.8c0,0,0,0-0.6,0
	c-2.5,0-4.3-0.6-6.1-1.8c-1.8-1.2-3.1-3.6-3.7-7.3c-0.6-3-0.6-6.1-0.6-9.1v-8.5H501v6.7c0,2.4,0,3.6,0.6,4.2s1.8,0.6,3.1,0.6h6.1
	L512,402.3L512,402.3z M483.7,369.5v-17.6h67.5h0.6c1.2,0,2.5-0.6,3.7-0.6c0.6-0.6,1.2-1.8,1.2-3.6v-1.8h19v7.3c0,0,0,0,0,0.6
	c0,3-0.6,6.1-1.8,9.1c-1.2,2.4-3.7,4.9-6.1,5.5c-0.6,0-4.9,0.6-11.7,0.6h-72.4L483.7,369.5L483.7,369.5z M483.7,412H520v-6.7h19.6
	v6.7h36.2v18.2h-36.2v62.5H520v-63.1h-36.2L483.7,412L483.7,412z M483.7,493.3v-16.4h2.5h0.6c1.2,0,2.5,0,3.7-0.6
	c0.6,0,1.2-1.2,1.8-2.4c1.2-3,1.8-6.7,1.8-10.3l4.9-28.5h17.8l-5.5,35.8c-1.8,10.9-3.7,17-6.8,18.8c-3.1,1.8-7.4,3-13.5,3h-7.4v0.6
	H483.7z M543.9,402.3h-16.6c-5.5,0-8.6-2.4-9.8-6.7c-0.6-4.2-1.2-8.5-1.2-13.3V375h16.6v7.3c0,2.4,0,3.6,0.6,4.2s1.8,1.2,3.7,1.2
	h6.1L543.9,402.3L543.9,402.3z M575.8,492.1h-11.1l0,0c-3.7,0-7.4-1.2-10.4-3s-4.9-7.3-6.1-15.8l-4.3-38.2h18.4l4.3,31.6
	c0.6,4.9,1.2,7.9,2.5,8.5s2.5,1.2,4.3,1.2h2.5v15.7L575.8,492.1L575.8,492.1z M548.8,401.7v-14.6h5.5c1.8,0,2.5-0.6,3.1-0.6
	c0.6-0.6,0.6-2.4,0.6-6.1v-4.9h16.6V387c0,9.7-3.7,14.6-10.4,14.6h-15.4L548.8,401.7L548.8,401.7z"/>
<path class="st1" d="M196.4,327.7c0,11.5,9.8,20.6,21.5,20.6s21.5-9.1,21.5-20.6s-9.8-20.6-21.5-20.6S196.4,316.1,196.4,327.7z"/>
<path class="st1" d="M242.5,260.9L242.5,260.9c0,15.2,12.9,27.9,28.9,27.9s28.9-12.1,28.9-27.9l0,0c0-15.2-12.9-27.9-28.9-27.9
	S242.5,245.7,242.5,260.9z"/>
<path class="st1" d="M333.9,203.9c0,16.4,13.5,29.1,30.7,29.1s30.7-13.3,30.7-29.1l0,0c0-16.4-13.5-29.1-30.7-29.1
	S333.9,188.1,333.9,203.9L333.9,203.9z"/>
<path class="st1" d="M441.4,186.3c0,18.8,16,34,35.6,34s35.6-15.2,35.6-34l0,0c0-18.8-16-34-35.6-34S441.4,167.5,441.4,186.3
	L441.4,186.3z"/>
<path class="st1" d="M558,206.3L558,206.3c0,20,16.6,35.8,37.5,35.8s37.5-16.4,37.5-35.8l0,0l0,0c0-20-16.6-35.8-37.5-35.8
	C575.2,170.5,558,186.3,558,206.3L558,206.3z"/>
<path class="st1" d="M656.9,280.3L656.9,280.3c0,20.6,17.8,37.6,39.3,37.6c22.1,0,39.3-17,39.3-37.6l0,0c0-20.6-17.8-37.6-39.3-37.6
	C674.7,242.7,656.9,259.1,656.9,280.3z"/>
<path class="st1" d="M667.9,318l-86,86.8l35.6,29.1l-35,52.8l74.3-61.3l-35-26.7L667.9,318z M682.7,424.7l-112.4,85.6l41.7,32.2
	l-82.3,131.7l127.7-135.3l-38.1-30.3L682.7,424.7z M92.6,501.8H558v9.1H92.6V501.8z"/>
<path class="st2" d="M640.9,487.8h140v9.1h-140V487.8z"/>
<path class="st1" d="M131.9,527.9h27.6l20.9,41.9l20.9-41.9h27V591h-16v-46.1h-1.2L187.2,591h-14.1l-23.9-46.1H148V591h-16v-63.1
	H131.9z M272.5,527.3h23.9L329,591h-17.8l-6.1-12.7h-39.3l-6.1,12.7h-18.4L272.5,527.3L272.5,527.3z M270.7,566.1h27l-13.5-27.3
	C284.8,539.4,270.7,566.1,270.7,566.1z M340.1,528.5h50.3c0.6,0,0.6,0,1.2,0c3.7,0,7.4,0.6,10.4,1.8c3.1,1.2,5.5,3.6,6.8,6.7
	c0.6,1.2,1.8,4.2,1.8,7.9c0-0.6,0,1.8,0,4.2c0,3,0,5.5-0.6,8.5c0,1.8-1.2,3.6-2.5,5.5c-0.6,0.6-2.5,1.8-4.3,2.4l-2.5,1.8
	c1.8,1.2,3.1,1.8,4.3,2.4c2.5,1.8,4.3,4.2,4.9,7.3c0,0,0,0.6,0,1.2V591h-16.6v-7.3c0,0,0,0,0-0.6c0-1.2-0.6-3-1.2-4.2
	c-0.6-1.8-2.5-3-4.3-3.6c0,0-1.2-0.6-3.1-0.6h-30.1v15.8h-16L340.1,528.5L340.1,528.5z M356,543.1v17.6h28.9c3.1,0,4.9,0,6.1-0.6
	s1.8-1.2,2.5-1.8s1.2-2.4,1.2-4.9s0-4.9-1.2-6.1c-1.2-1.8-2.5-2.4-4.3-3c0,0-1.8-0.6-3.7-0.6h-0.6L356,543.1L356,543.1z M426,527.9
	h16v23.7h10.4l25.2-23.7h21.5l-31.3,30.3l35,32.8h-23.3l-28.2-24.9h-9.8V591h-16L426,527.9L426,527.9z"/>
<path class="st1" d="M665.5,527.9h16V591h-16V527.9z M695.6,591l26.4-31.6l-26.4-31.6h20.3l19.6,23.7l19.6-23.7h20.3L749,560.1
	l27,31.6h-20.3L736.1,568l-19.7,23H695.6L695.6,591z"/>
<path class="st2" d="M167.1,378.8h23.3V457c0,5.5-0.6,10.9-1.8,17s-6.8,9.1-16.6,9.1h-28.2v-19.4h14.1c3.1,0,5.5-0.6,6.8-2.4
	c1.2-1.8,2.5-4.9,2.5-10.3C167.1,450.9,167.1,378.8,167.1,378.8z M294.2,349v19.4H145V349H294.2z M269.6,378.8V451
	c0,4.9,0.6,8.5,1.8,10.3c1.2,1.8,3.7,2.4,6.8,2.4h14.7V483H264c-9.8,0-15.3-3-16.6-9.1c-1.2-5.5-1.8-10.9-1.8-17.6v-77.7
	L269.6,378.8L269.6,378.8z M436.6,339.3l11.1,22.5c0.6,1.8,2.5,3.6,4.3,4.2c0,0,1.2,0,3.1,0h0.6h4.9v17h-12.3c0,0-0.6,0-1.2,0
	c-3.1,0-6.1-0.6-9.2-1.8c-3.1-1.8-5.5-4.9-6.8-8.5l-9.8-16.4h-66.9L339.1,377c-3.1,3.6-6.8,6.1-11.7,7.9c1.2-0.6-1.2,0-3.7,0
	c-0.6,0-1.2,0-1.8,0h-9.2v-18.2h3.1c2.5,0,4.3-0.6,6.1-1.2c1.8-1.2,3.7-3.6,6.8-7.9l11.1-17.6L436.6,339.3L436.6,339.3z
	 M460.5,392.1v17H313.8v-17H460.5z M457.5,420v41.3c0,0.6,0,1.2,0,1.2c0,4.9-1.2,9.7-3.7,14c-1.8,3.6-7.4,5.5-16.6,5.5h-121v-62
	H457.5L457.5,420z M339.6,437v25.5H428c3.7,0,5.5-1.8,5.5-5.5v-20H339.6L339.6,437z M510.9,393.3h-17.8c0,0,0,0-0.6,0
	c-2.5,0-4.3-0.6-6.1-1.8c-1.8-1.2-3.1-3.6-3.7-7.3c-0.6-3-0.6-6.1-0.6-9.1v-8.5h17.8v6.7c0,2.4,0,3.6,0.6,4.2s1.8,0.6,3.1,0.6h6.1
	L510.9,393.3L510.9,393.3z M482.6,360.5v-17.6h67.5h0.6c1.2,0,2.5-0.6,3.7-0.6c0.6-0.6,1.2-1.8,1.2-3.6v-1.8h19v7.3c0,0,0,0,0,0.6
	c0,3-0.6,6.1-1.8,9.1c-1.2,2.4-3.7,4.9-6.1,5.5c-0.6,0-4.9,0.6-11.7,0.6h-72.4V360.5L482.6,360.5z M482.6,403h36.3v-6.7h19.6v6.7
	h36.2v18.2h-36.2v62.5h-19.6v-63.1h-36.2L482.6,403L482.6,403z M482.6,484.3v-16.4h2.5h0.6c1.2,0,2.5,0,3.7-0.6
	c0.6,0,1.2-1.2,1.8-2.4c1.2-3,1.8-6.7,1.8-10.3l4.9-28.5h17.8l-5.5,35.8c-1.8,10.9-3.7,17-6.8,18.8c-3.1,1.8-7.4,3-13.5,3h-7.4
	L482.6,484.3L482.6,484.3z M542.8,393.3h-16.6c-5.5,0-8.6-2.4-9.8-6.7c-0.6-4.2-1.2-8.5-1.2-13.3V366h16.6v7.3c0,2.4,0,3.6,0.6,4.2
	s1.8,1.2,3.7,1.2h6.1L542.8,393.3L542.8,393.3z M574.7,483.1h-11.1l0,0c-3.7,0-7.4-1.2-10.4-3s-4.9-7.3-6.1-15.8l-4.3-38.2h18.4
	l4.3,31.6c0.6,4.9,1.2,7.9,2.5,8.5s2.5,1.2,4.3,1.2h2.5v15.7L574.7,483.1L574.7,483.1z M547.7,392.8v-14.6h5.5
	c1.8,0,2.5-0.6,3.1-0.6c0.6-0.6,0.6-2.4,0.6-6.1v-4.9h16.6V378c0,9.7-3.7,14.6-10.4,14.6h-15.4L547.7,392.8L547.7,392.8z"/>
<path class="st3" d="M195.3,318.8c0,11.5,9.8,20.6,21.5,20.6s21.5-9.1,21.5-20.6s-9.8-20.6-21.5-20.6S195.3,307.1,195.3,318.8z"/>
<path class="st4" d="M241.4,251.9L241.4,251.9c0,15.2,12.9,27.9,28.9,27.9s28.9-12.1,28.9-27.9l0,0c0-15.2-12.9-27.9-28.9-27.9
	S241.4,236.7,241.4,251.9z"/>
<path class="st5" d="M332.8,194.9c0,16.4,13.5,29.1,30.7,29.1s30.7-13.3,30.7-29.1l0,0c0-16.4-13.5-29.1-30.7-29.1
	S332.8,179.1,332.8,194.9L332.8,194.9z"/>
<path class="st6" d="M440.3,177.3c0,18.8,16,34,35.6,34s35.6-15.2,35.6-34l0,0c0-18.8-16-34-35.6-34S440.3,158.5,440.3,177.3
	L440.3,177.3z"/>
<path class="st7" d="M556.9,197.3L556.9,197.3c0,20,16.6,35.8,37.5,35.8s37.5-16.4,37.5-35.8l0,0l0,0c0-20-16.6-35.8-37.5-35.8
	C574.1,161.5,556.9,177.3,556.9,197.3L556.9,197.3z"/>
<path class="st8" d="M130.8,519h27.6l20.9,41.9l20.9-41.9h27v63h-16v-46H210l-23.9,46H172l-23.9-46h-1.2v46h-16v-63H130.8z
	 M271.4,518.3h23.9l32.6,63.7h-17.8l-6.1-12.7h-39.3l-6.1,12.7h-18.4L271.4,518.3L271.4,518.3z M269.6,557.1h27l-13.5-27.3
	C283.7,530.5,269.6,557.1,269.6,557.1z M339,519.5h50.3c0.6,0,0.6,0,1.2,0c3.7,0,7.4,0.6,10.4,1.8c3.1,1.2,5.5,3.6,6.8,6.7
	c0.6,1.2,1.8,4.2,1.8,7.9c0-0.6,0,1.8,0,4.2c0,3,0,5.5-0.6,8.5c0,1.8-1.2,3.6-2.5,5.5c-0.6,0.6-2.5,1.8-4.3,2.4l-2.5,1.8
	c1.8,1.2,3.1,1.8,4.3,2.4c2.5,1.8,4.3,4.2,4.9,7.3c0,0,0,0.6,0,1.2V582h-16.6v-7.3c0,0,0,0,0-0.6c0-1.2-0.6-3-1.2-4.2
	c-0.6-1.8-2.5-3-4.3-3.6c0,0-1.2-0.6-3.1-0.6h-30.1v15.8h-16L339,519.5L339,519.5z M354.9,534.1v17.6h28.9c3.1,0,4.9,0,6.1-0.6
	s1.8-1.2,2.5-1.8s1.2-2.4,1.2-4.9s0-4.9-1.2-6.1c-1.2-1.8-2.5-2.4-4.3-3c0,0-1.8-0.6-3.7-0.6h-0.6L354.9,534.1L354.9,534.1z
	 M424.9,519h16v23.7h10.4l25.2-23.7H498l-31.3,30.3l35,32.8h-23.3l-28.2-24.9h-9.8V582h-16L424.9,519L424.9,519z"/>
<path class="st9" d="M655.8,271.3L655.8,271.3c0,20.6,17.8,37.6,39.3,37.6c22.1,0,39.3-17,39.3-37.6l0,0c0-20.6-17.8-37.6-39.3-37.6
	S655.8,250.1,655.8,271.3z"/>
<path class="st2" d="M666.8,309l-86,86.8l35.6,29.1l-35,52.8l74.3-61.3l-35-26.7L666.8,309z M681.6,415.8l-112.4,85.6l41.7,32.2
	l-82.3,131.7L656.3,530l-38.1-30.3L681.6,415.8z M91.5,492.8h465.4v9.1H91.5V492.8z"/>
<path class="st8" d="M664.4,519h16v63h-16V519z M694.5,582l26.4-31.6l-26.4-31.6h20.3l19.6,23.7l19.6-23.7h20.3l-26.4,32.3l27,31.6
	h-20.3L735,559l-19.7,23H694.5L694.5,582z"/>
</svg>
