<?xml version="1.0" encoding="utf-8"?>
<!-- Generator: Adobe Illustrator 24.0.1, SVG Export Plug-In . SVG Version: 6.00 Build 0)  -->
<svg version="1.1" id="图层_1" xmlns="http://www.w3.org/2000/svg" xmlns:xlink="http://www.w3.org/1999/xlink" x="0px" y="0px"
	 viewBox="0 0 880 896.3" style="enable-background:new 0 0 880 896.3;" xml:space="preserve">
<style type="text/css">
	.st0{fill:#62C4D3;}
	.st1{fill:#406987;}
	.st2{fill:#F3F61D;}
</style>
<path class="st0" d="M533.7,886C771,833.3,921.5,594.6,869.8,352.8S583.7-42.3,346.3,10.4S-41.5,301.8,10.2,543.6
	S296.3,938.6,533.7,886z"/>
<ellipse class="st1" cx="409.1" cy="431" rx="371.8" ry="384"/>
<ellipse class="st0" cx="384.6" cy="407.7" rx="331.8" ry="342.6"/>
<path class="st2" d="M670.7,217.4l2.6-1.3l-2.5,1.5L670.7,217.4z M149.1,232l234.7,146.3l9.1,329.2l8-330.1l269.9-159.8
	c26.7,91.8,17.5,329.7,13.5,341.9c-12.3,37.4-223,142.8-277.4,157c-64.3,16.7-278-101.8-279-108.1c-8.1-54.6-7.4-358,1.5-392.3
	c85.8-28.5,198.6-66.3,284.4-94.7c80.2,13.2,229.3,66.1,256.4,94.4c0.2,0.6,0.3,1.2,0.5,1.8L390.2,358.6L149.1,232z M608.6,532.7
	L608.6,532.7c16.1-33.2,18.9-63.4,2.1-89.2c-15-18.4-40.2-15-68.1-5.5l75.1-137.6l-138.9,57.8c-22.2,7.8-30.7,27-30,54
	c4.5,4.6,65.8-25,98.7-37.4L504,452.4v19.8c27.2-5.1,64.7,17.4,51.4,64.2c-21.3,39.8-65.3,82.1-111,130.7
	C539,621.3,595.4,560,608.6,532.7z M336.2,662.7c21.9-17.1,0.9-117.3-36.5-106.3C282.4,580.8,312.1,668,336.2,662.7L336.2,662.7z
	 M232.2,504.7c8.2,3.7,21.3,3,24.7,11c-7.7,33.8-17.5,94.5-10.2,114.5c17.5-19.3,34-69.9,36.5-103.5l0,0c13.6-7.6,52.4,23,79.9,24.7
	c3.4-17,3.6-27.2-1.6-31.7c-13.8-10.6-32.7-9.4-30.2-19.5c2.4-18,10.4-45,7.1-53.9c-8.3-7.7-20.8-14.7-37.6-20.9
	c5.3-11.8,9.9-26.1,6-42.1c-13.1-14.1-43.9-19.4-50.1-13.9c-1.1,8.6,12.4,13,18,14.5c5,2.7,1,23.7-1.8,29.4
	c-6.3,3.9-21.6-14.4-28.9-9.1c-3.6,21.5,10.1,29.9,24.3,34.7c3.8-0.3,3.5,39.7-1.7,37.2c-3.9,2.4-26.1-16-33.9-12.1
	C225,468.3,229.1,492.1,232.2,504.7L232.2,504.7z M150.7,434.8c3.2,8.4,5.4,25.4,9.7,25.3c7-3.4,5-13.9,7.5-20.9
	c5.8-0.3,19.9,2.2,21.7,8.5c-8.1,27.7-16.7,72.2-8.9,87.8c8.6,12.9,22.3,13.5,38.7,13.2l0,0c8,1.5-7.7-67.7,2.1-96.6
	c6.6-5,30.6,13.3,34.3,4.7c7.7-8.5-4.9-17.9-31.4-27.8c-0.1-30.9,14.7-68.7,23.9-101c-19.8,1.6-37.8,36.2-54.7,89.2l-14.1-6.5
	c21-53.8,9.6-76.8-22.4-77.7c-3.5,0.8-3.6,41.6-1.3,68.3C138.8,398,128.8,420.2,150.7,434.8z M374.2,184.5
	c-98.5-9.3-140.5,64.1-49,73.2l13.4-19.6c-34.1-10-16.1-32.1,18.1-27.2L374.2,184.5L374.2,184.5L374.2,184.5z M404.6,149.7
	l-73.1,108.6h17.6l64.2-94.9h33.9l9-12.4L404.6,149.7z M418,167.5l-72.4,107.3h17.6l63.4-93.6h33.9l12.7-13.7L418,167.5L418,167.5z
	 M438.1,257.3c104,11.3,137.2-52.3,48.5-73h-55.2l-73,107.2h56.8L438.1,257.3z M452.4,236.3l17.9-26
	C512,211.5,487.9,241.8,452.4,236.3L452.4,236.3z M312.9,459.6c0.1,11.1,1.1,32.2-5.8,35.2c-6.9,0-12.4-2-14.6-8.3
	c-1.6-4.7,0.8-18.9,4.2-32.5C299.2,451.2,303.6,449,312.9,459.6z M299.3,428.7L299.3,428.7z"/>
</svg>
