<?xml version="1.0" encoding="utf-8"?>
<!-- Generator: Adobe Illustrator 24.0.1, SVG Export Plug-In . SVG Version: 6.00 Build 0)  -->
<svg version="1.1" id="图层_1" xmlns="http://www.w3.org/2000/svg" xmlns:xlink="http://www.w3.org/1999/xlink" x="0px" y="0px"
	 viewBox="0 0 880 896.3" style="enable-background:new 0 0 880 896.3;" xml:space="preserve">
<style type="text/css">
	.st0{fill:#5A4497;}
	.st1{fill:#271A4A;}
	.st2{opacity:0.75;}
	.st3{fill:#FFFFFF;}
	.st4{fill:#E2D8FF;}
</style>
<path class="st0" d="M533.7,886C771,833.3,921.5,594.6,869.8,352.8S583.7-42.3,346.3,10.4S-41.5,301.8,10.2,543.6
	S296.3,938.6,533.7,886z"/>
<ellipse class="st1" cx="409.1" cy="431" rx="371.8" ry="384"/>
<ellipse class="st0" cx="384.6" cy="407.7" rx="331.8" ry="342.6"/>
<g>
	<g class="st2">
		<path class="st1" d="M513.9,330.4c0,1.3-0.3,3.3-1,6s-1,4.7-1,6c0,1.9,0.6,3.6,1.7,5.3c1.5,0.6,6.2,1.4,14,2.5
			c5.8,0.7,9.9,2.5,12.3,5.3c0.9,9.3,1.4,19.6,1.4,30.8c0,10.6-1.2,35.1-3.6,73.4c-0.2,1.9-1.2,3.5-3.1,4.9
			c-1.9,1.4-5.5,2.4-10.8,3.1c-5.3,0.7-9.1,1.8-11.4,3.5c0.2,1.5-0.1,3.8-0.8,7c-0.8,3.2-1.1,5.3-1.1,6.4c0,3.2,1.6,5.4,4.8,6.7
			c41.1-2.1,78.4-1.9,111.9,0.6c2.4-0.7,3.9-2,4.5-3.6c0-1.1,0.3-2.9,0.8-5.5c0.6-2.5,0.8-4.4,0.8-5.7c0-2.8-1-5.1-3.1-7
			c-2.4-0.9-7-2.1-13.7-3.4c-6-1.1-10.6-2.4-13.7-3.9c1.9-69.8,3.4-110.9,4.5-123.2c0.2-0.2,2.2-2.9,6.2-8.1
			c2.6-3.2,3.9-6.1,3.9-8.7c0-1.3-0.4-2.7-1.1-4.1c-0.7-1.4-1.5-2.2-2.2-2.4c-3,0.4-19.7,2.5-50.2,6.4
			C543.5,325.5,526.8,328,513.9,330.4z"/>
		<path class="st1" d="M210.2,428c18.9-4.7,32-14.7,39.3-30.2c4.7-10.1,7-21,7-32.7c0-15.3-3.9-27.6-11.8-36.9
			c-6-7.1-16.5-11.6-31.7-13.4c-59.5,2.4-107.8,2.4-145,0c-2.6,1.1-3.9,3.3-3.9,6.4c0,0.7,0.2,2.8,0.6,6.2c0.4,2.6,0.4,4.7,0,6.2
			c1.3,2.8,4.4,4.8,9.3,5.9c6,1.5,9.8,2.9,11.5,4.2c0,19.4-0.1,38.9-0.3,58.4c0,22.7-0.5,42.1-1.4,58.2c-0.2,3.2-2.2,5.4-5.9,6.6
			c-3.7,1.2-7.3,2.4-10.7,3.5c-1.7,4.3-2.5,8.5-2.5,12.6c0,3.5,0.7,6.4,2.2,8.7c12.2,0.6,33.4,0.7,63.7,0.3
			c27.1-0.4,48.3,0.1,63.7,1.4c1.1,0.2,2.2-0.1,3.2-0.7c1-0.6,2-1.3,2.9-2.1c3-9.3,4.5-14.1,4.5-14.3c0-1.6-0.4-3.3-1.1-4.8
			c-21.1-3.9-34.7-6.2-40.7-6.7c-0.4-0.4-1.5-1-3.4-2c-1.9-0.9-3-2-3.4-3.1c-1.3-5.4-2-10.3-2-14.5c0-5.2,1-9.4,3.1-12.6
			C185.7,431.2,203.2,429.7,210.2,428z M156.7,405.6c0.1-1,0-1.6-0.4-1.8l0.6-31.7c0-12.7,0.7-22.9,2-30.5c4.1-2.4,8.2-2.7,12.3-0.8
			c5,2.4,8.9,6.3,11.5,11.5c2.8,7.7,4.2,15.3,4.2,23c0,9.7-2.4,17.5-7.3,23.2c-5.8,7.1-13.1,10-21.9,8.7
			C157,407.2,156.6,406.7,156.7,405.6z"/>
		<path class="st1" d="M498.8,473.3c-0.9-1.1-2.9-2.2-5.9-3.2s-5-2.3-6.2-3.8c-18.3-23.5-37.3-50.7-56.9-81.5
			c7.7-13.3,21.1-28.1,40.4-44.5c0.7-0.4,4.3-1.6,10.7-3.6c4.1-1.3,6.9-3.4,8.4-6.2c0.7-2.4,1.1-5,1.1-7.8c0-3-0.4-5.6-1.1-7.8
			c-1.1-1.3-2.6-2-4.5-2c-0.8,0-2.3,0.4-4.8,1.1c-2.4,0.7-4.3,1-5.6,0.8c-1.3,0.4-3.1,0.4-5.3,0h-9c-5.2,0.4-11.8,0.4-19.6,0h-18.8
			c-1.1,1.9-1.3,6.8-0.6,14.8c0,0.9,0.6,2.1,1.8,3.6c1.2,1.5,1.8,2.6,1.8,3.3c0,0.7-0.3,1.5-0.8,2.2c-12.3,15.1-25.9,30-40.7,44.9
			c-1.1,0.2-2.9,0.9-5.5,2.1c-2.5,1.2-4.4,1.8-5.7,1.8c-1.1,0-2.2-0.4-3.4-1.1c-0.8-5.6-0.8-12.6-0.3-21l1.7-21.3
			c1.3-2.8,4.5-4.9,9.5-6.4s8.3-3.3,9.8-5.3c0.2-0.9,0.7-2.8,1.4-5.6c0.7-2.8,1.1-4.9,1.1-6.4c0-3-1.3-5.2-3.9-6.7
			c-19.8,1.5-39.5,2.2-58.9,2.2c-15.6,0-31.2-0.4-46.8-1.1c0,0.6-0.3,0.8-0.8,0.8c-2.8,1.1-4.2,3.6-4.2,7.5c0,1.1,0.1,2.8,0.3,5.2
			c0.2,2.3,0.3,4.1,0.3,5.2c1.5,2.1,4.8,3.5,9.8,4.3s8.3,2.4,9.8,4.6c1.5,30.7,0.7,70.7-2.5,120.1c-1.5,3.2-5,6-10.7,8.4
			c-3.9,0.6-6.2,2.9-6.7,7c-0.2,1.1-0.2,4.6,0,10.3c1.9,1.9,3.2,3,3.9,3.3c49-1.1,83.8-1,104.3,0.3c3-1.9,4.5-7.7,4.5-17.6
			c-0.9-3.7-4.3-5.9-10.1-6.4c-6.5-0.7-10.7-2.5-12.3-5.3c-1.3-6-1.8-13.4-1.4-22.3c0.2-7.6,0.5-15.3,0.8-22.9
			c1.3-3,2.2-4.7,2.7-5.2s1.1-0.7,1.8-0.7c0.4,0,2.1,0.9,5.3,2.8c17.4,31.6,30.8,57.4,40.4,77.6c29-2.8,53.5-2.9,73.5-0.3
			c0.4,0.2,0.9,0.1,1.5-0.3c0.7-0.4,1.2-0.6,1.5-0.6c0.2-0.9,1.1-3.7,2.8-8.4C498.1,478.7,498.8,475.7,498.8,473.3z"/>
		<path class="st1" d="M814.1,349.2c-0.2-0.7-0.3-1.5-0.3-2.2c0-1.9,1.5-3.2,4.5-3.9c3.7-0.7,6-1.7,6.7-2.8c4.7-9.3,7-15,7-17.1
			c0-1.5-0.3-3-0.8-4.5c-0.9,0-1.6-0.1-2-0.3c-12,2.4-30.8,2.9-56.4,1.4c-26.9-1.5-46.2-1.3-57.8,0.6c-20.4,3-36.4,11.3-48,24.9
			c-12.3,18.7-18.5,40.7-18.5,66.1c0,21.5,4.7,40.3,14,56.6c14.2,19.4,37.8,29.1,70.7,29.1c11.4,0,24.1-1.2,38.1-3.6
			c11.2-1.9,21.9-6.8,32.1-14.7c10.2-7.9,16.8-17.1,19.8-27.6c6.2-21.7,9.3-39.6,9.3-53.8C832.6,376.5,826.4,360.4,814.1,349.2z
			 M753.8,463.2c-4.9,5.8-9.4,8.7-13.5,8.7c-3.7,0-7.3-1.4-10.7-4.2c-9.4-15.3-14-34-14-56c0-12.9,1.6-27.3,4.8-43.1
			c2.4-12.5,8.5-20,18.2-22.4c6.9,0.2,12.1,3.7,15.7,10.6l6.7,19c2.2,11.4,3.4,22.7,3.4,33.9C764.4,429.7,760.9,447.5,753.8,463.2z"
			/>
		<polygon class="st1" points="247.6,594.3 247.4,542.6 232.7,542.7 233,608.1 277.4,607.9 277.4,594.1 		"/>
		<path class="st1" d="M307.3,540.9h-0.2c-11,0-19.5,4.1-25.3,12.2c-4.4,6.2-6.6,13.7-6.6,22.2s2.3,15.9,6.9,22.1
			c5.8,8,14.2,12,25.1,12h0.2c11,0,19.5-4.2,25.3-12.2c4.4-6.2,6.6-13.6,6.6-22.2c0-8.5-2.3-15.9-6.9-22.1
			C326.7,544.9,318.2,540.9,307.3,540.9z M295,590.2c-3.2-3.8-4.8-8.7-4.8-15s1.5-11.2,4.7-15.1c3-3.7,7-5.5,12.3-5.5v-3.4l0.1,3.4
			c5.2,0,9.3,1.8,12.4,5.5s4.7,8.7,4.7,14.9c0,6.3-1.5,11.2-4.7,15.1c-3,3.7-7,5.5-12.4,5.5C302.1,595.6,298,593.8,295,590.2z"/>
		<polygon class="st1" points="391.2,542.1 336.7,542.3 336.8,556.1 356.7,556 356.9,607.6 371.6,607.6 371.4,555.9 391.2,555.9 		
			"/>
		<polygon class="st1" points="446.8,541.9 392.3,542.1 392.4,555.9 412.3,555.8 412.5,607.4 427.2,607.4 427,555.7 446.8,555.7 		
			"/>
		<polygon class="st1" points="463.1,593.4 463,580.6 495.2,580.5 495.1,566.7 463,566.8 462.9,555.6 497.8,555.5 497.7,541.7 
			448.2,541.9 448.5,607.3 498.6,607.1 498.5,593.3 		"/>
		<path class="st1" d="M524.5,541.6l-24.4,65.5h15.5l6-17.1l18.8-0.1l5.9,17h15.9l-24-65.3L524.5,541.6z M526.4,576.1l4.6-12.4
			l4.2,12.3L526.4,576.1z"/>
		<path class="st1" d="M617.1,599c-0.7-0.4-1-0.7-1-0.7l0,0c0-0.1-0.2-0.6-0.2-2.2V596l-0.5-10.6c0-4.4-1.1-7.9-3.1-10.2
			c-0.3-0.4-0.7-0.7-1.1-1.1c0.8-0.8,1.5-1.5,2.1-2.3c2.2-3,3.2-6.8,3.2-11.4c0-6.9-2.6-12.1-7.6-15.4c-3.7-2.4-8.8-3.7-14.9-3.7
			l-30.7,0.1l0.3,65.4l14.7-0.1l-0.1-25.2l16-0.1c3,0,5,0.7,6,2c0.4,0.5,1,1.9,1,5.1c0,2.4,0.1,5.1,0.4,8c0.2,3.2,0.6,5.7,1.2,7.6
			l0.7,2.4l15.6-0.1v-6.7L617.1,599z M577.9,568.1v-13.2l16.4-0.1l0.1-3.4l0,0v3.4c2.1,0,3.8,0.3,5,1c0.5,0.3,2.1,1.3,2.2,5.3
			c0,4.1-1.6,5.2-2.2,5.5c-0.9,0.6-2.7,1.3-6.4,1.3L577.9,568.1z"/>
		<polygon class="st1" points="677.9,541 660.5,541.1 645.7,566.1 630.7,541.2 613.4,541.3 638.4,580.6 638.5,606.6 653.2,606.5 
			653.1,580.5 		"/>
	</g>
	<g>
		<g>
			<path class="st3" d="M506.9,323.4c0,1.3-0.3,3.3-1,6s-1,4.7-1,6c0,1.9,0.6,3.6,1.7,5.3c1.5,0.6,6.2,1.4,14,2.5
				c5.8,0.7,9.9,2.5,12.3,5.3c0.9,9.3,1.4,19.6,1.4,30.8c0,10.6-1.2,35.1-3.6,73.4c-0.2,1.9-1.2,3.5-3.1,4.9
				c-1.9,1.4-5.5,2.4-10.8,3.1c-5.3,0.7-9.1,1.8-11.4,3.5c0.2,1.5-0.1,3.8-0.8,7c-0.8,3.2-1.1,5.3-1.1,6.4c0,3.2,1.6,5.4,4.8,6.7
				c41.1-2.1,78.4-1.9,111.9,0.6c2.4-0.7,3.9-2,4.5-3.6c0-1.1,0.3-2.9,0.8-5.5c0.6-2.5,0.8-4.4,0.8-5.7c0-2.8-1-5.1-3.1-7
				c-2.4-0.9-7-2.1-13.7-3.4c-6-1.1-10.6-2.4-13.7-3.9c1.9-69.8,3.4-110.9,4.5-123.2c0.2-0.2,2.2-2.9,6.2-8.1
				c2.6-3.2,3.9-6.1,3.9-8.7c0-1.3-0.4-2.7-1.1-4.1c-0.7-1.4-1.5-2.2-2.2-2.4c-3,0.4-19.7,2.5-50.2,6.4
				C536.5,318.5,519.8,321,506.9,323.4z"/>
			<path class="st3" d="M203.2,421c18.9-4.7,32-14.7,39.3-30.2c4.7-10.1,7-21,7-32.7c0-15.3-3.9-27.6-11.8-36.9
				c-6-7.1-16.5-11.6-31.7-13.4c-59.5,2.4-107.8,2.4-145,0c-2.6,1.1-3.9,3.3-3.9,6.4c0,0.7,0.2,2.8,0.6,6.2c0.4,2.6,0.4,4.7,0,6.2
				c1.3,2.8,4.4,4.8,9.3,5.9c6,1.5,9.8,2.9,11.5,4.2c0,19.4-0.1,38.9-0.3,58.4c0,22.7-0.5,42.1-1.4,58.2c-0.2,3.2-2.2,5.4-5.9,6.6
				c-3.7,1.2-7.3,2.4-10.7,3.5c-1.7,4.3-2.5,8.5-2.5,12.6c0,3.5,0.7,6.4,2.2,8.7c12.2,0.6,33.4,0.7,63.7,0.3
				c27.1-0.4,48.3,0.1,63.7,1.4c1.1,0.2,2.2-0.1,3.2-0.7c1-0.6,2-1.3,2.9-2.1c3-9.3,4.5-14.1,4.5-14.3c0-1.6-0.4-3.3-1.1-4.8
				c-21.1-3.9-34.7-6.2-40.7-6.7c-0.4-0.4-1.5-1-3.4-2c-1.9-0.9-3-2-3.4-3.1c-1.3-5.4-2-10.3-2-14.5c0-5.2,1-9.4,3.1-12.6
				C178.7,424.2,196.2,422.7,203.2,421z M149.7,398.6c0.1-1,0-1.6-0.4-1.8l0.6-31.7c0-12.7,0.7-22.9,2-30.5
				c4.1-2.4,8.2-2.7,12.3-0.8c5,2.4,8.9,6.3,11.5,11.5c2.8,7.7,4.2,15.3,4.2,23c0,9.7-2.4,17.5-7.3,23.2c-5.8,7.1-13.1,10-21.9,8.7
				C150,400.2,149.6,399.7,149.7,398.6z"/>
			<path class="st3" d="M491.8,466.3c-0.9-1.1-2.9-2.2-5.9-3.2s-5-2.3-6.2-3.8c-18.3-23.5-37.3-50.7-56.9-81.5
				c7.7-13.3,21.1-28.1,40.4-44.5c0.7-0.4,4.3-1.6,10.7-3.6c4.1-1.3,6.9-3.4,8.4-6.2c0.7-2.4,1.1-5,1.1-7.8c0-3-0.4-5.6-1.1-7.8
				c-1.1-1.3-2.6-2-4.5-2c-0.8,0-2.3,0.4-4.8,1.1c-2.4,0.7-4.3,1-5.6,0.8c-1.3,0.4-3.1,0.4-5.3,0h-9c-5.2,0.4-11.8,0.4-19.6,0h-18.8
				c-1.1,1.9-1.3,6.8-0.6,14.8c0,0.9,0.6,2.1,1.8,3.6c1.2,1.5,1.8,2.6,1.8,3.3c0,0.7-0.3,1.5-0.8,2.2c-12.3,15.1-25.9,30-40.7,44.9
				c-1.1,0.2-2.9,0.9-5.5,2.1c-2.5,1.2-4.4,1.8-5.7,1.8c-1.1,0-2.2-0.4-3.4-1.1c-0.8-5.6-0.8-12.6-0.3-21l1.7-21.3
				c1.3-2.8,4.5-4.9,9.5-6.4s8.3-3.3,9.8-5.3c0.2-0.9,0.7-2.8,1.4-5.6c0.7-2.8,1.1-4.9,1.1-6.4c0-3-1.3-5.2-3.9-6.7
				c-19.8,1.5-39.5,2.2-58.9,2.2c-15.6,0-31.2-0.4-46.8-1.1c0,0.6-0.3,0.8-0.8,0.8c-2.8,1.1-4.2,3.6-4.2,7.5c0,1.1,0.1,2.8,0.3,5.2
				c0.2,2.3,0.3,4.1,0.3,5.2c1.5,2.1,4.8,3.5,9.8,4.3s8.3,2.4,9.8,4.6c1.5,30.7,0.7,70.7-2.5,120.1c-1.5,3.2-5,6-10.7,8.4
				c-3.9,0.6-6.2,2.9-6.7,7c-0.2,1.1-0.2,4.6,0,10.3c1.9,1.9,3.2,3,3.9,3.3c49-1.1,83.8-1,104.3,0.3c3-1.9,4.5-7.7,4.5-17.6
				c-0.9-3.7-4.3-5.9-10.1-6.4c-6.5-0.7-10.7-2.5-12.3-5.3c-1.3-6-1.8-13.4-1.4-22.3c0.2-7.6,0.5-15.3,0.8-22.9
				c1.3-3,2.2-4.7,2.7-5.2s1.1-0.7,1.8-0.7c0.4,0,2.1,0.9,5.3,2.8c17.4,31.6,30.8,57.4,40.4,77.6c29-2.8,53.5-2.9,73.5-0.3
				c0.4,0.2,0.9,0.1,1.5-0.3c0.7-0.4,1.2-0.6,1.5-0.6c0.2-0.9,1.1-3.7,2.8-8.4C491.1,471.7,491.8,468.7,491.8,466.3z"/>
			<path class="st3" d="M807.1,342.2c-0.2-0.7-0.3-1.5-0.3-2.2c0-1.9,1.5-3.2,4.5-3.9c3.7-0.7,6-1.7,6.7-2.8c4.7-9.3,7-15,7-17.1
				c0-1.5-0.3-3-0.8-4.5c-0.9,0-1.6-0.1-2-0.3c-12,2.4-30.8,2.9-56.4,1.4c-26.9-1.5-46.2-1.3-57.8,0.6c-20.4,3-36.4,11.3-48,24.9
				c-12.3,18.7-18.5,40.7-18.5,66.1c0,21.5,4.7,40.3,14,56.6c14.2,19.4,37.8,29.1,70.7,29.1c11.4,0,24.1-1.2,38.1-3.6
				c11.2-1.9,21.9-6.8,32.1-14.7c10.2-7.9,16.8-17.1,19.8-27.6c6.2-21.7,9.3-39.6,9.3-53.8C825.6,369.5,819.4,353.4,807.1,342.2z
				 M746.8,456.2c-4.9,5.8-9.4,8.7-13.5,8.7c-3.7,0-7.3-1.4-10.7-4.2c-9.4-15.3-14-34-14-56c0-12.9,1.6-27.3,4.8-43.1
				c2.4-12.5,8.5-20,18.2-22.4c6.9,0.2,12.1,3.7,15.7,10.6l6.7,19c2.2,11.4,3.4,22.7,3.4,33.9C757.4,422.7,753.9,440.5,746.8,456.2z
				"/>
			<g>
				<polygon class="st4" points="240.6,587.3 240.4,535.6 225.7,535.7 226,601.1 270.4,600.9 270.4,587.1 				"/>
				<path class="st4" d="M300.3,533.9h-0.2c-11,0-19.5,4.1-25.3,12.2c-4.4,6.2-6.6,13.7-6.6,22.2s2.3,15.9,6.9,22.1
					c5.8,8,14.2,12,25.1,12h0.2c11,0,19.5-4.2,25.3-12.2c4.4-6.2,6.6-13.6,6.6-22.2c0-8.5-2.3-15.9-6.9-22.1
					C319.7,537.9,311.2,533.9,300.3,533.9z M288,583.2c-3.2-3.8-4.8-8.7-4.8-15s1.5-11.2,4.7-15.1c3-3.7,7-5.5,12.3-5.5v-3.4
					l0.1,3.4c5.2,0,9.3,1.8,12.4,5.5s4.7,8.7,4.7,14.9c0,6.3-1.5,11.2-4.7,15.1c-3,3.7-7,5.5-12.4,5.5
					C295.1,588.6,291,586.8,288,583.2z"/>
				<polygon class="st4" points="384.2,535.1 329.7,535.3 329.8,549.1 349.7,549 349.9,600.6 364.6,600.6 364.4,548.9 384.2,548.9 
									"/>
				<polygon class="st4" points="439.8,534.9 385.3,535.1 385.4,548.9 405.3,548.8 405.5,600.4 420.2,600.4 420,548.7 439.8,548.7 
									"/>
				<polygon class="st4" points="456.1,586.4 456,573.6 488.2,573.5 488.1,559.7 456,559.8 455.9,548.6 490.8,548.5 490.7,534.7 
					441.2,534.9 441.5,600.3 491.6,600.1 491.5,586.3 				"/>
				<path class="st4" d="M517.5,534.6l-24.4,65.5h15.5l6-17.1l18.8-0.1l5.9,17h15.9l-24-65.3L517.5,534.6z M519.4,569.1l4.6-12.4
					l4.2,12.3L519.4,569.1z"/>
				<path class="st4" d="M610.1,592c-0.7-0.4-1-0.7-1-0.7l0,0c0-0.1-0.2-0.6-0.2-2.2V589l-0.5-10.6c0-4.4-1.1-7.9-3.1-10.2
					c-0.3-0.4-0.7-0.7-1.1-1.1c0.8-0.8,1.5-1.5,2.1-2.3c2.2-3,3.2-6.8,3.2-11.4c0-6.9-2.6-12.1-7.6-15.4c-3.7-2.4-8.8-3.7-14.9-3.7
					l-30.7,0.1l0.3,65.4l14.7-0.1l-0.1-25.2l16-0.1c3,0,5,0.7,6,2c0.4,0.5,1,1.9,1,5.1c0,2.4,0.1,5.1,0.4,8c0.2,3.2,0.6,5.7,1.2,7.6
					l0.7,2.4l15.6-0.1v-6.7L610.1,592z M570.9,561.1v-13.2l16.4-0.1l0.1-3.4l0,0v3.4c2.1,0,3.8,0.3,5,1c0.5,0.3,2.1,1.3,2.2,5.3
					c0,4.1-1.6,5.2-2.2,5.5c-0.9,0.6-2.7,1.3-6.4,1.3L570.9,561.1z"/>
				<polygon class="st4" points="670.9,534 653.5,534.1 638.7,559.1 623.7,534.2 606.4,534.3 631.4,573.6 631.5,599.6 646.2,599.5 
					646.1,573.5 				"/>
			</g>
		</g>
	</g>
</g>
</svg>
