<?xml version="1.0" encoding="utf-8"?>
<!-- Generator: Adobe Illustrator 21.1.0, SVG Export Plug-In . SVG Version: 6.00 Build 0)  -->
<svg version="1.1" id="图层_1" xmlns="http://www.w3.org/2000/svg" xmlns:xlink="http://www.w3.org/1999/xlink" x="0px" y="0px"
	 viewBox="0 0 880 896.3" style="enable-background:new 0 0 880 896.3;" xml:space="preserve">
<style type="text/css">
	.st0{fill:#7B63A9;}
	.st1{fill:#3D2D5C;}
	.st2{fill:#FFFFFF;}
	.st3{opacity:0.75;}
	.st4{fill:#E5E0EE;}
	.st5{fill:#F6E761;}
</style>
<path class="st0" d="M533.7,886C771,833.3,921.5,594.6,869.8,352.8S583.7-42.3,346.3,10.4S-41.5,301.8,10.2,543.6
	S296.3,938.6,533.7,886z"/>
<ellipse class="st1" cx="409.1" cy="431" rx="371.8" ry="384"/>
<ellipse class="st0" cx="384.6" cy="407.7" rx="331.8" ry="342.6"/>
<path class="st2" d="M666.5,312.9l-2.4,0l-39.2,15.6l0.1,40.1c13.3-5.2,26.7-10.4,40-15.6C665.5,339.7,666,326.2,666.5,312.9z"/>
<g>
	<g class="st3">
		<path class="st1" d="M538.6,588.5c-4.6,1.9-9.2,3.9-13.8,5.8c-5.1,3-9,14.6-10.6,20.5c-0.6,0.2-1.1,0.6-1.7,0.8
			c-3-4.6-6.1-9.2-9.1-13.9c-5.5,1.9-10.9,3.9-16.4,5.8c-0.2,0.6-0.5,1.1-0.8,1.7c12.5,11.1,19.5,20.9,19.1,45.8l15.5-5l-0.1-23.7
			C523.1,619.4,541.2,592.4,538.6,588.5z"/>
		<path class="st1" d="M457.1,650.9c1.7-0.2,3.3-0.6,4.9-0.8c3.6,5.7,7.2,11.4,10.7,17.2c5.7-1.9,11.4-3.9,17.2-5.8
			c0.8-5.3-7.3-17.5-13.9-18.8c5-6.1,13.4-12.4,9.7-24.6c-1.4-3-2-3.6-5-4.9c-1.9-0.2-3.9-0.5-5.7-0.8c-11.2,3.9-22.3,7.6-33.5,11.5
			l0.2,54.9c5.2-1.9,10.3-3.9,15.5-5.8L457.1,650.9z M466,626.3l3.2,0l1.7,5c-3,5.3-6.9,6.8-13.1,9.1c-0.2-3.6-0.6-7.2-0.8-10.7
			C460.1,628.5,463,627.4,466,626.3z"/>
		<path class="st1" d="M413.8,677l-0.8,0c-0.7-14,12.1-16.7,22.8-18c0.2-4.1,0.5-8.2,0.7-12.2c-7.8,3.1-15.7,6.1-23.6,9.1l0-9
			c8.4-2.7,16.8-5.4,25.3-8.2c-0.2-4.1-0.6-8.2-0.8-12.2c-13.3,5-26.7,9.9-40,14.8l0.2,54c13.9-5,27.8-9.9,41.7-14.8
			c0-4.1,0-8.2-0.1-12.4C430.7,671,422.2,674,413.8,677z"/>
		<path class="st1" d="M391.8,642.1c-28.3,10.4-56.6,20.8-84.9,31.2l0,13.9c5.2-1.9,10.3-3.9,15.5-5.8l0.1,40.1l15.5-5l-0.1-40.9
			c8.4-3.1,16.8-6.1,25.3-9.1l0.1,40.1l13.9-5c14.2-11.8-15.7-37.8,17.8-46.6c0-4.3,0-8.7,0.1-13L391.8,642.1z"/>
		<path class="st1" d="M286.2,679.9c-15.9,8.7-36,18.1-29.2,45.9c1.4,5.9,2.7,10.8,7.4,13.1C297.4,755.3,331.8,677.8,286.2,679.9z
			 M275.8,725.6c-3.9-5.4-6.2-16.5-1.7-23.7c2.1-4.5,5-5.6,9-8.2l4.1,0c0.6,0.3,1.1,0.5,1.7,0.8
			C296.4,706.7,291.3,725.5,275.8,725.6z"/>
		<path class="st1" d="M232.4,741.3l-0.8,0c0.2-9.4,3.2-34.6-1.8-40.1l-13.9,5c-0.2,0.5-0.5,1.1-0.8,1.7l0.2,52.3
			c13.3-4.7,26.7-9.3,40-14c0-4.4,0-8.8-0.1-13.1C247.7,735.8,240,738.6,232.4,741.3z"/>
		<path class="st1" d="M406.6,323.5l-12.2,4.1l22.9-83.4l-65.8,22.3l8.1-23.7l72.9-24.7l9.1-33l-144.1,48.8l-9.1,33l35.2-11.9
			l-8.1,23.7l-29.2,9.9l-9.6,35l26.3-8.9l-17.2,49.8l-28.4,9.6l-9.7,35.4l149.3-50.5L406.6,323.5z M357.9,340l-36.1,12.2l17.2-49.8
			l32.3-10.9L357.9,340z"/>
		<polygon class="st1" points="478.2,234.1 509.9,162.6 475.1,174.3 459.4,207.5 447.1,211.6 437.1,248 		"/>
		<polygon class="st1" points="543.7,178.4 546.7,210.9 585.9,197.6 595.9,161.3 583.8,165.4 582.6,136.3 513,159.9 504.2,191.8 		
			"/>
		<polygon class="st1" points="420.6,321.3 411.1,355.8 461.9,338.6 499.2,258.7 533.7,247 522.8,286.7 487.3,298.7 479.7,332.4 
			550.1,308.6 579.4,201.9 443.5,247.9 434.5,280.6 462.1,271.2 440.6,314.5 		"/>
		<path class="st1" d="M629.2,500.6c3-29.2,5.9-58.4,8.8-87.6c5.9-2.7,12-5.4,17.9-8.2c2.7-8.8,5.3-17.5,8.1-26.2l-2.4,0l-51.4,20.6
			c1.1-3.6,2.2-7.2,3.3-10.7c-14.7,5.5-29.3,11-44.1,16.5c-1.6,4.4-3.3,8.7-4.9,13.1c-18.2,7.1-36.5,14.3-54.7,21.4
			c-2.6,8.8-5.3,17.5-8.1,26.2c5.7-2.1,11.4-4.3,17.1-6.5l-54.5,106.5c13.5-5.2,27.2-10.4,40.8-15.6c14.7-28.7,29.2-57.3,43.9-86
			c0.5-0.2,1.1-0.6,1.6-0.8c-8.9,27.3-17.8,54.6-26.7,81.9l0,0.8c14.7-5.8,29.3-11.5,44.1-17.3c8.6-27.2,17.3-54.6,26.1-82
			c-1.6,23.1-3.2,46.4-4.8,69.5C602.5,511.1,615.9,505.8,629.2,500.6z"/>
		<path class="st1" d="M482.5,430c6.8-2.7,13.6-5.4,20.4-8.2c5.7-15.9,11.4-31.6,17-47.5c-6.3,2.4-12.5,5-18.8,7.4l-0.8,0
			c4.4-12.6,8.6-25.1,13-37.7l-1.7,0c-13.3,5.2-26.7,10.4-40,15.6c-4.4,12.8-8.6,25.7-13,38.5c-21.2,8.2-42.4,16.4-63.6,24.7
			c-5.5,15.3-10.8,30.5-16.3,45.9c20.8-7.6,41.4-15.4,62.1-23c-1.6,4.4-3.3,8.7-4.9,13.1c-0.2,7.4,4.7,15.9,0.8,25.3
			c-4.7,11.5-15.8,19-20.4,29.5c-2.4,6.3-4.9,12.6-7.3,18.8c-9.3,3.9-18.6,7.6-27.8,11.5c-9.2,7-13.2,34-17.8,45.1
			c21-8.2,41.9-16.5,62.9-24.7C443.7,551.6,475.9,457.4,482.5,430z"/>
		<path class="st1" d="M381.2,474.4c-4.1,1.3-8.1,2.8-12.2,4.1c7.3-19.8,14.6-39.8,21.9-59.7c2.2-3.4,8.7-5.4,13.1-6.5
			c1.9-5.5,3.8-10.9,5.7-16.4l-2.4,0c-25.3,9.9-50.6,19.7-76.1,29.6c-21.4,60.1-42.7,120-64.1,180.1c26.2-9.9,52.2-19.7,78.4-29.6
			c11.9-33.6,23.8-67.1,35.7-100.8L381.2,474.4z M330.8,535.8c-2.2,3.4-8.2,5-12.2,6.5c-0.3,0-0.5,0-1,0.1
			c2.4-6.8,4.9-13.7,7.3-20.5c3.6-1.3,7.1-2.8,10.7-4.1l1.7,0C335.2,523.8,333,529.9,330.8,535.8z M351.9,476.9
			c-2.3,3.6-8.1,5-12.2,6.5l-0.8,0c2.1-6,4.3-12,6.4-18c2.6-3.6,8.1-4.2,12.2-6.5C358.6,462.7,354.4,473,351.9,476.9z"/>
		<path class="st1" d="M413.2,464.5c-10.5,5.4-41.1,31-20.3,46.6C419.8,517.3,442.8,463.9,413.2,464.5z"/>
		<path class="st1" d="M185.3,537.8c-3.8,1.3-7.6,2.8-11.4,4.1l-0.8,0c7.3-20.8,14.6-41.6,21.9-62.3c4.4-1.3,8.7-2.8,13.1-4.1
			l4.9-17.2c-26.2,10.2-52.2,20.3-78.4,30.4C101,583,92,608.7,70.5,668.9c26.4-9.9,52.8-19.7,79-29.6
			c11.9-33.6,23.8-67.1,35.7-100.8L185.3,537.8z M134.9,600.8c-4.4,1.7-8.7,3.3-13.1,5c2.1-6.8,4.3-13.7,6.4-20.5
			c3.5-1.3,7-2.7,10.7-4.1l2.4,0C139.3,587.6,137.1,594.3,134.9,600.8z M156,541.9c-4.4,1.7-8.7,3.3-13.1,5
			c2.4-6.8,4.9-13.7,7.3-20.5c3.5-1.4,7-2.8,10.7-4.1C163.2,525.6,157.6,536.4,156,541.9z"/>
		<path class="st1" d="M287.6,491.7c23.9-6.1,32.3-29.9,36.6-54c-6.5,2.4-13.1,5-19.6,7.4c4-12.8,8.1-25.7,12.1-38.5
			c-13.3,5.2-26.7,10.4-40,15.6c-4.9,13.1-9.7,26.2-14.6,39.4c-21,7.9-41.9,15.8-62.9,23.8c-5.5,15.3-10.8,30.5-16.3,45.9l0,0.8
			c20.7-7.9,41.3-15.8,62-23.8l-4.9,13.9c0.3,10.6,5,16.2-0.7,28.6c-4.2,9.3-13.3,15.4-17.9,23.7c-2.1,6.3-4.3,12.6-6.4,18.8
			c-4.6,6.4-21.9,11.1-30.2,13.2c-5.5,15-10.8,30-16,45c15.5-3.1,52.2-16.6,63.6-25.5C252.3,610.6,276.5,521.6,287.6,491.7z"/>
		<path class="st1" d="M229.5,530.3c-3.4-2.1-5.6-3.3-11.5-3.3c-10.1,5.8-41.3,30.9-20.3,46.7C219.8,578.2,237.3,550.8,229.5,530.3z
			"/>
		<path class="st1" d="M510.4,424.1c13.3-5.2,26.7-10.4,40-15.6c8.4-15.1,16.8-30.1,25.2-45.1c0.5-0.2,1.1-0.6,1.6-0.8l0.1,34.4
			c13.5-5.2,27.2-10.4,40.8-15.6l-0.1-40.1c-12.5,5-25.1,9.9-37.6,14.8c12.4-25.1,75.3-27,97.1-45.2c3.6-7.1,7.1-14.2,10.6-21.3
			c3.1-6,6-12,9-18c-14.5,5.8-28.9,11.5-43.3,17.3c-1.9,3.6-3.8,7.2-5.7,10.7c-28.9,11.2-57.7,22.5-86.5,33.7
			C544.6,363.4,527.5,393.8,510.4,424.1z"/>
		<path class="st1" d="M743.2,299.5c6-27.5,27.9-42.1,42.3-61.4l-2.4,0c-20.8,8.2-41.4,16.5-62.1,24.7c-4.4,7.4-8.7,14.8-13,22.2
			c-12.6,21-18.6,44.4-23.4,74.5c-6.6,40.3,9.2,63.8-7.1,98.2c-11.9,24.9-30.6,44.7-43.2,67.9c-3.5,6.5-10.7,19.7-5.6,28.7
			c2.5,5.3,41.8,22.6,49.2,25.2c-16.6,42.6-63.8,63-100.3,86.1c-43.4,27.4-107.2,86.7-123.8,138.5l79.1-31.2
			c12.2-64.9,63.7-92.2,109.1-124.6c19.5-16.5,39.2-32.8,58.7-49.2c12.5-10.2,27.7-22.7,35-37.7c15-30.8-52-32.5-43.6-81.8
			c3.2-18.7,12.6-31.7,18.7-47.5c2.1-8.2,4.2-16.4,6.4-24.6c7.7-15,23.8-25.2,30.9-42.6C758,340.2,737.8,323.2,743.2,299.5z"/>
	</g>
	<g>
		<g>
			<g>
				<path class="st4" d="M531.6,581.5c-4.6,1.9-9.2,3.9-13.8,5.8c-5.1,3-9,14.6-10.6,20.5c-0.6,0.2-1.1,0.6-1.7,0.8
					c-3-4.6-6.1-9.2-9.1-13.9c-5.5,1.9-10.9,3.9-16.4,5.8c-0.2,0.6-0.5,1.1-0.8,1.7c12.5,11.1,19.5,20.9,19.1,45.8l15.5-5l-0.1-23.7
					C516.1,612.4,534.2,585.4,531.6,581.5z"/>
				<path class="st4" d="M450.1,643.9c1.7-0.2,3.3-0.6,4.9-0.8c3.6,5.7,7.2,11.4,10.7,17.2c5.7-1.9,11.4-3.9,17.2-5.8
					c0.8-5.3-7.3-17.5-13.9-18.8c5-6.1,13.4-12.4,9.7-24.6c-1.4-3-2-3.6-5-4.9c-1.9-0.2-3.9-0.5-5.7-0.8
					c-11.2,3.9-22.3,7.6-33.5,11.5l0.2,54.9c5.2-1.9,10.3-3.9,15.5-5.8L450.1,643.9z M459,619.3l3.2,0l1.7,5
					c-3,5.3-6.9,6.8-13.1,9.1c-0.2-3.6-0.6-7.2-0.8-10.7C453.1,621.5,456,620.4,459,619.3z"/>
				<path class="st4" d="M406.8,670l-0.8,0c-0.7-14,12.1-16.7,22.8-18c0.2-4.1,0.5-8.2,0.7-12.2c-7.8,3.1-15.7,6.1-23.6,9.1l0-9
					c8.4-2.7,16.8-5.4,25.3-8.2c-0.2-4.1-0.6-8.2-0.8-12.2c-13.3,5-26.7,9.9-40,14.8l0.2,54c13.9-5,27.8-9.9,41.7-14.8
					c0-4.1,0-8.2-0.1-12.4C423.7,664,415.2,667,406.8,670z"/>
				<path class="st4" d="M384.8,635.1c-28.3,10.4-56.6,20.8-84.9,31.2l0,13.9c5.2-1.9,10.3-3.9,15.5-5.8l0.1,40.1l15.5-5l-0.1-40.9
					c8.4-3.1,16.8-6.1,25.3-9.1l0.1,40.1l13.9-5c14.2-11.8-15.7-37.8,17.8-46.6c0-4.3,0-8.7,0.1-13L384.8,635.1z"/>
				<path class="st4" d="M279.2,672.9c-15.9,8.7-36,18.1-29.2,45.9c1.4,5.9,2.7,10.8,7.4,13.1C290.4,748.3,324.8,670.8,279.2,672.9z
					 M268.8,718.6c-3.9-5.4-6.2-16.5-1.7-23.7c2.1-4.5,5-5.6,9-8.2l4.1,0c0.6,0.3,1.1,0.5,1.7,0.8
					C289.4,699.7,284.3,718.5,268.8,718.6z"/>
				<path class="st4" d="M225.4,734.3l-0.8,0c0.2-9.4,3.2-34.6-1.8-40.1l-13.9,5c-0.2,0.5-0.5,1.1-0.8,1.7l0.2,52.3
					c13.3-4.7,26.7-9.3,40-14c0-4.4,0-8.8-0.1-13.1C240.7,728.8,233,731.6,225.4,734.3z"/>
			</g>
			<g>
				<path class="st5" d="M399.6,316.5l-12.2,4.1l22.9-83.4l-65.8,22.3l8.1-23.7l72.9-24.7l9.1-33l-144.1,48.8l-9.1,33l35.2-11.9
					l-8.1,23.7l-29.2,9.9l-9.6,35l26.3-8.9l-17.2,49.8l-28.4,9.6l-9.7,35.4l149.3-50.5L399.6,316.5z M350.9,333l-36.1,12.2
					l17.2-49.8l32.3-10.9L350.9,333z"/>
				<polygon class="st5" points="471.2,227.1 502.9,155.6 468.1,167.3 452.4,200.5 440.1,204.6 430.1,241 				"/>
				<polygon class="st5" points="536.7,171.4 539.7,203.9 578.9,190.6 588.9,154.3 576.8,158.4 575.6,129.3 506,152.9 497.2,184.8 
									"/>
				<polygon class="st5" points="413.6,314.3 404.1,348.8 454.9,331.6 492.2,251.7 526.7,240 515.8,279.7 480.3,291.7 472.7,325.4 
					543.1,301.6 572.4,194.9 436.5,240.9 427.5,273.6 455.1,264.2 433.6,307.5 				"/>
			</g>
			<g>
				<path class="st2" d="M622.2,493.6c3-29.2,5.9-58.4,8.8-87.6c5.9-2.7,12-5.4,17.9-8.2c2.7-8.8,5.3-17.5,8.1-26.2l-2.4,0
					l-51.4,20.6c1.1-3.6,2.2-7.2,3.3-10.7c-14.7,5.5-29.3,11-44.1,16.5c-1.6,4.4-3.3,8.7-4.9,13.1c-18.2,7.1-36.5,14.3-54.7,21.4
					c-2.6,8.8-5.3,17.5-8.1,26.2c5.7-2.1,11.4-4.3,17.1-6.5l-54.5,106.5c13.5-5.2,27.2-10.4,40.8-15.6c14.7-28.7,29.2-57.3,43.9-86
					c0.5-0.2,1.1-0.6,1.6-0.8c-8.9,27.3-17.8,54.6-26.7,81.9l0,0.8c14.7-5.8,29.3-11.5,44.1-17.3c8.6-27.2,17.3-54.6,26.1-82
					c-1.6,23.1-3.2,46.4-4.8,69.5C595.5,504.1,608.9,498.8,622.2,493.6z"/>
				<path class="st2" d="M475.5,423c6.8-2.7,13.6-5.4,20.4-8.2c5.7-15.9,11.4-31.6,17-47.5c-6.3,2.4-12.5,5-18.8,7.4l-0.8,0
					c4.4-12.6,8.6-25.1,13-37.7l-1.7,0c-13.3,5.2-26.7,10.4-40,15.6c-4.4,12.8-8.6,25.7-13,38.5c-21.2,8.2-42.4,16.4-63.6,24.7
					c-5.5,15.3-10.8,30.5-16.3,45.9c20.8-7.6,41.4-15.4,62.1-23c-1.6,4.4-3.3,8.7-4.9,13.1c-0.2,7.4,4.7,15.9,0.8,25.3
					c-4.7,11.5-15.8,19-20.4,29.5c-2.4,6.3-4.9,12.6-7.3,18.8c-9.3,3.9-18.6,7.6-27.8,11.5c-9.2,7-13.2,34-17.8,45.1
					c21-8.2,41.9-16.5,62.9-24.7C436.7,544.6,468.9,450.4,475.5,423z"/>
				<path class="st2" d="M374.2,467.4c-4.1,1.3-8.1,2.8-12.2,4.1c7.3-19.8,14.6-39.8,21.9-59.7c2.2-3.4,8.7-5.4,13.1-6.5
					c1.9-5.5,3.8-10.9,5.7-16.4l-2.4,0c-25.3,9.9-50.6,19.7-76.1,29.6c-21.4,60.1-42.7,120-64.1,180.1c26.2-9.9,52.2-19.7,78.4-29.6
					c11.9-33.6,23.8-67.1,35.7-100.8L374.2,467.4z M323.8,528.8c-2.2,3.4-8.2,5-12.2,6.5c-0.3,0-0.5,0-1,0.1
					c2.4-6.8,4.9-13.7,7.3-20.5c3.6-1.3,7.1-2.8,10.7-4.1l1.7,0C328.2,516.8,326,522.9,323.8,528.8z M344.9,469.9
					c-2.3,3.6-8.1,5-12.2,6.5l-0.8,0c2.1-6,4.3-12,6.4-18c2.6-3.6,8.1-4.2,12.2-6.5C351.6,455.7,347.4,466,344.9,469.9z"/>
				<path class="st2" d="M406.2,457.5c-10.5,5.4-41.1,31-20.3,46.6C412.8,510.3,435.8,456.9,406.2,457.5z"/>
				<path class="st2" d="M178.3,530.8c-3.8,1.3-7.6,2.8-11.4,4.1l-0.8,0c7.3-20.8,14.6-41.6,21.9-62.3c4.4-1.3,8.7-2.8,13.1-4.1
					l4.9-17.2c-26.2,10.2-52.2,20.3-78.4,30.4C94,576,85,601.7,63.5,661.9c26.4-9.9,52.8-19.7,79-29.6
					c11.9-33.6,23.8-67.1,35.7-100.8L178.3,530.8z M127.9,593.8c-4.4,1.7-8.7,3.3-13.1,5c2.1-6.8,4.3-13.7,6.4-20.5
					c3.5-1.3,7-2.7,10.7-4.1l2.4,0C132.3,580.6,130.1,587.3,127.9,593.8z M149,534.9c-4.4,1.7-8.7,3.3-13.1,5
					c2.4-6.8,4.9-13.7,7.3-20.5c3.5-1.4,7-2.8,10.7-4.1C156.2,518.6,150.6,529.4,149,534.9z"/>
				<path class="st2" d="M280.6,484.7c23.9-6.1,32.3-29.9,36.6-54c-6.5,2.4-13.1,5-19.6,7.4c4-12.8,8.1-25.7,12.1-38.5
					c-13.3,5.2-26.7,10.4-40,15.6c-4.9,13.1-9.7,26.2-14.6,39.4c-21,7.9-41.9,15.8-62.9,23.8c-5.5,15.3-10.8,30.5-16.3,45.9l0,0.8
					c20.7-7.9,41.3-15.8,62-23.8l-4.9,13.9c0.3,10.6,5,16.2-0.7,28.6c-4.2,9.3-13.3,15.4-17.9,23.7c-2.1,6.3-4.3,12.6-6.4,18.8
					c-4.6,6.4-21.9,11.1-30.2,13.2c-5.5,15-10.8,30-16,45c15.5-3.1,52.2-16.6,63.6-25.5C245.3,603.6,269.5,514.6,280.6,484.7z"/>
				<path class="st2" d="M222.5,523.3c-3.4-2.1-5.6-3.3-11.5-3.3c-10.1,5.8-41.3,30.9-20.3,46.7
					C212.8,571.2,230.3,543.8,222.5,523.3z"/>
				<path class="st2" d="M503.4,417.1c13.3-5.2,26.7-10.4,40-15.6c8.4-15.1,16.8-30.1,25.2-45.1c0.5-0.2,1.1-0.6,1.6-0.8l0.1,34.4
					c13.5-5.2,27.2-10.4,40.8-15.6l-0.1-40.1c-12.5,5-25.1,9.9-37.6,14.8c12.4-25.1,75.3-27,97.1-45.2c3.6-7.1,7.1-14.2,10.6-21.3
					c3.1-6,6-12,9-18c-14.5,5.8-28.9,11.5-43.3,17.3c-1.9,3.6-3.8,7.2-5.7,10.7c-28.9,11.2-57.7,22.5-86.5,33.7
					C537.6,356.4,520.5,386.8,503.4,417.1z"/>
				<path class="st2" d="M736.2,292.5c6-27.5,27.9-42.1,42.3-61.4l-2.4,0c-20.8,8.2-41.4,16.5-62.1,24.7c-4.4,7.4-8.7,14.8-13,22.2
					c-12.6,21-18.6,44.4-23.4,74.5c-6.6,40.3,9.2,63.8-7.1,98.2c-11.9,24.9-30.6,44.7-43.2,67.9c-3.5,6.5-10.7,19.7-5.6,28.7
					c2.5,5.3,41.8,22.6,49.2,25.2c-16.6,42.6-63.8,63-100.3,86.1c-43.4,27.4-107.2,86.7-123.8,138.5l79.1-31.2
					c12.2-64.9,63.7-92.2,109.1-124.6c19.5-16.5,39.2-32.8,58.7-49.2c12.5-10.2,27.7-22.7,35-37.7c15-30.8-52-32.5-43.6-81.8
					c3.2-18.7,12.6-31.7,18.7-47.5c2.1-8.2,4.2-16.4,6.4-24.6c7.7-15,23.8-25.2,30.9-42.6C751,333.2,730.8,316.2,736.2,292.5z"/>
			</g>
		</g>
	</g>
</g>
</svg>
