<?xml version="1.0" encoding="utf-8"?>
<!-- Generator: Adobe Illustrator 21.1.0, SVG Export Plug-In . SVG Version: 6.00 Build 0)  -->
<svg version="1.1" id="图层_1" xmlns="http://www.w3.org/2000/svg" xmlns:xlink="http://www.w3.org/1999/xlink" x="0px" y="0px"
	 viewBox="0 0 880 896.3" style="enable-background:new 0 0 880 896.3;" xml:space="preserve">
<style type="text/css">
	.st0{fill:#C84A69;}
	.st1{fill:#7B2138;}
	.st2{fill:#FCF01C;}
	.st3{fill:#FFFFFF;}
	.st4{fill:none;}
	.st5{fill:#12916E;}
	.st6{fill:#FCFBFA;}
</style>
<path class="st0" d="M533.7,886C771,833.3,921.5,594.6,869.8,352.8S583.7-42.3,346.3,10.4S-41.5,301.8,10.2,543.6
	S296.3,938.6,533.7,886z"/>
<ellipse class="st1" cx="409.1" cy="431" rx="371.8" ry="384"/>
<ellipse class="st0" cx="384.6" cy="407.7" rx="331.8" ry="342.6"/>
<path class="st2" d="M422.2,353.7c-22.5,0-40.8,18.3-40.8,40.8c0,22.6,18.3,40.8,40.8,40.8c22.5,0,40.8-18.3,40.8-40.8
	C463,371.9,444.8,353.7,422.2,353.7z"/>
<polygon class="st3" points="198.8,623.9 252.7,622.5 256,606.5 162.2,609 158.4,593.4 124.6,594.4 128.2,610 106.5,610.5 
	103.2,626.5 158.7,625 153.7,641.9 95.8,643.5 92.4,659.4 148.9,657.9 137.6,695.4 178.8,694.3 189.4,656.8 249.4,655.2 
	252.8,639.2 194,640.8 "/>
<polygon class="st3" points="198.7,603.7 232.5,602.7 243.8,587.2 263.7,586.6 267.1,570.7 208.8,572.3 212.5,560 266.3,558.5 
	269.6,542.5 217.5,544 220.4,534.7 180.9,535.8 178,545 119.9,546.6 116.5,562.6 173,561 169.1,573.3 110.1,574.9 106.8,590.9 
	210.3,588.1 "/>
<polygon class="st3" points="384.6,643.3 350.7,644.2 382.4,588.5 427.7,587.2 431.1,571.3 325.8,574.1 322.5,590.1 342.7,589.5 
	310.6,645.3 307.3,661.2 410.7,658.4 416.4,614.2 388.3,614.9 "/>
<polygon class="st3" points="325.3,532.2 290.3,533.1 289.4,562.5 325.3,561.6 "/>
<polygon class="st3" points="324.1,575.3 275.1,576.7 271.5,593.9 283.6,593.6 254.5,690.3 408.8,686.1 412.4,668.9 296.4,672 "/>
<polygon class="st3" points="436.2,532.8 339.9,535.4 336.6,551.3 432.9,548.7 "/>
<polygon class="st3" points="514.1,527.1 510.6,533.6 459,535 447.2,554.8 480.5,553.9 483.4,549.1 568.1,546.8 566,551.6 
	598.5,550.7 604.7,531.1 551.5,532.5 555.3,525.9 "/>
<path class="st3" d="M424.7,662.7l32.7-0.9L419.2,686l47.5-1.3l35.1-24.1l19.8,22.6l42.7-1.2l-23.6-22.5l28.2-0.8l11.1-42.2
	l-135.5,3.7L424.7,662.7z M472.7,634.3l69.8-1.9l-6.5,22.8l-16.8-16l-27.2,0.7L461,659.5L472.7,634.3z"/>
<path class="st3" d="M590.5,586.1l2.6-12.4l-20.5,0.6l1.2-4.4l20.8-0.6l2.6-12.4l-20,0.5l1.3-4.6l-33.5,0.9l-1.4,4.6l-35.8,1
	l1.7-4.6l-33.6,0.9l-1.8,4.6l-26.6,0.7l-2.6,12.4l24.4-0.7l-1.7,4.4l-23.1,0.6l-2.6,12.4l20.8-0.6l-2.1,5.3l-21.9,0.6l-2.8,13.5
	l9.8-0.3l-10.5,8.4l37.4-1l10-8.3l60.2-1.6l5.6,7.9l37.2-1l-6.3-7.9l9.5-0.3l2.8-13.5l-23.8,0.6l1.5-5.3L590.5,586.1z M533.3,593
	l-38.3,1l1.9-5.3l38-1L533.3,593z M538.6,575.3l-37,1l1.6-4.4l36.7-1L538.6,575.3z"/>
<path class="st4" d="M422.2,169c-119.7,0-217.6,93.5-224.8,211.5c25.7-1.3,55.1-7.2,86.3-23c26.7-13.5,41.8-25.7,56.4-37.8
	c20.3-22.4,49.6-36.4,82.2-36.4c32.6,0,61.9,14,82.2,36.4c14.6,12.1,29.7,24.3,56.4,37.8c31.2,15.8,60.5,21.7,86.3,23
	C639.9,262.5,542,169,422.2,169z"/>
<path class="st4" d="M422.2,330.8c-35.2,0-63.7,28.5-63.7,63.7c0,35.2,28.5,63.7,63.7,63.7c35.2,0,63.7-28.5,63.7-63.7
	C485.9,359.3,457.4,330.8,422.2,330.8z"/>
<g>
	<path class="st5" d="M421.2,169c-119.7,0-217.6,93.5-224.8,211.5c25.7-1.3,55.1-7.2,86.3-23c26.7-13.5,42.8-25.7,57.4-37.8
		c20.3-22.4,48.6-36.4,81.1-36.4c32.6,0,61.9,14,82.2,36.4c14.6,12.1,29.7,24.3,56.4,37.8c31.2,15.8,60.5,21.7,86.3,23
		C638.8,262.5,540.9,169,421.2,169z"/>
	<path class="st5" d="M317.5,385.7l-129.3,30l38.3,110.3l236.4,0.1l148.9-1.2l52.7-89.5l-122-64.7L495.8,431
		c0,0,12.2,60.6-48.5,56.6s-96.7-79.9-96.7-79.9L317.5,385.7z"/>
</g>
<path class="st6" d="M666.3,522.9L666.3,522.9c18.3-36.9,30.1-84.6,30.1-128.4c0-151.6-122.8-274.5-274.2-274.5
	C270.8,120,148,242.9,148,394.5c0,49.2,13.1,95.3,35.7,135.2l57.2-1.5c-19.9-27-34-58.6-40.2-93c22.3-4.3,50.6-13.7,87.1-25.7
	c8.4-2.8,16.3-6.7,23.6-11.4c0.5,16.3,4.5,31.6,11.3,45.4l0,0c2.1,4.3,4.5,8.4,7.1,12.4l41.7,72.6l91.4-2.5l-0.6,2.9l10.6-0.3
	l41.8-72.7c11.1-16.7,17.8-36.5,18.5-57.8c7.3,4.7,15.2,8.6,23.6,11.3c36.4,12,64.8,21.4,87.1,25.7c-6,33-19.3,63.5-38,89.8
	l50.3-1.6l0,0L666.3,522.9z M422.2,458.2c-35.2,0-63.7-28.5-63.7-63.7c0-35.2,28.5-63.7,63.7-63.7c35.2,0,63.7,28.5,63.7,63.7
	C485.9,429.7,457.4,458.2,422.2,458.2z M560.8,357.6c-26.7-13.5-41.8-25.7-56.4-37.8c-20.3-22.4-49.6-36.4-82.2-36.4
	c-32.6,0-61.9,14-82.2,36.4c-14.6,12.1-29.7,24.3-56.4,37.8c-31.2,15.8-60.5,21.7-86.3,23c7.2-118,105.1-211.5,224.8-211.5
	c119.7,0,217.6,93.5,224.8,211.5C621.3,379.3,592,373.4,560.8,357.6z"/>
<polygon class="st3" points="765.9,550.6 769.5,533.4 709.3,535 709.3,538.3 709.2,538.3 709.2,535.2 692,535.7 701.2,522.1 
	670,522.9 660.6,523.4 660.5,523.5 656.9,528.6 656.9,528.6 651.3,536.6 615.2,537.6 611.6,554.8 638.9,554.1 612.3,591.7 
	609.1,607.2 672.4,605.5 666.6,626 597.6,627.8 594,645.1 661.8,643.2 651,681.9 692.5,680.8 703.2,642.1 748.2,640.9 751.8,623.7 
	707.9,624.9 713.5,604.4 752.5,603.3 756.1,586.1 718.3,587.1 726.1,558.5 685.3,559.6 677.3,588.2 656,588.8 680.3,553 "/>
</svg>
