<?xml version="1.0" encoding="utf-8"?>
<!-- Generator: Adobe Illustrator 24.0.1, SVG Export Plug-In . SVG Version: 6.00 Build 0)  -->
<svg version="1.1" id="图层_1" xmlns="http://www.w3.org/2000/svg" xmlns:xlink="http://www.w3.org/1999/xlink" x="0px" y="0px"
	 viewBox="0 0 1024 1024" style="enable-background:new 0 0 1024 1024;" xml:space="preserve">
<style type="text/css">
	.st0{fill:#FFFFFF;}
</style>
<path class="st0" d="M493.6,897.1C272.3,897.1,93,717.8,93,496.6S272.3,96,493.6,96s400.6,179.3,400.6,400.6
	S714.8,897.1,493.6,897.1z M493.6,878.1c210.7,0,381.5-170.8,381.5-381.5S704.3,115.1,493.6,115.1S112.1,285.9,112.1,496.6
	S282.9,878.1,493.6,878.1z"/>
<path class="st0" d="M496.8,852.6c-198.4,0-359.2-160.8-359.2-359.2s160.8-359.2,359.2-359.2C695.2,134.2,856,295,856,493.4
	S695.2,852.6,496.8,852.6z M496.8,833.6c187.9,0,340.2-152.3,340.2-340.2S684.7,153.2,496.8,153.2S156.6,305.5,156.6,493.4
	C156.6,681.3,308.9,833.6,496.8,833.6z"/>
<path class="st0" d="M608.3,344.1h-63.9v-31.7H678v31.7h-52.8L497.1,668.2L351.3,344.1h-42.1v-31.9h133.5v31.9h-39.4L497,600.9
	L608.3,344.1L608.3,344.1z"/>
<path class="st0" d="M372.5,674.5h63.9v31.7H302.8v-31.7h52.8l128.1-324.1l145.8,324.1h42.1v31.9H538.1v-31.9h39.4l-93.7-256.8
	L372.5,674.5z"/>
</svg>
