<?xml version="1.0" encoding="utf-8"?>
<!-- Generator: Adobe Illustrator 24.0.1, SVG Export Plug-In . SVG Version: 6.00 Build 0)  -->
<svg version="1.1" id="图层_1" xmlns="http://www.w3.org/2000/svg" xmlns:xlink="http://www.w3.org/1999/xlink" x="0px" y="0px"
	 viewBox="0 0 1024 1024" style="enable-background:new 0 0 1024 1024;" xml:space="preserve">
<path d="M166.4,441.2h27v101.8c0,7.1-0.7,14.2-2.1,22.1c-1.4,7.9-7.8,11.8-19.2,11.8h-32.6v-25.3h16.3c3.5,0,6.4-0.8,7.8-3.2
	c1.4-2.4,2.8-6.3,2.8-13.4C166.4,535.2,166.4,441.2,166.4,441.2z M313.3,402.5v25.3H140.9v-25.3H313.3z M284.9,441.2v94
	c0,6.3,0.7,11.1,2.1,13.4c1.4,2.4,4.3,3.2,7.8,3.2h17V577h-33.3c-11.4,0-17.7-3.9-19.2-11.8c-1.4-7.1-2.1-14.2-2.1-22.9V441.2
	L284.9,441.2L284.9,441.2z M477.9,389.9l12.8,29.2c0.7,2.4,2.8,4.7,5,5.5c0,0,1.4,0,3.5,0h0.7h5.7v22.1h-14.2c0,0-0.7,0-1.4,0
	c-3.5,0-7.1-0.8-10.6-2.4c-3.5-2.4-6.4-6.3-7.8-11.1L460.2,412h-77.3l-17.7,26.8c-3.5,4.7-7.8,7.9-13.5,10.3c1.4-0.8-1.4,0-4.3,0
	c-0.7,0-1.4,0-2.1,0h-10.6v-23.7h3.5c2.8,0,5-0.8,7.1-1.6c2.1-1.6,4.3-4.7,7.8-10.3l12.8-22.9L477.9,389.9L477.9,389.9z
	 M505.6,458.6v22.1H336v-22.1H505.6z M502.1,494.9v53.7c0,0.8,0,1.6,0,1.6c0,6.3-1.4,12.6-4.3,18.2c-2.1,4.7-8.5,7.1-19.2,7.1H338.9
	v-80.5H502.1L502.1,494.9z M365.8,517v33.2H468c4.3,0,6.4-2.4,6.4-7.1V517H365.8L365.8,517z M563.8,460.2h-20.6c0,0,0,0-0.7,0
	c-2.8,0-5-0.8-7.1-2.4c-2.1-1.6-3.5-4.7-4.3-9.5c-0.7-3.9-0.7-7.9-0.7-11.8v-11.1H551v8.7c0,3.2,0,4.7,0.7,5.5s2.1,0.8,3.5,0.8h7.1
	L563.8,460.2L563.8,460.2z M531.2,417.5v-22.9h78.1h0.7c1.4,0,2.8-0.8,4.3-0.8c0.7-0.8,1.4-2.4,1.4-4.7v-2.4h22v9.5c0,0,0,0,0,0.8
	c0,3.9-0.7,7.9-2.1,11.8c-1.4,3.2-4.3,6.3-7.1,7.1c-0.7,0-5.7,0.8-13.5,0.8h-83.7V417.5z M531.2,472.8H573v-8.7h22.7v8.7h41.9v23.7
	h-41.9v81.3H573v-82.1h-41.9V472.8z M531.2,578.6v-21.3h2.8h0.7c1.4,0,2.8,0,4.3-0.8c0.7,0,1.4-1.6,2.1-3.2
	c1.4-3.9,2.1-8.7,2.1-13.4l5.7-37.1h20.6l-6.4,46.6c-2.1,14.2-4.3,22.1-7.8,24.5c-3.5,2.4-8.5,3.9-15.6,3.9h-8.5V578.6z
	 M600.7,460.2h-19.2c-6.4,0-9.9-3.2-11.4-8.7c-0.7-5.5-1.4-11.1-1.4-17.4v-9.5h19.2v9.5c0,3.2,0,4.7,0.7,5.5s2.1,1.6,4.3,1.6h7.1
	L600.7,460.2L600.7,460.2z M637.6,577h-12.8l0,0c-4.3,0-8.5-1.6-12.1-3.9c-3.5-2.4-5.7-9.5-7.1-20.5l-5-49.7H622l5,41.1
	c0.7,6.3,1.4,10.3,2.8,11.1c1.4,0.8,2.8,1.6,5,1.6h2.8V577L637.6,577z M606.4,459.4v-18.9h6.4c2.1,0,2.8-0.8,3.5-0.8
	c0.7-0.8,0.7-3.2,0.7-7.9v-6.3h19.2v15c0,12.6-4.3,18.9-12.1,18.9H606.4L606.4,459.4z"/>
<path d="M199.1,363.1c0,15,11.4,26.8,24.8,26.8c13.5,0,24.8-11.8,24.8-26.8s-11.4-26.8-24.8-26.8
	C210.4,336.2,199.1,348.1,199.1,363.1z"/>
<path d="M252.3,276.2L252.3,276.2c0,19.7,14.9,36.3,33.3,36.3s33.3-15.8,33.3-36.3l0,0c0-19.7-14.9-36.3-33.3-36.3
	S252.3,256.5,252.3,276.2z"/>
<path d="M358,202c0,21.3,15.6,37.9,35.5,37.9c19.9,0,35.5-17.4,35.5-37.9l0,0c0-21.3-15.6-37.9-35.5-37.9
	C373.6,164.1,358,181.5,358,202L358,202z"/>
<path d="M482.2,179.1c0,24.5,18.4,44.2,41.2,44.2c22.7,0,41.2-19.7,41.2-44.2l0,0c0-24.5-18.4-44.2-41.2-44.2
	C500.6,134.9,482.2,154.6,482.2,179.1L482.2,179.1z"/>
<path d="M617,205.2L617,205.2c0,26.1,19.2,46.6,43.3,46.6c24.1,0,43.3-21.3,43.3-46.6l0,0l0,0c0-26.1-19.2-46.6-43.3-46.6
	C636.9,158.6,617,179.1,617,205.2L617,205.2z"/>
<path d="M731.3,301.5L731.3,301.5c0,26.8,20.6,48.9,45.4,48.9c25.5,0,45.4-22.1,45.4-48.9l0,0c0-26.8-20.6-48.9-45.4-48.9
	S731.3,273.9,731.3,301.5z"/>
<path d="M744,350.4l-99.3,112.9l41.2,37.9l-40.4,68.7l85.9-79.7l-40.4-34.7L744,350.4z M761.1,489.4L631.2,600.7l48.2,41.8
	l-95.1,171.3L732,637.8l-44-39.5L761.1,489.4z M79.2,589.7H617v11.8H79.2V589.7z"/>
<path d="M712.8,571.5h161.8v11.8H712.8V571.5z"/>
<path d="M124.6,623.6h31.9l24.1,54.5l24.1-54.5H236v82.1h-18.4v-60h-1.4l-27.7,60h-16.3l-27.7-60H143v60h-18.4V623.6L124.6,623.6z
	 M287.1,622.8h27.7l37.6,82.9h-20.6l-7.1-16.6h-45.4l-7.1,16.6h-21.3L287.1,622.8L287.1,622.8z M284.9,673.4h31.2l-15.6-35.5
	C301.3,638.6,284.9,673.4,284.9,673.4z M365.1,624.4h58.2c0.7,0,0.7,0,1.4,0c4.3,0,8.5,0.8,12.1,2.4c3.5,1.6,6.4,4.7,7.8,8.7
	c0.7,1.6,2.1,5.5,2.1,10.3c0-0.8,0,2.4,0,5.5c0,3.9,0,7.1-0.7,11.1c0,2.4-1.4,4.7-2.8,7.1c-0.7,0.8-2.8,2.4-5,3.2l-2.8,2.4
	c2.1,1.6,3.5,2.4,5,3.2c2.8,2.4,5,5.5,5.7,9.5c0,0,0,0.8,0,1.6v16.6h-19.2v-9.5c0,0,0,0,0-0.8c0-1.6-0.7-3.9-1.4-5.5
	c-0.7-2.4-2.8-3.9-5-4.7c0,0-1.4-0.8-3.5-0.8h-34.8v20.5h-18.4L365.1,624.4L365.1,624.4z M383.6,643.3v22.9h33.3
	c3.5,0,5.7,0,7.1-0.8c1.4-0.8,2.1-1.6,2.8-2.4c0.7-0.8,1.4-3.2,1.4-6.3s0-6.3-1.4-7.9c-1.4-2.4-2.8-3.2-5-3.9c0,0-2.1-0.8-4.3-0.8
	h-0.7L383.6,643.3L383.6,643.3z M464.5,623.6h18.4v30.8H495l29.1-30.8h24.8l-36.2,39.5l40.4,42.6h-27l-32.6-32.4h-11.4v32.4h-18.4
	L464.5,623.6L464.5,623.6z"/>
<path d="M741.2,623.6h18.4v82.1h-18.4V623.6z M776,705.7l30.5-41.1L776,623.6h23.4l22.7,30.8l22.7-30.8h23.4l-30.5,41.8l31.2,41.1
	h-23.4l-22.7-30.8l-22.7,30L776,705.7L776,705.7z"/>
</svg>
