<?xml version="1.0" encoding="utf-8"?>
<!-- Generator: Adobe Illustrator 24.0.1, SVG Export Plug-In . SVG Version: 6.00 Build 0)  -->
<svg version="1.1" id="图层_1" xmlns="http://www.w3.org/2000/svg" xmlns:xlink="http://www.w3.org/1999/xlink" x="0px" y="0px"
	 viewBox="0 0 1024 1024" style="enable-background:new 0 0 1024 1024;" xml:space="preserve">
<path d="M667.6,634.6c0,0-99.4,77.5-187.5,77.5c-143.8,0-193.9-77.5-193.9-77.5h-45.1c0,0,24.7,122.7,239.7,122.7
	c116.3,0,227.7-105,232.6-122.7C712.7,636,667.6,634.6,667.6,634.6z M376.4,252.5h51.5c0,0,147.3-67.7,239.7-12.7
	s110,162.1,110,162.1H810c0,0-17.6-127.6-136.1-193.9c-16.2-7-33.8-11.3-51.5-14.1v-18.3h25.4V156h-83.9v19.7h12.7v16.2
	C474.4,195.4,376.4,252.5,376.4,252.5z M602.7,239.8h-32.4L518.8,402h32.4L602.7,239.8z M687.3,337.1L674.6,311l-110.7,90.2h38.8
	L687.3,337.1L687.3,337.1z M87.4,605.7h57.1l10.6-22.6h-24.7v-55.7h24.7v78.3h43V427.4H87.4V605.7L87.4,605.7z M130.4,449.9h24.7
	v55.7h-24.7V449.9z M276.3,540.2h-10.6l-14.1-53.6h-40.9l18.3,75.4h38.1L276.3,540.2L276.3,540.2z M282,590.9h-16.2l7.8,21.9h57.1
	V460.5h10.6v-23.3h-10.6v-16.9H282v16.9h-72.6v23.3H282V590.9L282,590.9L282,590.9L282,590.9z M524.5,540.2l-14.1-53.6h-40.9
	l18.3,75.4h38.1l8.5-21.9H524.5L524.5,540.2L524.5,540.2z M590,612.8V460.5h10.6v-23.3H590v-16.9h-48.6v16.9h-73.3v23.3h72.6v130.4
	h-16.2l7.8,21.9H590L590,612.8z M456.8,605.7V427.4H346.1v178.4h57.1l10.6-22.6h-24.7v-55.7h24.7v78.3H456.8L456.8,605.7z
	 M389.1,505.6v-55.7h24.7v55.7H389.1z M603.4,423.8v23.3H755l5.6-23.3H603.4L603.4,423.8z M765.6,464.7l6.3,19h40.2l49.3-62.7h-45.8
	l-36,43.7L765.6,464.7L765.6,464.7L765.6,464.7L765.6,464.7z M695.1,499.3l8.5-16.9h-7l-9.2-31h-33.8l13.4,47.9H695.1L695.1,499.3
	L695.1,499.3z M712.7,482.4h-7l8.5,16.9H743l13.4-47.9h-33.8L712.7,482.4L712.7,482.4z M652.8,543h-37.4l-4.9,48.6h-7l7,20.4h36
	L652.8,543L652.8,543z M706.3,502.1h-48.6v10.6h-55v24h55v76.1h48.6v-76.1h54.3v-24h-54.3V502.1L706.3,502.1z M639.4,451.3h-33.8
	l14.1,47.9h28.9l7.8-16.9h-7L639.4,451.3L639.4,451.3z M779.7,528.9h-14.1l6.3,19h40.2l49.3-62.7h-45.8L779.7,528.9L779.7,528.9z
	 M779.7,594.4h-14.1l6.3,19h40.2l49.3-62.7h-45.8L779.7,594.4L779.7,594.4z M748.6,543h-37.4l6.3,68.4h36l7-20.4h-7L748.6,543
	L748.6,543z M379.2,335.7l13.4-26.1l113.5,90.9H466L379.2,335.7z"/>
</svg>
