<?xml version="1.0" encoding="utf-8"?>
<!-- Generator: Adobe Illustrator 24.0.1, SVG Export Plug-In . SVG Version: 6.00 Build 0)  -->
<svg version="1.1" id="图层_1" xmlns="http://www.w3.org/2000/svg" xmlns:xlink="http://www.w3.org/1999/xlink" x="0px" y="0px"
	 viewBox="0 0 1024 1024" style="enable-background:new 0 0 1024 1024;" xml:space="preserve">
<path d="M763.7,628.3c-77,0-139.2-61.5-139.2-137.7s62.2-137.7,139.2-137.7S902.9,415,902.9,490.5
	C902.9,566.8,840,628.3,763.7,628.3L763.7,628.3z M737.8,369.1c-19.3,0-34.8,15.6-34.8,34.1c0,18.5,15.6,34.1,34.8,34.1
	s34.8-15.6,34.8-34.1C771.9,384.6,756.3,369.1,737.8,369.1z M728.9,488.3c-35.5,0-64.4,28.9-64.4,63.7c0,35.5,28.9,63.7,64.4,63.7
	s64.4-28.9,64.4-63.7C793.3,516.4,764.5,488.3,728.9,488.3L728.9,488.3z M850.4,426.8c-27.4,0-48.9,21.5-48.9,48.9
	c0,26.7,22.2,48.9,48.9,48.9c27.4,0,48.9-21.5,48.9-48.9C899.2,448.3,877,426.8,850.4,426.8L850.4,426.8z M337.9,490.5l122.2-119.2
	h60L411.9,472l89.6,135.5h-54.1l-68.9-105.2L332,546.1l-6.7,61.5h-45.2l25.2-236.2h45.2L337.9,490.5L337.9,490.5z M280.1,446.8
	c-3.7,51.8-34.8,77-93.3,75.5H129l-8.9,85.2H75L100.2,372h104.4C260.1,372.8,285.3,397.2,280.1,446.8L280.1,446.8z M142.4,400.9
	l-9.6,91.8h48.9c33.3,1.5,50.4-14.1,52.6-45.9c4.4-31.1-10.4-46.7-43-45.9C191.3,400.9,142.4,400.9,142.4,400.9z M488.2,466.8
	l3-25.2c38.5-17,66.7-40,82.9-70.4h45.2l-25.2,236.2H549L567.5,435C548.2,449.8,521.6,460.2,488.2,466.8z"/>
</svg>
