<?xml version="1.0" encoding="utf-8"?>
<!-- Generator: Adobe Illustrator 21.1.0, SVG Export Plug-In . SVG Version: 6.00 Build 0)  -->
<svg version="1.1" id="图层_1" xmlns="http://www.w3.org/2000/svg" xmlns:xlink="http://www.w3.org/1999/xlink" x="0px" y="0px"
	 viewBox="0 0 1024 1024" style="enable-background:new 0 0 1024 1024;" xml:space="preserve">
<g>
	<path d="M737.5,543.9l122.8-225.2L633,413.3c-36.3,12.8-50.3,44.2-49.1,88.3c7.3,7.5,107.6-40.8,161.4-61.3l-71.1,127v32.4
		c44.5-8.4,105.8,28.4,84.2,105c-34.8,65.1-106.9,134.4-181.6,213.9c154.7-74.9,246.8-175.2,268.5-219.8l0,0
		c26.4-54.3,30.9-103.7,3.5-145.9C824.3,522.8,783.2,528.3,737.5,543.9z"/>
	<path d="M340,737.7c-28.4,39.7,20.2,182.5,59.7,173.9C435.5,883.6,401.2,719.7,340,737.7z"/>
	<path d="M391.5,645.8c3.9-29.4,17-73.6,11.7-88.2c-13.5-12.6-33.9-24-61.4-34.2c8.6-19.4,16.2-42.7,9.9-68.9
		c-21.4-23.1-71.8-31.8-82.1-22.8c-1.8,14,20.3,21.3,29.5,23.7c8.2,4.4,1.6,38.8-3,48.1c-10.2,6.4-35.3-23.6-47.3-14.9
		c-6,35.2,16.5,49,39.8,56.8c6.2-0.5,5.7,64.9-2.8,60.8c-6.4,3.9-42.8-26.2-55.5-19.8c-12.6,7.1-5.9,46-0.9,66.7
		c13.4,6,34.8,4.8,40.4,18c-12.6,55.2-28.7,154.6-16.7,187.4c28.7-31.5,55.6-114.4,59.7-169.4v0c22.3-12.4,85.7,37.6,130.8,40.5
		c5.6-27.7,5.8-44.5-2.6-51.8C418.3,660.3,387.4,662.3,391.5,645.8z M339.3,528.6L339.3,528.6L339.3,528.6L339.3,528.6z M352,636.8
		c-11.4,0-20.3-3.2-24-13.5c-2.7-7.7,1.2-31,6.8-53.3c4.2-4.7,11.5-8.3,26.6,9.1C361.6,597.4,363.2,631.9,352,636.8z"/>
	<path d="M268,574.7c12.7-13.9-8-29.2-51.3-45.5c-0.1-50.6,24.1-112.4,39.1-165.3c-32.4,2.7-61.8,59.2-89.5,145.9l-23.1-10.7
		c34.3-88,15.7-125.6-36.6-127.1c-5.8,1.3-5.9,68.1-2.1,111.7c-27.8-5.3-44,31.1-8.3,55c5.3,13.8,8.8,41.6,15.8,41.4
		c11.5-5.6,8.2-22.8,12.3-34.2c9.5-0.4,32.6,3.6,35.5,14c-13.3,45.4-27.3,118.1-14.5,143.7c14,21.1,36.4,22,63.3,21.5h0
		c13.1,2.4-12.7-110.7,3.4-158C222.7,558.8,262,588.8,268,574.7z"/>
	<path d="M381.6,248.7l21.9-32.1c-55.8-16.3-26.3-52.5,29.6-44.5l28.7-43.1h0C300.6,113.8,232,233.9,381.6,248.7z"/>
	<polygon points="420.8,249.7 525.8,94.4 581.3,94.4 602.1,72 511.6,72 391.9,249.7 	"/>
	<polygon points="415.1,276.8 444,276.8 547.8,123.6 603.2,123.6 624,101.2 533.5,101.2 	"/>
	<path d="M645.8,128.8h-90.3L435.9,304.1h92.9l37.6-55.9C736.6,266.6,791,162.7,645.8,128.8z M589.9,213.7l29.2-42.6
		C687.3,173.2,647.9,222.7,589.9,213.7z"/>
	<polygon points="339.3,528.6 339.3,528.6 339.3,528.6 	"/>
	<g>
		<polygon points="948.5,134.1 492.9,354.3 87.3,150.8 87.3,150.8 464.8,413.1 504.7,952 504.3,947.4 531.5,410.7 		"/>
	</g>
</g>
</svg>
