<?xml version="1.0" encoding="utf-8"?>
<!-- Generator: Adobe Illustrator 21.1.0, SVG Export Plug-In . SVG Version: 6.00 Build 0)  -->
<svg version="1.1" id="图层_1" xmlns="http://www.w3.org/2000/svg" xmlns:xlink="http://www.w3.org/1999/xlink" x="0px" y="0px"
	 viewBox="0 0 880 896.3" style="enable-background:new 0 0 880 896.3;" xml:space="preserve">
<style type="text/css">
	.st0{fill:#E15421;}
	.st1{fill:#942D07;}
	.st2{opacity:0.75;}
	.st3{fill:#422650;}
	.st4{fill:#FFFFFF;}
	.st5{fill:#F5A747;}
	.st6{fill:#71BB3B;}
	.st7{fill:#51B0E4;}
	.st8{fill:#EAE94A;}
</style>
<path class="st0" d="M533.7,886C771,833.3,921.5,594.6,869.8,352.8S583.7-42.3,346.3,10.4S-41.5,301.8,10.2,543.6
	S296.3,938.6,533.7,886z"/>
<ellipse class="st1" cx="404.5" cy="423.8" rx="371.8" ry="384"/>
<ellipse class="st0" cx="384.6" cy="407.7" rx="331.8" ry="342.6"/>
<ellipse class="st1" cx="227.5" cy="308.6" rx="123" ry="121.9"/>
<g>
	<g class="st2">
		<path class="st1" d="M455.8,352.9c83.4-55.8,178.9-35.9,204.8-30.7c25.9,5.2,66.4,0,66.4-44.6c-4.5-62.4-105.2-50.2-105.2-50.2
			C472,237.5,411.5,386.4,411.5,386.4S427.8,371,455.8,352.9z"/>
		<polygon class="st1" points="156.9,623.4 179,615 162.4,721 203.9,721 218.6,569 156.9,595.5 		"/>
		<path class="st1" d="M392.1,570.4L375.5,615h24.9l5.5-16.7h13.8l-2.8,25.1h-38.7l-2.8,16.7h55.4c0,0-6.2,31.4-5.5,39
			c0.7,7.7,11.1,11.2,11.1,11.2h36l2.8-19.5H453c-4.4,0-2.8-8.4-2.8-8.4l2.8-22.3h24.9l2.8-16.7h-38.7l2.8-25.1h38.7l2.8-16.7h-38.8
			l2.8-11.2h-24.9l-2.8,11.2h-11.1l2.8-11.2L392.1,570.4L392.1,570.4z"/>
		<polygon class="st1" points="397.7,690.3 419.8,648.5 392.1,648.5 370,690.3 		"/>
		<path class="st1" d="M339.5,520.2c-34.2-6.8-54.1-18.8-64.5-28.1c-18.7-16.7-35.2-10.3-39.5,2.8c-8.5,30.3,39.1,38.5,56.9,42
			c60.9,9.9,94-8,105.2-13.9C397.7,523,363.1,524.7,339.5,520.2z"/>
		<polygon class="st1" points="347.8,603.9 372.8,603.9 367.2,570.4 342.3,570.4 		"/>
		<polygon class="st1" points="245.4,623.4 267.6,615 251,721 292.5,721 311.9,567.6 245.4,595.5 		"/>
		<path class="st1" d="M469.6,701.4H367.2c-7.8-1.6-5.5-13.9-5.5-13.9l11.1-78.1H334l-5.5,19.5h13.8c0,0-9,58.6-8.3,72.5
			c0.7,13.9,16.6,19.5,16.6,19.5h116.2L469.6,701.4z"/>
		<path class="st1" d="M777.6,473.3c-11.9-27.7-67.1-127.4-197.7-133c-90-2-157.9,52.8-172.9,85.5c-18.9,41.3,12.9,77.7,37.7,86
			c30.4,10.1,55.4-16.7,55.4-16.7c40.6-40,63.2-45.1,105.2-44.6c149.9,18.1,103.1,170.1,99.6,181.2
			c-45.3,101.7-121.7,120.4-180.4,117c-46.8-2.7-82-21.5-82.5-19.4c-2.4,8.2,43.7,35.7,75.2,44.7c44.5,12.7,100.1,10.9,160.1-16.8
			C783.1,698.6,820.1,572.3,777.6,473.3z"/>
		<path class="st1" d="M497.3,687.5c0,0-1.2,4.4-2.8,33.5c72,7.9,141.1-14.4,141.1-69.7c-0.7-55.3-83-66.9-83-66.9l2.8-22.3h80.3
			l2.8-39h-119l-11.1,97.6c0,0,81.9-1.2,83,36.3C591.4,693.1,497.3,687.5,497.3,687.5z"/>
		<path class="st1" d="M322.4,437.5c-13.5,9.8-28.6,17.5-44.9,22.5c58.3,57.8,128.5,51.9,128.5,51.9
			C362.5,499.3,337.1,468.3,322.4,437.5z"/>
		<path class="st1" d="M342.9,419.8c18.9,56.2,60.3,80.8,60.3,80.8c-13.1-15-23.9-56.5-22.1-83.7c10-79.8,55.4-103.9,66.4-131.1
			c11.1-27.2-3.8-48.4-22.1-55.8c-11.3-4.5-34.8-5.8-55.8,17.4c10,20.3,15.8,43,15.8,67C385.4,355.5,369.1,392.5,342.9,419.8z"/>
		<path class="st1" d="M369.9,310.6c0-74.8-60.6-135.4-135.4-135.4S99.2,235.8,99.2,310.6c0,74.8,60.6,135.4,135.4,135.4
			S369.9,385.3,369.9,310.6z M226.5,272.1h-70.5l-7.8,96.2h-27l8.6-109.9h38.3l1.4-6.6h29.2l-1.4,6.6h29.2L226.5,272.1L226.5,272.1z
			 M255.4,368.2h-23.1l15.2-54.2h22.3L255.4,368.2z M298.3,369.5h-27.7l3-58.8h-39v-13.2l11.8-27.5h-13.2v-12.7h18.7l2.2-5.1h26.4
			l-2.2,5.1h59V270H273l-11.9,28h13.2l1.1-21.4h27.1l-1,21.4h33.8v12.7h-34.4L298.3,369.5z M303.9,314h21.7l11.2,54.2h-21.8
			L303.9,314z"/>
	</g>
	<g>
		<g>
			<path class="st3" d="M448.8,345.9c83.4-55.8,178.9-35.9,204.8-30.7c25.9,5.2,66.4,0,66.4-44.6c-4.5-62.4-105.2-50.2-105.2-50.2
				C465,230.5,404.5,379.4,404.5,379.4S420.8,364,448.8,345.9z"/>
			<polygon class="st4" points="149.9,616.4 172,608 155.4,714 196.9,714 211.6,562 149.9,588.5 			"/>
			<path class="st4" d="M385.1,563.4L368.5,608h24.9l5.5-16.7h13.8l-2.8,25.1h-38.7l-2.8,16.7h55.4c0,0-6.2,31.4-5.5,39
				c0.7,7.7,11.1,11.2,11.1,11.2h36l2.8-19.5H446c-4.4,0-2.8-8.4-2.8-8.4l2.8-22.3h24.9l2.8-16.7h-38.7l2.8-25.1h38.7l2.8-16.7
				h-38.8l2.8-11.2h-24.9l-2.8,11.2h-11.1l2.8-11.2L385.1,563.4L385.1,563.4z"/>
			<polygon class="st4" points="390.7,683.3 412.8,641.5 385.1,641.5 363,683.3 			"/>
			<path class="st5" d="M332.5,513.2c-34.2-6.8-54.1-18.8-64.5-28.1c-18.7-16.7-35.2-10.3-39.5,2.8c-8.5,30.3,39.1,38.5,56.9,42
				c60.9,9.9,94-8,105.2-13.9C390.7,516,356.1,517.7,332.5,513.2z"/>
			<polygon class="st4" points="340.8,596.9 365.8,596.9 360.2,563.4 335.3,563.4 			"/>
			<polygon class="st4" points="238.4,616.4 260.6,608 244,714 285.5,714 304.9,560.6 238.4,588.5 			"/>
			<path class="st4" d="M462.6,694.4H360.2c-7.8-1.6-5.5-13.9-5.5-13.9l11.1-78.1H327l-5.5,19.5h13.8c0,0-9,58.6-8.3,72.5
				c0.7,13.9,16.6,19.5,16.6,19.5h116.2L462.6,694.4z"/>
			<path class="st4" d="M770.6,466.3c-11.9-27.7-67.1-127.4-197.7-133c-90-2-157.9,52.8-172.9,85.5c-18.9,41.3,12.9,77.7,37.7,86
				c30.4,10.1,55.4-16.7,55.4-16.7c40.6-40,63.2-45.1,105.2-44.6c149.9,18.1,103.1,170.1,99.6,181.2
				c-45.3,101.7-121.7,120.4-180.4,117c-46.8-2.7-82-21.5-82.5-19.4c-2.4,8.2,43.7,35.7,75.2,44.7c44.5,12.7,100.1,10.9,160.1-16.8
				C776.1,691.6,813.1,565.3,770.6,466.3z"/>
			<path class="st4" d="M490.3,680.5c0,0-1.2,4.4-2.8,33.5c72,7.9,141.1-14.4,141.1-69.7c-0.7-55.3-83-66.9-83-66.9l2.8-22.3h80.3
				l2.8-39h-119l-11.1,97.6c0,0,81.9-1.2,83,36.3C584.4,686.1,490.3,680.5,490.3,680.5z"/>
			<path class="st6" d="M315.4,430.5c-13.5,9.8-28.6,17.5-44.9,22.5c58.3,57.8,128.5,51.9,128.5,51.9
				C355.5,492.3,330.1,461.3,315.4,430.5z"/>
			<path class="st7" d="M335.9,412.8c18.9,56.2,60.3,80.8,60.3,80.8c-13.1-15-23.9-56.5-22.1-83.7c10-79.8,55.4-103.9,66.4-131.1
				c11.1-27.2-3.8-48.4-22.1-55.8c-11.3-4.5-34.8-5.8-55.8,17.4c10,20.3,15.8,43,15.8,67C378.4,348.5,362.1,385.5,335.9,412.8z"/>
			<path class="st8" d="M362.9,303.6c0-74.8-60.6-135.4-135.4-135.4S92.2,228.8,92.2,303.6c0,74.8,60.6,135.4,135.4,135.4
				S362.9,378.3,362.9,303.6z M219.5,265.1h-70.5l-7.8,96.2h-27l8.6-109.9h38.3l1.4-6.6h29.2l-1.4,6.6h29.2L219.5,265.1L219.5,265.1
				z M248.4,361.2h-23.1l15.2-54.2h22.3L248.4,361.2z M291.3,362.5h-27.7l3-58.8h-39v-13.2l11.8-27.5h-13.2v-12.7h18.7l2.2-5.1h26.4
				l-2.2,5.1h59V263H266l-11.9,28h13.2l1.1-21.4h27.1l-1,21.4h33.8v12.7h-34.4L291.3,362.5z M296.9,307h21.7l11.2,54.2h-21.8
				L296.9,307z"/>
		</g>
	</g>
</g>
</svg>
