<?xml version="1.0" encoding="utf-8"?>
<!-- Generator: Adobe Illustrator 22.0.0, SVG Export Plug-In . SVG Version: 6.00 Build 0)  -->
<svg version="1.1" id="图层_1" xmlns="http://www.w3.org/2000/svg" xmlns:xlink="http://www.w3.org/1999/xlink" x="0px" y="0px"
	 viewBox="0 0 880 896.2" style="enable-background:new 0 0 880 896.2;" xml:space="preserve">
<style type="text/css">
	.st0{fill:#3B94FF;}
	.st1{fill:#123866;}
	.st2{fill:#00FFDA;}
	.st3{fill:#FFFFFF;}
</style>
<path class="st0" d="M533.7,886C771,833.3,921.5,594.6,869.8,352.8S583.7-42.3,346.3,10.4S-41.5,301.8,10.2,543.6
	S296.3,938.6,533.7,886z"/>
<ellipse class="st1" cx="409.1" cy="431" rx="371.8" ry="384"/>
<ellipse class="st0" cx="384.6" cy="407.7" rx="331.8" ry="342.6"/>
<g>
	<ellipse class="st1" cx="137.6" cy="360.8" rx="43.8" ry="53.9"/>
	<path class="st1" d="M707.7,365.4L632,523.5H392.9c-1.5-3-0.7-8.2,4.5-14.8l112.1-239.1c0,0,4.5-15.6,21.5-13.4L698.8,335
		C698.8,335,713.6,344.6,707.7,365.4z M560.7,309c0,0-3-15.6-4.5-26.7c0,0-17.8,10.4-26,13.4c0,0-37.1,11.9-27.5,39.3
		c0,0,13.4,11.1,20.8,3.7c0,0-6.7,12.6-14.8,12.6l21.5,8.9c0,0-5.9-7.4,0.7-18.6c0,0,5.9,20.8,28.2,6.7
		C559.2,349.1,572.6,335.7,560.7,309z M496.8,278.5l-95,199.7h-77.2c0,0-25.2,5.2-21.5-21.5V199.8c0,0-4.5-21.5,17.1-21.5h176.7
		c0,0,21.5,0,21.5,21.5v52C518.4,251.8,508.7,251.8,496.8,278.5z M458.2,243.6c-30.4-10.4-47.5,21.5-47.5,21.5
		c-33.4-43.8-64.6-8.9-64.6-8.9c-29.7,32.7,4.5,69.8,4.5,69.8c23.8,15.6,60.1,74.2,60.1,74.2c11.1-23,64.6-86.9,64.6-86.9
		C503.5,261.5,458.2,243.6,458.2,243.6z M397.4,487.1L381,523.5H231.8l-45.3-210.1c0,0-3.7-19.3,8.9-26l98.7-17.1v200.4
		c0,0,0,17.1,17.1,17.1L397.4,487.1L397.4,487.1z M268.2,369.8l-26-26l-4.5,34.9L268.2,369.8z M234,291.1
		c-16.3,2.2-17.1,13.4-17.1,13.4c-1.5,17.1,26,30.4,26,30.4l12.6-26C260,286,234,291.1,234,291.1z M285.3,330.5
		c0.7-20-12.6-17.1-12.6-17.1c-15.6-1.5-30.4,26-30.4,26c-4.5-3.7-23.8-18.6-35.6-13.4c0,0-13.4,2.2-5.9,20.8
		c0,0,3.7,21.5,19.3,15.6c0,0,12.6-4.5,23.8-23c0,0,0,0-0.7-0.7c16.3,13.4,29.7,12.6,29.7,12.6C289.7,352,285.3,330.5,285.3,330.5z
		 M242.2,339.4L242.2,339.4C242.9,339.4,242.9,339.4,242.2,339.4C242.9,339.4,242.9,339.4,242.2,339.4z M177.6,309l47.5,214.6h-64.6
		L78.9,352c0,0-6.7-12.6,4.5-21.5l167.8-86.9c0,0,12.6-9.7,21.5,0l8.9,17.1l-81.7,17.1C199.1,278.5,175.4,283,177.6,309z M121.9,326
		l-12.6,56.4l52,21.5l12.6-52L121.9,326z"/>
	<ellipse class="st1" cx="238.4" cy="333" rx="45.3" ry="53.9"/>
	<ellipse class="st1" cx="543.3" cy="322.1" rx="45.3" ry="53.9"/>
	<path class="st1" d="M488.9,255.6c0,56.2-73.4,159.1-108,159.1s-63.4-62.6-63.4-118.9s28.1-101.8,62.7-101.8
		S488.9,199.4,488.9,255.6z"/>
	<path class="st2" d="M703.7,359L628,517.1H388.9c-1.5-3-0.7-8.2,4.5-14.8l112.1-239.1c0,0,4.5-15.6,21.5-13.4l167.8,78.7
		C694.8,328.6,709.6,338.2,703.7,359z M556.7,302.6c0,0-3-15.6-4.5-26.7c0,0-17.8,10.4-26,13.4c0,0-37.1,11.9-27.5,39.3
		c0,0,13.4,11.1,20.8,3.7c0,0-6.7,12.6-14.8,12.6l21.5,8.9c0,0-5.9-7.4,0.7-18.6c0,0,5.9,20.8,28.2,6.7
		C555.2,342.7,568.6,329.3,556.7,302.6z M492.8,272.1l-95,199.7h-77.2c0,0-25.2,5.2-21.5-21.5V193.4c0,0-4.5-21.5,17.1-21.5h176.7
		c0,0,21.5,0,21.5,21.5v52C514.4,245.4,504.7,245.4,492.8,272.1z M454.2,237.2c-30.4-10.4-47.5,21.5-47.5,21.5
		c-33.4-43.8-64.6-8.9-64.6-8.9c-29.7,32.7,4.5,69.8,4.5,69.8c23.8,15.6,60.1,74.2,60.1,74.2c11.1-23,64.6-86.9,64.6-86.9
		C499.5,255.1,454.2,237.2,454.2,237.2z M393.4,480.8L377,517.1H227.8L182.5,307c0,0-3.7-19.3,8.9-26l98.7-17.1v200.4
		c0,0,0,17.1,17.1,17.1L393.4,480.8L393.4,480.8z M264.2,363.5l-26-26l-4.5,34.9L264.2,363.5z M230,284.8
		c-16.3,2.2-17.1,13.4-17.1,13.4c-1.5,17.1,26,30.4,26,30.4l12.6-26C256,279.6,230,284.8,230,284.8z M281.2,324.1
		c0.7-20-12.6-17.1-12.6-17.1c-15.6-1.5-30.4,26-30.4,26c-4.5-3.7-23.8-18.6-35.6-13.4c0,0-13.4,2.2-5.9,20.8
		c0,0,3.7,21.5,19.3,15.6c0,0,12.6-4.5,23.8-23c0,0,0,0-0.7-0.7c16.3,13.4,29.7,12.6,29.7,12.6C285.7,345.6,281.2,324.1,281.2,324.1
		z M238.2,333L238.2,333C238.9,333,238.9,333,238.2,333C238.9,333,238.9,333,238.2,333z M173.6,302.6l47.5,214.6h-64.6L74.9,345.6
		c0,0-6.7-12.6,4.5-21.5l167.8-86.9c0,0,12.6-9.7,21.5,0l8.9,17.1l-81.7,17.1C195.1,272.1,171.4,276.6,173.6,302.6z M117.9,319.6
		l-12.6,56.4l52,21.5l12.6-52L117.9,319.6z"/>
	<path class="st1" d="M214.8,653.8h-23V546.1h23V653.8z M288.3,623.3h0.7l20-78h36.4V653h-23v-84.6l-23.8,85.4h-20.8l-23-85.4v85.4
		h-23V546.1h36.4L288.3,623.3z M361.1,571.3v-14.1h8.9v-16.3h19.3v16.3h7.4v-8.2h6.7v-8.2h20v8.2h23v-8.2h20v8.2h6.7v14.1h-6.7v53.5
		h8.2v14.8H396v-14.8h0.7c-3-3-5.2-6.7-6.7-10.4v50.5h-19.3v-42.3c-3.7,8.2-7.4,14.1-10.4,17.8V610c5.2-11.9,8.2-24.5,9.7-38.6
		L361.1,571.3L361.1,571.3z M423.4,616.6h23v-8.2h-23V616.6z M423.4,594.4h23v-8.9h-23V594.4z M423.4,572.1h23v-8.2h-23V572.1z
		 M398.2,600.3v16.3h5.2v-53.5h-6.7v8.2h-7.4C390.8,581.7,393.8,590.6,398.2,600.3z M411.6,633.7h19.3
		c-5.2,14.8-16.3,22.3-34.9,23.8v-11.9C402.7,644.1,408.6,640.4,411.6,633.7z M474.7,644.8v11.9c-19.3-0.7-31.2-8.9-35.6-23.8h19.3
		C462.1,640.4,467.3,644.1,474.7,644.8z M490.3,546.1h17.1v25.2h4.5v-28.2h15.6v28.2h3v13.4h-23v10.4h20v60.1h-15.6v-46.8h-4.5v0.7
		c0.7,23.8-5.9,40.1-21.5,48.3v-14.1c3-6.7,4.5-15.6,4.5-28.2V546.1L490.3,546.1z M536.3,612.9c3.7-2.2,7.4-4.5,9.7-6.7h-12.6v-57.9
		h17.1c0.7-2.2,1.5-4.5,1.5-6.7h20.8c0,1.5-0.7,3-1.5,4.5c0,1.5-0.7,2.2-0.7,2.2h27.5v40.1c0,12.6-5.2,18.6-16.3,17.8H566
		c-0.7,0.7-1.5,1.5-2.2,2.2h15.6v13.4h21.5v14.1h-21.5v20h-19.3v-20h-30.4v-14.1h5.9L536.3,612.9L536.3,612.9z M581.6,561.7h-8.2
		v8.9h8.2V561.7z M576.4,592.9c3.7,0,5.9-1.5,5.2-5.2V584h-8.2c0,3.7,0,6.7-0.7,9.7L576.4,592.9L576.4,592.9z M557.1,561.7h-8.2v8.9
		h8.2V561.7z M548.9,583.2v9.7h6.7c0.7-2.2,0.7-5.2,0.7-9.7H548.9z M560.1,621.8v-9.7c-3.7,3-9.7,5.9-16.3,9.7H560.1z"/>
	<path class="st3" d="M211.7,650.4h-23V542.7h23V650.4z M285.1,620h0.7l20-78h36.4v107.6h-23V565l-23.8,85.4h-20.8l-23-85.4v85.4
		h-23V542.7h36.4L285.1,620z M357.9,568v-14.1h8.9v-16.3h19.3v16.3h7.4v-8.2h6.7v-8.2h20v8.2h23v-8.2h20v8.2h6.7v14.1h-6.7v53.5h8.2
		v14.8h-78.7v-14.8h0.7c-3-3-5.2-6.7-6.7-10.4v50.5h-19.3V611c-3.7,8.2-7.4,14.1-10.4,17.8v-22.3c5.2-11.9,8.2-24.5,9.7-38.6
		L357.9,568L357.9,568z M420.3,613.3h23v-8.2h-23V613.3z M420.3,591h23v-8.9h-23V591z M420.3,568.7h23v-8.2h-23V568.7z M395,596.9
		v16.3h5.2v-53.5h-6.7v8.2h-7.4C387.6,578.4,390.6,587.3,395,596.9z M408.4,630.3h19.3c-5.2,14.8-16.3,22.3-34.9,23.8v-11.9
		C399.5,640.7,405.4,637,408.4,630.3z M471.5,641.5v11.9c-19.3-0.7-31.2-8.9-35.6-23.8h19.3C458.9,637,464.1,640.7,471.5,641.5z
		 M487.1,542.7h17.1V568h4.5v-28.2h15.6V568h3v13.4h-23v10.4h20v60.1h-15.6v-46.8h-4.5v0.7c0.7,23.8-5.9,40.1-21.5,48.3V640
		c3-6.7,4.5-15.6,4.5-28.2V542.7L487.1,542.7z M533.1,609.6c3.7-2.2,7.4-4.5,9.7-6.7h-12.6V545h17.1c0.7-2.2,1.5-4.5,1.5-6.7h20.8
		c0,1.5-0.7,3-1.5,4.5c0,1.5-0.7,2.2-0.7,2.2h27.5v40.1c0,12.6-5.2,18.6-16.3,17.8h-15.6c-0.7,0.7-1.5,1.5-2.2,2.2h15.6v13.4h21.5
		v14.1h-21.5v20h-19.3v-20h-30.4v-14.1h5.9L533.1,609.6L533.1,609.6z M578.4,558.3h-8.2v8.9h8.2V558.3z M573.2,589.5
		c3.7,0,5.9-1.5,5.2-5.2v-3.7h-8.2c0,3.7,0,6.7-0.7,9.7L573.2,589.5L573.2,589.5z M553.9,558.3h-8.2v8.9h8.2V558.3z M545.7,579.9
		v9.7h6.7c0.7-2.2,0.7-5.2,0.7-9.7H545.7z M556.9,618.5v-9.7c-3.7,3-9.7,5.9-16.3,9.7H556.9z"/>
</g>
</svg>
