<?xml version="1.0" encoding="utf-8"?>
<!-- Generator: Adobe Illustrator 21.1.0, SVG Export Plug-In . SVG Version: 6.00 Build 0)  -->
<svg version="1.1" id="图层_1" xmlns="http://www.w3.org/2000/svg" xmlns:xlink="http://www.w3.org/1999/xlink" x="0px" y="0px"
	 viewBox="0 0 880 896.3" style="enable-background:new 0 0 880 896.3;" xml:space="preserve">
<style type="text/css">
	.st0{fill:#DE7A4C;}
	.st1{fill:#914623;}
	.st2{fill:#DF754B;}
	.st3{opacity:0.75;}
	.st4{fill:#FFFFFF;}
	.st5{fill:#F1F554;}
	.st6{enable-background:new    ;}
</style>
<path class="st0" d="M533.7,886C771,833.3,921.5,594.6,869.8,352.8S583.7-42.3,346.3,10.4S-41.5,301.8,10.2,543.6
	S296.3,938.6,533.7,886z"/>
<ellipse class="st1" cx="409.1" cy="431" rx="371.8" ry="384"/>
<ellipse class="st2" cx="384.6" cy="407.7" rx="331.8" ry="342.6"/>
<g>
	<g class="st3">
		<path class="st1" d="M577.7,175.8c-14.3,6.1-28.6,12.2-42.8,18.4c-30.7,21.5-40.5,49.5-95.9,49v2c30.3,35.1,96.4-21.2,157.1-16.3
			c-5.2-16.1-9.4-31.8-6.1-53L577.7,175.8L577.7,175.8z"/>
		<path class="st1" d="M324.8,212.5c-10.9,2-21.8,4.1-32.6,6.1c-3.4,12.2-6.8,24.5-10.2,36.7c17.7-2.2,27-8.8,38.8-16.3
			c-1.4,17.7-2.7,35.4-4.1,53c-16.3,6.8-32.6,13.6-49,20.4c-11.5-32.4,11.7-83.2,14.3-116.3c-11.6,0.7-23.1,1.4-34.7,2
			c-4.8,44.2-9.5,88.4-14.3,132.6c-4.8,2-9.5,4.1-14.3,6.1c-0.7-2-1.4-4.1-2-6.1c4.8-19.7,9.5-39.4,14.3-59.2v-8.2
			c-13.8,6.3-22.1,18.2-42.8,12.2c-8.6,24.1-22,90.3-6.1,114.2v0c4.1,5.3,2.3,4.1,10.2,6.1c10.2-7.5,20.4-15,30.6-22.4
			c-3.4,20.4-6.8,40.8-10.2,61.2c15.6-2.7,31.3-5.4,46.9-8.2c10.7-11.7,4.8-63.3,4.1-83.6c15-9.5,29.9-19,44.9-28.6h2v8.2
			c-3.4,1.4-6.8,2.7-10.2,4.1c-0.4,3.5-0.5,0.9,6.1,4.1c-5,36.2-23.1,65.3-36.7,93.8c18.4-2,36.7-4.1,55.1-6.1
			c3.4-25.8,6.8-51.7,10.2-77.5c32.4,6.8,38.9,39,32.6,73.4c17-0.7,34-1.4,51-2c15.7-55-27.9-95.9-81.6-93.8
			c0.7-6.1,1.4-12.2,2-18.4c33.3-9.5,63-23.2,106.1-22.4l4.1,4.1c-5.4,30.1-24.4,43.8-24.5,81.6c29.2,12.6,62.9-24.2,91.8-30.6
			c0.7,3.4,1.4,6.8,2,10.2c-0.6,30.9-39.8,34.3-59.1,24.5c-8.8,8.2-17.7,16.3-26.5,24.5c9.1,51.8,67.8-11.6,81.6-20.4h2v8.2
			c-7.5,8.7-10.1,15.9-22.4,20.4v32.6c12.4,4.8,33.3,6.7,42.8-2c18.4-10.8,16.1-41.3,14.3-67.3c24.9,3.9,34.1,22.9,32.6,53
			c11.6-10.9,23.1-21.8,34.7-32.6c-12.1-31.6-30.2-44.2-73.4-38.8c-1.4-6.8-2.7-13.6-4.1-20.4c24.8-4.9,51,0.7,69.3,8.2
			c-0.8-26.4,5-35.7,16.3-53c-31.4-9.1-65.4,2.3-89.7,12.2h-2c-1.4-10.9-2.7-21.8-4.1-32.6h-2c-10.2,7.5-20.4,15-30.6,22.4
			c-3.1,9.1,2.3,13.7,8.2,24.5c-10.6,11.3-30.8,23.7-51,24.5c1.8-21,24.3-44.5,16.3-63.2c-7.8-18.3-59.6-3.9-75.5-2
			c6.3-14.5,18.3-42,8.2-59.1c-10.5-22.5-41.2-12.5-59.2-4.1c-0.7-9.5-1.4-19-2-28.6c-0.7-0.7-1.4-1.4-2-2c-5.4,2-10.9,4.1-16.3,6.1
			L324.8,212.5L324.8,212.5L324.8,212.5L324.8,212.5z M341.1,228.8c2-2,4.1-4.1,6.1-6.1c4.8,0.7,9.5,1.4,14.3,2
			c3.7,17.2,1.4,37.1-6.1,49l0,0c-4.2,6.7-8.6,7.3-16.3,10.2C339.8,265.6,340.4,247.2,341.1,228.8z"/>
	</g>
	<g>
		<g>
			<g>
				<path class="st4" d="M570.7,168.8c-14.3,6.1-28.6,12.2-42.8,18.4c-30.7,21.5-40.5,49.5-95.9,49v2
					c30.3,35.1,96.4-21.2,157.1-16.3c-5.2-16.1-9.4-31.8-6.1-53L570.7,168.8L570.7,168.8z"/>
			</g>
			<g>
				<path class="st4" d="M317.8,205.5c-10.9,2-21.8,4.1-32.6,6.1c-3.4,12.2-6.8,24.5-10.2,36.7c17.7-2.2,27-8.8,38.8-16.3
					c-1.4,17.7-2.7,35.4-4.1,53c-16.3,6.8-32.6,13.6-49,20.4c-11.5-32.4,11.7-83.2,14.3-116.3c-11.6,0.7-23.1,1.4-34.7,2
					c-4.8,44.2-9.5,88.4-14.3,132.6c-4.8,2-9.5,4.1-14.3,6.1c-0.7-2-1.4-4.1-2-6.1c4.8-19.7,9.5-39.4,14.3-59.2v-8.2
					c-13.8,6.3-22.1,18.2-42.8,12.2c-8.6,24.1-22,90.3-6.1,114.2v0c4.1,5.3,2.3,4.1,10.2,6.1c10.2-7.5,20.4-15,30.6-22.4
					c-3.4,20.4-6.8,40.8-10.2,61.2c15.6-2.7,31.3-5.4,46.9-8.2c10.7-11.7,4.8-63.3,4.1-83.6c15-9.5,29.9-19,44.9-28.6h2v8.2
					c-3.4,1.4-6.8,2.7-10.2,4.1c-0.4,3.5-0.5,0.9,6.1,4.1c-5,36.2-23.1,65.3-36.7,93.8c18.4-2,36.7-4.1,55.1-6.1
					c3.4-25.8,6.8-51.7,10.2-77.5c32.4,6.8,38.9,39,32.6,73.4c17-0.7,34-1.4,51-2c15.7-55-27.9-95.9-81.6-93.8
					c0.7-6.1,1.4-12.2,2-18.4c33.3-9.5,63-23.2,106.1-22.4l4.1,4.1c-5.4,30.1-24.4,43.8-24.5,81.6c29.2,12.6,62.9-24.2,91.8-30.6
					c0.7,3.4,1.4,6.8,2,10.2c-0.6,30.9-39.8,34.3-59.1,24.5c-8.8,8.2-17.7,16.3-26.5,24.5c9.1,51.8,67.8-11.6,81.6-20.4h2v8.2
					c-7.5,8.7-10.1,15.9-22.4,20.4v32.6c12.4,4.8,33.3,6.7,42.8-2c18.4-10.8,16.1-41.3,14.3-67.3c24.9,3.9,34.1,22.9,32.6,53
					c11.6-10.9,23.1-21.8,34.7-32.6c-12.1-31.6-30.2-44.2-73.4-38.8c-1.4-6.8-2.7-13.6-4.1-20.4c24.8-4.9,51,0.7,69.3,8.2
					c-0.8-26.4,5-35.7,16.3-53c-31.4-9.1-65.4,2.3-89.7,12.2h-2c-1.4-10.9-2.7-21.8-4.1-32.6h-2c-10.2,7.5-20.4,15-30.6,22.4
					c-3.1,9.1,2.3,13.7,8.2,24.5c-10.6,11.3-30.8,23.7-51,24.5c1.8-21,24.3-44.5,16.3-63.2c-7.8-18.3-59.6-3.9-75.5-2
					c6.3-14.5,18.3-42,8.2-59.1c-10.5-22.5-41.2-12.5-59.2-4.1c-0.7-9.5-1.4-19-2-28.6c-0.7-0.7-1.4-1.4-2-2
					c-5.4,2-10.9,4.1-16.3,6.1L317.8,205.5L317.8,205.5L317.8,205.5L317.8,205.5z M334.1,221.8c2-2,4.1-4.1,6.1-6.1
					c4.8,0.7,9.5,1.4,14.3,2c3.7,17.2,1.4,37.1-6.1,49l0,0c-4.2,6.7-8.6,7.3-16.3,10.2C332.8,258.6,333.4,240.2,334.1,221.8z"/>
			</g>
		</g>
	</g>
</g>
<g>
	<g class="st3">
		<path class="st1" d="M229,502.3c0,0-10.7,22.7-14.5,27.4s-22,12.4-22,12.4s16.1,7.2,18.5,12.3c4,8.6,6.3,35.8,6.3,35.8
			s9-27.5,14-32.8s22.6-7.1,22.6-7.1s-16.6-9.2-19.6-16.6C232.1,527.8,232.2,529.1,229,502.3z"/>
		<path class="st1" d="M732,240.9c-4.2-11.2-4-8.6-9.3-59.3c0,0-19.3,43-26.2,51.9c-6.9,8.9-39.3,23.8-39.3,23.8s28.5,13.3,32.8,23
			c7.1,16.1,10.8,67.6,10.8,67.6s16.4-52.1,25.4-62.2c9-10,40.4-13.8,40.4-13.8S737.2,254.8,732,240.9z"/>
		<path class="st1" d="M605.6,451c-1.2,17.3-2.5,34.7-3.7,52c17.3-12.5,63.9-62,53.9-91.1C643.6,428.5,624.6,441.3,605.6,451z"/>
		<path class="st1" d="M450.5,662.8c133.5,28.2,199.2-208.5,45.4-206.1c-50.1,19-81.2,30.9-101.4,76.8
			C369.7,589.8,398.6,651.8,450.5,662.8z M417.3,552c38.4-5.8,64.1-28.9,71.1-64c20.1,33.1-4.9,54.4,53,62.5
			c-7.6,2.4-15.1,4.7-22.7,7.1c-24.7,9.5-42.7,31.2-48.4,58.3h-1.5c-2.6-37.8-14.6-57.3-51.5-62.5
			C417.3,552.9,417.3,552.4,417.3,552z"/>
		<path class="st1" d="M432.7,430.9c-31,8.8-62.1,17.6-93.1,26.4c-7.4,5.5-4.7,28.8-6.9,38.9v6.9c4.6-1.4,9.3-2.8,13.9-4.2
			c-10.2,49.1-20.4,98.2-30.6,147.2c5.8,10.2,39.1,12,51.4,15.3h4.2c4.2-15.3,8.3-30.6,12.5-45.8c-1.7-28.3-7.1-57.3,4.2-83.4
			C398,509.8,441.9,462.7,432.7,430.9z"/>
		<path class="st1" d="M737.5,470.3c-18-9.4-58.4,7.9-78.3,13.9c-8.3,6.5-14.8,25-16.8,37.6c10.6-5.3,21.1-10.6,31.7-15.8
			c-11,38.8-33.4,64.7-54.3,92.9c-141.7,190.5-180,50.9-417.3,97.6c-31,5.3-62.1,10.6-93.2,15.8h-3.7
			c37.7,19.7,73.5,27.6,111.8,51.5c34.7-8.1,51.9-19.5,94-26.6c59.7-5.4,51.3-2.4,158.2,2.2c77.5,6,118.5-42.8,190.7-139.6
			c20.6-27.6,47.9-62.6,53-105.6c0.1-5.5,12.2-3.3,14.9,5.9c5.8,12.8,1.8,27.2-1.9,39.6c-11.5,33.6-37.3,19.5-54,53.5
			c8.5,7.3,28.5,6.7,41,4v0C773,583.9,771,486.4,737.5,470.3z"/>
		<path class="st1" d="M698.4,365.8c-7.3,4.3-8,1.8-12,10c-3.3,3.3-6.7,6.7-10,10c54,19.7,94.1,19.4,93.8,91.8
			c15.3-5.3,30.6-10.6,45.9-16c2-0.7,4-1.3,6-2C813.7,400.8,768.7,364.1,698.4,365.8z"/>
		<path class="st1" d="M274.4,452.9c0,0-6,12.7-8.1,15.4c-2.1,2.6-12.3,7-12.3,7s9,4,10.3,6.9c2.2,4.8,3.5,20.1,3.5,20.1
			s5-15.5,7.8-18.4c2.8-3,12.6-4,12.6-4s-9.2-5.2-10.9-9.3C276.1,467.2,276.2,468,274.4,452.9z"/>
	</g>
	<g>
		<g>
			<g>
				<path class="st5" d="M222,495.3c0,0-10.7,22.7-14.5,27.4s-22,12.4-22,12.4s16.1,7.2,18.5,12.3c4,8.6,6.3,35.8,6.3,35.8
					s9-27.5,14-32.8s22.6-7.1,22.6-7.1s-16.6-9.2-19.6-16.6C225.1,520.8,225.2,522.1,222,495.3z"/>
			</g>
			<g>
				<g>
					<path class="st5" d="M725,233.9c-4.2-11.2-4-8.6-9.3-59.3c0,0-19.3,43-26.2,51.9c-6.9,8.9-39.3,23.8-39.3,23.8
						s28.5,13.3,32.8,23c7.1,16.1,10.8,67.6,10.8,67.6s16.4-52.1,25.4-62.2c9-10,40.4-13.8,40.4-13.8S730.2,247.8,725,233.9z"/>
				</g>
				<g>
					<path class="st5" d="M598.6,444c-1.2,17.3-2.5,34.7-3.7,52c17.3-12.5,63.9-62,53.9-91.1C636.6,421.5,617.6,434.3,598.6,444z"/>
				</g>
				<g>
					<path class="st5" d="M443.5,655.8c133.5,28.2,199.2-208.5,45.4-206.1c-50.1,19-81.2,30.9-101.4,76.8
						C362.7,582.8,391.6,644.8,443.5,655.8z M410.3,545c38.4-5.8,64.1-28.9,71.1-64c20.1,33.1-4.9,54.4,53,62.5
						c-7.6,2.4-15.1,4.7-22.7,7.1c-24.7,9.5-42.7,31.2-48.4,58.3h-1.5c-2.6-37.8-14.6-57.3-51.5-62.5
						C410.3,545.9,410.3,545.4,410.3,545z"/>
					<path class="st5" d="M425.7,423.9c-31,8.8-62.1,17.6-93.1,26.4c-7.4,5.5-4.7,28.8-6.9,38.9v6.9c4.6-1.4,9.3-2.8,13.9-4.2
						c-10.2,49.1-20.4,98.2-30.6,147.2c5.8,10.2,39.1,12,51.4,15.3h4.2c4.2-15.3,8.3-30.6,12.5-45.8c-1.7-28.3-7.1-57.3,4.2-83.4
						C391,502.8,434.9,455.7,425.7,423.9z"/>
				</g>
				<g class="st6">
					<path class="st5" d="M730.5,463.3c-18-9.4-58.4,7.9-78.3,13.9c-8.3,6.5-14.8,25-16.8,37.6c10.6-5.3,21.1-10.6,31.7-15.8
						c-11,38.8-33.4,64.7-54.3,92.9c-141.7,190.5-180,50.9-417.3,97.6c-31,5.3-62.1,10.6-93.2,15.8h-3.7
						c37.7,19.7,73.5,27.6,111.8,51.5c34.7-8.1,51.9-19.5,94-26.6c59.7-5.4,51.3-2.4,158.2,2.2c77.5,6,118.5-42.8,190.7-139.6
						c20.6-27.6,47.9-62.6,53-105.6c0.1-5.5,12.2-3.3,14.9,5.9c5.8,12.8,1.8,27.2-1.9,39.6c-11.5,33.6-37.3,19.5-54,53.5
						c8.5,7.3,28.5,6.7,41,4v0C766,576.9,764,479.4,730.5,463.3z"/>
				</g>
				<g>
					<path class="st5" d="M691.4,358.8c-7.3,4.3-8,1.8-12,10c-3.3,3.3-6.7,6.7-10,10c54,19.7,94.1,19.4,93.8,91.8
						c15.3-5.3,30.6-10.6,45.9-16c2-0.7,4-1.3,6-2C806.7,393.8,761.7,357.1,691.4,358.8z"/>
				</g>
				<g>
					<path class="st5" d="M267.4,445.9c0,0-6,12.7-8.1,15.4c-2.1,2.6-12.3,7-12.3,7s9,4,10.3,6.9c2.2,4.8,3.5,20.1,3.5,20.1
						s5-15.5,7.8-18.4c2.8-3,12.6-4,12.6-4s-9.2-5.2-10.9-9.3C269.1,460.2,269.2,461,267.4,445.9z"/>
				</g>
			</g>
		</g>
	</g>
</g>
</svg>
