<?xml version="1.0" encoding="utf-8"?>
<!-- Generator: Adobe Illustrator 21.1.0, SVG Export Plug-In . SVG Version: 6.00 Build 0)  -->
<svg version="1.1" id="图层_1" xmlns="http://www.w3.org/2000/svg" xmlns:xlink="http://www.w3.org/1999/xlink" x="0px" y="0px"
	 viewBox="0 0 595.3 606.3" style="enable-background:new 0 0 595.3 606.3;" xml:space="preserve">
<style type="text/css">
	.st0{fill:#D42651;}
	.st1{fill:#870929;}
	.st2{fill:#F3F61D;}
	.st3{fill:#F25406;}
	.st4{enable-background:new    ;}
	.st5{fill:#FFFFFF;}
</style>
<path class="st0" d="M361,599.3c160.5-35.6,262.3-197.1,227.4-360.7C553.4,75.1,394.8-28.6,234.3,7C73.7,42.7-28.1,204.1,6.9,367.7
	C41.9,531.3,200.4,634.9,361,599.3z"/>
<ellipse class="st1" cx="276.7" cy="291.5" rx="251.5" ry="259.8"/>
<ellipse class="st0" cx="260.2" cy="275.8" rx="224.4" ry="231.8"/>
<polygon class="st1" points="297.6,91.1 109.7,160.2 97.4,318.4 172.2,449.6 277.6,487.8 377.8,437.4 456.3,367.1 456.3,181.7 
	471.5,159.7 427.9,139.8 "/>
<g>
	<path class="st2" d="M469.1,150.1l1.8-0.9l-1.8,1C469.1,150.2,469.1,150.2,469.1,150.1z M109.7,160.2L271.4,261l6.3,226.8
		l5.5-227.5l185.9-110.1c18.4,63.2,12,227.2,9.3,235.5c-8.5,25.8-153.6,98.4-191.1,108.2C243,505.4,95.8,423.7,95.2,419.4
		c-5.5-37.6-5.1-246.7,1-270.3c59.1-19.6,136.8-45.7,195.9-65.3c55.3,9.1,158,45.6,176.6,65c0.1,0.4,0.3,0.8,0.3,1.2l-193.3,97.4
		L109.7,160.2z M426.2,367.4L426.2,367.4c11.1-22.9,13.1-43.6,1.5-61.4c-10.4-12.7-27.7-10.4-46.9-3.8l51.7-94.8l-95.7,39.8
		c-15.3,5.4-21.2,18.6-20.7,37.1c3,3.2,45.3-17.2,68-25.8L354.2,312v13.7c18.7-3.5,44.6,12,35.4,44.2c-14.7,27.4-45,56.6-76.4,90
		C378.3,428.4,417.1,386.2,426.2,367.4z M238.5,457c15.1-11.8,0.6-80.8-25.1-73.2C201.4,400.5,221.9,460.6,238.5,457z M166.9,348.1
		c5.7,2.5,14.7,2,17,7.6c-5.3,23.3-12,65.1-7,78.9c12-13.3,23.4-48.2,25.1-71.3l0,0c9.4-5.2,36.1,15.8,55.1,17
		c2.4-11.7,2.4-18.7-1.1-21.9c-9.5-7.3-22.5-6.5-20.8-13.5c1.6-12.4,7.2-31,4.9-37.1c-5.7-5.3-14.3-10.1-25.8-14.4
		c3.7-8.2,6.8-18,4.2-29c-9-9.7-30.2-13.4-34.6-9.6c-0.7,5.9,8.6,8.9,12.4,9.9c3.4,1.8,0.7,16.3-1.2,20.3
		c-4.3,2.7-14.9-9.9-19.9-6.3c-2.5,14.8,6.9,20.6,16.8,23.9c2.6-0.2,2.4,27.3-1.2,25.6c-2.7,1.6-18-11-23.3-8.3
		C161.9,323,164.8,339.4,166.9,348.1z M110.7,299.9c2.2,5.8,3.7,17.5,6.6,17.5c4.9-2.4,3.4-9.6,5.1-14.4c4-0.2,13.7,1.5,14.9,5.9
		c-5.6,19.1-11.5,49.7-6.1,60.5c5.9,8.9,15.4,9.3,26.7,9.1l0,0l0,0c5.5,1-5.3-46.6,1.4-66.6c4.5-3.5,21.1,9.1,23.7,3.2
		c5.3-5.9-3.4-12.3-21.6-19.1c-0.1-21.3,10.1-47.3,16.4-69.6c-13.7,1.1-26,24.9-37.7,61.4l-9.7-4.5c14.4-37.1,6.6-52.9-15.4-53.5
		c-2.4,0.5-2.5,28.7-0.9,47C102.6,274.6,95.7,289.9,110.7,299.9z M264.7,127.4c-67.8-6.4-96.7,44.2-33.8,50.5l9.2-13.5
		c-23.5-6.8-11.1-22.1,12.4-18.7L264.7,127.4L264.7,127.4L264.7,127.4z M285.7,103.5l-50.4,74.8h12.2l44.2-65.4H315l8.8-9.4H285.7z
		 M294.9,115.7l-49.9,73.9h12.2l43.7-64.5h23.3l8.8-9.4H294.9L294.9,115.7z M308.8,177.6c71.6,7.8,94.6-36,33.4-50.3h-38l-50.3,73.8
		h39L308.8,177.6z M318.7,163.1l12.3-17.9C359.7,146.1,343.1,166.9,318.7,163.1z M222.5,317c0.1,7.7,0.7,22.2-4,24.3
		c-4.8,0-8.5-1.4-10.1-5.7c-1.1-3.2,0.5-13.1,2.9-22.5C213,311.2,216.1,309.7,222.5,317z M213.2,295.7L213.2,295.7L213.2,295.7
		L213.2,295.7z"/>
</g>
<path class="st3" d="M361,599.3c80.7-17.9,146.6-67.6,187.6-133.4H46.6C111.7,570,235.7,627.1,361,599.3z"/>
<g class="st4">
	<path class="st5" d="M252.3,509.4l-0.3,3.2h39.4v9.3H189.1v-9.3h38.4l0.4-3.2h-35.3l3.9-23.3h33.9l0.2-2.2h24.5l-0.2,2.2h33.4
		l-1.6,23.3H252.3z M209.7,558.3h-19.5l4-33.1h93l-1.4,33.1h-16.1l18.3,17.8h-27l-21.5-20.5l-20.6,20.5h-28.6L209.7,558.3z
		 M214,554.5l18.7-17.1h15.6l15.8,15.4l0.8-18.9h-48.4L214,554.5z M229.5,494h-10.6l-1.3,7.5h11L229.5,494z M253.2,501.5h10.4
		l0.6-7.5H254L253.2,501.5z"/>
	<path class="st5" d="M304.7,523.6l-5.5-2.5v-16.1l6.8,3.1l1.8-22h23.8l-7.4,90.1h-23.8L304.7,523.6z M339.2,524.3l-7.7-3.1v-16.1
		l8.7,3.4l1.3-22.4H365l-5.3,90.1h-23.5L339.2,524.3z M372.6,524.2l-7.5-3.1v-16.1l8.3,3.5l1.2-22.3h23.7l-4.7,90.1h-23.7
		L372.6,524.2z"/>
</g>
</svg>
