<?xml version="1.0" encoding="utf-8"?>
<!-- Generator: Adobe Illustrator 22.0.0, SVG Export Plug-In . SVG Version: 6.00 Build 0)  -->
<svg version="1.1" id="图层_1" xmlns="http://www.w3.org/2000/svg" xmlns:xlink="http://www.w3.org/1999/xlink" x="0px" y="0px"
	 viewBox="0 0 880 896.2" style="enable-background:new 0 0 880 896.2;" xml:space="preserve">
<style type="text/css">
	.st0{fill:#FF5533;}
	.st1{fill:#BC2F20;}
	.st2{fill:#FFED45;}
	.st3{fill:#FCFCFC;}
</style>
<path class="st0" d="M533.7,886C771,833.3,921.5,594.6,869.8,352.8S583.7-42.3,346.3,10.4S-41.5,301.8,10.2,543.6
	S296.3,938.6,533.7,886z"/>
<ellipse class="st1" cx="409.1" cy="431" rx="371.8" ry="384"/>
<ellipse class="st0" cx="384.6" cy="407.7" rx="331.8" ry="342.6"/>
<g>
	<path class="st1" d="M367.3,338.6v-119c0,0,2.2-18.2,13.8-18.2h233c0,0,13.8-0.8,13.8,13.8v311.3H418.1
		C418.1,526.6,479.1,403.2,367.3,338.6z M414.5,229.7c0,0-4.3-5.8-8-10.2c0,0-5.8,7.2-8.8,10.2c0,0-14.5,11.6-3.7,21.1
		c0,0,8.8,2.2,10.2-2.2c0,0-0.8,6.5-3.7,8h11.8c0,0-4.3-2.2-3.7-8c0,0,7.2,7.2,13.8-2.2C422.5,246.4,426.1,238.4,414.5,229.7z
		 M575.6,507.7c2.9,2.2,8.8,10.2,8.8,10.2c2.9-3.7,8-10.2,8-10.2c10.9-8.8,8-16.6,8-16.6c-7.2-9.4-14.5-2.2-14.5-2.2
		c-0.8-5.8,3.7-8,3.7-8H578c3.7,1.4,3.7,8,3.7,8c-1.4-4.3-10.2-2.2-10.2-2.2C561.1,496,575.6,507.7,575.6,507.7z M455.9,435
		c0,0,31.2,9.4,37-9.4c0,0-1.4,26.8-13.8,31.9h42.1c0,0-16-8-13.8-31.9c0,0,25.4,30.5,51.5-9.4c0,0,12.3-31.9-28.3-68.9
		c0,0-16.6-24.6-28.3-41.4c0,0-21.1,30.5-32.6,41.4C469.6,348,417.5,395.9,455.9,435z M357.9,210.8v119c0,0-19.6-10.9-51.5-9.4
		l-55.9-124c0,0-7.2-10.9,4.3-18.2L474,91.1c0,0,8.8-6.5,13.8,4.3l37,96.5H381C381.1,192,360.8,192,357.9,210.8z M287.6,187.6
		l-4.3,27.6l28.3,13.8l4.3-27.6L287.6,187.6z M227.3,334.2l-46.5-45.7c0,0-10.2-9.4,0-18.2l65.3-59.5l50.8,105.2
		C297,316.1,257.8,316.1,227.3,334.2z M223.7,261.6c-16.6-4.3-16.6,12.3-16.6,12.3c-14.5-1.4-12.3,16-12.3,16
		c21.7,14.5,37,4.3,37,4.3C232.4,264.5,223.7,261.6,223.7,261.6z M217.9,338.6c0,0-29.1,8-55.9,68.9c0,0-8,1.4-4.3-9.4l37-77.7
		L217.9,338.6z M292.7,325.5c74.8,0,135,59.5,135,132.8c0,31.2-10.9,59.5-29.1,82.8h-15.2l2.9-2.9l-17.4-15.2L351.4,541h-29.8
		c37-12.3,64.6-46.5,64.6-87.1c0-50.8-42.1-91.4-93.6-91.4s-93.6,41.4-93.6,91.4c0,40.6,26.8,74.8,64.6,87.1h-64.6l18.9-13.8
		L199.1,504l-18.9,13.8l18.9,23.2h-12.3c-18.2-22.5-29.1-51.5-29.1-82.8C156.9,385,217.9,325.5,292.7,325.5z M414.5,427.8l-23.2,3.7
		l3.7,29.1l23.2-3.7L414.5,427.8z M381.9,504.7l19.6,12.3l17.4-24l-19.6-12.3L381.9,504.7z M379,408.2l19.6-12.3l-15.2-25.4
		l-19.6,12.3L379,408.2z M344.2,370.5l13.8-18.2L334,335L321,353.9L344.2,370.5z M264.3,355.3l29.7-0.8l-1.4-23.2l-29.7,0.8
		L264.3,355.3z M217.9,385l23.2-18.2L227.3,348L204,366.1L217.9,385z M171.4,483l23.2-2.9l-4.3-29.1l-23.2,2.9L171.4,483z
		 M169.3,421.3l21.7,8.8l10.9-27.6l-21.7-8.8L169.3,421.3z M245.4,476.4h24.6c0.8,7.2,2.2,12.3,3.7,16c2.9,3.7,7.2,6.5,13.8,8v-39.2
		c-12.3-2.9-21.7-7.2-26.8-10.9c-8.8-6.5-13.1-15.2-13.1-26.8c0-10.9,2.9-20.3,9.4-26.8c7.2-8,17.4-11.6,30.5-11.6v-12.3h8.8v12.3
		c10.9,1.4,19.6,3.7,25.4,7.2c10.2,6.5,15.2,16.6,15.2,31.2h-24.6c0-8-1.4-13.1-5.1-16c-2.2-2.2-5.8-2.9-10.9-2.9v34.8
		c8,2.9,15.2,5.1,20.3,8c5.1,2.2,9.4,5.1,11.6,7.2c4.3,4.3,8,9.4,9.4,14.5c0.8,2.9,1.4,7.2,1.4,11.6c0,10.2-2.9,18.9-9.4,26.8
		c-8,9.4-18.9,13.8-33.4,13.8v18.2h-8.8v-18.2c-15.2,0-26.1-3.7-32.6-10.9C248.4,501.8,245.4,490.9,245.4,476.4z M288.2,403.9
		c-5.1,0-9.4,1.4-11.6,4.3c-2.9,2.9-4.3,6.5-4.3,10.2c0,5.8,1.4,9.4,5.1,12.3c2.9,2.2,6.5,4.3,10.9,5.1L288.2,403.9L288.2,403.9z
		 M297,499.7c4.3,0,8-1.4,10.9-3.7c4.3-3.7,5.8-8,5.8-14.5c0-5.1-2.2-8.8-5.8-12.3c-2.9-2.2-6.5-4.3-11.6-5.8v36.3L297,499.7
		L297,499.7z"/>
	<path class="st2" d="M360.6,333.3v-119c0,0,2.2-18.2,13.8-18.2h233c0,0,13.8-0.8,13.8,13.8v311.3H411.4
		C411.4,521.2,472.3,397.9,360.6,333.3z M407.7,224.4c0,0-4.3-5.8-8-10.2c0,0-5.8,7.2-8.8,10.2c0,0-14.5,11.6-3.7,21.1
		c0,0,8.8,2.2,10.2-2.2c0,0-0.8,6.5-3.7,8h11.6c0,0-4.3-2.2-3.7-8c0,0,7.2,7.2,13.8-2.2C415.7,241.1,419.4,233.1,407.7,224.4z
		 M568.8,502.4c2.9,2.2,8.8,10.2,8.8,10.2c2.9-3.7,8-10.2,8-10.2c10.9-8.8,8-16.6,8-16.6c-7.2-9.4-14.5-2.2-14.5-2.2
		c-0.8-5.8,3.7-8,3.7-8h-11.6c3.7,1.4,3.7,8,3.7,8c-1.4-4.3-10.2-2.2-10.2-2.2C554.4,490.7,568.8,502.4,568.8,502.4z M449.1,429.7
		c0,0,31.2,9.4,37-9.4c0,0-1.4,26.8-13.8,31.9h42.1c0,0-16-8-13.8-31.9c0,0,25.4,30.5,51.5-9.4c0,0,12.3-31.9-28.3-68.9
		c0,0-16.6-24.6-28.3-41.4c0,0-21.1,30.5-32.6,41.4C462.9,342.7,410.6,390.5,449.1,429.7z M351.2,205.5v119c0,0-19.6-10.9-51.5-9.4
		l-55.9-124c0,0-7.2-10.9,4.3-18.2l219.1-87.1c0,0,8.8-6.5,13.8,4.3l37,96.5H374.3C374.3,186.6,354,186.6,351.2,205.5z M280.8,182.3
		l-4.3,27.6l28.3,13.8l4.3-27.6L280.8,182.3z M220.6,328.9l-46.5-45.7c0,0-10.2-9.4,0-18.2l65.3-59.5l50.8,105.2
		C290.2,310.8,251.1,310.8,220.6,328.9z M216.9,256.3c-16.6-4.3-16.6,12.3-16.6,12.3c-14.5-1.4-12.3,16-12.3,16
		c21.7,14.5,37,4.3,37,4.3C225.7,259.2,216.9,256.3,216.9,256.3z M211.1,333.3c0,0-29.1,8-55.9,68.9c0,0-8,1.4-4.3-9.4l37-77.7
		L211.1,333.3z M285.8,320.2c74.8,0,135,59.5,135,132.8c0,31.2-10.9,59.5-29.1,82.8h-15.2l2.9-2.9L362,517.6l-17.4,18.2h-29.7
		c37-12.3,64.6-46.5,64.6-87.1c0-50.8-42.1-91.4-93.6-91.4s-93.6,41.4-93.6,91.4c0,40.6,26.8,74.8,64.6,87.1h-64.6l18.9-13.8
		l-18.9-23.2l-18.9,13.8l18.9,23.2h-12.3C161.9,513.3,151,484.2,151,453C150.1,379.7,211.1,320.2,285.8,320.2z M407.7,422.5
		l-23.2,3.7l3.7,29.1l23.2-3.7L407.7,422.5z M375.1,499.4l19.6,12.3l17.4-24l-19.6-12.3L375.1,499.4z M372.2,403l19.6-12.3
		l-15.2-25.4l-19.6,12.3L372.2,403z M337.4,365.1l13.8-18.2l-24-17.4l-13.1,18.9L337.4,365.1z M257.5,349.9l29.7-0.8l-1.4-23.2
		l-29.7,0.8L257.5,349.9z M211.1,379.7l23.2-18.2l-13.8-18.9l-23.1,18.2L211.1,379.7z M164.7,477.6l23.2-2.9l-4.3-29.1l-23.2,2.9
		L164.7,477.6z M162.6,415.9l21.7,8.8l10.9-27.6l-21.7-8.8L162.6,415.9z M238.7,471.1h24.6c0.8,7.2,2.2,12.3,3.7,16
		c2.9,3.7,7.2,6.5,13.8,8v-39.2c-12.3-2.9-21.7-7.2-26.8-10.9c-8.8-6.5-13.1-15.2-13.1-26.8c0-10.9,2.9-20.3,9.4-26.8
		c7.2-8,17.4-11.6,30.5-11.6v-12.3h8.8v12.3c10.9,1.4,19.6,3.7,25.4,7.2c10.2,6.5,15.2,16.6,15.2,31.2h-24.9c0-8-1.4-13.1-5.1-16
		c-2.2-2.2-5.8-2.9-10.9-2.9v34.7c8,2.9,15.2,5.1,20.3,8c5.1,2.2,9.4,5.1,11.6,7.2c4.3,4.3,8,9.4,9.4,14.5c0.8,2.9,1.4,7.2,1.4,11.6
		c0,10.2-2.9,18.9-9.4,26.8c-8,9.4-18.9,13.8-33.4,13.8v18.2h-8.8V516c-15.2,0-26.1-3.7-32.6-10.9
		C241.7,496.5,238.7,485.6,238.7,471.1z M281.5,398.5c-5.1,0-9.4,1.4-11.6,4.3c-2.9,2.9-4.3,6.5-4.3,10.2c0,5.8,1.4,9.4,5.1,12.3
		c2.9,2.2,6.5,4.3,10.9,5.1L281.5,398.5L281.5,398.5z M290.2,494.4c4.3,0,8-1.4,10.9-3.7c4.3-3.7,5.8-8,5.8-14.5
		c0-5.1-2.2-8.8-5.8-12.3c-2.9-2.2-6.5-4.3-11.6-5.8v36.3L290.2,494.4L290.2,494.4z"/>
	<path class="st1" d="M650,641.6h24v15.3h-24v22.4h-21.6v-22.5h-33.7v-15.3h6.5v-9.7c4.8-2.4,8-4.8,11.2-7.2h-14.5v-64.2h19.2
		c0.8-2.4,1.6-4.8,1.6-8H642c0,1.6-0.8,3.2-1.6,4.8c0,1.6-0.8,2.4-0.8,2.4h31.3v44.1c0,13.6-5.6,20.1-18.4,20.1h-16.9
		c-0.8,0.8-1.6,2.4-2.4,2.4h16.9C650,626.3,650,641.6,650,641.6z M624.4,574.9h-8.8v9.7h8.8V574.9z M615.5,599v10.4h7.2
		c0.8-2.4,0.8-6.5,0.8-10.4H615.5z M628.3,631.1c-4.8,3.2-10.4,7.2-18.4,10.4h18.4V631.1z M653.2,574.9h-8.8v9.7h8.8V574.9z
		 M646.9,609.4c4.8,0,6.5-1.6,6.5-6.5v-4.8h-8.8c0,4.1,0,7.2-0.8,10.4L646.9,609.4L646.9,609.4z M384.3,549.2h-16.9 M119.3,584.6
		h19.2c0.8,12.8,2.4,23.3,4.1,32.9c2.4-12.1,4.1-24.9,4.8-38.5h-28.1v-15.3h49v15.3c-1.6,28.9-6.5,51.4-15.3,65.9
		c3.2,5.6,8,12.1,13.6,18.4v16.9c-9.7-7.2-17.7-13.6-24-20.9c-6.5,6.5-14.5,13.6-24,20.9v-16.9c5.6-6.5,10.4-12.8,14.5-18.4
		C124.9,628.7,121,609.4,119.3,584.6z M203.7,552.4c0,4.1-0.8,7.2-1.6,10.4h43.4v35.3h-20.9v-19.2h-27.3
		c-4.8,12.1-13.6,21.6-28.1,28.1v-16c6.5-8.8,10.4-21.6,12.1-38.5H203.7L203.7,552.4z M189.9,636c3.2-8.8,4.8-21.6,4.8-38.5v-8h24v8
		c-0.8,27.3,8,49,27.3,65.9v15.9c-19.2-8.8-32.2-20.1-38.5-33.7c-6.5,14.5-19.2,25.7-37.8,35.3v-16.9
		C179.5,654.4,186,644.7,189.9,636z M282.3,629.5h23.2c-4.1,23.3-18.4,37.8-42.6,44.1V660C273.5,653.5,279.8,644,282.3,629.5z
		 M315.2,658.4V623h-29.6c-11.2,0-16.9-5.6-16.9-17.7V558h65.9c14.5,0,28.9-1.6,43.4-4.8v16.9c-9.7,3.2-22.5,4.8-38.5,4.1h-46.6V599
		c0,4.8,2.4,7.2,8,7.2h14.5v-24.9H341v24.9h43.4V623H341v36.1c0,13.6-6.5,20.9-19.2,20.9h-16.9v-15.3h6.5
		C313.7,664.8,315.2,662.4,315.2,658.4z M386.7,660.8v13.6c-23.3-6.5-36.1-21.6-40.9-44.1h22.5C372.3,644,377.9,653.5,386.7,660.8z
		 M404.3,585.4v-15.3h9.7v-17.7h21.6v17.7h8v-8.8h8v-9.7h22.5v9.7h26.5v-9.7h22.5v9.7h8v15.3h-8v58.6h8.8v16h-88.3v-16l0,0
		c-3.2-4.1-5.6-7.2-8-11.2v55.4H414v-46.6c-4.1,8.8-8,15.3-12.1,20.1v-24.9c5.6-12.8,8.8-27.3,10.4-42.6h-8V585.4z M474.2,635.1
		h26.5v-9.7h-26.5V635.1z M474.2,611h26.5v-9.7h-26.5V611z M474.2,586.1h26.5v-9.7h-26.5V586.1z M446.1,617.4v18.4h6.5v-58.6h-7.2
		v8.8h-8C438,596.6,441.2,607,446.1,617.4z M461.3,654.4H483c-5.6,16-18.4,24.9-39.3,25.7v-13.6
		C451.8,666.4,457.4,662.4,461.3,654.4z M532,667.3v13.6c-21.6-0.8-34.6-9.7-40.2-25.7h21.8C517.5,662.4,524,666.4,532,667.3z
		 M549.7,557.2h19.2v28.1h4.8v-31.3h17.7v31.3h3.2v15.3h-26.5v11.2h22.5v66.6h-17.7V627h-4.8v0.8c0.8,26.5-7.2,44.1-24,53.8v-15.3
		c3.2-7.2,4.8-17.7,4.8-31.3L549.7,557.2L549.7,557.2z"/>
	<path class="st3" d="M645.3,636.8h24v15.3h-24v22.4h-21.8V652h-33.7v-15.3h6.5V627c4.8-2.4,8-4.8,11.2-7.2h-14.5v-64.2h19.2
		c0.8-2.4,1.6-4.8,1.6-8h23.3c0,1.6-0.8,3.2-1.6,4.8c0,1.6-0.8,2.4-0.8,2.4h31.3v44.1c0,13.6-5.6,20.1-18.4,20.1h-16.9
		c-0.8,0.8-1.6,2.4-2.4,2.4h16.9C645.3,621.5,645.3,636.8,645.3,636.8z M619.6,570.1h-8.8v9.7h8.8V570.1z M610.8,594.2v10.4h7.2
		c0.8-2.4,0.8-6.5,0.8-10.4H610.8z M623.5,626.3c-4.8,3.2-10.4,7.2-18.4,10.4h18.4V626.3z M648.5,570.1h-8.8v9.7h8.8V570.1z
		 M642.1,604.6c4.8,0,6.5-1.6,6.5-6.5v-4.8h-8.8c0,4.1,0,7.2-0.8,10.4L642.1,604.6L642.1,604.6z M379.5,544.4h-16.9 M114.6,579.8
		h19.2c0.8,12.8,2.4,23.3,4.1,32.9c2.4-12.1,4.1-24.9,4.8-38.5h-28.1v-15.3h49v15.3c-1.6,28.9-6.5,51.4-15.3,65.9
		c3.2,5.6,8,12.1,13.6,18.4v16.9c-9.7-7.2-17.7-13.6-24-20.9c-6.5,6.5-14.5,13.6-24,20.9v-16.9c5.6-6.5,10.4-12.8,14.5-18.4
		C120.2,623.9,116.2,604.6,114.6,579.8z M198.9,547.6c0,4.1-0.8,7.2-1.6,10.4h43.4v35.3h-20.9V574h-27.3
		c-4.8,12.1-13.6,21.6-28.1,28.1v-16c6.5-8.8,10.4-21.6,12.1-38.5H198.9L198.9,547.6z M185.3,631.2c3.2-8.8,4.8-21.6,4.8-38.5v-8h24
		v8c-0.8,27.3,8,49,27.3,65.9v15.9c-19.2-8.8-32.2-20.1-38.5-33.7c-6.5,14.5-19.2,25.7-37.8,35.3v-16.9
		C174.8,649.6,181.2,639.9,185.3,631.2z M277.6,624.7h23.3c-4.1,23.3-18.4,37.8-42.6,44.1v-13.6
		C268.7,648.7,275.2,639.2,277.6,624.7z M310.4,653.7v-35.4h-29.6c-11.2,0-16.9-5.6-16.9-17.7v-47.3h65.9c14.5,0,28.9-1.6,43.4-4.8
		v16.9c-9.7,3.2-22.5,4.8-38.5,4.1h-46.6v24.9c0,4.8,2.4,7.2,8,7.2h14.5v-24.9h25.7v24.9h43.4v16.9h-43.4v36.1
		c0,13.6-6.5,20.9-19.2,20.9h-16.9V660h6.5C308.9,660,310.4,657.6,310.4,653.7z M381.9,656v13.6c-23.3-6.5-36.1-21.6-40.9-44.1h22.5
		C367.5,639.2,373.1,648.7,381.9,656z M399.6,580.5v-15.3h9.7v-17.7H431v17.7h8v-8.8h8v-9.7h22.5v9.7H496v-9.7h22.5v9.7h8v15.3h-8
		v58.6h8.8v16H439v-16l0,0c-3.2-4.1-5.6-7.2-8-11.2v55.5h-21.6v-46.6c-4.1,8.8-8,15.3-12.1,20.1V623c5.6-12.8,8.8-27.3,10.4-42.6
		H399.6L399.6,580.5z M469.4,630.3H496v-9.7h-26.5V630.3z M469.4,606.2H496v-9.7h-26.5V606.2z M469.4,581.3H496v-9.7h-26.5V581.3z
		 M441.4,612.6v18.4h6.5v-58.6h-7.2v8.8h-8C433.3,591.7,436.6,602.2,441.4,612.6z M456.7,649.6h21.6c-5.6,16-18.4,24.9-39.3,25.7
		v-13.6C447,661.7,452.6,657.6,456.7,649.6z M527.3,662.4V676c-21.6-0.8-34.6-9.7-40.2-25.7h21.6
		C512.8,657.6,519.2,661.7,527.3,662.4z M544.9,552.4h19.2v28.1h4.8v-31.3h17.7v31.3h3.2v15.3h-26.5V607h22.5v66.6h-17.7v-51.4h-4.8
		v0.8c0.8,26.5-7.2,44.1-24,53.8v-15.3c3.2-7.2,4.8-17.7,4.8-31.3L544.9,552.4L544.9,552.4z"/>
</g>
</svg>
