<?xml version="1.0" encoding="utf-8"?>
<!-- Generator: Adobe Illustrator 18.1.1, SVG Export Plug-In . SVG Version: 6.00 Build 0)  -->
<svg version="1.1" id="图层_1" xmlns="http://www.w3.org/2000/svg" xmlns:xlink="http://www.w3.org/1999/xlink" x="0px" y="0px"
	 viewBox="0 0 150 150" enable-background="new 0 0 150 150" xml:space="preserve">
<style type="text/css">
	path{fill:#c6ae6b;}
</style>
<g>
	<path fill="#fff" d="M106.7,107.5h3v1.9h-3v2.8H104v-2.8h-4.2v-1.9h0.8v-1.2c0.6-0.3,1-0.6,1.4-0.9h-1.8v-8h2.4
		c0.1-0.3,0.2-0.6,0.2-1h2.9c0,0.2-0.1,0.4-0.2,0.6c0,0.2-0.1,0.3-0.1,0.3h3.9v5.5c0,1.7-0.7,2.5-2.3,2.5h-2.1
		c-0.1,0.1-0.2,0.3-0.3,0.3h2.1V107.5z M103.5,99.2h-1.1v1.2h1.1V99.2z M102.4,102.2v1.3h0.9c0.1-0.3,0.1-0.8,0.1-1.3H102.4z
		 M104,106.2c-0.6,0.4-1.3,0.9-2.3,1.3h2.3V106.2z M107.1,99.2H106v1.2h1.1V99.2z M106.3,103.5c0.6,0,0.8-0.2,0.8-0.8v-0.6H106
		c0,0.5,0,0.9-0.1,1.3L106.3,103.5L106.3,103.5z M69.3,68.1V51.7c0,0,0.3-2.5,1.9-2.5h32.1c0,0,1.9-0.1,1.9,1.9V94H76.3
		C76.3,94,84.7,77,69.3,68.1z M75.8,53.1c0,0-0.6-0.8-1.1-1.4c0,0-0.8,1-1.2,1.4c0,0-2,1.6-0.5,2.9c0,0,1.2,0.3,1.4-0.3
		c0,0-0.1,0.9-0.5,1.1h1.6c0,0-0.6-0.3-0.5-1.1c0,0,1,1,1.9-0.3C76.9,55.4,77.4,54.3,75.8,53.1z M98,91.4c0.4,0.3,1.2,1.4,1.2,1.4
		c0.4-0.5,1.1-1.4,1.1-1.4c1.5-1.2,1.1-2.3,1.1-2.3c-1-1.3-2-0.3-2-0.3c-0.1-0.8,0.5-1.1,0.5-1.1h-1.6c0.5,0.2,0.5,1.1,0.5,1.1
		c-0.2-0.6-1.4-0.3-1.4-0.3C96,89.8,98,91.4,98,91.4z M81.5,81.4c0,0,4.3,1.3,5.1-1.3c0,0-0.2,3.7-1.9,4.4h5.8c0,0-2.2-1.1-1.9-4.4
		c0,0,3.5,4.2,7.1-1.3c0,0,1.7-4.4-3.9-9.5c0,0-2.3-3.4-3.9-5.7c0,0-2.9,4.2-4.5,5.7C83.4,69.4,76.2,76,81.5,81.4z M68,50.5v16.4
		c0,0-2.7-1.5-7.1-1.3l-7.7-17.1c0,0-1-1.5,0.6-2.5l30.2-12c0,0,1.2-0.9,1.9,0.6l5.1,13.3H71.2C71.2,47.9,68.4,47.9,68,50.5z
		 M58.3,47.3l-0.6,3.8l3.9,1.9l0.6-3.8L58.3,47.3z M50,67.5l-6.4-6.3c0,0-1.4-1.3,0-2.5l9-8.2L59.6,65C59.6,65,54.2,65,50,67.5z
		 M49.5,57.5c-2.3-0.6-2.3,1.7-2.3,1.7c-2-0.2-1.7,2.2-1.7,2.2c3,2,5.1,0.6,5.1,0.6C50.7,57.9,49.5,57.5,49.5,57.5z M48.7,68.1
		c0,0-4,1.1-7.7,9.5c0,0-1.1,0.2-0.6-1.3l5.1-10.7L48.7,68.1z M59,66.3c10.3,0,18.6,8.2,18.6,18.3c0,4.3-1.5,8.2-4,11.4h-2.1
		l0.4-0.4l-2.4-2.1l-2.4,2.5H63c5.1-1.7,8.9-6.4,8.9-12c0-7-5.8-12.6-12.9-12.6c-7.1,0-12.9,5.7-12.9,12.6c0,5.6,3.7,10.3,8.9,12
		h-8.9l2.6-1.9l-2.6-3.2l-2.6,1.9l2.6,3.2h-1.7c-2.5-3.1-4-7.1-4-11.4C40.3,74.5,48.7,66.3,59,66.3z M75.8,80.4l-3.2,0.5l0.5,4
		l3.2-0.5L75.8,80.4z M71.3,91l2.7,1.7l2.4-3.3l-2.7-1.7L71.3,91z M70.9,77.7l2.7-1.7l-2.1-3.5l-2.7,1.7L70.9,77.7z M66.1,72.5
		L68,70l-3.3-2.4l-1.8,2.6L66.1,72.5z M55.1,70.4l4.1-0.1L59,67.1l-4.1,0.1L55.1,70.4z M48.7,74.5l3.2-2.5L50,69.4l-3.2,2.5
		L48.7,74.5z M42.3,88l3.2-0.4l-0.6-4L41.7,84L42.3,88z M42,79.5l3,1.2l1.5-3.8l-3-1.2L42,79.5z M40.6,100.4h2.4
		c0.1,1.6,0.3,2.9,0.5,4.1c0.3-1.5,0.5-3.1,0.6-4.8h-3.5v-1.9h6.1v1.9c-0.2,3.6-0.8,6.4-1.9,8.2c0.4,0.7,1,1.5,1.7,2.3v2.1
		c-1.2-0.9-2.2-1.7-3-2.6c-0.8,0.8-1.8,1.7-3,2.6v-2.1c0.7-0.8,1.3-1.6,1.8-2.3C41.3,105.9,40.8,103.5,40.6,100.4z M51.1,96.4
		c0,0.5-0.1,0.9-0.2,1.3h5.4v4.4h-2.6v-2.4h-3.4c-0.6,1.5-1.7,2.7-3.5,3.5v-2c0.8-1.1,1.3-2.7,1.5-4.8L51.1,96.4L51.1,96.4z
		 M49.4,106.8c0.4-1.1,0.6-2.7,0.6-4.8v-1h3v1c-0.1,3.4,1,6.1,3.4,8.2v2c-2.4-1.1-4-2.5-4.8-4.2c-0.8,1.8-2.4,3.2-4.7,4.4v-2.1
		C48.1,109.1,48.9,107.9,49.4,106.8z M52.5,87.1h3.4c0.1,1,0.3,1.7,0.5,2.2c0.4,0.5,1,0.9,1.9,1.1v-5.4c-1.7-0.4-3-1-3.7-1.5
		c-1.2-0.9-1.8-2.1-1.8-3.7c0-1.5,0.4-2.8,1.3-3.7c1-1.1,2.4-1.6,4.2-1.6v-1.7h1.2v1.7c1.5,0.2,2.7,0.5,3.5,1
		c1.4,0.9,2.1,2.3,2.1,4.3h-3.4c0-1.1-0.2-1.8-0.7-2.2c-0.3-0.3-0.8-0.4-1.5-0.4v4.8c1.1,0.4,2.1,0.7,2.8,1.1c0.7,0.3,1.3,0.7,1.6,1
		c0.6,0.6,1.1,1.3,1.3,2c0.1,0.4,0.2,1,0.2,1.6c0,1.4-0.4,2.6-1.3,3.7c-1.1,1.3-2.6,1.9-4.6,1.9v2.5h-1.2v-2.5
		c-2.1,0-3.6-0.5-4.5-1.5C52.9,90.6,52.5,89.1,52.5,87.1z M58.4,77.1c-0.7,0-1.3,0.2-1.6,0.6c-0.4,0.4-0.6,0.9-0.6,1.4
		c0,0.8,0.2,1.3,0.7,1.7c0.4,0.3,0.9,0.6,1.5,0.7L58.4,77.1L58.4,77.1z M59.6,90.3c0.6,0,1.1-0.2,1.5-0.5c0.6-0.5,0.8-1.1,0.8-2
		c0-0.7-0.3-1.2-0.8-1.7c-0.4-0.3-0.9-0.6-1.6-0.8V90.3z M60.9,106h2.9c-0.5,2.9-2.3,4.7-5.3,5.5v-1.7C59.8,109,60.6,107.8,60.9,106
		z M65,109.6v-4.4h-3.7c-1.4,0-2.1-0.7-2.1-2.2v-5.9h8.2c1.8,0,3.6-0.2,5.4-0.6v2.1C71.6,99,70,99.2,68,99.1h-5.8v3.1
		c0,0.6,0.3,0.9,1,0.9H65V100h3.2v3.1h5.4v2.1h-5.4v4.5c0,1.7-0.8,2.6-2.4,2.6h-2.1v-1.9h0.8C64.8,110.4,65,110.1,65,109.6z
		 M73.9,109.9v1.7c-2.9-0.8-4.5-2.7-5.1-5.5h2.8C72.1,107.8,72.8,109,73.9,109.9z M76.1,100.5v-1.9h1.2v-2.2H80v2.2h1v-1.1h1v-1.2
		h2.8v1.2h3.3v-1.2h2.8v1.2h1v1.9h-1v7.3H92v2h-11v-2H81c-0.4-0.5-0.7-0.9-1-1.4v6.9h-2.7v-5.8c-0.5,1.1-1,1.9-1.5,2.5v-3.1
		c0.7-1.6,1.1-3.4,1.3-5.3L76.1,100.5L76.1,100.5z M84.8,106.7h3.3v-1.2h-3.3V106.7z M84.8,103.7h3.3v-1.2h-3.3V103.7z M84.8,100.6
		h3.3v-1.2h-3.3V100.6z M81.3,104.5v2.3h0.8v-7.3h-0.9v1.1h-1C80.3,101.9,80.7,103.2,81.3,104.5z M83.2,109.1h2.7
		c-0.7,2-2.3,3.1-4.9,3.2v-1.7C82,110.6,82.7,110.1,83.2,109.1z M92,110.7v1.7c-2.7-0.1-4.3-1.2-5-3.2h2.7
		C90.2,110.1,91,110.6,92,110.7z M94.2,97h2.4v3.5h0.6v-3.9h2.2v3.9h0.4v1.9h-3.3v1.4h2.8v8.3h-2.2v-6.4h-0.6v0.1
		c0.1,3.3-0.9,5.5-3,6.7v-1.9c0.4-0.9,0.6-2.2,0.6-3.9L94.2,97L94.2,97z"/>
</g>
</svg>
