<?xml version="1.0" encoding="utf-8"?>
<!-- Generator: Adobe Illustrator 21.1.0, SVG Export Plug-In . SVG Version: 6.00 Build 0)  -->
<svg version="1.1" id="图层_1" xmlns="http://www.w3.org/2000/svg" xmlns:xlink="http://www.w3.org/1999/xlink" x="0px" y="0px"
	 viewBox="0 0 878.5 896.2" style="enable-background:new 0 0 878.5 896.2;" xml:space="preserve">
<style type="text/css">
	.st0{fill:#62C4D3;}
	.st1{fill:#406987;}
	.st2{fill:#556B13;}
	.st3{fill:#F3F61D;}
	.st4{fill:#EA5514;}
	.st5{fill:#FFFFFF;}
</style>
<path class="st0" d="M532.2,886c237.4-52.7,387.9-291.4,336.2-533.2S582.3-42.3,344.9,10.4S-43,301.8,8.7,543.6
	S294.8,938.6,532.2,886z"/>
<ellipse class="st1" cx="407.6" cy="431" rx="371.8" ry="384"/>
<ellipse class="st0" cx="383.2" cy="407.7" rx="331.8" ry="342.6"/>
<polygon class="st2" points="441.7,127.7 166.7,221.7 151.7,388.2 151.7,478.2 187.7,604.2 271.7,653.7 388.7,680.7 406.2,695.2 
	508.7,674.7 652.7,536.7 687.2,427 678.2,260.7 697.2,229.7 657.2,214.2 "/>
<g>
	<g>
		<g>
			<path class="st3" d="M694.3,217.5l2.6-1.3l-2.6,1.5C694.4,217.7,694.4,217.6,694.3,217.5z M163,232.5l239.1,149l9.3,335.3
				l8.2-336.3l274.8-162.8c27.2,93.5,17.8,335.9,13.8,348.2c-12.6,38.1-227.1,145.5-282.5,159.9c-65.5,17-283.2-103.7-284.1-110.1
				c-8.2-55.6-7.5-364.7,1.5-399.6c87.4-29,202.3-67.5,289.6-96.5c81.7,13.5,233.5,67.4,261.1,96.1c0.2,0.6,0.4,1.2,0.5,1.8
				L408.6,361.4L163,232.5z M631,538.7L631,538.7c16.4-33.8,19.3-64.5,2.2-90.8c-15.3-18.8-40.9-15.3-69.4-5.6l76.5-140.2L498.9,361
				c-22.6,8-31.3,27.5-30.6,54.9c4.5,4.7,67-25.4,100.5-38.1l-44.2,79.1v20.2c27.7-5.2,65.9,17.7,52.4,65.4
				c-21.7,40.5-66.5,83.6-113,133.1C560.2,628.9,617.6,566.5,631,538.7z M353.6,671.2c22.3-17.4,0.9-119.4-37.1-108.2
				C298.8,587.7,329,676.5,353.6,671.2z M247.6,510.2c8.4,3.7,21.7,3,25.1,11.2c-7.8,34.4-17.8,96.3-10.4,116.6
				c17.8-19.6,34.6-71.2,37.1-105.4v0c13.9-7.7,53.4,23.4,81.4,25.2c3.5-17.3,3.6-27.7-1.6-32.3c-14.1-10.8-33.3-9.6-30.8-19.9
				c2.4-18.3,10.6-45.8,7.3-54.9c-8.4-7.8-21.1-15-38.2-21.3c5.4-12.1,10.1-26.6,6.2-42.9c-13.3-14.4-44.7-19.8-51.1-14.2
				c-1.1,8.7,12.7,13.2,18.4,14.7c5.1,2.7,1,24.1-1.8,30c-6.4,4-22-14.7-29.4-9.3c-3.7,21.9,10.2,30.5,24.8,35.3
				c3.9-0.3,3.5,40.4-1.8,37.9c-4,2.4-26.6-16.3-34.5-12.3C240.4,473.1,244.5,497.4,247.6,510.2z M164.6,439
				c3.3,8.6,5.5,25.9,9.8,25.8c7.2-3.5,5.1-14.2,7.6-21.3c5.9-0.3,20.3,2.2,22.1,8.7c-8.3,28.2-17,73.5-9,89.4
				c8.7,13.1,22.7,13.7,39.4,13.4h0h0c8.2,1.5-7.9-68.9,2.1-98.4c6.7-5.1,31.2,13.5,35,4.8c7.9-8.7-5-18.2-32-28.3
				c-0.1-31.5,15-69.9,24.3-102.9c-20.2,1.7-38.5,36.8-55.7,90.8l-14.4-6.7c21.3-54.8,9.8-78.2-22.8-79.1
				c-3.6,0.8-3.7,42.4-1.3,69.5C152.5,401.5,142.4,424.2,164.6,439z M392.3,184c-100.3-9.5-143.1,65.3-49.9,74.5l13.6-20
				c-34.7-10.1-16.4-32.6,18.4-27.7L392.3,184L392.3,184L392.3,184z M423.3,148.6l-74.5,110.6h18l65.4-96.7h34.5l9.2-12.7
				L423.3,148.6L423.3,148.6z M436.9,166.7L363.2,276h18l64.6-95.4h34.5l13-13.9L436.9,166.7L436.9,166.7L436.9,166.7z M457.4,258.2
				c105.9,11.5,139.8-53.2,49.4-74.3h-56.2L376.2,293H434L457.4,258.2z M472,236.8l18.2-26.5C532.7,211.6,508.2,242.4,472,236.8z
				 M329.8,464.2c0.1,11.4,1.1,32.8-5.9,35.9c-7.1,0-12.6-2-14.9-8.4c-1.7-4.8,0.8-19.3,4.3-33.2
				C315.9,455.7,320.4,453.4,329.8,464.2z M316.1,432.7L316.1,432.7L316.1,432.7L316.1,432.7z"/>
		</g>
	</g>
</g>
<path class="st4" d="M532.3,886c119.3-26.5,216.6-100,277.4-197.2H67.4C163.6,842.7,347,927.1,532.3,886z"/>
<g>
	<path class="st5" d="M341.3,785.9l-17.2,60.8h-35l17.9-60.8H341.3z M336.3,745.8h-34l-8.4-28.3h33L336.3,745.8z M340.5,780.3h-33.7
		l-10.3-30.2h32.7L340.5,780.3z M407.8,731.8l-6.1,100.6H438v14.5H333.9v-14.5h28.6l6.9-100.6h-33.1v-14.5h102.2v14.5H407.8z"/>
	<path class="st5" d="M460,771.1h19.8l-14.4,71.2h-19.4L460,771.1z M571.7,720.6h20.4v14.5H570l-0.8,6.7h-35.3l1.1-6.7H503l-1.7,6.7
		h-34.6l1.7-6.7h-20.7v-14.5H472l1.7-6.5h34.6l-1.7,6.5h30.5l1-6.5h34.3L571.7,720.6z M486.7,765.3h-38.9v-14.5h41.8l1.4-7.1h32.6
		l-1.3,7.1h45.7l-5.7,96.1h-34.6l5.1-81.6h-13.2l-14.9,81.6h-34.5L486.7,765.3z M569.3,754.9h19.1l3.7,87.4H573L569.3,754.9z"/>
</g>
</svg>
