<?xml version="1.0" encoding="utf-8"?>
<!-- Generator: Adobe Illustrator 21.1.0, SVG Export Plug-In . SVG Version: 6.00 Build 0)  -->
<svg version="1.1" id="图层_1" xmlns="http://www.w3.org/2000/svg" xmlns:xlink="http://www.w3.org/1999/xlink" x="0px" y="0px"
	 viewBox="0 0 880 896.2" style="enable-background:new 0 0 880 896.2;" xml:space="preserve">
<style type="text/css">
	.st0{fill:#D45426;}
	.st1{fill:#872D09;}
	.st2{fill:#4AA751;}
	.st3{fill:#387D3D;}
	.st4{fill:#F4D43A;}
	.st5{fill:#FFFFFF;}
</style>
<path class="st0" d="M533.7,886C771,833.3,921.5,594.6,869.8,352.8S583.7-42.3,346.3,10.4S-41.5,301.8,10.2,543.6
	S296.3,938.6,533.7,886z"/>
<ellipse class="st1" cx="409.1" cy="431" rx="371.8" ry="384"/>
<ellipse class="st2" cx="384.6" cy="407.7" rx="331.8" ry="342.6"/>
<polygon class="st3" points="240.5,356.7 207.5,397.7 207.5,443.7 228.5,479.7 259.5,479.7 277.4,488.7 313.5,488.7 330,472.7 
	334.5,432.8 343.4,397.7 314.5,380.7 261.5,364.7 "/>
<g>
	<path class="st4" d="M283.6,500.6l47.3-341.4l-120.6,31.4c-3.9,1-6.2,5-5.2,8.8L283.6,500.6z M234.4,202.8
		c7.1-1.9,12.5,3.9,12.5,3.9s1.9-7.6,9-9.5c0,0,12.9-2.3,17.3,14.5c0,0,2.8,9.2-5.9,25.1c0,0-7.9,13.6-8,17.2
		c-1.9-3.1-15.4-11.1-15.4-11.1c-15.4-9.6-17.5-19-17.5-19C222,207.1,234.4,202.8,234.4,202.8z"/>
	<path class="st4" d="M268.8,501.4L203,248.7l-91.7,69.4c-3.2,2.4-3.8,7-1.4,10.2l133.2,176C251.7,503.2,258.7,502.4,268.8,501.4z
		 M187.9,352.3l-6.4,4.8L175,362c0.9-4.3-3-12.2-7.3-19.2c1.2,4.7-0.4,9.6-4.2,12.5c-5.3,4-13.1,2.6-17.5-3.1
		c-4.3-5.7-3.5-13.6,1.7-17.6c1.4-1.1,3-1.7,4.5-2.1c-3.2-0.5-6.4-2.3-8.7-5.3c-4.3-5.7-3.5-13.6,1.7-17.6c5.3-4,13.1-2.6,17.5,3.1
		c2.2,2.9,3.1,6.3,2.7,9.5c0.7-1.4,1.7-2.5,3-3.5c5.3-4,13.1-2.6,17.5,3.1c4.3,5.7,3.5,13.6-1.7,17.6c-3.7,2.8-8.6,3-12.7,0.9
		C177.2,346.3,183.5,352,187.9,352.3z"/>
	<path class="st4" d="M454.9,221.5c6.1-10.3,19.4-13.8,29.7-7.7l161.6,94.7l18.4-132.9c0.6-4-2.2-7.6-6.2-8.1l-301-41.7
		c-4-0.6-7.6,2.2-8.1,6.2l-48.9,353L454.9,221.5z M388.9,142.6l19.4,32.7l-27.5,26.2l-19.5-32.7L388.9,142.6z"/>
	<path class="st4" d="M739.3,380l-262-153.7c-3.5-2-7.9-0.9-9.9,2.6L304.2,507.1c6.6-0.5,13.5-1,21.9-1.6c0.4,0,0.9-0.1,1.4-0.1
		c5,0,10,1.8,13.8,5.2c2.2,1.9,3.9,4.3,5.1,6.9c3.5-3.9,7.3-8,11.8-13c3.7-4.1,9-6.5,14.6-6.7c15.4-0.6,28.2-0.9,39.7-1.2
		c0.5-0.9,0.8-1.5,0.8-1.5c14.4-24.6,56.2-37.9,56.2-37.9c43.4-12.6,72.7-34.5,72.7-34.5s-4.8,36.2,5.4,80.3c0,0,0.1,0.6,0.3,1.7
		c4.1,0.3,7.8,0.6,11.5,0.9c3.9-3.9,9.2-6.2,14.9-6.2c0.6,0,1.3,0,1.9,0.1c18.1,1.7,27.2,2.6,45.3,4.8c6.2,0.7,11.8,4.2,15.1,9.4
		c2.5,0.3,4.9,0.6,7.4,1c3.7-3.4,8.7-5.4,14-5.4c1,0,2,0.1,3,0.2c3.7,0.5,6.9,1,10,1.4l71.1-121.1C743.9,386.4,742.8,382,739.3,380z
		 M501.5,307.5c0,0-6.8,11.5-17.2,5.7c0,0-5.1-2.5-5.4-8c-1.8,4-3.5,9.6-1,12.9l-6.4-3.7l-6.4-3.7c4.1,0.5,8.1-3.7,10.8-7.2
		c-5,2.5-9.6-0.8-9.6-0.8c-10.2-6.3-3.5-17.8-3.5-17.8c4.3-7.4,16.9-11.4,16.9-11.4c13.1-3.8,21.8-10.4,21.8-10.4
		s-1.4,10.9,1.6,24.2C503.2,287.2,505.8,300.2,501.5,307.5z"/>
	<path class="st5" d="M203.6,530.4c-14.9,2.2-22.4,3.3-37.4,5.9c2.2,19.5,3.3,29.3,5.6,48.8c-4,43.3-5.7,64.9-8.2,108.1
		c11.5-2.2,17.2-3.2,28.8-5.2c1-23.9,1.7-35.8,3.1-59.8c6.3,22.9,9.4,34.4,15.4,57.3c11.5-1.8,17.3-2.7,28.9-4.2
		c-12.4-41.9-18.8-62.7-32.2-104.4C206,558.3,205.2,549,203.6,530.4z"/>
	<path class="st5" d="M161.2,541c-6.9,1.2-10.3,1.8-17.2,3.1c2.3,21,3.5,31.5,5.9,52.5c6.6-1.2,10-1.9,16.7-3
		C164.4,572.5,163.3,561.9,161.2,541z"/>
	<path class="st5" d="M333.4,616.3c-15.9,1.1-23.7,1.7-39.6,3.2c-0.6-12.1-0.9-18.1-1.5-30.2c15.6-1.4,23.4-2.1,39.1-3.1
		c-0.4-6.3-0.6-9.4-1-15.6c-15.5,1-23.3,1.7-38.8,3c-0.5-11-0.7-16.4-1.2-27.4c15.3-1.4,22.9-2,38.2-3c-0.4-6.7-0.6-10.1-1.1-16.9
		c-23.1,1.5-34.7,2.5-57.8,4.9c1.6-3.7,2.5-5.6,4-9.4c-15.5,1.6-23.3,2.5-38.8,4.3c-2.9,7.4-4.3,11-7,18.5
		c-0.3-5.6-0.4-8.3-0.7-13.8c-7.1,0.9-10.6,1.4-17.7,2.4c1.3,21.1,1.9,31.7,3.3,52.7c6.8-1,10.2-1.4,17-2.4
		c-0.6-12.2-1-18.3-1.6-30.5c6.6-0.9,9.8-1.3,16.4-2.1c3,51.3,4.7,77,8.2,128.4c17.5-2.2,26.2-3.2,43.8-4.8
		c-0.9-15.8-1.3-23.7-2.1-39.4c15.9-1.5,23.9-2.1,39.8-3.2C334.1,625.7,333.9,622.6,333.4,616.3z"/>
	<path class="st5" d="M373.7,518.8c-13.7,14.9-20.3,22.3-33.4,37.4c20-1.2,30-1.6,50-2.2c7-7.8,10.5-11.6,17.7-19.3
		c22.4-0.4,33.6-0.3,56,0.1c6.3,7.7,9.4,11.5,15.4,19.3c18.9,0.6,28.3,1,47.2,2.2c-11.1-15-16.8-22.5-28.5-37.3
		C448.4,517,423.5,516.9,373.7,518.8z"/>
	<path class="st5" d="M521.3,577.2c0.4-6.3,0.6-9.4,0.9-15.6c-70.4-4.2-105.9-4.2-176.4-0.3c0.4,6.3,0.5,9.4,0.9,15.6
		c26.1-1.4,39.2-1.9,65.3-2.2c-0.4,6.1-0.6,9.2-1,15.2c-26.7,0.4-40.1,0.9-66.8,2.4c0.4,6.3,0.6,9.4,0.9,15.6
		c25.9-1.5,38.9-1.9,64.8-2.4c-1.2,18.9-1.7,28.3-2.8,47.2c-2.9,0.1-4.3,0.1-7.3,0.1c-5.9-15.7-9-23.6-15.2-39.2
		c-14.1,0.4-21.3,0.7-35.4,1.5c6.6,15.5,9.8,23.3,16.1,38.8c-7.5,0.4-11.3,0.6-18.8,1c0.4,6.3,0.6,9.4,0.9,15.6
		c68.3-4,102.6-4,170.9,0.1c0.4-6.3,0.6-9.4,0.9-15.6c-8.2-0.5-12.3-0.7-20.6-1.1c7-15.5,10.6-23.3,18-38.7
		c-14.6-0.9-21.9-1.2-36.5-1.7c-7,15.6-10.4,23.4-17,39.2c-4.7-0.1-7.1-0.1-11.8-0.2c1.7-18.8,2.5-28.3,4.2-47.2
		c26.2,0.4,39.2,0.9,65.4,2.5c0.4-6.3,0.6-9.4,0.9-15.6c-26-1.6-38.9-2.1-65-2.5c0.6-6.1,0.9-9.1,1.4-15.1
		C483.6,575.2,496.1,575.7,521.3,577.2z"/>
	<path class="st5" d="M679.8,573.6c-18.5-3-27.7-4.4-46.2-6.9c-2.2,9.2-3.3,13.9-5.5,23.1c-10-0.1-14.9,0-24.9,0.1
		c-0.8,6.9-1.2,10.3-1.9,17.2c9.2-0.1,13.7-0.1,22.9-0.1c-6.6,28.6-9.9,43-16.2,71.7c36.7,4.5,55,7.4,91.4,14.4
		c1.3-6.6,1.9-10,3.2-16.6c-19-3.6-28.4-5.3-47.4-8.2c6.1-24.2,9.2-36.2,15.5-60.4c16.9,0.6,25.5,1,42.5,2.2
		c1.3-6.8,1.9-10.2,3.2-17c-16.5-1.1-24.7-1.5-41.2-2.1C677,584.1,677.9,580.6,679.8,573.6z"/>
	<path class="st5" d="M701.6,537.2c-17.5-3-26.2-4.4-43.8-6.9c-0.8,2.9-1.2,4.4-2,7.3c-15.9-2.3-23.9-3.3-39.8-5.2
		c1.2-2.9,1.7-4.3,2.8-7.2c-17.9-2.1-26.8-3-44.6-4.7c-1.1,3-1.6,4.4-2.6,7.3c-12.6-1.2-18.9-1.7-31.6-2.5
		c-0.4,6.7-0.7,10.1-1.2,16.8c10.8,0.7,16.2,1.2,27,2.1c-1.4,4-2.1,6.1-3.5,10.1c17.5,1.5,26.2,2.4,43.7,4.3c1.5-4,2.2-6,3.7-10
		c16.6,1.9,24.9,3,41.4,5.3c-1.2,4-1.7,6.1-2.8,10c17.2,2.5,25.9,3.7,43.1,6.7c1.2-4,1.8-6,3-10c10.8,1.9,16.3,2.8,27.1,4.9
		c1.2-6.6,1.9-10,3.2-16.6c-10.1-1.9-15.2-2.8-25.3-4.6C700.2,541.6,700.7,540.2,701.6,537.2z"/>
	<path class="st5" d="M568.5,559.6c-12,3.2-17.9,4.8-29.7,8.1c-0.9,12-1.3,18-2.1,30.1c5.7-1.4,8.6-2.2,14.3-3.6
		c-5.7,31.4-8.5,47-13.9,78.5c16.7,1.2,25,1.9,41.7,3.7c8.9-45.4,13.4-68.1,22.9-113.4C588.5,561.4,581.8,560.8,568.5,559.6z"/>
</g>
</svg>
