<svg xmlns="http://www.w3.org/2000/svg" viewBox="0 0 863.97 880"><defs><style>.cls-1{fill:#e8393a;}.cls-2{fill:#9b1717;}.cls-3{fill:#fff;}.cls-4{fill:#f4f64f;}.cls-5{fill:#c01083;}.cls-6{fill:#28aece;}.cls-7{fill:#146e27;}.cls-8{fill:#cce70b;}.cls-9{fill:#fbac0c;}.cls-10{fill:#f75629;}</style></defs><title>jslhc</title><g id="图层_2" data-name="图层 2"><g id="图层_1-2" data-name="图层 1"><path class="cls-1" d="M523.94,869.82C757,818.09,904.76,583.72,854,346.34S573.09-41.55,340,10.18-40.79,296.28,10,533.66,290.88,921.55,523.94,869.82Z"/><ellipse class="cls-2" cx="401.62" cy="423.18" rx="365.04" ry="376.96"/><ellipse class="cls-1" cx="377.63" cy="400.3" rx="325.75" ry="336.39"/><path class="cls-3" d="M276.71,457.81l-28.26.78a3,3,0,0,0-1.8.76,3.61,3.61,0,0,0-1.15,1.75L216.73,565.64a141.27,141.27,0,0,0-4.48,23.62c-.77,6.48,1.75,14.1,18.1,13.55l34.78-1.17a3.48,3.48,0,0,0,2.95-2.51l7.1-25.8c.37-1.34-.35-2.4-1.61-2.36l-17.88.6c-2.94.1-4.8-.64-5.52-2.13-.45-1-.86-3.95,1.4-12.17l26.73-97.11C278.67,458.82,278,457.77,276.71,457.81Z"/><path class="cls-3" d="M129.12,454.22l179.1-6a3.48,3.48,0,0,0,2.95-2.51l7.16-26c.37-1.34-.35-2.4-1.61-2.36l-179.1,6a3.48,3.48,0,0,0-2.95,2.51l-7.16,26C127.14,453.21,127.87,454.26,129.12,454.22Z"/><path class="cls-3" d="M181.57,460.83l-28.35,1.12a3.48,3.48,0,0,0-2.94,2.51l-26.73,97.11c-2.26,8.2-4.35,11.14-5.44,12.22a9.44,9.44,0,0,1-6.75,2.58l-17.11.3a3,3,0,0,0-1.79.75,3.61,3.61,0,0,0-1.16,1.76l-7.18,26.07c-.37,1.34.35,2.4,1.61,2.36l34.06-1.14c16.23-.54,23.07-8.37,26-14.83a164.85,164.85,0,0,0,8.49-23.27l29-105.18a2,2,0,0,0-.2-1.7A1.6,1.6,0,0,0,181.57,460.83Z"/><path class="cls-3" d="M655.28,402.83l3-10.79c.37-1.34-.35-2.4-1.61-2.36l-23,.77A3.48,3.48,0,0,0,630.7,393l-.68,2.49c-.54,2-1,2.58-.88,2.58h0a7.41,7.41,0,0,1-3.21.92h-.59l-80.64,2.7a3.48,3.48,0,0,0-2.95,2.51l-6.42,23.31c-.37,1.34.35,2.4,1.61,2.36l85.84-2.88c.53,0,13.11-.45,15.07-1.54A26.66,26.66,0,0,0,649,416.23,44.79,44.79,0,0,0,655.28,402.83Z"/><path class="cls-3" d="M316.6,501.46l176-5.9a3.48,3.48,0,0,0,2.95-2.51l6.17-22.43c.37-1.34-.35-2.4-1.61-2.36l-176,5.9a3.48,3.48,0,0,0-2.95,2.51L315,499.1C314.62,500.45,315.34,501.5,316.6,501.46Z"/><path class="cls-3" d="M559.08,434.38c.37-1.34-.35-2.4-1.61-2.36l-21.44.72a3.48,3.48,0,0,0-2.95,2.51L530,446.35a78.69,78.69,0,0,0-2.47,13c-.53,5.12.11,8.62,1.94,10.68a9.51,9.51,0,0,0,7.77,3.13l21.54-.73a3.48,3.48,0,0,0,2.95-2.51l5.6-20.33c.37-1.34-.35-2.4-1.61-2.36l-7.57.25a4.69,4.69,0,0,1-2.21-.25h0c0-.14-.15-.95.77-4.3Z"/><path class="cls-3" d="M324.62,468.79l11-.38c.68,0,1.39,0,2.1,0,1.18,0,2.36-.15,3.33-.24h.12a1.66,1.66,0,0,0,1.19.4,2.5,2.5,0,0,0,.68-.12,44,44,0,0,0,18.1-11.73l25.2-27.26,78-2.62,5.22,20.09c0,5.29,2,9.77,5.83,12.76a22.11,22.11,0,0,0,10.9,2.24c.47,0,.94,0,1.23-.07l14.89-.5a3.48,3.48,0,0,0,2.95-2.51l6.26-22.76c.37-1.34-.35-2.4-1.61-2.36l-6.38.22-.59,0a15.63,15.63,0,0,1-2.11-.11l-.71-.06a6.14,6.14,0,0,1-2.17-4.33l-5.09-29.66a1.58,1.58,0,0,0-1.71-1.65L375,402.07a3.25,3.25,0,0,0-2.28,1.24l-20.07,24.36c-6.06,7.29-8.84,9.44-10,10.08a13.9,13.9,0,0,1-6.47,1.74l-3.56.12a3.48,3.48,0,0,0-2.95,2.51L323,466.43a2,2,0,0,0,.19,1.7A1.58,1.58,0,0,0,324.62,468.79Z"/><path class="cls-3" d="M486.06,506,317,511.67a3.48,3.48,0,0,0-2.95,2.51l-22.87,83.08c-.37,1.34.35,2.4,1.61,2.36l144.74-4.85c12.63-.42,20.67-3.45,24.49-9.13a62.05,62.05,0,0,0,10-20.26c.2-.73.39-1.45.49-1.94l15.16-55.08C488,507,487.32,506,486.06,506ZM441,559.19c-1,3.46-2.43,4.79-5.47,4.89L331.7,567.55l8.15-29.6,108-3.62Z"/><path class="cls-3" d="M756.29,491.47a2.91,2.91,0,0,0-1.57.58L588.06,611.59a3.64,3.64,0,0,0-1.38,1.93,1.94,1.94,0,0,0,.33,1.87l37.13,40L478.58,833.63c-.9,1.1-1,2.47-.27,3.18a1.65,1.65,0,0,0,1.22.43,3.08,3.08,0,0,0,1.92-.86L684.21,649.46a3.52,3.52,0,0,0,1.07-1.82,1.89,1.89,0,0,0-.34-1.66l-33.28-38.1,105.41-112.6a2.63,2.63,0,0,0,.61-3.18A1.59,1.59,0,0,0,756.29,491.47Z"/><path class="cls-3" d="M628.23,504.58l6.67-24.25c.37-1.34-.35-2.4-1.61-2.36l-40.95,1.37,1.82-6.63a2.06,2.06,0,0,0-.11-1.47l3.09-.1a3.48,3.48,0,0,0,2.95-2.51l5.29-19.22c.37-1.34-.35-2.4-1.61-2.36l-7.68.26a4.73,4.73,0,0,1-2.24-.29h0c0-.13-.14-1,.74-4.2l2.68-9.72c.37-1.34-.35-2.4-1.61-2.36l-20.09.67a3.48,3.48,0,0,0-2.95,2.49l-2.66,9.5a97.42,97.42,0,0,0-3.18,17.84c-.33,3.8.49,8.1,5.14,9.8l-3.1.1a3.48,3.48,0,0,0-2.95,2.51L564,480.3l-41.36,1.39a3.48,3.48,0,0,0-2.95,2.51L513,508.44c-.37,1.34.35,2.4,1.61,2.36L556,509.41,555,513a1.62,1.62,0,0,0-1.06-.36l-21.69.73a3.46,3.46,0,0,0-2.82,2.14l-16.16,38.73a52.94,52.94,0,0,1-5.7,12.52c-1.17,1.47-1.7,1.88-1.62,1.88h0a12.78,12.78,0,0,1-3.57.66h-.85l-3,.1a3.48,3.48,0,0,0-2.95,2.51l-6,21.77c-.37,1.34.35,2.4,1.61,2.36l9.27-.31c7.85-.26,13.91-1.86,18.52-4.89,4.81-3.12,10.06-11.79,16.52-27.29l16.74-40.43-18.59,67.55c-.37,1.34.35,2.4,1.61,2.36l23.76-.8a3.48,3.48,0,0,0,2.95-2.51l22.35-81.2,40.95-1.37A3.48,3.48,0,0,0,628.23,504.58Z"/><path class="cls-3" d="M779.45,348.53a1.65,1.65,0,0,0-1.21-.41,3.06,3.06,0,0,0-1.88.83l-135,120.45a3.54,3.54,0,0,0-1.11,1.82,1.91,1.91,0,0,0,.32,1.69l30.81,36.24-59.93,70.19a2.51,2.51,0,0,0-.43,3.13,1.62,1.62,0,0,0,1.33.54,3,3,0,0,0,1.66-.64l112-85.63a3.62,3.62,0,0,0,1.3-1.9A1.94,1.94,0,0,0,727,493l-30.61-33.56,82.85-107.8C780.1,350.54,780.18,349.21,779.45,348.53Z"/><path class="cls-3" d="M609.94,511.25a1.62,1.62,0,0,0-1.68-2.06l-21.85.73a3.09,3.09,0,0,0-1.92.87,3.47,3.47,0,0,0-1.09,1.91l-9,51.51c-2.25,12.52-1.58,20.3,2,23.1a18,18,0,0,0,12.41,3.87l13.45-.45a3.48,3.48,0,0,0,2.95-2.51l6-21.82c.37-1.34-.35-2.4-1.61-2.36l-3.14.11c-1.79.06-3-.28-3.72-1.05-.24-.31-.69-1.89.46-9.75Z"/><path class="cls-3" d="M643.8,447.08l4.32-15.69c.37-1.34-.35-2.4-1.61-2.36l-20.15.68a3.48,3.48,0,0,0-2.95,2.51L621.56,439a33.18,33.18,0,0,1-2,6,4.73,4.73,0,0,1-2.5.58l-6.8.23a3.48,3.48,0,0,0-2.95,2.51l-5.37,19.5c-.37,1.34.35,2.4,1.61,2.36l19.12-.64C629.54,469.29,638.81,465.21,643.8,447.08Z"/><polygon class="cls-4" points="402.18 287.61 381.8 288.16 355.15 386.58 371.15 386.15 393.88 302.5 398.47 302.38 376.84 387.76 405.28 386.99 426.99 301.6 433.74 301.42 436.82 286.67 430.69 286.84 433.38 276.31 439.02 276.16 442.1 261.41 437.15 261.55 439.57 251.95 411.06 252.72 408.64 262.32 381.3 263.06 378.21 277.8 404.86 277.08 402.18 287.61"/><path class="cls-4" d="M442.64,269.77l5.77-.16L409.18,386.88l25.46-.69,18-53.94,8.85,12.28L441.59,386l27.06-.73,8.64-18.82,13.14,18.23,5-24L486,347.48,508.32,299l2.16-10.35-9.25.25L516,262.41l2-9.5-72.2,2Zm31.23-.84,13.42-.36-16.15,29-1.44,6.88,11.26-.3-10.47,21.64-10.65-14.92Z"/><polygon class="cls-4" points="524.07 301.44 500.45 384.04 632.34 380.47 635.43 365.71 532.54 368.5 555.36 285.69 518.29 286.7 515.16 301.68 524.07 301.44"/><polygon class="cls-4" points="528.91 274.96 556.73 274.21 555.74 248.81 528.54 249.54 528.91 274.96"/><path class="cls-4" d="M559.68,267.67l36.87-1-1.62,6.43-31,.84-13.84,42.77,33.74-.91-12.31,47.72,27.48-.74,12.31-47.72,30.74-.83,11-42.7-30.74.83,1.69-6.43,32.76-.89,2.86-13.67-32.06.87,1.42-5.49-27.48.74L600.1,253l-37.56,1Zm27.46,35.44-7.79.21L585.2,286l6.47-.17ZM619.07,285l7.52-.2-4.52,17.33-7.45.2Z"/><polygon class="cls-4" points="535.54 363.42 560.51 362.74 580.41 319.5 557.04 320.13 535.54 363.42"/><polygon class="cls-4" points="634.18 360.75 634.66 318.03 612.05 318.64 611.09 361.37 634.18 360.75"/><ellipse class="cls-5" cx="566.47" cy="196.78" rx="26.26" ry="26.33" transform="translate(-32.46 226.71) rotate(-22.02)"/><ellipse class="cls-6" cx="462.07" cy="165.66" rx="24.05" ry="24.12" transform="translate(-28.4 185.3) rotate(-22.02)"/><circle class="cls-7" cx="359.56" cy="185.77" r="21.9"/><circle class="cls-8" cx="279.98" cy="239.27" r="19.69"/><path class="cls-9" d="M226.91,329.37a15.41,15.41,0,1,0-20-8.53A15.37,15.37,0,0,0,226.91,329.37Z"/><path class="cls-10" d="M207.08,407.3a15.34,15.34,0,1,0-19.84-8.52A15.27,15.27,0,0,0,207.08,407.3Z"/></g></g></svg>