<?xml version="1.0" encoding="utf-8"?>
<!-- Generator: Adobe Illustrator 22.0.0, SVG Export Plug-In . SVG Version: 6.00 Build 0)  -->
<svg version="1.1" id="图层_1" xmlns="http://www.w3.org/2000/svg" xmlns:xlink="http://www.w3.org/1999/xlink" x="0px" y="0px"
	 viewBox="0 0 880 896.2" style="enable-background:new 0 0 880 896.2;" xml:space="preserve">
<style type="text/css">
	.st0{fill:#66BAFF;}
	.st1{fill:#0B65AF;}
	.st2{fill:#FF7166;}
	.st3{fill:#C5EFFF;}
	.st4{fill:#FFFFFF;}
</style>
<path class="st0" d="M533.7,886C771,833.3,921.5,594.6,869.8,352.8S583.7-42.3,346.3,10.4S-41.5,301.8,10.2,543.6
	S296.3,938.6,533.7,886z"/>
<ellipse class="st1" cx="409.1" cy="431" rx="371.8" ry="384"/>
<ellipse class="st0" cx="384.6" cy="407.7" rx="331.8" ry="342.6"/>
<g>
	<g>
		<path class="st1" d="M419.5,445.5l-203.2,36.9c-7.1,1.3-13.9-3.5-15.2-10.6l-41.3-227.6c-1.3-7.1,3.5-13.9,10.6-15.2l203.2-36.9
			c7.1-1.3,13.9,3.5,15.2,10.6l41.3,227.6C431.4,437.4,426.6,444.2,419.5,445.5z"/>
		<path class="st1" d="M631.3,229.4l-200.7-47.8c-7-1.6-14.1,2.7-15.8,9.7l-0.7,2.6l30.5,230.1l132.7,31.6c7,1.6,14.1-2.7,15.8-9.7
			L641,245.1C642.7,238.2,638.3,231.1,631.3,229.4z"/>
		<path class="st1" d="M641.9,185l-75-13.5l-39.8-7.1L438,147.7c-23.7-2.6-20.5,16.7-20.5,16.7l-8.4,37.2l0.7,5.8L454.7,464
			c5.8,23.7-16.7,28.9-16.7,28.9L575.2,518c23.7,8.4,28.9-12.2,28.9-12.2l56.4-281.6l2-8.9C665.6,188.3,641.9,185,641.9,185z
			 M623.9,267.1c-5.8,0-10.2,0.7-12.9,1.3c-2.6,1.3-5.8,3.2-8.4,5.8l-68.6,78.2l-8.9,51.3c-2,10.9-1.3,18,2,21.8
			c2.6,2.6,8.9,5.8,19.3,8.4l-1.3,7.1l-96.8-17.3l1.3-7.1c10.9,0.7,18,0.7,21.1-1.3c4.5-2.6,7.7-8.9,9.6-19.9l7.1-41.1l-34.6-101.9
			c-1.3-3.2-2-5.8-2.6-6.4c-3.8-7.1-9.6-11.5-17.3-12.9l1.3-7.1l93.7,16.7l-1.3,7.1c-9.6-2-16-2.6-18.6-1.3
			c-3.2,0.7-4.5,3.2-5.1,7.1c0,2,0,4.5,1.3,8.4c1.3,3.8,2,7.1,2.6,8.4l21.8,70.6l40.4-46.2c2.6-3.2,5.8-6.4,8.4-10.2
			c4.5-6.4,7.1-10.9,7.7-14.2c0.7-5.1-0.7-8.4-4.5-10.9c-3.8-2.6-9.6-4.5-16.7-5.8l1.3-7.1l61.5,10.9L623.9,267.1z"/>
		<path class="st1" d="M442.5,459.5l-44.2-245l-9.6-52c-2-9.6-10.9-16-21.1-14.7l-209.8,38.4c-9.6,2-16,10.9-14.7,21.1l16,84.6
			l8.9,51.3l7.1,40.4l2,9.6l19.9,111c2,9.6,10.9,16.7,21.1,14.7l100.6-18.6l109-19.9C438,478.8,444.4,469.2,442.5,459.5z
			 M332.8,426.1l-1.3-7.1c8.9-1.3,14.7-2.6,17.3-3.8c2.6-1.3,3.8-3.2,3.8-5.8c-0.7-2.6-3.2-6.4-8.9-10.9l-43-38.4
			c-2.6,14.2-3.8,28.2-3.8,43c0,6.4,0.7,12.2,0.7,18.6c3.8,0.7,8.9,0.7,15.4,0.7l1.3,7.1l-15.4,2.6L220,445.6l-0.7-7.1
			c8.9-2.6,14.7-5.1,17.3-7.1c3.8-3.2,5.1-8.9,3.8-17.3l-10.2-58.4l-9.6-55.8l-3.8-21.1c-1.3-6.4-3.2-10.9-6.4-13.5
			c-3.8-3.2-10.9-3.8-21.1-2l-1.3-7.1l94.3-16l1.3,7.1c-8.9,1.3-14.7,3.8-17.3,6.4c-3.8,4.5-4.5,12.2-2.6,23.1l10.2,60.2l50-71.2
			c2.6-3.8,4.5-6.4,5.1-7.7c2-3.2,2.6-6.4,2-9.6c-0.7-3.2-2.6-5.8-5.8-6.4c-3.2-0.7-9.6-0.7-19.9,1.3l-1.3-7.1l80.8-13.5v1.3
			l1.3,5.8c-4.5,0.7-8.4,2-12.2,3.8c-25.7,22.4-45.5,50-59,81.5l96.2,84.6c2.6,2,4.5,3.2,6.4,3.8s5.1,0.7,7.7,0l1.3,7.1L332.8,426.1
			z"/>
	</g>
	<path class="st2" d="M638.6,181.6l-75-13.5l-39.8-7.1l-89.1-16.7c-23.7-2.6-20.5,16.7-20.5,16.7l-8.4,37.2l0.7,5.8l44.9,256.5
		c5.8,23.7-16.7,28.9-16.7,28.9L572,514.5c23.7,8.4,28.9-12.2,28.9-12.2l56.4-281.6l2-8.9C662.4,184.8,638.6,181.6,638.6,181.6z
		 M620.7,263.7c-5.8,0-10.2,0.7-12.9,1.3c-2.6,1.3-5.8,3.2-8.4,5.8L530.8,349l-8.9,51.3c-2,10.9-1.3,18,2,21.8
		c2.6,2.6,8.9,5.8,19.3,8.4l-1.3,7.1L445,420.3l1.3-7.1c10.9,0.7,18,0.7,21.1-1.3c4.5-2.6,7.7-8.9,9.6-19.9l7.1-41.1l-34.6-101.9
		c-1.3-3.2-2-5.8-2.6-6.4c-3.8-7.1-9.6-11.5-17.3-12.9l1.3-7.1l93.7,16.7l-1.3,7.1c-9.6-2-16-2.6-18.6-1.3c-3.2,0.7-4.5,3.2-5.1,7.1
		c0,2,0,4.5,1.3,8.4c1.3,3.8,2,7.1,2.6,8.4l21.8,70.6l40.4-46.2c2.6-3.2,5.8-6.4,8.4-10.2c4.5-6.4,7.1-10.9,7.7-14.2
		c0.7-5.1-0.7-8.4-4.5-10.9c-3.8-2.6-9.6-4.5-16.7-5.8l1.3-7.1l61.5,10.9L620.7,263.7z"/>
	<path class="st3" d="M439.2,456.1l-44.2-245l-9.6-52c-2-9.6-10.9-16-21.1-14.7l-209.7,38.4c-9.6,2-16,10.9-14.7,21.1l15.9,84.6
		l8.9,51.3l7.1,40.4l2,9.6l19.9,111c2,9.6,10.9,16.7,21.1,14.7L315.5,497l109-19.9C434.7,475.4,441.2,465.7,439.2,456.1z
		 M329.5,422.8l-1.3-7.1c8.9-1.3,14.7-2.6,17.3-3.8c2.6-1.3,3.8-3.2,3.8-5.8c-0.7-2.6-3.2-6.4-8.9-10.9l-43-38.4
		c-2.6,14.2-3.8,28.2-3.8,43c0,6.4,0.7,12.2,0.7,18.6c3.8,0.7,8.9,0.7,15.4,0.7l1.3,7.1l-15.4,2.6l-78.9,13.5l-0.7-7.1
		c8.9-2.6,14.7-5.1,17.3-7.1c3.8-3.2,5.1-8.9,3.8-17.3l-10.2-58.4l-9.6-55.8l-3.8-21.1c-1.3-6.4-3.2-10.9-6.4-13.5
		c-3.8-3.2-10.9-3.8-21.1-2l-1.3-7.1l94.3-16l1.3,7.1c-8.9,1.3-14.7,3.8-17.3,6.4c-3.8,4.5-4.5,12.2-2.6,23.1l10.2,60.2l50-71.2
		c2.6-3.8,4.5-6.4,5.1-7.7c2-3.2,2.6-6.4,2-9.6c-0.7-3.2-2.6-5.8-5.8-6.4c-3.2-0.7-9.6-0.7-19.9,1.3l-1.3-7.1l80.8-13.5v1.3l1.3,5.8
		c-4.5,0.7-8.4,2-12.2,3.8c-25.7,22.4-45.5,50-59,81.5l96.2,84.6c2.6,2,4.5,3.2,6.4,3.8c2,0.7,5.1,0.7,7.7,0l1.3,7.1L329.5,422.8z"
		/>
</g>
<g>
	<path class="st1" d="M129.8,601.9v-17H160V553h-23v-17h116.3v17h-20.8v31.9h26.3v17h-26.3v52.7h-18.6v-52.7h-35.1
		c-1.1,11.4-2.7,20.3-4.9,26.9c-4,10.9-13.1,20.5-27.4,28.5c-2.5-2.5-6.9-6.2-13.1-10.9c-1.5-1.1-2.5-2-3.3-2.7
		c13.1-6.2,21.6-13.6,25.2-22c1.8-4.4,3.3-10.9,4.4-19.8L129.8,601.9L129.8,601.9z M178.6,553.1V585h35.1v-31.9H178.6z"/>
	<path class="st1" d="M381,615.1c7.7,3.3,13.7,5.5,18.1,6.6c-1.1,6.6-2.7,13.6-4.9,20.8c-2.9,8-9.7,12.1-20.3,12.1h-13.1
		c-13.6,0-20.3-6.2-20.3-18.6v-43.3h-19.1c-1.1,31.1-13.7,52.3-37.9,63.6c-3.3-3.7-8.1-8.4-14.3-14.3c21.6-9.9,32.9-26.3,34-49.4
		h-32.3v-18.1H398v18.1h-38.9v36.8c0,6.2,2.7,9.4,8.2,9.4h4.4c3.3,0,5.5-2,6.6-6c0-1.1,0.2-2.7,0.5-4.9
		C379.9,622.6,380.7,618.4,381,615.1z M281.7,554.2v-18.1h105.4v18.1H281.7z"/>
	<path class="st1" d="M412.8,569v-17.6h12.6V529h15.4v22.5h11.6V569h-11.6v10.4l4.9-4.4c1.1,1.5,2.5,3.9,4.4,7.1
		c3.3,6.2,5.9,10.8,7.7,13.7l-11.6,8.7c-2.5-5.2-4.4-8.9-5.5-11.6v63.1h-15.4v-47.7c-3.3,7.7-6.7,14.8-10.4,21.3
		c-1.1-8.7-2.5-16.8-4.4-24.2c6.2-10.2,11.1-22,14.8-35.1v-1.7h-12.6V569z M450.2,630.4v-15.4h12.1V558h-8.2v-14.8h8.2v-14.3h17
		v14.3h31.2v-14.3H527v14.3h9.4V558H527v57.1h12.6v15.4h-20.8c1.8,1.1,4.9,2.9,9.4,5.5c5.5,3.3,9.7,5.7,12.6,7.1l-9.9,14.3
		c-10.6-7.4-20.3-13.6-29.1-18.6l7.1-8.2h-29.1l7.1,8.7c-9.5,5.9-19.6,12.1-30.2,18.6c-3.7-5.5-7.5-10.2-11.6-14.3
		c9.1-4.4,17-8.7,23.6-13.1H450.2z M479.2,558.1v9.9h31.3v-9.9H479.2z M479.2,581.6v9.9h31.3v-9.9H479.2z M479.2,605.2v9.9h31.3
		v-9.9H479.2z"/>
	<path class="st1" d="M581.3,569v-38.9h14.8V569h5.5v14.8h-29.1V597H596v58.7h-14.3v-43.8h-9.4c-0.7,17.2-3.7,32.2-8.7,45
		c-0.7-0.4-1.7-1.1-2.7-2.2c-2.9-2.2-6.6-5.2-10.9-8.7c5.2-10.6,7.7-27.8,7.7-51.5V533h14.8v36.2h8.8V569z M641,617.8v-13.1h17v13.1
		h21.3v15.4H658v22.5h-17v-22.5h-42.2v-15.4h16.5c-1.1-0.7-2.5-2-4.4-3.9c-1.5-1.5-2.7-2.5-3.9-3.3c5.9-2.5,10.4-6,13.7-10.4h-16.5
		v-60.9h17.6c1.1-4,2-7.9,2.7-11.6l19.2,2.2c0,0.4-0.2,1.1-0.5,2.2c-0.7,1.5-1.5,3.9-2.2,7.1h34v60.9h-35.1
		c-3.7,6.6-8.7,12.4-15.4,17.6L641,617.8L641,617.8z M620.2,553.1v10.4h12.1v-10.4H620.2z M631.8,575.6h-11.6v10.9h9.4
		C631,583.3,631.8,579.6,631.8,575.6z M645.4,586.6h14.3v-10.9h-13.1C646.6,579.6,646.2,583.3,645.4,586.6z M659.7,563.6v-10.4
		h-12.6v10.4H659.7z"/>
</g>
<g>
	<path class="st4" d="M125.3,597.1v-17h30.2v-31.9h-23v-17h116.3v17h-20.8v31.9h26.3v17h-26.3v52.7h-18.6v-52.7h-35.2
		c-1.1,11.4-2.7,20.3-4.9,26.9c-4,10.9-13.1,20.5-27.4,28.5c-2.5-2.5-6.9-6.2-13.1-10.9c-1.5-1.1-2.5-2-3.3-2.7
		c13.1-6.2,21.6-13.6,25.2-22c1.8-4.4,3.3-10.9,4.4-19.8L125.3,597.1L125.3,597.1z M174.1,548.2v31.9h35.1v-31.9H174.1L174.1,548.2z
		"/>
	<path class="st4" d="M376.6,610.2c7.7,3.3,13.7,5.5,18.1,6.6c-1.1,6.6-2.7,13.6-4.9,20.8c-2.9,8-9.7,12.1-20.3,12.1h-13.1
		c-13.6,0-20.3-6.2-20.3-18.6v-43.4h-19.2c-1.1,31.1-13.7,52.3-37.9,63.6c-3.3-3.7-8.1-8.4-14.3-14.3c21.6-9.9,32.9-26.3,34-49.4
		h-32.4v-18.1h127.2v18.2h-38.9v36.8c0,6.2,2.7,9.4,8.2,9.4h4.4c3.3,0,5.5-2,6.6-6c0-1.1,0.2-2.7,0.5-4.9
		C375.4,617.7,376.2,613.5,376.6,610.2z M277.2,549.4v-18.1h105.4v18.1H277.2z"/>
	<path class="st4" d="M408.3,564.2v-17.6h12.6v-22.5h15.4v22.5h11.6v17.6h-11.6v10.4l4.9-4.4c1.1,1.5,2.5,3.9,4.4,7.1
		c3.3,6.2,5.9,10.8,7.7,13.7l-11.6,8.7c-2.5-5.2-4.4-8.9-5.5-11.6v63.1h-15.4v-47.7c-3.3,7.7-6.7,14.8-10.4,21.3
		c-1.1-8.7-2.5-16.8-4.4-24.2c6.2-10.2,11.1-22,14.8-35.1v-1.7h-12.6V564.2z M445.7,625.6v-15.4h12.1v-57.1h-8.2v-14.8h8.2V524h17
		v14.3H506V524h16.5v14.3h9.4v14.8h-9.4v57.1h12.6v15.4h-20.8c1.8,1.1,4.9,2.9,9.4,5.5c5.5,3.3,9.7,5.7,12.6,7.1l-9.9,14.3
		c-10.6-7.4-20.3-13.6-29.1-18.6l7.1-8.2h-29.1l7.1,8.7c-9.5,5.9-19.6,12.1-30.2,18.6c-3.7-5.5-7.5-10.2-11.6-14.3
		c9.1-4.4,17-8.7,23.6-13.1H445.7z M474.7,553.1v9.9h31.2v-9.9H474.7z M474.7,576.8v9.9h31.2v-9.9H474.7z M474.7,600.4v9.9h31.2
		v-9.9H474.7z"/>
	<path class="st4" d="M576.8,564.2v-38.9h14.8v38.9h5.5V579h-29.1v13.1h23.6v58.7h-14.3V607h-9.4c-0.7,17.2-3.7,32.2-8.7,45
		c-0.7-0.4-1.7-1.1-2.7-2.2c-2.9-2.2-6.6-5.2-10.9-8.7c5.2-10.6,7.7-27.8,7.7-51.5v-61.4h14.8v36.2h8.8V564.2z M636.5,613v-13.1h17
		V613h21.3v15.4h-21.3v22.5h-17v-22.5h-42.3V613h16.5c-1.1-0.7-2.5-2-4.4-3.9c-1.5-1.5-2.7-2.5-3.9-3.3c5.9-2.5,10.4-6,13.7-10.4
		h-16.5v-60.9h17.6c1.1-4,2-7.9,2.7-11.6l19.2,2.2c0,0.4-0.2,1.1-0.5,2.2c-0.7,1.5-1.5,3.9-2.2,7.1h34v60.9h-35.1
		c-3.7,6.6-8.7,12.4-15.4,17.6H636.5z M615.7,548.2v10.4h12.1v-10.4H615.7z M627.2,570.7h-11.6v10.9h9.4
		C626.5,578.4,627.2,574.7,627.2,570.7z M640.9,581.6h14.3v-10.9h-13.1C642.1,574.7,641.6,578.4,640.9,581.6z M655.2,558.6v-10.4
		h-12.6v10.4H655.2z"/>
</g>
</svg>
