<?xml version="1.0" encoding="utf-8"?>
<!-- Generator: Adobe Illustrator 18.1.1, SVG Export Plug-In . SVG Version: 6.00 Build 0)  -->
<svg version="1.1" id="图层_1" xmlns="http://www.w3.org/2000/svg" xmlns:xlink="http://www.w3.org/1999/xlink" x="0px" y="0px"
	 viewBox="0 0 150 150" enable-background="new 0 0 150 150" xml:space="preserve">

<style type="text/css">
	path{fill:#c6ae6b;}
</style>
<g>
	<path fill="#fff" d="M110.3,52.5l-11.7-2.1l-6.2-1.1l-13.9-2.6c-3.7-0.4-3.2,2.6-3.2,2.6L74,55.1l0.1,0.9l7,40
		c0.9,3.7-2.6,4.5-2.6,4.5l21.4,3.9c3.7,1.3,4.5-1.9,4.5-1.9l8.8-43.9l0.3-1.4C114,53,110.3,52.5,110.3,52.5z M107.5,65.3
		c-0.9,0-1.6,0.1-2,0.2c-0.4,0.2-0.9,0.5-1.3,0.9L93.5,78.6l-1.4,8c-0.3,1.7-0.2,2.8,0.3,3.4c0.4,0.4,1.4,0.9,3,1.3l-0.2,1.1
		l-15.1-2.7l0.2-1.1c1.7,0.1,2.8,0.1,3.3-0.2c0.7-0.4,1.2-1.4,1.5-3.1l1.1-6.4L80.8,63c-0.2-0.5-0.3-0.9-0.4-1
		c-0.6-1.1-1.5-1.8-2.7-2l0.2-1.1l14.6,2.6l-0.2,1.1c-1.5-0.3-2.5-0.4-2.9-0.2c-0.5,0.1-0.7,0.5-0.8,1.1c0,0.3,0,0.7,0.2,1.3
		c0.2,0.6,0.3,1.1,0.4,1.3l3.4,11l6.3-7.2c0.4-0.5,0.9-1,1.3-1.6c0.7-1,1.1-1.7,1.2-2.2c0.1-0.8-0.1-1.3-0.7-1.7
		c-0.6-0.4-1.5-0.7-2.6-0.9l0.2-1.1l9.6,1.7L107.5,65.3z"/>
	<path fill="#fff" d="M79.2,95.3l-6.9-38.2L70.8,49c-0.3-1.5-1.7-2.5-3.3-2.3l-32.7,6c-1.5,0.3-2.5,1.7-2.3,3.3L35,69.2l1.4,8
		l1.1,6.3l0.3,1.5l3.1,17.3c0.3,1.5,1.7,2.6,3.3,2.3l15.7-2.9l17-3.1C78.5,98.3,79.5,96.8,79.2,95.3z M62.1,90.1L61.9,89
		c1.4-0.2,2.3-0.4,2.7-0.6c0.4-0.2,0.6-0.5,0.6-0.9c-0.1-0.4-0.5-1-1.4-1.7l-6.7-6c-0.4,2.2-0.6,4.4-0.6,6.7c0,1,0.1,1.9,0.1,2.9
		c0.6,0.1,1.4,0.1,2.4,0.1l0.2,1.1L56.8,91l-12.3,2.1L44.4,92c1.4-0.4,2.3-0.8,2.7-1.1c0.6-0.5,0.8-1.4,0.6-2.7l-1.6-9.1l-1.5-8.7
		L44,67.1c-0.2-1-0.5-1.7-1-2.1c-0.6-0.5-1.7-0.6-3.3-0.3l-0.2-1.1l14.7-2.5l0.2,1.1c-1.4,0.2-2.3,0.6-2.7,1
		c-0.6,0.7-0.7,1.9-0.4,3.6l1.6,9.4l7.8-11.1c0.4-0.6,0.7-1,0.8-1.2c0.3-0.5,0.4-1,0.3-1.5c-0.1-0.5-0.4-0.9-0.9-1
		c-0.5-0.1-1.5-0.1-3.1,0.2l-0.2-1.1l12.6-2.1l0,0.2l0.2,0.9c-0.7,0.1-1.3,0.3-1.9,0.6c-4,3.5-7.1,7.8-9.2,12.7L74.3,86
		c0.4,0.3,0.7,0.5,1,0.6c0.3,0.1,0.8,0.1,1.2,0l0.2,1.1L62.1,90.1z"/>
</g>
</svg>
