<?xml version="1.0" encoding="utf-8"?>
<!-- Generator: Adobe Illustrator 21.1.0, SVG Export Plug-In . SVG Version: 6.00 Build 0)  -->
<svg version="1.1" id="图层_1" xmlns="http://www.w3.org/2000/svg" xmlns:xlink="http://www.w3.org/1999/xlink" x="0px" y="0px"
	 viewBox="0 0 880 896.3" style="enable-background:new 0 0 880 896.3;" xml:space="preserve">
<style type="text/css">
	.st0{fill:#EA563D;}
	.st1{fill:#9D2C19;}
	.st2{fill:#FFFFFF;}
	.st3{opacity:0.75;}
	.st4{fill:#33B3D1;}
	.st5{fill:#4CB052;}
	.st6{fill:#F9F63A;}
	.st7{fill:#E82209;}
	.st8{fill:#93D4AC;}
	.st9{fill:#F12891;}
</style>
<path class="st0" d="M533.7,886C771,833.3,921.5,594.6,869.8,352.8S583.7-42.3,346.3,10.4S-41.5,301.8,10.2,543.6
	S296.3,938.6,533.7,886z"/>
<ellipse class="st1" cx="409.1" cy="431" rx="371.8" ry="384"/>
<ellipse class="st0" cx="384.6" cy="407.7" rx="331.8" ry="342.6"/>
<path class="st2" d="M583.4,428.5c1.1,0,1.9-0.9,1.9-1.9v-17.2c0-1.1-0.9-1.9-1.9-1.9h-2.7c-1.5,0-2.6-0.3-3.4-0.9
	c-0.3-0.3-1-1.5-1.9-7.8l-4.1-33.4c-0.1-1-0.9-1.7-1.9-1.7H551c-0.5,0-1.1,0.2-1.4,0.6c-0.4,0.4-0.5,0.9-0.5,1.5l4.4,40.9
	c1,9.9,3.4,16.2,7.1,18.5c3.4,2.2,7.3,3.4,11.5,3.4v0L583.4,428.5L583.4,428.5z"/>
<g>
	<g class="st3">
		<path class="st1" d="M305.9,435.2c1.1,0,1.9-0.9,1.9-1.9v-20.4c0-1.1-0.9-1.9-1.9-1.9h-15.1c-2.5,0-4.2-0.6-5.2-1.9
			c-0.6-0.8-1.7-3.2-1.7-9.7v-76.8c0-1.1-0.9-1.9-1.9-1.9l-23.9-0.1c-0.5,0-1,0.2-1.4,0.6c-0.4,0.4-0.6,0.9-0.6,1.4l0,82.6
			c0,6.5,0.6,13,1.7,18.7c0.9,5.2,4.8,11.3,18.6,11.3v0L305.9,435.2L305.9,435.2z"/>
		<path class="st1" d="M155.5,313.9h151.1c1.1,0,1.9-0.9,1.9-1.9v-20.6c0-1.1-0.9-1.9-1.9-1.9H155.5c-1.1,0-1.9,0.9-1.9,1.9V312
			C153.6,313,154.5,313.9,155.5,313.9z"/>
		<path class="st1" d="M574.4,453.2v-9.5c0-1.1-0.9-1.9-1.9-1.9H101.7c-1.1,0-1.9,0.9-1.9,1.9v9.5c0,1.1,0.9,1.9,1.9,1.9h470.7
			C573.5,455.2,574.4,454.3,574.4,453.2z"/>
		<path class="st1" d="M154.5,435.1L154.5,435.1l28.7,0c13.7,0,17.7-6.1,18.6-11.1c1.2-6.3,1.8-12.5,1.8-18.3v-83.1
			c0-0.5-0.2-1-0.6-1.4c-0.4-0.4-0.9-0.6-1.4-0.6l-23.9,0.1c-1.1,0-1.9,0.9-1.9,1.9v76.8c0,6.5-1.1,8.8-1.8,9.6
			c-1,1.3-2.7,1.9-5.1,1.9c0,0-14.5-0.2-14.5-0.2c-0.5,0-1,0.2-1.4,0.6c-0.4,0.4-0.6,0.9-0.6,1.4v20.6
			C152.6,434.3,153.5,435.1,154.5,435.1z"/>
		<path class="st1" d="M228.6,282.7c13.1,0,23.8-10.7,23.8-23.9c0-13.2-10.7-23.9-23.8-23.9c-13.1,0-23.8,10.7-23.8,23.9
			S215.5,282.7,228.6,282.7z"/>
		<path class="st1" d="M497.1,305.3L497.1,305.3l72.4,0c0.5,0,11.1,0,12.5-0.8c3.2-1.3,5.9-3.9,7.3-7c1.5-3.3,2.2-6.9,2.2-10.5
			l0-8.5c0-1.1-0.9-1.9-1.9-1.9h-19.4c-1.1,0-1.9,0.9-1.9,1.9v2c0,1.5-0.2,2-0.1,2c0,0,0,0,0,0c-0.8,0.4-1.6,0.7-2.5,0.7l-0.5,0h-68
			c-1.1,0-1.9,0.9-1.9,1.9v18.4C495.1,304.5,496,305.3,497.1,305.3z"/>
		<path class="st1" d="M476.6,354.7v-17.7c0-1.1-0.9-1.9-1.9-1.9H326.2c-1.1,0-1.9,0.9-1.9,1.9v17.7c0,1.1,0.9,1.9,1.9,1.9h148.5
			C475.7,356.6,476.6,355.7,476.6,354.7z"/>
		<path class="st1" d="M793.8,538.1l-26.2-32.5l26-32.7c0.5-0.6,0.5-1.4,0.2-2s-1-1.1-1.7-1.1h-20.4c-0.6,0-1.1,0.3-1.5,0.7
			l-18.6,23.1l-18.5-23c-0.4-0.5-0.9-0.7-1.5-0.7h-20.5c-0.7,0-1.4,0.4-1.7,1.1c-0.3,0.7-0.2,1.5,0.2,2l25.8,32.4l-25.2,31.9
			c-0.4,0.4-0.7,0.9-0.7,1.5v0.1c0,0.8,0.6,1.5,1.3,1.8c0.2,0.1,0.4,0.1,0.6,0.1c0.1,0,0.2,0,0.3,0h20c0.6,0,1.1-0.3,1.5-0.7
			l18.3-22.8l18.6,23.3c0.4,0.5,0.9,0.7,1.5,0.7v0h20.6c0.7,0,1.4-0.4,1.7-1.1C794.3,539.5,794.2,538.7,793.8,538.1z"/>
		<path class="st1" d="M500.1,337.2c2,1.7,4.7,2.7,7.3,2.7l18.2,0c1.1,0,1.9-0.9,1.9-1.9v-16.1c0-1.1-0.9-1.9-1.9-1.9h-6.4
			c-1.5,0-1.9-0.3-1.9-0.3h0c-0.1-0.1-0.3-0.8-0.3-3.4v-6.8c0-1.1-0.9-1.9-1.9-1.9H497c-1.1,0-1.9,0.9-1.9,1.9l0,8.8
			c0,3.6,0.3,7.1,0.9,10.3C496.7,332.7,498.1,335.5,500.1,337.2z"/>
		<path class="st1" d="M325.4,330.7l9.3,0c0.6,0,1.2,0.1,1.8,0.1c1,0,2-0.1,2.8-0.1c0,0,0.1,0,0.1,0c0.3,0.2,0.7,0.3,1.1,0.3
			c0.2,0,0.4,0,0.5-0.1c5.1-1.5,9.4-4.6,12.7-8.9l15.1-21.1h65.8l9.2,16.2c1.3,4.2,4,7.8,8,10.3c3.1,1.4,6.4,2.1,9.8,2.1
			c0.4,0,0.8,0,1,0H475c1.1,0,1.9-0.9,1.9-1.9v-18c0-1.1-0.9-1.9-1.9-1.9l-5.4,0l-0.5,0c-0.7,0-1.3-0.1-1.8-0.1
			c-0.2,0-0.4-0.1-0.6-0.1c-1.3-0.8-2.2-2-2.9-3.5l-11.3-23.8c-0.2-0.8-1-1.4-1.8-1.4h-98.1c-0.7,0-1.3,0.4-1.6,0.9l-11.4,18.9
			c-3.5,5.7-5.3,7.3-6.1,7.8c-1.4,0.8-3.1,1.2-5.1,1.2h-3c-1.1,0-1.9,0.9-1.9,1.9v19.2c0,0.5,0.2,1,0.6,1.4
			C324.4,330.5,324.9,330.7,325.4,330.7z"/>
		<path class="st1" d="M471.6,364.8H329c-1.1,0-1.9,0.9-1.9,1.9v65.7c0,1.1,0.9,1.9,1.9,1.9v0h122.1c10.7,0,16.8-2.2,18.7-6.6
			c2.5-5,3.8-10.3,3.8-15.9c0-0.6,0-1.1,0-1.5v-43.5C473.5,365.6,472.7,364.8,471.6,364.8z M354.6,409.7v-23.4h91.1V406
			c0,2.7-1,3.8-3.5,3.8L354.6,409.7L354.6,409.7z"/>
		<path class="st1" d="M698.3,360.4c-0.4,0-0.8,0.1-1.2,0.4l-113.9,90.9c-0.5,0.4-0.7,0.9-0.7,1.5c0,0.6,0.3,1.1,0.7,1.5l41,32.9
			L542,626c-0.5,0.8-0.3,1.9,0.5,2.5c0.3,0.3,0.7,0.4,1.1,0.4c0.5,0,1.1-0.2,1.4-0.6l128.8-143.7c0.3-0.4,0.5-0.9,0.5-1.4
			c0-0.5-0.3-1-0.7-1.3l-37.3-31.3l63.4-87c0.6-0.8,0.5-1.9-0.2-2.5C699.3,360.6,698.8,360.4,698.3,360.4z"/>
		<path class="st1" d="M422.4,510.8c1.6-1.9,2.6-4.2,2.9-6.4c0.5-3,0.7-6.1,0.7-9.2c0-2.4,0-4.1-0.2-5.1c-0.2-3.5-1.2-7.3-2.1-8.7
			c-1.3-3.6-4.1-6.7-7.6-8.4c-3.7-1.5-7.6-2.3-11.6-2.3c-0.5,0-1,0-1.4,0l-51.2,0c-1.1,0-1.9,0.9-1.9,1.9v66.5
			c0,1.1,0.9,1.9,1.9,1.9v0H368c1.1,0,1.9-0.9,1.9-1.9v-15h28.8c0.9,0,1.6,0.2,1.9,0.3c0.1,0.1,0.3,0.2,0.4,0.3
			c1.3,0.6,2.4,1.6,3.1,2.7c0.5,1.2,0.8,2.4,0.8,4v7.6c0,1.1,0.9,1.9,1.9,1.9h16.7c1.1,0,1.9-0.9,1.9-1.9v-13.4c0-0.5,0-1.4-0.3-2.2
			c-0.8-3.4-2.8-6.4-5.8-8.5c0,0-1.2-0.8-1.7-1.1C419.9,513.1,421.7,511.7,422.4,510.8z M370,489.9l27.1,0l0.6,0
			c1.2,0,2.3,0.2,2.7,0.3c0.1,0,0.1,0.1,0.2,0.1c1.3,0.5,2.5,1.5,3.2,2.7c0.7,1.3,1,3.2,0.9,5.6c-0.2,3.4-0.6,4.2-0.7,4.4
			c-0.4,0.6-0.9,1-1.7,1.3c-0.4,0.2-1.6,0.6-5.1,0.6H370L370,489.9L370,489.9z"/>
		<path class="st1" d="M592.3,348.3c0-1.1-0.9-1.9-1.9-1.9h-34.5v-5.2c0-0.4-0.2-0.8-0.4-1.2h2.6c1.1,0,1.9-0.9,1.9-1.9v-15.2
			c0-1.1-0.9-1.9-1.9-1.9h-6.5c-1.4,0-1.9-0.3-2-0.3l0,0c0-0.1-0.4-0.8-0.4-3.3v-7.7c0-1.1-0.9-1.9-1.9-1.9h-17
			c-1.1,0-1.9,0.9-1.9,1.9l0,7.5c0,4.9,0.5,9.8,1.5,14.2c0.6,3,2.3,6.5,6.6,8h-2.6c-1.1,0-1.9,0.9-1.9,1.9v5.2h-34.9
			c-1.1,0-1.9,0.9-1.9,1.9v19.2c0,1.1,0.9,1.9,1.9,1.9H532v2.8c-0.3-0.2-0.6-0.3-1-0.3h-18.3c-0.9,0-1.8,0.7-1.9,1.6l-4.7,30.5
			c-0.1,3.5-0.8,7-1.9,9.8c-0.6,1.1-1,1.5-0.9,1.5h0c-0.9,0.3-1.9,0.4-2.9,0.4l-0.7,0h-2.6c-1.1,0-1.9,0.9-1.9,1.9v17.2
			c0,1.1,0.9,1.9,1.9,1.9v0h7.8c6.6,0,11.4-1.1,14.6-3.4c3.4-2.4,5.8-9.1,7.7-21.3l4.8-31.8v53.4c0,1.1,0.9,1.9,1.9,1.9h20
			c1.1,0,1.9-0.9,1.9-1.9v-64.2h34.5c1.1,0,1.9-0.9,1.9-1.9V348.3z"/>
		<path class="st1" d="M239.1,469.8h-27.4c-0.7,0-1.4,0.4-1.7,1.1l-19.2,41L171.2,471c-0.3-0.7-1-1.1-1.7-1.1h-27.7
			c-1.1,0-1.9,0.9-1.9,1.9v67.1c0,1.1,0.9,1.9,1.9,1.9l0,0h16.1c1.1,0,1.9-0.9,1.9-1.9v-43.6l21.6,44.4c0.3,0.7,1,1.1,1.7,1.1h14
			c0.7,0,1.4-0.4,1.7-1.1l22.1-44.5v43.6c0,1.1,0.9,1.9,1.9,1.9h16.2c1.1,0,1.9-0.9,1.9-1.9v-67.2
			C241,470.7,240.2,469.8,239.1,469.8z"/>
		<path class="st1" d="M483.6,504.2l30.3-31c0.5-0.6,0.7-1.4,0.4-2.1c-0.3-0.7-1-1.2-1.8-1.2h-21.9c-0.5,0-1,0.2-1.4,0.6L464.4,495
			h-7.8v-23.1c0-1.1-0.9-1.9-1.9-1.9h-16.1c-1.1,0-1.9,0.9-1.9,1.9V539c0,1.1,0.9,1.9,1.9,1.9h16.1c1.1,0,1.9-0.9,1.9-1.9v-24.8h7.5
			l27.7,26.2c0.4,0.3,0.8,0.5,1.3,0.5l0,0h23.3c0.8,0,1.5-0.5,1.8-1.2c0.3-0.7,0.1-1.6-0.4-2.1L483.6,504.2z"/>
		<path class="st1" d="M697.1,469.7H681c-1.1,0-1.9,0.9-1.9,1.9v66.8c0,1.1,0.9,1.9,1.9,1.9h16.1c1.1,0,1.9-0.9,1.9-1.9v-66.8
			C699,470.6,698.2,469.7,697.1,469.7z"/>
		<path class="st1" d="M630.1,372.2l-34.6,54.4c-0.5,0.8-0.4,1.9,0.4,2.5c0.4,0.3,0.8,0.5,1.3,0.5c0.4,0,0.9-0.2,1.3-0.5l75.3-65.3
			c0.4-0.4,0.7-0.9,0.7-1.5c0-0.6-0.3-1.1-0.7-1.5l-33.9-27.6l45.3-83.8c0.5-0.9,0.2-1.9-0.6-2.5c-0.3-0.2-0.7-0.4-1.1-0.4
			c-0.5,0-1,0.2-1.4,0.6l-86.7,92.5c-0.4,0.4-0.5,0.9-0.5,1.4c0,0.5,0.3,1,0.7,1.4L630.1,372.2z"/>
		<path class="st1" d="M573.2,307.6c-1.1,0-1.9,0.9-1.9,1.9v5.3c0,3.7-0.3,4.7-0.3,4.8c-0.2,0.1-0.8,0.4-2,0.4h-5.7
			c-1.1,0-1.9,0.9-1.9,1.9v15.4c0,1.1,0.9,1.9,1.9,1.9h16.1c5.8,0,12.7-3,12.7-17.3v-12.4c0-1.1-0.9-1.9-1.9-1.9H573.2z"/>
		<path class="st1" d="M309.5,469.9c-0.3-0.7-1-1.1-1.7-1.1h-24.3c-0.7,0-1.4,0.4-1.7,1.1l-32.1,68c-0.3,0.6-0.2,1.3,0.1,1.9
			s1,0.9,1.6,0.9l0,0h18.4c0.8,0,1.4-0.4,1.7-1.1l5.7-12.4h37.3l6,12.4c0.3,0.7,1,1.1,1.7,1.1h18.2c0.7,0,1.3-0.3,1.6-0.9
			c0.4-0.6,0.4-1.3,0.1-1.9L309.5,469.9z M285.1,510.5l10.8-22.4l10.7,22.4H285.1z"/>
		<path class="st1" d="M191.7,636c-17.2,0-31.2,14-31.2,31.2s14,31.2,31.2,31.2s31.2-14,31.2-31.2S208.9,636,191.7,636z"/>
		<path class="st1" d="M280.7,636c-17.2,0-31.2,14-31.2,31.2s14,31.2,31.2,31.2c17.2,0,31.2-14,31.2-31.2S297.9,636,280.7,636z"/>
		<path class="st1" d="M376.6,636c-17.2,0-31.2,14-31.2,31.2s14,31.2,31.2,31.2s31.2-14,31.2-31.2S393.8,636,376.6,636z"/>
		<path class="st1" d="M465.7,636c-17.2,0-31.2,14-31.2,31.2s14,31.2,31.2,31.2s31.2-14,31.2-31.2S482.9,636,465.7,636z"/>
		<path class="st1" d="M566.7,636c-17.2,0-31.2,14-31.2,31.2s14,31.2,31.2,31.2c17.2,0,31.2-14,31.2-31.2S583.9,636,566.7,636z"/>
		<path class="st1" d="M655.8,636c-17.2,0-31.2,14-31.2,31.2s14,31.2,31.2,31.2c17.2,0,31.2-14,31.2-31.2S673,636,655.8,636z"/>
	</g>
	<g>
		<g>
			<path class="st2" d="M298.9,428.2c1.1,0,1.9-0.9,1.9-1.9v-20.4c0-1.1-0.9-1.9-1.9-1.9h-15.1c-2.5,0-4.2-0.6-5.2-1.9
				c-0.6-0.8-1.7-3.2-1.7-9.7v-76.8c0-1.1-0.9-1.9-1.9-1.9l-23.9-0.1c-0.5,0-1,0.2-1.4,0.6c-0.4,0.4-0.6,0.9-0.6,1.4l0,82.6
				c0,6.5,0.6,13,1.7,18.7c0.9,5.2,4.8,11.3,18.6,11.3v0L298.9,428.2L298.9,428.2z"/>
			<path class="st2" d="M148.5,306.9h151.1c1.1,0,1.9-0.9,1.9-1.9v-20.6c0-1.1-0.9-1.9-1.9-1.9H148.5c-1.1,0-1.9,0.9-1.9,1.9V305
				C146.6,306,147.5,306.9,148.5,306.9z"/>
			<path class="st2" d="M567.4,446.2v-9.5c0-1.1-0.9-1.9-1.9-1.9H94.7c-1.1,0-1.9,0.9-1.9,1.9v9.5c0,1.1,0.9,1.9,1.9,1.9h470.7
				C566.5,448.2,567.4,447.3,567.4,446.2z"/>
			<path class="st2" d="M147.5,428.1L147.5,428.1l28.7,0c13.7,0,17.7-6.1,18.6-11.1c1.2-6.3,1.8-12.5,1.8-18.3v-83.1
				c0-0.5-0.2-1-0.6-1.4c-0.4-0.4-0.9-0.6-1.4-0.6l-23.9,0.1c-1.1,0-1.9,0.9-1.9,1.9v76.8c0,6.5-1.1,8.8-1.8,9.6
				c-1,1.3-2.7,1.9-5.1,1.9c0,0-14.5-0.2-14.5-0.2c-0.5,0-1,0.2-1.4,0.6c-0.4,0.4-0.6,0.9-0.6,1.4v20.6
				C145.6,427.3,146.5,428.1,147.5,428.1z"/>
			<path class="st2" d="M221.6,275.7c13.1,0,23.8-10.7,23.8-23.9c0-13.2-10.7-23.9-23.8-23.9c-13.1,0-23.8,10.7-23.8,23.9
				S208.5,275.7,221.6,275.7z"/>
			<path class="st2" d="M490.1,298.3L490.1,298.3l72.4,0c0.5,0,11.1,0,12.5-0.8c3.2-1.3,5.9-3.9,7.3-7c1.5-3.3,2.2-6.9,2.2-10.5
				l0-8.5c0-1.1-0.9-1.9-1.9-1.9h-19.4c-1.1,0-1.9,0.9-1.9,1.9v2c0,1.5-0.2,2-0.1,2c0,0,0,0,0,0c-0.8,0.4-1.6,0.7-2.5,0.7l-0.5,0
				h-68c-1.1,0-1.9,0.9-1.9,1.9v18.4C488.1,297.5,489,298.3,490.1,298.3z"/>
			<path class="st2" d="M469.6,347.7v-17.7c0-1.1-0.9-1.9-1.9-1.9H319.2c-1.1,0-1.9,0.9-1.9,1.9v17.7c0,1.1,0.9,1.9,1.9,1.9h148.5
				C468.7,349.6,469.6,348.7,469.6,347.7z"/>
			<path class="st2" d="M786.8,531.1l-26.2-32.5l26-32.7c0.5-0.6,0.5-1.4,0.2-2s-1-1.1-1.7-1.1h-20.4c-0.6,0-1.1,0.3-1.5,0.7
				l-18.6,23.1l-18.5-23c-0.4-0.5-0.9-0.7-1.5-0.7h-20.5c-0.7,0-1.4,0.4-1.7,1.1c-0.3,0.7-0.2,1.5,0.2,2l25.8,32.4l-25.2,31.9
				c-0.4,0.4-0.7,0.9-0.7,1.5v0.1c0,0.8,0.6,1.5,1.3,1.8c0.2,0.1,0.4,0.1,0.6,0.1c0.1,0,0.2,0,0.3,0h20c0.6,0,1.1-0.3,1.5-0.7
				l18.3-22.8l18.6,23.3c0.4,0.5,0.9,0.7,1.5,0.7v0h20.6c0.7,0,1.4-0.4,1.7-1.1C787.3,532.5,787.2,531.7,786.8,531.1z"/>
			<path class="st2" d="M493.1,330.2c2,1.7,4.7,2.7,7.3,2.7l18.2,0c1.1,0,1.9-0.9,1.9-1.9v-16.1c0-1.1-0.9-1.9-1.9-1.9h-6.4
				c-1.5,0-1.9-0.3-1.9-0.3h0c-0.1-0.1-0.3-0.8-0.3-3.4v-6.8c0-1.1-0.9-1.9-1.9-1.9H490c-1.1,0-1.9,0.9-1.9,1.9l0,8.8
				c0,3.6,0.3,7.1,0.9,10.3C489.7,325.7,491.1,328.5,493.1,330.2z"/>
			<path class="st2" d="M318.4,323.7l9.3,0c0.6,0,1.2,0.1,1.8,0.1c1,0,2-0.1,2.8-0.1c0,0,0.1,0,0.1,0c0.3,0.2,0.7,0.3,1.1,0.3
				c0.2,0,0.4,0,0.5-0.1c5.1-1.5,9.4-4.6,12.7-8.9l15.1-21.1h65.8l9.2,16.2c1.3,4.2,4,7.8,8,10.3c3.1,1.4,6.4,2.1,9.8,2.1
				c0.4,0,0.8,0,1,0H468c1.1,0,1.9-0.9,1.9-1.9v-18c0-1.1-0.9-1.9-1.9-1.9l-5.4,0l-0.5,0c-0.7,0-1.3-0.1-1.8-0.1
				c-0.2,0-0.4-0.1-0.6-0.1c-1.3-0.8-2.2-2-2.9-3.5l-11.3-23.8c-0.2-0.8-1-1.4-1.8-1.4h-98.1c-0.7,0-1.3,0.4-1.6,0.9l-11.4,18.9
				c-3.5,5.7-5.3,7.3-6.1,7.8c-1.4,0.8-3.1,1.2-5.1,1.2h-3c-1.1,0-1.9,0.9-1.9,1.9v19.2c0,0.5,0.2,1,0.6,1.4
				C317.4,323.5,317.9,323.7,318.4,323.7z"/>
			<path class="st2" d="M464.6,357.8H322c-1.1,0-1.9,0.9-1.9,1.9v65.7c0,1.1,0.9,1.9,1.9,1.9v0h122.1c10.7,0,16.8-2.2,18.7-6.6
				c2.5-5,3.8-10.3,3.8-15.9c0-0.6,0-1.1,0-1.5v-43.5C466.5,358.6,465.7,357.8,464.6,357.8z M347.6,402.7v-23.4h91.1V399
				c0,2.7-1,3.8-3.5,3.8L347.6,402.7L347.6,402.7z"/>
			<path class="st2" d="M691.3,353.4c-0.4,0-0.8,0.1-1.2,0.4l-113.9,90.9c-0.5,0.4-0.7,0.9-0.7,1.5c0,0.6,0.3,1.1,0.7,1.5l41,32.9
				L535,619c-0.5,0.8-0.3,1.9,0.5,2.5c0.3,0.3,0.7,0.4,1.1,0.4c0.5,0,1.1-0.2,1.4-0.6l128.8-143.7c0.3-0.4,0.5-0.9,0.5-1.4
				c0-0.5-0.3-1-0.7-1.3l-37.3-31.3l63.4-87c0.6-0.8,0.5-1.9-0.2-2.5C692.3,353.6,691.8,353.4,691.3,353.4z"/>
			<path class="st2" d="M415.4,503.8c1.6-1.9,2.6-4.2,2.9-6.4c0.5-3,0.7-6.1,0.7-9.2c0-2.4,0-4.1-0.2-5.1c-0.2-3.5-1.2-7.3-2.1-8.7
				c-1.3-3.6-4.1-6.7-7.6-8.4c-3.7-1.5-7.6-2.3-11.6-2.3c-0.5,0-1,0-1.4,0l-51.2,0c-1.1,0-1.9,0.9-1.9,1.9v66.5
				c0,1.1,0.9,1.9,1.9,1.9v0H361c1.1,0,1.9-0.9,1.9-1.9v-15h28.8c0.9,0,1.6,0.2,1.9,0.3c0.1,0.1,0.3,0.2,0.4,0.3
				c1.3,0.6,2.4,1.6,3.1,2.7c0.5,1.2,0.8,2.4,0.8,4v7.6c0,1.1,0.9,1.9,1.9,1.9h16.7c1.1,0,1.9-0.9,1.9-1.9v-13.4
				c0-0.5,0-1.4-0.3-2.2c-0.8-3.4-2.8-6.4-5.8-8.5c0,0-1.2-0.8-1.7-1.1C412.9,506.1,414.7,504.7,415.4,503.8z M363,482.9l27.1,0
				l0.6,0c1.2,0,2.3,0.2,2.7,0.3c0.1,0,0.1,0.1,0.2,0.1c1.3,0.5,2.5,1.5,3.2,2.7c0.7,1.3,1,3.2,0.9,5.6c-0.2,3.4-0.6,4.2-0.7,4.4
				c-0.4,0.6-0.9,1-1.7,1.3c-0.4,0.2-1.6,0.6-5.1,0.6H363L363,482.9L363,482.9z"/>
			<path class="st2" d="M585.3,341.3c0-1.1-0.9-1.9-1.9-1.9h-34.5v-5.2c0-0.4-0.2-0.8-0.4-1.2h2.6c1.1,0,1.9-0.9,1.9-1.9v-15.2
				c0-1.1-0.9-1.9-1.9-1.9h-6.5c-1.4,0-1.9-0.3-2-0.3l0,0c0-0.1-0.4-0.8-0.4-3.3v-7.7c0-1.1-0.9-1.9-1.9-1.9h-17
				c-1.1,0-1.9,0.9-1.9,1.9l0,7.5c0,4.9,0.5,9.8,1.5,14.2c0.6,3,2.3,6.5,6.6,8h-2.6c-1.1,0-1.9,0.9-1.9,1.9v5.2h-34.9
				c-1.1,0-1.9,0.9-1.9,1.9v19.2c0,1.1,0.9,1.9,1.9,1.9H525v2.8c-0.3-0.2-0.6-0.3-1-0.3h-18.3c-0.9,0-1.8,0.7-1.9,1.6l-4.7,30.5
				c-0.1,3.5-0.8,7-1.9,9.8c-0.6,1.1-1,1.5-0.9,1.5h0c-0.9,0.3-1.9,0.4-2.9,0.4l-0.7,0h-2.6c-1.1,0-1.9,0.9-1.9,1.9v17.2
				c0,1.1,0.9,1.9,1.9,1.9v0h7.8c6.6,0,11.4-1.1,14.6-3.4c3.4-2.4,5.8-9.1,7.7-21.3l4.8-31.8v53.4c0,1.1,0.9,1.9,1.9,1.9h20
				c1.1,0,1.9-0.9,1.9-1.9v-64.2h34.5c1.1,0,1.9-0.9,1.9-1.9V341.3z"/>
			<path class="st2" d="M232.1,462.8h-27.4c-0.7,0-1.4,0.4-1.7,1.1l-19.2,41L164.2,464c-0.3-0.7-1-1.1-1.7-1.1h-27.7
				c-1.1,0-1.9,0.9-1.9,1.9v67.1c0,1.1,0.9,1.9,1.9,1.9l0,0h16.1c1.1,0,1.9-0.9,1.9-1.9v-43.6l21.6,44.4c0.3,0.7,1,1.1,1.7,1.1h14
				c0.7,0,1.4-0.4,1.7-1.1l22.1-44.5v43.6c0,1.1,0.9,1.9,1.9,1.9h16.2c1.1,0,1.9-0.9,1.9-1.9v-67.2
				C234,463.7,233.2,462.8,232.1,462.8z"/>
			<path class="st2" d="M476.6,497.2l30.3-31c0.5-0.6,0.7-1.4,0.4-2.1c-0.3-0.7-1-1.2-1.8-1.2h-21.9c-0.5,0-1,0.2-1.4,0.6L457.4,488
				h-7.8v-23.1c0-1.1-0.9-1.9-1.9-1.9h-16.1c-1.1,0-1.9,0.9-1.9,1.9V532c0,1.1,0.9,1.9,1.9,1.9h16.1c1.1,0,1.9-0.9,1.9-1.9v-24.8
				h7.5l27.7,26.2c0.4,0.3,0.8,0.5,1.3,0.5l0,0h23.3c0.8,0,1.5-0.5,1.8-1.2c0.3-0.7,0.1-1.6-0.4-2.1L476.6,497.2z"/>
			<path class="st2" d="M690.1,462.7H674c-1.1,0-1.9,0.9-1.9,1.9v66.8c0,1.1,0.9,1.9,1.9,1.9h16.1c1.1,0,1.9-0.9,1.9-1.9v-66.8
				C692,463.6,691.2,462.7,690.1,462.7z"/>
			<path class="st2" d="M623.1,365.2l-34.6,54.4c-0.5,0.8-0.4,1.9,0.4,2.5c0.4,0.3,0.8,0.5,1.3,0.5c0.4,0,0.9-0.2,1.3-0.5l75.3-65.3
				c0.4-0.4,0.7-0.9,0.7-1.5c0-0.6-0.3-1.1-0.7-1.5l-33.9-27.6l45.3-83.8c0.5-0.9,0.2-1.9-0.6-2.5c-0.3-0.2-0.7-0.4-1.1-0.4
				c-0.5,0-1,0.2-1.4,0.6l-86.7,92.5c-0.4,0.4-0.5,0.9-0.5,1.4c0,0.5,0.3,1,0.7,1.4L623.1,365.2z"/>
			<path class="st2" d="M566.2,300.6c-1.1,0-1.9,0.9-1.9,1.9v5.3c0,3.7-0.3,4.7-0.3,4.8c-0.2,0.1-0.8,0.4-2,0.4h-5.7
				c-1.1,0-1.9,0.9-1.9,1.9v15.4c0,1.1,0.9,1.9,1.9,1.9h16.1c5.8,0,12.7-3,12.7-17.3v-12.4c0-1.1-0.9-1.9-1.9-1.9H566.2z"/>
			<path class="st2" d="M302.5,462.9c-0.3-0.7-1-1.1-1.7-1.1h-24.3c-0.7,0-1.4,0.4-1.7,1.1l-32.1,68c-0.3,0.6-0.2,1.3,0.1,1.9
				s1,0.9,1.6,0.9l0,0h18.4c0.8,0,1.4-0.4,1.7-1.1l5.7-12.4h37.3l6,12.4c0.3,0.7,1,1.1,1.7,1.1h18.2c0.7,0,1.3-0.3,1.6-0.9
				c0.4-0.6,0.4-1.3,0.1-1.9L302.5,462.9z M278.1,503.5l10.8-22.4l10.7,22.4H278.1z"/>
			<path class="st4" d="M184.7,629c-17.2,0-31.2,14-31.2,31.2s14,31.2,31.2,31.2s31.2-14,31.2-31.2S201.9,629,184.7,629z"/>
			<path class="st5" d="M273.7,629c-17.2,0-31.2,14-31.2,31.2s14,31.2,31.2,31.2c17.2,0,31.2-14,31.2-31.2S290.9,629,273.7,629z"/>
			<path class="st6" d="M369.6,629c-17.2,0-31.2,14-31.2,31.2s14,31.2,31.2,31.2s31.2-14,31.2-31.2S386.8,629,369.6,629z"/>
			<path class="st7" d="M458.7,629c-17.2,0-31.2,14-31.2,31.2s14,31.2,31.2,31.2s31.2-14,31.2-31.2S475.9,629,458.7,629z"/>
			<path class="st8" d="M559.7,629c-17.2,0-31.2,14-31.2,31.2s14,31.2,31.2,31.2c17.2,0,31.2-14,31.2-31.2S576.9,629,559.7,629z"/>
			<path class="st9" d="M648.8,629c-17.2,0-31.2,14-31.2,31.2s14,31.2,31.2,31.2c17.2,0,31.2-14,31.2-31.2S666,629,648.8,629z"/>
		</g>
	</g>
</g>
</svg>
