<?xml version="1.0" encoding="utf-8"?>
<!-- Generator: Adobe Illustrator 21.1.0, SVG Export Plug-In . SVG Version: 6.00 Build 0)  -->
<svg version="1.1" id="图层_1" xmlns="http://www.w3.org/2000/svg" xmlns:xlink="http://www.w3.org/1999/xlink" x="0px" y="0px"
	 viewBox="0 0 880 896.3" style="enable-background:new 0 0 880 896.3;" xml:space="preserve">
<style type="text/css">
	.st0{fill:#6EB3EF;}
	.st1{fill:#3B72A2;}
	.st2{fill:#FFFFFF;}
	.st3{opacity:0.75;}
	.st4{fill:#FCD227;}
</style>
<path class="st0" d="M533.7,886C771,833.3,921.5,594.6,869.8,352.8S583.7-42.3,346.3,10.4S-41.5,301.8,10.2,543.6
	S296.3,938.6,533.7,886z"/>
<ellipse class="st1" cx="409.1" cy="431" rx="371.8" ry="384"/>
<ellipse class="st0" cx="384.6" cy="407.7" rx="331.8" ry="342.6"/>
<path class="st2" d="M692.6,378.7c-4.1,3.9-8.4,7.6-12.9,11c-0.1,0.5-0.2,0.9-0.4,1.4c7.9-2.8,15.6-6.2,23-10.3l-7.8-1.8
	C693.8,378.9,693.2,378.8,692.6,378.7z"/>
<path class="st2" d="M708.8,382.3l1.4-6.3c-2.6,1.7-5.2,3.3-7.9,4.8L708.8,382.3z"/>
<g>
	<g class="st3">
		<path class="st1" d="M552.8,720.9l1.2-1.7c32-43.3,57-114.7,57-251.7c-68.2,0-95.5-13.6-163.7-68.2
			c-68.2,54.6-95.5,68.2-163.7,68.2c0,140.7,26.3,212.2,59.6,255.1v0.1h0.1c34.4,44.4,76.3,58.1,104.1,85.8
			c27.8-27.8,69.6-41.4,104.1-85.8L552.8,720.9z M541.7,561.7l-6.8,16.7c0,0-7.6-13.2-19.3-26.4L469,602.8l72.2,81.6l1.7,25.7
			l-27.8-0.6L450.1,627l-66.9,82.4l-33.9,7.1l4.6-32.2l72.7-81.7l-45-50.7c-11.7,13.2-19.3,26.4-19.3,26.4l-6.8-16.7l23.9-20.7
			c-3.2-4.1-12.5-15.6-16.4-19.6c-4.6-4.7-19.9-17.6-19.9-17.6l21.5-18.6c0,0,10.3,16.8,14.2,21.9c3.5,4.5,13.7,15.6,17.2,19.5
			l24.2-21l15.3,9.3c0,0-14.2,5.7-28.9,15.3l43,49.7l40.7-49.7c-14.7-9.6-28.9-15.3-28.9-15.3l15.3-9.3l24.2,21
			c3.6-3.8,13.8-14.9,17.2-19.5c3.9-5.1,14.2-21.9,14.2-21.9l21.5,18.6v0c-0.3,0.2-15.3,12.9-19.8,17.5c-3.9,4-13.2,15.6-16.4,19.6
			L541.7,561.7z"/>
	</g>
	<g>
		<path class="st2" d="M545.8,713.9l1.2-1.7c32-43.3,57-114.7,57-251.7c-68.2,0-95.5-13.6-163.7-68.2
			c-68.2,54.6-95.5,68.2-163.7,68.2c0,140.7,26.3,212.2,59.6,255.1v0.1h0.1c34.4,44.4,76.3,58.1,104.1,85.8
			c27.8-27.8,69.6-41.4,104.1-85.8L545.8,713.9z M534.7,554.7l-6.8,16.7c0,0-7.6-13.2-19.3-26.4L462,595.8l72.2,81.6l1.7,25.7
			l-27.8-0.6L443.1,620l-66.9,82.4l-33.9,7.1l4.6-32.2l72.7-81.7l-45-50.7c-11.7,13.2-19.3,26.4-19.3,26.4l-6.8-16.7l23.9-20.7
			c-3.2-4.1-12.5-15.6-16.4-19.6c-4.6-4.7-19.9-17.6-19.9-17.6l21.5-18.6c0,0,10.3,16.8,14.2,21.9c3.5,4.5,13.7,15.6,17.2,19.5
			l24.2-21l15.3,9.3c0,0-14.2,5.7-28.9,15.3l43,49.7l40.7-49.7c-14.7-9.6-28.9-15.3-28.9-15.3l15.3-9.3l24.2,21
			c3.6-3.8,13.8-14.9,17.2-19.5c3.9-5.1,14.2-21.9,14.2-21.9l21.5,18.6v0c-0.3,0.2-15.3,12.9-19.8,17.5c-3.9,4-13.2,15.6-16.4,19.6
			L534.7,554.7z"/>
	</g>
</g>
<g>
	<g class="st3">
		<path class="st1" d="M288.8,408.7l-0.6-16.5c-0.4-12.3-0.7-20.9-1-30.2c-0.7,0.3-3.4,1.6-3.4,1.6c-1.2,10.9-2.4,22.7-3.8,36.6
			l-1.1,11l-10.9,2c-15.8,2.9-23.4,4.5-39,8l-19.3,4.3l1.4-19.7c2.7-38.1,4.8-60.7,8.9-93.9c-4.1,0.9-8.4,1.8-13.9,3l-14.3,3.2
			l-10.1-45.3l14.3-3.2c2.8-0.6,5.3-1.2,7.7-1.7c-17.3-22.8-27.3-47.9-29.4-78.9c-17.7,24.6-27.3,54.6-27.3,87.3
			c0,50.5,24.6,95.5,62.8,122.8c-36.8-12.3-66.8-36.8-85.9-70.9c-2.7,12.3-4.1,24.6-4.1,36.8c0,62.8,39.6,116,95.5,135.1
			c-30-4.1-58.7-15-81.9-32.7c2.7,62.8,45,116,100.9,135.1c-27.3-2.7-53.2-10.9-75-24.6c17.7,57.3,68.2,100.9,131,106.4
			c-23.2-51.8-34.1-121.4-34.1-216.9v-27.3h27.3c42.3,0,65.5-5.5,99.6-27.3c-3.6-4.9-7.8-9.7-12.2-14.3c-24.9,2-39.1,3.7-65.8,7.7
			L288.8,408.7z"/>
	</g>
	<g>
		<path class="st2" d="M281.8,401.7l-0.6-16.5c-0.4-12.3-0.7-20.9-1-30.2c-0.7,0.3-3.4,1.6-3.4,1.6c-1.2,10.9-2.4,22.7-3.8,36.6
			l-1.1,11l-10.9,2c-15.8,2.9-23.4,4.5-39,8l-19.3,4.3l1.4-19.7c2.7-38.1,4.8-60.7,8.9-93.9c-4.1,0.9-8.4,1.8-13.9,3l-14.3,3.2
			l-10.1-45.3l14.3-3.2c2.8-0.6,5.3-1.2,7.7-1.7c-17.3-22.8-27.3-47.9-29.4-78.9c-17.7,24.6-27.3,54.6-27.3,87.3
			c0,50.5,24.6,95.5,62.8,122.8c-36.8-12.3-66.8-36.8-85.9-70.9c-2.7,12.3-4.1,24.6-4.1,36.8c0,62.8,39.6,116,95.5,135.1
			c-30-4.1-58.7-15-81.9-32.7c2.7,62.8,45,116,100.9,135.1c-27.3-2.7-53.2-10.9-75-24.6c17.7,57.3,68.2,100.9,131,106.4
			c-23.2-51.8-34.1-121.4-34.1-216.9v-27.3h27.3c42.3,0,65.5-5.5,99.6-27.3c-3.6-4.9-7.8-9.7-12.2-14.3c-24.9,2-39.1,3.7-65.8,7.7
			L281.8,401.7z"/>
	</g>
</g>
<g>
	<g class="st3">
		<path class="st1" d="M723.7,256.9l-4.1,15.1c-7.5,27.6-11.8,43.7-18.1,67.7c2.9,0.6,24.2,5.4,24.2,5.4l-6,18.9
			c14.6-23.3,26.3-57.9,26.3-87.4c0-32.7-9.5-62.8-27.3-87.3c-1.2,24-7.3,44.4-17.9,63c2.4,0.5,4.8,1,7.5,1.5L723.7,256.9z"/>
	</g>
	<g>
		<path class="st2" d="M716.7,249.9l-4.1,15.1c-7.5,27.6-11.8,43.7-18.1,67.7c2.9,0.6,24.2,5.4,24.2,5.4l-6,18.9
			c14.6-23.3,26.3-57.9,26.3-87.4c0-32.7-9.5-62.8-27.3-87.3c-1.2,24-7.3,44.4-17.9,63c2.4,0.5,4.8,1,7.5,1.5L716.7,249.9z"/>
	</g>
</g>
<g>
	<g class="st3">
		<path class="st1" d="M345.3,282.9c-0.1,9.9-0.1,14.8-0.1,24.7c11-4.3,16.5-6.4,27.7-10.4c0.6,7.4,0.9,11.1,1.5,18.5
			c-11.8,4.3-17.6,6.6-29.1,11.2c0,19.3,0,29,0.2,48.3c13.3-1.5,19.9-2.1,33.2-3.1c0.5,6.4,0.8,9.6,1.3,16c-29.4,2.3-44,4-73.2,8.3
			c-0.7-20.9-1-31.4-1.5-52.4c-9.1,4.1-13.6,6.2-22.6,10.4c-1.2-7.4-1.8-11.1-3.1-18.6c10-4.7,15-7,25.2-11.4
			c-0.3-14.6-0.4-21.9-0.6-36.6c-8.3,1.1-12.5,1.7-20.8,3c-7,45.1-9.8,67.6-14.2,112.6c-15.9,2.9-23.8,4.5-39.5,8.1
			c3.2-45.3,5.5-67.9,11.3-113.3c-13.7,2.6-20.6,4.1-34.2,7.1c-1.5-6.6-2.2-10-3.7-16.6c16-3.6,24.1-5.2,40.2-8.2
			c0.6-4.6,0.9-6.8,1.6-11.4c17.3-3.2,25.9-4.6,43.3-7.2c-0.8,4.5-1.1,6.8-1.9,11.3c21.8-3.3,32.8-4.7,54.7-6.9
			c-1-3.1-1.4-4.6-2.4-7.7c10.4-1.1,15.6-1.6,26-2.4c2.8,9.8,4.2,14.6,6.9,24.4C361,281.4,355.8,281.9,345.3,282.9z"/>
		<path class="st1" d="M429.4,293.1c5.5-0.2,8.2-0.2,13.7-0.3c0.4-2.4,0.6-3.7,1-6.1c14.9-0.3,22.3-0.3,37.2-0.1
			c-0.5,2.4-0.7,3.6-1.2,6.1c24.7,0.3,37.1,0.8,61.7,2.4c-0.3,5.1-0.5,7.7-0.8,12.8c-25.3-1.7-38-2.1-63.4-2.4
			c-0.4,2.1-0.6,3.2-1.1,5.4c25.7,0.3,38.6,0.7,64.3,2.4c-0.3,5.1-0.5,7.7-0.8,12.8c-40.7-2.7-61.1-3.1-101.8-2.1
			c1.1-7.3,1.7-11,2.9-18.3c-5,0.1-7.5,0.2-12.5,0.3c-2,31.8-3,47.7-4.6,79.5c-14.4,0.5-21.5,0.9-35.9,2c1-45.9,1.7-68.9,3.6-114.9
			c12.6-0.8,18.9-1.1,31.4-1.5c1.2-8.9,1.8-13.3,3-22.2c17.3-0.6,26-0.7,43.3-0.6c-0.4,2-0.5,3-0.9,5.1c31.1,0.1,46.7,0.6,77.7,2.7
			c-0.3,4.3-0.4,6.4-0.7,10.7c-31.5-2.1-47.3-2.7-78.9-2.7c-0.4,2.5-0.6,3.8-1,6.3c32.6,0,48.9,0.6,81.4,2.8
			c-1.3,7.9-2,11.8-3.3,19.7c-12.1-0.8-18.1-1.1-30.2-1.6c0.4-2.8,0.6-4.2,1.1-7.1c-33.8-1.4-50.7-1.5-84.5-0.5
			C429.8,287.4,429.6,289.3,429.4,293.1z M465.3,384.7c-14.7,0-22,0.1-36.6,0.6c3-22.4,4.5-33.7,7.9-56.1c39.6-1,59.4-0.6,98.9,1.8
			c-2.2,17-3.3,25.5-5.4,42.5c4.7,0.3,7.1,0.4,11.8,0.8c-0.4,5.2-0.5,7.8-0.9,13c-19.7-1.4-29.6-1.9-49.4-2.3
			c1.8-17.2,2.8-25.7,4.7-42.9c-9.6-0.3-14.4-0.3-23.9-0.4C469.4,358.9,468,367.5,465.3,384.7z"/>
		<path class="st1" d="M687.1,355.5c9.9,2,14.9,3,24.8,5.2c-1.4,6.2-2.1,9.4-3.5,15.6c-10.1-2.3-15.2-3.3-25.4-5.4
			c-3.5,13.6-5.2,20.4-8.7,33.9c-15.7-3.1-23.6-4.5-39.4-7c3.1-13.7,4.6-20.5,7.7-34.2c-35.9-5.8-53.9-7.9-90.1-10.8
			c0.5-6.4,0.8-9.6,1.3-16c37.1,2.9,55.6,5.1,92.3,11.1c7.7-33.4,11.6-50.1,19.7-83.4c17.4,2.9,26,4.5,43.3,8
			C700.1,305.8,695.7,322.3,687.1,355.5z M647.2,314.4c-1.1,7-1.7,10.5-2.8,17.5c-33.6-11-50.7-16-85.4-24.4
			c0.6-7.1,0.9-10.6,1.4-17.7C595.7,298.3,613.1,303.3,647.2,314.4z M653,280.5c-1.1,7.2-1.7,10.7-2.8,17.9
			c-34.6-11.4-52.2-16.5-87.9-25.2c0.6-7.1,0.9-10.6,1.4-17.7C600,264.1,617.9,269.1,653,280.5z"/>
	</g>
	<g>
		<g>
			<path class="st4" d="M338.3,275.9c-0.1,9.9-0.1,14.8-0.1,24.7c11-4.3,16.5-6.4,27.7-10.4c0.6,7.4,0.9,11.1,1.5,18.5
				c-11.8,4.3-17.6,6.6-29.1,11.2c0,19.3,0,29,0.2,48.3c13.3-1.5,19.9-2.1,33.2-3.1c0.5,6.4,0.8,9.6,1.3,16c-29.4,2.3-44,4-73.2,8.3
				c-0.7-20.9-1-31.4-1.5-52.4c-9.1,4.1-13.6,6.2-22.6,10.4c-1.2-7.4-1.8-11.1-3.1-18.6c10-4.7,15-7,25.2-11.4
				c-0.3-14.6-0.4-21.9-0.6-36.6c-8.3,1.1-12.5,1.7-20.8,3c-7,45.1-9.8,67.6-14.2,112.6c-15.9,2.9-23.8,4.5-39.5,8.1
				c3.2-45.3,5.5-67.9,11.3-113.3c-13.7,2.6-20.6,4.1-34.2,7.1c-1.5-6.6-2.2-10-3.7-16.6c16-3.6,24.1-5.2,40.2-8.2
				c0.6-4.6,0.9-6.8,1.6-11.4c17.3-3.2,25.9-4.6,43.3-7.2c-0.8,4.5-1.1,6.8-1.9,11.3c21.8-3.3,32.8-4.7,54.7-6.9
				c-1-3.1-1.4-4.6-2.4-7.7c10.4-1.1,15.6-1.6,26-2.4c2.8,9.8,4.2,14.6,6.9,24.4C354,274.4,348.8,274.9,338.3,275.9z"/>
			<path class="st4" d="M422.4,286.1c5.5-0.2,8.2-0.2,13.7-0.3c0.4-2.4,0.6-3.7,1-6.1c14.9-0.3,22.3-0.3,37.2-0.1
				c-0.5,2.4-0.7,3.6-1.2,6.1c24.7,0.3,37.1,0.8,61.7,2.4c-0.3,5.1-0.5,7.7-0.8,12.8c-25.3-1.7-38-2.1-63.4-2.4
				c-0.4,2.1-0.6,3.2-1.1,5.4c25.7,0.3,38.6,0.7,64.3,2.4c-0.3,5.1-0.5,7.7-0.8,12.8c-40.7-2.7-61.1-3.1-101.8-2.1
				c1.1-7.3,1.7-11,2.9-18.3c-5,0.1-7.5,0.2-12.5,0.3c-2,31.8-3,47.7-4.6,79.5c-14.4,0.5-21.5,0.9-35.9,2c1-45.9,1.7-68.9,3.6-114.9
				c12.6-0.8,18.9-1.1,31.4-1.5c1.2-8.9,1.8-13.3,3-22.2c17.3-0.6,26-0.7,43.3-0.6c-0.4,2-0.5,3-0.9,5.1c31.1,0.1,46.7,0.6,77.7,2.7
				c-0.3,4.3-0.4,6.4-0.7,10.7c-31.5-2.1-47.3-2.7-78.9-2.7c-0.4,2.5-0.6,3.8-1,6.3c32.6,0,48.9,0.6,81.4,2.8
				c-1.3,7.9-2,11.8-3.3,19.7c-12.1-0.8-18.1-1.1-30.2-1.6c0.4-2.8,0.6-4.2,1.1-7.1c-33.8-1.4-50.7-1.5-84.5-0.5
				C422.8,280.4,422.6,282.3,422.4,286.1z M458.3,377.7c-14.7,0-22,0.1-36.6,0.6c3-22.4,4.5-33.7,7.9-56.1c39.6-1,59.4-0.6,98.9,1.8
				c-2.2,17-3.3,25.5-5.4,42.5c4.7,0.3,7.1,0.4,11.8,0.8c-0.4,5.2-0.5,7.8-0.9,13c-19.7-1.4-29.6-1.9-49.4-2.3
				c1.8-17.2,2.8-25.7,4.7-42.9c-9.6-0.3-14.4-0.3-23.9-0.4C462.4,351.9,461,360.5,458.3,377.7z"/>
			<path class="st4" d="M680.1,348.5c9.9,2,14.9,3,24.8,5.2c-1.4,6.2-2.1,9.4-3.5,15.6c-10.1-2.3-15.2-3.3-25.4-5.4
				c-3.5,13.6-5.2,20.4-8.7,33.9c-15.7-3.1-23.6-4.5-39.4-7c3.1-13.7,4.6-20.5,7.7-34.2c-35.9-5.8-53.9-7.9-90.1-10.8
				c0.5-6.4,0.8-9.6,1.3-16c37.1,2.9,55.6,5.1,92.3,11.1c7.7-33.4,11.6-50.1,19.7-83.4c17.4,2.9,26,4.5,43.3,8
				C693.1,298.8,688.7,315.3,680.1,348.5z M640.2,307.4c-1.1,7-1.7,10.5-2.8,17.5c-33.6-11-50.7-16-85.4-24.4
				c0.6-7.1,0.9-10.6,1.4-17.7C588.7,291.3,606.1,296.3,640.2,307.4z M646,273.5c-1.1,7.2-1.7,10.7-2.8,17.9
				c-34.6-11.4-52.2-16.5-87.9-25.2c0.6-7.1,0.9-10.6,1.4-17.7C593,257.1,610.9,262.1,646,273.5z"/>
		</g>
	</g>
</g>
<g>
	<g class="st3">
		<path class="st1" d="M761,467.5c-23.2,17.7-51.8,28.6-81.8,32.7c55.9-19.1,95.5-72.3,95.5-135.1c0-12.3-1.4-24.6-5.5-36.8
			c-11.9,22.1-30.2,40.9-52,54.7l-1.4,6.3l-6.5-1.5c-7.3,4-15,7.4-23,10.3c-2.4,9.3-4.9,19.3-4.9,19.3l-13.7-2.7
			c-15.6-3.1-23.3-4.4-38.9-6.9l-15.5-2.5c0,0,6.4-28.4,7.7-34.2c-19.5-3-34.1-4.8-52.9-6.5c-3.9,2.4-7.7,4.8-11.8,7.3
			c-19.1,12.3-34.1,25.9-45,40.9c34.1,21.8,57.3,27.3,99.6,27.3h27.3v27.3c0,95.5-10.9,165.1-34.1,216.9
			c61.4-5.5,113.2-49.1,129.6-107.8c-23.2,13.6-47.7,21.8-75,24.6C716,583.4,758.3,530.2,761,467.5z"/>
	</g>
	<g>
		<path class="st2" d="M754,460.5c-23.2,17.7-51.8,28.6-81.8,32.7c55.9-19.1,95.5-72.3,95.5-135.1c0-12.3-1.4-24.6-5.5-36.8
			c-11.9,22.1-30.2,40.9-52,54.7l-1.4,6.3l-6.5-1.5c-7.3,4-15,7.4-23,10.3c-2.4,9.3-4.9,19.3-4.9,19.3l-13.7-2.7
			c-15.6-3.1-23.3-4.4-38.9-6.9l-15.5-2.5c0,0,6.4-28.4,7.7-34.2c-19.5-3-34.1-4.8-52.9-6.5c-3.9,2.4-7.7,4.8-11.8,7.3
			c-19.1,12.3-34.1,25.9-45,40.9c34.1,21.8,57.3,27.3,99.6,27.3h27.3v27.3c0,95.5-10.9,165.1-34.1,216.9
			c61.4-5.5,113.2-49.1,129.6-107.8c-23.2,13.6-47.7,21.8-75,24.6C709,576.4,751.3,523.2,754,460.5z"/>
	</g>
</g>
</svg>
