<svg xmlns="http://www.w3.org/2000/svg" viewBox="0 0 611.96 623.35"><defs><style>.cls-1{fill:#c84a69;}.cls-2{fill:#7b2138;}.cls-3{fill:none;}.cls-4{fill:#12916e;stroke-width:4px;}.cls-4,.cls-5{stroke:#fff;stroke-miterlimit:10;}.cls-5{fill:#fcf01c;stroke-width:3px;}.cls-6{fill:#fff;}</style></defs><title>lucky</title><g id="图层_2" data-name="图层 2"><g id="图层_1-2" data-name="图层 1"><path class="cls-1" d="M371.14,616.15c165-36.65,269.7-202.65,233.74-370.82S405.92-29.44,240.82,7.21-28.88,209.87,7.08,378,206,652.73,371.14,616.15Z"/><ellipse class="cls-2" cx="284.49" cy="299.72" rx="258.57" ry="267.05"/><ellipse class="cls-1" cx="267.45" cy="283.52" rx="230.75" ry="238.26"/><path class="cls-3" d="M302.6,117.51c-83.25,0-151.33,65-156.34,147.09a147.63,147.63,0,0,0,60-16c18.57-9.39,29.07-17.87,39.22-26.29a77.21,77.21,0,0,1,114.33,0c10.15,8.42,20.65,16.9,39.23,26.29a147.37,147.37,0,0,0,60,16C454,182.54,385.92,117.51,302.6,117.51Z"/><path class="cls-3" d="M302.6,230a44.3,44.3,0,1,0,44.3,44.3A44.28,44.28,0,0,0,302.6,230Z"/><path class="cls-4" d="M558.15,292.75l-1.9,10.79q-2.1,11.87-5.51,17.3a21.56,21.56,0,0,1-10.47,8.34q-7.06,2.91-17.63,2.91H514l-8.62,64.64a80.61,80.61,0,0,0-31.74-12.49L494.8,258.07h32.48q13.17,0,19.89,2.07t9.59,6a17,17,0,0,1,3.16,9.45Q560.2,281.11,558.15,292.75Z"/><path class="cls-5" d="M531.23,281.19q-1.65-1.91-7.93-1.91l-5.56,31.54c.91.05,1.7.08,2.36.08q4.44,0,6.55-2.18t3.33-9.07l1.8-10.18Q532.89,283.1,531.23,281.19Z"/><path class="cls-4" d="M483.73,247.82H453.85L461.77,203,453,123.87h29.62q.54,36.29-.79,48.84,6.18-19.84,17.6-48.84H529.1L491.64,203Z"/><polygon class="cls-4" points="431.55 247.81 401.86 247.81 394.55 194.68 385.18 247.81 352.93 247.81 374.8 123.87 407.04 123.87 398.55 172.02 421.41 123.87 451.66 123.87 423.29 179.83 431.55 247.81"/><path class="cls-4" d="M359.53,177.84H327.29l3.8-21.54q1.66-9.39,1-11.73T328,142.24q-4,0-5.56,2.84t-3.23,12.25L309,214.9q-1.59,9-1,11.79t4.34,2.76a5.53,5.53,0,0,0,5.2-2.76q1.6-2.76,3.4-13l2.75-15.58H356L355.1,203q-3.4,19.24-7.53,27.3t-14.51,14.11a46.76,46.76,0,0,1-24,6.06q-14.17,0-22.45-5.13a19.62,19.62,0,0,1-9.67-14.2q-1.39-9.07,1.83-27.29l6.39-36.21a173,173,0,0,1,4.46-20.1,34.68,34.68,0,0,1,7.76-12.9,39,39,0,0,1,14.36-9.76,50.28,50.28,0,0,1,19.2-3.56q14.25,0,22.54,5.51t9.76,13.73q1.46,8.22-1.6,25.57Z"/><path class="cls-4" d="M268.08,226.49a33.42,33.42,0,0,1-7.51,11.71,36.06,36.06,0,0,1-13.52,9.11,49.07,49.07,0,0,1-18,3.1q-11.1,0-19-3.67t-11-9.57a22.9,22.9,0,0,1-2.79-12.44q.39-6.54,4.09-27.52l12.94-73.34h32.24l-16.4,92.94q-1.43,8.12-.95,10.38t3.16,2.26a4.58,4.58,0,0,0,4.38-2.49q1.32-2.49,3-11.75l16.11-91.33h32.25L272.49,206.7Q270,220.79,268.08,226.49Z"/><polygon class="cls-4" points="186.33 247.81 134.48 247.81 156.34 123.87 188.59 123.87 171.1 223.01 190.7 223.01 186.33 247.81"/><path class="cls-4" d="M147,382H114l2.2-22.28H104.71l-5,27.05c-.82,0-1.63-.1-2.47-.1a79.7,79.7,0,0,0-23.92,3.63H70l33.81-132.25h46.61Z"/><path class="cls-5" d="M108.17,337.77h11.1q1.27-21.06,4.27-52.06Q112.34,321.31,108.17,337.77Z"/><polygon class="cls-4" points="485.62 258.07 463.75 382.01 431.51 382.01 453.37 258.07 485.62 258.07"/><polygon class="cls-4" points="148.7 382.01 170.57 258.07 202.82 258.07 180.95 382.01 148.7 382.01"/><path class="cls-4" d="M234.82,258.07q22.82,0,30.59,1.76a16.79,16.79,0,0,1,11.59,9q3.81,7.24,1,23.08-2.55,14.47-7,19.45t-15.22,6q9.15,2.37,11.74,6.35a15.57,15.57,0,0,1,2.81,7.31q.22,3.33-2.43,18.33L262.12,382H232.18l7.26-41.19q1.76-10,.6-12.33t-7.81-2.37L222.37,382H190.13L212,258.07Z"/><polygon class="cls-5" points="233.23 288.76 229.6 306.9 243.22 299.64 257.72 310.52 257.72 292.39 272.23 281.51 254.1 277.88 247.74 263.37 240.48 277.88 222.34 277.88 233.23 288.76"/><path class="cls-4" d="M302.65,328q-10.62-8-13.89-11.56a21.64,21.64,0,0,1-4.71-10q-1.45-6.36.3-16.23,2.51-14.24,7.31-20.82a31.49,31.49,0,0,1,13.58-10.3,51.61,51.61,0,0,1,20.26-3.71q12.56,0,20.69,4.06t9.91,10.22q1.79,6.16-.82,20.94l-.86,4.9H324.46l1.62-9.19q1.13-6.43.29-8.19t-3.52-1.76a5.93,5.93,0,0,0-4.82,2.38,15.87,15.87,0,0,0-2.76,7.2q-1.09,6.2,0,9.35t7.77,7.58q19.28,12.77,23.42,21t.94,26.41q-2.34,13.24-6.55,19.52T327,380.38a52.7,52.7,0,0,1-21.43,4.24q-12.94,0-21.23-4.9t-9.79-12.48q-1.5-7.58,1-21.51l1.43-8.11h30l-2.66,15.08q-1.23,7-.32,9c.61,1.33,2,2,4.13,2a6.4,6.4,0,0,0,5.23-2.52,16.64,16.64,0,0,0,2.89-7.5q1.93-11-.46-14.32T302.65,328Z"/><polygon class="cls-4" points="411.95 258.07 444.19 258.07 422.33 382.01 390.08 382.01 399.27 329.96 389.62 329.96 380.43 382.01 348.19 382.01 370.06 258.07 402.3 258.07 394.48 302.4 404.13 302.4 411.95 258.07"/><path class="cls-6" d="M304,401.2c-80.92,0-154,15.53-206.38,40.52,60.62-16.65,128-26,199.12-26,84.74,0,164.26,13.26,233.23,36.39C477.11,421.1,395.55,401.2,304,401.2Z"/><path class="cls-6" d="M165.44,468.93h33.21L200.53,458H167.32l1-6.09H154L153,458H120.15l-1.88,10.91H151.1l-1.16,6.76H115.31l-1.88,10.91h5.5L122.7,499h-9.62l-1.9,11h32.46l-1.23,7.14H108.16l-1.88,10.91h34.25L138.65,539H153l1.88-10.91h35.38l1.88-10.91H156.75l1.23-7.14h33.59l1.9-11H182.52l6-12.45h8.9l1.88-10.91h-35Zm9.09,17.67-6.73,12.45H137.42L132.9,486.6Z"/><path class="cls-6" d="M202.57,525.82a3.32,3.32,0,0,0,3.63-3l5-27.91h-6.57l2.4-13.42h21.38l-7,39.08q-.88,4.9,12.25,4.89h56.79l-2.26,12.64H229.92q-9.45,0-14.53-3.82a10.86,10.86,0,0,1-8.84,3.82H196.9l2.19-12.24Z"/><polygon class="cls-6" points="214.74 468.43 217.88 450.89 233.09 450.89 229.95 468.43 214.74 468.43"/><polygon class="cls-6" points="237.13 465 239.39 452.37 298.47 452.37 296.21 465 237.13 465"/><path class="cls-6" d="M276.45,503.68l1.37-7.64h14L289.53,509q-.58,3.23-4.14,6.46a13.58,13.58,0,0,1-9.35,3.92H227.4l1.72-9.6c.16-.91,1-2.18,2.47-3.82l13.26-16.84H229.73L232,476.16h65.24L295,489.09H261.26l-14,16.84h26.06Q276,505.93,276.45,503.68Z"/><path class="cls-6" d="M309.17,463.14l2.26-12.63h38l-29.74,71.1c-.28,1.57.34,2.35,1.87,2.35H385.3L383,536.58H308.45q-8.35,0-7.45-6.17l29.15-67.28h-21Z"/><path class="cls-6" d="M354.28,516.71q-6.86,0-8.07-8.81l-3.87-19.49h15.52l2.69,13.32q.6,2.74,3,2.74H386.4l-2.19,12.24Z"/><path class="cls-6" d="M370.19,482.23H343.44L345.63,470h21.68c1,0,2-1,3-2.84l6-14.4h15.51L382.3,474.6Q378.75,482.23,370.19,482.23Z"/><path class="cls-6" d="M441.24,453.15h-8.85l2.32-4.6H422.27l-2.32,4.6h-8.65l-6.37,35.55h-3.48l-1.86,10.39h3.48l-4.72,26.34c-.23,1.31-.62,2-1.15,2h-2.29l-1.79,10h5.77q7.69-.2,9.36-8.42l4.23-23.6.54,12.54q.29,4.51,3.77,4.51h1.89l-.76,4.21c-.09.52-.47.79-1.13.79h-2.89L412.2,537h5.47q8.55,0,10-8Zm-20.88,59.93a3.08,3.08,0,0,1-.11-1.08l-.5-8.32h-7l.83-4.6h9.25Zm4.37-24.38h-9.25l3.38-18.9.45,11.36q.26,4.11,3.34,4.11h2.68Zm1.53-13.51-.13-7.06h-7l.83-4.6h9.25l-2.31,12.93C426.53,476.45,426.3,476,426.26,475.19Z"/><path class="cls-6" d="M485,464.61a8.92,8.92,0,0,0,6-2.55q2.8-2.35,6.94-11.55H484.77q-1.85,4.21-3.44,4.21H464.63l-1.77,9.9h9l-3.09,17.23H457.48l-1.86,10.38h11.24l-2.95,16.45h-8.55l-1.72,9.6-2.39-12.73a3.83,3.83,0,0,0-.73-1.47l3.3-8.42,2-11.16h-6.27l11.36-21.74,1.78-10H442.5l-1.93,10.77h8.85l-11.25,21.74-1.72,9.6h7l-3,8.42h-6.27l-1.84,10.28h4.48l-2.95,8.13q-1.8,4.51-3.39,4.51h-1.09l-1.86,10.38h5.37q4.48,0,7.19-6.27l3.45-8.71,1.59,10q.83,5.38,6.4,5.38h31.43l1.79-10H458.35c-2,0-3.18-.74-3.58-2.25l-1.09-6.16h29.84l1.77-9.9h-9.75l2.94-16.45h11.24l1.86-10.38H480.36l3.08-17.23Z"/></g></g></svg>