<?xml version="1.0" encoding="utf-8"?>
<!-- Generator: Adobe Illustrator 21.1.0, SVG Export Plug-In . SVG Version: 6.00 Build 0)  -->
<svg version="1.1" id="图层_1" xmlns="http://www.w3.org/2000/svg" xmlns:xlink="http://www.w3.org/1999/xlink" x="0px" y="0px"
	 viewBox="0 0 880 896.3" style="enable-background:new 0 0 880 896.3;" xml:space="preserve">
<style type="text/css">
	.st0{fill:#5A4497;}
	.st1{fill:#271A4A;}
	.st2{opacity:0.75;}
	.st3{fill:#FFFFFF;}
	.st4{fill:#E2D8FF;}
	.st5{fill:#FFD60B;}
</style>
<path class="st0" d="M533.7,886C771,833.3,921.5,594.6,869.8,352.8S583.7-42.3,346.3,10.4S-41.5,301.8,10.2,543.6
	S296.3,938.6,533.7,886z"/>
<ellipse class="st1" cx="409.1" cy="431" rx="371.8" ry="384"/>
<ellipse class="st0" cx="384.6" cy="407.7" rx="331.8" ry="342.6"/>
<g>
	<g class="st2">
		<path class="st1" d="M509.9,409c0,1.3-0.3,3.3-1,6c-0.7,2.7-1,4.7-1,6c0,1.9,0.6,3.6,1.7,5.3c1.5,0.6,6.2,1.4,14,2.5
			c5.8,0.7,9.9,2.5,12.3,5.3c0.9,9.3,1.4,19.6,1.4,30.8c0,10.6-1.2,35.1-3.6,73.4c-0.2,1.9-1.2,3.5-3.1,4.9
			c-1.9,1.4-5.5,2.4-10.8,3.1c-5.3,0.7-9.1,1.8-11.4,3.5c0.2,1.5-0.1,3.8-0.8,7c-0.8,3.2-1.1,5.3-1.1,6.4c0,3.2,1.6,5.4,4.8,6.7
			c41.1-2.1,78.4-1.9,111.9,0.6c2.4-0.7,3.9-2,4.5-3.6c0-1.1,0.3-2.9,0.8-5.5c0.6-2.5,0.8-4.4,0.8-5.7c0-2.8-1-5.1-3.1-7
			c-2.4-0.9-7-2.1-13.7-3.4c-6-1.1-10.6-2.4-13.7-3.9c1.9-69.8,3.4-110.9,4.5-123.2c0.2-0.2,2.2-2.9,6.2-8.1
			c2.6-3.2,3.9-6.1,3.9-8.7c0-1.3-0.4-2.7-1.1-4.1c-0.7-1.4-1.5-2.2-2.2-2.4c-3,0.4-19.7,2.5-50.2,6.4
			C539.5,404.1,522.8,406.6,509.9,409z"/>
		<path class="st1" d="M206.2,506.6c18.9-4.7,32-14.7,39.3-30.2c4.7-10.1,7-21,7-32.7c0-15.3-3.9-27.6-11.8-36.9
			c-6-7.1-16.5-11.6-31.7-13.4c-59.5,2.4-107.8,2.4-145,0c-2.6,1.1-3.9,3.3-3.9,6.4c0,0.7,0.2,2.8,0.6,6.2c0.4,2.6,0.4,4.7,0,6.2
			c1.3,2.8,4.4,4.8,9.3,5.9c6,1.5,9.8,2.9,11.5,4.2c0,19.4-0.1,38.9-0.3,58.4c0,22.7-0.5,42.1-1.4,58.2c-0.2,3.2-2.2,5.4-5.9,6.6
			c-3.7,1.2-7.3,2.4-10.7,3.5c-1.7,4.3-2.5,8.5-2.5,12.6c0,3.5,0.7,6.4,2.2,8.7c12.2,0.6,33.4,0.7,63.7,0.3
			c27.1-0.4,48.3,0.1,63.7,1.4c1.1,0.2,2.2-0.1,3.2-0.7c1-0.6,2-1.3,2.9-2.1c3-9.3,4.5-14.1,4.5-14.3c0-1.6-0.4-3.3-1.1-4.8
			c-21.1-3.9-34.7-6.2-40.7-6.7c-0.4-0.4-1.5-1-3.4-2c-1.9-0.9-3-2-3.4-3.1c-1.3-5.4-2-10.3-2-14.5c0-5.2,1-9.4,3.1-12.6
			C181.7,509.8,199.2,508.3,206.2,506.6z M152.7,484.2c0.1-1,0-1.6-0.4-1.8l0.6-31.7c0-12.7,0.7-22.9,2-30.5
			c4.1-2.4,8.2-2.7,12.3-0.8c5,2.4,8.9,6.3,11.5,11.5c2.8,7.7,4.2,15.3,4.2,23c0,9.7-2.4,17.5-7.3,23.2c-5.8,7.1-13.1,10-21.9,8.7
			C153,485.8,152.6,485.3,152.7,484.2z"/>
		<path class="st1" d="M494.8,551.9c-0.9-1.1-2.9-2.2-5.9-3.2c-3-1-5-2.3-6.2-3.8c-18.3-23.5-37.3-50.7-56.9-81.5
			c7.7-13.3,21.1-28.1,40.4-44.5c0.7-0.4,4.3-1.6,10.7-3.6c4.1-1.3,6.9-3.4,8.4-6.2c0.7-2.4,1.1-5,1.1-7.8c0-3-0.4-5.6-1.1-7.8
			c-1.1-1.3-2.6-2-4.5-2c-0.8,0-2.3,0.4-4.8,1.1c-2.4,0.7-4.3,1-5.6,0.8c-1.3,0.4-3.1,0.4-5.3,0h-9c-5.2,0.4-11.8,0.4-19.6,0h-18.8
			c-1.1,1.9-1.3,6.8-0.6,14.8c0,0.9,0.6,2.1,1.8,3.6c1.2,1.5,1.8,2.6,1.8,3.3c0,0.7-0.3,1.5-0.8,2.2c-12.3,15.1-25.9,30-40.7,44.9
			c-1.1,0.2-2.9,0.9-5.5,2.1c-2.5,1.2-4.4,1.8-5.7,1.8c-1.1,0-2.2-0.4-3.4-1.1c-0.8-5.6-0.8-12.6-0.3-21l1.7-21.3
			c1.3-2.8,4.5-4.9,9.5-6.4c5-1.5,8.3-3.3,9.8-5.3c0.2-0.9,0.7-2.8,1.4-5.6c0.7-2.8,1.1-4.9,1.1-6.4c0-3-1.3-5.2-3.9-6.7
			c-19.8,1.5-39.5,2.2-58.9,2.2c-15.6,0-31.2-0.4-46.8-1.1c0,0.6-0.3,0.8-0.8,0.8c-2.8,1.1-4.2,3.6-4.2,7.5c0,1.1,0.1,2.8,0.3,5.2
			c0.2,2.3,0.3,4.1,0.3,5.2c1.5,2.1,4.8,3.5,9.8,4.3c5,0.8,8.3,2.4,9.8,4.6c1.5,30.7,0.7,70.7-2.5,120.1c-1.5,3.2-5,6-10.7,8.4
			c-3.9,0.6-6.2,2.9-6.7,7c-0.2,1.1-0.2,4.6,0,10.3c1.9,1.9,3.2,3,3.9,3.3c49-1.1,83.8-1,104.3,0.3c3-1.9,4.5-7.7,4.5-17.6
			c-0.9-3.7-4.3-5.9-10.1-6.4c-6.5-0.7-10.7-2.5-12.3-5.3c-1.3-6-1.8-13.4-1.4-22.3c0.2-7.6,0.5-15.3,0.8-22.9
			c1.3-3,2.2-4.7,2.7-5.2c0.5-0.5,1.1-0.7,1.8-0.7c0.4,0,2.1,0.9,5.3,2.8c17.4,31.6,30.8,57.4,40.4,77.6c29-2.8,53.5-2.9,73.5-0.3
			c0.4,0.2,0.9,0.1,1.5-0.3c0.7-0.4,1.2-0.6,1.5-0.6c0.2-0.9,1.1-3.7,2.8-8.4C494.1,557.3,494.8,554.3,494.8,551.9z"/>
		<path class="st1" d="M810.1,427.8c-0.2-0.7-0.3-1.5-0.3-2.2c0-1.9,1.5-3.2,4.5-3.9c3.7-0.7,6-1.7,6.7-2.8c4.7-9.3,7-15,7-17.1
			c0-1.5-0.3-3-0.8-4.5c-0.9,0-1.6-0.1-2-0.3c-12,2.4-30.8,2.9-56.4,1.4c-26.9-1.5-46.2-1.3-57.8,0.6c-20.4,3-36.4,11.3-48,24.9
			c-12.3,18.7-18.5,40.7-18.5,66.1c0,21.5,4.7,40.3,14,56.6c14.2,19.4,37.8,29.1,70.7,29.1c11.4,0,24.1-1.2,38.1-3.6
			c11.2-1.9,21.9-6.8,32.1-14.7c10.2-7.9,16.8-17.1,19.8-27.6c6.2-21.7,9.3-39.6,9.3-53.8C828.6,455.1,822.4,439,810.1,427.8z
			 M749.8,541.8c-4.9,5.8-9.4,8.7-13.5,8.7c-3.7,0-7.3-1.4-10.7-4.2c-9.4-15.3-14-34-14-56c0-12.9,1.6-27.3,4.8-43.1
			c2.4-12.5,8.5-20,18.2-22.4c6.9,0.2,12.1,3.7,15.7,10.6l6.7,19c2.2,11.4,3.4,22.7,3.4,33.9C760.4,508.3,756.9,526.1,749.8,541.8z"
			/>
		<polygon class="st1" points="243.6,672.9 243.4,621.2 228.7,621.3 229,686.7 273.4,686.5 273.4,672.7 		"/>
		<path class="st1" d="M303.3,619.5h-0.2c-11,0-19.5,4.1-25.3,12.2c-4.4,6.2-6.6,13.7-6.6,22.2c0,8.5,2.3,15.9,6.9,22.1
			c5.8,8,14.2,12,25.1,12h0.2c11,0,19.5-4.2,25.3-12.2c4.4-6.2,6.6-13.6,6.6-22.2c0-8.5-2.3-15.9-6.9-22.1
			C322.7,623.5,314.2,619.5,303.3,619.5z M291,668.8c-3.2-3.8-4.8-8.7-4.8-15c0-6.3,1.5-11.2,4.7-15.1c3-3.7,7-5.5,12.3-5.5l0-3.4
			l0.1,3.4c5.2,0,9.3,1.8,12.4,5.5c3.1,3.7,4.7,8.7,4.7,14.9c0,6.3-1.5,11.2-4.7,15.1c-3,3.7-7,5.5-12.4,5.5
			C298.1,674.2,294,672.4,291,668.8z"/>
		<polygon class="st1" points="387.2,620.7 332.7,620.9 332.8,634.7 352.7,634.6 352.9,686.2 367.6,686.2 367.4,634.5 387.2,634.5 
					"/>
		<polygon class="st1" points="442.8,620.5 388.3,620.7 388.4,634.5 408.3,634.4 408.5,686 423.2,686 423,634.3 442.8,634.3 		"/>
		<polygon class="st1" points="459.1,672 459,659.2 491.2,659.1 491.1,645.3 459,645.4 458.9,634.2 493.8,634.1 493.7,620.3 
			444.2,620.5 444.5,685.9 494.6,685.7 494.5,671.9 		"/>
		<path class="st1" d="M520.5,620.2l-24.4,65.5l15.5,0l6-17.1l18.8-0.1l5.9,17l15.9,0l-24-65.3L520.5,620.2z M522.4,654.7l4.6-12.4
			l4.2,12.3L522.4,654.7z"/>
		<path class="st1" d="M613.1,677.6c-0.7-0.4-1-0.7-1-0.7h0c0-0.1-0.2-0.6-0.2-2.2v-0.1l-0.5-10.6c0-4.4-1.1-7.9-3.1-10.2
			c-0.3-0.4-0.7-0.7-1.1-1.1c0.8-0.8,1.5-1.5,2.1-2.3c2.2-3,3.2-6.8,3.2-11.4c0-6.9-2.6-12.1-7.6-15.4c-3.7-2.4-8.8-3.7-14.9-3.7
			l-30.7,0.1l0.3,65.4l14.7-0.1l-0.1-25.2l16-0.1c3,0,5,0.7,6,2c0.4,0.5,1,1.9,1,5.1c0,2.4,0.1,5.1,0.4,8c0.2,3.2,0.6,5.7,1.2,7.6
			l0.7,2.4l15.6-0.1l0-6.7L613.1,677.6z M573.9,646.7l0-13.2l16.4-0.1l0.1-3.4l0,0v3.4c2.1,0,3.8,0.3,5,1c0.5,0.3,2.1,1.3,2.2,5.3
			c0,4.1-1.6,5.2-2.2,5.5c-0.9,0.6-2.7,1.3-6.4,1.3L573.9,646.7z"/>
		<polygon class="st1" points="673.9,619.6 656.5,619.7 641.7,644.7 626.7,619.8 609.4,619.9 634.4,659.2 634.5,685.2 649.2,685.1 
			649.1,659.1 		"/>
		<polygon class="st1" points="538.9,205.6 529.9,223.5 584.1,223.5 602.8,259.9 647.3,259.9 617.8,205.6 		"/>
		<polygon class="st1" points="470.4,283.3 496.5,283.3 478.8,330.1 465.6,330.1 471.6,348.2 513.6,348.2 536.6,283.3 591.7,283.3 
			591.7,329.6 568.7,329.6 568.7,329.7 579.8,348.2 630.6,348.2 630.6,264.9 470.4,264.9 		"/>
		<polygon class="st1" points="533.3,205.6 491.6,205.6 460.1,260.6 503.8,260.6 		"/>
		<path class="st1" d="M245.5,212.9h41.4l-11.2,127.7h-41.4L245.5,212.9z"/>
		<path class="st1" d="M319.7,334.8h-32l6.2-32.2h31.5L319.7,334.8z"/>
		<path class="st1" d="M444.1,213v15.3h-67.3l-4.2,30.7h68.6l-7.5,81.7H327.2v-15.3h66.7l5.7-51.1H331l7.1-61.4L444.1,213L444.1,213
			L444.1,213z"/>
	</g>
	<g>
		<g>
			<path class="st3" d="M502.9,402c0,1.3-0.3,3.3-1,6c-0.7,2.7-1,4.7-1,6c0,1.9,0.6,3.6,1.7,5.3c1.5,0.6,6.2,1.4,14,2.5
				c5.8,0.7,9.9,2.5,12.3,5.3c0.9,9.3,1.4,19.6,1.4,30.8c0,10.6-1.2,35.1-3.6,73.4c-0.2,1.9-1.2,3.5-3.1,4.9
				c-1.9,1.4-5.5,2.4-10.8,3.1c-5.3,0.7-9.1,1.8-11.4,3.5c0.2,1.5-0.1,3.8-0.8,7c-0.8,3.2-1.1,5.3-1.1,6.4c0,3.2,1.6,5.4,4.8,6.7
				c41.1-2.1,78.4-1.9,111.9,0.6c2.4-0.7,3.9-2,4.5-3.6c0-1.1,0.3-2.9,0.8-5.5c0.6-2.5,0.8-4.4,0.8-5.7c0-2.8-1-5.1-3.1-7
				c-2.4-0.9-7-2.1-13.7-3.4c-6-1.1-10.6-2.4-13.7-3.9c1.9-69.8,3.4-110.9,4.5-123.2c0.2-0.2,2.2-2.9,6.2-8.1
				c2.6-3.2,3.9-6.1,3.9-8.7c0-1.3-0.4-2.7-1.1-4.1c-0.7-1.4-1.5-2.2-2.2-2.4c-3,0.4-19.7,2.5-50.2,6.4
				C532.5,397.1,515.8,399.6,502.9,402z"/>
			<path class="st3" d="M199.2,499.6c18.9-4.7,32-14.7,39.3-30.2c4.7-10.1,7-21,7-32.7c0-15.3-3.9-27.6-11.8-36.9
				c-6-7.1-16.5-11.6-31.7-13.4c-59.5,2.4-107.8,2.4-145,0c-2.6,1.1-3.9,3.3-3.9,6.4c0,0.7,0.2,2.8,0.6,6.2c0.4,2.6,0.4,4.7,0,6.2
				c1.3,2.8,4.4,4.8,9.3,5.9c6,1.5,9.8,2.9,11.5,4.2c0,19.4-0.1,38.9-0.3,58.4c0,22.7-0.5,42.1-1.4,58.2c-0.2,3.2-2.2,5.4-5.9,6.6
				c-3.7,1.2-7.3,2.4-10.7,3.5c-1.7,4.3-2.5,8.5-2.5,12.6c0,3.5,0.7,6.4,2.2,8.7c12.2,0.6,33.4,0.7,63.7,0.3
				c27.1-0.4,48.3,0.1,63.7,1.4c1.1,0.2,2.2-0.1,3.2-0.7c1-0.6,2-1.3,2.9-2.1c3-9.3,4.5-14.1,4.5-14.3c0-1.6-0.4-3.3-1.1-4.8
				c-21.1-3.9-34.7-6.2-40.7-6.7c-0.4-0.4-1.5-1-3.4-2c-1.9-0.9-3-2-3.4-3.1c-1.3-5.4-2-10.3-2-14.5c0-5.2,1-9.4,3.1-12.6
				C174.7,502.8,192.2,501.3,199.2,499.6z M145.7,477.2c0.1-1,0-1.6-0.4-1.8l0.6-31.7c0-12.7,0.7-22.9,2-30.5
				c4.1-2.4,8.2-2.7,12.3-0.8c5,2.4,8.9,6.3,11.5,11.5c2.8,7.7,4.2,15.3,4.2,23c0,9.7-2.4,17.5-7.3,23.2c-5.8,7.1-13.1,10-21.9,8.7
				C146,478.8,145.6,478.3,145.7,477.2z"/>
			<path class="st3" d="M487.8,544.9c-0.9-1.1-2.9-2.2-5.9-3.2c-3-1-5-2.3-6.2-3.8c-18.3-23.5-37.3-50.7-56.9-81.5
				c7.7-13.3,21.1-28.1,40.4-44.5c0.7-0.4,4.3-1.6,10.7-3.6c4.1-1.3,6.9-3.4,8.4-6.2c0.7-2.4,1.1-5,1.1-7.8c0-3-0.4-5.6-1.1-7.8
				c-1.1-1.3-2.6-2-4.5-2c-0.8,0-2.3,0.4-4.8,1.1c-2.4,0.7-4.3,1-5.6,0.8c-1.3,0.4-3.1,0.4-5.3,0h-9c-5.2,0.4-11.8,0.4-19.6,0h-18.8
				c-1.1,1.9-1.3,6.8-0.6,14.8c0,0.9,0.6,2.1,1.8,3.6c1.2,1.5,1.8,2.6,1.8,3.3c0,0.7-0.3,1.5-0.8,2.2c-12.3,15.1-25.9,30-40.7,44.9
				c-1.1,0.2-2.9,0.9-5.5,2.1c-2.5,1.2-4.4,1.8-5.7,1.8c-1.1,0-2.2-0.4-3.4-1.1c-0.8-5.6-0.8-12.6-0.3-21l1.7-21.3
				c1.3-2.8,4.5-4.9,9.5-6.4c5-1.5,8.3-3.3,9.8-5.3c0.2-0.9,0.7-2.8,1.4-5.6c0.7-2.8,1.1-4.9,1.1-6.4c0-3-1.3-5.2-3.9-6.7
				c-19.8,1.5-39.5,2.2-58.9,2.2c-15.6,0-31.2-0.4-46.8-1.1c0,0.6-0.3,0.8-0.8,0.8c-2.8,1.1-4.2,3.6-4.2,7.5c0,1.1,0.1,2.8,0.3,5.2
				c0.2,2.3,0.3,4.1,0.3,5.2c1.5,2.1,4.8,3.5,9.8,4.3c5,0.8,8.3,2.4,9.8,4.6c1.5,30.7,0.7,70.7-2.5,120.1c-1.5,3.2-5,6-10.7,8.4
				c-3.9,0.6-6.2,2.9-6.7,7c-0.2,1.1-0.2,4.6,0,10.3c1.9,1.9,3.2,3,3.9,3.3c49-1.1,83.8-1,104.3,0.3c3-1.9,4.5-7.7,4.5-17.6
				c-0.9-3.7-4.3-5.9-10.1-6.4c-6.5-0.7-10.7-2.5-12.3-5.3c-1.3-6-1.8-13.4-1.4-22.3c0.2-7.6,0.5-15.3,0.8-22.9
				c1.3-3,2.2-4.7,2.7-5.2c0.5-0.5,1.1-0.7,1.8-0.7c0.4,0,2.1,0.9,5.3,2.8c17.4,31.6,30.8,57.4,40.4,77.6c29-2.8,53.5-2.9,73.5-0.3
				c0.4,0.2,0.9,0.1,1.5-0.3c0.7-0.4,1.2-0.6,1.5-0.6c0.2-0.9,1.1-3.7,2.8-8.4C487.1,550.3,487.8,547.3,487.8,544.9z"/>
			<path class="st3" d="M803.1,420.8c-0.2-0.7-0.3-1.5-0.3-2.2c0-1.9,1.5-3.2,4.5-3.9c3.7-0.7,6-1.7,6.7-2.8c4.7-9.3,7-15,7-17.1
				c0-1.5-0.3-3-0.8-4.5c-0.9,0-1.6-0.1-2-0.3c-12,2.4-30.8,2.9-56.4,1.4c-26.9-1.5-46.2-1.3-57.8,0.6c-20.4,3-36.4,11.3-48,24.9
				c-12.3,18.7-18.5,40.7-18.5,66.1c0,21.5,4.7,40.3,14,56.6c14.2,19.4,37.8,29.1,70.7,29.1c11.4,0,24.1-1.2,38.1-3.6
				c11.2-1.9,21.9-6.8,32.1-14.7c10.2-7.9,16.8-17.1,19.8-27.6c6.2-21.7,9.3-39.6,9.3-53.8C821.6,448.1,815.4,432,803.1,420.8z
				 M742.8,534.8c-4.9,5.8-9.4,8.7-13.5,8.7c-3.7,0-7.3-1.4-10.7-4.2c-9.4-15.3-14-34-14-56c0-12.9,1.6-27.3,4.8-43.1
				c2.4-12.5,8.5-20,18.2-22.4c6.9,0.2,12.1,3.7,15.7,10.6l6.7,19c2.2,11.4,3.4,22.7,3.4,33.9C753.4,501.3,749.9,519.1,742.8,534.8z
				"/>
			<g>
				<polygon class="st4" points="236.6,665.9 236.4,614.2 221.7,614.3 222,679.7 266.4,679.5 266.4,665.7 				"/>
				<path class="st4" d="M296.3,612.5h-0.2c-11,0-19.5,4.1-25.3,12.2c-4.4,6.2-6.6,13.7-6.6,22.2c0,8.5,2.3,15.9,6.9,22.1
					c5.8,8,14.2,12,25.1,12h0.2c11,0,19.5-4.2,25.3-12.2c4.4-6.2,6.6-13.6,6.6-22.2c0-8.5-2.3-15.9-6.9-22.1
					C315.7,616.5,307.2,612.5,296.3,612.5z M284,661.8c-3.2-3.8-4.8-8.7-4.8-15c0-6.3,1.5-11.2,4.7-15.1c3-3.7,7-5.5,12.3-5.5l0-3.4
					l0.1,3.4c5.2,0,9.3,1.8,12.4,5.5c3.1,3.7,4.7,8.7,4.7,14.9c0,6.3-1.5,11.2-4.7,15.1c-3,3.7-7,5.5-12.4,5.5
					C291.1,667.2,287,665.4,284,661.8z"/>
				<polygon class="st4" points="380.2,613.7 325.7,613.9 325.8,627.7 345.7,627.6 345.9,679.2 360.6,679.2 360.4,627.5 
					380.2,627.5 				"/>
				<polygon class="st4" points="435.8,613.5 381.3,613.7 381.4,627.5 401.3,627.4 401.5,679 416.2,679 416,627.3 435.8,627.3 				
					"/>
				<polygon class="st4" points="452.1,665 452,652.2 484.2,652.1 484.1,638.3 452,638.4 451.9,627.2 486.8,627.1 486.7,613.3 
					437.2,613.5 437.5,678.9 487.6,678.7 487.5,664.9 				"/>
				<path class="st4" d="M513.5,613.2l-24.4,65.5l15.5,0l6-17.1l18.8-0.1l5.9,17l15.9,0l-24-65.3L513.5,613.2z M515.4,647.7
					l4.6-12.4l4.2,12.3L515.4,647.7z"/>
				<path class="st4" d="M606.1,670.6c-0.7-0.4-1-0.7-1-0.7h0c0-0.1-0.2-0.6-0.2-2.2v-0.1l-0.5-10.6c0-4.4-1.1-7.9-3.1-10.2
					c-0.3-0.4-0.7-0.7-1.1-1.1c0.8-0.8,1.5-1.5,2.1-2.3c2.2-3,3.2-6.8,3.2-11.4c0-6.9-2.6-12.1-7.6-15.4c-3.7-2.4-8.8-3.7-14.9-3.7
					l-30.7,0.1l0.3,65.4l14.7-0.1l-0.1-25.2l16-0.1c3,0,5,0.7,6,2c0.4,0.5,1,1.9,1,5.1c0,2.4,0.1,5.1,0.4,8c0.2,3.2,0.6,5.7,1.2,7.6
					l0.7,2.4l15.6-0.1l0-6.7L606.1,670.6z M566.9,639.7l0-13.2l16.4-0.1l0.1-3.4l0,0v3.4c2.1,0,3.8,0.3,5,1c0.5,0.3,2.1,1.3,2.2,5.3
					c0,4.1-1.6,5.2-2.2,5.5c-0.9,0.6-2.7,1.3-6.4,1.3L566.9,639.7z"/>
				<polygon class="st4" points="666.9,612.6 649.5,612.7 634.7,637.7 619.7,612.8 602.4,612.9 627.4,652.2 627.5,678.2 
					642.2,678.1 642.1,652.1 				"/>
			</g>
			<polygon class="st5" points="531.9,198.6 522.9,216.5 577.1,216.5 595.8,252.9 640.3,252.9 610.8,198.6 			"/>
			<polygon class="st5" points="463.4,276.3 489.5,276.3 471.8,323.1 458.6,323.1 464.6,341.2 506.6,341.2 529.6,276.3 584.7,276.3 
				584.7,322.6 561.7,322.6 561.7,322.7 572.8,341.2 623.6,341.2 623.6,257.9 463.4,257.9 			"/>
			<polygon class="st5" points="526.3,198.6 484.6,198.6 453.1,253.6 496.8,253.6 			"/>
			<path class="st5" d="M238.5,205.9h41.4l-11.2,127.7h-41.4L238.5,205.9z"/>
			<path class="st5" d="M312.7,327.8h-32l6.2-32.2h31.5L312.7,327.8z"/>
			<path class="st5" d="M437.1,206v15.3h-67.3l-4.2,30.7h68.6l-7.5,81.7H320.2v-15.3h66.7l5.7-51.1H324l7.1-61.4L437.1,206
				L437.1,206L437.1,206z"/>
		</g>
	</g>
</g>
</svg>
