<?xml version="1.0" encoding="utf-8"?>
<!-- Generator: Adobe Illustrator 21.1.0, SVG Export Plug-In . SVG Version: 6.00 Build 0)  -->
<svg version="1.1" id="图层_1" xmlns="http://www.w3.org/2000/svg" xmlns:xlink="http://www.w3.org/1999/xlink" x="0px" y="0px"
	 viewBox="0 0 880 896.3" style="enable-background:new 0 0 880 896.3;" xml:space="preserve">
<style type="text/css">
	.st0{fill:#E15421;}
	.st1{fill:#942D07;}
	.st2{opacity:0.75;}
	.st3{fill:#F6E761;}
	.st4{fill:#F9DDD3;}
	.st5{fill:#FFFFFF;}
</style>
<path class="st0" d="M533.7,886C771,833.3,921.5,594.6,869.8,352.8S583.7-42.3,346.3,10.4S-41.5,301.8,10.2,543.6
	S296.3,938.6,533.7,886z"/>
<ellipse class="st1" cx="409.1" cy="431" rx="371.8" ry="384"/>
<ellipse class="st0" cx="384.6" cy="407.7" rx="331.8" ry="342.6"/>
<g>
	<g class="st2">
		<polygon class="st1" points="529.1,146.7 533.3,179.1 572,164.4 580.6,127.5 568.7,132.1 566.4,103 497.6,129.3 490.1,161.5 		"/>
		<polygon class="st1" points="494.7,132 460.3,145.1 445.9,179 433.7,183.6 425,220.5 465.6,205 		"/>
		<polygon class="st1" points="431.1,287.1 411.3,294.6 403.1,329.7 453.3,310.5 487.6,228.9 521.7,215.9 512.2,256.1 477.2,269.5 
			470.8,303.7 540.4,277.1 565.7,168.9 431.5,220.2 423.7,253.3 451,242.9 		"/>
		<polygon class="st1" points="416.2,219.3 266.6,276.5 258.4,311.5 408,254.4 		"/>
	</g>
	<g>
		<g>
			<polygon class="st3" points="522.1,139.7 526.3,172.1 565,157.4 573.6,120.5 561.7,125.1 559.4,96 490.6,122.3 483.1,154.5 			
				"/>
			<polygon class="st3" points="487.7,125 453.3,138.1 438.9,172 426.7,176.6 418,213.5 458.6,198 			"/>
			<polygon class="st3" points="424.1,280.1 404.3,287.6 396.1,322.7 446.3,303.5 480.6,221.9 514.7,208.9 505.2,249.1 470.2,262.5 
				463.8,296.7 533.4,270.1 558.7,161.9 424.5,213.2 416.7,246.3 444,235.9 			"/>
			<polygon class="st3" points="409.2,212.3 259.6,269.5 251.4,304.5 401,247.4 			"/>
		</g>
	</g>
</g>
<g>
	<g class="st2">
		<path class="st1" d="M238.3,707.4l-0.8,0c0.2-9.4,3.2-34.9-1.8-40.4l-13.9,5c-0.2,0.6-0.5,1.1-0.8,1.7l0.2,52.7
			c13.4-4.7,26.8-9.4,40.2-14.1c0-4.4,0-8.9-0.1-13.2C253.6,701.9,245.9,704.7,238.3,707.4z"/>
		<path class="st1" d="M292.4,645.5c-16,8.8-36.2,18.3-29.4,46.2c1.5,6,2.7,10.9,7.4,13.2C303.5,721.5,338.1,643.4,292.4,645.5z
			 M281.9,691.6c-3.9-5.4-6.2-16.6-1.7-23.9c2.1-4.6,5.1-5.7,9-8.2l4.1,0c0.6,0.3,1.1,0.6,1.7,0.8
			C302.6,672.6,297.5,691.5,281.9,691.6z"/>
		<path class="st1" d="M398.3,607.5c-28.4,10.5-56.8,21-85.2,31.5l0,14c5.2-1.9,10.4-3.9,15.6-5.8l0.1,40.4l15.6-5l-0.1-41.2
			c8.4-3.1,16.9-6.1,25.4-9.2l0.1,40.4l13.9-5c14.2-11.9-15.8-38,17.9-47c0-4.3,0-8.8,0.1-13.1L398.3,607.5z"/>
		<path class="st1" d="M420.4,642.6l-0.8,0c-0.7-14.1,12.1-16.8,22.9-18.1c0.2-4.1,0.5-8.2,0.7-12.3c-7.8,3.1-15.8,6.1-23.7,9.1
			l0-9.1c8.4-2.7,16.9-5.5,25.4-8.3c-0.2-4.1-0.6-8.2-0.8-12.3c-13.4,5-26.8,9.9-40.2,15l0.2,54.4c13.9-5,27.9-9.9,41.8-15
			c0-4.1,0-8.2-0.1-12.5C437.4,636.6,428.9,639.6,420.4,642.6z"/>
		<path class="st1" d="M463.8,616.3c1.7-0.2,3.3-0.6,5-0.8c3.7,5.8,7.2,11.5,10.8,17.3c5.7-1.9,11.5-3.9,17.2-5.8
			c0.8-5.3-7.3-17.6-14-18.9c5.1-6.1,13.4-12.5,9.8-24.8c-1.4-3-2-3.7-5-5c-1.9-0.2-3.9-0.5-5.7-0.8c-11.3,3.9-22.4,7.7-33.7,11.6
			l0.2,55.3c5.2-1.9,10.4-3.9,15.6-5.8L463.8,616.3z M472.8,591.6l3.2,0l1.7,5c-3,5.3-6.9,6.9-13.1,9.1c-0.2-3.7-0.6-7.2-0.8-10.8
			C466.9,593.8,469.8,592.7,472.8,591.6z"/>
		<path class="st1" d="M545.7,553.5c-4.6,1.9-9.3,3.9-13.9,5.8c-5.1,3-9,14.7-10.7,20.7c-0.6,0.2-1.1,0.6-1.7,0.8
			c-3-4.7-6.1-9.3-9.1-14c-5.5,1.9-10.9,3.9-16.4,5.8c-0.2,0.6-0.5,1.1-0.8,1.7c12.5,11.2,19.6,21,19.1,46.1l15.6-5l-0.1-23.9
			C530.1,584.6,548.3,557.3,545.7,553.5z"/>
	</g>
	<g>
		<g>
			<path class="st4" d="M231.3,700.4l-0.8,0c0.2-9.4,3.2-34.9-1.8-40.4l-13.9,5c-0.2,0.6-0.5,1.1-0.8,1.7l0.2,52.7
				c13.4-4.7,26.8-9.4,40.2-14.1c0-4.4,0-8.9-0.1-13.2C246.6,694.9,238.9,697.7,231.3,700.4z"/>
			<path class="st4" d="M285.4,638.5c-16,8.8-36.2,18.3-29.4,46.2c1.5,6,2.7,10.9,7.4,13.2C296.5,714.5,331.1,636.4,285.4,638.5z
				 M274.9,684.6c-3.9-5.4-6.2-16.6-1.7-23.9c2.1-4.6,5.1-5.7,9-8.2l4.1,0c0.6,0.3,1.1,0.6,1.7,0.8
				C295.6,665.6,290.5,684.5,274.9,684.6z"/>
			<path class="st4" d="M391.3,600.5c-28.4,10.5-56.8,21-85.2,31.5l0,14c5.2-1.9,10.4-3.9,15.6-5.8l0.1,40.4l15.6-5l-0.1-41.2
				c8.4-3.1,16.9-6.1,25.4-9.2l0.1,40.4l13.9-5c14.2-11.9-15.8-38,17.9-47c0-4.3,0-8.8,0.1-13.1L391.3,600.5z"/>
			<path class="st4" d="M413.4,635.6l-0.8,0c-0.7-14.1,12.1-16.8,22.9-18.1c0.2-4.1,0.5-8.2,0.7-12.3c-7.8,3.1-15.8,6.1-23.7,9.1
				l0-9.1c8.4-2.7,16.9-5.5,25.4-8.3c-0.2-4.1-0.6-8.2-0.8-12.3c-13.4,5-26.8,9.9-40.2,15l0.2,54.4c13.9-5,27.9-9.9,41.8-15
				c0-4.1,0-8.2-0.1-12.5C430.4,629.6,421.9,632.6,413.4,635.6z"/>
			<path class="st4" d="M456.8,609.3c1.7-0.2,3.3-0.6,5-0.8c3.7,5.8,7.2,11.5,10.8,17.3c5.7-1.9,11.5-3.9,17.2-5.8
				c0.8-5.3-7.3-17.6-14-18.9c5.1-6.1,13.4-12.5,9.8-24.8c-1.4-3-2-3.7-5-5c-1.9-0.2-3.9-0.5-5.7-0.8c-11.3,3.9-22.4,7.7-33.7,11.6
				l0.2,55.3c5.2-1.9,10.4-3.9,15.6-5.8L456.8,609.3z M465.8,584.6l3.2,0l1.7,5c-3,5.3-6.9,6.9-13.1,9.1c-0.2-3.7-0.6-7.2-0.8-10.8
				C459.9,586.8,462.8,585.7,465.8,584.6z"/>
			<path class="st4" d="M538.7,546.5c-4.6,1.9-9.3,3.9-13.9,5.8c-5.1,3-9,14.7-10.7,20.7c-0.6,0.2-1.1,0.6-1.7,0.8
				c-3-4.7-6.1-9.3-9.1-14c-5.5,1.9-10.9,3.9-16.4,5.8c-0.2,0.6-0.5,1.1-0.8,1.7c12.5,11.2,19.6,21,19.1,46.1l15.6-5l-0.1-23.9
				C523.1,577.6,541.3,550.3,538.7,546.5z"/>
		</g>
	</g>
</g>
<g>
	<g class="st2">
		<path class="st1" d="M517.4,387.8c13.4-5.2,26.8-10.5,40.2-15.7c8.5-15.2,16.8-30.3,25.3-45.4c0.6-0.2,1.1-0.6,1.7-0.8l0.1,34.6
			c13.6-5.2,27.3-10.5,40.9-15.7l-0.1-40.4c-12.6,5-25.2,9.9-37.7,14.9c12.4-25.3,75.6-27.2,97.5-45.6c3.6-7.1,7.1-14.3,10.7-21.4
			c3.1-6,6-12.1,9-18.1c-14.6,5.8-29,11.6-43.5,17.4c-1.9,3.7-3.8,7.2-5.7,10.8c-29,11.3-57.9,22.6-86.8,33.9
			C551.7,326.7,534.6,357.3,517.4,387.8z"/>
		<path class="st1" d="M636.6,464.9c3-29.4,5.9-58.8,8.8-88.2c6-2.7,12-5.5,18-8.2c2.7-8.9,5.4-17.7,8.1-26.4l-2.4,0l-51.6,20.7
			c1.1-3.7,2.2-7.2,3.3-10.8c-14.8,5.6-29.5,11-44.3,16.6c-1.6,4.4-3.3,8.8-4.9,13.2c-18.3,7.1-36.6,14.4-55,21.5
			c-2.6,8.9-5.4,17.7-8.1,26.4c5.7-2.1,11.5-4.4,17.2-6.6L471,530.5c13.6-5.2,27.3-10.5,40.9-15.7c14.7-28.9,29.3-57.8,44-86.6
			c0.6-0.2,1.1-0.6,1.7-0.8c-9,27.5-17.8,55-26.8,82.5l0,0.8c14.8-5.8,29.5-11.6,44.2-17.4c8.6-27.4,17.4-55,26.2-82.6
			c-1.6,23.3-3.2,46.7-4.8,70C609.8,475.4,623.3,470.2,636.6,464.9z"/>
		<path class="st1" d="M489.4,393.8c6.8-2.7,13.7-5.5,20.5-8.3c5.7-16,11.4-31.9,17.1-47.9c-6.3,2.5-12.6,5-18.9,7.5l-0.8,0
			c4.4-12.7,8.7-25.3,13-38l-1.7,0c-13.4,5.2-26.8,10.5-40.2,15.7c-4.4,12.9-8.7,25.9-13,38.8c-21.3,8.3-42.6,16.5-63.9,24.9
			c-5.5,15.4-10.8,30.8-16.3,46.2c20.9-7.7,41.6-15.5,62.3-23.2c-1.6,4.4-3.3,8.8-4.9,13.2c-0.2,7.4,4.7,16,0.8,25.5
			c-4.7,11.6-15.9,19.1-20.5,29.7c-2.4,6.3-4.9,12.7-7.3,19c-9.4,3.9-18.6,7.7-27.9,11.6c-9.3,7-13.3,34.2-17.9,45.4
			c21.1-8.3,42-16.6,63.1-24.9C450.4,516.3,482.7,421.4,489.4,393.8z"/>
		<path class="st1" d="M419.8,428.5c-10.6,5.5-41.2,31.3-20.4,47C426.4,481.7,449.5,427.9,419.8,428.5z"/>
		<path class="st1" d="M681.2,282.9l-2.4,0l-39.4,15.7l0.1,40.4c13.4-5.2,26.8-10.5,40.2-15.7C680.1,309.8,680.6,296.3,681.2,282.9z
			"/>
		<path class="st1" d="M387.7,438.5c-4.1,1.3-8.2,2.8-12.3,4.1c7.3-20,14.7-40.1,22-60.2c2.2-3.4,8.7-5.5,13.1-6.6
			c1.9-5.6,3.8-11,5.7-16.5l-2.4,0c-25.4,9.9-50.8,19.9-76.4,29.8C316,449.6,294.6,510,273.1,570.5c26.3-9.9,52.4-19.9,78.7-29.8
			c11.9-33.9,23.9-67.6,35.8-101.5L387.7,438.5z M337.1,500.4c-2.2,3.4-8.3,5-12.2,6.6c-0.3,0-0.6,0-1,0.1
			c2.4-6.9,4.9-13.8,7.3-20.7c3.6-1.3,7.2-2.8,10.7-4.1l1.7,0C341.5,488.3,339.3,494.4,337.1,500.4z M358.3,441
			c-2.3,3.7-8.2,5-12.2,6.6l-0.8,0c2.1-6,4.3-12.1,6.5-18.1c2.6-3.7,8.2-4.2,12.2-6.6C365,426.8,360.8,437.1,358.3,441z"/>
		<path class="st1" d="M191,502.3c-3.9,1.3-7.6,2.8-11.5,4.1l-0.8,0c7.3-21,14.7-41.9,22-62.7c4.4-1.3,8.7-2.8,13.1-4.1l4.9-17.3
			c-26.3,10.3-52.4,20.4-78.7,30.7c-33.7,95-42.8,120.8-64.3,181.5c26.5-9.9,53-19.9,79.3-29.8C167.1,570.8,179,537,191,503.1
			L191,502.3z M144.6,564.5c-2.2,3.4-8.3,5-12.2,6.6c-0.3,0-0.6,0-1,0.1c2.4-6.9,4.9-13.8,7.3-20.7c3.6-1.3,7.2-2.8,10.7-4.1l1.7,0
			C149,552.3,146.8,558.5,144.6,564.5z M161.6,506.5c-4.4,1.7-8.7,3.3-13.1,5c2.4-6.9,4.9-13.8,7.3-20.7c3.5-1.4,7.1-2.8,10.7-4.1
			C168.8,490.1,163.2,501,161.6,506.5z"/>
		<path class="st1" d="M293.7,456c24-6.2,32.4-30.1,36.7-54.5c-6.5,2.5-13.1,5-19.6,7.5c4-12.9,8.1-25.9,12.1-38.8
			c-13.4,5.2-26.8,10.5-40.2,15.7c-4.9,13.2-9.8,26.4-14.7,39.6c-21.1,7.9-42,16-63.1,24c-5.5,15.4-10.8,30.8-16.3,46.2l0,0.8
			c20.7-7.9,41.5-16,62.2-24l-4.9,14c0.3,10.7,5,16.3-0.7,28.9c-4.2,9.3-13.3,15.6-17.9,23.9c-2.1,6.3-4.3,12.7-6.5,19
			c-4.6,6.4-22,11.1-30.3,13.3c-5.5,15.1-10.9,30.2-16.1,45.3c15.6-3.1,52.4-16.8,63.9-25.7C258.2,575.7,282.6,486.1,293.7,456z"/>
		<path class="st1" d="M235.4,494.8c-3.4-2.1-5.6-3.3-11.5-3.3c-10.1,5.8-41.4,31.2-20.4,47.1C225.7,543.1,243.3,515.4,235.4,494.8z
			"/>
		<path class="st1" d="M751.1,262.3c6-27.8,28-42.4,42.5-61.9l-2.4,0c-20.9,8.3-41.6,16.6-62.3,24.9c-4.4,7.4-8.7,14.9-13.1,22.3
			c-12.6,21.1-18.7,44.8-23.5,75.1c-6.6,40.6,9.2,64.2-7.1,98.9c-12,25.1-30.7,45-43.3,68.4c-3.5,6.6-10.8,19.9-5.7,28.9
			c2.6,5.3,41.9,22.8,49.3,25.4c-16.7,42.9-64,63.5-100.7,86.8c-43.6,27.6-107.6,87.3-124.3,139.5l79.4-31.5
			c12.3-65.4,63.9-92.9,109.6-125.5c19.6-16.6,39.3-33,59-49.6c12.6-10.2,27.8-22.9,35.1-38c15-31-52.2-32.7-43.8-82.4
			c3.3-18.9,12.6-32,18.8-47.9c2.1-8.2,4.3-16.5,6.4-24.8c7.7-15.1,23.9-25.4,31-42.9C766,303.3,745.7,286.2,751.1,262.3z"/>
	</g>
	<g>
		<g>
			<path class="st5" d="M510.4,380.8c13.4-5.2,26.8-10.5,40.2-15.7c8.5-15.2,16.8-30.3,25.3-45.4c0.6-0.2,1.1-0.6,1.7-0.8l0.1,34.6
				c13.6-5.2,27.3-10.5,40.9-15.7l-0.1-40.4c-12.6,5-25.2,9.9-37.7,14.9c12.4-25.3,75.6-27.2,97.5-45.6c3.6-7.1,7.1-14.3,10.7-21.4
				c3.1-6,6-12.1,9-18.1c-14.6,5.8-29,11.6-43.5,17.4c-1.9,3.7-3.8,7.2-5.7,10.8c-29,11.3-57.9,22.6-86.8,33.9
				C544.7,319.7,527.6,350.3,510.4,380.8z"/>
			<path class="st5" d="M629.6,457.9c3-29.4,5.9-58.8,8.8-88.2c6-2.7,12-5.5,18-8.2c2.7-8.9,5.4-17.7,8.1-26.4l-2.4,0l-51.6,20.7
				c1.1-3.7,2.2-7.2,3.3-10.8c-14.8,5.6-29.5,11-44.3,16.6c-1.6,4.4-3.3,8.8-4.9,13.2c-18.3,7.1-36.6,14.4-55,21.5
				c-2.6,8.9-5.4,17.7-8.1,26.4c5.7-2.1,11.5-4.4,17.2-6.6L464,523.5c13.6-5.2,27.3-10.5,40.9-15.7c14.7-28.9,29.3-57.8,44-86.6
				c0.6-0.2,1.1-0.6,1.7-0.8c-9,27.5-17.8,55-26.8,82.5l0,0.8c14.8-5.8,29.5-11.6,44.2-17.4c8.6-27.4,17.4-55,26.2-82.6
				c-1.6,23.3-3.2,46.7-4.8,70C602.8,468.4,616.3,463.2,629.6,457.9z"/>
			<path class="st5" d="M482.4,386.8c6.8-2.7,13.7-5.5,20.5-8.3c5.7-16,11.4-31.9,17.1-47.9c-6.3,2.5-12.6,5-18.9,7.5l-0.8,0
				c4.4-12.7,8.7-25.3,13-38l-1.7,0c-13.4,5.2-26.8,10.5-40.2,15.7c-4.4,12.9-8.7,25.9-13,38.8c-21.3,8.3-42.6,16.5-63.9,24.9
				c-5.5,15.4-10.8,30.8-16.3,46.2c20.9-7.7,41.6-15.5,62.3-23.2c-1.6,4.4-3.3,8.8-4.9,13.2c-0.2,7.4,4.7,16,0.8,25.5
				c-4.7,11.6-15.9,19.1-20.5,29.7c-2.4,6.3-4.9,12.7-7.3,19c-9.4,3.9-18.6,7.7-27.9,11.6c-9.3,7-13.3,34.2-17.9,45.4
				c21.1-8.3,42-16.6,63.1-24.9C443.4,509.3,475.7,414.4,482.4,386.8z"/>
			<path class="st5" d="M412.8,421.5c-10.6,5.5-41.2,31.3-20.4,47C419.4,474.7,442.5,420.9,412.8,421.5z"/>
			<path class="st5" d="M674.2,275.9l-2.4,0l-39.4,15.7l0.1,40.4c13.4-5.2,26.8-10.5,40.2-15.7C673.1,302.8,673.6,289.3,674.2,275.9
				z"/>
			<path class="st5" d="M380.7,431.5c-4.1,1.3-8.2,2.8-12.3,4.1c7.3-20,14.7-40.1,22-60.2c2.2-3.4,8.7-5.5,13.1-6.6
				c1.9-5.6,3.8-11,5.7-16.5l-2.4,0c-25.4,9.9-50.8,19.9-76.4,29.8C309,442.6,287.6,503,266.1,563.5c26.3-9.9,52.4-19.9,78.7-29.8
				c11.9-33.9,23.9-67.6,35.8-101.5L380.7,431.5z M330.1,493.4c-2.2,3.4-8.3,5-12.2,6.6c-0.3,0-0.6,0-1,0.1
				c2.4-6.9,4.9-13.8,7.3-20.7c3.6-1.3,7.2-2.8,10.7-4.1l1.7,0C334.5,481.3,332.3,487.4,330.1,493.4z M351.3,434
				c-2.3,3.7-8.2,5-12.2,6.6l-0.8,0c2.1-6,4.3-12.1,6.5-18.1c2.6-3.7,8.2-4.2,12.2-6.6C358,419.8,353.8,430.1,351.3,434z"/>
			<path class="st5" d="M184,495.3c-3.9,1.3-7.6,2.8-11.5,4.1l-0.8,0c7.3-21,14.7-41.9,22-62.7c4.4-1.3,8.7-2.8,13.1-4.1l4.9-17.3
				c-26.3,10.3-52.4,20.4-78.7,30.7c-33.7,95-42.8,120.8-64.3,181.5c26.5-9.9,53-19.9,79.3-29.8C160.1,563.8,172,530,184,496.1
				L184,495.3z M137.6,557.5c-2.2,3.4-8.3,5-12.2,6.6c-0.3,0-0.6,0-1,0.1c2.4-6.9,4.9-13.8,7.3-20.7c3.6-1.3,7.2-2.8,10.7-4.1l1.7,0
				C142,545.3,139.8,551.5,137.6,557.5z M154.6,499.5c-4.4,1.7-8.7,3.3-13.1,5c2.4-6.9,4.9-13.8,7.3-20.7c3.5-1.4,7.1-2.8,10.7-4.1
				C161.8,483.1,156.2,494,154.6,499.5z"/>
			<path class="st5" d="M286.7,449c24-6.2,32.4-30.1,36.7-54.5c-6.5,2.5-13.1,5-19.6,7.5c4-12.9,8.1-25.9,12.1-38.8
				c-13.4,5.2-26.8,10.5-40.2,15.7c-4.9,13.2-9.8,26.4-14.7,39.6c-21.1,7.9-42,16-63.1,24c-5.5,15.4-10.8,30.8-16.3,46.2l0,0.8
				c20.7-7.9,41.5-16,62.2-24l-4.9,14c0.3,10.7,5,16.3-0.7,28.9c-4.2,9.3-13.3,15.6-17.9,23.9c-2.1,6.3-4.3,12.7-6.5,19
				c-4.6,6.4-22,11.1-30.3,13.3c-5.5,15.1-10.9,30.2-16.1,45.3c15.6-3.1,52.4-16.8,63.9-25.7C251.2,568.7,275.6,479.1,286.7,449z"/>
			<path class="st5" d="M228.4,487.8c-3.4-2.1-5.6-3.3-11.5-3.3c-10.1,5.8-41.4,31.2-20.4,47.1C218.7,536.1,236.3,508.4,228.4,487.8
				z"/>
			<path class="st5" d="M744.1,255.3c6-27.8,28-42.4,42.5-61.9l-2.4,0c-20.9,8.3-41.6,16.6-62.3,24.9c-4.4,7.4-8.7,14.9-13.1,22.3
				c-12.6,21.1-18.7,44.8-23.5,75.1c-6.6,40.6,9.2,64.2-7.1,98.9c-12,25.1-30.7,45-43.3,68.4c-3.5,6.6-10.8,19.9-5.7,28.9
				c2.6,5.3,41.9,22.8,49.3,25.4c-16.7,42.9-64,63.5-100.7,86.8c-43.6,27.6-107.6,87.3-124.3,139.5l79.4-31.5
				c12.3-65.4,63.9-92.9,109.6-125.5c19.6-16.6,39.3-33,59-49.6c12.6-10.2,27.8-22.9,35.1-38c15-31-52.2-32.7-43.8-82.4
				c3.3-18.9,12.6-32,18.8-47.9c2.1-8.2,4.3-16.5,6.4-24.8c7.7-15.1,23.9-25.4,31-42.9C759,296.3,738.7,279.2,744.1,255.3z"/>
		</g>
	</g>
</g>
</svg>
