<?xml version="1.0" encoding="utf-8"?>
<!-- Generator: Adobe Illustrator 21.1.0, SVG Export Plug-In . SVG Version: 6.00 Build 0)  -->
<svg version="1.1" id="图层_1" xmlns="http://www.w3.org/2000/svg" xmlns:xlink="http://www.w3.org/1999/xlink" x="0px" y="0px"
	 viewBox="0 0 880 896.3" style="enable-background:new 0 0 880 896.3;" xml:space="preserve">
<style type="text/css">
	.st0{fill:#40A0B3;}
	.st1{fill:#1A5A66;}
	.st2{opacity:0.75;}
	.st3{fill:#F5DD39;}
	.st4{fill:#D9ECF0;}
	.st5{fill:#FFFFFF;}
</style>
<path class="st0" d="M533.7,886C771,833.3,921.5,594.6,869.8,352.8S583.7-42.3,346.3,10.4S-41.5,301.8,10.2,543.6
	S296.3,938.6,533.7,886z"/>
<ellipse class="st1" cx="409.1" cy="431" rx="371.8" ry="384"/>
<ellipse class="st0" cx="384.6" cy="407.7" rx="331.8" ry="342.6"/>
<g>
	<g class="st2">
		<path class="st1" d="M703.2,348c-74,0-134,61.3-134,136.9c0,75.6,60,136.9,134,136.9c74,0,133.9-61.3,133.9-136.9
			C837.1,409.3,777.1,348,703.2,348z M678.3,363.5c18.4,0,33.3,15.2,33.3,34s-14.9,34-33.3,34c-18.4,0-33.2-15.2-33.2-34
			C645,378.7,659.9,363.5,678.3,363.5z M669.9,608.9c-34.3,0-62.1-28.4-62.1-63.5c0-35.1,27.8-63.5,62.1-63.5
			c34.3,0,62.1,28.4,62.1,63.5C732,580.5,704.2,608.9,669.9,608.9z M786.6,517.8c-26.1,0-47.3-21.7-47.3-48.4
			c0-26.7,21.2-48.4,47.3-48.4c26.2,0,47.3,21.7,47.3,48.4C833.9,496.1,812.8,517.8,786.6,517.8z"/>
		<path class="st1" d="M505.3,310.2c0.3-5.3,3.4-7.8,9.1-7.6H526l0.2-2.4l12.6,39l-3.3,6.1c-2,3.6-4.8,5.4-8.6,5.4
			c-2,0-4.1-0.4-6.4-1.2l-0.8,7.9c2.8,1.8,6,2.7,9.8,2.7c8.6,0.6,15.7-5.3,21.4-17.6l23.9-48.4h-15.1l-12.3,30.3l-7.8-30.3h-12.8
			l0.1-0.9h-16.6c-11.4,0-17.8,5.6-18.9,16.9l-3.2,31.2h13.9L505.3,310.2z"/>
		<path class="st1" d="M460.2,341.9c9.7,0,17.5-2.7,23.4-8.2l1-9.7c-6.5,6-13.4,9.1-20.5,9.1c-8.8-0.4-13.6-4.2-14.2-11.5h35.5
			c2.4-19.4-5-28.8-22.3-28.4c-16,0.4-25.1,8.8-27.2,25.1C435.2,333.5,443.3,341.3,460.2,341.9z M462.8,302.3
			c7.1,0.2,10.4,3.6,9.9,10.3h-21.6C452.8,305.7,456.7,302.3,462.8,302.3z"/>
		<path class="st1" d="M411.1,303.5l-2.4,23.6c-1.2,9.9,3.1,14.7,13,14.5c4,0.1,7.8-1.2,11-3.6l0.8-7.9c-2.1,1.2-4.1,1.9-5.9,2.1
			c-4,0.4-5.6-1.8-4.9-6.7l2.3-22.1h10.4l0.9-9.1H426l2-19.4h-13.9l-2,19.4h-8l-0.9,9.1H411.1z"/>
		<path class="st1" d="M376.1,327.1c-1.2,9.9,3.1,14.7,13,14.5c4.1,0,7.8-1.2,11-3.6l0.8-7.9c-2.1,1.2-4,1.9-5.8,2.1
			c-4,0.4-5.6-1.8-4.9-6.7l2.3-22.1h10.4l0.9-9.1h-10.4l2-19.4h-13.9l-2,19.4h-8l-0.9,9.1h8L376.1,327.1z"/>
		<path class="st1" d="M340.8,341.6c16-0.6,25.2-8.6,27.3-23.9c1.1-16.1-6.3-24.4-22-24.8c-16.1,0.6-25.3,8.9-27.7,24.8
			C317.6,332.9,325,340.8,340.8,341.6z M332.8,317.7c1.1-10.3,5-15.4,12-15.4c6.9,0.2,9.9,5.4,9.1,15.4c-1,10.1-5.1,15.1-12.2,15.1
			C335,332.7,332,327.6,332.8,317.7z"/>
		<polygon class="st1" points="314.4,331.9 281.3,331.9 287.1,275.4 272.9,275.4 266.2,340.4 313.6,340.4 		"/>
		<polygon class="st1" points="469,366.1 411.4,366.1 293.7,484.8 305.9,366.1 262.2,366.1 238,601.4 281.7,601.4 288,540.4 
			333,496.8 399,601.4 451.2,601.4 364.9,466.3 		"/>
		<path class="st1" d="M232.3,340.4l0.8-7.6c-7.5-3.4-11.7-8.6-12.6-15.6H207C209,329.5,217.4,337.3,232.3,340.4z"/>
		<polygon class="st1" points="241,266 208,266 208.5,260.5 192.9,260.5 192.3,266 159.6,266 158.7,275.1 240.1,275.1 		"/>
		<path class="st1" d="M182.8,317.2h-13.9c-2.4,7.3-7.6,12.5-15.5,15.6l-0.8,7.6C168.2,337.3,178.2,329.5,182.8,317.2z"/>
		<path class="st1" d="M123,341.9h23.8l0.9-8.7H131c-3.6,0.2-5.1-1.5-4.5-5.1l3.8-36.7H152l1-9.4h-21.7l2.2-21.4h-14.2l-7.2,70.1
			C111.5,337.9,115.2,341.6,123,341.9z"/>
		<path class="st1" d="M102.1,330.6l7.2-70.1H95.1L92.9,282H71.2l-1,9.4h21.7l-3.7,36.3c-0.2,3.9-2,5.7-5.5,5.4H65.9l-0.9,8.7h23.8
			C96.9,341.9,101.3,338.1,102.1,330.6z"/>
		<path class="st1" d="M181.3,335h-3.2l-0.9,8.4h10c8.5,0,13.2-3.9,14-11.6l2-19.6h12.1c9,0.2,13.8-4.1,14.5-13.1l1.8-17.8h-65
			l-3.2,30.9H189l-1.8,17.8C187.1,333.3,185.1,335,181.3,335z M177.1,303l1.3-13.1h39.1l-0.9,8.4c-0.1,3.4-1.7,5-4.8,4.7H177.1z"/>
		<path class="st1" d="M164.8,367.2H64.6L40.5,601.4h43.7l8.7-85h55.4c56,1.5,85.9-23.6,89.8-75.2
			C243.3,391.9,218.8,367.2,164.8,367.2z M193.5,441.2c-1.9,32-18.7,47.2-50.6,45.8H96l9.4-91.5h46.9
			C183.7,394.8,197.4,410,193.5,441.2z"/>
		<path class="st1" d="M441.1,435.8l-2.6,25.1c31.9-6.5,57.2-17.1,75.7-31.6l-17.7,172.1h43.7l24.2-235.3h-43.7
			C505,395.9,478.4,419.1,441.1,435.8z"/>
	</g>
	<g>
		<g>
			<path class="st3" d="M696.2,341c-74,0-134,61.3-134,136.9c0,75.6,60,136.9,134,136.9c74,0,133.9-61.3,133.9-136.9
				C830.1,402.3,770.1,341,696.2,341z M671.3,356.5c18.4,0,33.3,15.2,33.3,34s-14.9,34-33.3,34c-18.4,0-33.2-15.2-33.2-34
				C638,371.7,652.9,356.5,671.3,356.5z M662.9,601.9c-34.3,0-62.1-28.4-62.1-63.5c0-35.1,27.8-63.5,62.1-63.5
				c34.3,0,62.1,28.4,62.1,63.5C725,573.5,697.2,601.9,662.9,601.9z M779.6,510.8c-26.1,0-47.3-21.7-47.3-48.4
				c0-26.7,21.2-48.4,47.3-48.4c26.2,0,47.3,21.7,47.3,48.4C826.9,489.1,805.8,510.8,779.6,510.8z"/>
			<path class="st4" d="M498.3,303.2c0.3-5.3,3.4-7.8,9.1-7.6H519l0.2-2.4l12.6,39l-3.3,6.1c-2,3.6-4.8,5.4-8.6,5.4
				c-2,0-4.1-0.4-6.4-1.2l-0.8,7.9c2.8,1.8,6,2.7,9.8,2.7c8.6,0.6,15.7-5.3,21.4-17.6l23.9-48.4h-15.1l-12.3,30.3l-7.8-30.3h-12.8
				l0.1-0.9h-16.6c-11.4,0-17.8,5.6-18.9,16.9l-3.2,31.2h13.9L498.3,303.2z"/>
			<path class="st4" d="M453.2,334.9c9.7,0,17.5-2.7,23.4-8.2l1-9.7c-6.5,6-13.4,9.1-20.5,9.1c-8.8-0.4-13.6-4.2-14.2-11.5h35.5
				c2.4-19.4-5-28.8-22.3-28.4c-16,0.4-25.1,8.8-27.2,25.1C428.2,326.5,436.3,334.3,453.2,334.9z M455.8,295.3
				c7.1,0.2,10.4,3.6,9.9,10.3h-21.6C445.8,298.7,449.7,295.3,455.8,295.3z"/>
			<path class="st4" d="M404.1,296.5l-2.4,23.6c-1.2,9.9,3.1,14.7,13,14.5c4,0.1,7.8-1.2,11-3.6l0.8-7.9c-2.1,1.2-4.1,1.9-5.9,2.1
				c-4,0.4-5.6-1.8-4.9-6.7l2.3-22.1h10.4l0.9-9.1H419l2-19.4h-13.9l-2,19.4h-8l-0.9,9.1H404.1z"/>
			<path class="st4" d="M369.1,320.1c-1.2,9.9,3.1,14.7,13,14.5c4.1,0,7.8-1.2,11-3.6l0.8-7.9c-2.1,1.2-4,1.9-5.8,2.1
				c-4,0.4-5.6-1.8-4.9-6.7l2.3-22.1h10.4l0.9-9.1h-10.4l2-19.4h-13.9l-2,19.4h-8l-0.9,9.1h8L369.1,320.1z"/>
			<path class="st4" d="M333.8,334.6c16-0.6,25.2-8.6,27.3-23.9c1.1-16.1-6.3-24.4-22-24.8c-16.1,0.6-25.3,8.9-27.7,24.8
				C310.6,325.9,318,333.8,333.8,334.6z M325.8,310.7c1.1-10.3,5-15.4,12-15.4c6.9,0.2,9.9,5.4,9.1,15.4c-1,10.1-5.1,15.1-12.2,15.1
				C328,325.7,325,320.6,325.8,310.7z"/>
			<polygon class="st4" points="307.4,324.9 274.3,324.9 280.1,268.4 265.9,268.4 259.2,333.4 306.6,333.4 			"/>
			<polygon class="st5" points="462,359.1 404.4,359.1 286.7,477.8 298.9,359.1 255.2,359.1 231,594.4 274.7,594.4 281,533.4 
				326,489.8 392,594.4 444.2,594.4 357.9,459.3 			"/>
			<g>
				<path class="st4" d="M225.3,333.4l0.8-7.6c-7.5-3.4-11.7-8.6-12.6-15.6H200C202,322.5,210.4,330.3,225.3,333.4z"/>
				<g>
					<polygon class="st4" points="234,259 201,259 201.5,253.5 185.9,253.5 185.3,259 152.6,259 151.7,268.1 233.1,268.1 					"/>
					<path class="st4" d="M175.8,310.2h-13.9c-2.4,7.3-7.6,12.5-15.5,15.6l-0.8,7.6C161.2,330.3,171.2,322.5,175.8,310.2z"/>
					<path class="st4" d="M116,334.9h23.8l0.9-8.7H124c-3.6,0.2-5.1-1.5-4.5-5.1l3.8-36.7H145l1-9.4h-21.7l2.2-21.4h-14.2l-7.2,70.1
						C104.5,330.9,108.2,334.6,116,334.9z"/>
					<path class="st4" d="M95.1,323.6l7.2-70.1H88.1L85.9,275H64.2l-1,9.4h21.7l-3.7,36.3c-0.2,3.9-2,5.7-5.5,5.4H58.9l-0.9,8.7
						h23.8C89.9,334.9,94.3,331.1,95.1,323.6z"/>
					<path class="st4" d="M174.3,328h-3.2l-0.9,8.4h10c8.5,0,13.2-3.9,14-11.6l2-19.6h12.1c9,0.2,13.8-4.1,14.5-13.1l1.8-17.8h-65
						l-3.2,30.9H182l-1.8,17.8C180.1,326.3,178.1,328,174.3,328z M170.1,296l1.3-13.1h39.1l-0.9,8.4c-0.1,3.4-1.7,5-4.8,4.7H170.1z"
						/>
				</g>
			</g>
			<path class="st5" d="M157.8,360.2H57.6L33.5,594.4h43.7l8.7-85h55.4c56,1.5,85.9-23.6,89.8-75.2
				C236.3,384.9,211.8,360.2,157.8,360.2z M186.5,434.2c-1.9,32-18.7,47.2-50.6,45.8H89l9.4-91.5h46.9
				C176.7,387.8,190.4,403,186.5,434.2z"/>
			<path class="st3" d="M434.1,428.8l-2.6,25.1c31.9-6.5,57.2-17.1,75.7-31.6l-17.7,172.1h43.7l24.2-235.3h-43.7
				C498,388.9,471.4,412.1,434.1,428.8z"/>
		</g>
	</g>
</g>
</svg>
