<svg xmlns="http://www.w3.org/2000/svg" viewBox="0 0 880 896.33"><defs><style>.cls-1{fill:#e6a824;}.cls-2{fill:#996b09;}.cls-3{opacity:0.75;}.cls-4{fill:#faeed3;}.cls-5{fill:#fff;}.cls-6{fill:#f6f621;}</style></defs><title>资源 1</title><g id="图层_2" data-name="图层 2"><g id="图层_1-2" data-name="图层 1"><path class="cls-1" d="M533.66,886C771,833.27,921.55,594.55,869.82,352.76S583.72-42.32,346.34,10.37-41.55,301.78,10.18,543.57,296.28,938.65,533.66,886Z"/><ellipse class="cls-2" cx="409.07" cy="431.03" rx="371.81" ry="383.95"/><ellipse class="cls-1" cx="384.64" cy="407.73" rx="331.8" ry="342.63"/><g class="cls-3"><path class="cls-2" d="M547.88,577.55c-4.61,1.89-9.22,3.89-13.83,5.78-5,3-9,14.62-10.6,20.6-.55.22-1.1.55-1.65.78-3-4.64-6.07-9.28-9.05-13.93-5.49,1.89-10.87,3.9-16.36,5.79-.22.55-.55,1.11-.76,1.66,12.45,11.15,19.52,21,19,46l15.48-5-.07-23.79C532.36,608.57,550.42,581.42,547.88,577.55Z"/><path class="cls-2" d="M466.39,640.24c1.65-.22,3.29-.56,4.94-.78C475,645.2,478.51,651,482,656.7c5.71-1.89,11.42-3.9,17.13-5.79.75-5.31-7.3-17.58-13.9-18.9,5-6.1,13.37-12.42,9.71-24.7-1.44-3-2-3.65-5-5-1.87-.22-3.85-.55-5.72-.76-11.2,3.9-22.29,7.68-33.49,11.58l.16,55.11c5.16-1.89,10.32-3.89,15.48-5.79Zm8.94-24.7h3.19l1.66,5c-3,5.32-6.9,6.87-13.05,9.1-.23-3.65-.57-7.19-.8-10.73C469.4,617.77,472.37,616.65,475.33,615.54Z"/><path class="cls-2" d="M423.16,666.44h-.77c-.7-14.05,12-16.73,22.81-18.08.21-4.1.53-8.19.73-12.29-7.79,3.11-15.7,6.12-23.61,9.12l0-9.08c8.35-2.67,16.8-5.46,25.26-8.24-.23-4.09-.57-8.19-.81-12.28-13.29,5-26.68,9.9-40,14.91l.15,54.23c13.83-5,27.78-9.9,41.61-14.91,0-4.09,0-8.19-.15-12.51C440.07,660.43,431.61,663.44,423.16,666.44Z"/><path class="cls-2" d="M316.42,662.78l0,13.95c5.16-1.89,10.32-3.89,15.48-5.78l.11,40.28,15.48-5-.12-41.06c8.34-3.11,16.8-6.12,25.25-9.12l.11,40.28,13.84-5c14.14-11.87-15.72-37.93,17.78-46.85,0-4.32,0-8.74.07-13.06h-3.3C373,641.86,344.64,652.32,316.42,662.78Z"/><path class="cls-2" d="M295.78,669.35c-15.91,8.77-36,18.22-29.21,46.1,1.45,6,2.67,10.84,7.4,13.16C306.88,745.14,341.28,667.27,295.78,669.35ZM285.36,715.3c-3.86-5.41-6.2-16.59-1.72-23.79,2.08-4.54,5-5.66,9-8.21h4.07a11.24,11.24,0,0,0,1.65.77C306,696.34,300.86,715.16,285.36,715.3Z"/><path class="cls-2" d="M242,731.1h-.77c.19-9.41,3.2-34.76-1.76-40.28l-13.84,5c-.22.55-.55,1.11-.76,1.66l.15,52.57c13.29-4.67,26.68-9.35,40-14,0-4.43,0-8.85-.15-13.17C257.25,725.54,249.56,728.32,242,731.1Z"/></g><path class="cls-4" d="M540.88,570.55c-4.61,1.89-9.22,3.89-13.83,5.78-5,3-9,14.62-10.6,20.6-.55.22-1.1.55-1.65.78-3-4.64-6.07-9.28-9.05-13.93-5.49,1.89-10.87,3.9-16.36,5.79-.22.55-.55,1.11-.76,1.66,12.45,11.15,19.52,21,19,46l15.48-5-.07-23.79C525.36,601.57,543.42,574.42,540.88,570.55Z"/><path class="cls-4" d="M459.39,633.24c1.65-.22,3.29-.56,4.94-.78C468,638.2,471.51,644,475,649.7c5.71-1.89,11.42-3.9,17.13-5.79.75-5.31-7.3-17.58-13.9-18.9,5-6.1,13.37-12.42,9.71-24.7-1.44-3-2-3.65-5-5-1.87-.22-3.85-.55-5.72-.76-11.2,3.9-22.29,7.68-33.49,11.58l.16,55.11c5.16-1.89,10.32-3.89,15.48-5.79Zm8.94-24.7h3.19l1.66,5c-3,5.32-6.9,6.87-13.05,9.1-.23-3.65-.57-7.19-.8-10.73C462.4,610.77,465.37,609.65,468.33,608.54Z"/><path class="cls-4" d="M416.16,659.44h-.77c-.7-14.05,12-16.73,22.81-18.08.21-4.1.53-8.19.73-12.29-7.79,3.11-15.7,6.12-23.61,9.12l0-9.08c8.35-2.67,16.8-5.46,25.26-8.24-.23-4.09-.57-8.19-.81-12.28-13.29,5-26.68,9.9-40,14.91l.15,54.23c13.83-5,27.78-9.9,41.61-14.91,0-4.09,0-8.19-.15-12.51C433.07,653.43,424.61,656.44,416.16,659.44Z"/><path class="cls-4" d="M309.42,655.78l0,13.95c5.16-1.89,10.32-3.89,15.48-5.78l.11,40.28,15.48-5-.12-41.06c8.34-3.11,16.8-6.12,25.25-9.12l.11,40.28,13.84-5c14.14-11.87-15.72-37.93,17.78-46.85,0-4.32,0-8.74.07-13.06h-3.3C366,634.86,337.64,645.32,309.42,655.78Z"/><path class="cls-4" d="M288.78,662.35c-15.91,8.77-36,18.22-29.21,46.1,1.45,6,2.67,10.84,7.4,13.16C299.88,738.14,334.28,660.27,288.78,662.35ZM278.36,708.3c-3.86-5.41-6.2-16.59-1.72-23.79,2.08-4.54,5-5.66,9-8.21h4.07a11.24,11.24,0,0,0,1.65.77C299,689.34,293.86,708.16,278.36,708.3Z"/><path class="cls-4" d="M235,724.1h-.77c.19-9.41,3.2-34.76-1.76-40.28l-13.84,5c-.22.55-.55,1.11-.76,1.66l.15,52.57c13.29-4.67,26.68-9.35,40-14,0-4.43,0-8.85-.15-13.17C250.25,718.54,242.56,721.32,235,724.1Z"/><g class="cls-3"><path class="cls-2" d="M638.3,489.28q4.49-44,8.76-88c5.93-2.67,12-5.45,17.89-8.22,2.72-8.86,5.34-17.61,8.06-26.36h-2.42l-51.38,20.69c1.09-3.65,2.18-7.2,3.27-10.74-14.71,5.56-29.32,11-44,16.58-1.64,4.43-3.27,8.75-4.91,13.18-18.22,7.12-36.45,14.35-54.67,21.47-2.61,8.86-5.34,17.61-8.06,26.35,5.71-2.11,11.42-4.34,17.13-6.56l-54.43,107c13.5-5.23,27.12-10.46,40.73-15.68,14.65-28.8,29.18-57.61,43.83-86.41.55-.22,1.1-.56,1.65-.78C550.78,479.27,542,506.62,533,534.08v.78c14.71-5.78,29.32-11.57,44-17.35q12.91-41,26-82.39c-1.58,23.24-3.16,46.6-4.75,69.84C611.62,499.73,625,494.5,638.3,489.28Z"/><path class="cls-2" d="M682.63,307.69h-2.42L641,323.38l.11,40.29c13.28-5.23,26.68-10.46,40-15.68C681.61,334.59,682.12,321.09,682.63,307.69Z"/><path class="cls-2" d="M491.8,418.3c6.81-2.67,13.61-5.45,20.42-8.23,5.67-15.95,11.34-31.78,17-47.73-6.26,2.45-12.52,5-18.77,7.45h-.77c4.36-12.62,8.61-25.25,13-37.87H521c-13.28,5.23-26.68,10.46-40,15.68-4.36,12.85-8.61,25.8-13,38.65q-31.79,12.35-63.57,24.8c-5.45,15.39-10.79,30.68-16.24,46.07,20.75-7.68,41.39-15.46,62-23.14-1.63,4.43-3.27,8.75-4.91,13.18-.2,7.41,4.66,15.93.84,25.45-4.69,11.52-15.77,19.07-20.36,29.59-2.4,6.31-4.91,12.63-7.31,18.94-9.33,3.89-18.55,7.67-27.77,11.57-9.21,7-13.2,34.11-17.79,45.3,21-8.23,41.83-16.57,62.8-24.8C453,540.44,485.18,445.87,491.8,418.3Z"/><path class="cls-2" d="M390.59,462.88c-4.06,1.34-8.13,2.78-12.19,4.12q11-29.9,21.92-60c2.19-3.43,8.67-5.44,13.06-6.55,1.85-5.54,3.81-11,5.67-16.5h-2.42c-25.25,9.9-50.5,19.8-76,29.7q-32.06,90.53-64,181c26.13-9.9,52.15-19.8,78.28-29.7q17.83-50.67,35.65-101.22Zm-50.27,61.74c-2.19,3.43-8.23,5-12.18,6.55a3.43,3.43,0,0,0-1,.11c2.4-6.86,4.91-13.73,7.3-20.6,3.62-1.34,7.14-2.78,10.65-4.12h1.65C344.68,512.55,342.5,518.64,340.32,524.62Zm21-59.25c-2.3,3.66-8.12,5-12.18,6.55h-.77c2.07-6,4.25-12.07,6.43-18.05,2.63-3.66,8.12-4.22,12.18-6.55C368,451.19,363.88,461.49,361.36,465.37Z"/><path class="cls-2" d="M422.55,453c-10.54,5.44-41,31.18-20.31,46.85C429.18,506,452.11,452.35,422.55,453Z"/><path class="cls-2" d="M194.91,526.57c-3.84,1.34-7.58,2.78-11.42,4.12h-.77q11-31.4,21.91-62.57c4.39-1.34,8.68-2.78,13.07-4.12l4.9-17.27c-26.13,10.23-52.15,20.36-78.28,30.59-33.55,94.75-42.59,120.48-64,181q39.53-14.85,78.94-29.71,17.83-50.67,35.65-101.22Zm-50.27,63.29c-4.39,1.67-8.67,3.34-13.07,5,2.07-6.86,4.25-13.73,6.42-20.6,3.51-1.34,7-2.67,10.65-4.12h2.42C149,576.68,146.82,583.33,144.64,589.86Zm21-59.14c-4.39,1.67-8.67,3.34-13.07,5,2.4-6.87,4.91-13.73,7.3-20.6,3.51-1.45,7-2.78,10.65-4.12C172.89,514.33,167.32,525.19,165.68,530.72Z"/><path class="cls-2" d="M297.11,480.33c23.83-6.13,32.23-30.05,36.56-54.3-6.48,2.45-13.07,5-19.54,7.45,4-12.85,8.06-25.8,12.09-38.65-13.29,5.23-26.68,10.46-40,15.68-4.91,13.18-9.71,26.36-14.61,39.54-21,7.9-41.83,15.91-62.8,23.92C203.37,489.37,198,504.65,192.58,520v.78q31-11.84,61.92-23.92l-4.91,14c.25,10.63,5,16.26-.69,28.77-4.15,9.31-13.26,15.52-17.85,23.83-2.07,6.31-4.25,12.62-6.43,18.94-4.6,6.43-21.84,11.11-30.19,13.23q-8.18,22.59-16,45.18c15.49-3.13,52.16-16.71,63.57-25.58C261.84,599.7,286.09,510.34,297.11,480.33Z"/><path class="cls-2" d="M239.07,519.07c-3.42-2.09-5.61-3.31-11.44-3.3-10.09,5.78-41.24,31.07-20.31,47C229.43,567.23,246.94,539.64,239.07,519.07Z"/><path class="cls-2" d="M519.7,412.38c13.28-5.23,26.68-10.46,40-15.68,8.42-15.18,16.73-30.24,25.15-45.31.55-.22,1.1-.55,1.65-.78l.1,34.53c13.51-5.23,27.12-10.46,40.73-15.68l-.11-40.28c-12.52,5-25,9.9-37.55,14.9,12.35-25.26,75.21-27.15,97-45.46,3.61-7.09,7.1-14.29,10.6-21.38,3.06-6,6-12.08,9-18.06C691.74,265,677.35,270.74,663,276.52c-1.86,3.66-3.83,7.2-5.68,10.75-28.88,11.23-57.64,22.58-86.4,33.81Q545.29,366.62,519.7,412.38Z"/><path class="cls-2" d="M752.25,287.19c6-27.68,27.91-42.33,42.25-61.73h-2.42c-20.75,8.23-41.39,16.57-62,24.8-4.37,7.42-8.64,14.85-13,22.27-12.58,21.05-18.56,44.64-23.42,74.86-6.59,40.52,9.2,64.06-7.08,98.62-11.91,25-30.54,44.88-43.11,68.26-3.5,6.54-10.72,19.83-5.63,28.78,2.54,5.31,41.72,22.72,49.09,25.36-16.58,42.75-63.68,63.32-100.21,86.52C543.34,682.47,479.65,742,463,794.08l79-31.36c12.23-65.21,63.59-92.65,109-125.16,19.52-16.53,39.14-32.95,58.66-49.47,12.5-10.21,27.63-22.85,35-37.92,15-30.91-52-32.66-43.54-82.14,3.24-18.82,12.55-31.9,18.66-47.73,2.06-8.19,4.24-16.5,6.41-24.69,7.65-15.07,23.78-25.28,30.87-42.78C767,328.11,746.82,311,752.25,287.19Z"/></g><path class="cls-5" d="M631.3,482.28q4.49-44,8.76-88c5.93-2.67,12-5.45,17.89-8.22,2.72-8.86,5.34-17.61,8.06-26.36h-2.42l-51.38,20.69c1.09-3.65,2.18-7.2,3.27-10.74-14.71,5.56-29.32,11-44,16.58-1.64,4.43-3.27,8.75-4.91,13.18-18.22,7.12-36.45,14.35-54.67,21.47-2.61,8.86-5.34,17.61-8.06,26.36,5.71-2.11,11.42-4.34,17.13-6.56l-54.43,107c13.5-5.23,27.12-10.46,40.73-15.68,14.65-28.8,29.18-57.61,43.83-86.41.55-.22,1.1-.56,1.65-.78C543.78,472.27,535,499.62,526,527.08v.78c14.71-5.78,29.32-11.57,44-17.35q12.91-41,26-82.39c-1.58,23.24-3.16,46.6-4.75,69.84C604.62,492.73,618,487.5,631.3,482.28Z"/><path class="cls-5" d="M675.63,300.69h-2.42L634,316.38l.11,40.29c13.28-5.23,26.68-10.46,40-15.68C674.61,327.59,675.12,314.09,675.63,300.69Z"/><path class="cls-5" d="M484.8,411.3c6.81-2.67,13.61-5.45,20.42-8.23,5.67-15.95,11.34-31.78,17-47.73-6.26,2.45-12.52,5-18.77,7.45h-.77c4.36-12.62,8.61-25.25,13-37.87H514c-13.28,5.23-26.68,10.46-40,15.68-4.36,12.85-8.61,25.8-13,38.65q-31.79,12.35-63.57,24.8c-5.45,15.39-10.79,30.68-16.24,46.07,20.75-7.68,41.39-15.46,62-23.14-1.63,4.43-3.27,8.75-4.91,13.18-.2,7.41,4.66,15.93.84,25.45-4.69,11.52-15.77,19.07-20.36,29.59-2.4,6.31-4.91,12.63-7.31,18.94-9.33,3.89-18.55,7.67-27.77,11.57-9.21,7-13.2,34.11-17.79,45.3,21-8.23,41.83-16.57,62.8-24.8C446,533.44,478.18,438.87,484.8,411.3Z"/><path class="cls-5" d="M383.59,455.88c-4.06,1.34-8.13,2.78-12.19,4.12q11-29.9,21.92-60c2.19-3.43,8.67-5.44,13.06-6.55,1.85-5.54,3.81-11,5.67-16.5h-2.42c-25.25,9.9-50.5,19.8-76,29.7q-32.06,90.53-64,181c26.13-9.9,52.15-19.8,78.28-29.7q17.83-50.67,35.65-101.22Zm-50.27,61.74c-2.19,3.43-8.23,5-12.18,6.55a3.43,3.43,0,0,0-1,.11c2.4-6.86,4.91-13.73,7.3-20.6,3.62-1.34,7.14-2.78,10.65-4.12h1.65C337.68,505.55,335.5,511.64,333.32,517.62Zm21-59.25c-2.3,3.66-8.12,5-12.18,6.55h-.77c2.07-6,4.25-12.07,6.43-18.05,2.63-3.66,8.12-4.22,12.18-6.55C361,444.19,356.88,454.49,354.36,458.37Z"/><path class="cls-5" d="M415.55,446c-10.54,5.44-41,31.18-20.31,46.85C422.18,499,445.11,445.35,415.55,446Z"/><path class="cls-5" d="M187.91,519.57c-3.84,1.34-7.58,2.78-11.42,4.12h-.77q11-31.4,21.91-62.57c4.39-1.34,8.68-2.78,13.07-4.12l4.9-17.27c-26.13,10.23-52.15,20.36-78.28,30.59-33.55,94.75-42.59,120.48-64,181q39.53-14.85,78.94-29.71,17.83-50.67,35.65-101.22Zm-50.27,63.29c-4.39,1.67-8.67,3.34-13.07,5,2.07-6.86,4.25-13.73,6.42-20.6,3.51-1.34,7-2.67,10.65-4.12h2.42C142,569.68,139.82,576.33,137.64,582.86Zm21-59.14c-4.39,1.67-8.67,3.34-13.07,5,2.4-6.87,4.91-13.73,7.3-20.6,3.51-1.45,7-2.78,10.65-4.12C165.89,507.33,160.32,518.19,158.68,523.72Z"/><path class="cls-5" d="M290.11,473.33c23.83-6.13,32.23-30.05,36.56-54.3-6.48,2.45-13.07,5-19.54,7.45,4-12.85,8.06-25.8,12.09-38.65-13.29,5.23-26.68,10.46-40,15.68-4.91,13.18-9.71,26.36-14.61,39.54-21,7.9-41.83,15.91-62.8,23.92C196.37,482.37,191,497.65,185.58,513v.78q31-11.84,61.92-23.92l-4.91,14c.25,10.63,5,16.26-.69,28.77-4.15,9.31-13.26,15.52-17.85,23.83-2.07,6.31-4.25,12.62-6.43,18.94-4.6,6.43-21.84,11.11-30.19,13.23q-8.18,22.59-16,45.18c15.49-3.13,52.16-16.71,63.57-25.58C254.84,592.7,279.09,503.34,290.11,473.33Z"/><path class="cls-5" d="M232.07,512.07c-3.42-2.09-5.61-3.31-11.44-3.3-10.09,5.78-41.24,31.07-20.31,47C222.43,560.23,239.94,532.64,232.07,512.07Z"/><path class="cls-5" d="M512.7,405.38c13.28-5.23,26.68-10.46,40-15.68,8.42-15.18,16.73-30.24,25.15-45.31.55-.22,1.1-.55,1.65-.78l.1,34.53c13.51-5.23,27.12-10.46,40.73-15.68l-.11-40.28c-12.52,5-25,9.9-37.55,14.9,12.35-25.26,75.21-27.15,97-45.46,3.61-7.09,7.1-14.29,10.6-21.38,3.06-6,6-12.08,9-18.06C684.74,258,670.35,263.74,656,269.52c-1.86,3.66-3.83,7.2-5.68,10.75-28.88,11.23-57.64,22.58-86.4,33.81Q538.29,359.62,512.7,405.38Z"/><path class="cls-5" d="M745.25,280.19c6-27.68,27.91-42.33,42.25-61.73h-2.42c-20.75,8.23-41.39,16.57-62,24.8-4.37,7.42-8.64,14.85-13,22.27-12.58,21.05-18.56,44.64-23.42,74.86-6.59,40.52,9.2,64.06-7.08,98.62-11.91,25-30.54,44.88-43.11,68.26-3.5,6.54-10.72,19.83-5.63,28.78,2.54,5.31,41.72,22.72,49.09,25.36-16.58,42.75-63.68,63.32-100.21,86.52C536.34,675.47,472.65,735,456,787.08l79-31.36c12.23-65.21,63.59-92.65,109-125.16,19.52-16.53,39.14-32.95,58.66-49.47,12.5-10.21,27.63-22.85,35-37.92,15-30.91-52-32.66-43.54-82.14,3.24-18.82,12.55-31.9,18.66-47.73,2.06-8.19,4.24-16.5,6.41-24.69,7.65-15.07,23.78-25.28,30.87-42.78C760,321.11,739.82,304,745.25,280.19Z"/><g class="cls-3"><polygon class="cls-2" points="458.97 296.09 439.84 303.44 431.82 337.74 480.35 319.1 513.63 239.28 546.54 226.64 537.35 265.98 503.52 278.98 497.23 312.44 564.43 286.63 589.16 180.81 459.51 230.61 451.94 262.98 478.27 252.86 458.97 296.09"/><polygon class="cls-2" points="520.74 144.46 487.52 157.22 473.53 190.29 461.74 194.82 453.31 230.87 492.5 215.82 520.74 144.46"/><polygon class="cls-2" points="553.87 158.9 557.86 190.71 595.21 176.36 603.63 140.31 592.15 144.72 590.03 116.25 523.6 141.77 516.21 173.36 553.87 158.9"/><polygon class="cls-2" points="451.62 179 318.48 229.98 310.18 258.95 443.33 207.98 451.62 179"/><polygon class="cls-2" points="426.82 244.17 307.18 289.98 298.68 319.68 418.32 273.87 426.82 244.17"/><polygon class="cls-2" points="419.08 309.83 274.63 365.13 266.13 394.83 410.58 339.53 419.08 309.83"/></g><polygon class="cls-6" points="451.97 289.09 432.84 296.44 424.82 330.74 473.35 312.1 506.63 232.28 539.54 219.64 530.35 258.98 496.52 271.98 490.23 305.44 557.43 279.63 582.16 173.81 452.51 223.61 444.94 255.98 471.27 245.86 451.97 289.09"/><polygon class="cls-6" points="513.74 137.46 480.52 150.22 466.53 183.29 454.74 187.82 446.31 223.87 485.5 208.82 513.74 137.46"/><polygon class="cls-6" points="546.87 151.9 550.86 183.71 588.21 169.36 596.63 133.31 585.15 137.72 583.03 109.25 516.6 134.77 509.21 166.36 546.87 151.9"/><polygon class="cls-6" points="444.62 172 311.48 222.98 303.18 251.95 436.33 200.98 444.62 172"/><polygon class="cls-6" points="419.82 237.17 300.18 282.98 291.68 312.68 411.32 266.87 419.82 237.17"/><polygon class="cls-6" points="412.08 302.83 267.63 358.13 259.13 387.83 403.58 332.53 412.08 302.83"/></g></g></svg>