<?xml version="1.0" encoding="utf-8"?>
<!-- Generator: Adobe Illustrator 21.1.0, SVG Export Plug-In . SVG Version: 6.00 Build 0)  -->
<svg version="1.1" id="图层_1" xmlns="http://www.w3.org/2000/svg" xmlns:xlink="http://www.w3.org/1999/xlink" x="0px" y="0px"
	 viewBox="0 0 880 896.3" style="enable-background:new 0 0 880 896.3;" xml:space="preserve">
<style type="text/css">
	.st0{fill:#22912E;}
	.st1{fill:#094410;}
	.st2{opacity:0.75;}
	.st3{fill:#443A6A;}
	.st4{fill:#FFFFFF;}
	.st5{fill:#F5A747;}
	.st6{fill:#71BB3B;}
	.st7{fill:#51B0E4;}
	.st8{fill:#EAE94A;}
</style>
<path class="st0" d="M533.7,886C771,833.3,921.5,594.6,869.8,352.8S583.7-42.3,346.3,10.4S-41.5,301.8,10.2,543.6
	S296.3,938.6,533.7,886z"/>
<ellipse class="st1" cx="409.1" cy="431" rx="371.8" ry="384"/>
<ellipse class="st0" cx="384.6" cy="407.7" rx="331.8" ry="342.6"/>
<g>
	<g class="st2">
		<path class="st1" d="M456.3,354.4c83.4-55.8,178.9-35.9,204.8-30.7c25.9,5.2,66.4,0,66.4-44.6C723,216.8,622.4,229,622.4,229
			C472.6,239.1,412,387.9,412,387.9S428.3,372.6,456.3,354.4z"/>
		<polygon class="st1" points="157.4,624.9 179.6,616.5 162.9,722.5 204.5,722.5 219.2,570.5 157.4,597 		"/>
		<path class="st1" d="M392.7,571.9l-16.6,44.6H401l5.5-16.7h13.8l-2.8,25.1h-38.7l-2.8,16.7h55.4c0,0-6.2,31.4-5.5,39
			c0.7,7.7,11.1,11.2,11.1,11.2h36l2.8-19.5h-22.1c-4.4,0-2.8-8.4-2.8-8.4l2.8-22.3h24.9l2.8-16.7h-38.7l2.8-25.1H484l2.8-16.7H448
			l2.8-11.2h-24.9l-2.8,11.2H412l2.8-11.2L392.7,571.9L392.7,571.9z"/>
		<polygon class="st1" points="398.2,691.8 420.3,650 392.7,650 370.5,691.8 		"/>
		<path class="st1" d="M340.1,521.7c-34.2-6.8-54.1-18.8-64.5-28.1c-18.7-16.7-35.2-10.3-39.5,2.8c-8.5,30.3,39.1,38.5,56.9,42
			c60.9,9.9,94-8,105.2-13.9C398.2,524.5,363.6,526.3,340.1,521.7z"/>
		<polygon class="st1" points="348.4,605.4 373.3,605.4 367.8,571.9 342.8,571.9 		"/>
		<polygon class="st1" points="246,624.9 268.1,616.5 251.5,722.5 293,722.5 312.4,569.1 246,597 		"/>
		<path class="st1" d="M470.2,703H367.8c-7.8-1.6-5.5-13.9-5.5-13.9l11.1-78.1h-38.7l-5.5,19.5h13.8c0,0-9,58.6-8.3,72.5
			c0.7,13.9,16.6,19.5,16.6,19.5h116.2L470.2,703z"/>
		<path class="st1" d="M778.1,474.9c-11.9-27.7-67.1-127.4-197.7-133c-90-2-157.9,52.8-172.9,85.5c-18.9,41.3,12.9,77.7,37.7,86
			c30.4,10.1,55.4-16.7,55.4-16.7c40.6-40,63.2-45.1,105.2-44.6c149.9,18.1,103.1,170.1,99.6,181.2
			c-45.3,101.7-121.7,120.4-180.4,117c-46.8-2.7-82-21.5-82.5-19.4c-2.4,8.2,43.7,35.7,75.2,44.7c44.5,12.7,100.1,10.9,160.1-16.8
			C783.6,700.2,820.6,573.9,778.1,474.9z"/>
		<path class="st1" d="M497.8,689c0,0-1.2,4.4-2.8,33.5c72,7.9,141.1-14.4,141.1-69.7c-0.7-55.3-83-66.9-83-66.9l2.8-22.3h80.3
			l2.8-39H520l-11.1,97.6c0,0,81.9-1.2,83,36.3C591.9,694.6,497.8,689,497.8,689z"/>
		<path class="st1" d="M322.9,439.1c-13.5,9.8-28.6,17.5-44.9,22.5c58.3,57.8,128.5,51.9,128.5,51.9
			C363,500.9,337.7,469.9,322.9,439.1z"/>
		<path class="st1" d="M343.4,421.4c18.9,56.2,60.3,80.8,60.3,80.8c-13.1-15-23.9-56.5-22.1-83.7c10-79.8,55.4-103.9,66.4-131.1
			c11.1-27.2-3.8-48.4-22.1-55.8c-11.3-4.5-34.8-5.8-55.8,17.4c10,20.3,15.8,43,15.8,67C385.9,357,369.7,394.1,343.4,421.4z"/>
		<ellipse class="st1" cx="232.3" cy="314.4" rx="125.8" ry="124.7"/>
		<path class="st1" d="M369.4,316.2c0-74.8-60.6-135.4-135.4-135.4S98.6,241.5,98.6,316.2c0,74.8,60.6,135.4,135.4,135.4
			S369.4,391,369.4,316.2z M225.4,376.6h-103l9.1-103.9h24.8l-7.6,89.4h13.1l6.3-98.5h26.2l-6.3,98.5h12.7l5.8-89.4h24L225.4,376.6z
			 M262.3,376.9h-24l15.9-54h23.2L262.3,376.9z M306.9,378.2H278l3.2-58.6h-40.5v-13.1l12.3-27.4h-13.7v-12.7h19.4l2.3-5.1h27.5
			l-2.3,5.1h61.4v12.7h-67L268.2,307h13.7l1.1-21.3h28.2l-1,21.3h35.2v12.7h-35.8L306.9,378.2z M312.8,322.9h22.6l11.7,54h-22.6
			L312.8,322.9z"/>
	</g>
	<g>
		<g>
			<path class="st3" d="M449.3,347.4c83.4-55.8,178.9-35.9,204.8-30.7c25.9,5.2,66.4,0,66.4-44.6C716,209.8,615.4,222,615.4,222
				C465.6,232.1,405,380.9,405,380.9S421.3,365.6,449.3,347.4z"/>
			<polygon class="st4" points="150.4,617.9 172.6,609.5 155.9,715.5 197.5,715.5 212.2,563.5 150.4,590 			"/>
			<path class="st4" d="M385.7,564.9l-16.6,44.6H394l5.5-16.7h13.8l-2.8,25.1h-38.7l-2.8,16.7h55.4c0,0-6.2,31.4-5.5,39
				c0.7,7.7,11.1,11.2,11.1,11.2h36l2.8-19.5h-22.1c-4.4,0-2.8-8.4-2.8-8.4l2.8-22.3h24.9l2.8-16.7h-38.7l2.8-25.1H477l2.8-16.7H441
				l2.8-11.2h-24.9l-2.8,11.2H405l2.8-11.2L385.7,564.9L385.7,564.9z"/>
			<polygon class="st4" points="391.2,684.8 413.3,643 385.7,643 363.5,684.8 			"/>
			<path class="st5" d="M333.1,514.7c-34.2-6.8-54.1-18.8-64.5-28.1c-18.7-16.7-35.2-10.3-39.5,2.8c-8.5,30.3,39.1,38.5,56.9,42
				c60.9,9.9,94-8,105.2-13.9C391.2,517.5,356.6,519.3,333.1,514.7z"/>
			<polygon class="st4" points="341.4,598.4 366.3,598.4 360.8,564.9 335.8,564.9 			"/>
			<polygon class="st4" points="239,617.9 261.1,609.5 244.5,715.5 286,715.5 305.4,562.1 239,590 			"/>
			<path class="st4" d="M463.2,696H360.8c-7.8-1.6-5.5-13.9-5.5-13.9l11.1-78.1h-38.7l-5.5,19.5h13.8c0,0-9,58.6-8.3,72.5
				c0.7,13.9,16.6,19.5,16.6,19.5h116.2L463.2,696z"/>
			<path class="st4" d="M771.1,467.9c-11.9-27.7-67.1-127.4-197.7-133c-90-2-157.9,52.8-172.9,85.5c-18.9,41.3,12.9,77.7,37.7,86
				c30.4,10.1,55.4-16.7,55.4-16.7c40.6-40,63.2-45.1,105.2-44.6c149.9,18.1,103.1,170.1,99.6,181.2
				c-45.3,101.7-121.7,120.4-180.4,117c-46.8-2.7-82-21.5-82.5-19.4c-2.4,8.2,43.7,35.7,75.2,44.7c44.5,12.7,100.1,10.9,160.1-16.8
				C776.6,693.2,813.6,566.9,771.1,467.9z"/>
			<path class="st4" d="M490.8,682c0,0-1.2,4.4-2.8,33.5c72,7.9,141.1-14.4,141.1-69.7c-0.7-55.3-83-66.9-83-66.9l2.8-22.3h80.3
				l2.8-39H513l-11.1,97.6c0,0,81.9-1.2,83,36.3C584.9,687.6,490.8,682,490.8,682z"/>
			<path class="st6" d="M315.9,432.1c-13.5,9.8-28.6,17.5-44.9,22.5c58.3,57.8,128.5,51.9,128.5,51.9
				C356,493.9,330.7,462.9,315.9,432.1z"/>
			<path class="st7" d="M336.4,414.4c18.9,56.2,60.3,80.8,60.3,80.8c-13.1-15-23.9-56.5-22.1-83.7c10-79.8,55.4-103.9,66.4-131.1
				c11.1-27.2-3.8-48.4-22.1-55.8c-11.3-4.5-34.8-5.8-55.8,17.4c10,20.3,15.8,43,15.8,67C378.9,350,362.7,387.1,336.4,414.4z"/>
			<ellipse class="st1" cx="225.3" cy="307.4" rx="125.8" ry="124.7"/>
			<path class="st8" d="M362.4,309.2c0-74.8-60.6-135.4-135.4-135.4S91.6,234.5,91.6,309.2c0,74.8,60.6,135.4,135.4,135.4
				S362.4,384,362.4,309.2z M218.4,369.6h-103l9.1-103.9h24.8l-7.6,89.4h13.1l6.3-98.5h26.2l-6.3,98.5h12.7l5.8-89.4h24L218.4,369.6
				z M255.3,369.9h-24l15.9-54h23.2L255.3,369.9z M299.9,371.2H271l3.2-58.6h-40.5v-13.1l12.3-27.4h-13.7v-12.7h19.4l2.3-5.1h27.5
				l-2.3,5.1h61.4v12.7h-67L261.2,300h13.7l1.1-21.3h28.2l-1,21.3h35.2v12.7h-35.8L299.9,371.2z M305.8,315.9h22.6l11.7,54h-22.6
				L305.8,315.9z"/>
		</g>
	</g>
</g>
</svg>
