<?xml version="1.0" encoding="utf-8"?>
<!-- Generator: Adobe Illustrator 21.1.0, SVG Export Plug-In . SVG Version: 6.00 Build 0)  -->
<svg version="1.1" id="图层_1" xmlns="http://www.w3.org/2000/svg" xmlns:xlink="http://www.w3.org/1999/xlink" x="0px" y="0px"
	 viewBox="0 0 880 896.3" style="enable-background:new 0 0 880 896.3;" xml:space="preserve">
<style type="text/css">
	.st0{fill:#DE7A4C;}
	.st1{fill:#B94037;}
	.st2{fill:#DF754B;}
	.st3{fill:#BE530C;}
	.st4{fill:#F3F61D;}
	.st5{fill:#E83828;}
	.st6{fill:#FFFFFF;}
</style>
<path class="st0" d="M533.7,886C771,833.3,921.5,594.6,869.8,352.8S583.7-42.3,346.3,10.4S-41.5,301.8,10.2,543.6
	S296.3,938.6,533.7,886z"/>
<ellipse class="st1" cx="409.1" cy="431" rx="371.8" ry="384"/>
<ellipse class="st2" cx="384.6" cy="407.7" rx="331.8" ry="342.6"/>
<g>
	<g>
		<g>
			<polygon class="st3" points="440,134.7 162.1,236.8 135,468.7 254.5,664.7 410.4,721.2 558.5,646.7 674.5,542.7 674.5,268.7 
				697,236.1 632.5,206.7 			"/>
			<g>
				<path class="st4" d="M693.4,221.9l2.6-1.3l-2.6,1.5C693.4,222.1,693.4,222,693.4,221.9z M162.1,236.8l239.1,149l9.3,335.3
					l8.2-336.3l274.8-162.8c27.2,93.5,17.8,335.9,13.8,348.2c-12.6,38.1-227.1,145.5-282.5,159.9c-65.5,17-283.2-103.7-284.1-110.1
					c-8.2-55.6-7.5-364.7,1.5-399.6c87.4-29,202.3-67.5,289.6-96.5c81.7,13.5,233.5,67.4,261.1,96.1c0.2,0.6,0.4,1.2,0.5,1.8
					L407.7,365.8L162.1,236.8z M630.1,543.1L630.1,543.1c16.4-33.8,19.3-64.5,2.2-90.8c-15.3-18.8-40.9-15.3-69.4-5.6l76.5-140.2
					l-141.5,58.9c-22.6,8-31.3,27.5-30.6,54.9c4.5,4.7,67-25.4,100.5-38.1l-44.2,79.1v20.2c27.7-5.2,65.9,17.7,52.4,65.4
					c-21.7,40.5-66.5,83.6-113,133.1C559.3,633.3,616.6,570.9,630.1,543.1z M352.6,675.6c22.3-17.4,0.9-119.4-37.1-108.2
					C297.8,592.1,328.1,680.9,352.6,675.6z M246.7,514.6c8.4,3.7,21.7,3,25.1,11.2c-7.8,34.4-17.8,96.3-10.4,116.6
					c17.8-19.6,34.6-71.2,37.1-105.4v0c13.9-7.7,53.4,23.4,81.4,25.2c3.5-17.3,3.6-27.7-1.6-32.3c-14.1-10.8-33.3-9.6-30.8-19.9
					c2.4-18.3,10.6-45.8,7.3-54.9c-8.4-7.8-21.1-15-38.2-21.3c5.4-12.1,10.1-26.6,6.2-42.9c-13.3-14.4-44.7-19.8-51.1-14.2
					c-1.1,8.7,12.7,13.2,18.4,14.7c5.1,2.7,1,24.1-1.8,30c-6.4,4-22-14.7-29.4-9.3c-3.7,21.9,10.2,30.5,24.8,35.3
					c3.9-0.3,3.5,40.4-1.8,37.9c-4,2.4-26.6-16.3-34.5-12.3C239.4,477.5,243.6,501.8,246.7,514.6z M163.7,443.4
					c3.3,8.6,5.5,25.9,9.8,25.8c7.2-3.5,5.1-14.2,7.6-21.3c5.9-0.3,20.3,2.2,22.1,8.7c-8.3,28.2-17,73.5-9,89.4
					c8.7,13.1,22.7,13.7,39.4,13.4h0h0c8.2,1.5-7.9-68.9,2.1-98.4c6.7-5.1,31.2,13.5,35,4.8c7.9-8.7-5-18.2-32-28.3
					c-0.1-31.5,15-69.9,24.3-102.9c-20.2,1.7-38.5,36.8-55.7,90.8l-14.4-6.7c21.3-54.8,9.8-78.2-22.8-79.1
					c-3.6,0.8-3.7,42.4-1.3,69.5C151.6,405.9,141.4,428.6,163.7,443.4z M391.3,188.4C291,179,248.3,253.7,341.4,263l13.6-20
					c-34.7-10.1-16.4-32.6,18.4-27.7L391.3,188.4L391.3,188.4L391.3,188.4z M422.3,153l-74.5,110.6h18l65.4-96.7h34.5l13-13.9H422.3
					z M436,171.1l-73.7,109.3h18l64.6-95.4h34.5l13-13.9L436,171.1L436,171.1z M456.5,262.6c105.9,11.5,139.8-53.2,49.4-74.3h-56.2
					l-74.4,109.1H433L456.5,262.6z M471.1,241.2l18.2-26.5C531.7,216,507.2,246.8,471.1,241.2z M328.9,468.6
					c0.1,11.4,1.1,32.8-5.9,35.9c-7.1,0-12.6-2-14.9-8.4c-1.7-4.8,0.8-19.3,4.3-33.2C314.9,460.1,319.4,457.8,328.9,468.6z
					 M315.1,437.1L315.1,437.1L315.1,437.1L315.1,437.1z"/>
			</g>
		</g>
	</g>
</g>
<path class="st5" d="M533.7,886C653,859.5,750.4,786,811.1,688.8H68.9C165.1,842.7,348.5,927.1,533.7,886z"/>
<g>
	<path class="st6" d="M321.1,835.6l7.6-117.6h37.6l-2,31.4h65.9v14.5h-66.8l-4.5,71.7h71.7v14.5H284.6v-14.5H321.1z"/>
	<path class="st6" d="M480.9,788.6l-12.2,61.8h-30.8l12.5-61.8H480.9z M482.2,782.8h-31.9l-7.4-29.5h31.5L482.2,782.8z M484.8,749.2
		h-32.1l-8.4-28.3h31.5L484.8,749.2z M486.9,784.6l3.9-37.5h93.7l-1.4,37.5h4.8V798h-5.2l-1.9,52H480.1l5.4-52h-3.7v-13.4H486.9z
		 M525.4,725.1h61.4v14.5H483.5l12.2-22h33.7L525.4,725.1z M551.6,798h-34.7l-3.2,38.4h11.9l-5-33.8h20.7l5.3,33.8h3.2L551.6,798z
		 M552.3,784.6l1.1-24.1h-33.5l-2,24.1h9.6l-4.6-20.1h19.9l4.9,20.1H552.3z"/>
</g>
</svg>
