<?xml version="1.0" encoding="utf-8"?>
<!-- Generator: Adobe Illustrator 22.0.0, SVG Export Plug-In . SVG Version: 6.00 Build 0)  -->
<svg version="1.1" id="图层_1" xmlns="http://www.w3.org/2000/svg" xmlns:xlink="http://www.w3.org/1999/xlink" x="0px" y="0px"
	 viewBox="0 0 1024 1024" style="enable-background:new 0 0 1024 1024;" xml:space="preserve">
<style type="text/css">
	.st0{fill:#FFFFFF;}
	.st1{fill:#FFFFFF;stroke:#FFFFFF;stroke-width:0.25;stroke-linecap:round;stroke-linejoin:round;stroke-miterlimit:10;}
	.st2{stroke:#FFFFFF;stroke-width:4;stroke-miterlimit:10;}
	.st3{fill:#FFFFFF;stroke:#FFFFFF;stroke-miterlimit:10;}
</style>
<g>
	<g>
		<path class="st0" d="M213.4,433.7c-3.3-28.4,10.9-33.9,30.6-39.4c13.1-3.3,32.8-3.3,32.8-3.3s-43.8,5.5-49.2,29.5
			c-5.5,21.9,19.7,74.4,19.7,74.4S215.5,461,213.4,433.7z"/>
	</g>
	<g>
		<path class="st0" d="M73.2,571.5h29.5c1.1,18.6,8.8,32.8,21.9,42.7c-28.4,1.1-43.8-4.4-45.9-18.6
			C77.6,590.1,75.4,582.5,73.2,571.5z M108.2,687.5H79.8c0-6.6,2.2-15.3,4.4-27.3c0-4.4,1.1-8.8,1.1-10.9
			c1.1-19.7,14.2-28.4,40.5-28.4c3.3-5.5,5.5-15.3,6.6-31.7c0-2.2,0-5.5,1.1-9.8c2.2-21.9,3.3-35,4.4-39.4H164
			c0,8.8-1.1,19.7-3.3,33.9c-1.1,12-1.1,20.8-2.2,26.3c0,19.7-10.9,28.4-33.9,25.2c-5.5,6.6-8.8,14.2-10.9,21.9
			c0,4.4-1.1,10.9-3.3,20.8C110.4,676.5,109.3,683.1,108.2,687.5z M82,526.7h29.5c3.3,23,9.8,37.2,20.8,41.6
			c-28.4,1.1-43.8-4.4-44.9-18.6c0-1.1,0-2.2-1.1-4.4C85.3,542,84.2,536.5,82,526.7z M205.6,622.9h35c-1.1,1.1-2.2,2.2-4.4,3.3
			c-31.7,29.5-51.4,48.1-60.2,54.7c-7.7,8.8-27.3,12-56.9,8.8c10.9-5.5,23-12,35-21.9C165,659,176,650.3,187,640.5h-15.3v-117H199
			v107.2c1.1-1.1,2.2-3.3,4.4-4.4C204.5,624,205.6,622.9,205.6,622.9z M205.6,538.7h24.1c1.1,12,2.2,27.3,4.4,47
			c0,3.3,1.1,5.5,1.1,6.6c0,9.8,3.3,18.6,7.7,24.1c-21.9,3.3-32.8-5.5-31.7-25.2c-1.1-9.8-2.2-20.8-3.3-33.9
			C206.8,549.7,206.8,543.1,205.6,538.7z"/>
		<path class="st0" d="M375.3,687.5h-74.4c-28.4,1.1-41.6-10.9-40.5-36.1V530H292v12c0-7.7,6.6-12,17.5-10.9h71.1
			c18.6,0,28.4,5.5,28.4,18.6v52.5c1.1,15.3-7.7,23-26.3,21.9h-72.2c-10.9,0-17.5-4.4-17.5-14.2v41.6c-1.1,16.4,7.7,25.2,26.3,24.1
			h52.5c26.3,2.2,41.6-8.8,47-31.7C424.4,673.3,410.3,687.5,375.3,687.5z M305.3,538.7c-6.6-1.1-9.8,2.2-12,10.9v56.9
			c3.3,7.7,7.7,10.9,15.3,10.9h12v-78.8L305.3,538.7L305.3,538.7z M363.1,538.7H350v78.8h14.2c9.8,0,14.2-4.4,13.1-13.1v-52.5
			C378.4,542,373,537.6,363.1,538.7z"/>
	</g>
	<path class="st1" d="M676,590.1v-9.8h-49.2c-2.2-3.3-4.4-7.7-7.7-13.1v-1.1l-9.8,4.4v1.1c2.2,3.3,3.3,5.5,4.4,7.7H558v9.8h35
		c-4.4,3.3-8.8,6.6-12,8.8c-3.3,2.2-7.7,3.3-13.1,4.4h-1.1l4.4,12h1.1c3.3-1.1,7.7-1.1,13.1-1.1c14.2,0,38.3,0,70,0
		c3.3,3.3,6.6,5.5,9.8,8.8h1.1l7.7-7.7l-1.1-1.1c-9.8-7.7-19.7-15.3-30.6-21.9H641l-6.6,7.7h1.1c2.2,1.1,4.4,3.3,6.6,4.4
		c-17.5,0-35,0-52.5,1.1c5.5-3.3,12-7.7,18.6-13.1L676,590.1L676,590.1z M520.8,603.3h30.6v-9.8H513v-24.1h-10.9v24.1h-37.2v9.8
		h27.3c-7.7,23-18.6,41.6-33.9,55.8l0,0v-58c4.4-8.8,7.7-18.6,10.9-28.4v-1.1l-10.9-3.3v1.1c-5.5,21.9-14.2,40.5-26.3,58l0,0l0,0
		c1.1,3.3,3.3,6.6,4.4,9.8v1.1l1.1-1.1c3.3-4.4,6.6-9.8,9.8-15.3v65.6h10.9v-27.3l0,0c2.2,2.2,4.4,5.5,6.6,7.7v1.1l1.1-1.1
		c16.4-14.2,28.4-35,36.1-60.2v44.9h-17.5v9.8h18.6v25.2H514v-25.2h17.5v-9.8H514v-43.8c7.7,26.3,18.6,44.9,33.9,56.9h1.1v-1.1
		c2.2-2.2,4.4-5.5,6.6-8.8l1.1-1.1h-1.1C540.3,644.8,528.3,627.3,520.8,603.3z M573.3,686.4h10.9v-20.8h65.6v3.3
		c0,4.4-2.2,6.6-7.7,6.6c-4.4,0-9.8,0-15.3-1.1h-1.1v1.1c1.1,5.5,2.2,8.8,2.2,9.8v1.1h1.1c5.5,0,9.8,0,14.2,0
		c12,0,17.5-5.5,17.5-15.3v-50.3h-86.4L573.3,686.4L573.3,686.4z M584.1,630.6h65.6v8.8h-65.6V630.6z M584.1,648.1h65.6v8.8h-65.6
		V648.1z"/>
	<path d="M796.3,451.2L796.3,451.2c1.1,0,1.1,0,2.2,0C797.5,451.2,797.5,451.2,796.3,451.2z"/>
	<path d="M751.5,477.5c2.2-2.2,3.3-3.3,5.5-5.5C754.8,474.2,753.8,475.3,751.5,477.5z"/>
	<path d="M799.6,450.1c8.8-2.2,18.6-4.4,28.4-4.4C818.3,445.7,808.3,447.9,799.6,450.1z"/>
	<circle class="st2" cx="829.5" cy="559.6" r="121.2"/>
	<path class="st0" d="M725.3,504.8c20.8-38.3,61.3-62.4,105-63.4c14.2,0,27.3,2.2,40.5,6.6l0,0c-38.3-13.1-257.1-88.6-366.5-105
		C362,322.1,210,333.1,185.9,387.8c-21.9,51.4,64.5,123.6,64.5,123.6s-65.6-68.9-40.5-108.3c21.9-36.1,133.5-23,275.7,27.3
		C597.3,470.9,693.5,582.5,722,619.6C704.5,583.6,704.5,540.9,725.3,504.8z"/>
	<path class="st3" d="M740.3,644.8L740.3,644.8c8.8,8.8,18.6,16.4,29.5,23c18.6,10.9,40.5,16.4,62.4,15.3l0,0
		c-18.6,0-37.2-3.3-52.5-10.9c-2.2-2.2-5.5-4.4-8.8-7.7s-6.6-6.6-8.8-8.8c1.1-2.2,3.3-5.5,6.6-10.9c2.2-4.4,5.5-9.8,7.7-13.1
		c4.4,0,13.1,1.1,23,2.2c9.8,1.1,18.6-1.1,21.9-1.1c3.3,3.3,8.8,10.9,18.6,16.4c6.6,4.4,13.1,7.7,17.5,10.9c0,2.2-2.2,6.6-5.5,13.1
		c-2.2,3.3-4.4,6.6-5.5,8.8c36.1-5.5,68.9-27.3,87.5-60.2c13.1-21.9,17.7-47,14.4-72.2c0,4.4,0.9,8.7,0.9,13.1
		c-3.3-1.1-6.6-3.3-8.8-4.4c-1.1-4.4-2.2-14.2-5.5-20.8c-3.3-7.7-8.8-16.4-10.9-20.8c1.1-3.3,2.2-10.9,0-23c0-2.2,0-3.3-1.1-5.5
		c2.2,2.2,3.3,4.4,5.5,6.6c-2.2-3.3-4.4-6.6-6.6-9.8c0,3.3,1.1,6.6,1.1,8.8c1.1,9.8,1.1,16.4,0,20.8l-35,4.4
		c-5.5-4.4-14.2-13.1-21.9-18.6c-8.8-6.6-16.4-10.9-20.8-13.1l-3.3-30.6c5.5-1.1,12-3.3,19.7-3.3c5.5,0,9.8-1.1,14.2-1.1
		c1.1,0,1.1,0,2.2,0c-4.4-2.2-8.7-3.4-13-4.5c-1.1,0-3.4,1.2-4.5,1.2c-8.8,1.1-18.6,3.3-23,4.4c-4.4-1.1-12-2.2-18.6-2.2
		c-7.7,0-19.7,1.1-24.1,1.1c0-1.1-1-2.4-1-4.6c-1.1,0-2.5,0.9-3.6,0.9c0,1.1,1.3,2.6,1.3,4.8c-2.2,2.2-7.7,7.7-12,12
		c-4.4,7.7-10.9,19.7-10.9,19.7c-5.5,2.2-13.1,6.6-23,13.1c-8.8,6.6-14.2,10.9-16.4,13.1l-5.5-4.4c1.1-1.1,1.1-3.3,2.2-4.4
		c-18.6,32.8-20.8,71.1-8.8,103.9C721.6,620.8,730.3,633.9,740.3,644.8L740.3,644.8z M931.6,577c6.6-8.8,8.8-14.2,8.8-15.3
		c2.2,1.1,6.6,3.3,7.7,4.4c0,19.7-5.5,38.3-15.3,55.8c-5.5,9.8-12,18.6-19.7,26.3c0-1.1,0-1.1-1.1-1.1c-3.3-1.1-5.5-4.4-7.7-5.5
		c2.2-5.5,5.5-12,7.7-20.8c2.2-10.9,3.3-20.8,4.4-26.3C919.6,591.2,927.3,584.7,931.6,577z M895.5,580.3
		c7.7,5.5,14.2,10.9,17.5,14.2c-1.1,5.5-2.2,15.3-4.4,26.3c-2.2,8.8-5.5,16.4-7.7,20.8c-2.2,2.2-8.8,7.7-17.5,12
		c-8.8,3.3-17.5,5.5-23,5.5c-4.4-2.2-10.9-6.6-19.7-12c-9.8-5.5-15.3-13.1-17.5-16.4c0-3.3,1.1-9.8,4.4-20.8
		c2.2-9.8,4.4-15.3,4.4-18.6c3.3-1.1,10.9-3.3,24.1-8.8c12-5.5,20.8-9.8,25.2-12C883.5,572.6,889,575.9,895.5,580.3z M822.3,497.1
		c8.8-3.3,17.5-5.5,19.7-6.6c4.4,2.2,12,6.6,19.7,12c7.7,6.6,17.5,14.2,23,19.7c0,3.3,0,10.9-1.1,21.9c-1.1,12-3.3,19.7-3.3,23
		c-4.4,2.2-13.1,6.6-25.2,12c-13.1,5.5-19.7,7.7-23,8.8c-3.3-2.2-12-8.8-21.9-15.3c-7.7-5.5-13.1-9.8-15.3-13.1
		c-1.1-6.6-1.1-18.6,0-28.4c1.1-12,3.3-19.7,4.4-23C803.6,505.9,814.5,499.3,822.3,497.1z M724.8,535.4c1.1-8.8,3.3-15.3,4.4-18.6
		c1.1-2.2,5.5-6.6,17.5-15.3c9.8-6.6,18.6-10.9,24.1-13.1l26.3,20.8c-1.1,4.4-3.3,10.9-4.4,21.9c-1.1,9.8-1.1,20.8-1.1,28.4
		c-2.2,2.2-9.8,6.6-18.6,13.1c-6.6,5.5-12,8.8-14.2,10.9c-4.4-2.2-12-5.5-18.6-9.8c-9.8-5.5-15.3-12-16.4-13.1
		C723.8,556.2,723.8,545.3,724.8,535.4z M723.8,619.7c-2.2-5.5-4.4-9.8-6.6-14.2c-1.1-2.2-1.1-4.4-2.2-6.6v-1.1
		c-1.1-4.4-2.2-8.8-3.3-14.2c1.1-3.3,3.3-7.7,5.5-10.9c2.2-4.4,5.5-6.6,6.6-8.8c2.2,2.2,7.7,7.7,15.3,12c6.6,4.4,13.1,7.7,17.5,9.8
		c0,3.3,2.2,14.2,6.6,25.2c4.4,10.9,7.7,17.5,9.8,19.7c-2.2,3.3-5.5,8.8-7.7,13.1c-2.2,4.4-4.4,7.7-5.5,9.8c-1.1,0-3.3-1.1-5.5-2.2
		c-2.2-1.1-8.1-4.3-8.1-4.3l1.5,2.1c-7.7-7.7-15.3-15.7-19.6-24.5C725,623.6,724.8,621.8,723.8,619.7z"/>
	<path d="M829.1,445.7C829.1,445.7,828,445.7,829.1,445.7c0,0,0,0,1.1,0H829.1z"/>
	<path d="M757,472c1.1,0,1.1-1.1,2.2-1.1C758,470.9,758,472,757,472z"/>
	<path d="M740.5,488.4l1.1-1.1L740.5,488.4z"/>
</g>
</svg>
