<?xml version="1.0" encoding="utf-8"?>
<!-- Generator: Adobe Illustrator 22.0.0, SVG Export Plug-In . SVG Version: 6.00 Build 0)  -->
<svg version="1.1" id="图层_1" xmlns="http://www.w3.org/2000/svg" xmlns:xlink="http://www.w3.org/1999/xlink" x="0px" y="0px"
	 viewBox="0 0 1024 1024" style="enable-background:new 0 0 1024 1024;" xml:space="preserve">
<style type="text/css">
	.st0{fill:#FFFFFF;stroke:#FFFFFF;stroke-width:5;stroke-miterlimit:10;}
</style>
<g>
	<g>
		<path class="st0" d="M180.8,388.6v17.3c0,0-67.1,18.4-67.1,97.4s50.9,108.3,67.1,114.8v17.3c0,0-106.1-10.8-106.1-129.9
			C74.7,506.6,72.6,417.8,180.8,388.6z"/>
		<path class="st0" d="M228.5,384.3v16.2c0,0,50.9,3.2,57.4,52H300l-7.6-56.3C291.3,394,254.5,383.2,228.5,384.3z"/>
		<path class="st0" d="M225.2,622.5v15.2c0,0,32.5,0,59.5-9.7l23.8-56.3l-15.2-4.3C293.4,566.2,276.1,616,225.2,622.5z"/>
	</g>
	<path class="st0" d="M397.4,465.8c0,0-6.5,1.1-26-31.4c0,0-1.1-2.2-3.2-3.2V430c0,0,21.7-2.2,19.5-24.9c0,0,0-18.4-18.4-20.6h-47.6
		v6.5h4.3c0,0,6.5,0,6.5,7.6s0,60.6,0,60.6s1.1,7.6-7.6,7.6h-3.2v6.5h34.6v-6.5h-6.5c0,0-4.3,0-4.3-7.6s0-23.8,0-23.8h6.5
		c0,0,6.5,1.1,8.7,6.5c0,0,10.8,27.1,30.3,32.5h10.8v-6.5v-2.2h-2.2L397.4,465.8L397.4,465.8z M344.3,426.8v-33.6c0,0,0-2.2,2.2-3.2
		c0,0,20.6-4.3,22.7,14.1c0,0,3.2,19.5-10.8,22.7C358.4,426.8,344.3,426.8,344.3,426.8z"/>
	<path class="st0" d="M471,384.5c-22.7,0-41.1,19.5-41.1,43.3s18.4,43.3,41.1,43.3s41.1-19.5,41.1-43.3
		C511.1,402.9,493.7,384.5,471,384.5z M471,466.8c-15.2,0-28.1-18.4-28.1-39s13-39,28.1-39s28.1,18.4,28.1,39S486.2,466.8,471,466.8
		z"/>
	<path class="st0" d="M539.2,385.5v5.4h4.3c0,0,3.2-1.1,6.5,6.5l24.9,74.7h6.5l21.7-62.8l22.7,62.8h7.6l24.9-76.9
		c0,0,1.1-4.3,3.2-4.3h4.3v-6.5h-30.3v6.5h6.5c0,0,6.5,0,3.2,7.6L630,447.2v1.1l-21.7-60.6H604l-22.7,62.8l-16.2-55.2
		c0,0,0-3.2,2.2-3.2h4.3v-6.5L539.2,385.5L539.2,385.5z"/>
	<g>
		<path class="st0" d="M676.7,385.5v17.2h9.7c0,0,16.2,2.2,22.6,11.9l196.1,225.2h14v-35.6L730.6,385.5H676.7z"/>
		<path class="st0" d="M854.5,385.5v19.4h19.4c0,0,18.3-1.1,19.4,23.7v59.3c0,0,20.5,20.5,20.5,19.4s0-79.7,0-79.7
			s-1.1-19.4,20.5-25.9h15.1v-17.2h-94.8C854.5,384.5,854.5,385.5,854.5,385.5z"/>
		<path class="st0" d="M717.6,517v85.1c0,0-1.1,16.2-15.1,19.4h-22.6v16.2h98v-16.2h-24.8c0,0-11.9,1.1-16.2-16.2v-71.1L717.6,517z"
			/>
	</g>
	<g>
		<g>
			<rect x="328.1" y="573.7" class="st0" width="152.7" height="11.9"/>
			<rect x="333.5" y="598.6" class="st0" width="140.7" height="13"/>
			<rect x="320.5" y="622.5" class="st0" width="166.7" height="16.2"/>
		</g>
		<rect x="398.5" y="575.9" class="st0" width="18.4" height="54.1"/>
	</g>
	<path class="st0" d="M415.8,499v-9.7h-21.7v9.7H340v66h15.2v-2.2H471V500h-55.2V499z M455.8,548.8h-97.4v-11.9h97.4V548.8z
		 M455.8,526.1h-97.4v-11.9h97.4V526.1z"/>
	<g>
		<polygon class="st0" points="502.4,498 502.4,533.7 517.5,533.7 517.5,543.4 578.2,543.4 578.2,529.4 521.9,529.4 521.9,510.9 
			645.3,510.9 645.3,533.7 664.8,533.7 665.9,533.7 665.9,498 		"/>
		<path class="st0" d="M637.7,518.5h-19.5v21.7h-36.8v14.1h36.8v41.1c0,0,0,6.5-4.3,6.5h-17.3l6.5,16.2l26-2.2c0,0,6.5-2.2,7.6-10.8
			V552h22.7v-14h-22.7v-19.5"/>
		<path class="st0" d="M586.8,566.7c0,0,14.1,17.3,18.4,29.2l17.3-8.7c0,0-9.7-21.7-21.7-29.2L586.8,566.7z"/>
		<path class="st0" d="M503.5,555.3v14.1h18.4c1.1,0,1.1,5.4,1.1,11.9c0,13-2.2,19.5-13,35.7c0,0-4.3,5.4-9.7,11.9l10.8,8.7
			c0,0,27.1-17.3,27.1-50.9v-17.3h14.1v52c0,0,0,16.2,14.1,16.2c15.2,0,81.2,0,81.2,0s15.2-1.1,15.2-16.2v-15.2H654l-5.4-5.4h-5.4
			v14.1c0,0,1.1,7.6-8.7,7.6c-9.7,0-60.6,0-60.6,0s-5.4,1.1-5.4-6.5s0-45.5,0-45.5h11.9v-14.1h-75.8v-1.1H503.5z"/>
	</g>
</g>
</svg>
