<?xml version="1.0" encoding="utf-8"?>
<!-- Generator: Adobe Illustrator 21.1.0, SVG Export Plug-In . SVG Version: 6.00 Build 0)  -->
<svg version="1.1" id="图层_1" xmlns="http://www.w3.org/2000/svg" xmlns:xlink="http://www.w3.org/1999/xlink" x="0px" y="0px"
	 viewBox="0 0 696.5 393.8" style="enable-background:new 0 0 696.5 393.8;" xml:space="preserve">
<style type="text/css">
	.st0{fill:#FFFFFF;}
	.st1{fill:#E45D26;}
	.st2{fill:#C2172F;}
	.st3{fill:#168FB3;}
</style>
<title>game-ag</title>
<polyline class="st0" points="392,33 330,297 619,318 647,38 "/>
<polygon class="st0" points="229,77.3 27,346.8 290.2,345.6 305,265 "/>
<g id="图层_2">
	<g id="图层_1-2">
		<path class="st1" d="M60.9,48.3L0,393.8h345.3l27-153.3c-8.7-20-11-42.2-6.8-66.5c4.1-23.1,13.5-45,27.7-63.8
			c0.9-1.2,1.8-2.4,2.8-3.6l10.3-58.4L60.9,48.3L60.9,48.3z M290.6,346.8l-34.7-81.6H135l-61.2,81.6H27L229,77.3l107.9,269.6H290.6z
			"/>
		<path class="st1" d="M345.3,393.8"/>
		<polygon class="st2" points="290.2,345.6 345.3,393.8 354.6,341 		"/>
		<polygon class="st1" points="165.9,224.9 240.1,224.9 213.8,161.7 		"/>
		<path class="st3" d="M351.1,0l-60.9,345.6h345.3L696.5,0H351.1z M621.4,131.5l-45.5,0.8l-4.7-14.2c-18.9-23-31.5-28.1-59.2-28.1
			c-15.7,0-31.5,4-46.9,11.8h-0.1c-15.5,7.6-28.9,18.7-39.3,32.5c-10.1,13.5-16.5,27.9-19.1,42.7c-2.7,15.7-1.2,29.7,4.5,43
			c5.3,12.8,14.6,23.6,26.5,30.8c12.6,7.8,27.5,11.8,44.3,11.8c19.3,0.1,38.2-5.7,54.1-16.8c13-9,18.7-12.8,25.2-26.4h-71.4
			l5.3-38.6l121.6-0.6l-0.4,2.1c-6.5,36.8-22.5,66.6-47.3,88.4s-55.6,33-91.3,33c-43.5,0-76-15.7-96.5-46.7
			c-15.8-23.9-21.1-51.8-15.8-82.9c4.1-23.1,13.5-45,27.7-63.8c14.1-19.1,32.4-34.8,53.5-45.7c21.1-11,44.6-16.6,68.4-16.5
			c56.7,0.8,86.5,29.1,96.4,51.8C624.7,123.8,621.4,131.5,621.4,131.5L621.4,131.5z"/>
	</g>
</g>
</svg>
