<?xml version="1.0" encoding="utf-8"?>
<!-- Generator: Adobe Illustrator 21.1.0, SVG Export Plug-In . SVG Version: 6.00 Build 0)  -->
<svg version="1.1" id="图层_1" xmlns="http://www.w3.org/2000/svg" xmlns:xlink="http://www.w3.org/1999/xlink" x="0px" y="0px"
	 viewBox="0 0 880 336.2" style="enable-background:new 0 0 880 336.2;" xml:space="preserve">
<style type="text/css">
	.st0{fill:#FFFFFF;}
</style>
<g>
	<path class="st0" d="M879.3,241l-0.2-25.6c0.3-3.3,0.5-6.6,0.5-9.9c0.8-72.1-57-131.2-129.1-132.1c-9.9-0.1-19.6,0.9-28.9,2.9
		c-19.1,4.1-36.7,12.4-51.7,23.8c-1.1,0.8-2.1,1.7-3.2,2.6l-0.3-0.3l-7.3,6.7c-8.1-13.8-23.1-23-40.3-23c-0.6,0-1.2,0-1.8,0
		l0.5,61.4l-44.3,40.9l-0.1,0.1l-8.8,8C560.6,127.9,503.7,73.4,434,73.4c-9.9,0-19.6,1.1-28.9,3.2c-19.1,4.3-36.5,12.8-51.4,24.4
		l-0.4-0.4l-3.8,3.8c-2.5,2.1-4.9,4.3-7.2,6.6V43.5c0-23.6-19.1-42.6-42.6-42.6h-5.3v0.3v84.6v71.9h1.9l-1.1,1.1
		c4.7,1.9,9.6,3.5,14.7,4.5c5.1,1,10.4,1.6,15.8,1.6c14.6,0,28.2-3.9,40-10.7c-0.1,0.2-0.3,0.4-0.4,0.6l0.8-0.8l18.1-18.1
		c2-1.5,4.2-2.9,6.3-4.2c12.4-7.3,26.8-11.5,42.3-11.5c46,0,83.2,37.3,83.2,83.2c0,46-37.3,83.2-83.2,83.2
		c-22.9,0-43.7-9.3-58.8-24.3l-60.5-59.8l-0.1-0.1l-89.6-89.6c-23.7-24.2-56.8-39.2-93.3-39.2c-31.3,0-60.1,11-82.6,29.5V42.6
		C47.9,19,28.8,0,5.3,0H0v0.3v84.6v125.6h0.2c3.3,69.2,60.4,124.3,130.4,124.3c9.9,0,19.6-1.1,28.9-3.2
		c19.1-4.3,36.5-12.8,51.4-24.4l0.4,0.4l3.8-3.8c5.5-4.6,10.5-9.7,15.1-15.1l39.2-39.2c-4.7-1.9-9.6-3.5-14.7-4.5
		c-5.1-1-10.4-1.6-15.8-1.6c-14.6,0-28.2,3.9-40,10.7c0.1-0.2,0.3-0.4,0.4-0.6l-0.8,0.8l-18.1,18.1c-2,1.5-4.2,2.9-6.3,4.2
		c-12.4,7.3-26.8,11.5-42.3,11.5c-46,0-83.2-37.3-83.2-83.2c0-46,37.3-83.2,83.2-83.2c22.9,0,43.7,9.3,58.8,24.3c2,2,3.8,4,5.6,6.2
		l64.4,63.8l0.1,0.1l89.6,89.6l0.5-0.5l0.2-0.2c22.6,18.6,51.5,29.8,83,29.8c39.2,0,74.4-17.3,98.3-44.7l0.1,0.1l85.6-79.3v0.3v5.8
		l-0.2,25.6l-0.8,93.6c0.6,0,1.2,0,1.8,0c20.5,0,37.9-13.2,44.2-31.5c1.1-3.1,1.8-6.3,2.2-9.6c0.2-1.9,0.4-3.8,0.4-5.7
		c0-1.7-0.1-3.4-0.3-5.1l0.4-55h0.2l-0.1-18l0.1-18h-0.2l-0.2-26.3l12.8-11.9c1-0.5,1.9-1,2.9-1.5c1.2-1.6,2.4-3.1,3.7-4.6
		l13.1-12.1l0,0c0.6-0.5,1.3-1,1.9-1.4c2.1-1.5,4.2-2.8,6.4-4.1c12.5-7.2,27-11.2,42.4-11.1c45.9,0.5,82.7,38.1,82.2,84h0.2
		l-0.1-12.4l0.6,91.1c-0.2,1.7-0.3,3.4-0.3,5.1c0,1.9,0.1,3.8,0.4,5.7c0.4,3.3,1.2,6.5,2.2,9.6c6.3,18.4,23.7,31.5,44.2,31.5
		c0.6,0,1.2,0,1.8,0L879.3,241z"/>
	<path class="st0" d="M618.6,43l6.5,6.5l15.4,15.4L662.4,43c0.8-1.2,1.6-2.4,2.2-3.7c1.7-3.5,2.7-7.5,2.7-11.7
		c0-14.8-12-26.8-26.8-26.8c-14.8,0-26.8,12-26.8,26.8c0,4.2,1,8.1,2.7,11.7C617,40.6,617.7,41.9,618.6,43z"/>
</g>
</svg>
