<?xml version="1.0" encoding="utf-8"?>
<!-- Generator: Adobe Illustrator 21.1.0, SVG Export Plug-In . SVG Version: 6.00 Build 0)  -->
<svg version="1.1" id="图层_1" xmlns="http://www.w3.org/2000/svg" xmlns:xlink="http://www.w3.org/1999/xlink" x="0px" y="0px"
	 viewBox="0 0 882 584.6" style="enable-background:new 0 0 882 584.6;" xml:space="preserve">
<style type="text/css">
	.st0{fill:#FFFFFF;}
</style>
<g>
	<path class="st0" d="M140.7,298.1h65.2v51.5h25.7v-51.5h60.1c21.4,0,39.6-21.4,39.6-42.8V151.1c0-21.4-18.2-39.7-39.6-39.7h-60.1
		V79.2h-25.7v32.2h-65.2c-21.4,0-37.7,18.3-37.7,39.7v104.2C102.9,276.7,119.3,298.1,140.7,298.1z M231.6,143.5L231.6,143.5h60.1
		c6.4,0,10.7,0.9,10.7,7.5v47.3h-70.8L231.6,143.5L231.6,143.5z M231.6,220.8h70.8v34.5c0,6.6-4.2,17-10.7,17h-60.1V220.8z
		 M131.9,151.1c0-6.6,2.3-7.5,8.8-7.5h65.2v54.7h-74V151.1z M131.9,220.8h74v51.5h-65.2c-6.4,0-8.8-10.4-8.8-17V220.8z"/>
	<path class="st0" d="M799.4,0H530.6c-43.9,0-78.4,36.3-78.4,81.1v266c0,44.8,34.5,81.1,78.4,81.1h268.8c43.9,0,80.6-36.3,80.6-81.1
		v-266C880,36.3,843.3,0,799.4,0z M800.5,410H531.7c-33.8,0-61.3-28.2-61.3-62.9v-266c0-34.7,27.5-62.9,61.3-62.9h268.8
		c33.8,0,61.3,28.2,61.3,62.9v266l0,0C861.7,381.8,834.3,410,800.5,410z"/>
	<path class="st0" d="M78.4,428.2h268.8c43.9,0,80.6-36.3,80.6-81.1v-266c0-44.8-36.7-81.1-80.6-81.1H78.4C34.5,0,0,36.3,0,81.1v266
		C0,391.9,34.5,428.2,78.4,428.2z M18.2,81.2c0-34.7,27.5-62.9,61.3-62.9h268.8c33.8,0,61.3,28.2,61.3,62.9v266
		c0,34.7-27.5,62.9-61.3,62.9H79.5c-33.8,0-61.3-28.2-61.3-62.9V81.2z"/>
	<path class="st0" d="M780.3,256.2h9.6v-90.7c0-19-13.3-25.2-32.6-25.2h-38.1v-9.7h41.5c19.3,0,39-21.4,39-40.7V79.1h-29v10.8
		c0,3.8-6.2,11.7-10,11.7h-41.5V79.1h-29v22.5h-74v29h74v9.7h-35.9c-9.3,0-15.9-0.9-22.3,5.3c-3.7,3.7-6.1,3.8-6.1,8.7v-4.4h-38.6
		V79.1h-25.7v70.8h-29v25.8h29v173.9h25.7V175.7h32.2v80.5h29v-19.3h41.8v19.3h29v-19.3H761v12.9h-9.6v9.7H616.2v29h20.5l-12.8,19.3
		l59.4,33.6l14.2-22L642,288.5h109.4V311c0,3.8-1.9,9.7-5.7,9.7h-42.6v29h42.6c19.2,0,34.6-19.5,34.6-38.7v-22.5h22.5v-29h-22.5
		V256.2L780.3,256.2z M690.2,220.8h-41.8v-16.1h41.8V220.8z M690.2,182.2h-41.8v-16.6c0-3.7,2-2.7,5.9-2.7h35.9L690.2,182.2
		L690.2,182.2z M761,220.8h-41.8v-16.1H761V220.8z M761,165.5v16.6h-41.8v-19.3h38.1C761.2,162.9,761,161.9,761,165.5z"/>
	<path class="st0" d="M417.3,538L417.3,538c0,2.2,0.3,7.8,0.9,16.9c-2.5-2.9-6.3-6.5-11.2-10.6l-68.9-57.8h-15.6v98.1H343v-53
		c0-4.1-0.3-9.2-0.9-15.6c2.4,2.8,5.1,5.4,8.2,8l72,60.6h15.6v-98.1h-20.5V538H417.3z"/>
	<polygon class="st0" points="661.4,541.8 706.6,541.8 706.6,525.1 661.4,525.1 661.4,503.2 738.8,503.2 738.8,486.5 638.6,486.5 
		638.6,584.6 739.8,584.6 739.8,566.1 661.4,566.1 	"/>
	<path class="st0" d="M576.8,534c11.3-1.4,16.9-6.9,16.9-16.5v-12c0-12.7-7.3-19-22-19h-83.9v98.1h77.9c19.2,0,28.9-6.4,28.9-19.2
		v-12.5C594.5,541.8,588.6,535.5,576.8,534z M510.2,502.5L510.2,502.5h52c7,0,10.4,2.3,10.4,7v9.3c0,4.7-3.5,7-10.4,7h-52V502.5z
		 M573.2,558.2L573.2,558.2c0,3.7-1,6.1-3,7.4c-1.5,0.9-4.2,1.3-8,1.3h-52V542h52c3.8,0,6.5,0.4,8,1.3c2,1.3,3,3.7,3,7.4V558.2z"/>
	<path class="st0" d="M249.8,566.1h-65v-79.6H162v74.9c0,9.1,1.7,15.3,5.1,18.4c3.4,3.2,9.8,4.8,19.2,4.8h61.9
		c9.4,0,15.8-1.6,19.2-4.8c3.4-3.2,5.1-9.3,5.1-18.4v-74.9h-22.8L249.8,566.1L249.8,566.1z"/>
	<polygon class="st0" points="759.7,504 804.8,504 804.8,584.6 827.5,584.6 827.5,504 872.7,504 872.7,486.5 759.7,486.5 	"/>
	<path class="st0" d="M90.2,524.7H28.9v-21.1h64.4v11.2l20.1-4.8v-2.1c0-8.2-1.8-13.9-5.4-16.9s-9.9-4.6-18.9-4.6H33.5
		c-9.4,0-15.8,1.6-19.2,4.8s-5.1,9.3-5.1,18.4v10.8c0,9.1,1.7,15.3,5.1,18.4c3.4,3.2,9.8,4.8,19.2,4.8h61.2V566H25.3v-11.6
		l-20.1,4.2v2.7c0,9.1,1.7,15.3,5.2,18.4c3.5,3.2,9.9,4.8,19.3,4.8h60.6c9.4,0,15.8-1.6,19.3-4.8s5.2-9.3,5.2-18.4v-13.5
		c0-9.1-1.7-15.3-5.2-18.4C106,526.3,99.6,524.7,90.2,524.7z"/>
</g>
</svg>
