<?xml version="1.0" encoding="utf-8"?>
<!-- Generator: Adobe Illustrator 21.1.0, SVG Export Plug-In . SVG Version: 6.00 Build 0)  -->
<svg version="1.1" id="图层_1" xmlns="http://www.w3.org/2000/svg" xmlns:xlink="http://www.w3.org/1999/xlink" x="0px" y="0px"
	 viewBox="0 0 880 896.3" style="enable-background:new 0 0 880 896.3;" xml:space="preserve">
<style type="text/css">
	.st0{fill:#62C4D3;}
	.st1{fill:#317B86;}
	.st2{fill:#FBF02A;}
	.st3{opacity:0.75;}
	.st4{fill:#E7470C;}
	.st5{fill:#FFFFFF;}
	.st6{fill:#F5A747;}
	.st7{fill:#71BB3B;}
	.st8{fill:#1980AB;}
</style>
<path class="st0" d="M533.7,886C771,833.3,921.5,594.6,869.8,352.8S583.7-42.3,346.3,10.4S-41.5,301.8,10.2,543.6
	S296.3,938.6,533.7,886z"/>
<ellipse class="st1" cx="409.1" cy="431" rx="371.8" ry="384"/>
<ellipse class="st0" cx="384.6" cy="407.7" rx="331.8" ry="342.6"/>
<polygon class="st2" points="294.3,262.3 288.9,262.3 288.1,272.9 293.7,272.9 "/>
<g>
	<g class="st3">
		<path class="st1" d="M456.7,347.2c83.4-55.8,178.9-35.9,204.8-30.7c25.9,5.2,66.4,0,66.4-44.6c-4.5-62.4-105.2-50.2-105.2-50.2
			C473,231.8,412.5,380.6,412.5,380.6S428.7,365.3,456.7,347.2z"/>
		<polygon class="st1" points="157.8,617.7 180,609.3 163.4,715.2 204.9,715.2 219.6,563.2 157.8,589.8 		"/>
		<path class="st1" d="M393.1,564.7l-16.6,44.6h24.9l5.5-16.7h13.8l-2.8,25.1h-38.7l-2.8,16.7h55.4c0,0-6.2,31.4-5.5,39
			c0.7,7.7,11.1,11.2,11.1,11.2h36l2.8-19.5H454c-4.4,0-2.8-8.4-2.8-8.4l2.8-22.3h24.9l2.8-16.7h-38.7l2.8-25.1h38.7l2.8-16.7h-38.8
			l2.8-11.2h-24.9l-2.8,11.2h-11.1l2.8-11.2L393.1,564.7L393.1,564.7z"/>
		<polygon class="st1" points="398.6,684.6 420.8,642.8 393.1,642.8 371,684.6 		"/>
		<path class="st1" d="M340.5,514.5c-34.2-6.8-54.1-18.8-64.5-28.1c-18.7-16.7-35.2-10.3-39.5,2.8c-8.5,30.3,39.1,38.5,56.9,42
			c60.9,9.9,94-8,105.2-13.9C398.6,517.3,364,519,340.5,514.5z"/>
		<polygon class="st1" points="348.8,598.1 373.7,598.1 368.2,564.7 343.3,564.7 		"/>
		<polygon class="st1" points="246.4,617.7 268.6,609.3 251.9,715.2 293.5,715.2 312.8,561.9 246.4,589.8 		"/>
		<path class="st1" d="M470.6,695.7H368.2c-7.8-1.6-5.5-13.9-5.5-13.9l11.1-78.1H335l-5.5,19.5h13.8c0,0-9,58.6-8.3,72.5
			c0.7,13.9,16.6,19.5,16.6,19.5h116.2L470.6,695.7z"/>
		<path class="st1" d="M778.5,467.6c-11.9-27.7-67.1-127.4-197.7-133c-90-2-157.9,52.8-172.9,85.5c-18.9,41.3,12.9,77.7,37.7,86
			c30.4,10.1,55.4-16.7,55.4-16.7c40.6-40,63.2-45.1,105.2-44.6c149.9,18.1,103.1,170.1,99.6,181.2
			c-45.3,101.7-121.7,120.4-180.4,117c-46.8-2.7-82-21.5-82.5-19.4c-2.4,8.2,43.7,35.7,75.2,44.7c44.5,12.7,100.1,10.9,160.1-16.8
			C784,692.9,821.1,566.6,778.5,467.6z"/>
		<path class="st1" d="M498.3,681.8c0,0-1.2,4.4-2.8,33.5c72,7.9,141.1-14.4,141.1-69.7c-0.7-55.3-83-66.9-83-66.9l2.8-22.3h80.3
			l2.8-39h-119l-11.1,97.6c0,0,81.9-1.2,83,36.3C592.4,687.4,498.3,681.8,498.3,681.8z"/>
		<path class="st1" d="M323.4,431.8c-13.5,9.8-28.6,17.5-44.9,22.5c58.3,57.8,128.5,51.9,128.5,51.9
			C363.5,493.6,338.1,462.6,323.4,431.8z"/>
		<path class="st1" d="M343.8,414.1c18.9,56.2,60.3,80.8,60.3,80.8c-13.1-15-23.9-56.5-22.1-83.7c10-79.8,55.4-103.9,66.4-131.1
			c11.1-27.2-3.8-48.4-22.1-55.8c-11.3-4.5-34.8-5.8-55.8,17.4c10,20.3,15.8,43,15.8,67C386.3,349.8,370.1,386.8,343.8,414.1z"/>
		<ellipse class="st1" cx="231.6" cy="306.7" rx="132.5" ry="113"/>
		<path class="st1" d="M369.8,309c0-74.8-60.6-135.4-135.4-135.4S99.1,234.2,99.1,309c0,74.8,60.6,135.4,135.4,135.4
			S369.8,383.7,369.8,309z M227.9,369.7H124.7l9.1-104h24.9l-7.6,89.5h13.2l6.3-98.6h26.2l-6.3,98.6h12.7l5.8-89.5h24.1L227.9,369.7
			z M241.2,269.3v-12.7h109.3v12.7h-24.6l-0.7,10.6h23.9l-2.8,90.1H240l5.8-90.1h24.6l0.7-10.6H241.2z"/>
	</g>
	<g>
		<g>
			<path class="st4" d="M449.7,340.2c83.4-55.8,178.9-35.9,204.8-30.7c25.9,5.2,66.4,0,66.4-44.6c-4.5-62.4-105.2-50.2-105.2-50.2
				C466,224.8,405.5,373.6,405.5,373.6S421.7,358.3,449.7,340.2z"/>
			<polygon class="st5" points="150.8,610.7 173,602.3 156.4,708.2 197.9,708.2 212.6,556.2 150.8,582.8 			"/>
			<path class="st5" d="M386.1,557.7l-16.6,44.6h24.9l5.5-16.7h13.8l-2.8,25.1h-38.7l-2.8,16.7h55.4c0,0-6.2,31.4-5.5,39
				c0.7,7.7,11.1,11.2,11.1,11.2h36l2.8-19.5H447c-4.4,0-2.8-8.4-2.8-8.4l2.8-22.3h24.9l2.8-16.7h-38.7l2.8-25.1h38.7l2.8-16.7
				h-38.8l2.8-11.2h-24.9l-2.8,11.2h-11.1l2.8-11.2L386.1,557.7L386.1,557.7z"/>
			<polygon class="st5" points="391.6,677.6 413.8,635.8 386.1,635.8 364,677.6 			"/>
			<path class="st6" d="M333.5,507.5c-34.2-6.8-54.1-18.8-64.5-28.1c-18.7-16.7-35.2-10.3-39.5,2.8c-8.5,30.3,39.1,38.5,56.9,42
				c60.9,9.9,94-8,105.2-13.9C391.6,510.3,357,512,333.5,507.5z"/>
			<polygon class="st5" points="341.8,591.1 366.7,591.1 361.2,557.7 336.3,557.7 			"/>
			<polygon class="st5" points="239.4,610.7 261.6,602.3 244.9,708.2 286.5,708.2 305.8,554.9 239.4,582.8 			"/>
			<path class="st5" d="M463.6,688.7H361.2c-7.8-1.6-5.5-13.9-5.5-13.9l11.1-78.1H328l-5.5,19.5h13.8c0,0-9,58.6-8.3,72.5
				c0.7,13.9,16.6,19.5,16.6,19.5h116.2L463.6,688.7z"/>
			<path class="st5" d="M771.5,460.6c-11.9-27.7-67.1-127.4-197.7-133c-90-2-157.9,52.8-172.9,85.5c-18.9,41.3,12.9,77.7,37.7,86
				c30.4,10.1,55.4-16.7,55.4-16.7c40.6-40,63.2-45.1,105.2-44.6c149.9,18.1,103.1,170.1,99.6,181.2
				c-45.3,101.7-121.7,120.4-180.4,117c-46.8-2.7-82-21.5-82.5-19.4c-2.4,8.2,43.7,35.7,75.2,44.7c44.5,12.7,100.1,10.9,160.1-16.8
				C777,685.9,814.1,559.6,771.5,460.6z"/>
			<path class="st5" d="M491.3,674.8c0,0-1.2,4.4-2.8,33.5c72,7.9,141.1-14.4,141.1-69.7c-0.7-55.3-83-66.9-83-66.9l2.8-22.3h80.3
				l2.8-39h-119l-11.1,97.6c0,0,81.9-1.2,83,36.3C585.4,680.4,491.3,674.8,491.3,674.8z"/>
			<path class="st7" d="M316.4,424.8c-13.5,9.8-28.6,17.5-44.9,22.5c58.3,57.8,128.5,51.9,128.5,51.9
				C356.5,486.6,331.1,455.6,316.4,424.8z"/>
			<path class="st8" d="M336.8,407.1c18.9,56.2,60.3,80.8,60.3,80.8c-13.1-15-23.9-56.5-22.1-83.7c10-79.8,55.4-103.9,66.4-131.1
				c11.1-27.2-3.8-48.4-22.1-55.8c-11.3-4.5-34.8-5.8-55.8,17.4c10,20.3,15.8,43,15.8,67C379.3,342.8,363.1,379.8,336.8,407.1z"/>
			<g>
				<ellipse class="st1" cx="224.6" cy="299.7" rx="132.5" ry="113"/>
				<path class="st2" d="M362.8,302c0-74.8-60.6-135.4-135.4-135.4S92.1,227.2,92.1,302c0,74.8,60.6,135.4,135.4,135.4
					S362.8,376.7,362.8,302z M220.9,362.7H117.7l9.1-104h24.9l-7.6,89.5h13.2l6.3-98.6h26.2l-6.3,98.6h12.7l5.8-89.5h24.1
					L220.9,362.7z M234.2,262.3v-12.7h109.3v12.7h-24.6l-0.7,10.6h23.9l-2.8,90.1H233l5.8-90.1h24.6l0.7-10.6H234.2z"/>
			</g>
		</g>
	</g>
</g>
<polygon class="st2" points="258.7,351.2 314.6,351.2 315.3,334.7 289.8,334.7 292.9,284.8 287.3,284.8 284.2,334.7 259.7,334.7 "/>
<polygon class="st2" points="317.2,284.8 311.4,284.8 309.1,323.8 315.7,323.8 "/>
<polygon class="st2" points="260.4,323.8 266.1,323.8 268.7,284.8 262.8,284.8 "/>
</svg>
