<?xml version="1.0" encoding="utf-8"?>
<!-- Generator: Adobe Illustrator 21.1.0, SVG Export Plug-In . SVG Version: 6.00 Build 0)  -->
<svg version="1.1" id="图层_1" xmlns="http://www.w3.org/2000/svg" xmlns:xlink="http://www.w3.org/1999/xlink" x="0px" y="0px"
	 viewBox="0 0 880 896.3" style="enable-background:new 0 0 880 896.3;" xml:space="preserve">
<style type="text/css">
	.st0{fill:#62C4D3;}
	.st1{fill:#317B86;}
	.st2{opacity:0.75;}
	.st3{fill:#F7DF5B;}
	.st4{fill:#FFFFFF;}
	.st5{fill:#F6D193;}
	.st6{fill:#81E8F2;}
	.st7{fill:#F46995;}
</style>
<path class="st0" d="M533.7,886C771,833.3,921.5,594.6,869.8,352.8S583.7-42.3,346.3,10.4S-41.5,301.8,10.2,543.6
	S296.3,938.6,533.7,886z"/>
<ellipse class="st1" cx="409.1" cy="431" rx="371.8" ry="384"/>
<ellipse class="st0" cx="384.6" cy="407.7" rx="331.8" ry="342.6"/>
<g>
	<g class="st2">
		<path class="st1" d="M108.5,307.7l-41,168h345l85,59h51c0,0,110.3,7,144.3-67.7s22.6-112.7,22.6-112.7l-4.6-60.7l-78-66.7
			l-118.7-4l-82.7,90L108.5,307.7z"/>
		<path class="st1" d="M721.6,249c19.9,0,36.1-16.2,36.1-36.2s-16.2-36.2-36.1-36.2c-19.9,0-36.1,16.2-36.1,36.2
			C685.5,232.8,701.7,249,721.6,249z"/>
		<path class="st1" d="M654.9,521c-33.4,0-60.5,27.1-60.5,60.5c0,33.3,27.2,60.5,60.5,60.5c33.4,0,60.5-27.1,60.5-60.5
			C715.4,548.2,688.3,521,654.9,521z"/>
		<path class="st1" d="M745.2,256.6l-1-1c-7,3.7-14.7,5.7-22.6,5.7c-26.6,0-48.2-21.7-48.2-48.3c0-4.7,0.7-9.4,2.1-14l-0.9-0.7
			c-27.6-13.8-58.7-21.6-91.6-21.6c-83.1,0-154.7,49.6-186.8,120.9l-296.4-0.1c-10,0-19.5,8.1-21.3,18.1L50.9,472.7
			c-1.8,10,4.9,18.1,14.9,18.1l343.3-0.1c35.7,57.4,98.9,95.8,171.1,96.7c-6.9-0.1,3.1,0.2,3.1,0.2c-0.2-2.1-0.3-4.1-0.3-6.2
			c0-19.8,8-37.8,20.9-50.9c-31.9,3.8-70.1-1.4-93.7-13.3c-14.1-7.2-25.2-17-33.5-29.3c-8.2-12.4-14-27.6-17.2-45.6l78.7-4.6
			c1.4,16.1,5,27.4,10.8,34c5.7,6.5,13.6,10.3,23.5,11c10.4,0.8,19.5-2.4,27.2-9.7c7.7-7.2,12.3-17.3,13.6-30.1
			c1.4-13.1-1-23.5-6.9-31.3c-5.9-7.7-14.6-12-26.1-12.9c-6-0.4-14.6,0.5-25.6,2.7l9.8-55.9c4.3,1,7.6,1.6,10,1.7
			c10.2,0.8,19-1.9,26.6-8c7.4-6,11.6-13.6,12.6-22.6c0.9-8.6-0.9-15.8-5.5-21.3c-4.5-5.5-11.3-8.6-20.2-9.3
			c-9.2-0.7-16.9,1.6-23.2,6.7c-6.3,5.2-11.2,14.7-14.7,28.6l-72.1-18.9c8.6-23.2,23.1-39,40.9-51.8
			c37.2-26.8,120.8-21.4,152.7,13.2c14.3,15.6,21.2,33,19,53.8c-1.3,12.3-5.7,23.1-13.3,32.5c-7.7,9.5-18.5,17.4-32.7,23.9
			c10.5,3.5,18.5,7.3,23.8,11.3c8.6,6.5,15.1,14.7,19.2,24.6c4.2,9.8,5.6,21.3,4.2,34.5c-1.7,16.5-7.7,31.9-17.7,46.4
			c-4.7,6.8-10.2,12.7-16.5,17.9c23.4,0.8,44,12.8,56.6,30.7l1.4-1.3c44.1-37.7,72-93.8,72-156.4C787.9,334.8,772,291.3,745.2,256.6
			z M118.9,457.7c-1.9,10.6-6.5,15-18.6,15H81l1.8-10c12.7,0,11.8-3.3,13.3-11.7c0.7-4.1,4.1-23.4,4.1-23.4l-11.5,1.7l1.8-10
			l11.5-1.7l8.8-50.1H99.5l1.8-10h11.2l7.3-41.8h24l-7.3,41.8h11.2l-1.8,10h-11.2l-7.9,45.1l9.9-1.7l-1.8,10l-9.9,1.7
			C125,422.6,119.9,452,118.9,457.7z M149.8,472.7l5.3-30.1h-20.8l1.8-10h20.8l5.9-33.4h-17.6l1.8-10h17.6l6.5-36.8h-19.2l1.8-10
			h19.2l4.7-26.7H203l-27.6,157.1H149.8z M241.1,399.2h-17.6l-5.9,33.4h20.8l-1.8,10h-20.8l-5.3,30.1H185l27.6-157.1h25.6
			c0,0-4.7,26.7-4.7,26.7h19.2l-1.8,10h-19.2l-6.5,36.8h17.6L241.1,399.2z M276.1,472.7h-28.8c12.6-13,25.7-25.6,33.6-36.8h-16
			l-5.2-25.1h24l3.7,15h1.6c0,0,15.5-26.4,23.6-42c7.5-14.3,6-16.7,5.8-16.5H301l-17.1,33.4h-25.6c0,0,15.8-31,25.1-51.8
			c4.7-10.5,6.7-20.1,6.7-20.1h-20.8l1.8-10h81.5l-1.8,10h-35.2c0,0-6.2,18.9-9.8,28.4c10.1,0,19.6-0.1,28.8,0
			c9.8,0,11.7,5.4,8.7,13.9C315.5,441.7,276.1,472.7,276.1,472.7z M357,330.7h24l-21.5,122h-24L357,330.7z M397.6,454.3
			c-2.5,14.3-6.8,18.4-20.8,18.4c-9.3,0-28.8,0-28.8,0l1.8-10c0,0,7,0,9.6,0c11.1,0,11.3-0.4,13.8-15
			c14.7-83.5,23.2-132.1,23.2-132.1H422C422,315.6,413.4,365,397.6,454.3z"/>
		<polygon class="st1" points="203.3,567.4 353.6,517 215.5,591 		"/>
		<polygon class="st1" points="307.9,599.9 371.3,549.6 318,609.1 		"/>
		<polygon class="st1" points="361.5,699.4 339.5,691.7 403.6,572.3 		"/>
	</g>
	<g>
		<g>
			<path class="st1" d="M101.5,300.7l-41,168h345l85,59h51c0,0,110.3,7,144.3-67.7s22.6-112.7,22.6-112.7l-4.6-60.7l-78-66.7
				l-118.7-4l-82.7,90L101.5,300.7z"/>
			<g>
				<path class="st3" d="M714.6,242c19.9,0,36.1-16.2,36.1-36.2s-16.2-36.2-36.1-36.2c-19.9,0-36.1,16.2-36.1,36.2
					C678.5,225.8,694.7,242,714.6,242z"/>
				<path class="st3" d="M647.9,514c-33.4,0-60.5,27.1-60.5,60.5c0,33.3,27.2,60.5,60.5,60.5c33.4,0,60.5-27.1,60.5-60.5
					C708.4,541.2,681.3,514,647.9,514z"/>
				<path class="st4" d="M738.2,249.6l-1-1c-7,3.7-14.7,5.7-22.6,5.7c-26.6,0-48.2-21.7-48.2-48.3c0-4.7,0.7-9.4,2.1-14l-0.9-0.7
					c-27.6-13.8-58.7-21.6-91.6-21.6c-83.1,0-154.7,49.6-186.8,120.9l-296.4-0.1c-10,0-19.5,8.1-21.3,18.1L43.9,465.7
					c-1.8,10,4.9,18.1,14.9,18.1l343.3-0.1c35.7,57.4,98.9,95.8,171.1,96.7c-6.9-0.1,3.1,0.2,3.1,0.2c-0.2-2.1-0.3-4.1-0.3-6.2
					c0-19.8,8-37.8,20.9-50.9c-31.9,3.8-70.1-1.4-93.7-13.3c-14.1-7.2-25.2-17-33.5-29.3c-8.2-12.4-14-27.6-17.2-45.6l78.7-4.6
					c1.4,16.1,5,27.4,10.8,34c5.7,6.5,13.6,10.3,23.5,11c10.4,0.8,19.5-2.4,27.2-9.7c7.7-7.2,12.3-17.3,13.6-30.1
					c1.4-13.1-1-23.5-6.9-31.3c-5.9-7.7-14.6-12-26.1-12.9c-6-0.4-14.6,0.5-25.6,2.7l9.8-55.9c4.3,1,7.6,1.6,10,1.7
					c10.2,0.8,19-1.9,26.6-8c7.4-6,11.6-13.6,12.6-22.6c0.9-8.6-0.9-15.8-5.5-21.3c-4.5-5.5-11.3-8.6-20.2-9.3
					c-9.2-0.7-16.9,1.6-23.2,6.7c-6.3,5.2-11.2,14.7-14.7,28.6l-72.1-18.9c8.6-23.2,23.1-39,40.9-51.8
					c37.2-26.8,120.8-21.4,152.7,13.2c14.3,15.6,21.2,33,19,53.8c-1.3,12.3-5.7,23.1-13.3,32.5c-7.7,9.5-18.5,17.4-32.7,23.9
					c10.5,3.5,18.5,7.3,23.8,11.3c8.6,6.5,15.1,14.7,19.2,24.6c4.2,9.8,5.6,21.3,4.2,34.5c-1.7,16.5-7.7,31.9-17.7,46.4
					c-4.7,6.8-10.2,12.7-16.5,17.9c23.4,0.8,44,12.8,56.6,30.7l1.4-1.3c44.1-37.7,72-93.8,72-156.4
					C780.9,327.8,765,284.3,738.2,249.6z M111.9,450.7c-1.9,10.6-6.5,15-18.6,15H74l1.8-10c12.7,0,11.8-3.3,13.3-11.7
					c0.7-4.1,4.1-23.4,4.1-23.4l-11.5,1.7l1.8-10l11.5-1.7l8.8-50.1H92.5l1.8-10h11.2l7.3-41.8h24l-7.3,41.8h11.2l-1.8,10h-11.2
					l-7.9,45.1l9.9-1.7l-1.8,10l-9.9,1.7C118,415.6,112.9,445,111.9,450.7z M142.8,465.7l5.3-30.1h-20.8l1.8-10h20.8l5.9-33.4h-17.6
					l1.8-10h17.6l6.5-36.8h-19.2l1.8-10h19.2l4.7-26.7H196l-27.6,157.1H142.8z M234.1,392.2h-17.6l-5.9,33.4h20.8l-1.8,10h-20.8
					l-5.3,30.1H178l27.6-157.1h25.6c0,0-4.7,26.7-4.7,26.7h19.2l-1.8,10h-19.2l-6.5,36.8h17.6L234.1,392.2z M269.1,465.7h-28.8
					c12.6-13,25.7-25.6,33.6-36.8h-16l-5.2-25.1h24l3.7,15h1.6c0,0,15.5-26.4,23.6-42c7.5-14.3,6-16.7,5.8-16.5H294l-17.1,33.4
					h-25.6c0,0,15.8-31,25.1-51.8c4.7-10.5,6.7-20.1,6.7-20.1h-20.8l1.8-10h81.5l-1.8,10h-35.2c0,0-6.2,18.9-9.8,28.4
					c10.1,0,19.6-0.1,28.8,0c9.8,0,11.7,5.4,8.7,13.9C308.5,434.7,269.1,465.7,269.1,465.7z M350,323.7h24l-21.5,122h-24L350,323.7z
					 M390.6,447.3c-2.5,14.3-6.8,18.4-20.8,18.4c-9.3,0-28.8,0-28.8,0l1.8-10c0,0,7,0,9.6,0c11.1,0,11.3-0.4,13.8-15
					c14.7-83.5,23.2-132.1,23.2-132.1H415C415,308.6,406.4,358,390.6,447.3z"/>
				<polygon class="st5" points="196.3,560.4 346.6,510 208.5,584 				"/>
				<polygon class="st6" points="300.9,592.9 364.3,542.6 311,602.1 				"/>
				<polygon class="st7" points="354.5,692.4 332.5,684.7 396.6,565.3 				"/>
			</g>
		</g>
	</g>
</g>
</svg>
