<?xml version="1.0" encoding="utf-8"?>
<!-- Generator: Adobe Illustrator 21.1.0, SVG Export Plug-In . SVG Version: 6.00 Build 0)  -->
<svg version="1.1" id="图层_1" xmlns="http://www.w3.org/2000/svg" xmlns:xlink="http://www.w3.org/1999/xlink" x="0px" y="0px"
	 viewBox="0 0 880 896.2" style="enable-background:new 0 0 880 896.2;" xml:space="preserve">
<style type="text/css">
	.st0{fill:#2C807E;}
	.st1{fill:#0D3333;}
	.st2{opacity:0.75;}
	.st3{fill:#D5E6E5;}
	.st4{fill:#FFFFFF;}
	.st5{fill:#F4F64F;}
</style>
<path class="st0" d="M533.7,885.8C771,833.1,921.5,594.4,869.8,352.6S583.7-42.5,346.3,10.2S-41.5,301.6,10.2,543.4
	S296.3,938.5,533.7,885.8z"/>
<ellipse class="st1" cx="409.1" cy="430.9" rx="371.8" ry="384"/>
<ellipse class="st0" cx="384.6" cy="407.6" rx="331.8" ry="342.6"/>
<g>
	<g class="st2">
		<path class="st1" d="M541.7,642v-24.3c2.5-6.9,21.1-34.6,18.4-38.6c-4.7,2-9.5,3.9-14.2,5.9c-5.1,3-9.2,14.8-10.9,21
			c-0.6,0.3-1.1,0.6-1.7,0.8c-3.1-4.8-6.1-9.5-9.2-14.3c-5.6,2-11.2,3.9-16.8,5.9c-0.3,0.6-0.6,1.1-0.8,1.7
			c12.7,11.4,19.9,21.4,19.3,47C531.1,645.3,536.4,643.6,541.7,642z"/>
		<path class="st1" d="M245.1,735.1c0.2-9.6,3.4-35.5-1.7-41.1c-4.7,1.7-9.5,3.4-14.2,5c-0.3,0.6-0.6,1.1-0.8,1.7v53.7l41-14.3
			v-13.4c-7.8,2.8-15.6,5.6-23.5,8.4H245.1z"/>
		<path class="st1" d="M301.2,672.2c-16.4,8.9-37,18.5-30.2,47c1.5,6.1,2.7,11,7.5,13.4C312.3,749.5,347.9,670.1,301.2,672.2z
			 M290.3,719.2c-3.9-5.6-6.3-17-1.7-24.3c2.1-4.6,5.1-5.8,9.2-8.4h4.2c0.6,0.3,1.1,0.6,1.7,0.8
			C311.6,699.8,306.3,719.1,290.3,719.2z"/>
		<path class="st1" d="M412.7,633.6h-3.4c-29,10.6-58.1,21.3-87.1,31.9v14.3c5.3-2,10.6-3.9,15.9-5.9V715c5.3-1.7,10.6-3.4,15.9-5
			v-42c8.7-3.1,17.3-6.2,26-9.2v41.1l14.2-5c14.6-12.1-16-38.8,18.4-47.8l0,0h0L412.7,633.6z"/>
		<path class="st1" d="M431.1,669.6c-0.7-14.4,12.4-17.1,23.5-18.5c0.3-4.2,0.6-8.4,0.8-12.6c-8.1,3.1-16.2,6.2-24.3,9.2v-9.2
			c8.7-2.8,17.3-5.6,26-8.4c-0.3-4.2-0.6-8.4-0.8-12.6c-13.7,5-27.4,10.1-41.1,15.1v55.4c14.2-5,28.5-10.1,42.7-15.1v-12.6
			c-8.7,3.1-17.3,6.2-26,9.2L431.1,669.6z"/>
		<path class="st1" d="M476.3,642.8c1.7-0.3,3.4-0.6,5-0.8c3.6,5.9,7.3,11.8,10.9,17.6c5.9-2,11.7-3.9,17.6-5.9
			c0.7-5.4-7.4-18-14.2-19.3c5.2-6.2,13.7-12.7,10.1-25.2c-1.4-3-2-3.7-5-5c-2-0.3-3.9-0.6-5.9-0.8c-11.5,3.9-22.9,7.8-34.4,11.7
			v56.2c5.3-2,10.6-3.9,15.9-5.9L476.3,642.8z M485.5,617.6h3.3c0.6,1.7,1.1,3.4,1.7,5c-3.1,5.5-7.1,7-13.4,9.2
			c-0.3-3.6-0.6-7.3-0.8-10.9C479.4,619.9,482.5,618.7,485.5,617.6z"/>
		<path class="st1" d="M572.7,394.4c8.7-15.4,17.3-30.8,26-46.2c0.6-0.3,1.1-0.6,1.7-0.8v35.2c14-5.3,27.9-10.6,41.9-15.9v-41.1
			c-12.8,5-25.7,10.1-38.5,15.1c12.7-25.7,77.2-27.5,99.7-46.2c3.6-7.3,7.3-14.5,10.9-21.8c3.1-6.2,6.1-12.3,9.2-18.5
			c-14.8,5.9-29.6,11.7-44.4,17.6c-2,3.6-3.9,7.3-5.9,10.9v0c-29.6,11.5-59.2,22.9-88.8,34.4c-17.6,31-35.2,62.1-52.8,93.2
			C545.3,405,559,399.7,572.7,394.4z"/>
		<path class="st1" d="M653.1,489.2l9.2-89.8c6.1-2.8,12.3-5.6,18.4-8.4c2.8-8.9,5.6-17.9,8.4-26.8h-2.5c-17.6,7-35.2,14-52.8,21
			l3.3-10.9c-15.1,5.6-30.2,11.2-45.2,16.8c-1.7,4.5-3.3,8.9-5,13.4c-18.7,7.3-37.4,14.5-56.1,21.8c-2.8,8.9-5.6,17.9-8.4,26.8
			c5.9-2.2,11.7-4.5,17.6-6.7c-18.7,36.4-37.4,72.7-56.1,109.1l41.9-15.9l45.2-88.1l1.7-0.8c-9.2,28-18.4,55.9-27.6,83.9v0.8
			c15.1-5.9,30.2-11.7,45.2-17.6v0c8.9-28,17.9-55.9,26.8-83.9c-1.7,23.8-3.4,47.6-5,71.3C625.7,499.9,639.4,494.5,653.1,489.2z"/>
		<path class="st1" d="M699.2,303.8h-2.5c-13.4,5.3-26.8,10.6-40.2,15.9v41.1c13.7-5.3,27.4-10.6,41-15.9
			C698.1,331.2,698.6,317.5,699.2,303.8z"/>
		<path class="st1" d="M396.7,455.7l63.7-23.5c-1.7,4.5-3.4,9-5,13.4c-0.1,7.6,4.8,16.3,0.8,26c-4.8,11.8-16.2,19.4-20.9,30.2
			l-7.5,19.3c-9.5,3.9-19,7.8-28.5,11.7c-9.5,7-13.7,34.7-18.4,46.2c21.5-8.4,43-16.8,64.5-25.2c17.7-13,50.9-109.5,57.8-137.6
			c7-2.8,14-5.6,20.9-8.4c5.9-16.2,11.7-32.4,17.6-48.7l-19.3,7.6h-0.8c4.5-12.9,8.9-25.7,13.4-38.6h-1.7
			c-13.7,5.3-27.4,10.6-41,15.9l-13.4,39.4c-21.8,8.4-43.6,16.8-65.4,25.2C407.9,424.3,402.3,440,396.7,455.7z"/>
		<path class="st1" d="M431.9,451.5c-10.9,5.6-42.2,31.8-20.9,47.8C438.6,505.5,462.3,450.8,431.9,451.5z"/>
		<path class="st1" d="M362.4,565.6c12.3-34.4,24.6-68.8,36.9-103.2v-0.8c-4.2,1.4-8.4,2.8-12.6,4.2l22.6-61.3
			c2.3-3.6,8.9-5.6,13.4-6.7c1.9-5.6,3.9-11.2,5.9-16.8h-2.5c-26,10.1-51.9,20.1-77.9,30.2C326.1,472.7,304,534.3,282,595.8
			L362.4,565.6z M362.4,452.3c2.8-3.8,8.4-4.4,12.6-6.7c1,4-3.3,14.5-5.9,18.5c-2.4,3.7-8.3,5-12.6,6.7h-0.8
			C357.9,464.6,360.1,458.5,362.4,452.3z M352.3,506h1.7c-2.2,6.2-4.5,12.3-6.7,18.5c-2.3,3.6-8.5,5.1-12.6,6.7h-0.8
			c2.5-7,5-14,7.5-21C345.1,508.8,348.7,507.4,352.3,506z"/>
		<path class="st1" d="M198.2,526.1L198.2,526.1c-3.9,1.4-7.8,2.8-11.7,4.2h-0.8c7.5-21.3,15.1-42.5,22.6-63.8
			c4.5-1.4,8.9-2.8,13.4-4.2c1.7-5.9,3.4-11.7,5-17.6c-26.8,10.3-53.6,20.7-80.4,31c-22.1,61.5-44.1,123.1-66.2,184.6l81.3-30.2
			c12.3-34.4,24.6-68.8,36.9-103.2V526.1z M146.2,590.8c-4.5,1.7-8.9,3.4-13.4,5c2.2-7,4.5-14,6.7-21c3.6-1.4,7.3-2.8,10.9-4.2h2.5
			C150.7,577.3,148.5,584,146.2,590.8z M168,530.3c-4.5,1.7-8.9,3.4-13.4,5c2.5-7,5-14,7.5-21c3.6-1.4,7.3-2.8,10.9-4.2
			C175.5,513.6,169.7,524.7,168,530.3z"/>
		<path class="st1" d="M302.9,479.2c24.6-6.2,33.2-30.6,37.7-55.4l-20.1,7.6l12.6-39.4c-13.7,5.3-27.4,10.6-41.1,15.9
			c-5,13.4-10.1,26.9-15.1,40.3c-21.5,8.1-43,16.2-64.5,24.3l-16.8,47v0.8c21.2-8.1,42.4-16.2,63.7-24.3c-1.7,4.8-3.4,9.5-5,14.3
			c0.2,10.8,5,16.7-0.8,29.4c-4.3,9.5-13.7,15.9-18.4,24.3l-6.7,19.3c-4.7,6.5-22.4,11.2-31,13.4h0c-5.6,15.4-11.2,30.8-16.8,46.2
			c16-3.2,53.7-16.9,65.3-26C266.3,601,291.5,509.8,302.9,479.2z"/>
		<path class="st1" d="M210.7,563.1c22.6,4.7,40.7-23.5,32.7-44.5c-3.5-2.1-5.7-3.3-11.7-3.4v0C221.3,521.1,189.3,546.9,210.7,563.1
			z"/>
		<path class="st1" d="M770.4,282.8c6.2-28.3,28.7-43.2,43.6-62.9h-2.5c-21.2,8.4-42.5,16.8-63.7,25.2l-13.4,22.7
			c-13,21.5-19.2,45.6-24.3,76.4c-6.9,41.4,9.3,65.5-7.5,100.7c-12.3,25.6-31.4,45.8-44.4,69.6c-3.6,6.6-11,20.2-5.9,29.4
			c2.6,5.5,42.7,23.3,50.3,26c-17.1,43.6-65.5,64.5-103,88.1c-44.5,28-110.1,88.7-127.3,141.8l81.3-31.9
			c12.8-66.5,65.6-94.4,112.3-127.6c20.1-16.8,40.2-33.6,60.3-50.3c12.9-10.4,28.4-23.2,36-38.6c15.5-31.5-53.2-33.4-44.4-83.9
			c3.4-19.2,13-32.5,19.3-48.7c2.2-8.4,4.5-16.8,6.7-25.2c7.9-15.4,24.5-25.8,31.8-43.6v0C785.7,324.8,765,307.3,770.4,282.8z"/>
		<path class="st1" d="M362.6,278.4l34,78.5l-38,12.3l-32.3-79.1l-16.3,5.3l-23.2,97l-40.2,13l24.4-97.4l-31.4,10.2l-1.4-17.7
			l37.8-12.2l9.7-38.9l-45.4,14.7l-1.4-17.7l142.2-46.1l1.4,17.7l-58.6,19l-9.3,38.8l74.4-24.1l1.4,17.7L362.6,278.4z"/>
		<path class="st1" d="M438,217.2l-32.1,10.4l-11.3-31.7l31.4-10.2L438,217.2z M442.5,257.8l-31.8,10.3l-10.5-33.5l31.6-10.2
			L442.5,257.8z M442.3,266.1l-7,78.2l-31.5,10.2l8.1-78.6L442.3,266.1z M541.5,181.9l5.7-1.8l1.3,16.4l-6.2,2l1.5,30.4l-35.5,11.5
			l0.4,12.3l39.3-12.7l1.2,15.2L509.4,268l0.5,14.7l44-14.3l1.3,16.4l-44.8,14.5l0.8,20.6l-35.9,11.6l-0.6-20.7l-30.9,10l-1.3-16.4
			l31.7-10.3l-0.5-14.8l-28.3,9.2l-1.2-15.2l29.1-9.4l-0.4-12.3l-27.1,8.8l-1.2-15.2l27.8-9l-0.4-15.1l-29.6,9.6l-1.3-16.4l30.4-9.8
			l-0.4-12.4l-29.7,9.6l-1.2-15.2l30.4-9.9l-0.3-9.3l35-11.4l0.3,9.3l34.5-11.2L541.5,181.9z M515.3,190.4l-0.6-12.3l-8.5,2.7
			l0.4,12.4L515.3,190.4z M516.1,207l-8.9,2.9l0.6,15.1l9-2.9L516.1,207z"/>
	</g>
	<g>
		<g>
			<g>
				<path class="st3" d="M534.7,635v-24.3c2.5-6.9,21.1-34.6,18.4-38.6c-4.7,2-9.5,3.9-14.2,5.9c-5.1,3-9.2,14.8-10.9,21
					c-0.6,0.3-1.1,0.6-1.7,0.8c-3.1-4.8-6.1-9.5-9.2-14.3c-5.6,2-11.2,3.9-16.8,5.9c-0.3,0.6-0.6,1.1-0.8,1.7
					c12.7,11.4,19.9,21.4,19.3,47C524.1,638.3,529.4,636.6,534.7,635z"/>
				<path class="st3" d="M238.1,728.1c0.2-9.6,3.4-35.5-1.7-41.1c-4.7,1.7-9.5,3.4-14.2,5c-0.3,0.6-0.6,1.1-0.8,1.7v53.7l41-14.3
					v-13.4c-7.8,2.8-15.6,5.6-23.5,8.4H238.1z"/>
				<path class="st3" d="M294.2,665.2c-16.4,8.9-37,18.5-30.2,47c1.5,6.1,2.7,11,7.5,13.4C305.3,742.5,340.9,663.1,294.2,665.2z
					 M283.3,712.2c-3.9-5.6-6.3-17-1.7-24.3c2.1-4.6,5.1-5.8,9.2-8.4h4.2c0.6,0.3,1.1,0.6,1.7,0.8
					C304.6,692.8,299.3,712.1,283.3,712.2z"/>
				<path class="st3" d="M405.7,626.6h-3.4c-29,10.6-58.1,21.3-87.1,31.9v14.3c5.3-2,10.6-3.9,15.9-5.9V708c5.3-1.7,10.6-3.4,15.9-5
					v-42c8.7-3.1,17.3-6.2,26-9.2v41.1l14.2-5c14.6-12.1-16-38.8,18.4-47.8l0,0h0L405.7,626.6z"/>
				<path class="st3" d="M424.1,662.6c-0.7-14.4,12.4-17.1,23.5-18.5c0.3-4.2,0.6-8.4,0.8-12.6c-8.1,3.1-16.2,6.2-24.3,9.2v-9.2
					c8.7-2.8,17.3-5.6,26-8.4c-0.3-4.2-0.6-8.4-0.8-12.6c-13.7,5-27.4,10.1-41.1,15.1v55.4c14.2-5,28.5-10.1,42.7-15.1v-12.6
					c-8.7,3.1-17.3,6.2-26,9.2L424.1,662.6z"/>
				<path class="st3" d="M469.3,635.8c1.7-0.3,3.4-0.6,5-0.8c3.6,5.9,7.3,11.8,10.9,17.6c5.9-2,11.7-3.9,17.6-5.9
					c0.7-5.4-7.4-18-14.2-19.3c5.2-6.2,13.7-12.7,10.1-25.2c-1.4-3-2-3.7-5-5c-2-0.3-3.9-0.6-5.9-0.8c-11.5,3.9-22.9,7.8-34.4,11.7
					v56.2c5.3-2,10.6-3.9,15.9-5.9L469.3,635.8z M478.5,610.6h3.3c0.6,1.7,1.1,3.4,1.7,5c-3.1,5.5-7.1,7-13.4,9.2
					c-0.3-3.6-0.6-7.3-0.8-10.9C472.4,612.9,475.5,611.7,478.5,610.6z"/>
			</g>
			<g>
				<path class="st4" d="M565.7,387.4c8.7-15.4,17.3-30.8,26-46.2c0.6-0.3,1.1-0.6,1.7-0.8v35.2c14-5.3,27.9-10.6,41.9-15.9v-41.1
					c-12.8,5-25.7,10.1-38.5,15.1c12.7-25.7,77.2-27.5,99.7-46.2c3.6-7.3,7.3-14.5,10.9-21.8c3.1-6.2,6.1-12.3,9.2-18.5
					c-14.8,5.9-29.6,11.7-44.4,17.6c-2,3.6-3.9,7.3-5.9,10.9v0c-29.6,11.5-59.2,22.9-88.8,34.4c-17.6,31-35.2,62.1-52.8,93.2
					C538.3,398,552,392.7,565.7,387.4z"/>
				<path class="st4" d="M646.1,482.2l9.2-89.8c6.1-2.8,12.3-5.6,18.4-8.4c2.8-8.9,5.6-17.9,8.4-26.8h-2.5c-17.6,7-35.2,14-52.8,21
					l3.3-10.9c-15.1,5.6-30.2,11.2-45.2,16.8c-1.7,4.5-3.3,8.9-5,13.4c-18.7,7.3-37.4,14.5-56.1,21.8c-2.8,8.9-5.6,17.9-8.4,26.8
					c5.9-2.2,11.7-4.5,17.6-6.7c-18.7,36.4-37.4,72.7-56.1,109.1l41.9-15.9l45.2-88.1l1.7-0.8c-9.2,28-18.4,55.9-27.6,83.9v0.8
					c15.1-5.9,30.2-11.7,45.2-17.6v0c8.9-28,17.9-55.9,26.8-83.9c-1.7,23.8-3.4,47.6-5,71.3C618.7,492.9,632.4,487.5,646.1,482.2z"
					/>
				<path class="st4" d="M692.2,296.8h-2.5c-13.4,5.3-26.8,10.6-40.2,15.9v41.1c13.7-5.3,27.4-10.6,41-15.9
					C691.1,324.2,691.6,310.5,692.2,296.8z"/>
				<path class="st4" d="M389.7,448.7l63.7-23.5c-1.7,4.5-3.4,9-5,13.4c-0.1,7.6,4.8,16.3,0.8,26c-4.8,11.8-16.2,19.4-20.9,30.2
					l-7.5,19.3c-9.5,3.9-19,7.8-28.5,11.7c-9.5,7-13.7,34.7-18.4,46.2c21.5-8.4,43-16.8,64.5-25.2c17.7-13,50.9-109.5,57.8-137.6
					c7-2.8,14-5.6,20.9-8.4c5.9-16.2,11.7-32.4,17.6-48.7l-19.3,7.6h-0.8c4.5-12.9,8.9-25.7,13.4-38.6h-1.7
					c-13.7,5.3-27.4,10.6-41,15.9l-13.4,39.4c-21.8,8.4-43.6,16.8-65.4,25.2C400.9,417.3,395.3,433,389.7,448.7z"/>
				<path class="st4" d="M424.9,444.5c-10.9,5.6-42.2,31.8-20.9,47.8C431.6,498.5,455.3,443.8,424.9,444.5z"/>
				<path class="st4" d="M355.4,558.6c12.3-34.4,24.6-68.8,36.9-103.2v-0.8c-4.2,1.4-8.4,2.8-12.6,4.2l22.6-61.3
					c2.3-3.6,8.9-5.6,13.4-6.7c1.9-5.6,3.9-11.2,5.9-16.8h-2.5c-26,10.1-51.9,20.1-77.9,30.2C319.1,465.7,297,527.3,275,588.8
					L355.4,558.6z M355.4,445.3c2.8-3.8,8.4-4.4,12.6-6.7c1,4-3.3,14.5-5.9,18.5c-2.4,3.7-8.3,5-12.6,6.7h-0.8
					C350.9,457.6,353.1,451.5,355.4,445.3z M345.3,499h1.7c-2.2,6.2-4.5,12.3-6.7,18.5c-2.3,3.6-8.5,5.1-12.6,6.7h-0.8
					c2.5-7,5-14,7.5-21C338.1,501.8,341.7,500.4,345.3,499z"/>
				<path class="st4" d="M191.2,519.1L191.2,519.1c-3.9,1.4-7.8,2.8-11.7,4.2h-0.8c7.5-21.3,15.1-42.5,22.6-63.8
					c4.5-1.4,8.9-2.8,13.4-4.2c1.7-5.9,3.4-11.7,5-17.6c-26.8,10.3-53.6,20.7-80.4,31c-22.1,61.5-44.1,123.1-66.2,184.6l81.3-30.2
					c12.3-34.4,24.6-68.8,36.9-103.2V519.1z M139.2,583.8c-4.5,1.7-8.9,3.4-13.4,5c2.2-7,4.5-14,6.7-21c3.6-1.4,7.3-2.8,10.9-4.2
					h2.5C143.7,570.3,141.5,577,139.2,583.8z M161,523.3c-4.5,1.7-8.9,3.4-13.4,5c2.5-7,5-14,7.5-21c3.6-1.4,7.3-2.8,10.9-4.2
					C168.5,506.6,162.7,517.7,161,523.3z"/>
				<path class="st4" d="M295.9,472.2c24.6-6.2,33.2-30.6,37.7-55.4l-20.1,7.6l12.6-39.4c-13.7,5.3-27.4,10.6-41.1,15.9
					c-5,13.4-10.1,26.9-15.1,40.3c-21.5,8.1-43,16.2-64.5,24.3l-16.8,47v0.8c21.2-8.1,42.4-16.2,63.7-24.3c-1.7,4.8-3.4,9.5-5,14.3
					c0.2,10.8,5,16.7-0.8,29.4c-4.3,9.5-13.7,15.9-18.4,24.3l-6.7,19.3c-4.7,6.5-22.4,11.2-31,13.4h0c-5.6,15.4-11.2,30.8-16.8,46.2
					c16-3.2,53.7-16.9,65.3-26C259.3,594,284.5,502.8,295.9,472.2z"/>
				<path class="st4" d="M203.7,556.1c22.6,4.7,40.7-23.5,32.7-44.5c-3.5-2.1-5.7-3.3-11.7-3.4v0
					C214.3,514.1,182.3,539.9,203.7,556.1z"/>
				<path class="st4" d="M763.4,275.8c6.2-28.3,28.7-43.2,43.6-62.9h-2.5c-21.2,8.4-42.5,16.8-63.7,25.2l-13.4,22.7
					c-13,21.5-19.2,45.6-24.3,76.4c-6.9,41.4,9.3,65.5-7.5,100.7c-12.3,25.6-31.4,45.8-44.4,69.6c-3.6,6.6-11,20.2-5.9,29.4
					c2.6,5.5,42.7,23.3,50.3,26c-17.1,43.6-65.5,64.5-103,88.1c-44.5,28-110.1,88.7-127.3,141.8l81.3-31.9
					c12.8-66.5,65.6-94.4,112.3-127.6c20.1-16.8,40.2-33.6,60.3-50.3c12.9-10.4,28.4-23.2,36-38.6c15.5-31.5-53.2-33.4-44.4-83.9
					c3.4-19.2,13-32.5,19.3-48.7c2.2-8.4,4.5-16.8,6.7-25.2c7.9-15.4,24.5-25.8,31.8-43.6v0C778.7,317.8,758,300.3,763.4,275.8z"/>
			</g>
			<g>
				<path class="st5" d="M355.6,271.4l34,78.5l-38,12.3l-32.3-79.1l-16.3,5.3l-23.2,97l-40.2,13l24.4-97.4l-31.4,10.2l-1.4-17.7
					l37.8-12.2l9.7-38.9l-45.4,14.7l-1.4-17.7l142.2-46.1l1.4,17.7l-58.6,19l-9.3,38.8l74.4-24.1l1.4,17.7L355.6,271.4z"/>
				<path class="st5" d="M431,210.2l-32.1,10.4l-11.3-31.7l31.4-10.2L431,210.2z M435.5,250.8l-31.8,10.3l-10.5-33.5l31.6-10.2
					L435.5,250.8z M435.3,259.1l-7,78.2l-31.5,10.2l8.1-78.6L435.3,259.1z M534.5,174.9l5.7-1.8l1.3,16.4l-6.2,2l1.5,30.4
					l-35.5,11.5l0.4,12.3l39.3-12.7l1.2,15.2L502.4,261l0.5,14.7l44-14.3l1.3,16.4l-44.8,14.5l0.8,20.6l-35.9,11.6l-0.6-20.7
					l-30.9,10l-1.3-16.4l31.7-10.3l-0.5-14.8l-28.3,9.2l-1.2-15.2l29.1-9.4l-0.4-12.3l-27.1,8.8l-1.2-15.2l27.8-9l-0.4-15.1
					l-29.6,9.6l-1.3-16.4l30.4-9.8l-0.4-12.4l-29.7,9.6l-1.2-15.2l30.4-9.9l-0.3-9.3l35-11.4l0.3,9.3l34.5-11.2L534.5,174.9z
					 M508.3,183.4l-0.6-12.3l-8.5,2.7l0.4,12.4L508.3,183.4z M509.1,200l-8.9,2.9l0.6,15.1l9-2.9L509.1,200z"/>
			</g>
		</g>
	</g>
</g>
</svg>
