<?xml version="1.0" encoding="utf-8"?>
<!-- Generator: Adobe Illustrator 21.1.0, SVG Export Plug-In . SVG Version: 6.00 Build 0)  -->
<svg version="1.1" id="图层_1" xmlns="http://www.w3.org/2000/svg" xmlns:xlink="http://www.w3.org/1999/xlink" x="0px" y="0px"
	 viewBox="0 0 880 896.3" style="enable-background:new 0 0 880 896.3;" xml:space="preserve">
<style type="text/css">
	.st0{fill:#62C4D3;}
	.st1{fill:#317B86;}
	.st2{opacity:0.75;}
	.st3{fill:#FFFFFF;}
	.st4{fill:#E0F3F6;}
	.st5{fill:#F6E761;}
</style>
<path class="st0" d="M533.7,886C771,833.3,921.5,594.6,869.8,352.8S583.7-42.3,346.3,10.4S-41.5,301.8,10.2,543.6
	S296.3,938.6,533.7,886z"/>
<ellipse class="st1" cx="409.1" cy="431" rx="371.8" ry="384"/>
<ellipse class="st0" cx="384.6" cy="407.7" rx="331.8" ry="342.6"/>
<g>
	<g class="st2">
		<path class="st1" d="M648.7,496c3.1-30.1,6-60.2,9-90.3c6.1-2.7,12.3-5.6,18.4-8.4c2.8-9.1,5.5-18.1,8.3-27l-2.5,0l-52.7,21.2
			c1.1-3.8,2.2-7.4,3.4-11c-15.1,5.7-30.1,11.3-45.2,17c-1.7,4.5-3.4,9-5,13.5c-18.7,7.3-37.4,14.7-56.1,22
			c-2.7,9.1-5.5,18.1-8.3,27c5.9-2.2,11.7-4.5,17.6-6.7l-55.9,109.8c13.9-5.4,27.8-10.7,41.8-16.1c15-29.6,29.9-59.1,45-88.7
			c0.6-0.2,1.1-0.6,1.7-0.8c-9.2,28.2-18.2,56.3-27.4,84.4l0,0.8c15.1-5.9,30.1-11.9,45.2-17.8c8.8-28.1,17.8-56.3,26.7-84.5
			c-1.6,23.9-3.2,47.8-4.9,71.7C621.3,506.8,635.1,501.4,648.7,496z"/>
		<path class="st1" d="M694.2,309.7l-2.5,0l-40.2,16.1l0.1,41.3c13.6-5.4,27.4-10.7,41-16.1C693.1,337.3,693.7,323.4,694.2,309.7z"
			/>
		<path class="st1" d="M498.4,423.2c7-2.7,14-5.6,21-8.4c5.8-16.4,11.6-32.6,17.5-49c-6.4,2.5-12.8,5.1-19.3,7.6l-0.8,0
			c4.5-13,8.8-25.9,13.3-38.9l-1.7,0c-13.6,5.4-27.4,10.7-41,16.1c-4.5,13.2-8.8,26.5-13.3,39.7c-21.7,8.4-43.5,16.9-65.2,25.5
			c-5.6,15.8-11.1,31.5-16.7,47.3c21.3-7.9,42.5-15.9,63.7-23.8c-1.7,4.5-3.4,9-5,13.5c-0.2,7.6,4.8,16.3,0.9,26.1
			c-4.8,11.8-16.2,19.6-20.9,30.4c-2.5,6.5-5,13-7.5,19.4c-9.6,4-19,7.9-28.5,11.9c-9.5,7.2-13.5,35-18.3,46.5
			c21.5-8.4,42.9-17,64.4-25.5C458.6,548.5,491.6,451.5,498.4,423.2z"/>
		<path class="st1" d="M394.5,469c-4.2,1.4-8.3,2.9-12.5,4.2c7.5-20.5,15-41,22.5-61.6c2.2-3.5,8.9-5.6,13.4-6.7
			c1.9-5.7,3.9-11.3,5.8-16.9l-2.5,0c-25.9,10.2-51.8,20.3-78,30.5c-21.9,61.9-43.7,123.8-65.7,185.7c26.8-10.2,53.5-20.3,80.3-30.5
			c12.2-34.7,24.4-69.2,36.6-103.9L394.5,469z M342.9,532.3c-2.2,3.5-8.4,5.1-12.5,6.7c-0.3,0-0.6,0-1,0.1c2.5-7,5-14.1,7.5-21.1
			c3.7-1.4,7.3-2.9,10.9-4.2l1.7,0C347.4,519.9,345.2,526.2,342.9,532.3z M364.5,471.5c-2.4,3.8-8.3,5.1-12.5,6.7l-0.8,0
			c2.1-6.1,4.4-12.4,6.6-18.5c2.7-3.8,8.3-4.3,12.5-6.7C371.3,457,367.1,467.5,364.5,471.5z"/>
		<path class="st1" d="M427.3,458.8c-10.8,5.6-42.1,32-20.8,48.1C434.1,513.2,457.6,458.1,427.3,458.8z"/>
		<path class="st1" d="M555.9,586.6c-4.7,1.9-9.5,4-14.2,5.9c-5.2,3.1-9.2,15-10.9,21.1c-0.6,0.2-1.1,0.6-1.7,0.8
			c-3.1-4.8-6.2-9.5-9.3-14.3c-5.6,1.9-11.2,4-16.8,5.9c-0.2,0.6-0.6,1.1-0.8,1.7c12.8,11.4,20,21.5,19.5,47.2l15.9-5.1l-0.1-24.4
			C540,618.5,558.5,590.6,555.9,586.6z"/>
		<path class="st1" d="M472.3,651c1.7-0.2,3.4-0.6,5.1-0.8c3.7,5.9,7.4,11.8,11,17.7c5.9-1.9,11.7-4,17.6-5.9
			c0.8-5.5-7.5-18-14.3-19.4c5.2-6.3,13.7-12.7,10-25.3c-1.5-3.1-2-3.7-5.1-5.1c-1.9-0.2-3.9-0.6-5.9-0.8
			c-11.5,4-22.9,7.9-34.4,11.9l0.2,56.6c5.3-1.9,10.6-4,15.9-5.9L472.3,651z M481.5,625.6l3.3,0l1.7,5.1c-3,5.5-7.1,7.1-13.4,9.3
			c-0.2-3.7-0.6-7.4-0.8-11C475.4,627.9,478.4,626.8,481.5,625.6z"/>
		<path class="st1" d="M427.9,677.9h-0.8c-0.7-14.4,12.4-17.2,23.4-18.6c0.2-4.2,0.5-8.4,0.8-12.6c-8,3.2-16.1,6.3-24.2,9.4l0-9.3
			c8.6-2.7,17.2-5.6,25.9-8.5c-0.2-4.2-0.6-8.4-0.8-12.6c-13.6,5.1-27.4,10.2-41,15.3l0.2,55.6c14.2-5.1,28.5-10.2,42.7-15.3
			c0-4.2,0-8.4-0.1-12.8C445.3,671.7,436.6,674.8,427.9,677.9z"/>
		<path class="st1" d="M405.4,641.9c-29,10.7-58,21.5-87,32.2l0,14.3c5.3-1.9,10.6-4,15.9-5.9l0.1,41.3l15.9-5.1l-0.1-42.1
			c8.6-3.2,17.2-6.3,25.9-9.4l0.1,41.3l14.2-5.1c14.5-12.2-16.1-38.9,18.2-48.1c0-4.4,0-9,0.1-13.4L405.4,641.9z"/>
		<path class="st1" d="M297.2,680.8c-16.3,9-36.9,18.7-30,47.3c1.5,6.1,2.7,11.1,7.6,13.5C308.6,758.6,343.9,678.7,297.2,680.8z
			 M286.5,728c-4-5.6-6.4-17-1.8-24.4c2.1-4.7,5.2-5.8,9.2-8.4l4.2,0c0.6,0.3,1.1,0.6,1.7,0.8C307.7,708.5,302.4,727.8,286.5,728z"
			/>
		<path class="st1" d="M242,744.2l-0.8,0c0.2-9.7,3.3-35.7-1.8-41.3l-14.2,5.1c-0.2,0.6-0.6,1.1-0.8,1.7l0.2,53.9
			c13.6-4.8,27.4-9.6,41-14.4c0-4.5,0-9.1-0.2-13.5C257.7,738.5,249.8,741.3,242,744.2z"/>
		<path class="st1" d="M193.7,534.3c-3.9,1.4-7.8,2.9-11.7,4.2l-0.8,0c7.5-21.5,15-42.8,22.5-64.2c4.5-1.4,8.9-2.9,13.4-4.2l5-17.7
			c-26.8,10.5-53.5,20.9-80.3,31.4C107.3,581,98.1,607.4,76.1,669.5c27-10.2,54.1-20.3,81-30.5c12.2-34.7,24.4-69.2,36.6-103.9
			L193.7,534.3z M142.1,599.3c-4.5,1.7-8.9,3.4-13.4,5.1c2.1-7,4.4-14.1,6.6-21.1c3.6-1.4,7.2-2.7,10.9-4.2l2.5,0
			C146.6,585.7,144.3,592.6,142.1,599.3z M163.7,538.6c-4.5,1.7-8.9,3.4-13.4,5.1c2.5-7,5-14.1,7.5-21.1c3.6-1.5,7.2-2.9,10.9-4.2
			C171.1,521.7,165.4,532.9,163.7,538.6z"/>
		<path class="st1" d="M298.6,486.9c24.5-6.3,33.1-30.8,37.5-55.7c-6.6,2.5-13.4,5.1-20.1,7.6c4.1-13.2,8.3-26.5,12.4-39.7
			c-13.6,5.4-27.4,10.7-41,16.1c-5,13.5-10,27.1-15,40.6c-21.5,8.1-42.9,16.3-64.4,24.5c-5.6,15.8-11.1,31.5-16.7,47.3l0,0.8
			c21.2-8.1,42.4-16.3,63.5-24.5l-5,14.3c0.3,10.9,5.1,16.7-0.7,29.5c-4.3,9.5-13.6,15.9-18.3,24.5c-2.1,6.5-4.4,13-6.6,19.4
			c-4.7,6.6-22.4,11.4-31,13.6c-5.6,15.5-11.1,30.9-16.4,46.4c15.9-3.2,53.5-17.1,65.2-26.3C262.4,609.4,287.3,517.7,298.6,486.9z"
			/>
		<path class="st1" d="M239,526.6c-3.5-2.2-5.8-3.4-11.7-3.4c-10.4,5.9-42.3,31.9-20.8,48.2C229.1,576,247.1,547.7,239,526.6z"/>
		<polygon class="st1" points="445,305.3 436.8,340.5 486.6,321.4 520.8,239.5 554.5,226.5 545.1,266.9 510.4,280.2 503.9,314.6 
			572.9,288.1 598.3,179.5 465.2,230.6 457.5,263.8 484.5,253.4 464.7,297.8 		"/>
		<path class="st1" d="M311.4,263.4l-32.1,137.2l28.1-10.8l5.4-23.1l19.8-7.6l10.1-31.8l-4.3,29.5l31.7-12.2l13.5-42.7l-5.9,39.7
			l16.8-6.5l-0.6,2.8l-24.7,9.5l-3.6,20.4l53.1-20.4l32.2-137.8l-38.8,14.9l3.1-10l39.9-15.3l7.3-31.2l-144.2,55.4l-7.3,31.2
			l38.8-14.9l-3.2,10.1L311.4,263.4z M314.7,358.8l17.5-75l6.4-2.5L314.7,358.8z M397.6,258.7l16.5-6.3l-16.6,71.2l8.2-61.3l-10.5,4
			L397.6,258.7z M376.4,229.6l12.4-4.8l-3.1,10l-12.4,4.8L376.4,229.6z M360.1,273.2l17.1-6.6l-16.8,54.3l5.8-43.3l-8.6,3.3
			L360.1,273.2z"/>
		<polygon class="st1" points="499.1,215.4 528.1,142.2 494,155.3 479.6,189.2 467.5,193.9 458.9,230.9 		"/>
		<polygon class="st1" points="562.1,157 566.2,189.6 604.5,174.9 613.1,137.9 601.4,142.5 599.2,113.2 531,139.4 523.4,171.8 		"/>
		<path class="st1" d="M527,417.1c13.6-5.4,27.4-10.7,41-16.1c8.6-15.6,17.2-31,25.8-46.5c0.6-0.2,1.1-0.6,1.7-0.8l0.1,35.4
			c13.9-5.4,27.8-10.7,41.8-16.1l-0.1-41.3c-12.8,5.1-25.7,10.2-38.5,15.3c12.7-25.9,77.2-27.9,99.6-46.6
			c3.7-7.3,7.3-14.7,10.9-21.9c3.1-6.1,6.2-12.4,9.2-18.5c-14.9,5.9-29.6,11.9-44.4,17.8c-1.9,3.8-3.9,7.4-5.8,11
			c-29.6,11.5-59.2,23.2-88.7,34.7C562,354.6,544.5,385.9,527,417.1z"/>
		<path class="st1" d="M765.6,288.7c6.1-28.4,28.6-43.4,43.4-63.3l-2.5,0c-21.3,8.4-42.5,17-63.7,25.5c-4.5,7.6-8.9,15.2-13.4,22.9
			c-12.9,21.6-19,45.8-24,76.8c-6.8,41.6,9.4,65.7-7.3,101.2c-12.2,25.7-31.3,46.1-44.2,70c-3.6,6.7-11,20.4-5.8,29.5
			c2.6,5.4,42.8,23.3,50.4,26c-17,43.9-65.3,65-102.8,88.8c-44.5,28.3-109.8,89.4-126.9,142.8l81.1-32.2
			c12.6-66.9,65.3-95.1,111.9-128.4c20-17,40.2-33.8,60.2-50.8c12.8-10.5,28.4-23.5,35.9-38.9c15.4-31.7-53.3-33.5-44.7-84.3
			c3.3-19.3,12.9-32.7,19.1-49c2.1-8.4,4.3-16.9,6.6-25.3c7.9-15.5,24.4-25.9,31.7-43.9C780.8,330.6,760.1,313.1,765.6,288.7z"/>
	</g>
	<g>
		<g>
			<path class="st3" d="M641.7,489c3.1-30.1,6-60.2,9-90.3c6.1-2.7,12.3-5.6,18.4-8.4c2.8-9.1,5.5-18.1,8.3-27l-2.5,0l-52.7,21.2
				c1.1-3.8,2.2-7.4,3.4-11c-15.1,5.7-30.1,11.3-45.2,17c-1.7,4.5-3.4,9-5,13.5c-18.7,7.3-37.4,14.7-56.1,22
				c-2.7,9.1-5.5,18.1-8.3,27c5.9-2.2,11.7-4.5,17.6-6.7l-55.9,109.8c13.9-5.4,27.8-10.7,41.8-16.1c15-29.6,29.9-59.1,45-88.7
				c0.6-0.2,1.1-0.6,1.7-0.8c-9.2,28.2-18.2,56.3-27.4,84.4l0,0.8c15.1-5.9,30.1-11.9,45.2-17.8c8.8-28.1,17.8-56.3,26.7-84.5
				c-1.6,23.9-3.2,47.8-4.9,71.7C614.3,499.8,628.1,494.4,641.7,489z"/>
			<path class="st3" d="M687.2,302.7l-2.5,0l-40.2,16.1l0.1,41.3c13.6-5.4,27.4-10.7,41-16.1C686.1,330.3,686.7,316.4,687.2,302.7z"
				/>
			<path class="st3" d="M491.4,416.2c7-2.7,14-5.6,21-8.4c5.8-16.4,11.6-32.6,17.5-49c-6.4,2.5-12.8,5.1-19.3,7.6l-0.8,0
				c4.5-13,8.8-25.9,13.3-38.9l-1.7,0c-13.6,5.4-27.4,10.7-41,16.1c-4.5,13.2-8.8,26.5-13.3,39.7c-21.7,8.4-43.5,16.9-65.2,25.5
				c-5.6,15.8-11.1,31.5-16.7,47.3c21.3-7.9,42.5-15.9,63.7-23.8c-1.7,4.5-3.4,9-5,13.5c-0.2,7.6,4.8,16.3,0.9,26.1
				c-4.8,11.8-16.2,19.6-20.9,30.4c-2.5,6.5-5,13-7.5,19.4c-9.6,4-19,7.9-28.5,11.9c-9.5,7.2-13.5,35-18.3,46.5
				c21.5-8.4,42.9-17,64.4-25.5C451.6,541.5,484.6,444.5,491.4,416.2z"/>
			<path class="st3" d="M387.5,462c-4.2,1.4-8.3,2.9-12.5,4.2c7.5-20.5,15-41,22.5-61.6c2.2-3.5,8.9-5.6,13.4-6.7
				c1.9-5.7,3.9-11.3,5.8-16.9l-2.5,0c-25.9,10.2-51.8,20.3-78,30.5c-21.9,61.9-43.7,123.8-65.7,185.7
				c26.8-10.2,53.5-20.3,80.3-30.5c12.2-34.7,24.4-69.2,36.6-103.9L387.5,462z M335.9,525.3c-2.2,3.5-8.4,5.1-12.5,6.7
				c-0.3,0-0.6,0-1,0.1c2.5-7,5-14.1,7.5-21.1c3.7-1.4,7.3-2.9,10.9-4.2l1.7,0C340.4,512.9,338.2,519.2,335.9,525.3z M357.5,464.5
				c-2.4,3.8-8.3,5.1-12.5,6.7l-0.8,0c2.1-6.1,4.4-12.4,6.6-18.5c2.7-3.8,8.3-4.3,12.5-6.7C364.3,450,360.1,460.5,357.5,464.5z"/>
			<path class="st3" d="M420.3,451.8c-10.8,5.6-42.1,32-20.8,48.1C427.1,506.2,450.6,451.1,420.3,451.8z"/>
			<g>
				<path class="st4" d="M548.9,579.6c-4.7,1.9-9.5,4-14.2,5.9c-5.2,3.1-9.2,15-10.9,21.1c-0.6,0.2-1.1,0.6-1.7,0.8
					c-3.1-4.8-6.2-9.5-9.3-14.3c-5.6,1.9-11.2,4-16.8,5.9c-0.2,0.6-0.6,1.1-0.8,1.7c12.8,11.4,20,21.5,19.5,47.2l15.9-5.1l-0.1-24.4
					C533,611.5,551.5,583.6,548.9,579.6z"/>
				<path class="st4" d="M465.3,644c1.7-0.2,3.4-0.6,5.1-0.8c3.7,5.9,7.4,11.8,11,17.7c5.9-1.9,11.7-4,17.6-5.9
					c0.8-5.5-7.5-18-14.3-19.4c5.2-6.3,13.7-12.7,10-25.3c-1.5-3.1-2-3.7-5.1-5.1c-1.9-0.2-3.9-0.6-5.9-0.8
					c-11.5,4-22.9,7.9-34.4,11.9l0.2,56.6c5.3-1.9,10.6-4,15.9-5.9L465.3,644z M474.5,618.6l3.3,0l1.7,5.1c-3,5.5-7.1,7.1-13.4,9.3
					c-0.2-3.7-0.6-7.4-0.8-11C468.4,620.9,471.4,619.8,474.5,618.6z"/>
				<path class="st4" d="M420.9,670.9h-0.8c-0.7-14.4,12.4-17.2,23.4-18.6c0.2-4.2,0.5-8.4,0.8-12.6c-8,3.2-16.1,6.3-24.2,9.4l0-9.3
					c8.6-2.7,17.2-5.6,25.9-8.5c-0.2-4.2-0.6-8.4-0.8-12.6c-13.6,5.1-27.4,10.2-41,15.3l0.2,55.6c14.2-5.1,28.5-10.2,42.7-15.3
					c0-4.2,0-8.4-0.1-12.8C438.3,664.7,429.6,667.8,420.9,670.9z"/>
				<path class="st4" d="M398.4,634.9c-29,10.7-58,21.5-87,32.2l0,14.3c5.3-1.9,10.6-4,15.9-5.9l0.1,41.3l15.9-5.1l-0.1-42.1
					c8.6-3.2,17.2-6.3,25.9-9.4l0.1,41.3l14.2-5.1c14.5-12.2-16.1-38.9,18.2-48.1c0-4.4,0-9,0.1-13.4L398.4,634.9z"/>
				<path class="st4" d="M290.2,673.8c-16.3,9-36.9,18.7-30,47.3c1.5,6.1,2.7,11.1,7.6,13.5C301.6,751.6,336.9,671.7,290.2,673.8z
					 M279.5,721c-4-5.6-6.4-17-1.8-24.4c2.1-4.7,5.2-5.8,9.2-8.4l4.2,0c0.6,0.3,1.1,0.6,1.7,0.8C300.7,701.5,295.4,720.8,279.5,721z
					"/>
				<path class="st4" d="M235,737.2l-0.8,0c0.2-9.7,3.3-35.7-1.8-41.3l-14.2,5.1c-0.2,0.6-0.6,1.1-0.8,1.7l0.2,53.9
					c13.6-4.8,27.4-9.6,41-14.4c0-4.5,0-9.1-0.2-13.5C250.7,731.5,242.8,734.3,235,737.2z"/>
			</g>
			<path class="st3" d="M186.7,527.3c-3.9,1.4-7.8,2.9-11.7,4.2l-0.8,0c7.5-21.5,15-42.8,22.5-64.2c4.5-1.4,8.9-2.9,13.4-4.2l5-17.7
				c-26.8,10.5-53.5,20.9-80.3,31.4C100.3,574,91.1,600.4,69.1,662.5c27-10.2,54.1-20.3,81-30.5c12.2-34.7,24.4-69.2,36.6-103.9
				L186.7,527.3z M135.1,592.3c-4.5,1.7-8.9,3.4-13.4,5.1c2.1-7,4.4-14.1,6.6-21.1c3.6-1.4,7.2-2.7,10.9-4.2l2.5,0
				C139.6,578.7,137.3,585.6,135.1,592.3z M156.7,531.6c-4.5,1.7-8.9,3.4-13.4,5.1c2.5-7,5-14.1,7.5-21.1c3.6-1.5,7.2-2.9,10.9-4.2
				C164.1,514.7,158.4,525.9,156.7,531.6z"/>
			<path class="st3" d="M291.6,479.9c24.5-6.3,33.1-30.8,37.5-55.7c-6.6,2.5-13.4,5.1-20.1,7.6c4.1-13.2,8.3-26.5,12.4-39.7
				c-13.6,5.4-27.4,10.7-41,16.1c-5,13.5-10,27.1-15,40.6c-21.5,8.1-42.9,16.3-64.4,24.5c-5.6,15.8-11.1,31.5-16.7,47.3l0,0.8
				c21.2-8.1,42.4-16.3,63.5-24.5l-5,14.3c0.3,10.9,5.1,16.7-0.7,29.5c-4.3,9.5-13.6,15.9-18.3,24.5c-2.1,6.5-4.4,13-6.6,19.4
				c-4.7,6.6-22.4,11.4-31,13.6c-5.6,15.5-11.1,30.9-16.4,46.4c15.9-3.2,53.5-17.1,65.2-26.3C255.4,602.4,280.3,510.7,291.6,479.9z"
				/>
			<path class="st3" d="M232,519.6c-3.5-2.2-5.8-3.4-11.7-3.4c-10.4,5.9-42.3,31.9-20.8,48.2C222.1,569,240.1,540.7,232,519.6z"/>
			<g>
				<polygon class="st5" points="438,298.3 429.8,333.5 479.6,314.4 513.8,232.5 547.5,219.5 538.1,259.9 503.4,273.2 496.9,307.6 
					565.9,281.1 591.3,172.5 458.2,223.6 450.5,256.8 477.5,246.4 457.7,290.8 				"/>
				<path class="st5" d="M304.4,256.4l-32.1,137.2l28.1-10.8l5.4-23.1l19.8-7.6l10.1-31.8l-4.3,29.5l31.7-12.2l13.5-42.7l-5.9,39.7
					l16.8-6.5l-0.6,2.8l-24.7,9.5l-3.6,20.4l53.1-20.4l32.2-137.8l-38.8,14.9l3.1-10l39.9-15.3l7.3-31.2l-144.2,55.4l-7.3,31.2
					l38.8-14.9l-3.2,10.1L304.4,256.4z M307.7,351.8l17.5-75l6.4-2.5L307.7,351.8z M390.6,251.7l16.5-6.3l-16.6,71.2l8.2-61.3
					l-10.5,4L390.6,251.7z M369.4,222.6l12.4-4.8l-3.1,10l-12.4,4.8L369.4,222.6z M353.1,266.2l17.1-6.6l-16.8,54.3l5.8-43.3
					l-8.6,3.3L353.1,266.2z"/>
				<polygon class="st5" points="492.1,208.4 521.1,135.2 487,148.3 472.6,182.2 460.5,186.9 451.9,223.9 				"/>
				<polygon class="st5" points="555.1,150 559.2,182.6 597.5,167.9 606.1,130.9 594.4,135.5 592.2,106.2 524,132.4 516.4,164.8 
									"/>
			</g>
			<path class="st3" d="M520,410.1c13.6-5.4,27.4-10.7,41-16.1c8.6-15.6,17.2-31,25.8-46.5c0.6-0.2,1.1-0.6,1.7-0.8l0.1,35.4
				c13.9-5.4,27.8-10.7,41.8-16.1l-0.1-41.3c-12.8,5.1-25.7,10.2-38.5,15.3c12.7-25.9,77.2-27.9,99.6-46.6
				c3.7-7.3,7.3-14.7,10.9-21.9c3.1-6.1,6.2-12.4,9.2-18.5c-14.9,5.9-29.6,11.9-44.4,17.8c-1.9,3.8-3.9,7.4-5.8,11
				c-29.6,11.5-59.2,23.2-88.7,34.7C555,347.6,537.5,378.9,520,410.1z"/>
			<path class="st3" d="M758.6,281.7c6.1-28.4,28.6-43.4,43.4-63.3l-2.5,0c-21.3,8.4-42.5,17-63.7,25.5c-4.5,7.6-8.9,15.2-13.4,22.9
				c-12.9,21.6-19,45.8-24,76.8c-6.8,41.6,9.4,65.7-7.3,101.2c-12.2,25.7-31.3,46.1-44.2,70c-3.6,6.7-11,20.4-5.8,29.5
				c2.6,5.4,42.8,23.3,50.4,26c-17,43.9-65.3,65-102.8,88.8c-44.5,28.3-109.8,89.4-126.9,142.8l81.1-32.2
				c12.6-66.9,65.3-95.1,111.9-128.4c20-17,40.2-33.8,60.2-50.8c12.8-10.5,28.4-23.5,35.9-38.9c15.4-31.7-53.3-33.5-44.7-84.3
				c3.3-19.3,12.9-32.7,19.1-49c2.1-8.4,4.3-16.9,6.6-25.3c7.9-15.5,24.4-25.9,31.7-43.9C773.8,323.6,753.1,306.1,758.6,281.7z"/>
		</g>
	</g>
</g>
</svg>
