<?xml version="1.0" encoding="utf-8"?>
<!-- Generator: Adobe Illustrator 20.0.0, SVG Export Plug-In . SVG Version: 6.00 Build 0)  -->
<svg version="1.1" id="图层_1" xmlns="http://www.w3.org/2000/svg" xmlns:xlink="http://www.w3.org/1999/xlink" x="0px" y="0px"
	 viewBox="0 0 879.9 896.3" style="enable-background:new 0 0 879.9 896.3;" xml:space="preserve">
<style type="text/css">
	.st0{fill:#E78DE9;}
	.st1{fill:#8763FC;}
	.st2{fill:#F3F61D;}
	.st3{fill:#E83828;}
	.st4{enable-background:new    ;}
	.st5{fill:#FFFFFF;}
</style>
<title>shk3</title>
<path class="st0" d="M533.7,886C771,833.3,921.5,594.6,869.8,352.8S583.7-42.3,346.3,10.4S-41.5,301.8,10.2,543.6
	S296.3,938.6,533.7,886z"/>
<ellipse class="st1" cx="409.1" cy="431" rx="371.8" ry="384"/>
<ellipse class="st0" cx="384.6" cy="407.7" rx="331.8" ry="342.6"/>
<polygon class="st1" points="440,134.7 162.1,236.8 135,468.7 254.5,664.7 410.4,721.2 558.5,646.7 674.5,542.7 674.5,268.7 
	697,236.1 632.5,206.7 "/>
<path class="st2" d="M693.4,221.9l2.6-1.3l-2.6,1.5V221.9z M162.1,236.8l239.1,149l9.3,335.3l8.2-336.3L693.5,222
	c27.2,93.5,17.8,335.9,13.8,348.2c-12.6,38.1-227.1,145.5-282.5,159.9c-65.5,17-283.2-103.7-284.1-110.1
	c-8.2-55.6-7.5-364.7,1.5-399.6c87.4-29,202.3-67.5,289.6-96.5c81.7,13.5,233.5,67.4,261.1,96.1c0.2,0.6,0.4,1.2,0.5,1.8l-285.7,144
	L162.1,236.8z M630.1,543.1L630.1,543.1c16.4-33.8,19.3-64.5,2.2-90.8c-15.3-18.8-40.9-15.3-69.4-5.6l76.5-140.2l-141.5,58.9
	c-22.6,8-31.3,27.5-30.6,54.9c4.5,4.7,67-25.4,100.5-38.1l-44.2,79.1v20.2c27.7-5.2,65.9,17.7,52.4,65.4
	c-21.7,40.5-66.5,83.6-113,133.1C559.3,633.3,616.6,570.9,630.1,543.1z M352.6,675.6c22.3-17.4,0.9-119.4-37.1-108.2
	C297.8,592.1,328.1,680.9,352.6,675.6z M246.7,514.6c8.4,3.7,21.7,3,25.1,11.2c-7.8,34.4-17.8,96.3-10.4,116.6
	c17.8-19.6,34.6-71.2,37.1-105.4l0,0c13.9-7.7,53.4,23.4,81.4,25.2c3.5-17.3,3.6-27.7-1.6-32.3c-14.1-10.8-33.3-9.6-30.8-19.9
	c2.4-18.3,10.6-45.8,7.3-54.9c-8.4-7.8-21.1-15-38.2-21.3c5.4-12.1,10.1-26.6,6.2-42.9c-13.3-14.4-44.7-19.8-51.1-14.2
	c-1.1,8.7,12.7,13.2,18.4,14.7c5.1,2.7,1,24.1-1.8,30c-6.4,4-22-14.7-29.4-9.3c-3.7,21.9,10.2,30.5,24.8,35.3
	c3.9-0.3,3.5,40.4-1.8,37.9c-4,2.4-26.6-16.3-34.5-12.3C239.4,477.5,243.6,501.8,246.7,514.6L246.7,514.6z M163.7,443.4
	c3.3,8.6,5.5,25.9,9.8,25.8c7.2-3.5,5.1-14.2,7.6-21.3c5.9-0.3,20.3,2.2,22.1,8.7c-8.3,28.2-17,73.5-9,89.4
	c8.7,13.1,22.7,13.7,39.4,13.4l0,0c8.2,1.5-7.9-68.9,2.1-98.4c6.7-5.1,31.2,13.5,35,4.8c7.9-8.7-5-18.2-32-28.3
	c-0.1-31.5,15-69.9,24.3-102.9c-20.2,1.7-38.5,36.8-55.7,90.8l-14.4-6.7c21.3-54.8,9.8-78.2-22.8-79.1c-3.6,0.8-3.7,42.4-1.3,69.5
	C151.6,405.9,141.4,428.6,163.7,443.4L163.7,443.4z M391.3,188.4c-100.3-9.4-143,65.3-49.9,74.6l13.6-20
	c-34.7-10.1-16.4-32.6,18.4-27.7L391.3,188.4L391.3,188.4z M422.3,153l-74.5,110.6h18l65.4-96.7h34.5l13-13.9L422.3,153L422.3,153z
	 M436,171.1l-73.7,109.3h18l64.6-95.4h34.5l13-13.9L436,171.1L436,171.1z M456.5,262.6c105.9,11.5,139.8-53.2,49.4-74.3h-56.2
	l-74.4,109.1H433L456.5,262.6z M471.1,241.2l18.2-26.5C531.7,216,507.2,246.8,471.1,241.2L471.1,241.2z M328.9,468.6
	c0.1,11.4,1.1,32.8-5.9,35.9c-7.1,0-12.6-2-14.9-8.4c-1.7-4.8,0.8-19.3,4.3-33.2C314.9,460.1,319.4,457.8,328.9,468.6z"/>
<path class="st3" d="M533.7,886C653,859.5,750.4,786,811.1,688.8H68.9C165.1,842.7,348.5,927.1,533.7,886z"/>
<g class="st4">
	<path class="st5" d="M305.3,714.8h140.9l-1.4,11.3h-39.5l-2.2,18h36.7l-11.3,93c-0.9,7.7-8.1,14-15.8,14h-121l13-106.9h37.4l2.2-18
		H304L305.3,714.8z M326.7,829.7l13.6-74.4h-5.9l-10.2,84.5h68.9c2.4,0,4.4-1.9,4.7-4.3l0.7-5.8h-33.9l9-74.4h-5.8l-13.5,74.4H326.7
		z M369.6,744.1h5.3l2.2-18h-5.3L369.6,744.1z M401.8,755.3l-7.6,63.1h5.6l7.6-63.1H401.8z"/>
	<path class="st5" d="M509.1,836.9l-31.1,14.8h-40.7l1.6-13.4h7.7l34.6-16.3l-25.7-13.8l3.2-26.1h-13.1l1.4-11.3h13.1l1.1-9.1h34.3
		l-1.1,9.1h93.3l-1.4,11.3h-13.8l-3.2,26.1l-29,13.8l30.7,16.3h7.7l-1.6,13.4h-40.5L509.1,836.9z M452.9,726.1h52.3l1.7-14.1h35.3
		l-1.7,14.1h52.3l-3.6,29.4h-34.6l2.2-18.1h-70.7l-2.5,20.9H449L452.9,726.1z M536.6,796l1.7-14h-45.1l-1.7,14l21.2,11.3L536.6,796z
		"/>
</g>
</svg>
