<?xml version="1.0" encoding="utf-8"?>
<!-- Generator: Adobe Illustrator 21.1.0, SVG Export Plug-In . SVG Version: 6.00 Build 0)  -->
<svg version="1.1" id="图层_1" xmlns="http://www.w3.org/2000/svg" xmlns:xlink="http://www.w3.org/1999/xlink" x="0px" y="0px"
	 viewBox="0 0 880 896.3" style="enable-background:new 0 0 880 896.3;" xml:space="preserve">
<style type="text/css">
	.st0{fill:#CB4677;}
	.st1{fill:#7E1F42;}
	.st2{fill:#CB4778;}
	.st3{opacity:0.75;}
	.st4{fill:#F5DAE4;}
	.st5{fill:#FFFFFF;}
	.st6{fill:#F4F64F;}
</style>
<path class="st0" d="M533.7,886C771,833.3,921.5,594.6,869.8,352.8S583.7-42.3,346.3,10.4S-41.5,301.8,10.2,543.6
	S296.3,938.6,533.7,886z"/>
<ellipse class="st1" cx="409.1" cy="431" rx="371.8" ry="384"/>
<ellipse class="st2" cx="384.6" cy="407.7" rx="331.8" ry="342.6"/>
<g>
	<g class="st3">
		<path class="st1" d="M541.6,623.6v-24.3c2.5-6.9,21.1-34.6,18.4-38.6c-4.7,2-9.5,3.9-14.2,5.9c-5.1,3-9.2,14.8-10.9,21
			c-0.6,0.3-1.1,0.6-1.7,0.8c-3.1-4.7-6.1-9.5-9.2-14.3c-5.6,2-11.2,3.9-16.7,5.9c-0.3,0.6-0.6,1.1-0.8,1.7
			c12.7,11.4,19.9,21.4,19.3,47C531,627,536.3,625.3,541.6,623.6z"/>
		<path class="st1" d="M245.2,716.7c0.2-9.5,3.4-35.5-1.7-41.1c-4.7,1.7-9.5,3.4-14.2,5c-0.3,0.6-0.6,1.1-0.8,1.7V736l41-14.3v-13.4
			c-7.8,2.8-15.6,5.6-23.4,8.4L245.2,716.7z"/>
		<path class="st1" d="M301.3,653.8c-16.3,8.9-37,18.5-30.1,47c1.5,6.1,2.7,11,7.5,13.4C312.4,731.1,348,651.8,301.3,653.8z
			 M290.4,700.8c-3.9-5.6-6.3-17-1.7-24.3c2.1-4.6,5.1-5.8,9.2-8.4h4.2c0.6,0.3,1.1,0.6,1.7,0.8
			C311.7,681.5,306.4,700.7,290.4,700.8z"/>
		<path class="st1" d="M412.7,615.3h-3.3c-29,10.6-58.1,21.2-87.1,31.9v14.3c5.3-2,10.6-3.9,15.9-5.9v41.1c5.3-1.7,10.6-3.4,15.9-5
			v-41.9c8.7-3.1,17.3-6.1,26-9.2v41.1l14.2-5c14.6-12.1-16-38.8,18.4-47.8l0,0h0L412.7,615.3z"/>
		<path class="st1" d="M431.1,651.3c-0.7-14.4,12.4-17.1,23.4-18.4c0.3-4.2,0.6-8.4,0.8-12.6c-8.1,3.1-16.2,6.2-24.3,9.2v-9.2
			c8.7-2.8,17.3-5.6,26-8.4c-0.3-4.2-0.6-8.4-0.8-12.6c-13.7,5-27.3,10.1-41,15.1v55.4c14.2-5,28.5-10.1,42.7-15.1v-12.6
			c-8.7,3.1-17.3,6.2-26,9.2L431.1,651.3z"/>
		<path class="st1" d="M476.3,624.5c1.7-0.3,3.4-0.6,5-0.8c3.6,5.9,7.3,11.7,10.9,17.6c5.9-2,11.7-3.9,17.6-5.9
			c0.7-5.4-7.4-18-14.2-19.3c5.2-6.2,13.7-12.7,10.1-25.2c-1.4-3-2-3.7-5-5c-2-0.3-3.9-0.6-5.9-0.8c-11.4,3.9-22.9,7.8-34.3,11.7
			V653c5.3-2,10.6-3.9,15.9-5.9L476.3,624.5z M485.5,599.3h3.3c0.6,1.7,1.1,3.4,1.7,5c-3.1,5.5-7.1,7-13.4,9.2
			c-0.3-3.6-0.6-7.3-0.8-10.9C479.4,601.5,482.4,600.4,485.5,599.3z"/>
		<path class="st1" d="M572.6,376.2c8.7-15.4,17.3-30.8,26-46.1c0.6-0.3,1.1-0.6,1.7-0.8v35.2c13.9-5.3,27.9-10.6,41.9-15.9v-41.1
			c-12.8,5-25.7,10.1-38.5,15.1c12.7-25.7,77.2-27.5,99.6-46.1c3.6-7.3,7.3-14.5,10.9-21.8c3.1-6.1,6.1-12.3,9.2-18.4
			c-14.8,5.9-29.6,11.7-44.4,17.6c-2,3.6-3.9,7.3-5.9,10.9v0c-29.6,11.5-59.2,22.9-88.7,34.4c-17.6,31-35.2,62.1-52.7,93.1
			C545.2,386.9,558.9,381.5,572.6,376.2z"/>
		<path class="st1" d="M653,471l9.2-89.7c6.1-2.8,12.3-5.6,18.4-8.4c2.8-8.9,5.6-17.9,8.4-26.8h-2.5c-17.6,7-35.2,14-52.7,21
			l3.3-10.9c-15.1,5.6-30.1,11.2-45.2,16.8c-1.7,4.5-3.3,8.9-5,13.4c-18.7,7.3-37.4,14.5-56.1,21.8c-2.8,8.9-5.6,17.9-8.4,26.8
			c5.9-2.2,11.7-4.5,17.6-6.7c-18.7,36.3-37.4,72.7-56.1,109l41.9-15.9l45.2-88.1l1.7-0.8c-9.2,27.9-18.4,55.9-27.6,83.9v0.8
			c15.1-5.9,30.1-11.7,45.2-17.6v0c8.9-28,17.9-55.9,26.8-83.9c-1.7,23.8-3.4,47.5-5,71.3C625.6,481.6,639.3,476.3,653,471z"/>
		<path class="st1" d="M699,285.7h-2.5c-13.4,5.3-26.8,10.6-40.2,15.9v41.1c13.7-5.3,27.3-10.6,41-15.9
			C697.9,313.1,698.4,299.4,699,285.7z"/>
		<path class="st1" d="M396.8,437.5l63.6-23.5c-1.7,4.5-3.4,8.9-5,13.4c-0.1,7.6,4.8,16.3,0.8,26c-4.8,11.8-16.2,19.4-20.9,30.2
			l-7.5,19.3c-9.5,3.9-19,7.8-28.5,11.7c-9.5,7-13.7,34.7-18.4,46.1c21.5-8.4,43-16.8,64.5-25.2c17.7-13,50.8-109.4,57.8-137.5
			c7-2.8,14-5.6,20.9-8.4c5.9-16.2,11.7-32.4,17.6-48.6l-19.3,7.5h-0.8c4.5-12.9,8.9-25.7,13.4-38.6h-1.7
			c-13.7,5.3-27.3,10.6-41,15.9l-13.4,39.4c-21.8,8.4-43.5,16.8-65.3,25.2C407.9,406.2,402.3,421.8,396.8,437.5z"/>
		<path class="st1" d="M431.9,433.3c-10.9,5.6-42.2,31.8-20.9,47.8C438.6,487.3,462.3,432.7,431.9,433.3z"/>
		<path class="st1" d="M362.4,547.3c12.3-34.4,24.6-68.8,36.8-103.1v-0.8c-4.2,1.4-8.4,2.8-12.6,4.2l22.6-61.2
			c2.3-3.6,8.9-5.6,13.4-6.7c1.9-5.6,3.9-11.2,5.9-16.8h-2.5c-25.9,10.1-51.9,20.1-77.9,30.2c-22,61.5-44.1,123-66.1,184.5
			L362.4,547.3z M362.4,434.1c2.8-3.8,8.4-4.4,12.6-6.7c1,4-3.3,14.5-5.9,18.5c-2.4,3.7-8.3,5-12.6,6.7h-0.8
			C358,446.4,360.2,440.3,362.4,434.1z M352.4,487.8h1.7c-2.2,6.1-4.5,12.3-6.7,18.5c-2.3,3.6-8.5,5.1-12.6,6.7H334
			c2.5-7,5-14,7.5-21C345.1,490.6,348.8,489.2,352.4,487.8z"/>
		<path class="st1" d="M198.3,507.9c-3.9,1.4-7.8,2.8-11.7,4.2h-0.8c7.5-21.2,15.1-42.5,22.6-63.7c4.5-1.4,8.9-2.8,13.4-4.2
			c1.7-5.9,3.3-11.7,5-17.6c-26.8,10.3-53.6,20.7-80.4,31c-22,61.5-44.1,123-66.1,184.5l81.2-30.2c12.3-34.4,24.6-68.8,36.8-103.1
			L198.3,507.9z M146.4,572.5c-4.5,1.7-8.9,3.4-13.4,5c2.2-7,4.5-14,6.7-21c3.6-1.4,7.3-2.8,10.9-4.2h2.5
			C150.9,559.1,148.7,565.8,146.4,572.5z M168.2,512.1c-4.5,1.7-8.9,3.4-13.4,5c2.5-7,5-14,7.5-21c3.6-1.4,7.3-2.8,10.9-4.2
			C175.7,495.4,169.9,506.4,168.2,512.1z"/>
		<path class="st1" d="M303,460.9c24.5-6.2,33.2-30.6,37.7-55.4l-20.1,7.5l12.6-39.4c-13.7,5.3-27.4,10.6-41,15.9
			c-5,13.4-10.1,26.8-15.1,40.3c-21.5,8.1-43,16.2-64.5,24.3l-16.7,47v0.8c21.2-8.1,42.4-16.2,63.6-24.3c-1.7,4.8-3.3,9.5-5,14.3
			c0.2,10.8,5,16.6-0.8,29.4c-4.3,9.5-13.7,15.9-18.4,24.3l-6.7,19.3c-4.7,6.5-22.4,11.2-31,13.4h0c-5.6,15.4-11.2,30.7-16.7,46.1
			c16-3.2,53.6-16.9,65.3-26C266.4,582.7,291.6,491.6,303,460.9z"/>
		<path class="st1" d="M210.9,544.8c22.6,4.7,40.7-23.5,32.7-44.4c-3.5-2.1-5.7-3.3-11.7-3.4v0C221.4,502.9,189.5,528.6,210.9,544.8
			z"/>
		<path class="st1" d="M770.2,264.7c6.2-28.3,28.7-43.1,43.5-62.9h-2.5c-21.2,8.4-42.4,16.8-63.6,25.2l-13.4,22.6
			c-13,21.5-19.2,45.5-24.3,76.3c-6.9,41.4,9.3,65.5-7.5,100.6c-12.3,25.6-31.4,45.7-44.4,69.6c-3.6,6.6-11,20.2-5.9,29.4
			c2.6,5.5,42.7,23.3,50.2,26c-17.1,43.6-65.4,64.4-103,88.1c-44.5,28-110,88.6-127.3,141.7l81.2-31.9
			c12.7-66.5,65.6-94.3,112.2-127.5c20.1-16.8,40.2-33.5,60.3-50.3c12.9-10.4,28.4-23.2,36-38.6c15.5-31.5-53.2-33.4-44.4-83.9
			c3.4-19.2,12.9-32.5,19.3-48.6c2.2-8.4,4.5-16.8,6.7-25.2c7.9-15.4,24.5-25.8,31.8-43.6v0C785.5,306.7,764.8,289.2,770.2,264.7z"
			/>
		<path class="st1" d="M300.6,304.3l-1.5,0.5l2.9,64.6l-28.6,9.3l-2.1-64.9l-2.3,0.7l-2.2,65.6l-21.3,6.9l3.5-66.1l-7.6,2.4
			l-1.4-17.7l28.6-9.3l-0.6-13.9l-29.4,9.5l-1.4-17.7l9.4-3l-5.6-15.9l29.6-9.6l5.7,15.9l49.5-16l-0.4-23.2l-4.8,1.6l-3.2,18.9
			l-29.6,9.6l4.3-19.2l-56.3,18.2l-1.4-17.7l26.8-8.7l2.5-8.9l34.6-11.2l-2.5,8.9l29.2-9.5l0-4.3l60.5-19.6l1.4,17.7l-33.5,10.8
			l0.5,25.4l34.2-11.1l6,116l-28.2,9.2l-4.4-99.6l-7.1,2.3l2.3,100.3l-28.9,9.4l-0.1-0.6l-19.3,6.3L300.6,304.3z M326.3,277.8
			l-0.3-14.1l-25.7,8.3l0.3,14.1L326.3,277.8z M320.4,297.9l7.3,56.2l-1.1-58.2L320.4,297.9z"/>
		<path class="st1" d="M427.4,255l-0.3-11.1l-26.5,8.6l0.4-46.2l21.8-7.1l-0.2-14.8l-26.5,8.6l-1.2-15.4l52.8-17.1l1.7,46.4
			l-23.9,7.7l-0.4,13.7l26.3-8.5l3.6,100.3l-47.3,15.3l-1.2-15.2L429,313l-0.1-6.7l-24.6,8l-1-12.7l5.4-1.7l-0.9-25.5l-6.2,2
			l-1-12.6l6.8-2.2l-0.3-6.4l15.6-5l0.3,6.4L427.4,255z M427.8,267.8l-4.7,1.5l0.9,25.5l4.4-1.4L427.8,267.8z M452.2,173.3
			l-1.1-13.9l93.8-30.4l1.1,13.9L452.2,173.3z M454.3,245.3l-1-12.7l96.7-31.3l1,12.7L454.3,245.3z M454.1,228.2l1.9-51l88.9-28.8
			l2.2,49.6L454.1,228.2z M457.2,319l-1.1-13.8l99.6-32.3l1.1,13.8L457.2,319z M456.2,300.1l1.7-51.4l91.7-29.7l2.2,50.1
			L456.2,300.1z M488.9,203.9V197l-8.8,2.9l-0.2,7L488.9,203.9z M488.8,179.6l-8.6,2.8l-0.1,5.8l8.7-2.8L488.8,179.6z M482.8,271
			l-0.2,7.6l10-3.3l0-7.6L482.8,271z M492.6,250.3l-9.6,3.1l-0.1,5.9l9.7-3.1L492.6,250.3z M512.1,177.8l8.9-2.9l-0.2-5.7L512,172
			L512.1,177.8z M512.1,189.5l0.1,6.9l9.4-3l-0.3-6.8L512.1,189.5z M515.8,242.8l0.1,5.9l9-2.9l-0.1-5.8L515.8,242.8z M516,267.8
			l9.5-3.1l-0.2-7.5l-9.3,3L516,267.8z"/>
	</g>
	<g>
		<g>
			<g>
				<path class="st4" d="M534.6,616.6v-24.3c2.5-6.9,21.1-34.6,18.4-38.6c-4.7,2-9.5,3.9-14.2,5.9c-5.1,3-9.2,14.8-10.9,21
					c-0.6,0.3-1.1,0.6-1.7,0.8c-3.1-4.7-6.1-9.5-9.2-14.3c-5.6,2-11.2,3.9-16.7,5.9c-0.3,0.6-0.6,1.1-0.8,1.7
					c12.7,11.4,19.9,21.4,19.3,47C524,620,529.3,618.3,534.6,616.6z"/>
				<path class="st4" d="M238.2,709.7c0.2-9.5,3.4-35.5-1.7-41.1c-4.7,1.7-9.5,3.4-14.2,5c-0.3,0.6-0.6,1.1-0.8,1.7V729l41-14.3
					v-13.4c-7.8,2.8-15.6,5.6-23.4,8.4L238.2,709.7z"/>
				<path class="st4" d="M294.3,646.8c-16.3,8.9-37,18.5-30.1,47c1.5,6.1,2.7,11,7.5,13.4C305.4,724.1,341,644.8,294.3,646.8z
					 M283.4,693.8c-3.9-5.6-6.3-17-1.7-24.3c2.1-4.6,5.1-5.8,9.2-8.4h4.2c0.6,0.3,1.1,0.6,1.7,0.8
					C304.7,674.5,299.4,693.7,283.4,693.8z"/>
				<path class="st4" d="M405.7,608.3h-3.3c-29,10.6-58.1,21.2-87.1,31.9v14.3c5.3-2,10.6-3.9,15.9-5.9v41.1
					c5.3-1.7,10.6-3.4,15.9-5v-41.9c8.7-3.1,17.3-6.1,26-9.2v41.1l14.2-5c14.6-12.1-16-38.8,18.4-47.8l0,0h0L405.7,608.3z"/>
				<path class="st4" d="M424.1,644.3c-0.7-14.4,12.4-17.1,23.4-18.4c0.3-4.2,0.6-8.4,0.8-12.6c-8.1,3.1-16.2,6.2-24.3,9.2v-9.2
					c8.7-2.8,17.3-5.6,26-8.4c-0.3-4.2-0.6-8.4-0.8-12.6c-13.7,5-27.3,10.1-41,15.1v55.4c14.2-5,28.5-10.1,42.7-15.1v-12.6
					c-8.7,3.1-17.3,6.2-26,9.2L424.1,644.3z"/>
				<path class="st4" d="M469.3,617.5c1.7-0.3,3.4-0.6,5-0.8c3.6,5.9,7.3,11.7,10.9,17.6c5.9-2,11.7-3.9,17.6-5.9
					c0.7-5.4-7.4-18-14.2-19.3c5.2-6.2,13.7-12.7,10.1-25.2c-1.4-3-2-3.7-5-5c-2-0.3-3.9-0.6-5.9-0.8c-11.4,3.9-22.9,7.8-34.3,11.7
					V646c5.3-2,10.6-3.9,15.9-5.9L469.3,617.5z M478.5,592.3h3.3c0.6,1.7,1.1,3.4,1.7,5c-3.1,5.5-7.1,7-13.4,9.2
					c-0.3-3.6-0.6-7.3-0.8-10.9C472.4,594.5,475.4,593.4,478.5,592.3z"/>
			</g>
			<g>
				<path class="st5" d="M565.6,369.2c8.7-15.4,17.3-30.8,26-46.1c0.6-0.3,1.1-0.6,1.7-0.8v35.2c13.9-5.3,27.9-10.6,41.9-15.9v-41.1
					c-12.8,5-25.7,10.1-38.5,15.1c12.7-25.7,77.2-27.5,99.6-46.1c3.6-7.3,7.3-14.5,10.9-21.8c3.1-6.1,6.1-12.3,9.2-18.4
					c-14.8,5.9-29.6,11.7-44.4,17.6c-2,3.6-3.9,7.3-5.9,10.9v0c-29.6,11.5-59.2,22.9-88.7,34.4c-17.6,31-35.2,62.1-52.7,93.1
					C538.2,379.9,551.9,374.5,565.6,369.2z"/>
				<path class="st5" d="M646,464l9.2-89.7c6.1-2.8,12.3-5.6,18.4-8.4c2.8-8.9,5.6-17.9,8.4-26.8h-2.5c-17.6,7-35.2,14-52.7,21
					l3.3-10.9c-15.1,5.6-30.1,11.2-45.2,16.8c-1.7,4.5-3.3,8.9-5,13.4c-18.7,7.3-37.4,14.5-56.1,21.8c-2.8,8.9-5.6,17.9-8.4,26.8
					c5.9-2.2,11.7-4.5,17.6-6.7c-18.7,36.3-37.4,72.7-56.1,109l41.9-15.9l45.2-88.1l1.7-0.8c-9.2,27.9-18.4,55.9-27.6,83.9v0.8
					c15.1-5.9,30.1-11.7,45.2-17.6v0c8.9-28,17.9-55.9,26.8-83.9c-1.7,23.8-3.4,47.5-5,71.3C618.6,474.6,632.3,469.3,646,464z"/>
				<path class="st5" d="M692,278.7h-2.5c-13.4,5.3-26.8,10.6-40.2,15.9v41.1c13.7-5.3,27.3-10.6,41-15.9
					C690.9,306.1,691.4,292.4,692,278.7z"/>
				<path class="st5" d="M389.8,430.5l63.6-23.5c-1.7,4.5-3.4,8.9-5,13.4c-0.1,7.6,4.8,16.3,0.8,26c-4.8,11.8-16.2,19.4-20.9,30.2
					l-7.5,19.3c-9.5,3.9-19,7.8-28.5,11.7c-9.5,7-13.7,34.7-18.4,46.1c21.5-8.4,43-16.8,64.5-25.2c17.7-13,50.8-109.4,57.8-137.5
					c7-2.8,14-5.6,20.9-8.4c5.9-16.2,11.7-32.4,17.6-48.6l-19.3,7.5h-0.8c4.5-12.9,8.9-25.7,13.4-38.6h-1.7
					c-13.7,5.3-27.3,10.6-41,15.9l-13.4,39.4c-21.8,8.4-43.5,16.8-65.3,25.2C400.9,399.2,395.3,414.8,389.8,430.5z"/>
				<path class="st5" d="M424.9,426.3c-10.9,5.6-42.2,31.8-20.9,47.8C431.6,480.3,455.3,425.7,424.9,426.3z"/>
				<path class="st5" d="M355.4,540.3c12.3-34.4,24.6-68.8,36.8-103.1v-0.8c-4.2,1.4-8.4,2.8-12.6,4.2l22.6-61.2
					c2.3-3.6,8.9-5.6,13.4-6.7c1.9-5.6,3.9-11.2,5.9-16.8h-2.5c-25.9,10.1-51.9,20.1-77.9,30.2c-22,61.5-44.1,123-66.1,184.5
					L355.4,540.3z M355.4,427.1c2.8-3.8,8.4-4.4,12.6-6.7c1,4-3.3,14.5-5.9,18.5c-2.4,3.7-8.3,5-12.6,6.7h-0.8
					C351,439.4,353.2,433.3,355.4,427.1z M345.4,480.8h1.7c-2.2,6.1-4.5,12.3-6.7,18.5c-2.3,3.6-8.5,5.1-12.6,6.7H327
					c2.5-7,5-14,7.5-21C338.1,483.6,341.8,482.2,345.4,480.8z"/>
				<path class="st5" d="M191.3,500.9c-3.9,1.4-7.8,2.8-11.7,4.2h-0.8c7.5-21.2,15.1-42.5,22.6-63.7c4.5-1.4,8.9-2.8,13.4-4.2
					c1.7-5.9,3.3-11.7,5-17.6c-26.8,10.3-53.6,20.7-80.4,31c-22,61.5-44.1,123-66.1,184.5l81.2-30.2c12.3-34.4,24.6-68.8,36.8-103.1
					L191.3,500.9z M139.4,565.5c-4.5,1.7-8.9,3.4-13.4,5c2.2-7,4.5-14,6.7-21c3.6-1.4,7.3-2.8,10.9-4.2h2.5
					C143.9,552.1,141.7,558.8,139.4,565.5z M161.2,505.1c-4.5,1.7-8.9,3.4-13.4,5c2.5-7,5-14,7.5-21c3.6-1.4,7.3-2.8,10.9-4.2
					C168.7,488.4,162.9,499.4,161.2,505.1z"/>
				<path class="st5" d="M296,453.9c24.5-6.2,33.2-30.6,37.7-55.4l-20.1,7.5l12.6-39.4c-13.7,5.3-27.4,10.6-41,15.9
					c-5,13.4-10.1,26.8-15.1,40.3c-21.5,8.1-43,16.2-64.5,24.3l-16.7,47v0.8c21.2-8.1,42.4-16.2,63.6-24.3c-1.7,4.8-3.3,9.5-5,14.3
					c0.2,10.8,5,16.6-0.8,29.4c-4.3,9.5-13.7,15.9-18.4,24.3l-6.7,19.3c-4.7,6.5-22.4,11.2-31,13.4h0c-5.6,15.4-11.2,30.7-16.7,46.1
					c16-3.2,53.6-16.9,65.3-26C259.4,575.7,284.6,484.6,296,453.9z"/>
				<path class="st5" d="M203.9,537.8c22.6,4.7,40.7-23.5,32.7-44.4c-3.5-2.1-5.7-3.3-11.7-3.4v0
					C214.4,495.9,182.5,521.6,203.9,537.8z"/>
				<path class="st5" d="M763.2,257.7c6.2-28.3,28.7-43.1,43.5-62.9h-2.5c-21.2,8.4-42.4,16.8-63.6,25.2l-13.4,22.6
					c-13,21.5-19.2,45.5-24.3,76.3c-6.9,41.4,9.3,65.5-7.5,100.6c-12.3,25.6-31.4,45.7-44.4,69.6c-3.6,6.6-11,20.2-5.9,29.4
					c2.6,5.5,42.7,23.3,50.2,26c-17.1,43.6-65.4,64.4-103,88.1c-44.5,28-110,88.6-127.3,141.7l81.2-31.9
					c12.7-66.5,65.6-94.3,112.2-127.5c20.1-16.8,40.2-33.5,60.3-50.3c12.9-10.4,28.4-23.2,36-38.6c15.5-31.5-53.2-33.4-44.4-83.9
					c3.4-19.2,12.9-32.5,19.3-48.6c2.2-8.4,4.5-16.8,6.7-25.2c7.9-15.4,24.5-25.8,31.8-43.6v0C778.5,299.7,757.8,282.2,763.2,257.7z
					"/>
			</g>
			<g>
				<path class="st6" d="M293.6,297.3l-1.5,0.5l2.9,64.6l-28.6,9.3l-2.1-64.9l-2.3,0.7l-2.2,65.6l-21.3,6.9l3.5-66.1l-7.6,2.4
					l-1.4-17.7l28.6-9.3l-0.6-13.9l-29.4,9.5l-1.4-17.7l9.4-3l-5.6-15.9l29.6-9.6l5.7,15.9l49.5-16l-0.4-23.2l-4.8,1.6l-3.2,18.9
					l-29.6,9.6l4.3-19.2l-56.3,18.2l-1.4-17.7l26.8-8.7l2.5-8.9l34.6-11.2l-2.5,8.9l29.2-9.5l0-4.3l60.5-19.6l1.4,17.7l-33.5,10.8
					l0.5,25.4l34.2-11.1l6,116l-28.2,9.2l-4.4-99.6l-7.1,2.3l2.3,100.3l-28.9,9.4l-0.1-0.6l-19.3,6.3L293.6,297.3z M319.3,270.8
					l-0.3-14.1l-25.7,8.3l0.3,14.1L319.3,270.8z M313.4,290.9l7.3,56.2l-1.1-58.2L313.4,290.9z"/>
				<path class="st6" d="M420.4,248l-0.3-11.1l-26.5,8.6l0.4-46.2l21.8-7.1l-0.2-14.8l-26.5,8.6l-1.2-15.4l52.8-17.1l1.7,46.4
					l-23.9,7.7l-0.4,13.7l26.3-8.5l3.6,100.3l-47.3,15.3l-1.2-15.2L422,306l-0.1-6.7l-24.6,8l-1-12.7l5.4-1.7l-0.9-25.5l-6.2,2
					l-1-12.6l6.8-2.2l-0.3-6.4l15.6-5l0.3,6.4L420.4,248z M420.8,260.8l-4.7,1.5l0.9,25.5l4.4-1.4L420.8,260.8z M445.2,166.3
					l-1.1-13.9l93.8-30.4l1.1,13.9L445.2,166.3z M447.3,238.3l-1-12.7l96.7-31.3l1,12.7L447.3,238.3z M447.1,221.2l1.9-51l88.9-28.8
					l2.2,49.6L447.1,221.2z M450.2,312l-1.1-13.8l99.6-32.3l1.1,13.8L450.2,312z M449.2,293.1l1.7-51.4l91.7-29.7l2.2,50.1
					L449.2,293.1z M481.9,196.9V190l-8.8,2.9l-0.2,7L481.9,196.9z M481.8,172.6l-8.6,2.8l-0.1,5.8l8.7-2.8L481.8,172.6z M475.8,264
					l-0.2,7.6l10-3.3l0-7.6L475.8,264z M485.6,243.3l-9.6,3.1l-0.1,5.9l9.7-3.1L485.6,243.3z M505.1,170.8l8.9-2.9l-0.2-5.7L505,165
					L505.1,170.8z M505.1,182.5l0.1,6.9l9.4-3l-0.3-6.8L505.1,182.5z M508.8,235.8l0.1,5.9l9-2.9l-0.1-5.8L508.8,235.8z M509,260.8
					l9.5-3.1l-0.2-7.5l-9.3,3L509,260.8z"/>
			</g>
		</g>
	</g>
</g>
</svg>
