<?xml version="1.0" encoding="utf-8"?>
<!-- Generator: Adobe Illustrator 21.1.0, SVG Export Plug-In . SVG Version: 6.00 Build 0)  -->
<svg version="1.1" id="图层_1" xmlns="http://www.w3.org/2000/svg" xmlns:xlink="http://www.w3.org/1999/xlink" x="0px" y="0px"
	 viewBox="0 0 880 896.3" style="enable-background:new 0 0 880 896.3;" xml:space="preserve">
<style type="text/css">
	.st0{fill:#587DBF;}
	.st1{fill:#294472;}
	.st2{opacity:0.75;}
	.st3{fill:#FAEE28;}
	.st4{fill:#FFFFFF;}
	.st5{fill:#DEE5F2;}
</style>
<path class="st0" d="M533.7,886C771,833.3,921.5,594.6,869.8,352.8S583.7-42.3,346.3,10.4S-41.5,301.8,10.2,543.6
	S296.3,938.6,533.7,886z"/>
<ellipse class="st1" cx="409.1" cy="431" rx="371.8" ry="384"/>
<ellipse class="st0" cx="384.6" cy="407.7" rx="331.8" ry="342.6"/>
<g>
	<g class="st2">
		<path class="st1" d="M385.4,352.9c17.5,0,31.7-15.9,31.7-35.3c0-19.5-14.3-35.3-31.7-35.3c-17.5,0-31.7,15.9-31.7,35.3
			C353.7,337,367.9,352.9,385.4,352.9z"/>
		<path class="st1" d="M315.6,395.6c4.4,1.9,8.8,3.7,12.3,5.3c-13,24.6-12.5,56.3,19.8,72.9c26.7,13.7,72.7-2.3,89.7-16.5
			c0.3,1.1,0.6,2.3,0.8,3.5c1.8,9,21-5.1,22.2-13.5c-6.3-13.5-17-32.4-29.7-36.7c-5-1.7-9-1-14.8,3.2c-4.6,3.4-4.3,5.8-1,9.3
			c2.6,2.8,5.2,5.5,7.6,8.3c-18.1,13.4-47.9,20.8-63.1,11.5c-14-8.6-15.3-31.1,0.6-38.1c13.2,2.4,43.8,0.5,66.9-6.4
			c22.6-6.7,32.1-17.4,17.2-44.8c-56.9,16-96.1,12.8-138.9-4.7C295.5,369.4,293.2,385.9,315.6,395.6z"/>
		<path class="st1" d="M98.8,472.6c41.7-22.5,133.5-33.5,180-30.5c2.1-11.2,7.9-19.5,10-30.7c-15.2-4.7-42.6-6.8-63.7-7.5
			c0.7-7.6,2.1-14,1.4-26.4c10.7-1.8,25.4-0.5,38.5-0.3c15.4,0.2,14.4,3.2,15.5-5.4c1.5-10.8,4.9-21.1,5.8-32
			c-20.3-1.6-39-4.6-59.3-6.2c0.5-15.1,0.8-35.4-6.2-41.8c-9.4-7.7-45.1-5.7-59.1-3.9c-0.4,1.9,7.5,9.3,8.6,15.6
			c1.9,10.4,2.8,21.3,2.8,33.9c-36.9,1-75.4,4.4-115.5,10.2c-12.8,1.9-20.4,0.8-21.8,16.1c-1.6,17.4,8.4,40.9,22,40.1
			c27-8,72.3-18,108.7-20.6c15.4-0.1,11,7.6,11.9,23.6c-15.2,0.7-57.8,5.1-93.3,17.3c-12.6,4.3-11.3,2.4-7,14
			c3.6,9.6,6.8,18.4,10.4,28.1C92.3,475.6,89.3,475.5,98.8,472.6z"/>
		<path class="st1" d="M221.1,541.7h-1.6c-1.1-7.9-1.6-14.5-1.6-22.4c17.8-3.5,41.7-7,65.8-9.7c42.9,48.6,137,31.4,175-13.8
			c7.5-14.1-17.6-19.1-33.3-6.4c-31.6,25.4-87.1,33.4-121.2,3.6c0.2-3.7,0.3-7.3,0-11c-81-10.5-159.9,9.4-206.2,10.8
			c-5.8,0.2-10.8,1.6-12.4,3.8c-2.1,2.8,0.3,7,2.5,15c3.2,11.8,6.3,23,9.5,33c16.8-5.3,60.1-17.1,87.2-20
			c-0.5,7.5-2.6,17.6-3.1,25.1c-19.1,7.6-49.1,9.2-73.3,9.7l-1.6,3.2c4.1,13.1,6.4,32.1,17.6,38.2c21,4.5,48.7-3.4,60.7-6.5
			c2.4,25.4,7,44.3,11.4,67.6c20.7,3.4,30.1,2.7,48.1-3.2c-7.1-23.5-12.6-51.2-17.4-77.4c24.1-6,51.7-15.5,69.7-24.3
			c0.1-3.5,4.6-22.2-1.6-35.3C270.5,529,243.6,538.4,221.1,541.7z"/>
		<path class="st1" d="M509,423.1c-9.5,30.2-18.9,52.8-28.5,83c-2.1,6.6,28,18.3,32.9,11.9c3.6-5.9,7.7-25.9,10.1-32.5
			c15.2,27.6,53.5,31.1,86.8-1.8c1-2.1,8.3,1.5,11,1.7c19.7,6.5,28.1-13,23.9-22.5c-3.3-7.2-92.9-46.4-102.9-51.3l11.9-43.3
			c15.5-4,28.5-8.2,45.4-7.9c-1,6.2-4.1,17.2-5.1,23.4c14.2,1,18.9-0.9,30.5-3.3c5.8-20.3,21.4-40.3-4.4-51.6
			c-14.7-6.4-36.7-3-57.9,1c-1.5-10,2.2-12.2-1.6-15.8c-3.7-1.2-18-4.4-22.6-0.6c-4.3,9.2-4.6,16.5-8.8,25.7
			c-8.1,1.9-27.2,6.9-39.8,11.7c0-2.2-2.8-10.6-4.9-11.3c-6.4-2.1-13.6,0.3-16.2,2.1c-3.1,2.6-1,0.2-3.3,3.6
			c-5.2,21.3,11.9,71.4,19.4,85.3C499.3,429.5,500.9,428.1,509,423.1z M538.8,443.6c13.6,7.1,36.5,16.9,50.4,24
			C558.5,494.9,534.7,476.4,538.8,443.6z M506.6,384c2.9-3.9,9.3-4.2,16.5-7.2c0.1,6.1-6.4,21.6-8.2,28.4
			C504.7,396.8,503.3,388.5,506.6,384z"/>
		<path class="st1" d="M632,419.6c-2.6,5.2-2.9,23.3,2.2,28.5c8.5,5,47.8,11.2,72.4,2.7c0.7-7.2,3-17.7,0.5-18.6
			c-5.4-2-14.4-3.6-20.9-5.4c5.8-12.3,8.2-13.7,14-26c8.3,2.5,13.2,4.9,16.8,5.7c7.2,1.6,26.4-21.8,17.1-29.4
			c-5.2-4.2-10.5-8.2-15.8-12.3c7.2-12.5,12.5-18.9,10.4-24.6c-4.6-8-33.3-26.9-40.2-14.6c-2.5,4.4-6.2,10.2-9.8,17.2
			c-12.8-3.1-13.3-6.9-20.7,6.4c-2.4,4.4-14.3,25.9-7.8,29.4c6.2,3.4,0.4,0.7,10.7,5.1c-6.7,14-10.3,22.5-13.8,33.9
			C646.1,420.5,634.6,414.4,632,419.6z"/>
		<path class="st1" d="M721.4,487.8c12.3,0.2,65.7-21.7,72.3-40.6c1.5-4.3-1-7.4-5.7-11.1c-6.7-5.2-11.9-8.5-19.3-2.1
			c-21.6,18.9-48.7,22.8-64.5,23.3C696.3,465.4,708.9,487.5,721.4,487.8z"/>
		<path class="st1" d="M652.7,571.1c21.5-2,142.5-75.1,155.8-94.4c1.1-8.7-8.5-22.3-18.6-15.1c-23.2,16.6-120.8,71.7-154.2,75.5
			c-6.4,0.7-6,1.3-4.9,8.8C632.8,558.3,641.9,572.1,652.7,571.1z"/>
		<path class="st1" d="M815.6,404.6c9.8-5,11-9.2,14.8-13.5c33.7-38.1-48.9-54.2-78.7-53.3c-10.4-1.9-15,25-10.8,32.4
			c10.5-1.4,18.7-5.5,38.1-2c74.9,13.4-34.3,25.7-42.1,27.1c-2.8,0.6-6.6,4.4-7.6,6.6c-1.3,2.8-0.2,8.2,0.8,12.4
			c2,7.8,5.5,6.9,13,6.7c24.1-0.6,74-1.1,84.8,27.1c9.7,25.1-37.2,73.4-71.6,91.4c-7.9,4.1-7.2,5-3.5,11.6
			c3.6,6.5,7.6,15.4,21.2,17.2c29.9-13.8,69-56.9,81.2-95.5C864.5,443.6,860.7,415.3,815.6,404.6z"/>
		<path class="st1" d="M349.9,546h-12.2c-1,0-1.8,0.8-1.8,1.8V596c0,1,0.8,1.8,1.8,1.8h33.5c1,0,1.8-0.8,1.8-1.8v-8.4
			c0-1-0.8-1.8-1.8-1.8h-19.6v-38C351.7,546.8,350.9,546,349.9,546z"/>
		<path class="st1" d="M389.1,546h-12.2c-1,0-1.8,0.8-1.8,1.8v28.1c0,14.9,8.6,22.8,24.8,22.8c16.7,0,25.6-8.1,25.6-23.4v-27.5
			c0-1-0.8-1.8-1.8-1.8h-12.2c-1,0-1.8,0.8-1.8,1.8v28.6c0,6.8-2.9,9.8-9.3,9.8c-6.5,0-9.5-3.2-9.5-10.3v-28.1
			C390.9,546.8,390.1,546,389.1,546z"/>
		<path class="st1" d="M430.8,573c0,7.8,2.8,14.1,8.2,18.8c5.4,4.6,12.7,7,21.7,7c6.9,0,12.6-0.9,17-2.7c0.7-0.3,1.1-0.9,1.1-1.7
			v-9.4c0-0.6-0.3-1.2-0.9-1.5c-0.3-0.2-0.6-0.3-0.9-0.3c-0.3,0-0.5,0.1-0.8,0.2c-3.9,1.9-8.3,2.9-13.1,2.9c-4.9,0-8.9-1.3-11.7-3.9
			c-2.8-2.6-4.2-5.9-4.2-10.1c0-4.4,1.4-7.8,4.4-10.5c3-2.7,7.1-4.1,12.2-4.1c4.6,0,8.7,0.9,12.3,2.7c0.3,0.1,0.5,0.2,0.8,0.2
			c0.3,0,0.7-0.1,1-0.3c0.5-0.3,0.9-0.9,0.9-1.5v-9.9c0-0.8-0.5-1.5-1.2-1.7c-3.9-1.3-8.8-1.9-14.6-1.9c-9.3,0-17.1,2.6-23,7.7
			C433.9,558.1,430.8,564.8,430.8,573z"/>
		<path class="st1" d="M535.3,596.8c0.3-0.6,0.2-1.4-0.3-1.9l-21.1-24l18.3-20.6l17,29.3V596c0,1,0.8,1.8,1.8,1.8h12.2
			c1,0,1.8-0.8,1.8-1.8v-16.7l18.4-30.6c0.3-0.6,0.3-1.3,0-1.8c-0.3-0.6-0.9-0.9-1.6-0.9H569c-0.7,0-1.3,0.4-1.6,1l-9.6,18.1
			l-9.4-18c-0.3-0.6-0.9-1-1.6-1h-13.9c-0.2,0-0.3,0-0.5,0.1c-0.1,0-0.3-0.1-0.4-0.1h-14.5c-0.5,0-1.1,0.2-1.4,0.7l-15,18.5v-17.4
			c0-1-0.8-1.8-1.8-1.8h-12.2c-1,0-1.8,0.8-1.8,1.8V596c0,1,0.8,1.8,1.8,1.8h12.2c1,0,1.8-0.8,1.8-1.8v-18.1l15.8,19.3
			c0.3,0.4,0.9,0.7,1.4,0.7h15.4C534.4,597.8,535.1,597.4,535.3,596.8z"/>
		<polygon class="st1" points="354,607.8 333.3,607.8 333.3,687.5 382,687.5 382,669.6 354,669.6 		"/>
		<path class="st1" d="M419.8,606.6c-11.9,0-21.6,4-28.9,11.8c-7.2,7.8-10.9,18-10.9,30.3c0,11.7,3.6,21.4,10.7,28.8
			c7.1,7.5,16.5,11.3,27.9,11.3c11.6,0,21.2-3.9,28.4-11.7c7.2-7.7,10.8-17.8,10.8-30c0-11.8-3.5-21.5-10.4-29.1
			C440.4,610.4,431.2,606.6,419.8,606.6z M431.6,664.4c-3,3.9-7.2,5.7-12.7,5.7c-5.4,0-9.5-2-12.5-6c-3.2-4.2-4.8-9.7-4.8-16.4
			c0-6.8,1.6-12.4,4.9-16.6c3.1-4.1,7.3-6,12.9-6c5.4,0,9.5,1.9,12.4,5.8c3,4.1,4.6,9.8,4.6,17.1C436.3,655,434.7,660.5,431.6,664.4
			z"/>
		<polygon class="st1" points="454.4,625.7 475.7,625.7 475.7,687.5 496.5,687.5 496.5,625.7 517.9,625.7 517.9,607.8 454.4,607.8 
					"/>
		<polygon class="st1" points="522,625.7 543.3,625.7 543.3,687.5 564.1,687.5 564.1,625.7 585.5,625.7 585.5,607.8 522,607.8 		"/>
		<polygon class="st1" points="611.7,656.3 636.4,656.3 636.4,638.5 611.7,638.5 611.7,625.7 638.3,625.7 638.3,607.8 590.9,607.8 
			590.9,687.5 640.1,687.5 640.1,669.6 611.7,669.6 		"/>
		<path class="st1" d="M691.5,651.9c3.5-1.6,6.5-3.9,8.8-6.7c3.3-4.1,5-9,5-14.6c0-10.4-5.1-22.7-29.1-22.7h-28.7v79.7h20.8v-29h2.4
			c1.2,0,2.4,0.4,3.5,1.3c0.9,0.7,2.5,2.4,5.3,7.1l12.4,20.6h24.1l-16.5-25.9C696.8,657.2,694.1,654,691.5,651.9z M681.1,638.9
			c-1.8,1.7-4.2,2.6-7.4,2.6h-5.4v-16.8h5.7c8.6,0,9.7,4.1,9.7,7.7C683.7,635.1,682.9,637.2,681.1,638.9z"/>
		<polygon class="st1" points="741.9,637 729.1,607.8 705.4,607.8 730.7,659.2 730.7,687.5 751.4,687.5 751.4,658.9 777.4,607.8 
			755,607.8 		"/>
	</g>
	<g>
		<g>
			<g>
				<path class="st3" d="M378.4,345.9c17.5,0,31.7-15.9,31.7-35.3c0-19.5-14.3-35.3-31.7-35.3c-17.5,0-31.7,15.9-31.7,35.3
					C346.7,330,360.9,345.9,378.4,345.9z"/>
				<path class="st3" d="M308.6,388.6c4.4,1.9,8.8,3.7,12.3,5.3c-13,24.6-12.5,56.3,19.8,72.9c26.7,13.7,72.7-2.3,89.7-16.5
					c0.3,1.1,0.6,2.3,0.8,3.5c1.8,9,21-5.1,22.2-13.5c-6.3-13.5-17-32.4-29.7-36.7c-5-1.7-9-1-14.8,3.2c-4.6,3.4-4.3,5.8-1,9.3
					c2.6,2.8,5.2,5.5,7.6,8.3c-18.1,13.4-47.9,20.8-63.1,11.5c-14-8.6-15.3-31.1,0.6-38.1c13.2,2.4,43.8,0.5,66.9-6.4
					c22.6-6.7,32.1-17.4,17.2-44.8c-56.9,16-96.1,12.8-138.9-4.7C288.5,362.4,286.2,378.9,308.6,388.6z"/>
				<path class="st3" d="M91.8,465.6c41.7-22.5,133.5-33.5,180-30.5c2.1-11.2,7.9-19.5,10-30.7c-15.2-4.7-42.6-6.8-63.7-7.5
					c0.7-7.6,2.1-14,1.4-26.4c10.7-1.8,25.4-0.5,38.5-0.3c15.4,0.2,14.4,3.2,15.5-5.4c1.5-10.8,4.9-21.1,5.8-32
					c-20.3-1.6-39-4.6-59.3-6.2c0.5-15.1,0.8-35.4-6.2-41.8c-9.4-7.7-45.1-5.7-59.1-3.9c-0.4,1.9,7.5,9.3,8.6,15.6
					c1.9,10.4,2.8,21.3,2.8,33.9c-36.9,1-75.4,4.4-115.5,10.2c-12.8,1.9-20.4,0.8-21.8,16.1c-1.6,17.4,8.4,40.9,22,40.1
					c27-8,72.3-18,108.7-20.6c15.4-0.1,11,7.6,11.9,23.6c-15.2,0.7-57.8,5.1-93.3,17.3c-12.6,4.3-11.3,2.4-7,14
					c3.6,9.6,6.8,18.4,10.4,28.1C85.3,468.6,82.3,468.5,91.8,465.6z"/>
				<path class="st3" d="M214.1,534.7h-1.6c-1.1-7.9-1.6-14.5-1.6-22.4c17.8-3.5,41.7-7,65.8-9.7c42.9,48.6,137,31.4,175-13.8
					c7.5-14.1-17.6-19.1-33.3-6.4c-31.6,25.4-87.1,33.4-121.2,3.6c0.2-3.7,0.3-7.3,0-11c-81-10.5-159.9,9.4-206.2,10.8
					c-5.8,0.2-10.8,1.6-12.4,3.8c-2.1,2.8,0.3,7,2.5,15c3.2,11.8,6.3,23,9.5,33c16.8-5.3,60.1-17.1,87.2-20
					c-0.5,7.5-2.6,17.6-3.1,25.1c-19.1,7.6-49.1,9.2-73.3,9.7l-1.6,3.2c4.1,13.1,6.4,32.1,17.6,38.2c21,4.5,48.7-3.4,60.7-6.5
					c2.4,25.4,7,44.3,11.4,67.6c20.7,3.4,30.1,2.7,48.1-3.2c-7.1-23.5-12.6-51.2-17.4-77.4c24.1-6,51.7-15.5,69.7-24.3
					c0.1-3.5,4.6-22.2-1.6-35.3C263.5,522,236.6,531.4,214.1,534.7z"/>
				<path class="st4" d="M502,416.1c-9.5,30.2-18.9,52.8-28.5,83c-2.1,6.6,28,18.3,32.9,11.9c3.6-5.9,7.7-25.9,10.1-32.5
					c15.2,27.6,53.5,31.1,86.8-1.8c1-2.1,8.3,1.5,11,1.7c19.7,6.5,28.1-13,23.9-22.5c-3.3-7.2-92.9-46.4-102.9-51.3l11.9-43.3
					c15.5-4,28.5-8.2,45.4-7.9c-1,6.2-4.1,17.2-5.1,23.4c14.2,1,18.9-0.9,30.5-3.3c5.8-20.3,21.4-40.3-4.4-51.6
					c-14.7-6.4-36.7-3-57.9,1c-1.5-10,2.2-12.2-1.6-15.8c-3.7-1.2-18-4.4-22.6-0.6c-4.3,9.2-4.6,16.5-8.8,25.7
					c-8.1,1.9-27.2,6.9-39.8,11.7c0-2.2-2.8-10.6-4.9-11.3c-6.4-2.1-13.6,0.3-16.2,2.1c-3.1,2.6-1,0.2-3.3,3.6
					c-5.2,21.3,11.9,71.4,19.4,85.3C492.3,422.5,493.9,421.1,502,416.1z M531.8,436.6c13.6,7.1,36.5,16.9,50.4,24
					C551.5,487.9,527.7,469.4,531.8,436.6z M499.6,377c2.9-3.9,9.3-4.2,16.5-7.2c0.1,6.1-6.4,21.6-8.2,28.4
					C497.7,389.8,496.3,381.5,499.6,377z"/>
				<path class="st4" d="M625,412.6c-2.6,5.2-2.9,23.3,2.2,28.5c8.5,5,47.8,11.2,72.4,2.7c0.7-7.2,3-17.7,0.5-18.6
					c-5.4-2-14.4-3.6-20.9-5.4c5.8-12.3,8.2-13.7,14-26c8.3,2.5,13.2,4.9,16.8,5.7c7.2,1.6,26.4-21.8,17.1-29.4
					c-5.2-4.2-10.5-8.2-15.8-12.3c7.2-12.5,12.5-18.9,10.4-24.6c-4.6-8-33.3-26.9-40.2-14.6c-2.5,4.4-6.2,10.2-9.8,17.2
					c-12.8-3.1-13.3-6.9-20.7,6.4c-2.4,4.4-14.3,25.9-7.8,29.4c6.2,3.4,0.4,0.7,10.7,5.1c-6.7,14-10.3,22.5-13.8,33.9
					C639.1,413.5,627.6,407.4,625,412.6z"/>
				<path class="st4" d="M714.4,480.8c12.3,0.2,65.7-21.7,72.3-40.6c1.5-4.3-1-7.4-5.7-11.1c-6.7-5.2-11.9-8.5-19.3-2.1
					c-21.6,18.9-48.7,22.8-64.5,23.3C689.3,458.4,701.9,480.5,714.4,480.8z"/>
				<path class="st4" d="M645.7,564.1c21.5-2,142.5-75.1,155.8-94.4c1.1-8.7-8.5-22.3-18.6-15.1c-23.2,16.6-120.8,71.7-154.2,75.5
					c-6.4,0.7-6,1.3-4.9,8.8C625.8,551.3,634.9,565.1,645.7,564.1z"/>
				<path class="st4" d="M808.6,397.6c9.8-5,11-9.2,14.8-13.5c33.7-38.1-48.9-54.2-78.7-53.3c-10.4-1.9-15,25-10.8,32.4
					c10.5-1.4,18.7-5.5,38.1-2c74.9,13.4-34.3,25.7-42.1,27.1c-2.8,0.6-6.6,4.4-7.6,6.6c-1.3,2.8-0.2,8.2,0.8,12.4
					c2,7.8,5.5,6.9,13,6.7c24.1-0.6,74-1.1,84.8,27.1c9.7,25.1-37.2,73.4-71.6,91.4c-7.9,4.1-7.2,5-3.5,11.6
					c3.6,6.5,7.6,15.4,21.2,17.2c29.9-13.8,69-56.9,81.2-95.5C857.5,436.6,853.7,408.3,808.6,397.6z"/>
			</g>
			<g>
				<path class="st5" d="M342.9,539h-12.2c-1,0-1.8,0.8-1.8,1.8V589c0,1,0.8,1.8,1.8,1.8h33.5c1,0,1.8-0.8,1.8-1.8v-8.4
					c0-1-0.8-1.8-1.8-1.8h-19.6v-38C344.7,539.8,343.9,539,342.9,539z"/>
				<path class="st5" d="M382.1,539h-12.2c-1,0-1.8,0.8-1.8,1.8v28.1c0,14.9,8.6,22.8,24.8,22.8c16.7,0,25.6-8.1,25.6-23.4v-27.5
					c0-1-0.8-1.8-1.8-1.8h-12.2c-1,0-1.8,0.8-1.8,1.8v28.6c0,6.8-2.9,9.8-9.3,9.8c-6.5,0-9.5-3.2-9.5-10.3v-28.1
					C383.9,539.8,383.1,539,382.1,539z"/>
				<path class="st5" d="M423.8,566c0,7.8,2.8,14.1,8.2,18.8c5.4,4.6,12.7,7,21.7,7c6.9,0,12.6-0.9,17-2.7c0.7-0.3,1.1-0.9,1.1-1.7
					v-9.4c0-0.6-0.3-1.2-0.9-1.5c-0.3-0.2-0.6-0.3-0.9-0.3c-0.3,0-0.5,0.1-0.8,0.2c-3.9,1.9-8.3,2.9-13.1,2.9
					c-4.9,0-8.9-1.3-11.7-3.9c-2.8-2.6-4.2-5.9-4.2-10.1c0-4.4,1.4-7.8,4.4-10.5c3-2.7,7.1-4.1,12.2-4.1c4.6,0,8.7,0.9,12.3,2.7
					c0.3,0.1,0.5,0.2,0.8,0.2c0.3,0,0.7-0.1,1-0.3c0.5-0.3,0.9-0.9,0.9-1.5v-9.9c0-0.8-0.5-1.5-1.2-1.7c-3.9-1.3-8.8-1.9-14.6-1.9
					c-9.3,0-17.1,2.6-23,7.7C426.9,551.1,423.8,557.8,423.8,566z"/>
				<path class="st5" d="M528.3,589.8c0.3-0.6,0.2-1.4-0.3-1.9l-21.1-24l18.3-20.6l17,29.3V589c0,1,0.8,1.8,1.8,1.8h12.2
					c1,0,1.8-0.8,1.8-1.8v-16.7l18.4-30.6c0.3-0.6,0.3-1.3,0-1.8c-0.3-0.6-0.9-0.9-1.6-0.9H562c-0.7,0-1.3,0.4-1.6,1l-9.6,18.1
					l-9.4-18c-0.3-0.6-0.9-1-1.6-1h-13.9c-0.2,0-0.3,0-0.5,0.1c-0.1,0-0.3-0.1-0.4-0.1h-14.5c-0.5,0-1.1,0.2-1.4,0.7l-15,18.5v-17.4
					c0-1-0.8-1.8-1.8-1.8h-12.2c-1,0-1.8,0.8-1.8,1.8V589c0,1,0.8,1.8,1.8,1.8h12.2c1,0,1.8-0.8,1.8-1.8v-18.1l15.8,19.3
					c0.3,0.4,0.9,0.7,1.4,0.7h15.4C527.4,590.8,528.1,590.4,528.3,589.8z"/>
			</g>
			<g>
				<polygon class="st5" points="347,600.8 326.3,600.8 326.3,680.5 375,680.5 375,662.6 347,662.6 				"/>
				<path class="st5" d="M412.8,599.6c-11.9,0-21.6,4-28.9,11.8c-7.2,7.8-10.9,18-10.9,30.3c0,11.7,3.6,21.4,10.7,28.8
					c7.1,7.5,16.5,11.3,27.9,11.3c11.6,0,21.2-3.9,28.4-11.7c7.2-7.7,10.8-17.8,10.8-30c0-11.8-3.5-21.5-10.4-29.1
					C433.4,603.4,424.2,599.6,412.8,599.6z M424.6,657.4c-3,3.9-7.2,5.7-12.7,5.7c-5.4,0-9.5-2-12.5-6c-3.2-4.2-4.8-9.7-4.8-16.4
					c0-6.8,1.6-12.4,4.9-16.6c3.1-4.1,7.3-6,12.9-6c5.4,0,9.5,1.9,12.4,5.8c3,4.1,4.6,9.8,4.6,17.1
					C429.3,648,427.7,653.5,424.6,657.4z"/>
				<polygon class="st5" points="447.4,618.7 468.7,618.7 468.7,680.5 489.5,680.5 489.5,618.7 510.9,618.7 510.9,600.8 
					447.4,600.8 				"/>
				<polygon class="st5" points="515,618.7 536.3,618.7 536.3,680.5 557.1,680.5 557.1,618.7 578.5,618.7 578.5,600.8 515,600.8 
									"/>
				<polygon class="st5" points="604.7,649.3 629.4,649.3 629.4,631.5 604.7,631.5 604.7,618.7 631.3,618.7 631.3,600.8 
					583.9,600.8 583.9,680.5 633.1,680.5 633.1,662.6 604.7,662.6 				"/>
				<path class="st5" d="M684.5,644.9c3.5-1.6,6.5-3.9,8.8-6.7c3.3-4.1,5-9,5-14.6c0-10.4-5.1-22.7-29.1-22.7h-28.7v79.7h20.8v-29
					h2.4c1.2,0,2.4,0.4,3.5,1.3c0.9,0.7,2.5,2.4,5.3,7.1l12.4,20.6h24.1l-16.5-25.9C689.8,650.2,687.1,647,684.5,644.9z
					 M674.1,631.9c-1.8,1.7-4.2,2.6-7.4,2.6h-5.4v-16.8h5.7c8.6,0,9.7,4.1,9.7,7.7C676.7,628.1,675.9,630.2,674.1,631.9z"/>
				<polygon class="st5" points="734.9,630 722.1,600.8 698.4,600.8 723.7,652.2 723.7,680.5 744.4,680.5 744.4,651.9 770.4,600.8 
					748,600.8 				"/>
			</g>
		</g>
	</g>
</g>
</svg>
