<?xml version="1.0" encoding="utf-8"?>
<!-- Generator: Adobe Illustrator 22.0.0, SVG Export Plug-In . SVG Version: 6.00 Build 0)  -->
<svg version="1.1" id="图层_1" xmlns="http://www.w3.org/2000/svg" xmlns:xlink="http://www.w3.org/1999/xlink" x="0px" y="0px"
	 viewBox="0 0 880 896.2" style="enable-background:new 0 0 880 896.2;" xml:space="preserve">
<style type="text/css">
	.st0{fill:#A65CD6;}
	.st1{fill:#6C0FA8;}
	.st2{fill:#FFCC29;}
	.st3{fill:#FFFFFF;}
</style>
<path class="st0" d="M533.7,886C771,833.3,921.5,594.6,869.8,352.8S583.7-42.3,346.3,10.4S-41.5,301.8,10.2,543.6
	S296.3,938.6,533.7,886z"/>
<ellipse class="st1" cx="409.1" cy="431" rx="371.8" ry="384"/>
<ellipse class="st0" cx="384.6" cy="407.7" rx="331.8" ry="342.6"/>
<g>
	<path class="st1" d="M347.7,542h-92.2c0,0-59.9,0-59.9-46.9s0-297.4,0-297.4s-3.8-58.4,51.5-58.4h302.8c0,0,59.9,0,59.9,58.4v289.7
		c0,0-3.8,58.4-63.8,58.4s-99.9,0-99.9,0s-40.7-70.7-27.7-113.7c0,0,16.1-4.6,16.1,7.7c0,0,16.1,73,87.6,54.6
		c0,0,60.7-16.9,40-101.4c0,0-24.6-51.5-63.8-86.1c0,0-86.8-107.6-91.5-133c0,0-66.9,86.8-71.5,93.8c0,0-40.7,45.3-76.1,101.4
		c0,0-33.8,70.7,3.8,109.1c0,0,63,42.3,91.5-19.2c0,0,2.3-10.8-7.7-11.5c0,0,13.1,18.4-12.3,19.2c0,0-23.8-8.5-3.8-39.2
		c0,0,26.9-35.4,7.7-50.7c0,0-34.6-21.5-23.8-62.3c0,0,23.1-46.1,51.5-43c0,0-34.6,26.1-36.1,54.6c0,0-2.3,49.2,51.5,50.7
		c0,0,36.9,17.7,36.1-43c0,0-3.1-15.4-16.1-11.5c0,0-13.1-0.8-3.8,15.4c0,0-6.9-11.5,7.7-11.5c0,0,20.8,15.4-7.7,31.5
		c0,0-30.7,8.5-31.5-31.5c0,0-0.8-24.6,23.8-50.7c0,0,26.9-29.2,0-70.7c0,0,43.8-5.4,56.1,50.7v35.4c0,0,13.8-9.2,16.1,7.7
		c0,0-8.5,2.3,0,7.7c0,0,22.3,14.6,20,23.8c0,0-15.4,6.9-7.7,15.4c0,0,16.9,10.8,3.8,19.2h-7.7c0,0,16.1,11.5,0,15.4
		c0,0-3.1,9.2,3.8,15.4c0,0,6.1,20.8-16.1,23.8h-43.8c0,0-26.9,0.8-27.7,35.4C387.7,455.9,389.2,548.9,347.7,542z"/>
	<path class="st2" d="M342.5,537.9h-92.2c0,0-59.9,0-59.9-46.9s0-297.4,0-297.4s-3.8-58.4,51.5-58.4h302.8c0,0,59.9,0,59.9,58.4
		v289.7c0,0-3.8,58.4-63.8,58.4s-99.9,0-99.9,0S400.1,471,413.2,428c0,0,16.1-4.6,16.1,7.7c0,0,16.1,73,87.6,54.6
		c0,0,60.7-16.9,40-101.4c0,0-24.6-51.5-63.8-86.1c0,0-86.8-107.6-91.5-133c0,0-66.9,86.8-71.5,93.8c0,0-40.7,45.3-76.1,101.4
		c0,0-33.8,70.7,3.8,109.1c0,0,63,42.3,91.5-19.2c0,0,2.3-10.8-7.7-11.5c0,0,13.1,18.4-12.3,19.2c0,0-23.8-8.5-3.8-39.2
		c0,0,26.9-35.4,7.7-50.7c0,0-34.6-21.5-23.8-62.3c0,0,23.1-46.1,51.5-43c0,0-34.6,26.1-36.1,54.6c0,0-2.3,49.2,51.5,50.7
		c0,0,36.9,17.7,36.1-43c0,0-3.1-15.4-16.1-11.5c0,0-13.1-0.8-3.8,15.4c0,0-6.9-11.5,7.7-11.5c0,0,20.8,15.4-7.7,31.5
		c0,0-30.7,8.5-31.5-31.5c0,0-0.8-24.6,23.8-50.7c0,0,26.9-29.2,0-70.7c0,0,43.8-5.4,56.1,50.7v35.4c0,0,13.8-9.2,16.1,7.7
		c0,0-8.5,2.3,0,7.7c0,0,22.3,14.6,20,23.8c0,0-15.4,6.9-7.7,15.4c0,0,16.9,10.8,3.8,19.2h-7.7c0,0,16.1,11.5,0,15.4
		c0,0-3.1,9.2,3.8,15.4c0,0,6.1,20.8-16.1,23.8h-43.8c0,0-26.9,0.8-27.7,35.4C382.4,451.8,384,544.8,342.5,537.9z"/>
	<g>
		<path class="st1" d="M211.9,607.2c0,0.8,0,1.5-0.8,3.1c-0.8,3.8-1.5,6.9-2.3,8.5h-26.1c-0.8-2.3-1.5-4.6-2.3-8.5
			c0-1.5-0.8-2.3-0.8-3.1h-21.5c0,1.5,0.8,1.5,0.8,1.5c0.8,4.6,1.5,8.5,2.3,10h-16.9v14.6h40v11.5h-48.4v14.6h48.4v20H208v-20h49.2
			v-14.6H208v-11.5h40.7v-14.6h-17.7c0.8-2.3,1.5-5.4,2.3-10c0-0.8,0.8-1.5,0.8-1.5H211.9z M184.2,581.8v8.5h-47.6v14.6h118.4v-14.6
			H208v-8.5h38.4v-15.4H208v-6.9h-23.8v6.9h-37.7v15.4H184.2L184.2,581.8z"/>
		<path class="st1" d="M358.7,619.5c2.3,5.4,3.8,10,5.4,15.4c-6.9,0.8-17.7,1.5-32.3,1.5c6.9-6.9,12.3-15.4,17.7-26.1h39.2v-15.4
			h-83.8v14.6h18.4c-3.1,10-7.7,18.4-14.6,26.1v16.9c25.4,0,45.3-0.8,58.4-3.8c0.8,2.3,0.8,3.8,0.8,6.1h20
			c-2.3-12.3-6.1-24.6-12.3-36.1L358.7,619.5L358.7,619.5z M278.7,611.8v41.5c0,6.9-3.1,10.8-9.2,13.1v11.5
			c10.8-0.8,18.4-3.8,23.8-9.2c4.6,5.4,11.5,8.5,20.8,8.5h74.5v-14.6h-71.5c-10,0-15.4-5.4-15.4-16.1v-49.2h-33v14.6H278.7
			L278.7,611.8z M381.7,565.7H311v15.4h70.7V565.7z M274.1,562.6c3.8,9.2,6.9,17.7,6.9,26.1h21.5c-2.3-10-4.6-18.4-8.5-26.1H274.1z"
			/>
		<path class="st1" d="M440.9,576.4h-7.7v-16.9h-20v16.9H404v14.6h8.5c-1.5,14.6-4.6,27.7-10,40v23.1c3.1-3.8,6.9-10,10.8-18.4v43.8
			h20v-51.5c2.3,3.1,4.6,6.9,6.9,10h-0.8v15.4h82.2v-15.4h-8.5v-54.6h6.9v-14.6h-6.9v-8.5h-20.8v8.5h-24.6v-8.5h-20.8v8.5h-6.9
			L440.9,576.4L440.9,576.4z M523.1,667.1c-7.7-0.8-13.8-4.6-16.9-11.5h-20c4.6,15.4,17.7,23.1,37.7,24.6L523.1,667.1L523.1,667.1z
			 M476.3,655.6h-20c-3.8,6.9-9.2,11.5-16.9,11.5v12.3C459.3,678.7,471.6,670.2,476.3,655.6L476.3,655.6z M433.2,591.1h7.7v-8.5h6.9
			v54.6h-5.4v-16.9C437.8,611,434.8,601.8,433.2,591.1L433.2,591.1z M493.2,628.7v8.5h-24.6v-8.5H493.2z M493.2,605.7v9.2h-24.6
			v-9.2H493.2z M493.2,582.6v8.5h-24.6v-8.5H493.2z"/>
		<path class="st1" d="M613.1,657.9v20.8h20v-20.8h23.1v-14.6H633v-13.8h-16.1c0.8-0.8,1.5-1.5,2.3-2.3h16.1
			c11.5,0,17.7-6.1,16.9-18.4v-41.5H623c0,0,0-1.5,0.8-2.3c0.8-1.5,1.5-3.1,1.5-4.6h-21.5c0,3.1-0.8,5.4-1.5,6.9h-17.7v59.9h13.8
			c-3.1,2.3-6.1,4.6-10.8,6.9v9.2h-6.1v14.6L613.1,657.9L613.1,657.9z M533.9,665.6v14.6c16.1-8.5,23.1-25.4,22.3-50v-0.8h5.4v48.4
			h16.9v-62.3H557v-10h24.6v-13.8h-3.1v-29.2h-16.9v29.2H557v-26.1h-17.7v71.5C539.3,649.5,537.7,659.5,533.9,665.6L533.9,665.6z
			 M626.1,613.3c0.8-3.1,0.8-6.1,0.8-10h8.5v3.8c0,3.8-1.5,6.1-5.4,5.4L626.1,613.3L626.1,613.3z M613.1,643.3h-16.9
			c6.9-3.1,13.1-6.9,16.9-10V643.3z M609.2,581.1v9.2h-8.5v-9.2H609.2z M635.3,591.1h-8.5v-9.2h8.5V591.1z M600.8,613.3v-10h7.7
			c0,3.8,0,7.7-0.8,10H600.8z"/>
	</g>
	<g>
		<path class="st3" d="M209.5,601.7c0,0.8,0,1.5-0.8,3.1c-0.8,3.8-1.5,6.9-2.3,8.5h-26.1c-0.8-2.3-1.5-4.6-2.3-8.5
			c0-1.5-0.8-2.3-0.8-3.1h-21.5c0,1.5,0.8,1.5,0.8,1.5c0.8,4.6,1.5,8.5,2.3,10h-16.9v14.6h40v11.5h-48.4V654h48.4v20h23.8v-20h49.2
			v-14.6h-49.2v-11.5h40.7v-14.6h-17.7c0.8-2.3,1.5-5.4,2.3-10c0-0.8,0.8-1.5,0.8-1.5H209.5z M181.9,576.3v8.5h-47.6v14.6h118.4
			v-14.6h-46.9v-8.5h38.4V561h-38.4V554h-23.8v6.9h-37.7v15.4H181.9L181.9,576.3z"/>
		<path class="st3" d="M356.3,614c2.3,5.4,3.8,10,5.4,15.4c-6.9,0.8-17.7,1.5-32.3,1.5c6.9-6.9,12.3-15.4,17.7-26.1h39.2v-15.4
			h-83.8V604H321c-3.1,10-7.7,18.4-14.6,26.1V647c25.4,0,45.3-0.8,58.4-3.8c0.8,2.3,0.8,3.8,0.8,6.1h20
			c-2.3-12.3-6.1-24.6-12.3-36.1L356.3,614L356.3,614z M276.4,606.3v41.5c0,6.9-3.1,10.8-9.2,13.1v11.5c10.8-0.8,18.4-3.8,23.8-9.2
			c4.6,5.4,11.5,8.5,20.8,8.5h74.5V657h-71.5c-10,0-15.4-5.4-15.4-16.1v-49.2h-33v14.6H276.4L276.4,606.3z M379.4,560.2h-70.7v15.4
			h70.7V560.2z M271.8,557.1c3.8,9.2,6.9,17.7,6.9,26.1h21.5c-2.3-10-4.6-18.4-8.5-26.1H271.8z"/>
		<path class="st3" d="M438.5,571h-7.7V554h-20V571h-9.2v14.6h8.5c-1.5,14.6-4.6,27.7-10,40v23.1c3.1-3.8,6.9-10,10.8-18.4v43.8h20
			v-51.5c2.3,3.1,4.6,6.9,6.9,10H437v15.4h82.2v-15.4h-8.5v-54.6h6.9v-14.6h-6.9v-8.5H490v8.5h-24.6v-8.5h-20.8v8.5h-6.9L438.5,571
			L438.5,571z M520.8,661.6c-7.7-0.8-13.8-4.6-16.9-11.5h-20c4.6,15.4,17.7,23.1,37.7,24.6L520.8,661.6L520.8,661.6z M473.9,650.1
			h-20c-3.8,6.9-9.2,11.5-16.9,11.5v12.3C457,673.2,469.3,664.7,473.9,650.1L473.9,650.1z M430.9,585.6h7.7v-8.5h6.9v54.6h-5.4
			v-16.9C435.5,605.5,432.4,596.3,430.9,585.6L430.9,585.6z M490.8,623.2v8.5h-24.6v-8.5H490.8z M490.8,600.2v9.2h-24.6v-9.2H490.8z
			 M490.8,577.1v8.5h-24.6v-8.5H490.8z"/>
		<path class="st3" d="M610.7,652.4v20.8h20v-20.8h23.1v-14.6h-23.1V624h-16.1c0.8-0.8,1.5-1.5,2.3-2.3H633
			c11.5,0,17.7-6.1,16.9-18.4v-41.5h-29.2c0,0,0-1.5,0.8-2.3c0.8-1.5,1.5-3.1,1.5-4.6h-21.5c0,3.1-0.8,5.4-1.5,6.9h-17.7v59.9h13.8
			c-3.1,2.3-6.1,4.6-10.8,6.9v9.2h-6.1v14.6L610.7,652.4L610.7,652.4z M531.5,660.1v14.6c16.1-8.5,23.1-25.4,22.3-50V624h5.4v48.4
			h16.9v-62.3h-21.5v-10h24.6v-13.8h-3.1v-29.2h-16.9v29.2h-4.6v-26.1h-17.7v71.5C536.9,644,535.4,654,531.5,660.1L531.5,660.1z
			 M623.8,607.8c0.8-3.1,0.8-6.1,0.8-10h8.5v3.8c0,3.8-1.5,6.1-5.4,5.4L623.8,607.8L623.8,607.8z M610.7,637.8h-16.9
			c6.9-3.1,13.1-6.9,16.9-10V637.8z M606.9,575.6v9.2h-8.5v-9.2H606.9z M633,585.6h-8.5v-9.2h8.5V585.6z M598.4,607.8v-10h7.7
			c0,3.8,0,7.7-0.8,10H598.4z"/>
	</g>
</g>
</svg>
