<?xml version="1.0" encoding="utf-8"?>
<!-- Generator: Adobe Illustrator 18.1.1, SVG Export Plug-In . SVG Version: 6.00 Build 0)  -->
<svg version="1.1" id="图层_1" xmlns="http://www.w3.org/2000/svg" xmlns:xlink="http://www.w3.org/1999/xlink" x="0px" y="0px"
	 viewBox="0 0 150 150" enable-background="new 0 0 150 150" xml:space="preserve">
<style type="text/css">
	path{fill:#c6ae6b;}
</style>
<g>
	<path fill="#fff" d="M68.8,94.3H56.8c0,0-7.8,0-7.8-6.1c0-6.1,0-38.7,0-38.7s-0.5-7.6,6.7-7.6h39.4c0,0,7.8,0,7.8,7.6v37.7
		c0,0-0.5,7.6-8.3,7.6c-7.8,0-13,0-13,0s-5.3-9.2-3.6-14.8c0,0,2.1-0.6,2.1,1c0,0,2.1,9.5,11.4,7.1c0,0,7.9-2.2,5.2-13.2
		c0,0-3.2-6.7-8.3-11.2c0,0-11.3-14-11.9-17.3c0,0-8.7,11.3-9.3,12.2c0,0-5.3,5.9-9.9,13.2c0,0-4.4,9.2,0.5,14.2
		c0,0,8.2,5.5,11.9-2.5c0,0,0.3-1.4-1-1.5c0,0,1.7,2.4-1.6,2.5c0,0-3.1-1.1-0.5-5.1c0,0,3.5-4.6,1-6.6c0,0-4.5-2.8-3.1-8.1
		c0,0,3-6,6.7-5.6c0,0-4.5,3.4-4.7,7.1c0,0-0.3,6.4,6.7,6.6c0,0,4.8,2.3,4.7-5.6c0,0-0.4-2-2.1-1.5c0,0-1.7-0.1-0.5,2
		c0,0-0.9-1.5,1-1.5c0,0,2.7,2-1,4.1c0,0-4,1.1-4.1-4.1c0,0-0.1-3.2,3.1-6.6c0,0,3.5-3.8,0-9.2c0,0,5.7-0.7,7.3,6.6v4.6
		c0,0,1.8-1.2,2.1,1c0,0-1.1,0.3,0,1c0,0,2.9,1.9,2.6,3.1c0,0-2,0.9-1,2c0,0,2.2,1.4,0.5,2.5h-1c0,0,2.1,1.5,0,2c0,0-0.4,1.2,0.5,2
		c0,0,0.8,2.7-2.1,3.1h-5.7c0,0-3.5,0.1-3.6,4.6C74,83.1,74.2,95.2,68.8,94.3z"/>
	<path fill="#fff" d="M51.5,102.6c0,0.1,0,0.2-0.1,0.4c-0.1,0.5-0.2,0.9-0.3,1.1h-3.4c-0.1-0.3-0.2-0.6-0.3-1.1
		c0-0.2-0.1-0.3-0.1-0.4h-2.8c0,0.2,0.1,0.2,0.1,0.2c0.1,0.6,0.2,1.1,0.3,1.3h-2.2v1.9h5.2v1.5h-6.3v1.9h6.3v2.6H51v-2.6h6.4v-1.9
		H51V106h5.3v-1.9H54c0.1-0.3,0.2-0.7,0.3-1.3c0-0.1,0.1-0.2,0.1-0.2H51.5z M47.9,99.3v1.1h-6.2v1.9h15.4v-1.9H51v-1.1h5v-2h-5v-0.9
		h-3.1v0.9H43v2L47.9,99.3L47.9,99.3z"/>
	<path fill="#fff" d="M70.6,104.2c0.3,0.7,0.5,1.3,0.7,2c-0.9,0.1-2.3,0.2-4.2,0.2c0.9-0.9,1.6-2,2.3-3.4h5.1V101H63.6v1.9H66
		c-0.4,1.3-1,2.4-1.9,3.4v2.2c3.3,0,5.9-0.1,7.6-0.5c0.1,0.3,0.1,0.5,0.1,0.8h2.6c-0.3-1.6-0.8-3.2-1.6-4.7L70.6,104.2L70.6,104.2z
		 M60.2,103.2v5.4c0,0.9-0.4,1.4-1.2,1.7v1.5c1.4-0.1,2.4-0.5,3.1-1.2c0.6,0.7,1.5,1.1,2.7,1.1h9.7v-1.9h-9.3c-1.3,0-2-0.7-2-2.1
		v-6.4h-4.3v1.9L60.2,103.2L60.2,103.2z M73.6,97.2h-9.2v2h9.2V97.2z M59.6,96.8c0.5,1.2,0.9,2.3,0.9,3.4h2.8
		c-0.3-1.3-0.6-2.4-1.1-3.4H59.6z"/>
	<path fill="#fff" d="M81.3,98.6h-1v-2.2h-2.6v2.2h-1.2v1.9h1.1c-0.2,1.9-0.6,3.6-1.3,5.2v3c0.4-0.5,0.9-1.3,1.4-2.4v5.7h2.6
		v-6.7c0.3,0.4,0.6,0.9,0.9,1.3h-0.1v2h10.7v-2h-1.1v-7.1h0.9v-1.9h-0.9v-1.1h-2.7v1.1h-3.2v-1.1h-2.7v1.1h-0.9L81.3,98.6L81.3,98.6
		z M92,110.4c-1-0.1-1.8-0.6-2.2-1.5h-2.6c0.6,2,2.3,3,4.9,3.2L92,110.4L92,110.4z M85.9,108.9h-2.6c-0.5,0.9-1.2,1.5-2.2,1.5v1.6
		C83.7,111.9,85.3,110.8,85.9,108.9L85.9,108.9z M80.3,100.5h1v-1.1h0.9v7.1h-0.7v-2.2C80.9,103.1,80.5,101.9,80.3,100.5L80.3,100.5
		z M88.1,105.4v1.1h-3.2v-1.1H88.1z M88.1,102.4v1.2h-3.2v-1.2H88.1z M88.1,99.4v1.1h-3.2v-1.1H88.1z"/>
	<path fill="#fff" d="M103.7,109.2v2.7h2.6v-2.7h3v-1.9h-3v-1.8h-2.1c0.1-0.1,0.2-0.2,0.3-0.3h2.1c1.5,0,2.3-0.8,2.2-2.4v-5.4
		H105c0,0,0-0.2,0.1-0.3c0.1-0.2,0.2-0.4,0.2-0.6h-2.8c0,0.4-0.1,0.7-0.2,0.9h-2.3v7.8h1.8c-0.4,0.3-0.8,0.6-1.4,0.9v1.2h-0.8v1.9
		L103.7,109.2L103.7,109.2z M93.4,110.2v1.9c2.1-1.1,3-3.3,2.9-6.5v-0.1H97v6.3h2.2v-8.1h-2.8v-1.3h3.2v-1.8h-0.4v-3.8H97v3.8h-0.6
		v-3.4h-2.3v9.3C94.1,108.1,93.9,109.4,93.4,110.2L93.4,110.2z M105.4,103.4c0.1-0.4,0.1-0.8,0.1-1.3h1.1v0.5c0,0.5-0.2,0.8-0.7,0.7
		L105.4,103.4L105.4,103.4z M103.7,107.3h-2.2c0.9-0.4,1.7-0.9,2.2-1.3V107.3z M103.2,99.2v1.2h-1.1v-1.2H103.2z M106.6,100.5h-1.1
		v-1.2h1.1V100.5z M102.1,103.4v-1.3h1c0,0.5,0,1-0.1,1.3H102.1z"/>
</g>
</svg>
