<?xml version="1.0" encoding="utf-8"?>
<!-- Generator: Adobe Illustrator 24.0.1, SVG Export Plug-In . SVG Version: 6.00 Build 0)  -->
<svg version="1.1" id="图层_1" xmlns="http://www.w3.org/2000/svg" xmlns:xlink="http://www.w3.org/1999/xlink" x="0px" y="0px"
	 viewBox="0 0 1024 1024" style="enable-background:new 0 0 1024 1024;" xml:space="preserve">
<path d="M888.2,563.9c-26.3-228.8-73-392.8-220.8-392.8c-74.9,0-113.4,76.9-180.2,83c-68.8-6.1-105.2-83-180.1-83
	c-147.8,0-194.4,164-218.7,390.8c-14.1,121.5-2,222.7,72.9,222.7c105.3,0,109.3-95.2,184.3-139.7c28.4-14.1,91.2-20.3,143.8-22.2
	c52.6,2.1,115.4,8.1,143.8,22.2c74.9,44.6,79,139.7,184.3,139.7C890.2,786.7,900.4,685.4,888.2,563.9L888.2,563.9z M309,543.6
	c-58.6,0-105.2-48.5-105.2-105.3S250.4,333,309.1,333s105.3,46.6,105.3,105.3S365.8,543.6,309,543.6z M780.8,458.6h-83v83h-40.5v-83
	h-83v-40.5h83v-81h40.5v81h83C780.8,418.1,780.8,458.6,780.8,458.6z"/>
<path d="M248.3,438.3c0,16.2,6.1,30.4,18.2,42.5c10.1,10.1,26.3,18.2,42.5,18.2s30.4-6,42.5-18.2c10.1-10.1,18.2-26.3,18.2-42.5
	c0-16.2-6-30.4-18.2-42.5c-10.1-10.1-26.3-18.2-42.5-18.2s-30.4,6-42.5,18.2C254.4,405.9,248.3,422.1,248.3,438.3z"/>
</svg>
