<?xml version="1.0" encoding="utf-8"?>
<!-- Generator: Adobe Illustrator 24.0.1, SVG Export Plug-In . SVG Version: 6.00 Build 0)  -->
<svg version="1.1" id="图层_1" xmlns="http://www.w3.org/2000/svg" xmlns:xlink="http://www.w3.org/1999/xlink" x="0px" y="0px"
	 viewBox="0 0 1024 1024" style="enable-background:new 0 0 1024 1024;" xml:space="preserve">
<path d="M493.8,480.4h-58c-1.3-10.4-1.4-20.8-4.2-30.4c-2.9-9.6-7.4-19.2-13.3-27.1c-10.8-14.4-27.8-17.7-44.6-10.7
	c-13.9,5.8-24.2,16-31.9,28.7c-16.7,27.2-22.1,56.5-12.6,87.5c4.6,15,13.6,26.8,29,32c12.6,4.3,24.5,1.6,35.6-5.2
	c12.2-7.5,20.9-18.1,28.1-30.3c1-1.7,3.1-3.9,4.8-3.9c21-0.3,42.1-0.2,63.4-0.2c0.1,1.2,0.3,2.1,0.1,2.8
	c-8,26.2-19.1,50.7-37.3,71.4c-23.8,27.2-54.1,39.4-89.7,38.9c-14.7-0.2-29.3-2-43.2-7.1c-31.6-11.7-50.4-34.8-55.5-67.9
	c-8.1-51.4,0-100.4,31-142.8c31.3-42.7,75.1-57.4,126.1-48c31.7,5.8,51.5,27.5,63.1,57.1C491.2,442.9,494.1,461.1,493.8,480.4"/>
<path d="M289.5,396.3c-9.9-17.9-25.2-25.5-45-25.5c-46.1,0.1-92.2,0-138.3,0c-2,0-4,0.2-6.4,0.3l-3.2,25.3h22.6c0,1.9,0.1,3,0,4
	c-7.1,54.4-14.1,108.9-21.4,163.3c-0.2,1.4-2.7,3.5-4.3,3.6c-6.2,0.4-12.4,0.2-19.3,0.2l-8.8,68.1h100.7l8.9-68.1h-20.1l6.2-47.9
	h7.5c21.9,0,43.8,0.2,65.7-0.2c13.9-0.2,15.1-1.6,16.3-15.3l0-0.6c4.6-36.4,15-70.6,38.3-99.6C291.3,401.1,291.1,399.1,289.5,396.3
	L289.5,396.3z M228.3,469.7c-3.5,3.2-8.4,6.5-12.8,6.8c-14,1-28,0.6-42.1,0.7c-2,0-4-0.2-6.7-0.3l10.4-80.2
	c15.2,0,29.8-0.5,44.4,0.2c7.9,0.4,13.4,5.9,17,13C247.2,427.2,242.5,456.6,228.3,469.7L228.3,469.7z M734.6,619.7
	c0.4,2,0.2,4.2,1.1,5.1c31,32.3,73,42.8,110.5,22.3c13-7.1,24-17.2,33.4-29.7l4.2-5.5l5.2,8c-13.4,18.2-30,34-49.6,45
	c-48.8,27.5-97.8,27-146.7-0.2c-3.2-1.7-5.4-1.8-8.6-0.1c-55.7,29.6-110.1,28.8-162.2-10.6c-10.5-7.9-19.1-19.1-28.5-28.9
	c-1.1-1.2-2-2.8-3.5-5c12.4-0.7,24.1-1.5,35.7-2.1c14.3-0.8,28.7-1.4,43-2.4c3.7-0.3,6.3,0.8,9,4.1c20.9,25.2,46.2,39.3,77.1,37.8
	c24.6-1.2,45.7-12.5,63.6-31.6C723.5,620.3,728.8,619.2,734.6,619.7 M899.7,402.7l-6.3,6.7c-6.9-7.3-13.4-15.5-20.9-22.1
	c-33.4-29.8-78.3-30.4-114.2-2.1c-4.6,3.7-9,7.7-13.2,11.9c-1,1-1.2,3-2,5.1c-5.5,1.1-10.5-0.7-15.5-6
	c-16.7-17.9-36.6-28.9-59.5-31.3c-25.8-2.6-48.9,6-69,24.6c-4.9,4.5-9.1,9.9-13.8,14.6c-1.3,1.3-3.4,2.5-5,2.4
	c-26.7-1.4-53.4-3-80.6-4.5c0.8-1.4,1.4-2.7,2.2-3.7c34.7-45,78.4-64.4,130.3-60.2c22.1,1.8,43,8.9,62.9,20.3c1.7,1,4.7,0.3,6.6-0.7
	c59.7-31.9,116.7-27.2,170.5,16.9C881.9,382.6,890.3,393,899.7,402.7"/>
<path d="M690.6,569.9l-6.8,37h-125l5.8-30.9c47.7-57.7,76.3-93.4,85.9-107.1c9.5-13.7,15-24.4,16.4-32.1c1.1-5.9,0.9-10.3-0.7-13.2
	c-1.6-2.9-4.5-4.4-8.8-4.4c-4.3,0-7.8,1.6-10.5,4.8c-2.7,3.2-4.9,9.6-6.7,19.1l-3.8,20.6h-50.9l1.5-7.9c2.2-12.1,4.7-21.7,7.3-28.7
	c2.6-7,7.1-13.9,13.5-20.7c6.4-6.8,14.1-11.9,23-15.4c8.9-3.5,19.1-5.2,30.6-5.2c22.6,0,38.7,5.3,48.3,16
	c9.6,10.7,12.9,24.2,9.9,40.5c-2.3,12.4-8,25.5-17.1,39.4c-9.1,13.8-33.7,43.2-73.9,88.1L690.6,569.9L690.6,569.9z M837,483.9
	c7.7,3.2,13.3,8,16.6,14.4c3.3,6.4,2.8,21.6-1.7,45.6c-3.2,17.5-7.4,30.4-12.5,38.7c-5.1,8.3-13.3,15.1-24.6,20.4
	c-11.3,5.3-25.6,8-43,8c-16.9,0-29.8-2.5-38.7-7.6c-8.9-5.1-14.7-11.8-17.4-20.2c-2.7-8.4-2.3-22.4,1.4-41.9
	c2.4-13.1,5.6-24.5,9.5-34.2c3.9-9.6,12-17.4,24.2-23.2c-6.4-3.2-10.8-8.3-13-15.3c-2.2-7-2.3-15.9-0.3-26.7
	c3.5-18.6,11.5-32.6,24.1-42c12.6-9.3,29.7-14,51.4-14c25,0,41.4,5,49.1,14.9c7.7,9.9,9.9,24,6.5,42.4c-2.2,11.7-5.3,20.1-9.4,25.3
	C855.1,473.7,847.7,478.8,837,483.9z M798.1,527.5c1.5-8.3,1.7-13.8,0.4-16.5c-1.3-2.7-3.8-4.1-7.7-4.1c-3.7,0-6.7,1.3-8.8,4
	c-2.1,2.6-4,8.2-5.5,16.7l-5.2,28.1c-1.7,9.4-1.9,15.4-0.6,18.1c1.3,2.7,4,4,7.9,4c4,0,7-1.4,8.9-4.1c1.9-2.7,3.7-8.9,5.5-18.4
	L798.1,527.5L798.1,527.5z M813.7,437.3c1.4-7.3,1.6-12.2,0.7-14.5c-0.9-2.4-3.3-3.6-7.1-3.6c-3.8,0-6.5,1.3-8.3,3.8
	c-1.8,2.5-3.3,7.3-4.6,14.3l-3.1,16.5c-1.2,6.5-1.3,11-0.3,13.5c1,2.5,3.3,3.7,6.9,3.7c3.7,0,6.5-1.2,8.3-3.7
	c1.8-2.5,3.4-7.5,4.8-15.2L813.7,437.3L813.7,437.3z"/>
</svg>
