<?xml version="1.0" encoding="utf-8"?>
<!-- Generator: Adobe Illustrator 24.0.1, SVG Export Plug-In . SVG Version: 6.00 Build 0)  -->
<svg version="1.1" id="图层_1" xmlns="http://www.w3.org/2000/svg" xmlns:xlink="http://www.w3.org/1999/xlink" x="0px" y="0px"
	 viewBox="0 0 1024 1024" style="enable-background:new 0 0 1024 1024;" xml:space="preserve">
<path d="M493.6,72.3c-229.4,0-415.4,186-415.4,415.4S264.2,903,493.6,903S909,717.1,909,487.7C908.7,258.4,722.9,72.6,493.6,72.3z
	 M508.5,192.1l144.4-57.7c16.4,7.4,32.2,16,47.4,25.6l0.4,0.2c14.9,9.5,29.2,19.9,42.7,31.3l1.2,1c6.1,5.2,12,10.5,17.7,16
	c0.7,0.7,1.5,1.4,2.2,2.1c6,5.9,11.8,11.9,17.5,18.1c0.5,0.5,0.9,1.1,1.4,1.6c4.9,5.5,9.7,11.3,14.3,17.1c1.1,1.4,2.2,2.8,3.3,4.2
	c5,6.5,9.8,13.1,14.4,19.9l-28.8,122.4l-141.6,47.2L508.5,331.9L508.5,192.1z M186.3,251.7c1.1-1.4,2.2-2.8,3.3-4.2
	c4.6-5.8,9.3-11.4,14.1-16.9c0.5-0.6,1-1.2,1.5-1.8c5.6-6.2,11.4-12.3,17.4-18.1c0.7-0.7,1.4-1.4,2.1-2c5.7-5.5,11.5-10.8,17.5-15.9
	l1.4-1.2c13.4-11.3,27.5-21.7,42.3-31.2l0.5-0.3c15.1-9.6,30.9-18.1,47.2-25.5l145.1,57.4v139.8L342.4,441l-141.6-47.1L172,271.5
	C176.6,264.8,181.4,258.2,186.3,251.7z M169.7,700.1c-4.1-6.2-8-12.5-11.7-19l-0.9-1.6c-3.7-6.4-7.2-12.9-10.5-19.5l-0.1-0.2
	c-6.9-13.9-13-28.3-18.2-42.9v-0.1c-2.5-6.9-4.7-14-6.8-21.1l-0.8-2.6c-1.9-6.7-3.6-13.5-5.2-20.3c-0.1-0.7-0.3-1.3-0.4-2
	c-3.4-15.5-5.8-31.1-7.3-46.9l84.5-101.4L333,469.3l40.8,163.3l-67.1,89.2L169.7,700.1z M585.8,864.2c-6.9,1.7-14,3.2-21.1,4.5
	c-1,0.2-2,0.4-3,0.5c-6.1,1.1-12.2,2-18.3,2.8c-1.6,0.2-3.3,0.4-4.9,0.6c-5.7,0.7-11.4,1.2-17.2,1.6c-1.8,0.1-3.6,0.3-5.4,0.4
	c-7.4,0.5-14.8,0.7-22.3,0.7c-6.8,0-13.7-0.2-20.4-0.5c-0.8,0-1.6-0.1-2.4-0.2c-6-0.3-12-0.8-18-1.4l-0.7-0.1
	c-13.1-1.4-26.1-3.5-39-6.2l-81.9-128.2l66-88h192.9l67.1,88.6L585.8,864.2z M872.3,570.7c-0.1,0.7-0.3,1.3-0.4,2
	c-1.5,6.8-3.3,13.6-5.2,20.3l-0.7,2.6c-2.1,7.1-4.3,14.2-6.8,21.1v0.1c-5.2,14.7-11.3,29-18.2,42.9l-0.1,0.2
	c-3.3,6.6-6.8,13.1-10.5,19.5l-0.9,1.6c-3.7,6.4-7.6,12.8-11.7,18.9l-136.6,21.5l-67.5-89.2l40.8-163.2L795,422.4l84.5,101.4
	C878.1,539.6,875.7,555.3,872.3,570.7z"/>
</svg>
