<?xml version="1.0" encoding="utf-8"?>
<!-- Generator: Adobe Illustrator 19.0.0, SVG Export Plug-In . SVG Version: 6.00 Build 0)  -->
<svg version="1.1" id="Layer_1" xmlns="http://www.w3.org/2000/svg" xmlns:xlink="http://www.w3.org/1999/xlink" x="0px" y="0px"
	 width="650px" height="400px" viewBox="0 0 650 400" style="enable-background:new 0 0 650 400;" xml:space="preserve">
<style type="text/css">
	.st0{fill:#EE4444;}
	.st1{fill:#FFFFFF;}
	.st2{fill:#EF7133;}
	.st3{fill:#D0AD0B;}
	.st4{fill:#0EAB0E;}
	.st5{fill:#1675BE;}
	.st6{fill:#878E93;}
	.st7{fill:#778187;}
	.st8{fill:#222323;}
	.st9{fill:#2D2D2D;}
	.st10{fill:#1C1C1C;}
</style>
<g>
	<g>
		<path class="st0" d="M384.6,40.9c-1.3,0-2.5-0.4-3.4-1.2l-23.6,28.6v0.1h0l-0.1,0.2c-0.1-0.1-0.3-0.1-0.4-0.2h-63.1
			c-0.2,0.1-0.3,0.2-0.3,0.2l-0.1-0.2h-0.2v-0.3l-24-29c-1,0.9-2.3,1.5-3.8,1.5c-2.9,0-5.3-2.2-5.3-4.9c0-2.7,2.4-4.9,5.3-4.9
			c2.9,0,5.3,2.2,5.3,4.9c0,0.3,0,0.6-0.1,0.9l26,3.2l3.5-19.6c-2.5-0.4-4.5-2.4-4.5-4.8c0-2.7,2.4-4.9,5.3-4.9s5.3,2.2,5.3,4.9
			c0,1.3-0.5,2.4-1.4,3.3L325.5,36L346,18.6c-0.9-0.9-1.4-2-1.4-3.3c0-2.7,2.4-4.9,5.3-4.9c2.9,0,5.3,2.2,5.3,4.9
			c0,2.4-1.9,4.5-4.5,4.8l3.5,19.6l25.1-3c0-0.2-0.1-0.5-0.1-0.7c0-2.7,2.4-4.9,5.3-4.9s5.3,2.2,5.3,4.9S387.5,40.9,384.6,40.9z"/>
		<path class="st1" d="M361.9,58.4l-1.5-4h-6.1l-1.4,4h-2.1l5.6-14.7h2l5.6,14.7H361.9z M357.6,46.7c-0.1-0.2-0.1-0.5-0.2-1h0
			c-0.1,0.4-0.1,0.8-0.2,1l-2.2,6.1h4.9L357.6,46.7z"/>
		<path class="st1" d="M347.4,60.6c-3.7-2.1-6.4-5.9-8-11.3c-1.4,5.2-4.1,9-8.2,11.5c-0.3-0.5-0.7-0.9-1.2-1.4
			c5.5-3.2,8.4-8.8,8.7-16.7h1.7c-0.1,1.4-0.2,2.6-0.4,3.9c1.6,6.3,4.5,10.5,8.8,12.5C348.3,59.5,347.8,60,347.4,60.6z"/>
		<path class="st1" d="M322.6,58.5c0,1.5-0.7,2.2-2.1,2.2c-0.8,0-1.9,0-3.3,0c-0.1-0.5-0.1-1-0.2-1.5c1.2,0.1,2.2,0.2,3.2,0.2
			c0.7,0,1-0.4,1-1.1V56h-5.7v-1.3h5.7v-0.9L324,52h-7.4v-1.3h9.8V52l-3.7,2.3v0.4h5V56h-5L322.6,58.5L322.6,58.5z M322.7,46.8h-1.4
			v-1.4H316v1.2h-1.4v-1.2h-5v-1.3h5v-1.7h1.4v1.7h5.3v-1.7h1.4v1.7h4.9v1.3h-4.9V46.8z M309.6,49v-1.3h5.2c0.1-0.3,0.3-0.6,0.4-0.9
			h1.5c-0.1,0.3-0.3,0.6-0.4,0.9h11.1V49h-11.8c-0.5,0.8-1,1.6-1.5,2.4v9.4h-1.4v-7.5c-0.9,1.1-1.8,2-2.7,2.8
			c-0.3-0.5-0.6-0.9-0.9-1.3c1.9-1.6,3.6-3.5,5-5.8C314,49,309.6,49,309.6,49z"/>
		<path class="st1" d="M296.5,61h-1.4V48.9c-0.4,0.5-0.7,1-1.1,1.5c-0.2-0.3-0.6-0.6-1.1-1.1c1.6-1.9,3-4.3,4.3-7l1.4,0.5
			c-0.5,1-1,2-1.5,2.9h9.5v1.3h-4.7v2.9h4.4v1.3h-4.4v2.9h4.4v1.3h-4.4v3h5v1.3h-10.4L296.5,61L296.5,61z M300.5,46.9h-3.9v2.9h3.9
			V46.9z M300.5,51.1h-3.9v2.9h3.9V51.1z M300.5,58.3v-3h-3.9v3H300.5z M300,43.1l1.2-0.7c0.6,0.8,1.2,1.6,1.7,2.3l-1.3,0.8
			C301.1,44.7,300.6,43.9,300,43.1z M292,51.5c0.8-0.2,1.5-0.4,2.2-0.6c0,0.6,0.1,1.1,0.1,1.5c-0.8,0.2-1.6,0.4-2.3,0.7v5.7
			c0,1.3-0.5,2-1.5,2c-0.6,0-1.3,0.1-1.9,0c-0.1-0.5-0.1-1-0.2-1.6c0.6,0.1,1.1,0.1,1.5,0.1c0.5,0,0.7-0.2,0.7-0.7v-5.2
			c-0.8,0.2-1.5,0.5-2.3,0.7l-0.2-1.6c0.8-0.2,1.7-0.4,2.4-0.6v-4.6h-2.3v-1.3h2.3v-3.6h1.4v3.6h2.2v1.3H292L292,51.5L292,51.5z"/>
	</g>
	<g>
		<g>
			<path class="st2" d="M384.6,118.2c-1.3,0-2.5-0.4-3.4-1.2l-23.6,28.6v0.1h0l-0.1,0.2c-0.1-0.1-0.3-0.1-0.4-0.2h-63.1
				c-0.2,0.1-0.3,0.2-0.3,0.2l-0.1-0.2h-0.2v-0.3l-24-29c-1,0.9-2.3,1.5-3.8,1.5c-2.9,0-5.3-2.2-5.3-4.9c0-2.7,2.4-4.9,5.3-4.9
				c2.9,0,5.3,2.2,5.3,4.9c0,0.3,0,0.6-0.1,0.9l26,3.2l3.5-19.6c-2.5-0.4-4.5-2.4-4.5-4.8c0-2.7,2.4-4.9,5.3-4.9s5.3,2.2,5.3,4.9
				c0,1.3-0.5,2.4-1.4,3.3l20.5,17.4L346,95.9c-0.9-0.9-1.4-2-1.4-3.3c0-2.7,2.4-4.9,5.3-4.9c2.9,0,5.3,2.2,5.3,4.9
				c0,2.4-1.9,4.5-4.5,4.8l3.5,19.6l25.1-3.1c0-0.2-0.1-0.5-0.1-0.7c0-2.7,2.4-4.9,5.3-4.9s5.3,2.2,5.3,4.9S387.5,118.2,384.6,118.2
				z"/>
		</g>
		<path class="st1" d="M364.6,127L364.6,127c0.9,0.1,1.6,0.5,2.1,1c0.5,0.6,0.8,1.3,0.8,2.1c0,1.1-0.4,2-1.2,2.7c-0.8,0.7-1.8,1-3,1
			h-3.9V121h3.8c1.1,0,2,0.3,2.7,0.8c0.7,0.5,1,1.3,1,2.1c0,0.7-0.2,1.3-0.6,1.9C365.9,126.4,365.3,126.8,364.6,127z M361,132.4h2
			c0.9,0,1.5-0.2,2-0.6c0.5-0.4,0.7-1,0.7-1.7c0-1.5-1-2.2-3-2.2H361L361,132.4L361,132.4z M362.7,122.5h-1.7v4h1.5
			c0.8,0,1.4-0.2,1.9-0.6c0.5-0.4,0.7-0.9,0.7-1.6C365.1,123.1,364.3,122.5,362.7,122.5z"/>
		<path class="st1" d="M354.9,135.8c-3.3-1.9-5.6-5.1-7-9.9c-1.2,4.6-3.6,7.9-7.2,10c-0.3-0.4-0.6-0.8-1-1.3
			c4.8-2.8,7.4-7.7,7.6-14.7h1.5c-0.1,1.2-0.2,2.3-0.3,3.4c1.4,5.5,3.9,9.2,7.7,10.9C355.7,134.8,355.3,135.3,354.9,135.8z"/>
		<path class="st1" d="M333.2,134c0,1.3-0.6,2-1.8,2c-0.7,0-1.7,0-2.9,0c-0.1-0.4-0.1-0.9-0.2-1.3c1,0.1,1.9,0.1,2.8,0.1
			c0.6,0,0.9-0.3,0.9-0.9v-2h-5v-1.2h5v-0.8l2.4-1.6h-6.5v-1.1h8.6v1.1l-3.2,2v0.3h4.4v1.2h-4.4L333.2,134L333.2,134z M333.3,123.7
			H332v-1.2h-4.6v1h-1.3v-1h-4.4v-1.2h4.4v-1.5h1.3v1.5h4.6v-1.5h1.3v1.5h4.3v1.2h-4.3V123.7z M321.8,125.6v-1.2h4.5
			c0.1-0.2,0.3-0.5,0.4-0.8h1.3c-0.1,0.3-0.3,0.5-0.4,0.8h9.7v1.2H327c-0.4,0.7-0.8,1.4-1.3,2.1v8.2h-1.3v-6.6
			c-0.8,0.9-1.6,1.7-2.4,2.4c-0.3-0.4-0.6-0.8-0.8-1.1c1.7-1.4,3.1-3.1,4.4-5.1H321.8z"/>
		<path class="st1" d="M310.3,136.2h-1.3v-10.6c-0.3,0.4-0.6,0.9-0.9,1.3c-0.2-0.2-0.5-0.6-0.9-0.9c1.4-1.7,2.7-3.8,3.7-6.2l1.2,0.4
			c-0.4,0.9-0.9,1.7-1.3,2.5h8.3v1.1H315v2.6h3.9v1.1H315v2.6h3.9v1.1H315v2.6h4.4v1.1h-9.1L310.3,136.2L310.3,136.2z M313.8,123.8
			h-3.5v2.6h3.5V123.8z M313.8,127.5h-3.5v2.6h3.5V127.5z M313.8,133.8v-2.6h-3.5v2.6H313.8z M313.4,120.4l1-0.6
			c0.5,0.7,1,1.4,1.5,2.1l-1.1,0.7C314.4,121.9,313.9,121.1,313.4,120.4z M306.3,127.8c0.7-0.2,1.3-0.4,1.9-0.5
			c0,0.5,0.1,0.9,0.1,1.3c-0.7,0.2-1.4,0.4-2,0.6v5c0,1.1-0.4,1.7-1.3,1.8c-0.6,0-1.1,0-1.7,0c0-0.4-0.1-0.9-0.2-1.4
			c0.6,0,1,0.1,1.3,0.1c0.4,0,0.6-0.2,0.6-0.6v-4.5c-0.7,0.2-1.4,0.4-2,0.6l-0.2-1.4c0.7-0.2,1.5-0.3,2.1-0.5v-4h-2v-1.2h2v-3.2h1.2
			v3.2h1.9v1.2h-1.9L306.3,127.8L306.3,127.8L306.3,127.8z"/>
		<path class="st1" d="M300.2,136c-1.6-0.7-2.9-1.5-3.8-2.4c-1.1,1-2.4,1.8-4,2.5c-0.2-0.4-0.5-0.7-0.8-1.1c1.7-0.6,3-1.4,4-2.3
			c-1.1-1.3-1.9-2.9-2.2-5.1h-0.8v0.9c0,3.2-0.9,5.7-2.6,7.5c-0.3-0.4-0.6-0.7-0.8-1c1.5-1.7,2.2-3.9,2.2-6.5v-6.3h4.3v-2.4h1.2v2.4
			h3.9v1c-0.2,0.8-0.5,1.5-0.8,2.2c-0.3-0.2-0.7-0.3-1.1-0.4c0.3-0.6,0.5-1.2,0.7-1.7h-2.7v3.3h3v1c-0.5,2.1-1.4,3.8-2.5,5.2
			c0.9,0.8,2.2,1.5,3.9,2.1C300.8,135.2,300.5,135.6,300.2,136z M295.6,123.3h-3.1v3.3h3.1V123.3z M298.4,127.7h-4
			c0.4,1.7,1,3,2,4.2C297.3,130.7,298,129.3,298.4,127.7z M288.7,128.3c0.5-0.6,1-1.1,1.3-1.6l0.9,0.7c-0.4,0.5-0.9,1-1.5,1.6
			c0.4,0.5,0.8,0.9,1.1,1.2l-0.8,0.9c-0.5-0.6-1-1.3-1.6-2v6.8h-1.2v-7.3c-0.6,0.7-1.2,1.3-1.9,1.9c-0.1-0.4-0.3-0.9-0.5-1.4
			c1.8-1.5,3.2-3.1,4.1-4.9h-4V123h5.4v1.2c-0.6,1-1.3,2.1-2,3v0.4C288.3,127.9,288.5,128.1,288.7,128.3z M286.3,120.2l1.1-0.6
			c0.5,0.8,0.9,1.5,1.3,2.3l-1.2,0.6C287.2,121.9,286.8,121.1,286.3,120.2z"/>
	</g>
	<g>
		<path class="st3" d="M385.2,195.5c-1.3,0-2.5-0.4-3.4-1.2l-23.6,28.6v0.1h0l-0.1,0.2c-0.1-0.1-0.3-0.1-0.4-0.2h-63.1
			c-0.2,0.1-0.3,0.2-0.3,0.2L294,223h-0.2v-0.3l-24-29c-1,0.9-2.3,1.5-3.8,1.5c-2.9,0-5.3-2.2-5.3-4.9c0-2.7,2.4-4.9,5.3-4.9
			c2.9,0,5.3,2.2,5.3,4.9c0,0.3,0,0.6-0.1,0.9l26,3.2l3.5-19.6c-2.5-0.4-4.5-2.4-4.5-4.8c0-2.7,2.4-4.9,5.3-4.9
			c2.9,0,5.3,2.2,5.3,4.9c0,1.3-0.5,2.4-1.4,3.3l20.5,17.4l20.5-17.4c-0.9-0.9-1.4-2-1.4-3.3c0-2.7,2.4-4.9,5.3-4.9
			c2.9,0,5.3,2.2,5.3,4.9c0,2.4-1.9,4.5-4.5,4.8l3.5,19.6l25.1-3.1c0-0.2-0.1-0.5-0.1-0.7c0-2.7,2.4-4.9,5.3-4.9
			c2.9,0,5.3,2.2,5.3,4.9C390.5,193.3,388.1,195.5,385.2,195.5z"/>
		<path class="st1" d="M363.4,208.8c1.2,0,2.3-0.3,3.2-0.8v1.6c-0.9,0.5-2.1,0.7-3.5,0.7c-1.8,0-3.2-0.6-4.3-1.7
			c-1.1-1.1-1.6-2.7-1.6-4.5c0-2,0.6-3.6,1.8-4.9s2.7-1.8,4.6-1.8c1.2,0,2.2,0.2,3,0.5v1.7c-0.9-0.5-1.9-0.7-3-0.7
			c-1.4,0-2.5,0.5-3.4,1.4c-0.9,0.9-1.3,2.2-1.3,3.8c0,1.5,0.4,2.7,1.2,3.6C361,208.4,362.1,208.8,363.4,208.8z"/>
		<path class="st1" d="M353.7,211.9c-3.2-1.8-5.5-5-6.9-9.6c-1.2,4.5-3.5,7.7-7,9.8c-0.3-0.4-0.6-0.8-1-1.2
			c4.7-2.7,7.2-7.5,7.5-14.3h1.4c-0.1,1.2-0.2,2.3-0.3,3.3c1.3,5.4,3.9,9,7.6,10.7C354.5,211,354.1,211.5,353.7,211.9z"/>
		<path class="st1" d="M332.5,210.2c0,1.3-0.6,1.9-1.8,1.9c-0.7,0-1.6,0-2.8,0c-0.1-0.4-0.1-0.8-0.2-1.3c1,0.1,1.9,0.1,2.7,0.1
			c0.6,0,0.8-0.3,0.8-0.9v-2h-4.9v-1.1h4.9v-0.8l2.4-1.5h-6.4v-1.1h8.4v1.1l-3.1,2v0.3h4.3v1.1h-4.3L332.5,210.2L332.5,210.2z
			 M332.5,200.1h-1.2v-1.2h-4.5v1h-1.2v-1h-4.3v-1.1h4.3v-1.4h1.2v1.4h4.5v-1.5h1.2v1.5h4.2v1.1h-4.2L332.5,200.1L332.5,200.1z
			 M321.3,202v-1.1h4.4c0.1-0.2,0.3-0.5,0.4-0.7h1.3c-0.1,0.3-0.2,0.5-0.4,0.7h9.5v1.1h-10.1c-0.4,0.7-0.8,1.4-1.3,2v8.1H324v-6.4
			c-0.7,0.9-1.5,1.7-2.4,2.4c-0.3-0.4-0.5-0.8-0.8-1.1c1.7-1.3,3.1-3,4.3-5L321.3,202L321.3,202z"/>
		<path class="st1" d="M310.1,212.3h-1.2v-10.4c-0.3,0.4-0.6,0.8-0.9,1.3c-0.2-0.2-0.5-0.5-0.9-0.9c1.4-1.7,2.6-3.7,3.7-6l1.2,0.4
			c-0.4,0.9-0.8,1.7-1.3,2.5h8.1v1.1h-4v2.5h3.8v1.1h-3.8v2.5h3.8v1.1h-3.8v2.6h4.3v1.1h-8.9L310.1,212.3L310.1,212.3z M313.5,200.2
			h-3.4v2.5h3.4V200.2z M313.5,203.8h-3.4v2.5h3.4V203.8z M313.5,210v-2.6h-3.4v2.6H313.5z M313.1,196.9l1-0.6c0.5,0.7,1,1.4,1.5,2
			l-1.1,0.7C314.1,198.3,313.6,197.6,313.1,196.9z M306.2,204.1c0.7-0.2,1.3-0.4,1.9-0.5c0,0.5,0.1,0.9,0.1,1.3
			c-0.7,0.2-1.4,0.4-2,0.6v4.9c0,1.1-0.4,1.7-1.3,1.7c-0.5,0-1.1,0-1.7,0c0-0.4-0.1-0.9-0.2-1.3c0.5,0,1,0.1,1.3,0.1
			c0.4,0,0.6-0.2,0.6-0.6v-4.4c-0.7,0.2-1.3,0.4-1.9,0.6l-0.2-1.4c0.7-0.2,1.4-0.3,2.1-0.5v-3.9h-2v-1.1h2v-3.1h1.2v3.1h1.9v1.1
			h-1.9L306.2,204.1L306.2,204.1z"/>
		<path class="st1" d="M300.2,212.2c-1.6-0.7-2.8-1.5-3.8-2.4c-1.1,1-2.4,1.8-3.9,2.4c-0.2-0.4-0.5-0.7-0.8-1.1
			c1.6-0.6,2.9-1.4,3.9-2.2c-1.1-1.2-1.8-2.9-2.2-4.9h-0.8v0.9c0,3.1-0.8,5.6-2.5,7.4c-0.3-0.4-0.5-0.7-0.8-1
			c1.5-1.7,2.2-3.8,2.2-6.4v-6.2h4.2v-2.4h1.2v2.4h3.9v1c-0.2,0.7-0.5,1.5-0.8,2.2c-0.3-0.2-0.7-0.3-1.1-0.4
			c0.3-0.6,0.5-1.1,0.7-1.7h-2.6v3.2h2.9v1c-0.5,2-1.3,3.7-2.5,5c0.9,0.8,2.2,1.5,3.8,2C300.8,211.3,300.5,211.8,300.2,212.2z
			 M295.7,199.7h-3.1v3.2h3.1V199.7z M298.5,204h-3.9c0.3,1.6,1,3,1.9,4.1C297.4,207,298.1,205.6,298.5,204z M289.1,204.6
			c0.5-0.6,0.9-1.1,1.3-1.5l0.9,0.7c-0.4,0.5-0.9,1-1.4,1.5c0.4,0.4,0.8,0.9,1.1,1.2l-0.8,0.8c-0.4-0.6-1-1.2-1.6-1.9v6.7h-1.1V205
			c-0.6,0.6-1.2,1.3-1.8,1.9c-0.1-0.4-0.3-0.9-0.5-1.4c1.8-1.5,3.1-3.1,4-4.8h-3.9v-1.2h5.3v1.2c-0.6,1-1.2,2-2,3v0.4
			C288.7,204.2,288.9,204.4,289.1,204.6z M286.7,196.7l1.1-0.6c0.5,0.7,0.9,1.5,1.3,2.3l-1.2,0.6
			C287.6,198.3,287.2,197.6,286.7,196.7z"/>
	</g>
	<g>
		<path class="st4" d="M384.9,270.1c-1.3,0-2.5-0.4-3.4-1.2l-23.6,28.6v0.1h0l-0.1,0.2c-0.1-0.1-0.3-0.1-0.4-0.2h-63.1
			c-0.2,0.1-0.3,0.2-0.3,0.2l-0.1-0.2h-0.2v-0.3l-24-29c-1,0.9-2.3,1.5-3.8,1.5c-2.9,0-5.3-2.2-5.3-4.9c0-2.7,2.4-4.9,5.3-4.9
			c2.9,0,5.3,2.2,5.3,4.9c0,0.3,0,0.6-0.1,0.9l26,3.2l3.5-19.6c-2.5-0.4-4.5-2.4-4.5-4.8c0-2.7,2.4-4.9,5.3-4.9s5.3,2.2,5.3,4.9
			c0,1.3-0.5,2.4-1.4,3.3l20.5,17.4l20.5-17.4c-0.9-0.9-1.4-2-1.4-3.3c0-2.7,2.4-4.9,5.3-4.9c2.9,0,5.3,2.2,5.3,4.9
			c0,2.4-1.9,4.5-4.5,4.8l3.5,19.6l25.1-3.1c0-0.2-0.1-0.5-0.1-0.7c0-2.7,2.4-4.9,5.3-4.9c2.9,0,5.3,2.2,5.3,4.9
			C390.3,267.9,387.9,270.1,384.9,270.1z"/>
		<path class="st1" d="M367.6,283.4c-1.3,1.2-2.9,1.8-4.9,1.8h-3.5v-12.7h3.6c1.9,0,3.5,0.6,4.8,1.7c1.3,1.1,1.9,2.6,1.9,4.5
			C369.5,280.7,368.9,282.3,367.6,283.4z M366.4,275.2c-0.9-0.8-2.2-1.2-3.7-1.2h-1.9v9.8h1.8c1.6,0,2.9-0.4,3.8-1.3
			c0.9-0.9,1.4-2.1,1.4-3.7C367.8,277.2,367.3,276,366.4,275.2z"/>
		<path class="st1" d="M354.7,287.1c-3.2-1.8-5.6-5.1-6.9-9.7c-1.2,4.5-3.6,7.8-7.1,9.9c-0.3-0.4-0.6-0.8-1-1.2
			c4.8-2.8,7.3-7.6,7.6-14.5h1.4c-0.1,1.2-0.2,2.3-0.3,3.3c1.4,5.5,3.9,9.1,7.6,10.8C355.5,286.2,355.1,286.6,354.7,287.1z"/>
		<path class="st1" d="M333.3,285.3c0,1.3-0.6,1.9-1.8,1.9c-0.7,0-1.6,0-2.9,0c-0.1-0.4-0.1-0.9-0.2-1.3c1,0.1,1.9,0.1,2.8,0.1
			c0.6,0,0.9-0.3,0.9-0.9v-2h-4.9V282h4.9v-0.8l2.4-1.5H328v-1.1h8.5v1.1l-3.2,2v0.3h4.3v1.1h-4.3L333.3,285.3L333.3,285.3z
			 M333.3,275.1h-1.2v-1.2h-4.6v1h-1.2v-1h-4.3v-1.1h4.3v-1.5h1.2v1.5h4.6v-1.5h1.2v1.5h4.3v1.1h-4.3V275.1z M322,277.1v-1.1h4.5
			c0.1-0.2,0.3-0.5,0.4-0.8h1.3c-0.1,0.3-0.3,0.5-0.4,0.8h9.6v1.1h-10.2c-0.4,0.7-0.8,1.4-1.3,2.1v8.1h-1.2v-6.5
			c-0.8,0.9-1.5,1.7-2.4,2.4c-0.3-0.4-0.6-0.8-0.8-1.1c1.7-1.4,3.1-3,4.3-5.1L322,277.1L322,277.1L322,277.1z"/>
		<path class="st1" d="M310.6,287.5h-1.2V277c-0.3,0.4-0.6,0.9-0.9,1.3c-0.2-0.2-0.5-0.5-0.9-0.9c1.4-1.7,2.6-3.7,3.7-6.1l1.2,0.4
			c-0.4,0.9-0.9,1.7-1.3,2.5h8.2v1.1h-4.1v2.5h3.8v1.1h-3.8v2.5h3.8v1.1h-3.8v2.6h4.3v1.1h-9L310.6,287.5L310.6,287.5z M314.1,275.3
			h-3.4v2.5h3.4V275.3z M314.1,278.9h-3.4v2.5h3.4V278.9z M314.1,285.2v-2.6h-3.4v2.6H314.1z M313.6,271.9l1-0.6
			c0.5,0.7,1,1.4,1.5,2L315,274C314.6,273.3,314.2,272.6,313.6,271.9z M306.7,279.2c0.7-0.2,1.3-0.4,1.9-0.5c0,0.5,0.1,0.9,0.1,1.3
			c-0.7,0.2-1.4,0.4-2,0.6v5c0,1.1-0.4,1.7-1.3,1.8c-0.5,0-1.1,0-1.7,0c0-0.4-0.1-0.9-0.2-1.4c0.5,0,1,0.1,1.3,0.1
			c0.4,0,0.6-0.2,0.6-0.6v-4.5c-0.7,0.2-1.3,0.4-2,0.6l-0.2-1.4c0.7-0.2,1.4-0.3,2.1-0.5v-4h-2v-1.1h2v-3.1h1.2v3.1h1.9v1.1h-1.9
			V279.2z"/>
		<path class="st1" d="M300.6,287.4c-1.6-0.7-2.8-1.5-3.8-2.4c-1.1,1-2.4,1.8-4,2.5c-0.2-0.4-0.5-0.7-0.8-1.1c1.7-0.6,3-1.4,4-2.2
			c-1.1-1.2-1.8-2.9-2.2-5H293v0.9c0,3.2-0.8,5.7-2.5,7.5c-0.3-0.4-0.6-0.7-0.8-1c1.5-1.7,2.2-3.8,2.2-6.4v-6.2h4.2v-2.4h1.2v2.4
			h3.9v1c-0.2,0.8-0.5,1.5-0.8,2.2c-0.3-0.2-0.7-0.3-1.1-0.4c0.3-0.6,0.5-1.1,0.7-1.7h-2.6v3.2h2.9v1c-0.5,2.1-1.4,3.8-2.5,5.1
			c0.9,0.8,2.2,1.5,3.9,2C301.2,286.5,300.9,286.9,300.6,287.4z M296,274.8H293v3.2h3.1V274.8z M298.9,279.1h-4c0.4,1.6,1,3,1.9,4.1
			C297.7,282.1,298.4,280.7,298.9,279.1z M289.3,279.7c0.5-0.6,0.9-1.1,1.3-1.5l0.9,0.7c-0.4,0.5-0.9,1-1.4,1.6
			c0.4,0.5,0.8,0.9,1.1,1.2l-0.8,0.9c-0.5-0.6-1-1.3-1.6-2v6.7h-1.1v-7.2c-0.6,0.6-1.2,1.3-1.9,1.9c-0.1-0.4-0.3-0.9-0.5-1.4
			c1.8-1.5,3.1-3.1,4-4.9h-3.9v-1.2h5.4v1.2c-0.6,1-1.3,2-2,3v0.4C288.9,279.3,289.1,279.5,289.3,279.7z M286.9,271.7l1.1-0.6
			c0.5,0.8,0.9,1.5,1.3,2.3l-1.2,0.6C287.8,273.4,287.4,272.6,286.9,271.7z"/>
	</g>
	<g>
		<path class="st5" d="M385.1,346c-1.3,0-2.5-0.4-3.4-1.2l-23.6,28.6v0.1h0l-0.1,0.2c-0.1-0.1-0.3-0.1-0.4-0.2h-63.1
			c-0.2,0.1-0.3,0.2-0.3,0.2l-0.1-0.2h-0.2v-0.3l-24-29c-1,0.9-2.3,1.5-3.8,1.5c-2.9,0-5.3-2.2-5.3-4.9c0-2.7,2.4-4.9,5.3-4.9
			s5.3,2.2,5.3,4.9c0,0.3,0,0.6-0.1,0.9l26,3.2l3.5-19.6c-2.5-0.4-4.5-2.4-4.5-4.8c0-2.7,2.4-4.9,5.3-4.9c2.9,0,5.3,2.2,5.3,4.9
			c0,1.3-0.5,2.4-1.4,3.3l20.5,17.4l20.5-17.4c-0.9-0.9-1.4-2-1.4-3.3c0-2.7,2.4-4.9,5.3-4.9s5.3,2.2,5.3,4.9c0,2.4-1.9,4.5-4.5,4.8
			l3.5,19.6l25.1-3c0-0.2-0.1-0.5-0.1-0.7c0-2.7,2.4-4.9,5.3-4.9c2.9,0,5.3,2.2,5.3,4.9C390.5,343.8,388.1,346,385.1,346z"/>
		<path class="st1" d="M367,358.9v1.5h-7v-13h6.7v1.5h-5v4.2h4.6v1.5h-4.6v4.4L367,358.9L367,358.9z"/>
		<path class="st1" d="M355.4,362.3c-3.3-1.9-5.7-5.2-7.1-10c-1.2,4.6-3.6,8-7.3,10.2c-0.3-0.4-0.7-0.8-1.1-1.3
			c4.9-2.8,7.5-7.8,7.7-14.8h1.5c-0.1,1.2-0.2,2.3-0.4,3.4c1.4,5.6,4,9.3,7.8,11C356.2,361.3,355.8,361.8,355.4,362.3z"/>
		<path class="st1" d="M333.5,360.5c0,1.3-0.6,2-1.8,2c-0.7,0-1.7,0-2.9,0c-0.1-0.4-0.1-0.9-0.2-1.4c1,0.1,2,0.1,2.8,0.1
			c0.6,0,0.9-0.3,0.9-0.9v-2h-5.1v-1.2h5.1v-0.8l2.5-1.6H328v-1.1h8.7v1.1l-3.3,2.1v0.3h4.4v1.2h-4.4L333.5,360.5L333.5,360.5z
			 M333.5,350.1h-1.3v-1.2h-4.7v1h-1.3v-1h-4.4v-1.2h4.4v-1.5h1.3v1.5h4.7v-1.5h1.3v1.5h4.4v1.2h-4.4V350.1z M321.9,352.1v-1.2h4.6
			c0.1-0.3,0.3-0.5,0.4-0.8h1.3c-0.1,0.3-0.3,0.5-0.4,0.8h9.8v1.2h-10.4c-0.4,0.8-0.9,1.5-1.3,2.1v8.3h-1.3v-6.6
			c-0.8,0.9-1.6,1.8-2.4,2.5c-0.3-0.4-0.6-0.8-0.8-1.1c1.7-1.4,3.2-3.1,4.4-5.2H321.9L321.9,352.1z"/>
		<path class="st1" d="M310.3,362.7H309v-10.8c-0.3,0.4-0.6,0.9-1,1.3c-0.2-0.2-0.5-0.6-0.9-0.9c1.4-1.7,2.7-3.8,3.8-6.2l1.3,0.4
			c-0.4,0.9-0.9,1.7-1.3,2.6h8.4v1.1h-4.2v2.6h3.9v1.1h-3.9v2.6h3.9v1.1h-3.9v2.7h4.4v1.1h-9.2L310.3,362.7L310.3,362.7z
			 M313.8,350.2h-3.5v2.6h3.5V350.2z M313.8,353.9h-3.5v2.6h3.5V353.9z M313.8,360.3v-2.7h-3.5v2.7H313.8z M313.4,346.8l1.1-0.7
			c0.5,0.7,1.1,1.4,1.5,2.1l-1.2,0.7C314.4,348.2,313.9,347.5,313.4,346.8z M306.3,354.2c0.7-0.2,1.3-0.4,1.9-0.6
			c0,0.5,0.1,1,0.1,1.3c-0.7,0.2-1.4,0.4-2.1,0.6v5.1c0,1.1-0.4,1.7-1.3,1.8c-0.6,0-1.1,0-1.7,0c0-0.4-0.1-0.9-0.2-1.4
			c0.6,0,1,0.1,1.3,0.1c0.4,0,0.6-0.2,0.6-0.7v-4.6c-0.7,0.2-1.4,0.4-2,0.6l-0.2-1.4c0.8-0.2,1.5-0.4,2.2-0.5v-4.1h-2v-1.2h2v-3.2
			h1.3v3.2h1.9v1.2h-1.9L306.3,354.2L306.3,354.2z"/>
		<path class="st1" d="M300,362.6c-1.6-0.7-2.9-1.5-3.9-2.5c-1.1,1-2.5,1.8-4.1,2.5c-0.2-0.4-0.5-0.8-0.8-1.1
			c1.7-0.6,3.1-1.4,4.1-2.3c-1.1-1.3-1.9-3-2.3-5.1h-0.8v0.9c0,3.2-0.9,5.8-2.6,7.6c-0.3-0.4-0.6-0.7-0.9-1c1.5-1.7,2.3-3.9,2.3-6.6
			v-6.4h4.3v-2.5h1.2v2.5h4v1.1c-0.2,0.8-0.5,1.5-0.9,2.3c-0.3-0.2-0.7-0.3-1.1-0.4c0.3-0.6,0.5-1.2,0.7-1.8h-2.7v3.3h3v1
			c-0.5,2.1-1.4,3.9-2.6,5.2c0.9,0.8,2.2,1.5,3.9,2.1C300.7,361.7,300.3,362.1,300,362.6z M295.4,349.7h-3.2v3.3h3.2V349.7z
			 M298.3,354.1h-4.1c0.4,1.7,1,3.1,2,4.2C297.1,357.2,297.8,355.8,298.3,354.1z M288.5,354.8c0.5-0.6,1-1.1,1.3-1.6l0.9,0.7
			c-0.4,0.5-0.9,1-1.5,1.6c0.4,0.5,0.8,0.9,1.1,1.3l-0.8,0.9c-0.5-0.6-1-1.3-1.7-2v6.9h-1.2v-7.4c-0.6,0.7-1.2,1.3-1.9,1.9
			c-0.1-0.4-0.3-0.9-0.5-1.5c1.8-1.5,3.2-3.2,4.1-5h-4v-1.2h5.5v1.3c-0.6,1.1-1.3,2.1-2,3.1v0.4C288,354.3,288.3,354.5,288.5,354.8z
			 M286,346.6l1.1-0.6c0.5,0.8,0.9,1.6,1.3,2.3l-1.2,0.6C286.9,348.2,286.5,347.4,286,346.6z"/>
	</g>
	<g>
		<path class="st6" d="M129.9,88c-1.1,0-2.2-0.4-3-1l-20.4,24.7v0.1h0l-0.1,0.1c-0.1-0.1-0.2-0.1-0.4-0.1H51.3
			c-0.2,0.1-0.3,0.1-0.3,0.1l-0.1-0.1h-0.2v-0.2L30,86.5c-0.8,0.8-2,1.3-3.3,1.3c-2.5,0-4.6-1.9-4.6-4.2s2.1-4.2,4.6-4.2
			s4.6,1.9,4.6,4.2c0,0.3,0,0.5-0.1,0.7l22.6,2.8l3.1-17c-2.2-0.3-3.9-2.1-3.9-4.2c0-2.3,2.1-4.2,4.6-4.2s4.6,1.9,4.6,4.2
			c0,1.1-0.5,2.1-1.2,2.9l17.7,15.1l17.7-15.1c-0.8-0.8-1.2-1.8-1.2-2.9c0-2.3,2.1-4.2,4.6-4.2c2.5,0,4.6,1.9,4.6,4.2
			c0,2.1-1.7,3.9-3.9,4.2l3.1,17l21.7-2.6c0-0.2-0.1-0.4-0.1-0.6c0-2.3,2.1-4.2,4.6-4.2c2.5,0,4.6,1.9,4.6,4.2
			C134.5,86.2,132.4,88,129.9,88z"/>
		<path class="st1" d="M108.8,92.1v4.5h4.9v1.5h-4.9v5.9h-1.8V90.5h7v1.6H108.8z"/>
		<path class="st1" d="M102.4,106.1c-3.5-2-5.9-5.4-7.4-10.4c-1.3,4.8-3.8,8.4-7.6,10.6c-0.3-0.4-0.7-0.9-1.1-1.3
			c5.1-2.9,7.8-8.1,8.1-15.5h1.5c-0.1,1.3-0.2,2.4-0.4,3.6c1.4,5.8,4.2,9.7,8.2,11.5C103.2,105.1,102.7,105.6,102.4,106.1z"/>
		<path class="st1" d="M79.4,104.2c0,1.4-0.6,2.1-1.9,2.1c-0.7,0-1.8,0-3.1,0c-0.1-0.4-0.1-0.9-0.2-1.4c1.1,0.1,2.1,0.1,2.9,0.1
			c0.6,0,0.9-0.3,0.9-1v-2.1h-5.3v-1.2h5.3v-0.9l2.6-1.6h-6.9V97h9.1v1.2l-3.4,2.2v0.4H84v1.2h-4.6L79.4,104.2L79.4,104.2z
			 M79.5,93.3h-1.3v-1.3h-4.9v1.1h-1.3v-1.1h-4.6v-1.2h4.6v-1.6h1.3v1.6h4.9v-1.6h1.3v1.6H84v1.2h-4.6V93.3z M67.3,95.4v-1.2h4.8
			c0.1-0.3,0.3-0.5,0.4-0.8h1.4c-0.1,0.3-0.3,0.5-0.4,0.8h10.3v1.2H72.9c-0.4,0.8-0.9,1.5-1.4,2.2v8.7h-1.3v-6.9
			c-0.8,1-1.7,1.8-2.5,2.6c-0.3-0.5-0.6-0.9-0.8-1.2c1.8-1.4,3.3-3.2,4.6-5.4H67.3z"/>
		<path class="st1" d="M55.2,106.5h-1.3V95.3c-0.3,0.5-0.7,0.9-1,1.4c-0.2-0.3-0.5-0.6-1-1c1.5-1.8,2.8-4,4-6.5l1.3,0.4
			c-0.4,0.9-0.9,1.8-1.4,2.7h8.8v1.2h-4.4v2.7h4.1v1.2h-4.1v2.7h4.1v1.2h-4.1v2.8h4.6v1.2h-9.6L55.2,106.5L55.2,106.5L55.2,106.5z
			 M58.9,93.5h-3.6v2.7h3.6V93.5z M58.9,97.4h-3.6v2.7h3.6V97.4z M58.9,104.1v-2.8h-3.6v2.8H58.9z M58.4,89.9l1.1-0.7
			c0.6,0.7,1.1,1.5,1.6,2.2l-1.2,0.8C59.5,91.4,59,90.7,58.4,89.9z M51,97.7c0.7-0.2,1.4-0.4,2-0.6c0,0.5,0.1,1,0.1,1.4
			c-0.8,0.2-1.5,0.4-2.2,0.6v5.3c0,1.2-0.5,1.8-1.4,1.9c-0.6,0-1.2,0-1.8,0c0-0.5-0.1-1-0.2-1.5c0.6,0,1.1,0.1,1.4,0.1
			c0.4,0,0.7-0.2,0.7-0.7v-4.8c-0.7,0.2-1.4,0.4-2.1,0.6l-0.2-1.5c0.8-0.2,1.5-0.4,2.3-0.6v-4.3h-2.1v-1.2h2.1v-3.3H51v3.3h2v1.2h-2
			L51,97.7L51,97.7z"/>
	</g>
	<g>
		<path class="st6" d="M622.6,87c-1.1,0-2.2-0.4-3-1l-20.3,24.5v0.1h0l-0.1,0.1c-0.1,0-0.2-0.1-0.4-0.1h-54.2
			c-0.2,0.1-0.3,0.1-0.3,0.1l-0.1-0.1h-0.2v-0.2l-20.6-24.9c-0.8,0.8-2,1.3-3.3,1.3c-2.5,0-4.6-1.9-4.6-4.2c0-2.3,2-4.2,4.6-4.2
			c2.5,0,4.6,1.9,4.6,4.2c0,0.3,0,0.5-0.1,0.7l22.4,2.7l3-16.9c-2.2-0.3-3.9-2-3.9-4.1c0-2.3,2-4.2,4.6-4.2c2.5,0,4.6,1.9,4.6,4.2
			c0,1.1-0.5,2.1-1.2,2.8l17.6,14.9l17.6-14.9c-0.8-0.7-1.2-1.7-1.2-2.8c0-2.3,2-4.2,4.6-4.2c2.5,0,4.6,1.9,4.6,4.2
			c0,2.1-1.7,3.8-3.9,4.1l3,16.9l21.5-2.6c0-0.2-0.1-0.4-0.1-0.6c0-2.3,2-4.2,4.6-4.2c2.5,0,4.6,1.9,4.6,4.2
			C627.2,85.2,625.2,87,622.6,87z"/>
		<path class="st1" d="M600.3,97.6v-1.4h4.4v5.8c-1.3,0.7-2.7,1.1-4.3,1.1c-1.8,0-3.3-0.6-4.4-1.7s-1.7-2.7-1.7-4.6
			c0-1.9,0.6-3.6,1.8-4.8c1.2-1.3,2.8-1.9,4.7-1.9c1.4,0,2.5,0.2,3.5,0.7v1.8c-1-0.6-2.2-1-3.6-1c-1.4,0-2.5,0.5-3.4,1.4
			c-0.9,0.9-1.3,2.2-1.3,3.7c0,1.6,0.4,2.8,1.2,3.7c0.8,0.9,1.9,1.3,3.3,1.3c1,0,1.8-0.2,2.5-0.6v-3.4L600.3,97.6L600.3,97.6z"/>
		<path class="st1" d="M590.7,104.6c-3.2-1.8-5.5-5.1-6.9-9.7c-1.2,4.5-3.5,7.8-7.1,9.9c-0.3-0.4-0.6-0.8-1-1.2
			c4.7-2.7,7.2-7.5,7.5-14.4h1.4c-0.1,1.2-0.2,2.3-0.3,3.3c1.3,5.4,3.9,9,7.6,10.7C591.4,103.7,591,104.2,590.7,104.6z"/>
		<path class="st1" d="M569.4,102.9c0,1.3-0.6,1.9-1.8,1.9c-0.7,0-1.6,0-2.8,0c-0.1-0.4-0.1-0.9-0.2-1.3c1,0.1,1.9,0.1,2.7,0.1
			c0.6,0,0.8-0.3,0.8-0.9v-2h-4.9v-1.1h4.9v-0.8l2.4-1.5h-6.4v-1.1h8.4v1.1l-3.2,2v0.3h4.3v1.1h-4.3L569.4,102.9L569.4,102.9z
			 M569.4,92.7h-1.2v-1.2h-4.5v1h-1.2v-1h-4.3v-1.1h4.3V89h1.2v1.4h4.5v-1.5h1.2v1.5h4.2v1.1h-4.2V92.7z M558.1,94.7v-1.1h4.5
			c0.1-0.2,0.3-0.5,0.4-0.8h1.3c-0.1,0.3-0.3,0.5-0.4,0.8h9.5v1.1h-10.1c-0.4,0.7-0.8,1.4-1.3,2.1v8.1h-1.2v-6.4
			c-0.8,0.9-1.5,1.7-2.4,2.4c-0.3-0.4-0.5-0.8-0.8-1.1c1.7-1.3,3.1-3,4.3-5H558.1z"/>
		<path class="st1" d="M546.9,105h-1.2V94.6c-0.3,0.4-0.6,0.9-0.9,1.3c-0.2-0.2-0.5-0.5-0.9-0.9c1.4-1.7,2.6-3.7,3.7-6l1.2,0.4
			c-0.4,0.9-0.8,1.7-1.3,2.5h8.1v1.1h-4v2.5h3.8v1.1h-3.8V99h3.8v1.1h-3.8v2.6h4.3v1.1h-8.9L546.9,105L546.9,105z M550.3,92.9h-3.4
			v2.5h3.4V92.9z M550.3,96.5h-3.4V99h3.4V96.5z M550.3,102.7v-2.6h-3.4v2.6H550.3z M549.9,89.5l1-0.6c0.5,0.7,1,1.4,1.5,2l-1.1,0.7
			C550.8,91,550.4,90.3,549.9,89.5z M543,96.8c0.7-0.2,1.3-0.4,1.9-0.5c0,0.5,0.1,0.9,0.1,1.3c-0.7,0.2-1.4,0.4-2,0.6v4.9
			c0,1.1-0.4,1.7-1.3,1.7c-0.5,0-1.1,0-1.7,0c0-0.4-0.1-0.9-0.2-1.4c0.5,0,1,0.1,1.3,0.1c0.4,0,0.6-0.2,0.6-0.6v-4.4
			c-0.7,0.2-1.3,0.4-1.9,0.6l-0.2-1.4c0.7-0.2,1.4-0.3,2.1-0.5v-4h-2V92h2v-3.1h1.2V92h1.9v1.1H543L543,96.8L543,96.8z"/>
	</g>
	<path class="st7" d="M318.6,76.6h12.8v4.7h-12.8V76.6z M318.6,71.4h12.8v2.9h-12.8V71.4z M318.7,83.1h12.6v12.3h2.7l-8.7,13.1
		l-9.4-13.1h2.7L318.7,83.1L318.7,83.1z"/>
	<path class="st7" d="M319.6,153h12.8v4.7h-12.8V153z M319.6,147.8h12.8v2.9h-12.8V147.8z M319.7,159.6h12.6v12.3h2.7l-8.7,13.1
		l-9.4-13.1h2.7V159.6z"/>
	<path class="st7" d="M318.6,230.4h12.8v4.7h-12.8V230.4z M318.6,225.1h12.8v2.9h-12.8V225.1z M318.7,236.9h12.6v12.3h2.7l-8.7,13.1
		l-9.4-13.1h2.7V236.9z"/>
	<path class="st7" d="M319.6,304.4h12.8v4.7h-12.8V304.4z M319.6,299.1h12.8v2.9h-12.8V299.1z M319.7,310.9h12.6v12.3h2.7l-8.7,13.1
		l-9.4-13.1h2.7V310.9z"/>
	<path class="st7" d="M97.7,51.7L81.9,68.8c0.7,0.8,1.1,1.8,1.1,2.9c0,2.3-1.9,4.3-4.3,4.3s-4.3-1.9-4.3-4.3c0-2.3,1.9-4.3,4.3-4.3
		c0.5,0,1,0.1,1.5,0.3L96.5,50l0.6,0.5v-0.9h181.6v2L97.7,51.7L97.7,51.7z"/>
	<path class="st7" d="M552.6,52l15.8,17.1c-0.7,0.8-1.1,1.8-1.1,2.9c0,2.3,1.9,4.3,4.3,4.3s4.3-1.9,4.3-4.3c0-2.3-1.9-4.3-4.3-4.3
		c-0.5,0-1,0.1-1.5,0.3l-16.3-17.7l-0.6,0.5V50H371.5v2H552.6z"/>
	<path class="st7" d="M218.5,215.4h-1.1V237h-68.2v27.3h68.2v21.5h2v0h65.1v-2h-65.1v-19.5h30.3V237h-30.3v-19.7H289v-2L218.5,215.4
		L218.5,215.4L218.5,215.4z M247.7,239.1v23.4h-96.4v-23.4H247.7z M218.5,61.4h-1.1V83h-68.2v27.3h68.2v21.5h2v0h61.1v-2h-61.1
		v-19.5h30.3V83h-30.3V63.3H289v-2L218.5,61.4L218.5,61.4L218.5,61.4z M247.7,85.1v23.3h-96.4V85.1H247.7z M218.5,138.4h-1.1V160
		h-68.2v27.3h68.2v21.5h2v0h61.1v-2h-61.1v-19.5h30.3V160h-30.3v-19.7H289v-2L218.5,138.4L218.5,138.4L218.5,138.4z M247.7,162.1
		v23.3h-96.4v-23.3H247.7z M218.5,292h-1.1v21.6h-68.2V341h68.2v21.5h2v0h65.1v-2h-65.1V341h30.3v-27.3h-30.3V294H289v-2L218.5,292
		L218.5,292L218.5,292z M247.7,315.8v23.3h-96.4v-23.3H247.7z M373.7,201.9v2h56.3v0h1.1v-46.3h54.3v-27.3H431V64.8h-2v0.1h-69.6v2
		H429v63.3h-54.6v27.3H429v44.3L373.7,201.9L373.7,201.9z M376,156.2v-24.8h107.8v24.8L376,156.2L376,156.2z M498.4,206.5V58.1h-2
		v0.1H364.9v2h131.6v146.3h-54.6v27.3h54.6v43.3H374.1v2h123.3v0h1.1v-45.3h54.3v-27.3L498.4,206.5L498.4,206.5z M551.2,232.6H443.4
		v-24.8h107.8V232.6z"/>
	<path class="st8" d="M245.1,100.8c-0.5,0.5-1.1,0.8-1.8,0.8c-0.7,0-1.3-0.2-1.8-0.7c-0.4-0.5-0.7-1.1-0.7-1.9
		c0-0.9,0.2-1.6,0.7-2.1c0.5-0.5,1.1-0.8,1.9-0.8c0.7,0,1.3,0.2,1.8,0.7c0.4,0.5,0.6,1.1,0.6,2C245.9,99.6,245.6,100.3,245.1,100.8z
		 M244.4,97.5c-0.2-0.3-0.6-0.5-1-0.5c-0.5,0-0.8,0.2-1.1,0.5c-0.3,0.3-0.4,0.8-0.4,1.4c0,0.6,0.1,1,0.4,1.3c0.3,0.3,0.6,0.5,1,0.5
		c0.5,0,0.8-0.2,1.1-0.5c0.2-0.3,0.4-0.8,0.4-1.4C244.8,98.2,244.7,97.8,244.4,97.5z M236.2,101.5l6.8-10.7h1.1l-6.8,10.7H236.2z
		 M237,96.2c-0.7,0-1.3-0.2-1.8-0.7s-0.7-1.1-0.7-1.9c0-0.9,0.2-1.6,0.7-2.1c0.5-0.5,1.1-0.8,1.9-0.8c0.8,0,1.3,0.2,1.8,0.7
		c0.4,0.5,0.6,1.1,0.6,2c0,0.8-0.2,1.5-0.7,2C238.4,95.9,237.7,96.2,237,96.2z M238.1,92c-0.2-0.3-0.6-0.5-1-0.5
		c-0.5,0-0.8,0.2-1.1,0.5c-0.3,0.3-0.4,0.8-0.4,1.4c0,0.6,0.1,1,0.4,1.4s0.6,0.5,1,0.5c0.5,0,0.8-0.2,1.1-0.5
		c0.2-0.3,0.4-0.8,0.4-1.4C238.5,92.8,238.3,92.3,238.1,92z M229.9,97.8l-2.4,2.4v0h4.9v1.2h-6.4v-1.2l3.1-3.1
		c0.8-0.8,1.4-1.5,1.7-2c0.3-0.5,0.4-1,0.4-1.5c0-0.6-0.2-1.1-0.5-1.4c-0.3-0.3-0.8-0.5-1.5-0.5c-0.9,0-1.8,0.4-2.7,1.2v-1.4
		c0.8-0.6,1.8-1,2.9-1c1,0,1.7,0.3,2.3,0.8c0.6,0.5,0.8,1.2,0.8,2.1c0,0.7-0.2,1.3-0.5,1.9C231.6,96.1,230.9,96.9,229.9,97.8z
		 M223,101.6c-0.3,0-0.5-0.1-0.6-0.3c-0.2-0.2-0.3-0.4-0.3-0.6c0-0.2,0.1-0.5,0.3-0.6c0.2-0.2,0.4-0.3,0.6-0.3
		c0.3,0,0.5,0.1,0.6,0.3c0.2,0.2,0.3,0.4,0.3,0.6c0,0.2-0.1,0.4-0.3,0.6C223.4,101.5,223.2,101.6,223,101.6z M216.5,101.6
		c-1.1,0-1.9-0.4-2.5-1.3c-0.6-0.9-0.9-2.2-0.9-3.9c0-1.9,0.3-3.3,0.9-4.2c0.6-1,1.5-1.4,2.7-1.4c2.2,0,3.4,1.8,3.4,5.4
		c0,1.8-0.3,3.2-0.9,4.1C218.5,101.1,217.6,101.6,216.5,101.6z M216.7,91.8c-1.5,0-2.2,1.5-2.2,4.5c0,2.8,0.7,4.2,2.1,4.2
		c1.4,0,2.1-1.4,2.1-4.3C218.7,93.3,218,91.8,216.7,91.8z M210,102c0.2,0,0.4-0.2,0.5-0.6c0.1-0.7,0.2-1.3,0.3-2.1
		c0.4,0.2,0.7,0.3,1,0.4c-0.1,1-0.3,1.8-0.5,2.4c-0.2,0.7-0.6,1-1.1,1.1c-0.6,0-1.1-0.2-1.6-0.6c-0.6-0.4-1-1-1.4-1.8
		c-0.8,0.8-1.6,1.6-2.5,2.2c-0.2-0.3-0.5-0.5-0.8-0.8c1.1-0.7,2-1.5,2.8-2.5c-0.5-1.3-0.8-3.5-0.9-6.5h-5.2v2.1h3.9
		c-0.1,1.7-0.1,3.2-0.2,4.4c-0.1,1.3-0.7,1.9-1.8,1.9c-0.4,0-0.9,0-1.5-0.1c-0.1-0.3-0.1-0.7-0.2-1.1c0.6,0.1,1.2,0.1,1.6,0.1
		c0.5,0,0.8-0.4,0.9-1.1c0.1-0.8,0.1-1.9,0.2-3.1h-2.8c-0.1,3.2-0.7,5.5-1.9,7c-0.2-0.3-0.5-0.6-0.7-0.9c1-1.4,1.5-3.5,1.5-6.5v-3.7
		h6.2c0-0.7-0.1-1.5-0.1-2.3h1.1c0,0.6,0,1.4,0,2.3h4.7v1h-4.7c0.1,2.5,0.3,4.3,0.7,5.5c0.9-1.2,1.6-2.6,2.2-4.1l1.1,0.5
		c-0.8,1.9-1.7,3.5-2.8,4.8C208.7,101.3,209.3,102,210,102z M207.9,90.5l0.6-0.7c0.8,0.4,1.5,0.9,2.1,1.4l-0.7,0.8
		C209.3,91.5,208.6,91,207.9,90.5z M195.4,102.4h-6.1v0.7h-1V92.5h3.5v-2.7h1v2.7h3.5v10.6h-1L195.4,102.4L195.4,102.4z M191.9,93.5
		h-2.5v3.4h2.5V93.5z M191.9,97.8h-2.5v3.8h2.5V97.8z M195.4,93.5h-2.5v3.4h2.5V93.5z M195.4,97.8h-2.5v3.8h2.5V97.8z M186.4,96.2
		c0.5-0.2,1-0.3,1.5-0.5c0,0.3,0,0.6,0,1.1c-0.5,0.2-1,0.3-1.5,0.5v4.3c0,1-0.4,1.5-1.3,1.5c-0.3,0-0.7,0-1.2,0
		c0-0.4-0.1-0.8-0.2-1.1c0.4,0.1,0.8,0.1,1.1,0.1c0.4,0,0.5-0.2,0.5-0.6v-3.8c-0.6,0.2-1.1,0.4-1.7,0.6l-0.1-1.1
		c0.6-0.2,1.2-0.4,1.8-0.5v-3.1h-1.7v-0.9h1.7v-2.6h1v2.6h1.6v0.9h-1.6L186.4,96.2L186.4,96.2z M181.9,100.9c-0.1,1.4-0.7,2-1.9,2
		c-0.6,0-1.3,0-2.1,0c-0.1-0.3-0.1-0.7-0.2-1.1c0.7,0.1,1.4,0.1,2,0.1c0.7,0,1.1-0.4,1.1-1.2c0.1-1,0.1-2.2,0.2-3.7h-5.7l0.4-5h1
		l-0.4,4h3.2l0.5-4.5h-5v-1h6.2l-0.6,5.5h1.4C182,97.9,181.9,99.6,181.9,100.9z M180.3,99.9h-5.8v-1h5.8V99.9z M171.3,95.3h2.6v7.4
		h-1v-0.9h-1.7v1.1h-1v-5.7c-0.2,0.4-0.5,0.8-0.8,1.1c-0.1-0.3-0.3-0.6-0.6-0.9c1.1-1.5,1.9-3.3,2.4-5.3h-2v-1h5.1v1h-2
		C172.2,93.2,171.8,94.3,171.3,95.3z M171.3,100.9h1.7v-4.6h-1.7V100.9z M165.7,101.3c0,1.2-0.6,1.7-1.7,1.8c-0.6,0-1.4,0-2.4,0
		c0-0.4-0.1-0.8-0.2-1.2c1,0.1,1.8,0.1,2.3,0.1c0.6,0,0.8-0.3,0.8-1V92h-4.4v-1h7.9v1h-2.4L165.7,101.3L165.7,101.3z M158,96.4
		c0.8-0.3,1.5-0.5,2.2-0.8c0,0.5,0.1,0.8,0.1,1.1c-0.8,0.3-1.6,0.6-2.3,0.8v4c0,1-0.5,1.5-1.4,1.5c-0.4,0-0.9,0-1.6,0
		c0-0.4-0.1-0.8-0.2-1.1c0.5,0.1,0.9,0.1,1.5,0.1c0.4,0,0.6-0.2,0.6-0.7v-3.4c-0.7,0.3-1.4,0.5-2.1,0.8l-0.3-1.1
		c0.8-0.3,1.7-0.5,2.5-0.8v-3.2h-2.2v-1h2.2v-2.6h1.1v2.6h2v1h-2L158,96.4L158,96.4z"/>
	<path class="st8" d="M245.1,177.8c-0.5,0.5-1.1,0.8-1.8,0.8c-0.7,0-1.3-0.2-1.8-0.7c-0.4-0.5-0.7-1.1-0.7-1.9
		c0-0.9,0.2-1.6,0.7-2.1c0.5-0.5,1.1-0.8,1.9-0.8c0.7,0,1.3,0.2,1.8,0.7c0.4,0.5,0.6,1.1,0.6,2C245.9,176.6,245.6,177.3,245.1,177.8
		z M244.4,174.5c-0.2-0.3-0.6-0.5-1-0.5c-0.5,0-0.8,0.2-1.1,0.5c-0.3,0.3-0.4,0.8-0.4,1.4c0,0.6,0.1,1,0.4,1.3
		c0.3,0.3,0.6,0.5,1,0.5c0.5,0,0.8-0.2,1.1-0.5c0.2-0.3,0.4-0.8,0.4-1.4C244.8,175.2,244.7,174.8,244.4,174.5z M236.2,178.5
		l6.8-10.7h1.1l-6.8,10.7H236.2z M237,173.2c-0.7,0-1.3-0.2-1.8-0.7s-0.7-1.1-0.7-1.9c0-0.9,0.2-1.6,0.7-2.1
		c0.5-0.5,1.1-0.8,1.9-0.8c0.8,0,1.3,0.2,1.8,0.7c0.4,0.5,0.6,1.1,0.6,2c0,0.8-0.2,1.5-0.7,2C238.4,172.9,237.7,173.2,237,173.2z
		 M238.1,169c-0.2-0.3-0.6-0.5-1-0.5c-0.5,0-0.8,0.2-1.1,0.5c-0.3,0.3-0.4,0.8-0.4,1.4c0,0.6,0.1,1,0.4,1.4s0.6,0.5,1,0.5
		c0.5,0,0.8-0.2,1.1-0.5c0.2-0.3,0.4-0.8,0.4-1.4C238.5,169.8,238.3,169.3,238.1,169z M229.9,174.8l-2.4,2.4v0h4.9v1.2h-6.4v-1.2
		l3.1-3.1c0.8-0.8,1.4-1.5,1.7-2c0.3-0.5,0.4-1,0.4-1.5c0-0.6-0.2-1.1-0.5-1.4c-0.3-0.3-0.8-0.5-1.5-0.5c-0.9,0-1.8,0.4-2.7,1.2
		v-1.4c0.8-0.6,1.8-1,2.9-1c1,0,1.7,0.3,2.3,0.8c0.6,0.5,0.8,1.2,0.8,2.1c0,0.7-0.2,1.3-0.5,1.9
		C231.6,173.1,230.9,173.9,229.9,174.8z M223,178.6c-0.3,0-0.5-0.1-0.6-0.3c-0.2-0.2-0.3-0.4-0.3-0.6c0-0.2,0.1-0.5,0.3-0.6
		c0.2-0.2,0.4-0.3,0.6-0.3c0.3,0,0.5,0.1,0.6,0.3c0.2,0.2,0.3,0.4,0.3,0.6c0,0.2-0.1,0.4-0.3,0.6C223.4,178.5,223.2,178.6,223,178.6
		z M216.5,178.6c-1.1,0-1.9-0.4-2.5-1.3c-0.6-0.9-0.9-2.2-0.9-3.9c0-1.9,0.3-3.3,0.9-4.2c0.6-1,1.5-1.4,2.7-1.4
		c2.2,0,3.4,1.8,3.4,5.4c0,1.8-0.3,3.2-0.9,4.1C218.5,178.1,217.6,178.6,216.5,178.6z M216.7,168.8c-1.5,0-2.2,1.5-2.2,4.5
		c0,2.8,0.7,4.2,2.1,4.2c1.4,0,2.1-1.4,2.1-4.3C218.7,170.3,218,168.8,216.7,168.8z M210,179c0.2,0,0.4-0.2,0.5-0.6
		c0.1-0.7,0.2-1.3,0.3-2.1c0.4,0.2,0.7,0.3,1,0.4c-0.1,1-0.3,1.8-0.5,2.4c-0.2,0.7-0.6,1-1.1,1.1c-0.6,0-1.1-0.1-1.6-0.6
		c-0.6-0.4-1-1-1.4-1.8c-0.8,0.8-1.6,1.6-2.5,2.2c-0.2-0.3-0.5-0.5-0.8-0.8c1.1-0.7,2-1.5,2.8-2.5c-0.5-1.3-0.8-3.5-0.9-6.5h-5.2
		v2.1h3.9c-0.1,1.7-0.1,3.2-0.2,4.4c-0.1,1.3-0.7,1.9-1.8,1.9c-0.4,0-0.9,0-1.5-0.1c-0.1-0.3-0.1-0.7-0.2-1.1
		c0.6,0.1,1.2,0.1,1.6,0.1c0.5,0,0.8-0.4,0.9-1.1c0.1-0.8,0.1-1.9,0.2-3.1h-2.8c-0.1,3.2-0.7,5.5-1.9,7c-0.2-0.3-0.5-0.6-0.7-0.9
		c1-1.4,1.5-3.5,1.5-6.5v-3.7h6.2c0-0.7-0.1-1.5-0.1-2.3h1.1c0,0.6,0,1.4,0,2.3h4.7v1h-4.7c0.1,2.5,0.3,4.3,0.7,5.5
		c0.9-1.2,1.6-2.6,2.2-4.1l1.1,0.5c-0.8,1.9-1.7,3.5-2.8,4.8C208.7,178.3,209.3,179,210,179z M207.9,167.5l0.6-0.7
		c0.8,0.4,1.5,0.9,2.1,1.4l-0.7,0.8C209.3,168.5,208.6,168,207.9,167.5z M195.4,179.4h-6.1v0.7h-1v-10.6h3.5v-2.7h1v2.7h3.5v10.6h-1
		L195.4,179.4L195.4,179.4z M191.9,170.5h-2.5v3.4h2.5V170.5z M191.9,174.8h-2.5v3.8h2.5V174.8z M195.4,170.5h-2.5v3.4h2.5V170.5z
		 M195.4,174.8h-2.5v3.8h2.5V174.8z M186.4,173.2c0.5-0.2,1-0.3,1.5-0.5c0,0.3,0,0.6,0,1.1c-0.5,0.2-1,0.3-1.5,0.5v4.3
		c0,1-0.4,1.5-1.3,1.5c-0.3,0-0.7,0-1.2,0c0-0.4-0.1-0.8-0.2-1.1c0.4,0.1,0.8,0.1,1.1,0.1c0.4,0,0.5-0.2,0.5-0.6v-3.8
		c-0.6,0.2-1.1,0.4-1.7,0.6l-0.1-1.1c0.6-0.2,1.2-0.4,1.8-0.5v-3.1h-1.7v-0.9h1.7v-2.6h1v2.6h1.6v0.9h-1.6L186.4,173.2L186.4,173.2z
		 M181.9,177.9c-0.1,1.4-0.7,2-1.9,2c-0.6,0-1.3,0-2.1,0c-0.1-0.3-0.1-0.7-0.2-1.1c0.7,0.1,1.4,0.1,2,0.1c0.7,0,1.1-0.4,1.1-1.2
		c0.1-1,0.1-2.2,0.2-3.6h-5.7l0.4-5h1l-0.4,4h3.2l0.5-4.5h-5v-1h6.2l-0.6,5.5h1.4C182,174.9,181.9,176.6,181.9,177.9z M180.3,176.9
		h-5.8v-1h5.8V176.9z M171.3,172.3h2.6v7.4h-1v-0.9h-1.7v1.1h-1v-5.7c-0.2,0.4-0.5,0.8-0.8,1.1c-0.1-0.3-0.3-0.6-0.6-0.9
		c1.1-1.5,1.9-3.3,2.4-5.3h-2v-1h5.1v1h-2C172.2,170.2,171.8,171.3,171.3,172.3z M171.3,177.9h1.7v-4.6h-1.7V177.9z M165.7,178.3
		c0,1.2-0.6,1.7-1.7,1.8c-0.6,0-1.4,0-2.4,0c0-0.4-0.1-0.8-0.2-1.2c1,0.1,1.8,0.1,2.3,0.1c0.6,0,0.8-0.3,0.8-1V169h-4.4v-1h7.9v1
		h-2.4L165.7,178.3L165.7,178.3z M158,173.4c0.8-0.3,1.5-0.5,2.2-0.8c0,0.5,0.1,0.8,0.1,1.1c-0.8,0.3-1.6,0.6-2.3,0.8v4
		c0,1-0.5,1.5-1.4,1.5c-0.4,0-0.9,0-1.6,0c0-0.4-0.1-0.8-0.2-1.1c0.5,0.1,0.9,0.1,1.5,0.1c0.4,0,0.6-0.2,0.6-0.7v-3.4
		c-0.7,0.3-1.4,0.5-2.1,0.8l-0.3-1.1c0.8-0.3,1.7-0.5,2.5-0.8v-3.2h-2.2v-1h2.2v-2.6h1.1v2.6h2v1h-2L158,173.4L158,173.4L158,173.4z
		"/>
	<path class="st8" d="M245.1,254.8c-0.5,0.5-1.1,0.8-1.8,0.8c-0.7,0-1.3-0.2-1.8-0.7c-0.4-0.5-0.7-1.1-0.7-1.9
		c0-0.9,0.2-1.6,0.7-2.1c0.5-0.5,1.1-0.8,1.9-0.8c0.7,0,1.3,0.2,1.8,0.7c0.4,0.5,0.6,1.1,0.6,2C245.9,253.6,245.6,254.3,245.1,254.8
		z M244.4,251.5c-0.2-0.3-0.6-0.5-1-0.5c-0.5,0-0.8,0.2-1.1,0.5c-0.3,0.3-0.4,0.8-0.4,1.4c0,0.6,0.1,1,0.4,1.3
		c0.3,0.3,0.6,0.5,1,0.5c0.5,0,0.8-0.2,1.1-0.5c0.2-0.3,0.4-0.8,0.4-1.4C244.8,252.2,244.7,251.8,244.4,251.5z M236.2,255.5
		l6.8-10.7h1.1l-6.8,10.7H236.2z M237,250.2c-0.7,0-1.3-0.2-1.8-0.7c-0.4-0.5-0.7-1.1-0.7-1.9c0-0.9,0.2-1.6,0.7-2.1
		c0.5-0.5,1.1-0.8,1.9-0.8c0.8,0,1.3,0.2,1.8,0.7c0.4,0.5,0.6,1.1,0.6,2c0,0.8-0.2,1.5-0.7,2C238.4,249.9,237.7,250.2,237,250.2z
		 M238.1,246c-0.2-0.3-0.6-0.5-1-0.5c-0.5,0-0.8,0.2-1.1,0.5c-0.3,0.3-0.4,0.8-0.4,1.4c0,0.6,0.1,1,0.4,1.4c0.3,0.3,0.6,0.5,1,0.5
		c0.5,0,0.8-0.2,1.1-0.5c0.2-0.3,0.4-0.8,0.4-1.4C238.5,246.8,238.3,246.3,238.1,246z M229.9,251.8l-2.4,2.4v0h4.9v1.2h-6.4v-1.2
		l3.1-3.1c0.8-0.8,1.4-1.5,1.7-2s0.4-1,0.4-1.5c0-0.6-0.2-1.1-0.5-1.4c-0.3-0.3-0.8-0.5-1.5-0.5c-0.9,0-1.8,0.4-2.7,1.2v-1.4
		c0.8-0.6,1.8-1,2.9-1c1,0,1.7,0.3,2.3,0.8c0.6,0.5,0.8,1.2,0.8,2.1c0,0.7-0.2,1.3-0.5,1.9C231.6,250.1,230.9,250.9,229.9,251.8z
		 M223,255.6c-0.3,0-0.5-0.1-0.6-0.3c-0.2-0.2-0.3-0.4-0.3-0.6c0-0.2,0.1-0.5,0.3-0.6c0.2-0.2,0.4-0.3,0.6-0.3
		c0.3,0,0.5,0.1,0.6,0.3c0.2,0.2,0.3,0.4,0.3,0.6c0,0.2-0.1,0.4-0.3,0.6C223.4,255.5,223.2,255.6,223,255.6z M216.5,255.6
		c-1.1,0-1.9-0.4-2.5-1.3c-0.6-0.9-0.9-2.2-0.9-3.9c0-1.9,0.3-3.3,0.9-4.2c0.6-1,1.5-1.4,2.7-1.4c2.2,0,3.4,1.8,3.4,5.4
		c0,1.8-0.3,3.2-0.9,4.1C218.5,255.1,217.6,255.6,216.5,255.6z M216.7,245.8c-1.5,0-2.2,1.5-2.2,4.5c0,2.8,0.7,4.2,2.1,4.2
		c1.4,0,2.1-1.4,2.1-4.3C218.7,247.2,218,245.8,216.7,245.8z M210,256c0.2,0,0.4-0.2,0.5-0.6c0.1-0.7,0.2-1.4,0.3-2.1
		c0.4,0.2,0.7,0.3,1,0.4c-0.1,1-0.3,1.8-0.5,2.4c-0.2,0.7-0.6,1-1.1,1.1c-0.6,0-1.1-0.1-1.6-0.6c-0.6-0.4-1-1-1.4-1.8
		c-0.8,0.8-1.6,1.6-2.5,2.2c-0.2-0.3-0.5-0.5-0.8-0.8c1.1-0.7,2-1.5,2.8-2.5c-0.5-1.3-0.8-3.5-0.9-6.5h-5.2v2.1h3.9
		c-0.1,1.7-0.1,3.2-0.2,4.4c-0.1,1.3-0.7,1.9-1.8,1.9c-0.4,0-0.9,0-1.5-0.1c-0.1-0.3-0.1-0.7-0.2-1.1c0.6,0.1,1.2,0.1,1.6,0.1
		c0.5,0,0.8-0.4,0.9-1.1c0.1-0.8,0.1-1.9,0.2-3.1h-2.8c-0.1,3.2-0.7,5.5-1.9,7c-0.2-0.3-0.5-0.6-0.7-0.9c1-1.4,1.5-3.5,1.5-6.5v-3.7
		h6.2c0-0.7-0.1-1.5-0.1-2.3h1.1c0,0.6,0,1.4,0,2.3h4.7v1h-4.7c0.1,2.5,0.3,4.3,0.7,5.5c0.9-1.2,1.6-2.6,2.2-4.1l1.1,0.5
		c-0.8,1.9-1.7,3.5-2.8,4.8C208.7,255.3,209.3,256,210,256z M207.9,244.5l0.6-0.7c0.8,0.4,1.5,0.9,2.1,1.4l-0.7,0.8
		C209.3,245.5,208.6,245,207.9,244.5z M195.4,256.4h-6.1v0.7h-1v-10.6h3.5v-2.7h1v2.7h3.5v10.6h-1L195.4,256.4L195.4,256.4z
		 M191.9,247.5h-2.5v3.4h2.5V247.5z M191.9,251.8h-2.5v3.8h2.5V251.8z M195.4,247.5h-2.5v3.4h2.5V247.5z M195.4,251.8h-2.5v3.8h2.5
		V251.8z M186.4,250.2c0.5-0.2,1-0.3,1.5-0.5c0,0.3,0,0.6,0,1.1c-0.5,0.2-1,0.3-1.5,0.5v4.3c0,1-0.4,1.5-1.3,1.5c-0.3,0-0.7,0-1.2,0
		c0-0.4-0.1-0.8-0.2-1.1c0.4,0.1,0.8,0.1,1.1,0.1c0.4,0,0.5-0.2,0.5-0.6v-3.8c-0.6,0.2-1.1,0.4-1.7,0.6l-0.1-1.1
		c0.6-0.2,1.2-0.4,1.8-0.5v-3.1h-1.7v-0.9h1.7v-2.6h1v2.6h1.6v0.9h-1.6L186.4,250.2L186.4,250.2z M181.9,254.9c-0.1,1.4-0.7,2-1.9,2
		c-0.6,0-1.3,0-2.1,0c-0.1-0.3-0.1-0.7-0.2-1.1c0.7,0.1,1.4,0.1,2,0.1c0.7,0,1.1-0.4,1.1-1.2c0.1-1,0.1-2.2,0.2-3.6h-5.7l0.4-5h1
		l-0.4,4h3.2l0.5-4.5h-5v-1h6.2l-0.6,5.5h1.4C182,251.9,181.9,253.6,181.9,254.9z M180.3,253.9h-5.8v-1h5.8V253.9z M171.3,249.3h2.6
		v7.4h-1v-0.9h-1.7v1.1h-1v-5.7c-0.2,0.4-0.5,0.8-0.8,1.1c-0.1-0.3-0.3-0.6-0.6-0.9c1.1-1.5,1.9-3.3,2.4-5.3h-2v-1h5.1v1h-2
		C172.2,247.2,171.8,248.3,171.3,249.3z M171.3,254.9h1.7v-4.6h-1.7V254.9z M165.7,255.3c0,1.2-0.6,1.7-1.7,1.8c-0.6,0-1.4,0-2.4,0
		c0-0.4-0.1-0.8-0.2-1.2c1,0.1,1.8,0.1,2.3,0.1c0.6,0,0.8-0.3,0.8-1V246h-4.4v-1h7.9v1h-2.4L165.7,255.3L165.7,255.3z M158,250.4
		c0.8-0.3,1.5-0.5,2.2-0.8c0,0.5,0.1,0.8,0.1,1.1c-0.8,0.3-1.6,0.5-2.3,0.8v4c0,1-0.5,1.5-1.4,1.5c-0.4,0-0.9,0-1.6,0
		c0-0.4-0.1-0.8-0.2-1.1c0.5,0.1,0.9,0.1,1.5,0.1c0.4,0,0.6-0.2,0.6-0.7v-3.4c-0.7,0.3-1.4,0.5-2.1,0.8l-0.3-1.1
		c0.8-0.3,1.7-0.5,2.5-0.8v-3.2h-2.2v-1h2.2v-2.6h1.1v2.6h2v1h-2L158,250.4L158,250.4L158,250.4z"/>
	<path class="st8" d="M245.1,331.8c-0.5,0.5-1.1,0.8-1.8,0.8c-0.7,0-1.3-0.2-1.8-0.7c-0.4-0.5-0.7-1.1-0.7-1.9
		c0-0.9,0.2-1.6,0.7-2.1c0.5-0.5,1.1-0.8,1.9-0.8c0.7,0,1.3,0.2,1.8,0.7c0.4,0.5,0.6,1.1,0.6,2C245.9,330.6,245.6,331.2,245.1,331.8
		z M244.4,328.4c-0.2-0.3-0.6-0.5-1-0.5c-0.5,0-0.8,0.2-1.1,0.5c-0.3,0.3-0.4,0.8-0.4,1.4c0,0.6,0.1,1,0.4,1.3
		c0.3,0.3,0.6,0.5,1,0.5c0.5,0,0.8-0.2,1.1-0.5c0.2-0.3,0.4-0.8,0.4-1.4C244.8,329.2,244.7,328.7,244.4,328.4z M236.2,332.4
		l6.8-10.7h1.1l-6.8,10.7H236.2z M237,327.1c-0.7,0-1.3-0.2-1.8-0.7c-0.4-0.5-0.7-1.1-0.7-1.9c0-0.9,0.2-1.6,0.7-2.1
		c0.5-0.5,1.1-0.8,1.9-0.8c0.8,0,1.3,0.2,1.8,0.7c0.4,0.5,0.6,1.1,0.6,2c0,0.8-0.2,1.5-0.7,2C238.4,326.8,237.7,327.1,237,327.1z
		 M238.1,323c-0.2-0.3-0.6-0.5-1-0.5c-0.5,0-0.8,0.2-1.1,0.5c-0.3,0.3-0.4,0.8-0.4,1.4c0,0.6,0.1,1,0.4,1.4c0.3,0.3,0.6,0.5,1,0.5
		c0.5,0,0.8-0.2,1.1-0.5c0.2-0.3,0.4-0.8,0.4-1.4C238.5,323.8,238.3,323.3,238.1,323z M229.9,328.8l-2.4,2.4v0h4.9v1.2h-6.4v-1.2
		l3.1-3.1c0.8-0.8,1.4-1.5,1.7-2c0.3-0.5,0.4-1,0.4-1.5c0-0.6-0.2-1.1-0.5-1.4c-0.3-0.3-0.8-0.5-1.5-0.5c-0.9,0-1.8,0.4-2.7,1.2
		v-1.4c0.8-0.6,1.8-1,2.9-1c1,0,1.7,0.3,2.3,0.8c0.6,0.5,0.8,1.2,0.8,2.1c0,0.7-0.2,1.3-0.5,1.9C231.6,327,230.9,327.8,229.9,328.8z
		 M223,332.5c-0.3,0-0.5-0.1-0.6-0.3c-0.2-0.2-0.3-0.4-0.3-0.6c0-0.2,0.1-0.5,0.3-0.6c0.2-0.2,0.4-0.3,0.6-0.3
		c0.3,0,0.5,0.1,0.6,0.3c0.2,0.2,0.3,0.4,0.3,0.6c0,0.2-0.1,0.4-0.3,0.6C223.4,332.5,223.2,332.5,223,332.5z M216.5,332.6
		c-1.1,0-1.9-0.4-2.5-1.3c-0.6-0.9-0.9-2.2-0.9-3.9c0-1.9,0.3-3.3,0.9-4.2c0.6-1,1.5-1.4,2.7-1.4c2.2,0,3.4,1.8,3.4,5.4
		c0,1.8-0.3,3.2-0.9,4.1C218.5,332.1,217.6,332.6,216.5,332.6z M216.7,322.7c-1.5,0-2.2,1.5-2.2,4.5c0,2.8,0.7,4.2,2.1,4.2
		c1.4,0,2.1-1.4,2.1-4.3C218.7,324.2,218,322.7,216.7,322.7z M210,332.9c0.2,0,0.4-0.2,0.5-0.6c0.1-0.7,0.2-1.4,0.3-2.1
		c0.4,0.2,0.7,0.3,1,0.4c-0.1,1-0.3,1.8-0.5,2.4c-0.2,0.7-0.6,1-1.1,1.1c-0.6,0-1.1-0.1-1.6-0.6c-0.6-0.4-1-1-1.4-1.8
		c-0.8,0.8-1.6,1.6-2.5,2.2c-0.2-0.3-0.5-0.5-0.8-0.8c1.1-0.7,2-1.5,2.8-2.5c-0.5-1.3-0.8-3.5-0.9-6.5h-5.2v2.1h3.9
		c-0.1,1.7-0.1,3.2-0.2,4.4c-0.1,1.3-0.7,1.9-1.8,1.9c-0.4,0-0.9,0-1.5-0.1c-0.1-0.3-0.1-0.7-0.2-1.1c0.6,0.1,1.2,0.1,1.6,0.1
		c0.5,0,0.8-0.4,0.9-1.1c0.1-0.8,0.1-1.9,0.2-3.1h-2.8c-0.1,3.2-0.7,5.5-1.9,7c-0.2-0.3-0.5-0.6-0.7-0.9c1-1.4,1.5-3.5,1.5-6.5v-3.7
		h6.2c0-0.7-0.1-1.5-0.1-2.3h1.1c0,0.6,0,1.4,0,2.3h4.7v1h-4.7c0.1,2.5,0.3,4.3,0.7,5.5c0.9-1.2,1.6-2.6,2.2-4.1l1.1,0.5
		c-0.8,1.9-1.7,3.5-2.8,4.8C208.7,332.2,209.3,332.9,210,332.9z M207.9,321.5l0.6-0.7c0.8,0.4,1.5,0.9,2.1,1.4l-0.7,0.8
		C209.3,322.4,208.6,321.9,207.9,321.5z M195.4,333.4h-6.1v0.7h-1v-10.6h3.5v-2.7h1v2.7h3.5v10.6h-1L195.4,333.4L195.4,333.4z
		 M191.9,324.4h-2.5v3.4h2.5V324.4z M191.9,328.7h-2.5v3.8h2.5V328.7z M195.4,324.4h-2.5v3.4h2.5V324.4z M195.4,328.7h-2.5v3.8h2.5
		V328.7z M186.4,327.2c0.5-0.2,1-0.3,1.5-0.5c0,0.3,0,0.6,0,1.1c-0.5,0.2-1,0.3-1.5,0.5v4.3c0,1-0.4,1.5-1.3,1.5c-0.3,0-0.7,0-1.2,0
		c0-0.4-0.1-0.8-0.2-1.1c0.4,0.1,0.8,0.1,1.1,0.1c0.4,0,0.5-0.2,0.5-0.6v-3.8c-0.6,0.2-1.1,0.4-1.7,0.6l-0.1-1.1
		c0.6-0.2,1.2-0.4,1.8-0.5v-3.1h-1.7v-0.9h1.7v-2.6h1v2.6h1.6v0.9h-1.6L186.4,327.2L186.4,327.2z M181.9,331.9c-0.1,1.4-0.7,2-1.9,2
		c-0.6,0-1.3,0-2.1,0c-0.1-0.3-0.1-0.7-0.2-1.1c0.7,0.1,1.4,0.1,2,0.1c0.7,0,1.1-0.4,1.1-1.2c0.1-1,0.1-2.2,0.2-3.6h-5.7l0.4-5h1
		l-0.4,4h3.2l0.5-4.5h-5v-1h6.2l-0.6,5.5h1.4C182,328.9,181.9,330.5,181.9,331.9z M180.3,330.9h-5.8v-1h5.8V330.9z M171.3,326.2h2.6
		v7.4h-1v-0.9h-1.7v1.1h-1v-5.7c-0.2,0.4-0.5,0.8-0.8,1.1c-0.1-0.3-0.3-0.6-0.6-0.9c1.1-1.5,1.9-3.3,2.4-5.3h-2v-1h5.1v1h-2
		C172.2,324.2,171.8,325.3,171.3,326.2z M171.3,331.8h1.7v-4.6h-1.7V331.8z M165.7,332.2c0,1.2-0.6,1.7-1.7,1.8c-0.6,0-1.4,0-2.4,0
		c0-0.4-0.1-0.8-0.2-1.2c1,0.1,1.8,0.1,2.3,0.1c0.6,0,0.8-0.3,0.8-1V323h-4.4v-1h7.9v1h-2.4L165.7,332.2L165.7,332.2z M158,327.4
		c0.8-0.3,1.5-0.5,2.2-0.8c0,0.5,0.1,0.8,0.1,1.1c-0.8,0.3-1.6,0.5-2.3,0.8v4c0,1-0.5,1.5-1.4,1.5c-0.4,0-0.9,0-1.6,0
		c0-0.4-0.1-0.8-0.2-1.1c0.5,0.1,0.9,0.1,1.5,0.1c0.4,0,0.6-0.2,0.6-0.7v-3.4c-0.7,0.3-1.4,0.5-2.1,0.8l-0.3-1.1
		c0.8-0.3,1.7-0.5,2.5-0.8v-3.2h-2.2v-1h2.2v-2.6h1.1v2.6h2v1h-2L158,327.4L158,327.4L158,327.4z"/>
	<path class="st9" d="M478.8,147.3c-0.5,0.5-1.1,0.8-1.8,0.8c-0.7,0-1.3-0.2-1.8-0.7c-0.4-0.5-0.7-1.1-0.7-1.9
		c0-0.9,0.2-1.6,0.7-2.1c0.5-0.5,1.1-0.8,1.9-0.8c0.7,0,1.3,0.2,1.8,0.7c0.4,0.5,0.6,1.1,0.6,2C479.5,146.1,479.3,146.8,478.8,147.3
		z M478.1,143.9c-0.2-0.3-0.6-0.5-1-0.5c-0.5,0-0.8,0.2-1.1,0.5c-0.3,0.3-0.4,0.8-0.4,1.4c0,0.6,0.1,1,0.4,1.3
		c0.3,0.3,0.6,0.5,1,0.5c0.5,0,0.8-0.2,1.1-0.5s0.4-0.8,0.4-1.4C478.5,144.7,478.4,144.2,478.1,143.9z M469.9,148l6.8-10.7h1.1
		L471,148H469.9z M470.6,142.6c-0.7,0-1.3-0.2-1.8-0.7c-0.4-0.5-0.7-1.1-0.7-1.9c0-0.9,0.2-1.6,0.7-2.1c0.5-0.5,1.1-0.8,1.9-0.8
		c0.8,0,1.3,0.2,1.8,0.7c0.4,0.5,0.6,1.1,0.6,2c0,0.8-0.2,1.5-0.7,2S471.4,142.6,470.6,142.6z M471.8,138.5c-0.2-0.3-0.6-0.5-1-0.5
		c-0.5,0-0.8,0.2-1.1,0.5c-0.3,0.3-0.4,0.8-0.4,1.4c0,0.6,0.1,1,0.4,1.4c0.3,0.3,0.6,0.5,1,0.5c0.5,0,0.8-0.2,1.1-0.5
		c0.2-0.3,0.4-0.8,0.4-1.4C472.1,139.3,472,138.8,471.8,138.5z M466.4,145.2c0,0.9-0.3,1.6-1,2.1c-0.6,0.5-1.5,0.8-2.7,0.8
		c-0.9,0-1.7-0.3-2.3-0.8c-0.6-0.5-0.9-1.2-0.9-2c0-1.4,0.8-2.3,2.3-2.9v0c-1.3-0.6-1.9-1.4-1.9-2.6c0-0.8,0.3-1.4,0.9-1.9
		c0.6-0.5,1.3-0.7,2.3-0.7c0.8,0,1.5,0.2,2.1,0.7s0.8,1.1,0.8,1.8c0,1.2-0.7,2.1-2,2.7v0C465.6,142.9,466.4,143.9,466.4,145.2z
		 M464.7,139.8c0-0.5-0.1-0.8-0.4-1.1s-0.7-0.4-1.2-0.4c-0.5,0-0.9,0.1-1.2,0.4c-0.3,0.3-0.5,0.6-0.5,1.1c0,0.9,0.6,1.6,1.7,2
		C464.1,141.3,464.7,140.6,464.7,139.8z M462.9,143c-1.3,0.5-2,1.3-2,2.3c0,0.5,0.2,0.9,0.6,1.3c0.4,0.3,0.9,0.5,1.5,0.5
		c0.6,0,1.1-0.2,1.5-0.5c0.4-0.3,0.6-0.7,0.6-1.2C465,144.2,464.3,143.5,462.9,143z M454.1,148.1c-1.1,0-1.9-0.4-2.5-1.3
		c-0.6-0.9-0.9-2.2-0.9-3.9c0-1.9,0.3-3.3,0.9-4.2c0.6-1,1.5-1.4,2.7-1.4c2.2,0,3.4,1.8,3.4,5.4c0,1.8-0.3,3.2-0.9,4.1
		C456.1,147.6,455.2,148.1,454.1,148.1z M454.3,138.2c-1.5,0-2.2,1.5-2.2,4.5c0,2.8,0.7,4.2,2.1,4.2c1.4,0,2.1-1.4,2.1-4.3
		C456.3,139.7,455.6,138.2,454.3,138.2z M447.9,148.1c-0.3,0-0.5-0.1-0.6-0.3c-0.2-0.2-0.3-0.4-0.3-0.6c0-0.2,0.1-0.5,0.3-0.6
		s0.4-0.3,0.6-0.3c0.3,0,0.5,0.1,0.6,0.3c0.2,0.2,0.3,0.4,0.3,0.6c0,0.2-0.1,0.4-0.3,0.6C448.3,148,448.1,148.1,447.9,148.1z
		 M441.4,148.1c-1.1,0-1.9-0.4-2.5-1.3c-0.6-0.9-0.9-2.2-0.9-3.9c0-1.9,0.3-3.3,0.9-4.2c0.6-1,1.5-1.4,2.7-1.4
		c2.2,0,3.4,1.8,3.4,5.4c0,1.8-0.3,3.2-0.9,4.1C443.4,147.6,442.5,148.1,441.4,148.1z M441.6,138.2c-1.5,0-2.2,1.5-2.2,4.5
		c0,2.8,0.7,4.2,2.1,4.2c1.4,0,2.1-1.4,2.1-4.3C443.6,139.7,442.9,138.2,441.6,138.2z M434.9,148.4c0.2,0,0.4-0.2,0.5-0.6
		c0.1-0.7,0.2-1.3,0.3-2.1c0.4,0.2,0.7,0.3,1,0.4c-0.1,1-0.3,1.8-0.5,2.4c-0.2,0.7-0.6,1-1.1,1.1c-0.6,0-1.1-0.1-1.6-0.6
		c-0.6-0.4-1-1-1.4-1.8c-0.8,0.8-1.6,1.6-2.5,2.2c-0.2-0.3-0.5-0.5-0.8-0.8c1.1-0.7,2-1.5,2.8-2.5c-0.5-1.3-0.8-3.5-0.9-6.5h-5.2
		v2.1h3.9c-0.1,1.7-0.1,3.2-0.2,4.4c-0.1,1.3-0.7,1.9-1.8,1.9c-0.4,0-0.9,0-1.5-0.1c-0.1-0.3-0.1-0.7-0.2-1.1
		c0.6,0.1,1.2,0.1,1.6,0.1c0.5,0,0.8-0.4,0.9-1.1c0.1-0.8,0.1-1.9,0.2-3.1h-2.8c-0.1,3.2-0.7,5.5-1.9,7c-0.2-0.3-0.5-0.6-0.7-0.9
		c1-1.4,1.5-3.5,1.5-6.5v-3.7h6.2c0-0.7-0.1-1.5-0.1-2.3h1.1c0,0.6,0,1.4,0,2.3h4.7v1h-4.7c0.1,2.5,0.3,4.3,0.7,5.5
		c0.9-1.2,1.6-2.6,2.2-4.1l1.1,0.5c-0.8,1.9-1.7,3.5-2.8,4.8C433.6,147.7,434.2,148.4,434.9,148.4z M432.8,137l0.6-0.7
		c0.8,0.4,1.5,0.9,2.1,1.4l-0.7,0.8C434.2,138,433.5,137.5,432.8,137z M420.3,148.9h-6.1v0.7h-1V139h3.5v-2.7h1v2.7h3.5v10.6h-1
		V148.9z M416.8,139.9h-2.5v3.4h2.5V139.9z M416.8,144.2h-2.5v3.8h2.5V144.2z M420.3,139.9h-2.5v3.4h2.5V139.9z M420.3,144.2h-2.5
		v3.8h2.5V144.2z M411.3,142.7c0.5-0.2,1-0.3,1.5-0.5c0,0.3,0,0.6,0,1.1c-0.5,0.2-1,0.3-1.5,0.5v4.3c0,1-0.4,1.5-1.3,1.5
		c-0.3,0-0.7,0-1.2,0c0-0.4-0.1-0.8-0.2-1.1c0.4,0.1,0.8,0.1,1.1,0.1c0.4,0,0.5-0.2,0.5-0.6v-3.8c-0.6,0.2-1.1,0.4-1.7,0.6l-0.1-1.1
		c0.6-0.2,1.2-0.4,1.8-0.5v-3.1h-1.7V139h1.7v-2.6h1v2.6h1.6v0.9h-1.6L411.3,142.7L411.3,142.7z M406.8,147.4c-0.1,1.4-0.7,2-1.9,2
		c-0.6,0-1.3,0-2.1,0c-0.1-0.3-0.1-0.7-0.2-1.1c0.7,0.1,1.4,0.1,2,0.1c0.7,0,1.1-0.4,1.1-1.2c0.1-1,0.1-2.2,0.2-3.6h-5.7l0.4-5h1
		l-0.4,4h3.2l0.5-4.5h-5v-1h6.2l-0.6,5.5h1.4C406.9,144.4,406.8,146,406.8,147.4z M405.2,146.4h-5.8v-1h5.8V146.4z M396.3,141.8h2.6
		v7.4h-1v-0.9h-1.7v1.1h-1v-5.7c-0.2,0.4-0.5,0.8-0.8,1.1c-0.1-0.3-0.3-0.6-0.6-0.9c1.1-1.5,1.9-3.3,2.4-5.3h-2v-1h5.1v1h-2
		C397.1,139.7,396.7,140.8,396.3,141.8z M396.2,147.3h1.7v-4.6h-1.7V147.3z M390.6,147.7c0,1.2-0.6,1.7-1.7,1.8c-0.6,0-1.4,0-2.4,0
		c0-0.4-0.1-0.8-0.2-1.2c1,0.1,1.8,0.1,2.3,0.1c0.6,0,0.8-0.3,0.8-1v-8.9h-4.4v-1h7.9v1h-2.4V147.7z M382.9,142.9
		c0.8-0.3,1.5-0.5,2.2-0.8c0,0.5,0.1,0.8,0.1,1.1c-0.8,0.3-1.6,0.6-2.3,0.8v4c0,1-0.5,1.5-1.4,1.5c-0.4,0-0.9,0-1.6,0
		c0-0.4-0.1-0.8-0.2-1.1c0.5,0.1,0.9,0.1,1.5,0.1c0.4,0,0.6-0.2,0.6-0.7v-3.4c-0.7,0.3-1.4,0.5-2.1,0.8l-0.3-1.1
		c0.8-0.3,1.7-0.5,2.5-0.8v-3.2h-2.2v-1h2.2v-2.6h1.1v2.6h2v1h-2L382.9,142.9L382.9,142.9L382.9,142.9z"/>
	<path class="st10" d="M547.1,224.6c-0.5,0.5-1.1,0.8-1.8,0.8c-0.7,0-1.3-0.2-1.8-0.7c-0.4-0.5-0.7-1.1-0.7-1.9
		c0-0.9,0.2-1.6,0.7-2.1s1.1-0.8,1.9-0.8c0.7,0,1.3,0.2,1.8,0.7c0.4,0.5,0.6,1.1,0.6,2C547.8,223.5,547.5,224.1,547.1,224.6z
		 M546.4,221.3c-0.2-0.3-0.6-0.5-1-0.5c-0.5,0-0.8,0.2-1.1,0.5c-0.3,0.3-0.4,0.8-0.4,1.4c0,0.6,0.1,1,0.4,1.3c0.3,0.3,0.6,0.5,1,0.5
		c0.5,0,0.8-0.2,1.1-0.5c0.2-0.3,0.4-0.8,0.4-1.4C546.7,222,546.6,221.6,546.4,221.3z M538.1,225.3l6.8-10.7h1.1l-6.8,10.7H538.1z
		 M538.9,220c-0.7,0-1.3-0.2-1.8-0.7c-0.4-0.5-0.7-1.1-0.7-1.9c0-0.9,0.2-1.6,0.7-2.1s1.1-0.8,1.9-0.8c0.8,0,1.3,0.2,1.8,0.7
		s0.6,1.1,0.6,2c0,0.8-0.2,1.5-0.7,2C540.3,219.7,539.7,220,538.9,220z M540,215.9c-0.2-0.3-0.6-0.5-1-0.5c-0.5,0-0.8,0.2-1.1,0.5
		c-0.3,0.3-0.4,0.8-0.4,1.4c0,0.6,0.1,1,0.4,1.4c0.3,0.3,0.6,0.5,1,0.5c0.5,0,0.8-0.2,1.1-0.5s0.4-0.8,0.4-1.4
		C540.4,216.6,540.3,216.2,540,215.9z M531.8,221.7l-2.4,2.4v0h4.9v1.2h-6.4v-1.2l3.1-3.1c0.8-0.8,1.4-1.5,1.7-2
		c0.3-0.5,0.4-1,0.4-1.5c0-0.6-0.2-1.1-0.5-1.4c-0.3-0.3-0.8-0.5-1.5-0.5c-0.9,0-1.8,0.4-2.7,1.2v-1.4c0.8-0.6,1.8-1,2.9-1
		c1,0,1.7,0.3,2.3,0.8s0.8,1.2,0.8,2.1c0,0.7-0.2,1.3-0.5,1.9C533.5,219.9,532.8,220.7,531.8,221.7z M522.4,225.4
		c-1.1,0-1.9-0.4-2.5-1.3c-0.6-0.9-0.9-2.2-0.9-3.9c0-1.9,0.3-3.3,0.9-4.2c0.6-1,1.5-1.4,2.7-1.4c2.2,0,3.4,1.8,3.4,5.4
		c0,1.8-0.3,3.2-0.9,4.1C524.4,225,523.5,225.4,522.4,225.4z M522.5,215.6c-1.5,0-2.2,1.5-2.2,4.5c0,2.8,0.7,4.2,2.1,4.2
		c1.4,0,2.1-1.4,2.1-4.3C524.6,217.1,523.9,215.6,522.5,215.6z M516.1,225.4c-0.3,0-0.5-0.1-0.6-0.3c-0.2-0.2-0.3-0.4-0.3-0.6
		c0-0.2,0.1-0.5,0.3-0.6c0.2-0.2,0.4-0.3,0.6-0.3c0.3,0,0.5,0.1,0.6,0.3s0.3,0.4,0.3,0.6c0,0.2-0.1,0.4-0.3,0.6
		C516.6,225.3,516.4,225.4,516.1,225.4z M509.7,225.4c-1.1,0-1.9-0.4-2.5-1.3c-0.6-0.9-0.9-2.2-0.9-3.9c0-1.9,0.3-3.3,0.9-4.2
		c0.6-1,1.5-1.4,2.7-1.4c2.2,0,3.4,1.8,3.4,5.4c0,1.8-0.3,3.2-0.9,4.1C511.7,225,510.8,225.4,509.7,225.4z M509.8,215.6
		c-1.5,0-2.2,1.5-2.2,4.5c0,2.8,0.7,4.2,2.1,4.2c1.4,0,2.1-1.4,2.1-4.3C511.9,217.1,511.2,215.6,509.8,215.6z M503.1,225.8
		c0.2,0,0.4-0.2,0.5-0.6c0.1-0.7,0.2-1.3,0.3-2.1c0.4,0.2,0.7,0.3,1,0.4c-0.1,1-0.3,1.8-0.5,2.4c-0.2,0.7-0.6,1-1.1,1.1
		c-0.6,0-1.1-0.1-1.6-0.6c-0.6-0.4-1-1-1.4-1.8c-0.8,0.8-1.6,1.6-2.5,2.2c-0.2-0.3-0.5-0.5-0.8-0.8c1.1-0.7,2-1.5,2.8-2.5
		c-0.5-1.3-0.8-3.5-0.9-6.5h-5.2v2.1h3.9c-0.1,1.7-0.1,3.2-0.2,4.4c-0.1,1.3-0.7,1.9-1.8,1.9c-0.4,0-0.9,0-1.5-0.1
		c-0.1-0.3-0.1-0.7-0.2-1.1c0.6,0.1,1.2,0.1,1.6,0.1c0.5,0,0.8-0.4,0.9-1.1c0.1-0.8,0.1-1.9,0.2-3.1h-2.8c-0.1,3.2-0.7,5.5-1.9,7
		c-0.2-0.3-0.5-0.6-0.7-0.9c1-1.4,1.5-3.5,1.5-6.5V216h6.2c0-0.7-0.1-1.5-0.1-2.3h1.1c0,0.6,0,1.4,0,2.3h4.7v1h-4.7
		c0.1,2.5,0.3,4.3,0.7,5.5c0.9-1.2,1.6-2.6,2.2-4.1l1.1,0.5c-0.8,1.9-1.7,3.5-2.8,4.8C501.8,225.1,502.5,225.8,503.1,225.8z
		 M501,214.4l0.6-0.7c0.8,0.4,1.5,0.9,2.1,1.4l-0.7,0.8C502.4,215.3,501.7,214.8,501,214.4z M488.6,226.3h-6.1v0.7h-1v-10.6h3.5
		v-2.7h1v2.7h3.5v10.6h-1V226.3z M485,217.3h-2.5v3.4h2.5V217.3z M485,221.6h-2.5v3.8h2.5V221.6z M488.6,217.3H486v3.4h2.5V217.3z
		 M488.6,221.6H486v3.8h2.5V221.6z M479.5,220.1c0.5-0.2,1-0.3,1.5-0.5c0,0.3,0,0.6,0,1.1c-0.5,0.2-1,0.3-1.5,0.5v4.3
		c0,1-0.4,1.5-1.3,1.5c-0.3,0-0.7,0-1.2,0c0-0.4-0.1-0.8-0.2-1.1c0.4,0.1,0.8,0.1,1.1,0.1c0.4,0,0.5-0.2,0.5-0.6v-3.8
		c-0.6,0.2-1.1,0.4-1.7,0.6l-0.1-1.1c0.6-0.2,1.2-0.4,1.8-0.5v-3.1h-1.7v-0.9h1.7v-2.6h1v2.6h1.6v0.9h-1.6L479.5,220.1L479.5,220.1z
		 M475,224.7c-0.1,1.4-0.7,2-1.9,2c-0.6,0-1.3,0-2.1,0c-0.1-0.3-0.1-0.7-0.2-1.1c0.7,0.1,1.4,0.1,2,0.1c0.7,0,1.1-0.4,1.1-1.2
		c0.1-1,0.1-2.2,0.2-3.6h-5.7l0.4-5h1l-0.4,4h3.2l0.5-4.5h-5v-1h6.2l-0.6,5.5h1.4C475.2,221.8,475.1,223.4,475,224.7z M473.5,223.7
		h-5.8v-1h5.8V223.7z M464.5,219.1h2.6v7.4h-1v-0.9h-1.7v1.1h-1V221c-0.2,0.4-0.5,0.8-0.8,1.1c-0.1-0.3-0.3-0.6-0.6-0.9
		c1.1-1.5,1.9-3.3,2.4-5.3h-2v-1h5.1v1h-2C465.3,217.1,464.9,218.1,464.5,219.1z M464.5,224.7h1.7v-4.6h-1.7V224.7z M458.9,225.1
		c0,1.2-0.6,1.7-1.7,1.8c-0.6,0-1.4,0-2.4,0c0-0.4-0.1-0.8-0.2-1.2c1,0.1,1.8,0.1,2.3,0.1c0.6,0,0.8-0.3,0.8-1v-8.9h-4.4v-1h7.9v1
		h-2.4V225.1z M451.1,220.2c0.8-0.3,1.5-0.5,2.2-0.8c0,0.5,0.1,0.8,0.1,1.1c-0.8,0.3-1.6,0.6-2.3,0.8v4c0,1-0.5,1.5-1.4,1.5
		c-0.4,0-0.9,0-1.6,0c0-0.4-0.1-0.8-0.2-1.1c0.5,0.1,0.9,0.1,1.5,0.1c0.4,0,0.6-0.2,0.6-0.7v-3.4c-0.7,0.3-1.4,0.5-2.1,0.8l-0.3-1.1
		c0.8-0.3,1.7-0.5,2.5-0.8v-3.2h-2.2v-1h2.2v-2.6h1.1v2.6h2v1h-2L451.1,220.2L451.1,220.2L451.1,220.2z"/>
</g>
</svg>
