<svg id="组_5" data-name="组 5" xmlns="http://www.w3.org/2000/svg" xmlns:xlink="http://www.w3.org/1999/xlink" width="286.813" height="181.594" viewBox="0 0 286.813 181.594">
  <metadata><?xpacket begin="﻿" id="W5M0MpCehiHzreSzNTczkc9d"?>
<x:xmpmeta xmlns:x="adobe:ns:meta/" x:xmptk="Adobe XMP Core 5.6-c138 79.159824, 2016/09/14-01:09:01        ">
   <rdf:RDF xmlns:rdf="http://www.w3.org/1999/02/22-rdf-syntax-ns#">
      <rdf:Description rdf:about=""/>
   </rdf:RDF>
</x:xmpmeta>
                                                                                                    
                                                                                                    
                                                                                                    
                                                                                                    
                                                                                                    
                                                                                                    
                                                                                                    
                                                                                                    
                                                                                                    
                                                                                                    
                                                                                                    
                                                                                                    
                                                                                                    
                                                                                                    
                                                                                                    
                                                                                                    
                                                                                                    
                                                                                                    
                                                                                                    
                                                                                                    
                           
<?xpacket end="w"?></metadata>
<defs>
    <style>
      .cls-1, .cls-2, .cls-3, .cls-4 {
        fill-rule: evenodd;
      }

      .cls-1 {
        fill: url(#linear-gradient);
      }

      .cls-2 {
        fill: url(#linear-gradient-2);
      }

      .cls-3 {
        fill: url(#linear-gradient-3);
      }

      .cls-4 {
        fill: url(#linear-gradient-4);
      }
    </style>
    <linearGradient id="linear-gradient" x1="479" y1="236.016" x2="641.906" y2="236.016" gradientUnits="userSpaceOnUse">
      <stop offset="0" stop-color="#191919"/>
      <stop offset="0.304" stop-color="#222"/>
      <stop offset="0.57" stop-color="#5d5d5d"/>
      <stop offset="0.768" stop-color="#7f7f7f"/>
      <stop offset="0.78" stop-color="#393838"/>
      <stop offset="0.943" stop-color="#1d1d1c"/>
      <stop offset="1" stop-color="#1d1d1c"/>
    </linearGradient>
    <linearGradient id="linear-gradient-2" x1="635.375" y1="304.969" x2="635.375" y2="285.344" gradientUnits="userSpaceOnUse">
      <stop offset="0" stop-color="#1c1b1b"/>
      <stop offset="0.422" stop-color="#565656"/>
      <stop offset="0.511" stop-color="#888787"/>
      <stop offset="0.995" stop-color="#5a5959"/>
      <stop offset="1" stop-color="#5a5959"/>
    </linearGradient>
    <linearGradient id="linear-gradient-3" x1="636.875" y1="240.973" x2="755.188" y2="230.621" gradientUnits="userSpaceOnUse">
      <stop offset="0" stop-color="#f13c3c"/>
      <stop offset="0.225" stop-color="#ac2d2d"/>
      <stop offset="0.553" stop-color="#f13c3c"/>
      <stop offset="1" stop-color="#f33636"/>
    </linearGradient>
    <linearGradient id="linear-gradient-4" x1="649.031" y1="283" x2="765.813" y2="272.782" gradientUnits="userSpaceOnUse">
      <stop offset="0" stop-color="#f13c3c"/>
      <stop offset="1" stop-color="#f33636"/>
    </linearGradient>
  </defs>
  <path id="形状_8" data-name="形状 8" class="cls-1" d="M630.35,246.292l-9.858,8.211,0.9-1.374h0.381v-0.582l8.576-13.063V158.708l6.538-10.1v80.913l5.006-7.623-0.319-76.35-2.7-.009,0.059-.091-8.585.076v-0.015l-18.395-.061,0.012,0.039-10.105-.039L493.489,309.912l-0.076.048L486.5,320.516l-7.49,6.069,51.968,0.006-4.8-4.546,57.925-91.433,21.375-33.5,13.454-20.78,0.369,20.775-0.182,30.116h-16.63l-19.312,25.9h35.957l0,2.62L619,280.5H630.35v-34.21Zm-11.638,76.087-4.61,4.212H630.35V308.6H618.792Z" transform="translate(-479 -145)"/>
  <path id="形状_8-2" data-name="形状 8" class="cls-2" d="M565.126,301.263h-7.851l-0.919,3.2h-4.488l5.542-19.11h7.738l5.361,19.11h-4.485Zm-0.762-2.753-3.1-10.986-3.185,10.986h6.282Zm7.379-13.162h4.488v7.518h2.6l3.141-7.518h4.621l-3.9,8.536,3.1,7.821h1.3l-0.718,2.753h-2.131a2.4,2.4,0,0,1-1.648-.564,4.206,4.206,0,0,1-1.065-1.61l-2.648-6.666h-2.647v8.84h-4.488v-19.11Zm16.871,0h4.845l3.97,16.329,3.994-16.329h4.845l-5.047,19.11h-7.56ZM608,304.458v-2.753h2.355V288.1H608v-2.752h9.038V288.1h-2.2v13.6h2.2v2.753H608Zm11.395-19.11H632.18a2.2,2.2,0,0,1,1.748.909,3.328,3.328,0,0,1,.719,2.175v6.332a3.333,3.333,0,0,1-.719,2.176,2.2,2.2,0,0,1-1.748.91h-8.3v6.608h-4.486v-19.11Zm10.768,9.748v-7h-6.282v7h6.282Zm9.378,9.362a2.2,2.2,0,0,1-1.75-.909,3.329,3.329,0,0,1-.72-2.175v-3.443a3.651,3.651,0,0,1,.618-2.147,2.025,2.025,0,0,1,1.6-.936,2.037,2.037,0,0,1-1.165-.908,3.185,3.185,0,0,1-.472-1.792v-3.69a3.331,3.331,0,0,1,.717-2.175,2.207,2.207,0,0,1,1.75-.908h7.313a2.205,2.205,0,0,1,1.75.908,3.331,3.331,0,0,1,.718,2.175v3.69a3.182,3.182,0,0,1-.448,1.764,2.247,2.247,0,0,1-1.189.936,2.029,2.029,0,0,1,1.6.936,3.657,3.657,0,0,1,.616,2.147v3.443a3.328,3.328,0,0,1-.718,2.175,2.194,2.194,0,0,1-1.75.909h-8.478Zm6.774-2.753v-5.48h-5.07v5.48h5.07Zm-0.583-8.233v-5.343h-3.9v5.343h3.9Zm13.369,8.893a2.966,2.966,0,0,1-.605,1.845,1.873,1.873,0,0,1-3.029,0,2.831,2.831,0,0,1-.628-1.845,2.875,2.875,0,0,1,.628-1.873,1.952,1.952,0,0,1,1.5-.743,1.884,1.884,0,0,1,1.513.758A2.842,2.842,0,0,1,659.1,302.365Zm18.237,2.093H666.455a2.192,2.192,0,0,1-1.749-.909,3.317,3.317,0,0,1-.719-2.175V288.458a3.321,3.321,0,0,1,.719-2.175,2.223,2.223,0,0,1,1.749-.935h10.723V288.1h-8.705v13.6h8.861v2.753Zm3.006-16.026a3.328,3.328,0,0,1,.719-2.175,2.2,2.2,0,0,1,1.751-.909h10.228a2.2,2.2,0,0,1,1.75.909,3.327,3.327,0,0,1,.717,2.175v12.942a3.327,3.327,0,0,1-.717,2.175,2.2,2.2,0,0,1-1.75.909H682.81a2.2,2.2,0,0,1-1.751-.909,3.328,3.328,0,0,1-.719-2.175V288.432Zm4.488,13.273h6.191V288.1h-6.191v13.6Zm29.567,2.753v-16.55l-2.672,15.943H705.2l-2.69-15.97v16.577h-4.487v-19.11h8.435l2,14.32,2.019-14.32h8.413v19.11H714.4Z" transform="translate(-479 -145)"/>
  <path id="形状_8-3" data-name="形状 8" class="cls-3" d="M636.884,326.591h5.879l0.061-4.212V308.6h-5.94v17.993Zm18.684-181.6h-6.54v68.622l6.54-10.271V144.993Zm0,163.605h-6.54v17.986h11.211l-4.671-4.2V308.6Zm-18.684-39.032V280.5h5.94V235.9l-5.94,4.946v28.717ZM669.821,197L650.49,222.022A122.316,122.316,0,0,1,684.4,229.6a1.1,1.1,0,0,1,.03-0.152L724.9,181.4l30.281-35.951-52.262.174c1.686,2.08,2.546,3.528,2.546,4.334a2.872,2.872,0,0,1-.776,1.9Z" transform="translate(-479 -145)"/>
  <path id="形状_8-4" data-name="形状 8" class="cls-4" d="M760.249,321.224c-0.006-.185-0.01-0.358-0.016-0.54,0.06-1.317.1-2.639,0.1-3.968,0-2.409-.124-4.787-0.315-7.146a87.533,87.533,0,0,0-87.26-80.382c-1,0-1.986.042-2.976,0.076a87.492,87.492,0,0,0-20.116,3.021l-0.639.226V280.5h6.54V238.429l17.678,18.4,0.662,0.675a59.245,59.245,0,0,1,58.124,59.212c0,0.708-.03,1.411-0.054,2.114a11.542,11.542,0,0,1-2.292,4.908c-0.895,1.069-1.737,2.012-2.521,2.851H765.8C765.745,324.7,760.289,322.913,760.249,321.224Z" transform="translate(-479 -145)"/>
</svg>
