<?xml version="1.0" encoding="utf-8"?>
<!-- Generator: Adobe Illustrator 21.1.0, SVG Export Plug-In . SVG Version: 6.00 Build 0)  -->
<svg version="1.1" id="图层_1" xmlns="http://www.w3.org/2000/svg" xmlns:xlink="http://www.w3.org/1999/xlink" x="0px" y="0px"
	 viewBox="0 0 1024 1024" style="enable-background:new 0 0 1024 1024;" xml:space="preserve">
<style type="text/css">
	.st0{fill:#EFB76D;}
	.st1{fill:url(#SVGID_1_);}
	.st2{fill:url(#SVGID_2_);}
	.st3{fill:url(#SVGID_3_);}
	.st4{fill:url(#SVGID_4_);}
	.st5{fill:url(#SVGID_5_);}
</style>
<polygon class="st0" points="951.1,654.9 72,654.3 72.1,635.5 951.1,636.1 "/>
<path class="st0" d="M181.3,527.4c15.6,16.1,29.1,32.7,30.4,34c-10.8,11.4-31.9,32.5-32.3,33c-17.5-20.5-38.7-42.6-30.4-34.1
	C158.9,549.7,171.4,538.1,181.3,527.4z"/>
<path class="st0" d="M136.5,569.2c-2.7,9.9-13,16.1-31,8.1c0,0,0,0,0-0.1c0.1-0.1,0.1-0.2,0,0l0,0c-0.1,0.1-0.2,0.2,0,0l0,0
	c5.1,12,10.9,8.4,23.8,13.2c0.6,0,1.1,0,1.7,0c0,1.1,0,2.3-0.1,3.4c-18.3,0-36.7,0-55,0c-0.3-1.4,0.3-2.9,0.1-4.3
	c12.7-1.3,20-0.8,25.1-12.5c-6,1.7-14.4,4.8-21.5,0.4c-4.1-2-5.7-4.6-7.6-8.7c2.2-18.5,23.6-29,31.7-44.1
	C111.2,532.1,139.1,559.3,136.5,569.2z"/>
<path class="st0" d="M808.2,531.9c2.9-1.7,8.7-3.6,11.2-4.1c7.7,0.4,13.5,3,16.2,8.9l0,0c2.9-5.8,8.7-8.2,16.4-8.3
	c2.6,0.6,8.2,2.7,11,4.5c18,17.4-14.1,34.8-23,52c-3.1,6.4-5.3,9.4-5.3,9.4s-2.1-3-5-9.5C821.2,567.1,789.7,548.7,808.2,531.9z"/>
<path class="st0" d="M889.2,553.2c5.2-3.1,9.8-2.2,15.5,1.2c0.3,0,0.6,0,0.9,0c-3.3-12.7-5.7-23.5,8.2-27.3
	c8.4-1.2,12.5-0.4,17.1,7.2c3.6,8.5,0.7,12.7-2.9,18.8c10.4,1.3,18.8-2.7,23.1,8.2c3,13.5-1.6,22-15,21.2
	c-5.7-0.4-10.6-3.4-12.7-9.7c-0.8-0.6-1.7-1.2-2.5-1.8c-3,0-2.3,5.5-1,10.3c3.6,8.4,11.9,11.2,24.7,10.8c0.3,0.6-0.3,2.9-0.1,3.4
	c-9.4-0.2-44.8-0.5-55.9-0.9c-0.3-1.1,0.3-2.4,0.1-3.5c17.5,1,26.7-6,26.9-16.7c-1.1-3.4-1.2-3.5-2.5-2.6c-5.9,5-7.1,14.1-25,7.3
	C877.1,573,881.4,558.2,889.2,553.2z"/>
<g>
	<path class="st0" d="M172.3,791.2h-23.7l-7.6-23.4h-37.1l-7.5,23.4H72.8l37.3-102h25.5L172.3,791.2z M135.8,751.1l-11.6-35.4
		c-0.7-2.2-1.3-5.2-1.6-8.9H122c-0.3,3-0.9,5.9-1.8,8.6L108.5,751L135.8,751.1L135.8,751.1z"/>
	<path class="st0" d="M268.4,791.2h-27.5L210,746.6c-0.8-1.1-1.7-2.9-2.7-5.3H207v49.9h-21.7v-102H207v48.2h0.3
		c1-2.1,1.9-3.9,2.9-5.5l29.2-42.7h25.9l-36.5,48.7L268.4,791.2z"/>
	<path class="st0" d="M362.4,689.2l-35.4,102h-24.6l-35-102H291l22.1,72.1c1.1,3.6,1.8,6.9,2,10.1h0.4c0.4-3.2,1.1-6.7,2.2-10.3
		l22.1-71.8L362.4,689.2L362.4,689.2z"/>
	<path class="st0" d="M405.3,706.2h-8.8v68.2h8.8v16.8h-39.1v-16.9h8.6v-68.1h-8.6v-17h39.1V706.2z"/>
	<path class="st0" d="M441.9,755.7v35.5h-21.7v-102h35.1c25.4,0,38.1,10.8,38.1,32.3c0,10.4-3.8,18.8-11.5,25.1
		c-7.7,6.3-17.2,9.3-28.7,9.1L441.9,755.7L441.9,755.7z M441.9,706.1V739h9.4c12.8,0,19.2-5.6,19.2-16.7c0-10.8-6.3-16.3-19-16.3
		L441.9,706.1L441.9,706.1L441.9,706.1z"/>
	<path class="st0" d="M523.7,737.8c-11.8-4.9-17.6-12.7-17.6-23.4c0-8.1,3.2-14.6,9.6-19.5c6.4-4.9,14.3-7.4,23.7-7.4
		c9.5,0,17.3,2.3,23.4,6.9c6.1,4.6,9.2,10.8,9.2,18.5c0,11.2-6.4,19.4-19.3,24.8v0.3c6.9,2.1,12.3,5.4,16.2,10.1
		c3.8,4.7,5.8,10,5.8,15.9c0,9.3-3.4,16.4-10.2,21.4c-6.8,5-15.9,7.5-27.4,7.5c-9.9,0-18-2.5-24.4-7.5c-6.4-5-9.6-11.7-9.6-20.2
		c0-12.3,6.9-21.3,20.7-27.1L523.7,737.8L523.7,737.8z M538,746.4c-10,3.9-14.9,9.8-14.9,17.8c0,3.9,1.5,7.1,4.6,9.6
		s6.8,3.8,11.1,3.8c4.5,0,8.2-1.2,11.2-3.6c2.9-2.4,4.4-5.7,4.4-9.8C554.3,756,548.9,750.1,538,746.4z M551.7,714.8
		c0-3.6-1.2-6.5-3.5-8.6c-2.3-2.1-5.3-3.2-9.1-3.2c-3.6,0-6.6,1.1-9.1,3.3c-2.5,2.2-3.8,5.1-3.8,8.5c0,6.7,4.3,11.7,12.8,15.1
		C547.5,726.5,551.7,721.4,551.7,714.8z"/>
	<path class="st0" d="M586.8,781.7c0-3.3,1.3-6,3.8-8.1c2.5-2.1,5.5-3.2,9-3.2c3.5,0,6.5,1.1,8.9,3.2c2.4,2.2,3.6,4.8,3.6,8
		c0,3.4-1.2,6.1-3.6,8.2c-2.4,2.1-5.5,3.1-9.2,3.1c-3.4,0-6.4-1.1-8.8-3.2C588,787.6,586.8,784.9,586.8,781.7z"/>
	<path class="st0" d="M703.2,787.5c-7.4,3.6-17.1,5.5-29,5.5c-15.4,0-27.6-4.6-36.6-13.8c-9-9.2-13.5-21.5-13.5-36.8
		c0-16.1,5-29.3,15.1-39.5c10.1-10.2,23.1-15.4,39-15.4c10,0,18.3,1.3,25,3.9v21c-6.9-4-14.7-6.1-23.4-6.1c-10,0-17.9,3.2-23.9,9.5
		c-6,6.4-9,14.7-9,25c0,10,2.8,18.1,8.5,24.2s13.3,9.2,23,9.2c9.1,0,17.4-2.2,24.8-6.6L703.2,787.5L703.2,787.5z"/>
	<path class="st0" d="M713.1,741.6c0-16,4.7-29,14-39c9.3-10,21.7-15,37-15c14.6,0,26.3,4.9,35.2,14.6c8.9,9.7,13.3,22.2,13.3,37.4
		c0,15.9-4.6,28.8-13.9,38.7c-9.2,9.9-21.3,14.8-36.3,14.8c-14.6,0-26.5-4.8-35.6-14.4C717.7,769,713.1,756.7,713.1,741.6z
		 M736,740.4c0,9.9,2.4,18,7.2,24.3c4.8,6.3,11.3,9.4,19.7,9.4c8.5,0,15.1-3,19.9-9.1c4.7-6,7.1-14.1,7.1-24.3
		c0-10.6-2.3-19-6.9-25.2c-4.6-6.2-11.1-9.3-19.5-9.3c-8.5,0-15.2,3.2-20.1,9.5C738.4,722.2,736,730.3,736,740.4z"/>
	<path class="st0" d="M923.1,791.2v-61.9c0-5.7,0.3-12.9,0.9-21.5h-0.5c-1.3,6.5-2.4,10.9-3.2,13.1l-25.2,70.3h-17.3l-25.5-69.7
		c-0.6-1.7-1.7-6.3-3.2-13.8h-0.6c0.6,8.6,0.9,17.1,0.9,25.7v57.8h-19.6v-102h31.6l22,61.6c1.8,5.1,3.1,9.9,3.8,14.4h0.5
		c1.4-5.6,2.8-10.4,4.2-14.5l21.9-61.5h30.7v102L923.1,791.2L923.1,791.2z"/>
</g>
<g>
	
		<linearGradient id="SVGID_1_" gradientUnits="userSpaceOnUse" x1="-634.0776" y1="3604.5508" x2="-557.4261" y2="3666.6218" gradientTransform="matrix(1 0 0 -1 1153.6797 3933.3789)">
		<stop  offset="0.1774" style="stop-color:#EFB76D"/>
		<stop  offset="0.8333" style="stop-color:#D08342"/>
	</linearGradient>
	<polygon class="st1" points="567.2,230.9 553.9,230.9 553.9,371.2 567.2,350.2 	"/>
	
		<linearGradient id="SVGID_2_" gradientUnits="userSpaceOnUse" x1="-665.1346" y1="3381.3713" x2="-567.1501" y2="3460.7175" gradientTransform="matrix(1 0 0 -1 1153.6797 3933.3789)">
		<stop  offset="0.1774" style="stop-color:#EFB76D"/>
		<stop  offset="0.8333" style="stop-color:#D08342"/>
	</linearGradient>
	<polygon class="st2" points="529.1,483.6 529.1,485.5 529.1,507.9 529.1,602.1 541.1,602.1 541.2,593.5 541.2,507.9 541.2,483.6 
		541.2,477.4 541.2,416.7 529.1,426.8 	"/>
	
		<linearGradient id="SVGID_3_" gradientUnits="userSpaceOnUse" x1="-596.2434" y1="3544.3337" x2="-390.4519" y2="3710.9805" gradientTransform="matrix(1 0 0 -1 1153.6797 3933.3789)">
		<stop  offset="0.1774" style="stop-color:#EFB76D"/>
		<stop  offset="0.8333" style="stop-color:#D08342"/>
	</linearGradient>
	<path class="st3" d="M596.4,337.2l-39.5,51.2c17.1,1.2,41.4,5,69.3,15.5c0-0.1,0-0.2,0.1-0.3l82.7-98.2l61.9-73.5L664,232.2
		c3.4,4.3,5.2,7.2,5.2,8.9c0,1.4-0.6,2.7-1.6,3.9L596.4,337.2z"/>
	
		<linearGradient id="SVGID_4_" gradientUnits="userSpaceOnUse" x1="-599.5398" y1="3330.9946" x2="-421.3307" y2="3475.3059" gradientTransform="matrix(1 0 0 -1 1153.6797 3933.3789)">
		<stop  offset="0.1774" style="stop-color:#EFB76D"/>
		<stop  offset="0.8333" style="stop-color:#D08342"/>
	</linearGradient>
	<path class="st4" d="M781.1,591.1c0-0.4,0-0.7,0-1.1c0.1-2.7,0.2-5.4,0.2-8.1c0-4.9-0.3-9.8-0.6-14.6
		c-4.7-58.2-37.2-108.5-84.3-137.6c-27.3-16.9-59.5-26.7-94-26.7c-2,0-4.1,0.1-6.1,0.2c-14.2,0.5-27.9,2.6-41.1,6.2l-1.3,0.5V471
		v19.5v17.4v94.2h22.9l-9.5-8.6c0-4.6,0-56.9,0-85.6c0-8.6,0-15,0-17.4c0-8.8,0-17.7,0-24.4c0-19.5,0-35.8,0-44.1l36.1,37.6l1.4,1.4
		c65.8,1.3,118.7,54.9,118.7,121c0,1.4-0.1,2.9-0.1,4.3c-0.7,3.6-2.3,7-4.7,10c-1.8,2.2-3.5,4.1-5.2,5.8h8.2h58.4h12.3
		C792.3,598.2,781.2,594.6,781.1,591.1z"/>
</g>
<linearGradient id="SVGID_5_" gradientUnits="userSpaceOnUse" x1="-617.1976" y1="3504.8254" x2="-933.3948" y2="3526.936" gradientTransform="matrix(1 0 0 -1 1153.6797 3933.3789)">
	<stop  offset="0.1675" style="stop-color:#E9B47D"/>
	<stop  offset="0.8333" style="stop-color:#D08342"/>
</linearGradient>
<polygon class="st5" points="529.1,403.7 539.3,388.1 538.7,232.1 533.1,232 533.3,231.9 515.7,232 515.7,232 478.1,231.9 
	478.2,231.9 457.5,231.9 236.2,568 236,568.1 221.9,589.7 206.6,602.1 312.7,602.1 302.9,592.8 421.3,405.9 464.9,337.5 492.4,295 
	493.2,337.5 492.8,399 458.8,399 419.4,451.9 492.8,451.9 492.8,457.3 492.6,497.3 492.1,497.3 492,593.5 482.5,602.1 515.7,602.1 
	515.7,507.9 515.7,497.3 515.7,438 495.6,454.8 497.4,451.9 498.2,451.9 498.2,450.8 515.7,424.1 515.7,259 529.1,238.3 "/>
</svg>
