<?xml version="1.0" encoding="utf-8"?>
<!-- Generator: Adobe Illustrator 22.0.0, SVG Export Plug-In . SVG Version: 6.00 Build 0)  -->
<svg version="1.1" id="图层_1" xmlns="http://www.w3.org/2000/svg" xmlns:xlink="http://www.w3.org/1999/xlink" x="0px" y="0px"
	 viewBox="0 0 200 200" style="enable-background:new 0 0 200 200;" xml:space="preserve">
<style type="text/css">
	.st0{fill:#FFFFFF;}
</style>
<path class="st0" d="M4.2,70.4C16.7,29.6,54.6,0,99.2,0c45.4,0,84.2,30.8,95.8,72.9c3.8,9.6,5,20.4,5,20.4c0.8,4.6-2.1,6.2-5.8,3.8
	c0,0-12.1-7.9-17.1-10.8c-9.6-5.4-12.1-7.5-12.1-7.5c-5.8-3.8-4-8.3,2.2-10.4l7.9-2.5C161.8,37.6,132,16,98.3,16
	c-37.5,0-70.2,26.6-80.6,60.3c-0.4,2.1-2.9,3.8-5.4,3.8H5.4c-2.5,0-3.8-1.7-2.9-3.8l1.2-5C3.8,71.3,4.2,70.8,4.2,70.4z M180.1,121.7
	c-9.6,35-43.1,63.2-81.4,63.2c-34.2,0-64.7-22.4-77.7-52l9.2-2.9c6.7-2.1,8.5-7.1,3.1-11.2c0,0-0.8-1.2-10.4-7.1
	c-5.6-3.6-11.2-7.2-16.7-10.8c-3.8-2.5-6.7-0.8-6.2,3.8c0,0,0,5.4,1.7,13.8C10.4,165,50.8,200,99.4,200c48.7,0,89.2-35,98-81.2
	c0-0.4,0-0.8,0.4-1.2c0-1.7-1.7-3.3-4.2-3.8l-6.5-0.4c-2.1,0-4.6,1.7-5.4,3.8c0,0-0.8,2.5-0.8,3.3
	C180.1,120.8,180.1,121.2,180.1,121.7L180.1,121.7z"/>
<path class="st0" d="M109.3,93.3v14.6h24.2c3.8,0,6.7,2.9,6.7,6.7c0,3.8-2.9,6.7-6.7,6.7h-24.2v28.3c0,3.8-2.9,6.7-6.7,6.7
	c-3.8,0-6.7-2.9-6.7-6.7v-28.8H72.2c-3.8,0-6.7-2.9-6.7-6.7c0-3.8,2.9-6.7,6.7-6.7H96V92.9H72.6c-3.8,0-6.7-2.9-6.7-7.1
	c0-3.8,2.9-7.1,6.7-7.1h15l-15-15c-2.5-2.5-2.5-6.2,0-8.7s6.2-2.5,8.8,0l21.2,21.2L123.9,55c2.5-2.5,6.3-2.5,8.8,0s2.5,6.2,0,8.7
	l-15,15h15.8c3.8,0,6.7,2.9,6.7,7.1c0,3.8-2.9,7.1-6.7,7.1h-24.2L109.3,93.3L109.3,93.3z"/>
</svg>
