<?xml version="1.0" encoding="utf-8"?>
<!-- Generator: Adobe Illustrator 21.1.0, SVG Export Plug-In . SVG Version: 6.00 Build 0)  -->
<svg version="1.1" id="图层_1" xmlns="http://www.w3.org/2000/svg" xmlns:xlink="http://www.w3.org/1999/xlink" x="0px" y="0px"
	 viewBox="0 0 1024 1024" style="enable-background:new 0 0 1024 1024;" xml:space="preserve">
<style type="text/css">
	.st0{fill:#C81522;}
</style>
<g>
	<polygon class="st0" points="444.5,315.5 230.9,315.5 230.9,345.9 444.5,345.9 	"/>
	<path class="st0" d="M868.2,72H155.8C109.5,72,72,109.5,72,155.8v712.4c0,46.3,37.5,83.8,83.8,83.8h712.4
		c46.3,0,83.8-37.5,83.8-83.8V155.8C952,109.5,914.5,72,868.2,72z M524,248.2h68.3l8.9-19.1h45.3l-8.8,19.1c0,0,209.5,0,209.5,0
		v25.1H626.1l-33.4,72.6h73.5v-54h45v54h124.9v25.1H711.3v68.4c0,21.4-6,37.4-18,47.9c-12,10.4-30.9,16-56.8,16.8v-24
		c10-0.1,17.4-2.4,22.4-6.7c4.9-4.3,7.4-10.7,7.4-25.6v-76.9H535.1l45.6-97.6H524V248.2z M618.7,387.6c0,0-14.3,68-69,115.7H524
		c19-27.1,39.2-67.6,45.3-115.7H618.7z M187.7,370.9v-80.3h300v80.1l0,0v0.2H360.1V439c0,21.4-6,37.3-17.9,47.7
		c-12,10.4-30.9,16-56.6,16.8v-23.9c9.9-0.2,17.4-2.4,22.3-6.7c4.9-4.3,7.3-11.3,7.3-25.4v-76.5H187.7z M221.8,387.4h49.2
		c0,0-14.2,67.8-68.8,115.3h-25.6C195.7,475.7,215.8,435.4,221.8,387.4z M497.2,791.6c-69.3-9.4-123.9-21.6-163.8-36.6
		c-40.9,14.9-92.6,27.5-155.3,37.8V768c49.4-7.9,89.7-18.1,121.1-30.7c-29.5-18.1-56.5-42.5-81.2-73.1h55.6
		c19.9,22,40.8,40.1,62.7,54.3c27.5-15.7,51.7-38.5,72.6-68.4H199.5v-26h114v-41.3H176.8v-26h136.7v-35.4h48.4v35.4h135.3v26H361.9
		v41.3h102.6v26c-26.6,37.7-57.5,66.5-92.6,86.1c33.2,14.9,75,25.2,125.3,30.7V791.6z M473.1,502.7
		c-54.6-47.5-68.8-115.3-68.8-115.3h49.2c6,48,26.2,88.3,45.1,115.3H473.1z M498.7,273.6H176.8v-25h138.4v-18.9h45.1v18.9h138.4
		V273.6z M605.5,793.9h-43.2V620.6c-11.1,5.6-24.1,10.4-39,14.3v-21.5c33.4-17.5,54.8-49,64.1-94.4v0h46
		c-6.5,27.1-15.8,49-27.9,65.8V793.9z M675.2,699.5c-3.7-24.7-12.1-49.8-25.1-75.3h39c13.9,23.9,23.2,49,27.9,75.3H675.2z
		 M846.5,591.9h-39.6c0,50.1-0.1,110.2,0.1,126.2c0.5,70.1-40.8,76.8-72.7,76.8v-11.9c22.3-6,26.3-20.5,26.3-54.4V591.9H627.8v-26.3
		h132.8v-46.9v0H807c0,0,0,19.7-0.1,46.9h16.7h22.9V591.9z M821.6,503.3c-54.8-47.7-69.1-115.7-69.1-115.7H802
		c6,48.2,26.3,88.7,45.2,115.7H821.6z"/>
</g>
</svg>
