<?xml version="1.0" encoding="utf-8"?>
<!-- Generator: Adobe Illustrator 15.0.0, SVG Export Plug-In . SVG Version: 6.00 Build 0)  -->
<!DOCTYPE svg PUBLIC "-//W3C//DTD SVG 1.1//EN" "http://www.w3.org/Graphics/SVG/1.1/DTD/svg11.dtd">
<svg version="1.1" id="图层_1" xmlns="http://www.w3.org/2000/svg" xmlns:xlink="http://www.w3.org/1999/xlink" x="0px" y="0px"
	 width="200px" height="200px" viewBox="0 0 200 200" enable-background="new 0 0 200 200" xml:space="preserve">
<path fill="#FFFFFF" d="M137.003,112.5h-75c-3.45,0-6.25-2.794-6.25-6.25s2.8-6.25,6.25-6.25h75c3.456,0,6.25,2.794,6.25,6.25
	S140.459,112.5,137.003,112.5z M137.003,150h-75c-3.45,0-6.25-2.794-6.25-6.25s2.8-6.25,6.25-6.25h75c3.456,0,6.25,2.794,6.25,6.25
	S140.459,150,137.003,150z M99.503,75h-37.5c-3.45,0-6.25-2.8-6.25-6.25s2.8-6.25,6.25-6.25h37.5c3.456,0,6.25,2.8,6.25,6.25
	S102.959,75,99.503,75z M181.703,42.081L150.422,7.962C145.729,2.9,138.997,0,131.959,0H37.722c-13.675,0-24.8,10.725-24.8,23.919
	v152.169c0,13.181,11.125,23.912,24.794,23.912h125.481c13.675,0,24.793-10.731,24.793-23.912V58.013
	C187.997,52.125,185.753,46.462,181.703,42.081z M172.503,50.55c1.569,1.694,2.531,3.775,2.844,5.963h-25.581
	c-6.894,0-12.5-5.606-12.5-12.5V13.638c1.5,0.668,2.862,1.606,3.969,2.793L172.503,50.55z M163.203,187.5H37.722
	c-6.781,0-12.293-5.119-12.293-11.412V23.919C25.422,17.619,30.94,12.5,37.722,12.5h87.044v31.513c0,13.787,11.213,25,25,25h25.731
	v107.075C175.497,182.381,169.984,187.5,163.203,187.5z"/>
</svg>
