<svg id="红包_拷贝_11" data-name="红包 拷贝 11" xmlns="http://www.w3.org/2000/svg" width="65.281" height="36.968" viewBox="0 0 65.281 36.968">
  <metadata><?xpacket begin="﻿" id="W5M0MpCehiHzreSzNTczkc9d"?>
<x:xmpmeta xmlns:x="adobe:ns:meta/" x:xmptk="Adobe XMP Core 5.6-c138 79.159824, 2016/09/14-01:09:01        ">
   <rdf:RDF xmlns:rdf="http://www.w3.org/1999/02/22-rdf-syntax-ns#">
      <rdf:Description rdf:about=""/>
   </rdf:RDF>
</x:xmpmeta>
                                                                                                    
                                                                                                    
                                                                                                    
                                                                                                    
                                                                                                    
                                                                                                    
                                                                                                    
                                                                                                    
                                                                                                    
                                                                                                    
                                                                                                    
                                                                                                    
                                                                                                    
                                                                                                    
                                                                                                    
                                                                                                    
                                                                                                    
                                                                                                    
                                                                                                    
                                                                                                    
                           
<?xpacket end="w"?></metadata>
<defs>
    <style>
      .cls-1 {
        fill: #e94f1e;
      }

      .cls-1, .cls-2, .cls-4 {
        fill-rule: evenodd;
      }

      .cls-2, .cls-3 {
        fill: #f3dd39;
      }

      .cls-4 {
        fill: #e83d1b;
      }
    </style>
  </defs>
  <path id="矩形_1" data-name="矩形 1" class="cls-1" d="M348.716,580.887l63.016,0.4L411.5,616.17l-63.017-.4Z" transform="translate(-347.594 -579.188)"/>
  <path id="椭圆_6" data-name="椭圆 6" class="cls-2" d="M380.135,594.59c17.264,0.109,31.4-6.509,32.62-14.986a8.479,8.479,0,0,1,.106,1.126c-0.059,9.012-14.717,16.225-32.74,16.11s-32.586-7.512-32.527-16.523a8.146,8.146,0,0,1,.121-1.125C348.82,587.684,362.872,594.48,380.135,594.59Z" transform="translate(-347.594 -579.188)"/>
  <circle id="椭圆_7" data-name="椭圆 7" class="cls-3" cx="32.531" cy="17.656" r="9"/>
  <path id="_" data-name="￥" class="cls-4" d="M382.338,591.228l-0.914,1.906q-0.919,1.876-1.052,2.261c-0.054.16-.1,0.293-0.14,0.4h-0.05q-0.434-1.109-2.075-4.593l-2.451-.016,2.786,5.019-2.112-.013-0.01,1.5,2.624,0.017-0.008,1.141-2.623-.017-0.01,1.519,2.623,0.017-0.013,2.086,2.292,0.015,0.013-2.086,2.537,0.016,0.01-1.52-2.537-.016,0.008-1.141,2.537,0.016,0.01-1.5-2.055-.013,2.931-4.983Z" transform="translate(-347.594 -579.188)"/>
</svg>
