<?xml version="1.0" encoding="utf-8"?>
<!-- Generator: Adobe Illustrator 21.1.0, SVG Export Plug-In . SVG Version: 6.00 Build 0)  -->
<svg version="1.1" id="图层_1" xmlns="http://www.w3.org/2000/svg" xmlns:xlink="http://www.w3.org/1999/xlink" x="0px" y="0px"
	 viewBox="0 0 1024 1024" style="enable-background:new 0 0 1024 1024;" xml:space="preserve">
<style type="text/css">
	.st0{fill:#006800;}
	.st1{fill:#FF3104;}
</style>
<path class="st0" d="M610.3,662.1H421.2c-11.1,0-16.7,5.6-16.7,16.7v183.5c0,11.1,5.6,16.7,16.7,16.7h194.6
	c11.1,0,16.7-5.6,16.7-16.7V678.8C627,667.7,621.4,662.1,610.3,662.1z"/>
<path class="st1" d="M604.8,167.2c-5.6-11.1-16.7-22.2-33.4-22.2H460.2c-16.7,0-27.8,5.6-33.4,22.2L76.5,845.7
	c-11.1,22.2,0,33.4,16.7,33.4h111.2c16.7,0,22.2-5.6,27.8-16.7l278-545l278,545c5.6,16.7,16.7,16.7,27.8,16.7h111.2
	c22.2,0,33.4-11.1,16.7-33.4L604.8,167.2z"/>
</svg>
