<svg xmlns="http://www.w3.org/2000/svg" viewBox="0 0 117.9 101.46" width="117.9" height="101.46"><defs><style>.cls-1{fill:none;}.cls-2{fill:#e54131;}.cls-3{fill:#dd3719;}.cls-4{fill:#da171e;}.cls-5{fill:#e5171d;}.cls-6{fill:#d63c18;}.cls-7{fill:#e22b14;}.cls-8{fill:#d5241b;}.cls-9{fill:#e63214;}.cls-10{fill:#b51820;}.cls-11{fill:#e5151d;}.cls-12{fill:#de2e1c;}.cls-13{fill:#c81825;}.cls-14{fill:#860915;}.cls-15{fill:#b1131d;}.cls-16{fill:#cf171f;}.cls-17{fill:#e84e1a;}.cls-18{fill:#be1e23;}.cls-19{fill:#df4018;}.cls-20{fill:#aa141c;}.cls-21{fill:#c4181f;}.cls-22{fill:#e1331a;}.cls-23{fill:#eb5e40;}.cls-24{fill:#d0de68;}.cls-25{fill:#e32725;}.cls-26{fill:#e94b2c;}.cls-27{fill:#c81f20;}.cls-28{fill:#d1161d;}.cls-29{fill:#dd4b22;}.cls-30{fill:#ef7a00;}.cls-31{fill:#e84e11;}.cls-32{fill:#ea5914;}.cls-33{fill:#d80f1d;}.cls-34{fill:#e9472d;}.cls-35{fill:#d2191e;}.cls-36{fill:#e2101c;}.cls-37{fill:#e74c10;}.cls-38{fill:#b6131f;}</style></defs><title>资源 3</title><g id="图层_2" data-name="图层 2"><g id="央铋_1" data-name="央铋 1"><rect class="cls-1" x="79.13" y="99.5" height="2" transform="translate(-29.78 33.42) rotate(-20.16)"/><polygon class="cls-1" points="61.92 17.9 61.92 17.9 70.77 32.26 70.77 32.26 65.84 24.26 61.92 17.9"/><polygon class="cls-1" points="61.09 16.54 61.09 16.54 55.3 7.14 61.09 16.54"/><polygon class="cls-1" points="71.59 33.61 71.59 33.61 73.76 37.12 71.59 33.61"/><rect class="cls-1" x="55.32" y="50.7" height="9.36"/><polygon class="cls-1" points="55.31 37.58 55.32 49.54 55.32 49.54 55.31 36.96 55.31 37.58"/><polygon class="cls-1" points="55.33 61.41 55.34 70.56 55.34 70.56 55.33 61.41"/><path class="cls-2" d="M0,49.54H1.62V48.7Z"/><polygon class="cls-2" points="1.63 50.7 0 50.7 1.63 51.84 1.63 50.7"/><polygon class="cls-3" points="90.94 32.26 93.91 32.26 99 18.36 89.23 18.24 90.94 32.26"/><polygon class="cls-3" points="93.42 33.61 91.11 33.61 91.69 38.33 93.42 33.61"/><path class="cls-3" d="M99.49,17l.5-1.37A30,30,0,0,1,88,8.3l1.05,8.59Z"/><path class="cls-3" d="M89.06,16.89,88,8.3a34.89,34.89,0,0,1-5.43-7.14L78,1.06l5.77,15.77Z"/><polygon class="cls-3" points="84.31 18.18 89.47 32.26 90.94 32.26 89.23 18.24 84.31 18.18"/><polygon class="cls-3" points="91.11 33.61 89.96 33.61 91.69 38.33 91.11 33.61"/><path class="cls-3" d="M78.77,71.72v1L83,61.41H73.79v6C75.51,66.88,77.17,68.38,78.77,71.72Z"/><polygon class="cls-3" points="73.76 37.12 73.78 49.54 87.48 49.54 91.69 38.33 73.76 37.12"/><polygon class="cls-3" points="83.54 60.06 87.05 50.7 73.78 50.7 73.79 60.06 83.54 60.06"/><path class="cls-4" d="M106.93,85.94h1.78V83.52l-1.78-4.73Z"/><polygon class="cls-4" points="99.87 60.06 96.35 50.7 92.99 50.7 93.97 60.06 99.87 60.06"/><path class="cls-4" d="M98.31,85.94V71.72c1.47-2.95,2.91-4.35,4.3-4.39l-2.23-5.92H94.11l2.58,24.53h1.62Z"/><polygon class="cls-4" points="92.86 49.54 95.91 49.54 91.69 38.33 92.86 49.54"/><polygon class="cls-5" points="87.48 49.54 92.86 49.54 91.69 38.33 87.48 49.54"/><polygon class="cls-5" points="93.97 60.06 92.99 50.7 87.05 50.7 83.54 60.06 93.97 60.06"/><path class="cls-5" d="M78.77,85.94h5.46V71.72c3-6.07,5.9-5.66,8.62,0V85.94h3.84L94.11,61.41H83L78.77,72.77C78.77,77.52,78.77,81.76,78.77,85.94Z"/><polygon class="cls-6" points="94.73 32.26 105.75 18.45 99 18.36 93.91 32.26 94.73 32.26"/><path class="cls-6" d="M105.75,17.1A40.2,40.2,0,0,1,100,15.65L99.49,17Z"/><path class="cls-6" d="M99.08,38c-1.47-1.35-2.93-2.77-4.35-4.35H93.42l-1.73,4.72Z"/><polygon class="cls-7" points="108.71 60.06 109.62 59.13 109.62 50.7 96.35 50.7 99.87 60.06 108.71 60.06"/><path class="cls-7" d="M106.93,71.72v7.07l1.78,4.73V61.41h-8.33l2.23,5.92C104.09,67.3,105.53,68.81,106.93,71.72Z"/><path class="cls-7" d="M95.91,49.54h13.71v-3.9A57.8,57.8,0,0,1,99.08,38l-7.39.37Z"/><polygon class="cls-8" points="83.82 16.83 78.05 1.06 73.76 0.95 73.76 16.7 83.82 16.83"/><polygon class="cls-8" points="91.69 38.33 89.96 33.61 73.76 33.61 73.76 37.12 91.69 38.33"/><polygon class="cls-8" points="73.76 18.05 73.76 32.26 89.47 32.26 84.31 18.18 73.76 18.05"/><polygon class="cls-9" points="11.71 58.9 12.93 59.75 11.83 58.58 11.71 58.9"/><path class="cls-9" d="M13.38,61.41V85.94h1.55V71.72c1.85-3.69,3.63-5,5.36-4.15l-5.79-6.16Z"/><path class="cls-9" d="M29,76.86l-6.32-6.73c.29.48.58,1,.86,1.59V85.94H29Z"/><polygon class="cls-10" points="12.93 59.75 13.38 60.06 27.97 60.06 24.53 50.7 14.66 50.7 11.83 58.58 12.93 59.75"/><polygon class="cls-10" points="15.07 49.54 24.1 49.54 19.53 37.12 15.07 49.54"/><path class="cls-10" d="M29,71.72a13.37,13.37,0,0,1,2.08-3.17l-2.62-7.14h-14l5.79,6.16a6.36,6.36,0,0,1,2.4,2.56L29,76.86C29,75.2,29,73.51,29,71.72Z"/><polygon class="cls-4" points="11.71 58.9 11.83 58.58 7.85 50.7 1.63 50.7 1.63 51.84 11.71 58.9"/><path class="cls-4" d="M1.62,48.7v.83H7.26l-1.53-3Q3.7,47.64,1.62,48.7Z"/><polygon class="cls-11" points="31.16 60.06 30.84 50.7 24.53 50.7 27.97 60.06 31.16 60.06"/><polygon class="cls-11" points="26.89 17.46 22.22 29.95 23.93 32.26 30.22 32.26 29.72 17.49 26.89 17.46"/><polygon class="cls-11" points="27.39 16.13 29.68 16.16 29.49 10.53 27.39 16.13"/><path class="cls-11" d="M31.43,68.21l-.23-6.8H28.46l2.62,7.14Z"/><path class="cls-11" d="M24.1,49.54h6.7L30.26,33.6h-7.1c-1.14,1.15-2.33,2.23-3.55,3.28l-.08.23Z"/><polygon class="cls-12" points="14.66 50.7 7.85 50.7 11.83 58.58 14.66 50.7"/><path class="cls-12" d="M19.33,37.13A83.85,83.85,0,0,1,5.73,46.5l1.53,3h7.81l4.46-12.42Z"/><path class="cls-13" d="M19.53,37.12l0-.12-.15.13Z"/><path class="cls-14" d="M29.49,10.53l-1.21-.92C23.67,13.53,17.85,15,11.73,15.93l15.66.19Z"/><polygon class="cls-14" points="12.81 17.28 22.22 29.95 26.89 17.46 12.81 17.28"/><path class="cls-14" d="M19.62,36.88l-.13.11,0,.12Z"/><path class="cls-15" d="M29.17,8.8c-.29.28-.59.55-.89.81l1.21.92Z"/><path class="cls-16" d="M30.71,7.19A20.18,20.18,0,0,1,29.17,8.8l.31,1.72Z"/><polygon class="cls-13" points="67.27 17.96 61.92 17.9 65.84 24.26 67.27 17.96"/><polygon class="cls-13" points="55.3 7.14 61.09 16.54 67.58 16.62 71.14 0.89 62 0.66 55.3 7.12 55.3 7.14"/><polygon class="cls-17" points="38.65 60.06 43.72 53.32 42.85 50.7 30.84 50.7 31.16 60.06 38.65 60.06"/><polygon class="cls-17" points="29.68 16.16 31.36 16.18 29.49 10.53 29.68 16.16"/><polygon class="cls-17" points="42.46 49.54 37.16 33.61 30.26 33.61 30.8 49.54 42.46 49.54"/><polygon class="cls-17" points="29.72 17.49 30.22 32.26 36.71 32.26 31.81 17.52 29.72 17.49"/><path class="cls-17" d="M33.18,67.34l4.46-5.93H31.2l.23,6.8A3,3,0,0,1,33.18,67.34Z"/><polygon class="cls-18" points="46.12 60.06 55.33 60.06 55.32 50.7 45.64 50.7 43.72 53.32 46.12 60.06"/><polygon class="cls-18" points="46.5 49.54 55.32 49.54 55.31 37.58 46.5 49.54"/><path class="cls-18" d="M51.7,71.72v4l2.66,7.46V71.72c.33-.42.65-.8,1-1.16V61.41H46.6l2.29,6.44A10,10,0,0,1,51.7,71.72Z"/><path class="cls-19" d="M34.92,16.22l12.64.16L41.64.17,34.9,0a25.34,25.34,0,0,1-4.19,7.19l-1.22,3.34Z"/><polygon class="cls-19" points="53.86 33.61 51.52 33.61 55.31 37.58 53.86 33.61"/><polygon class="cls-19" points="36.22 17.57 50.23 32.26 53.37 32.26 48.06 17.72 36.22 17.57"/><polygon class="cls-20" points="73.76 33.61 71.59 33.61 73.76 37.12 73.76 33.61"/><polygon class="cls-20" points="73.76 16.7 73.76 0.95 71.14 0.89 67.58 16.62 73.76 16.7"/><polygon class="cls-20" points="67.27 17.96 65.84 24.26 70.77 32.26 73.76 32.26 73.76 18.05 67.27 17.96"/><polygon class="cls-21" points="60.08 60.06 61.78 50.7 55.32 50.7 55.33 60.06 60.08 60.06"/><polygon class="cls-21" points="55.32 49.54 62 49.54 62.3 47.85 59.85 33.61 55.31 33.61 55.31 36.96 55.32 49.54"/><polygon class="cls-21" points="55.3 16.47 56.9 16.49 55.3 7.18 55.3 16.47"/><polygon class="cls-21" points="55.3 17.81 55.31 32.26 59.62 32.26 57.14 17.84 55.3 17.81"/><path class="cls-21" d="M58.64,67.92l1.19-6.51h-4.5v9.15A11.1,11.1,0,0,1,58.64,67.92Z"/><path class="cls-22" d="M67.73,71.72V85.94h2.42V73.79L66.41,61.41H59.83l-1.19,6.51C61.79,66.4,64.81,67.8,67.73,71.72Z"/><polygon class="cls-22" points="62 49.54 62.82 49.54 62.3 47.85 62 49.54"/><polygon class="cls-22" points="66 60.06 63.17 50.7 61.78 50.7 60.08 60.06 66 60.06"/><path class="cls-23" d="M51.7,85.94h2.66V83.17L51.7,75.7Z"/><path class="cls-23" d="M37.62,85.94h5.46V71.72c2-4,3.95-5.18,5.82-3.87L46.6,61.41H42.18L37.62,85.5Z"/><polygon class="cls-23" points="42.44 60.06 46.12 60.06 43.72 53.32 42.44 60.06"/><path class="cls-16" d="M70.15,71.72c1.25-2.49,2.46-3.87,3.65-4.26v-6H66.41l3.75,12.38C70.15,73.1,70.15,72.43,70.15,71.72Z"/><polygon class="cls-16" points="73.79 60.06 73.78 50.7 63.17 50.7 66 60.06 73.79 60.06"/><polygon class="cls-16" points="62.3 47.85 62.82 49.54 73.78 49.54 73.76 37.12 62.3 47.85"/><polygon class="cls-24" points="55.3 7.12 55.29 7.13 55.3 7.14 55.3 7.12"/><polygon class="cls-4" points="55.31 36.96 55.31 33.61 53.86 33.61 55.31 37.58 55.31 36.96"/><polygon class="cls-4" points="55.3 16.47 55.3 7.18 55.29 7.13 55.29 0.5 41.64 0.17 47.56 16.38 55.3 16.47"/><polygon class="cls-4" points="48.06 17.72 53.37 32.26 55.31 32.26 55.3 17.81 48.06 17.72"/><polygon class="cls-25" points="31.81 17.52 36.71 32.26 50.23 32.26 36.22 17.57 31.81 17.52"/><polygon class="cls-25" points="46.5 49.54 55.31 37.58 51.52 33.61 37.16 33.61 42.46 49.54 46.5 49.54"/><polygon class="cls-25" points="45.64 50.7 42.85 50.7 43.72 53.32 45.64 50.7"/><polygon class="cls-25" points="31.36 16.18 34.92 16.22 29.49 10.53 31.36 16.18"/><polygon class="cls-26" points="57.14 17.84 59.62 32.26 70.77 32.26 61.92 17.9 57.14 17.84"/><polygon class="cls-26" points="73.76 37.12 71.59 33.61 59.85 33.61 62.3 47.85 73.76 37.12"/><polygon class="cls-26" points="55.29 7.13 55.3 7.18 56.9 16.49 61.09 16.54 55.3 7.14 55.29 7.13"/><path class="cls-27" d="M37.62,71.72V85.5l4.56-24.09H37.64l-4.46,5.93C34.7,67.21,36.18,68.72,37.62,71.72Z"/><polygon class="cls-27" points="38.65 60.06 42.44 60.06 43.72 53.32 38.65 60.06"/><polygon class="cls-28" points="55.3 7.12 62 0.66 55.29 0.5 55.29 7.13 55.3 7.12"/><path class="cls-29" d="M115.39,49.54l-.61-1.28c-1.74-.77-3.46-1.65-5.16-2.62v3.9Z"/><polygon class="cls-29" points="116.59 52.04 115.95 50.7 109.62 50.7 109.62 59.13 116.59 52.04"/><path class="cls-4" d="M117.9,49.54q-1.57-.6-3.11-1.28l.61,1.28Z"/><polygon class="cls-4" points="117.9 50.7 115.95 50.7 116.59 52.04 117.9 50.7"/><path class="cls-30" d="M106.93,93.13l1.78-4.76V85.94h-1.78Z"/><path class="cls-30" d="M92.85,85.94v15.52h5.46V85.94H92.85Z"/><path class="cls-30" d="M78.77,91.28l5.46,5.82V85.94H78.77Z"/><path class="cls-31" d="M78.77,99.58l.69,1.88h4.77V97.11l-5.46-5.82C78.77,93.93,78.77,96.66,78.77,99.58Z"/><path class="cls-32" d="M106.93,101.46h1.78V88.37l-1.78,4.76Z"/><path class="cls-33" d="M51.7,101.46h2.66V88.75L51.7,96.17Z"/><path class="cls-34" d="M37.62,86.39,43.08,101V85.94H37.62Z"/><path class="cls-34" d="M51.7,96.17l2.66-7.42V85.94H51.7Z"/><path class="cls-35" d="M67.73,101.46h2.42V85.94H67.73Z"/><path class="cls-36" d="M37.62,101.46h5.46V101L37.62,86.39Z"/><path class="cls-37" d="M78.77,101.46h.69l-.69-1.88Z"/><path class="cls-38" d="M13.38,85.94v15.52h1.55V89.17l-.33-3.23H13.38Z"/><path class="cls-11" d="M14.93,89.17V85.94h-.33Z"/><path class="cls-11" d="M29,85.94H23.54v15.52H29Z"/></g></g></svg>
