<svg xmlns="http://www.w3.org/2000/svg" viewBox="0 0 114.96 125.69" width="114.96" height="125.69"><defs><style>.cls-1{fill:none;}.cls-2{fill:#004542;}.cls-3{fill:#007a5b;}.cls-4{fill:#00514b;}.cls-5{fill:#005049;}.cls-6{fill:#005e58;}.cls-7{fill:#005d53;}.cls-8{fill:#007056;}.cls-9{fill:#005b53;}.cls-10{fill:#006c53;}.cls-11{fill:#005a51;}.cls-12{fill:#006054;}.cls-13{fill:#008267;}.cls-14{fill:#005657;}.cls-15{fill:#00504c;}.cls-16{fill:#005758;}.cls-17{fill:#005850;}.cls-18{fill:#006651;}.cls-19{fill:#004e4a;}.cls-20{fill:#00a19e;}.cls-21{fill:#ad3f17;}.cls-22{fill:#008e95;}.cls-23{fill:#007d63;}.cls-24{fill:#008d69;}.cls-25{fill:#00ad7b;}.cls-26{fill:#00966d;}.cls-27{fill:#00a184;}.cls-28{fill:#00ad81;}.cls-29{fill:#00a483;}.cls-30{fill:#00837b;}.cls-31{fill:#00aa92;}.cls-32{fill:#00a072;}.cls-33{fill:#009296;}.cls-34{fill:#00888f;}.cls-35{fill:#008d97;}.cls-36{fill:#00ada5;}.cls-37{fill:#009c71;}.cls-38{fill:#009671;}.cls-39{fill:#009f7a;}.cls-40{fill:#009879;}.cls-41{fill:#00a286;}.cls-42{fill:#008167;}.cls-43{fill:#00a782;}.cls-44{fill:#008a69;}.cls-45{fill:#19b3a4;}.cls-46{fill:#007873;}.cls-47{fill:#007c5f;}.cls-48{fill:#008270;}.cls-49{fill:#007560;}.cls-50{fill:#007b6d;}.cls-51{fill:#007971;}.cls-52{fill:#006953;}.cls-53{fill:#00755f;}.cls-54{fill:#008f87;}.cls-55{fill:#00896f;}.cls-56{fill:#00836a;}.cls-57{fill:#007a5f;}.cls-58{fill:#00976e;}.cls-59{fill:#009384;}.cls-60{fill:#009d90;}.cls-61{fill:#008573;}.cls-62{fill:#009d8b;}.cls-63{fill:#00a384;}.cls-64{fill:#a24e15;}.cls-65{fill:#009d76;}.cls-66{fill:#00857c;}.cls-67{fill:#007994;}.cls-68{fill:#009e7f;}.cls-69{fill:#008a6a;}</style></defs><title>pcdd-sllk</title><g id="图层_2" data-name="图层 2"><g id="央铋_1" data-name="央铋 1"><polygon class="cls-1" points="58.4 16.99 59.13 17.67 59.13 17.67 58.4 16.99"/><polygon class="cls-1" points="69.9 27.65 69.9 27.65 71.45 29.09 69.9 27.65"/><polygon class="cls-1" points="53.99 12.86 57.58 16.2 57.58 16.2 53.99 12.86"/><path class="cls-2" d="M57.53,4.2C57.41,1.64,57.22,0,57,0s-.4,1.64-.52,4.2a1.52,1.52,0,0,0-.53.43h2.12A1.54,1.54,0,0,0,57.53,4.2Z"/><path class="cls-3" d="M39,70.88c0-.13,0-.26,0-.39l-1.13.39Z"/><path class="cls-4" d="M57.64,7.64a1.91,1.91,0,0,0,.9-1.69,2,2,0,0,0-.48-1.32H55.94a2,2,0,0,0-.48,1.32,1.92,1.92,0,0,0,.9,1.69c0,.34,0,.72,0,1.07l1.32.48C57.66,8.67,57.65,8.14,57.64,7.64Z"/><path class="cls-5" d="M57.64,15.19A2.75,2.75,0,0,0,60,12.62a2.74,2.74,0,0,0-2.34-2.57c0-.3,0-.57,0-.86l-1.32-.48c0,.44,0,.88,0,1.34A2.74,2.74,0,0,0,54,12.62c0,.09,0,.18,0,.27l3.6,3.34C57.62,15.89,57.63,15.55,57.64,15.19Z"/><path class="cls-5" d="M58.39,17l.73.68A2.38,2.38,0,0,0,58.39,17Z"/><path class="cls-5" d="M71.52,29q-.8-.72-1.62-1.38l1.55,1.44Z"/><path class="cls-6" d="M69.9,27.65c-4.55-3.66-9.36-5.91-12.6-6.12,0-.12,0-.26,0-.4a2.38,2.38,0,0,0,2.19-2.26,2.11,2.11,0,0,0-.4-1.22L58.39,17a2.66,2.66,0,0,0-.79-.31c0-.13,0-.27,0-.41L54,12.89a2.79,2.79,0,0,0,2.35,2.3c0,.5,0,1,0,1.45a2.36,2.36,0,0,0-1.91,2l.08.77a2.45,2.45,0,0,0,2.09,1.68c0,.14,0,.27,0,.39a9.71,9.71,0,0,0-1.91.24l1.38,14s0,0,0,0c0-.24,0-.45,0-.62.1-1.23.36-2,.77-2h0a.54.54,0,0,1,.48.34h0a1.46,1.46,0,0,1,.08.27,18.41,18.41,0,0,1,.24,2.5,1.54,1.54,0,0,1,.21.17,1.79,1.79,0,0,1,.51,1.27h0a1.9,1.9,0,0,1-.22.88h0l-.08.13a1.82,1.82,0,0,1-.33.36v.41c0,.24,0,.49,0,.75l.09,0a2.61,2.61,0,0,1,.42.2h0a3.24,3.24,0,0,1,.28.21L71.46,29.09Z"/><path class="cls-7" d="M71.59,29.09,71.52,29l-.07.06Z"/><path class="cls-8" d="M73.92,31.36q-1.13-1.19-2.33-2.27h-.14Z"/><path class="cls-9" d="M71.46,29.09,58.75,40.68a2.12,2.12,0,0,1,.84,1.64h0a1.8,1.8,0,0,1-.17.78l23,6.13c-.38-6.87-4-13.09-8.48-17.88Z"/><path class="cls-10" d="M59.39,43.19a2.47,2.47,0,0,1-1.46,1.24v0l.26.48.12.06a2,2,0,0,1,.94,1.64h0a2.26,2.26,0,0,1,0,.24l1,1.93a19.76,19.76,0,0,1,3,1.48,27.47,27.47,0,0,1,4.12,3H82.3c.09-1,.14-1.93.14-2.92,0-.4,0-.79,0-1.19l-23-6.13A.65.65,0,0,1,59.39,43.19Z"/><path class="cls-11" d="M59.2,47.07a1.86,1.86,0,0,1-.14.39,2.07,2.07,0,0,1-.68.79,12.51,12.51,0,0,1,1.68.5l.19.08-1-1.93C59.21,47,59.21,47,59.2,47.07Z"/><path class="cls-11" d="M57.93,44.63h0v.19h0l.24.12-.26-.48Z"/><path class="cls-11" d="M46.54,53.35c3.06-2.77,6.47-4.64,9-5.15a1.93,1.93,0,0,1-.82-1.55h0a1.77,1.77,0,0,1,.06-.45,1.71,1.71,0,0,1,.13-.34,2.15,2.15,0,0,1,1.14-1v-.19h0v-.2l-.1,0a2.7,2.7,0,0,1-.43-.2,2.67,2.67,0,0,1-.33-.25L45.13,53.35h1.41Z"/><path class="cls-12" d="M75.15,68.56h0c0,.78,0,1.55-.11,2.3h1.56v-.51H76L76,70a7,7,0,0,1-.15-.74h0l0-.14h0a7,7,0,0,1-.06-.93h0c0-2.5,1.92-4.68,3.66-5.76a6.22,6.22,0,0,1,1-.51l.18-.06a.55.55,0,0,1,0-.1.77.77,0,0,1,0-.18h0a.85.85,0,0,1,.26-.6,1,1,0,0,1-.27-.33h0a1.08,1.08,0,0,1-.06-.17h0a.81.81,0,0,1,0-.19h0a1,1,0,0,1,.48-.8h0v-.06a.67.67,0,0,1-.09-.13l0-.07h0a.83.83,0,0,1-.06-.32h0a.82.82,0,0,1,.23-.56,5.59,5.59,0,0,1,.07-.67.57.57,0,0,1,0-.12h0a.48.48,0,0,1,.36-.29h.13a.48.48,0,0,1,.18,0,31.61,31.61,0,0,0,.57-3.87H67.36C71.54,57.08,75.15,62.49,75.15,68.56Z"/><path class="cls-13" d="M33.88,63.65a7.91,7.91,0,0,1,1.4,1.75,6.06,6.06,0,0,1,.57,1.32,5.07,5.07,0,0,1,.22,1.45v0h0a7.27,7.27,0,0,1-.12,1.32l-.05.25h0c0,.07,0,.15-.06.24h0v.34h-.08l0,.17-.44-.17H35.2v.51h2.63L39,70.49c-.05-.64-.1-1.28-.1-1.92h0v-.14h0a16.48,16.48,0,0,1,.7-4.55,20.15,20.15,0,0,1,1.82-4.19,25.36,25.36,0,0,1,3.74-5V53.35Z"/><path class="cls-11" d="M45.84,54l.7-.66H45.13Z"/><path class="cls-14" d="M43.1,28.31,55.19,40.72a2.66,2.66,0,0,1,.86-.49V39.9c0-.28,0-.56,0-.82l-.18-.17a1.83,1.83,0,0,1-.45-1.21h0a1.94,1.94,0,0,1,.12-.65h0a1.8,1.8,0,0,1,.08-.19,1.66,1.66,0,0,1,.52-.6c0-.18,0-.34,0-.49l-1.38-14C51.45,22.48,47.12,24.83,43.1,28.31Z"/><path class="cls-14" d="M54.48,18.86a2,2,0,0,0,.09.58l-.08-.77C54.49,18.73,54.48,18.8,54.48,18.86Z"/><path class="cls-15" d="M33.11,42.21l12,11.14,10.09-9.42a2.11,2.11,0,0,1-.8-1.61h0a2,2,0,0,1,.06-.48c0-.08.05-.15.08-.22L36.74,35.35A30.75,30.75,0,0,0,33.11,42.21Z"/><path class="cls-16" d="M33.11,42.21a23.58,23.58,0,0,0-1.54,8.22c0,.93.05,1.85.13,2.76l13.43.16Z"/><path class="cls-17" d="M36.74,35.35l17.81,6.27c0-.06,0-.12.07-.18a2.26,2.26,0,0,1,.56-.72L43.1,28.31A38.63,38.63,0,0,0,36.74,35.35Z"/><path class="cls-18" d="M31.7,53.19a32.2,32.2,0,0,0,.94,5.54v3.92a8.93,8.93,0,0,1,1.24,1l11.25-10.3Z"/><path class="cls-19" d="M45.13,54.72l.71-.71-.71-.66Z"/><polygon class="cls-1" points="37.07 113.13 37.07 113.13 44.83 113.13 44.83 113.14 51.27 113.13 51.27 113.13 44.83 113.13 37.07 113.13"/><polygon class="cls-1" points="62.74 113.13 62.74 113.13 71.94 113.13 62.74 113.13"/><rect class="cls-1" x="23.26" y="113.13" width="3.67" height="0.01"/><polygon class="cls-1" points="99.51 114.43 99.51 114.43 98.11 113.13 99.51 114.43"/><rect class="cls-1" x="100.1" y="113.13" width="14.85" height="0.01"/><polygon class="cls-1" points="87.08 113.13 87.08 113.13 98.11 113.13 99.51 113.13 99.51 113.13 98.11 113.13 87.08 113.13"/><polygon class="cls-1" points="76.94 113.13 76.94 113.13 71.94 113.13 76.94 113.13"/><polygon class="cls-1" points="100.11 114.98 106.91 121.3 111.63 125.69 111.63 125.69 100.11 114.98"/><polygon class="cls-20" points="37.07 120.17 37.07 125.69 44.82 125.69 44.81 113.15 37.07 120.17"/><polygon class="cls-21" points="44.83 113.14 44.83 113.13 44.83 113.14 44.83 113.14"/><polygon class="cls-22" points="44.81 113.14 44.83 113.14 44.83 113.13 37.07 113.13 37.07 114.05 35.77 114.05 35.77 115.84 37.07 115.84 37.07 120.17 44.81 113.15 44.81 113.14"/><polygon class="cls-22" points="23.26 125.69 26.93 125.69 26.93 115.84 28.23 115.84 28.23 114.05 26.93 114.05 26.93 113.13 23.26 113.13 23.26 125.69"/><polygon class="cls-23" points="100.11 113.86 114.96 119.27 114.96 113.13 100.11 113.13 100.11 113.86"/><polygon class="cls-23" points="99.51 113.64 99.51 113.13 98.11 113.13 99.51 113.64"/><polygon class="cls-24" points="100.11 114.98 111.63 125.69 114.96 125.69 114.96 119.27 100.11 113.86 100.11 114.98"/><polygon class="cls-24" points="99.51 114.43 99.51 113.64 98.11 113.13 99.51 114.43"/><polygon class="cls-25" points="107.34 125.69 111.63 125.69 106.91 121.3 107.34 125.69"/><polygon class="cls-26" points="100.11 124.39 100.11 125.69 107.34 125.69 106.91 121.3 100.11 124.39"/><polygon class="cls-27" points="71.94 125.69 76.94 125.69 76.94 117.94 71.94 113.13 71.94 125.69"/><polygon class="cls-28" points="65.16 125.69 71.94 125.69 71.94 113.13 65.16 125.69"/><polygon class="cls-29" points="62.74 113.13 62.74 113.73 64.72 113.73 64.72 125.69 65.16 125.69 71.94 113.13 62.74 113.13"/><polygon class="cls-29" points="44.83 113.14 44.81 113.14 49.29 118.21 49.29 113.73 51.27 113.73 51.27 113.13 44.83 113.14 44.83 113.14"/><polygon class="cls-30" points="76.94 117.94 76.94 115.84 78.24 115.84 78.24 114.05 76.94 114.05 76.94 113.13 71.94 113.13 76.94 117.94"/><polygon class="cls-30" points="87.08 113.13 87.08 114.05 85.78 114.05 85.78 115.84 87.08 115.84 87.08 125.69 91.05 125.69 98.11 113.13 87.08 113.13"/><polygon class="cls-31" points="44.81 113.15 44.82 125.69 49.29 125.69 49.29 118.21 44.81 113.14 44.81 113.15"/><polygon class="cls-32" points="91.05 125.69 97.24 125.69 99.51 124.67 99.51 114.43 98.11 113.13 91.05 125.69"/><polygon class="cls-32" points="100.11 114.98 100.11 124.39 106.91 121.3 100.11 114.98"/><path class="cls-33" d="M23.26,113.13h3.67v-3.06a4.42,4.42,0,0,1,1.36-2.9l-5-1.81Z"/><polygon class="cls-33" points="37.07 110.33 37.07 113.13 44.83 113.13 37.07 110.33"/><path class="cls-22" d="M36,105.09,22.9,92.88s0,.06,0,.09v0h0a20.6,20.6,0,0,1-.15,2.52c0,.22,0,.36-.05.41q-.12.85-.31,1.7h0l-.22.77-.08.34h0l0,.08h0c0,.14-.1.33-.17.56s-.13.41-.18.55h0a21.67,21.67,0,0,1-.86,2.1h2.41v3.34l5,1.81c1.28-1.36,3.08-2.26,3.71-2.2,1,.1,5.07,2.28,5.07,5.1v.26l7.77,2.8Z"/><path class="cls-34" d="M33.43,78.59H29.7l-8,7.32.08.21a21.12,21.12,0,0,1,1,4.09h0l0,.53.07.57h0c0,.23,0,.48,0,.75s0,.58,0,.82L36,105.09Z"/><path class="cls-35" d="M17.38,78.59l.42.45h-.06l.16.2.54.69a22.83,22.83,0,0,1,2.32,3.79l.06.12h0l.1.22.41.84h0l.17.43c.08.2.14.38.21.57l8-7.32H17.38Z"/><polygon class="cls-36" points="54.01 96.92 36.16 78.59 33.43 78.59 36.04 105.08 54.01 96.92"/><path class="cls-37" d="M71.94,88.79,54,96.92l4.4,4c2.33.84,6.16,3,6.29,5.69l7.24,6.55V88.79Z"/><polygon class="cls-38" points="60.54 78.59 42.22 78.59 71.94 88.79 60.54 78.59"/><polygon class="cls-39" points="71.94 113.13 84.73 100.97 71.94 88.79 71.94 113.13"/><path class="cls-40" d="M84.73,101,71.94,113.13h5v-3.07c0-2.82,4-5.2,5.07-5.1s5.07,2.28,5.07,5.1v3.06h11Z"/><path class="cls-41" d="M44.83,113.13h6.43v-1.57h-2v-4.84c0-3.42,6.16-6.32,7.72-6.19a6.3,6.3,0,0,1,1.41.37l-4.4-4Z"/><path class="cls-41" d="M64.7,106.59s0,.09,0,.13v4.84h-2v1.57h9.2Z"/><polygon class="cls-13" points="98.11 113.13 98.11 95.99 98.11 79.87 84.73 100.97 98.11 113.13"/><polygon class="cls-42" points="71.94 78.59 60.54 78.59 71.94 88.79 71.94 78.59"/><polygon class="cls-43" points="71.94 88.79 42.22 78.59 36.16 78.59 54.01 96.92 71.94 88.79"/><polygon class="cls-44" points="84.73 100.97 98.11 79.87 71.94 88.79 84.73 100.97"/><polygon class="cls-45" points="44.83 113.13 54.01 96.92 36.04 105.08 44.83 113.13"/><polygon class="cls-46" points="98.11 79.87 98.11 78.59 83.09 78.59 71.94 88.79 98.11 79.87"/><polygon class="cls-47" points="114.96 80.55 114.96 75.5 109.54 75.5 114.96 80.55"/><polygon class="cls-48" points="98.11 113.13 99.51 111.87 99.51 95.64 98.11 95.99 98.11 113.13"/><polygon class="cls-48" points="100.11 111.33 114.96 97.95 114.96 91.78 100.11 95.5 100.11 111.33"/><polygon class="cls-49" points="99.51 113.13 99.51 111.87 98.11 113.13 99.51 113.13"/><polygon class="cls-49" points="100.11 113.13 114.96 113.13 114.96 97.95 100.11 111.33 100.11 113.13"/><polygon class="cls-50" points="83.09 78.59 71.94 78.59 71.94 88.79 83.09 78.59"/><polygon class="cls-51" points="98.11 79.87 98.11 95.99 99.51 95.64 99.51 78.59 98.11 78.59 98.11 79.87"/><polygon class="cls-51" points="100.11 75.5 100.11 95.5 114.96 91.78 114.96 80.55 109.54 75.5 100.11 75.5"/><polygon class="cls-1" points="81.26 58.66 81.74 59.11 81.74 59.11 81.26 58.66"/><polygon class="cls-1" points="57.34 36.37 56.66 35.73 56.66 35.73 57.34 36.37"/><path class="cls-52" d="M57,33.57c-.1,0-.2.6-.28,1.6l.52-.47C57.17,34,57.09,33.57,57,33.57Z"/><path class="cls-53" d="M57.24,34.69l-.52.47c0,.09,0,.19,0,.29h.61C57.29,35.17,57.27,34.92,57.24,34.69Z"/><path class="cls-54" d="M57.31,35.46H56.7v.11l.64.23C57.32,35.68,57.32,35.57,57.31,35.46Z"/><path class="cls-55" d="M56.69,35.56v.16l.68.64c0-.19,0-.38,0-.56Z"/><path class="cls-55" d="M81.88,58.86a.4.4,0,0,0-.21-.36,2.46,2.46,0,0,0-.11-.88,2.56,2.56,0,0,0-.11.88.35.35,0,0,0-.18.21l.48.45A.4.4,0,0,0,81.88,58.86Z"/><path class="cls-56" d="M81.68,60.8a.54.54,0,0,0,0-1.08c0-.17,0-.34,0-.51,0,0,0,0,.06-.06l-.48-.45a.47.47,0,0,0,0,.15.4.4,0,0,0,.19.36c0,.16,0,.33,0,.51a.54.54,0,0,0,0,1.08c0,.1,0,.2,0,.3a.49.49,0,0,0-.41.47s0,0,0,0l.65-.59C81.68,60.95,81.68,60.88,81.68,60.8Z"/><path class="cls-56" d="M69.25,72.36l5.36-4.89c-.42-5.92-4.26-11.11-8.47-14.56L68,72C68.41,72.09,68.83,72.22,69.25,72.36Z"/><path class="cls-56" d="M68.93,72.65,68,72.38l.1,1Z"/><path class="cls-56" d="M77.35,65l2.51-2.29A8.12,8.12,0,0,0,77.35,65Z"/><path class="cls-57" d="M73.92,74.3a22.62,22.62,0,0,0,.73-5.74c0-.37,0-.73,0-1.09l-5.36,4.89A28.47,28.47,0,0,1,73.92,74.3Z"/><path class="cls-57" d="M68.11,73.4l6.55,1.75a27.29,27.29,0,0,0-5.73-2.49Z"/><path class="cls-57" d="M86,69.94h.63v0h0a6.93,6.93,0,0,0,.22-1.73c0-3.31-3.62-6-5.28-6.07,0,0,0-.05,0-.08a.5.5,0,0,0,.46-.47.49.49,0,0,0-.4-.47s0-.05,0-.08l-.65.59a.5.5,0,0,0,.45.43s0,.05,0,.08a3.68,3.68,0,0,0-1.63.56L77.35,65a5.61,5.61,0,0,0-1.13,3.22,6.86,6.86,0,0,0,.22,1.74h.65V71.3H75l0,.25c0,.13,0,.29-.07.47h0a22.19,22.19,0,0,1-.49,2.37v.06q.77.42,1.46.88l.19.13v.05l2,.54V73.93h2.13v2.69l4.42,1.18V73.93h2.13v4.14h2.53V71.3H86V69.94Z"/><path class="cls-58" d="M68.46,74V74q.65.19,1.28.41v2.07l.86,1.62h1.33V75.24c.44.19.86.39,1.28.6v2.24h2.34v-2.4c-.28-.18-.59-.35-.88-.52L68.11,73.4Z"/><polygon class="cls-58" points="76.04 75.67 76.04 78.07 78.05 78.07 78.05 76.05 76.04 75.52 76.04 75.67"/><polygon class="cls-58" points="80.18 78.07 84.61 78.07 84.61 77.8 80.18 76.62 80.18 78.07"/><polygon class="cls-59" points="64.99 78.07 64.99 76.31 63.1 78.07 64.99 78.07"/><polygon class="cls-59" points="66.27 75.12 66.27 78.07 68.46 78.07 68.46 74.05 68.11 73.4 66.27 75.12"/><polygon class="cls-59" points="69.73 78.07 70.6 78.07 69.73 76.45 69.73 78.07"/><polygon class="cls-60" points="30.21 75.1 28.25 74 28.25 75.76 30.21 75.11 30.21 75.1"/><polygon class="cls-60" points="22.52 71.3 22.52 77.64 26.11 76.46 26.11 73.93 28.11 73.93 23.37 71.3 22.52 71.3"/><path class="cls-61" d="M56.77,48.22c0,.1,0,.19,0,.27-2.28,0-5.66,1.61-8.84,4.21L66.3,71.54c.57.13,1.13.28,1.67.43L66.14,52.91c-3.21-2.63-6.64-4.26-8.94-4.4,0-.09,0-.18,0-.28a1.65,1.65,0,0,0,1.51-1.52L56,47.94A1.82,1.82,0,0,0,56.77,48.22Z"/><path class="cls-61" d="M68,72.38l-1.2-.32,1.3,1.33Z"/><path class="cls-62" d="M30.37,59.21a.42.42,0,0,0,0-.72,2.42,2.42,0,0,0-.11-.88s0,.08-.05.2V60l.41-.19a.62.62,0,0,0-.22-.09C30.37,59.55,30.37,59.38,30.37,59.21Z"/><path class="cls-60" d="M61.89,71.2A43.77,43.77,0,0,0,57,70.92a39.75,39.75,0,0,0-12.86,2l1.12,1,.21-.07v.26l2.19,2V73.36l1.28-.27V77.4l.73.68h1.46V72.74l1.28-.15v5.49h2.19V72.42l1.28,0v5.7h2.19v-5.7l1.28.05v5.65h2.19V72.6l1.28.16v5.31h.3L65,76.31V73.13l1.28.27v1.72l1.84-1.72Z"/><path class="cls-60" d="M39.36,68.51l4.48,4.16A39.58,39.58,0,0,1,57,70.53c1.15,0,2.26.06,3.37.14L40.18,63.54A16.11,16.11,0,0,0,39.36,68.51Z"/><path class="cls-60" d="M30.77,60.54a.49.49,0,0,0,.1-.28v0L30.19,60Z"/><path class="cls-63" d="M30.19,60v-2.2c0,.15,0,.38-.06.69a.39.39,0,0,0-.22.36.4.4,0,0,0,.19.36c0,.16,0,.33,0,.51a.57.57,0,0,0-.49.54.58.58,0,0,0,.5.54c0,.1,0,.2,0,.3a.49.49,0,0,0-.41.47.5.5,0,0,0,.46.47.57.57,0,0,0,0,.08c-1.23,0-3.53,1.53-4.65,3.66l4.69,9.29Z"/><polygon class="cls-64" points="30.21 75.11 30.23 75.11 30.21 75.1 30.21 75.11"/><path class="cls-65" d="M39.36,68.56a22.59,22.59,0,0,0,.74,5.76,27,27,0,0,1,3.74-1.64l-4.48-4.16S39.36,68.55,39.36,68.56Z"/><path class="cls-65" d="M38.46,75.67v2.4h2.26V75.75q.62-.31,1.28-.59v2.91h2.19V74.33L45.26,74l-1.12-1A25.38,25.38,0,0,0,38.46,75.67Z"/><polygon class="cls-65" points="48.93 78.07 49.66 78.07 48.93 77.4 48.93 78.07"/><path class="cls-65" d="M30.21,75.07l0,0v3h2.44V73.93H34.8v4.14H38V75.46l.2-.13h0c.46-.3.95-.6,1.46-.88v0h0c-.07-.27-.14-.53-.19-.79s-.11-.52-.16-.8c-.09-.5-.17-1-.23-1.52H34.7V69.94h.63v0h0a6.88,6.88,0,0,0,.22-1.73c0-3.31-3.62-6-5.28-6.07V62a.5.5,0,0,0,.46-.47.49.49,0,0,0-.4-.47c0-.1,0-.2,0-.3a.63.63,0,0,0,.4-.26L30.19,60Z"/><polygon class="cls-65" points="45.47 78.07 47.66 78.07 47.66 76.21 45.47 74.18 45.47 78.07"/><path class="cls-66" d="M30.86,60.24a.53.53,0,0,0-.27-.43l-.41.19Z"/><path class="cls-66" d="M66.82,72.07a39.56,39.56,0,0,0-4.93-.87l6.23,2.2Z"/><path class="cls-66" d="M40.18,63.53l20.21,7.14a40.37,40.37,0,0,1,5.91.86L48,52.71A24.37,24.37,0,0,0,40.18,63.53Z"/><path class="cls-67" d="M30.23,75.1l0,0-4.69-9.29a5.23,5.23,0,0,0-.63,2.42,6.86,6.86,0,0,0,.22,1.74h.65V71.3h-2.4l4.74,2.63h.14V74l2,1.09Z"/><path class="cls-68" d="M56.64,36.48a1.3,1.3,0,0,0-.7,1.21,1.33,1.33,0,0,0,.63,1.17q0,.8,0,1.67a1.79,1.79,0,0,0,0,3.56c0,.35,0,.68,0,1a1.63,1.63,0,0,0-1.34,1.54A1.53,1.53,0,0,0,56,47.94l2.72-1.24s0,0,0,0a1.63,1.63,0,0,0-1.34-1.54c0-.32,0-.66,0-1a1.79,1.79,0,0,0,0-3.56q0-.87,0-1.67a1.33,1.33,0,0,0,.62-1.17,1.3,1.3,0,0,0-.7-1.21s0-.08,0-.13l-.68-.64C56.67,36,56.65,36.21,56.64,36.48Z"/><polygon class="cls-69" points="22.52 78.07 26.11 78.07 26.11 76.46 22.52 77.64 22.52 78.07"/><polygon class="cls-69" points="30.21 75.11 28.25 75.76 28.25 78.07 30.23 78.07 30.23 75.11 30.21 75.11"/><polygon class="cls-1" points="15.45 114.33 15.45 114.33 16.84 113.04 15.45 114.33"/><rect class="cls-1" y="113.03" width="14.85" height="0.01"/><polygon class="cls-1" points="27.88 113.03 27.88 113.04 16.84 113.04 15.45 113.04 15.45 113.03 16.84 113.03 27.88 113.03"/><polygon class="cls-1" points="38.01 113.04 38.01 113.04 43.01 113.04 38.01 113.04"/><polygon class="cls-1" points="14.85 114.89 8.05 121.21 3.32 125.6 3.32 125.6 14.85 114.89"/><polygon class="cls-23" points="14.85 113.76 0 119.17 0 113.04 14.85 113.04 14.85 113.76"/><polygon class="cls-23" points="15.45 113.55 15.45 113.04 16.84 113.04 15.45 113.55"/><polygon class="cls-24" points="14.85 114.89 3.32 125.6 0 125.6 0 119.17 14.85 113.76 14.85 114.89"/><polygon class="cls-24" points="15.45 114.33 15.45 113.55 16.84 113.04 15.45 114.33"/><polygon class="cls-25" points="7.62 125.6 3.32 125.6 8.05 121.21 7.62 125.6"/><polygon class="cls-26" points="14.85 124.3 14.85 125.6 7.62 125.6 8.05 121.21 14.85 124.3"/><polygon class="cls-27" points="43.01 125.6 38.01 125.6 38.01 117.85 43.01 113.04 43.01 125.6"/><polygon class="cls-30" points="38.01 117.85 38.01 115.75 36.72 115.75 36.72 113.96 38.01 113.96 38.01 113.04 43.01 113.04 38.01 117.85"/><polygon class="cls-30" points="27.88 113.04 27.88 113.96 29.17 113.96 29.17 115.75 27.88 115.75 27.88 125.6 23.9 125.6 16.84 113.04 27.88 113.04"/><polygon class="cls-32" points="23.9 125.6 17.72 125.6 15.45 124.57 15.45 114.33 16.84 113.04 23.9 125.6"/><polygon class="cls-32" points="14.85 114.89 14.85 124.3 8.05 121.21 14.85 114.89"/><polygon class="cls-39" points="43.01 113.04 30.22 100.88 43.01 88.7 43.01 113.04"/><path class="cls-40" d="M30.22,100.88,43,113H38V110c0-2.82-4-5.21-5.07-5.1s-5.07,2.28-5.07,5.1V113h-11Z"/><polygon class="cls-13" points="16.84 113.03 16.84 95.9 16.84 79.78 30.22 100.88 16.84 113.03"/><polygon class="cls-44" points="30.22 100.88 16.84 79.78 43.01 88.7 30.22 100.88"/><polygon class="cls-46" points="16.84 79.78 16.84 78.5 31.86 78.5 43.01 88.7 16.84 79.78"/><polygon class="cls-47" points="0 80.46 0 75.4 5.42 75.4 0 80.46"/><polygon class="cls-48" points="16.84 113.03 15.45 111.77 15.45 95.55 16.84 95.9 16.84 113.03"/><polygon class="cls-48" points="14.85 111.23 0 97.85 0 91.68 14.85 95.4 14.85 111.23"/><polygon class="cls-49" points="15.45 113.03 15.45 111.77 16.84 113.03 15.45 113.03"/><polygon class="cls-49" points="14.85 113.03 0 113.03 0 97.85 14.85 111.23 14.85 113.03"/><polygon class="cls-50" points="31.86 78.5 43.01 78.5 43.01 88.7 31.86 78.5"/><polygon class="cls-51" points="16.84 79.78 16.84 95.9 15.45 95.55 15.45 78.5 16.84 78.5 16.84 79.78"/><polygon class="cls-51" points="14.85 75.4 14.85 95.4 0 91.68 0 80.46 5.42 75.4 14.85 75.4"/></g></g></svg>
