<svg xmlns="http://www.w3.org/2000/svg" viewBox="0 0 115.26 113.87" width="115.26" height="113.87"><defs><style>.cls-1{fill:none;}.cls-2{fill:#004e69;}.cls-3{fill:#004468;}.cls-4{fill:#00435a;}.cls-5{fill:#00504c;}.cls-6{fill:#005e6c;}.cls-7{fill:#005265;}.cls-8{fill:#005972;}.cls-9{fill:#005758;}.cls-10{fill:#008669;}.cls-11{fill:#007961;}.cls-12{fill:#006678;}.cls-13{fill:#00745f;}.cls-14{fill:#006c58;}.cls-15{fill:#007a5b;}.cls-16{fill:#006375;}.cls-17{fill:#004c4e;}.cls-18{fill:#006c53;}.cls-19{fill:#005a52;}.cls-20{fill:#008367;}.cls-21{fill:#004b47;}.cls-22{fill:#005f55;}.cls-23{fill:#005b52;}.cls-24{fill:#005654;}.cls-25{fill:#006954;}.cls-26{fill:#005851;}.cls-27{fill:#005854;}.cls-28{fill:#00755f;}.cls-29{fill:#006651;}.cls-30{fill:#004e4a;}.cls-31{fill:#005e50;}.cls-32{fill:#006486;}.cls-33{fill:#005367;}.cls-34{fill:#008f87;}.cls-35{fill:#008a6f;}.cls-36{fill:#00a484;}.cls-37{fill:#00808d;}.cls-38{fill:#008e6e;}.cls-39{fill:#006781;}.cls-40{fill:#009e7e;}</style></defs><title>资源 1</title><g id="图层_2" data-name="图层 2"><g id="央铋_1" data-name="央铋 1"><polygon class="cls-1" points="85.87 107.41 85.87 107.41 85.51 107.03 85.87 107.41"/><polygon class="cls-2" points="8.5 107.03 21.89 107.03 21.89 104.86 8.5 99.26 8.5 107.03"/><path class="cls-3" d="M6.48,85C4,85.54-1.15,87,.23,89.23c1.68,2.68,4.52,3.52,8.26,4.06v6l13.39,5.6v-2.93h.38L17.43,96.8Z"/><path class="cls-4" d="M13,61.91c-.3,0-1,.14-1.75.33l-4.45,4.7c1.2,2,4.67,3.88,8.12,5.73l.43.21-1-11.42A7.11,7.11,0,0,1,13,61.91Z"/><path class="cls-4" d="M16.11,81.3A5,5,0,0,1,14.7,82c-1.15.23-5.82,2.6-7,2.76-.21,0-.64.1-1.18.21l11,11.8Z"/><path class="cls-5" d="M6.41,65.87a2.92,2.92,0,0,0,.43,1.08l4.45-4.7C9.17,62.74,6.11,63.84,6.41,65.87Z"/><path class="cls-6" d="M22.39,48.22V50.3L27,45.36C24.09,46.12,22.39,47.07,22.39,48.22Z"/><path class="cls-6" d="M22,47a7.21,7.21,0,0,1,3-1.78H17.83A17.2,17.2,0,0,0,22,47Z"/><path class="cls-7" d="M17.83,45.23H25c.49-.18,1-.36,1.59-.53L17.17,34.52C12.92,36.36,12.18,41.8,17.83,45.23Z"/><path class="cls-8" d="M18.9,73.39v5.7a49.75,49.75,0,0,1,5.16-1.55,40.78,40.78,0,0,1,5-.81l-5.4-6.43C20.65,71.13,18.9,72.16,18.9,73.39Z"/><path class="cls-8" d="M37.14,86.41l-7.48-8.91a42.43,42.43,0,0,0-5.4.85c-5,1.25-7,2.29-8.15,2.95l1.32,15.5Z"/><path class="cls-8" d="M14.43,61.46l1,11.42a14.37,14.37,0,0,0,2.66.94v-.43c0-1.49,1.87-2.72,5-3.7l-7.37-8.78Z"/><path class="cls-9" d="M56.25,76.38l-19.11,10,16.74,17.65v-2.14h2.83l.1-25.56Z"/><path class="cls-9" d="M27.86,56.17c-7.1,1.78-7.51,3.07-8.54,3.28a15.7,15.7,0,0,0-2.17.84l18.22,7.26q2.73-.27,5.71-.46c2.17-.13,4.44-.23,6.76-.31L36.55,55.07A58.21,58.21,0,0,0,27.86,56.17Z"/><path class="cls-9" d="M37.07,68.23l18.37,7.31h.84l-7.65-7.94C44.57,67.71,40.65,67.92,37.07,68.23Z"/><path class="cls-9" d="M22.39,57a40.42,40.42,0,0,1,5.26-1.63,55.57,55.57,0,0,1,8.15-1.07l-8.65-9-.19,0L22.39,50.3V57Z"/><path class="cls-10" d="M57.07,76.37h-.26l-.1,25.56h4.65l9.48-10.35Z"/><polygon class="cls-11" points="70.83 91.57 61.35 101.93 62.91 101.93 62.91 107.03 85.51 107.03 70.83 91.57"/><polygon class="cls-12" points="29.56 101.93 30.92 101.93 30.92 107.03 53.88 107.03 53.88 104.06 37.14 86.41 29.56 101.93"/><path class="cls-13" d="M85.51,76.65V69.12l-2.24-.29-4,7.31C81.48,76.28,83.6,76.45,85.51,76.65Z"/><path class="cls-13" d="M83.69,68.07l1.82.25V64.74Z"/><path class="cls-13" d="M85.51,107V77.5c-2-.22-4.32-.39-6.69-.53l-8,14.61Z"/><path class="cls-14" d="M56.81,53.56V45.23H27.46l-.31.08,8.65,9C43.77,53.67,53.91,53.57,56.81,53.56Z"/><path class="cls-14" d="M36.56,55.07,47.84,66.78c2.93-.09,5.93-.14,9-.14V54.4C54,54.42,44.36,54.5,36.56,55.07Z"/><path class="cls-14" d="M48.63,67.59l7.65,7.94h.53V67.48C54.05,67.48,51.31,67.52,48.63,67.59Z"/><path class="cls-6" d="M15.73,60.91l7.37,8.78a66.44,66.44,0,0,1,12.27-2.14L17.15,60.29Z"/><path class="cls-6" d="M23.61,70.3,29,76.73c8.31-1,21.31-1.15,26.43-1.19L37.07,68.23A77.19,77.19,0,0,0,23.61,70.3Z"/><path class="cls-6" d="M56.25,76.38c-4.31,0-17.85.19-26.59,1.13l7.48,8.91Z"/><path class="cls-15" d="M78.51,67.51q2.72.24,5.18.56l1.82-3.33Z"/><path class="cls-15" d="M83.27,68.83c-2-.24-4.23-.45-6.52-.63L58.21,75.53c2.45,0,12.35.08,21.06.62Z"/><path class="cls-15" d="M78.83,77c-9.89-.59-21.2-.59-21.2-.59h-.56l13.76,15.2Z"/><polygon class="cls-16" points="17.43 96.8 22.27 101.93 29.56 101.93 37.14 86.41 17.43 96.8"/><path class="cls-17" d="M20.42,33.89a8.17,8.17,0,0,0-3.25.63L26.58,44.7l.49-.13V32.66C23.59,33.42,20.84,33.89,20.42,33.89Z"/><path class="cls-18" d="M100.49,36.38l.87,1.9A4.91,4.91,0,0,0,100.49,36.38Z"/><path class="cls-19" d="M90.5,45.61h6.25c3.83-2,5.14-4.93,4.62-7.33l-.87-1.9A6.4,6.4,0,0,0,96.25,34L86.58,44.46A27.75,27.75,0,0,1,90.5,45.61Z"/><path class="cls-19" d="M88.24,45.61c-.68-.18-1.44-.35-2.25-.51l-.48.51Z"/><path class="cls-20" d="M85.51,55.8c-2.33-.38-5.46-.66-8.78-.86L65.58,66.77c2.7.08,5.35.2,7.9.36,1.73.11,3.4.23,5,.38l7-2.77Z"/><path class="cls-20" d="M64.81,67.59l-7.48,7.94h.88L76.75,68.2C73,67.91,68.95,67.71,64.81,67.59Z"/><path class="cls-20" d="M77.48,54.14c3,.2,5.85.46,8,.8V45.61Z"/><path class="cls-19" d="M92.87,53.58V48.39c0-1.08-1.73-2-4.63-2.78H85.51Z"/><path class="cls-19" d="M93.05,47.06l.07,0a18.35,18.35,0,0,0,3.63-1.43H90.5A7.81,7.81,0,0,1,93.05,47.06Z"/><path class="cls-19" d="M99.73,61l6.94,7.51a7.88,7.88,0,0,0,2.17-2.64c1-2.65-5.53-3.82-6.62-4A13.54,13.54,0,0,1,99.73,61Z"/><path class="cls-21" d="M44.78,26.15a32.48,32.48,0,0,1-3.16,2A35,35,0,0,1,35.5,30.5l-8,14c1.06-.27,2.25-.52,3.53-.74l25.76-9.83Z"/><path class="cls-22" d="M60.58,12.67v-3h1.53V7.8H60.47a5,5,0,0,0,1.14-3.21c0-2.53-1.78-4.59-4-4.59a3.44,3.44,0,0,0-.82.1V14.77Z"/><path class="cls-5" d="M86,45.1l-1.16-.22.68.73Z"/><path class="cls-5" d="M84,43.95c.92.16,1.8.33,2.62.52L96.25,34a9,9,0,0,0-1.41-.11c-1,0-15.55-2.69-21.2-5.76S63,19.69,62.78,19c-.14-.46.28-.83.33-1.64l-6.3-2.57Z"/><path class="cls-23" d="M27.07,32.66V44.57l.45-.12,8-14C32.74,31.34,29.7,32.09,27.07,32.66Z"/><path class="cls-24" d="M56.81,14.76V.1a4.48,4.48,0,0,0-3.16,4.49A5,5,0,0,0,54.79,7.8H53.15V9.64h1.53v4.49a3.08,3.08,0,0,0-2.13,1.35c-1,2.29.14,2.79-.07,3.5a8.25,8.25,0,0,1-1.4,1.74l5.73,13.17V14.76Z"/><path class="cls-25" d="M85.51,107l.35-.37v-4.73h4.52L107,84.62c-1.74-.57-5.4-2.39-6.4-2.59a5.19,5.19,0,0,1-1.44-.74l-13.6,4V107Z"/><path class="cls-9" d="M85.51,45.61l-.68-.73c-7-1.25-17.54-1.91-28-1.94v2.28Z"/><path class="cls-9" d="M56.81,33.89V42.1c4.88,0,9.76.16,14.29.44A119.55,119.55,0,0,1,84,43.95L56.81,14.76V33.89Z"/><path class="cls-26" d="M60.58,14.13V12.68l-3.77,2.09,6.3,2.57a3.92,3.92,0,0,0-.4-1.86A3.08,3.08,0,0,0,60.58,14.13Z"/><path class="cls-27" d="M51.08,20.72a44,44,0,0,1-6.3,5.43l12,7.74Z"/><polygon class="cls-28" points="85.87 107.03 85.87 106.65 85.51 107.03 85.87 107.03"/><path class="cls-28" d="M94.9,101.93V107h13.4V93c3-.56,5.29-1.51,6.73-3.81,1.68-2.68-6.2-4.29-7.42-4.44a3.71,3.71,0,0,1-.65-.17L90.39,101.93h4.5Z"/><path class="cls-29" d="M57.63,54.4h-.82V66.64h.38c2.81,0,5.63.05,8.4.14L76.73,54.94C67.86,54.4,57.63,54.4,57.63,54.4Z"/><path class="cls-29" d="M56.81,45.23v8.33h.82s10.8,0,19.85.58l8-8.53Z"/><path class="cls-29" d="M56.81,67.48v8.05h.52l7.48-7.94C62.16,67.52,59.48,67.48,56.81,67.48Z"/><path class="cls-30" d="M85.51,54.95c.79.13,1.5.26,2.1.41A40.58,40.58,0,0,1,92.87,57V53.58l-7.36-8v9.33Z"/><path class="cls-30" d="M91.2,77.54a40.21,40.21,0,0,1,6.69,2.17V73.58c0-1.94-5-3.44-12.37-4.47v7.53A44.44,44.44,0,0,1,91.2,77.54Z"/><path class="cls-30" d="M95.94,59.45c-1-.21-1.43-1.5-8.54-3.28-.54-.14-1.18-.26-1.89-.37V68.32c7.65,1.11,12.87,2.8,13.2,5a27.19,27.19,0,0,0,8-4.85L99.73,61A36.49,36.49,0,0,0,95.94,59.45Z"/><path class="cls-30" d="M85.51,77.5v7.74l13.6-4C98,80.63,96,79.6,91,78.36A43.51,43.51,0,0,0,85.51,77.5Z"/><path class="cls-31" d="M56.81,42.95c-11.56,0-23,.71-29.35,2.28H56.81Z"/><path class="cls-31" d="M31.05,43.71A105.6,105.6,0,0,1,42.18,42.5c4.49-.28,9.41-.41,14.37-.4h.26V33.89Z"/><polygon class="cls-32" points="21.89 113.87 21.89 112.5 20.6 113.87 21.89 113.87"/><polygon class="cls-33" points="8.5 113.87 20.6 113.87 21.89 112.5 21.89 107.03 8.5 107.03 8.5 113.87"/><polygon class="cls-34" points="94.9 111.03 101.54 113.87 108.29 113.87 108.29 107.03 94.9 107.03 94.9 111.03"/><polygon class="cls-34" points="85.87 107.18 85.87 107.03 85.51 107.03 85.87 107.18"/><polygon class="cls-35" points="94.9 113.87 101.54 113.87 94.9 111.03 94.9 113.87"/><polygon class="cls-35" points="85.87 107.41 85.87 107.18 85.51 107.03 85.87 107.41"/><polygon class="cls-36" points="53.88 113.87 53.88 113.17 53.56 113.87 53.88 113.87"/><polygon class="cls-37" points="30.92 112.13 32.23 113.87 53.56 113.87 53.88 113.17 53.88 107.03 30.92 107.03 30.92 112.13"/><polygon class="cls-38" points="62.91 107.03 62.91 113.87 82.23 113.87 85.51 107.03 62.91 107.03"/><polygon class="cls-39" points="30.92 113.87 32.23 113.87 30.92 112.13 30.92 113.87"/><polygon class="cls-40" points="82.23 113.87 85.87 113.87 85.87 107.41 85.51 107.03 82.23 113.87"/></g></g></svg>
