<svg xmlns="http://www.w3.org/2000/svg" viewBox="0 0 119.78 100.09" width="119.78" height="100.09"><defs><style>.cls-1{fill:none;}.cls-2{fill:#ff3746;}.cls-3{fill:#ff154c;}.cls-4{fill:#ff154a;}.cls-5{fill:#ff2941;}.cls-6{fill:#ff2348;}.cls-7{fill:#ff1e51;}.cls-8{fill:#ff1449;}.cls-9{fill:#ff174d;}.cls-10{fill:#ff3347;}.cls-11{fill:#ff5e6d;}.cls-12{fill:#ff164d;}.cls-13{fill:#ff4b5a;}.cls-14{fill:#ff1e4e;}.cls-15{fill:#ff7a2e;}.cls-16{fill:#ff4e3f;}.cls-17{fill:#ff5941;}.cls-18{fill:#ff124b;}.cls-19{fill:#ff3847;}.cls-20{fill:#ff663d;}.cls-21{fill:#ff443e;}.cls-22{fill:#ff1742;}.cls-23{fill:#ff566e;}.cls-24{fill:#ff0e4b;}.cls-25{fill:#ff465a;}.cls-26{fill:#ff174b;}.cls-27{fill:#ff0e49;}.cls-28{fill:#ff1a4a;}.cls-29{fill:#ff3645;}.cls-30{fill:#ff4159;}.cls-31{fill:#ff4b3e;}.cls-32{fill:#ff5444;}</style></defs><title>pcdd-teq</title><g id="图层_2" data-name="图层 2"><g id="央铋_1" data-name="央铋 1"><path class="cls-1" d="M24.92,22.05h89.64l-1.8-.61L105.67,19l-9-3.07L88.13,13l-23-7.86L60.06,3.42l-.85-.29-.09,0-.09,0-1.11.39h0l-20.86,7.4L24.9,15.24,7.4,21.44,5.86,22l-.18.06H24.92Zm0-6.16,12.4-4.4L58.55,4h0l.57-.2.94.32,3,1,24.64,8.42,9.17,3.14L106.49,20l4.3,1.47H9.31Z"/><rect class="cls-1" x="67.3" y="48.79" height="9.31" transform="translate(-18.58 56.62) rotate(-40.57)"/><polygon class="cls-1" points="84.74 73.84 78.69 66.77 78.69 66.77 84.74 73.84"/><rect class="cls-1" x="56.51" y="0.81" height="3.42" transform="translate(22.12 47.44) rotate(-55.11)"/><polygon class="cls-1" points="99.2 84.92 99.2 84.92 94.25 84.92 99.2 84.92"/><polygon class="cls-1" points="93.15 83.63 93.15 83.63 94.25 84.92 93.15 83.63"/><rect class="cls-1" x="107.58" y="84.92" width="6.03"/><polygon class="cls-1" points="58.55 3.96 58.55 3.96 60.06 5.01 58.55 3.96"/><polygon class="cls-2" points="60.12 22.05 60.14 27.07 75.85 27.07 80.23 22.05 60.12 22.05"/><path class="cls-2" d="M62.79,41.27c-.83.22-.73,1.48-.73,1.48a1.48,1.48,0,0,1,.68-.69l.67-.77A.9.9,0,0,0,62.79,41.27Z"/><polygon class="cls-2" points="60.14 27.7 60.15 30.82 72.57 30.82 75.3 27.7 60.14 27.7"/><polygon class="cls-2" points="68.22 35.8 72.02 31.45 60.15 31.45 60.17 35.8 68.22 35.8"/><polygon class="cls-2" points="60.12 21.42 80.78 21.42 87.69 13.53 63.04 5.1 60.06 5.01 60.12 21.42"/><path class="cls-2" d="M63.09,36.38a1.81,1.81,0,0,0-.88.3,1.74,1.74,0,0,0-.45.95,1,1,0,0,1,.86-.42c.6.1.82.84,1.34,1.85,0,0-.64-.8-1.37-.72-.49.05-1.37.56-.74,1.81,0,0,.28-.88.88-.71.38.1.7,1,.88,1.62l4.09-4.68Z"/><polygon class="cls-2" points="88.13 13.02 90.42 10.4 75.84 5.47 65.15 5.16 88.13 13.02"/><polygon class="cls-3" points="113.65 35.8 113.65 35.59 113.65 34.52 114.26 34.52 114.26 33.42 114.51 33.42 114.51 32.33 114.77 31.45 100.48 31.45 101.54 35.8 113.65 35.8"/><polygon class="cls-3" points="105.67 19.02 101.35 14.09 95.77 12.21 96.69 15.94 105.67 19.02"/><path class="cls-3" d="M114.73,38c-.72-.08-1.36.72-1.36.72.52-1,.74-1.75,1.34-1.86a1.05,1.05,0,0,1,.87.42s-.09-.74-.58-.91v.05h-.57l-.08,0a2.39,2.39,0,0,1-.69.16v-.2H106.4a1.8,1.8,0,0,0-.89.3,1.76,1.76,0,0,0-.45.95,1,1,0,0,1,.87-.42c.6.1.82.84,1.34,1.85,0,0-.64-.8-1.37-.72-.49.05-1.37.56-.74,1.81,0,0,.28-.88.88-.71s1,2.24,1,2.24-.16-.62-1-.41-.73,1.48-.73,1.48c.26-.52.77-.89,1-.69a3.51,3.51,0,0,1,.61,2.06l.16.35h6.44v-.74a3.53,3.53,0,0,1,.61-2.06c.27-.19.77.18,1,.69,0,0,.1-1.27-.73-1.48s-1,.4-1,.4.44-2.08,1-2.24.88.71.88.71C116.1,38.51,115.22,38,114.73,38Z"/><polygon class="cls-3" points="98.18 22.05 99.4 27.07 112.73 27.07 108.33 22.05 98.18 22.05"/><polygon class="cls-3" points="99.56 27.7 100.32 30.82 113.93 30.82 113.93 28.44 113.28 27.7 99.56 27.7"/><polygon class="cls-3" points="107.78 21.42 106.49 19.95 96.86 16.66 98.02 21.42 107.78 21.42"/><path class="cls-4" d="M77,38.35c-.49.05-1.37.56-.74,1.81,0,0,.29-.88.88-.71s1,2.24,1,2.24-.16-.62-1-.41-.73,1.48-.73,1.48c.27-.52.77-.89,1-.69a3.54,3.54,0,0,1,.61,2.06l.16.35h6.84l.15-.35a3.52,3.52,0,0,1,.61-2.06c.27-.19.78.18,1,.69,0,0,.1-1.27-.73-1.48s-1,.41-1,.41.44-2.08,1-2.24.88.71.88.71c.63-1.25-.25-1.75-.74-1.81-.72-.08-1.37.72-1.37.72.52-1,.74-1.75,1.34-1.85a1,1,0,0,1,.86.42,1.73,1.73,0,0,0-.45-.95,1.81,1.81,0,0,0-.89-.3h-8.4a1.81,1.81,0,0,0-.88.3,1.74,1.74,0,0,0-.45.95,1,1,0,0,1,.86-.42c.6.1.82.84,1.34,1.85C78.4,39.06,77.76,38.27,77,38.35Z"/><path class="cls-4" d="M63.1,42.06a3.54,3.54,0,0,1,.61,2.06l.16.35h6.84l.15-.35a3.53,3.53,0,0,1,.61-2.06c.27-.19.77.18,1,.69,0,0,.1-1.27-.73-1.48s-1,.41-1,.41.45-2.08,1-2.24.88.71.88.71c.64-1.25-.25-1.75-.74-1.81-.72-.08-1.37.72-1.37.72.52-1,.75-1.75,1.34-1.85a1,1,0,0,1,.87.42,1.74,1.74,0,0,0-.45-.95,1.81,1.81,0,0,0-.88-.3H67.71l-4.09,4.68c.1.35.16.62.16.62a.72.72,0,0,0-.37-.38l-.67.77A.36.36,0,0,1,63.1,42.06Z"/><polygon class="cls-4" points="75.3 27.7 72.57 30.82 100.32 30.82 99.56 27.7 75.3 27.7"/><path class="cls-4" d="M91.47,38.35c-.49.05-1.37.56-.74,1.81,0,0,.29-.88.88-.71s1,2.24,1,2.24-.16-.62-1-.41-.73,1.48-.73,1.48c.26-.52.77-.89,1-.69a3.5,3.5,0,0,1,.61,2.06l.16.35h6.84l.15-.35a3.55,3.55,0,0,1,.61-2.06c.27-.19.77.18,1,.69,0,0,.1-1.27-.73-1.48s-1,.41-1,.41.45-2.08,1-2.24.88.71.88.71c.63-1.25-.25-1.75-.74-1.81-.72-.08-1.37.72-1.37.72.52-1,.74-1.75,1.34-1.85a1,1,0,0,1,.86.42,1.73,1.73,0,0,0-.45-.95,1.82,1.82,0,0,0-.88-.3H92a1.81,1.81,0,0,0-.88.3,1.74,1.74,0,0,0-.45.95,1,1,0,0,1,.87-.42c.6.1.82.84,1.34,1.85C92.84,39.06,92.2,38.27,91.47,38.35Z"/><polygon class="cls-4" points="101.54 35.8 100.48 31.45 72.02 31.45 68.22 35.8 101.54 35.8"/><polygon class="cls-4" points="96.69 15.94 95.77 12.21 90.42 10.4 88.13 13.02 96.69 15.94"/><polygon class="cls-4" points="80.23 22.05 75.85 27.07 99.4 27.07 98.18 22.05 80.23 22.05"/><polygon class="cls-4" points="98.02 21.42 96.86 16.66 87.69 13.53 80.78 21.42 98.02 21.42"/><polygon class="cls-5" points="113.93 28.44 113.93 27.7 113.28 27.7 113.93 28.44"/><polygon class="cls-5" points="112.76 21.44 114.56 22.05 112.67 22.05 108.33 22.05 112.73 27.07 114.62 27.07 114.62 24.42 118.11 24.42 118.11 22.36 119.78 20.32 101.35 14.09 105.67 19.02 112.76 21.44"/><polygon class="cls-5" points="110.79 21.42 106.49 19.95 107.78 21.42 110.79 21.42"/><polygon class="cls-6" points="63.04 5.1 60.06 4.08 60.06 5.01 63.04 5.1"/><polygon class="cls-6" points="65.15 5.16 75.84 5.47 60.06 0.14 60.06 3.42 65.15 5.16"/><path class="cls-7" d="M25,44.47V36.38H19.78a1.81,1.81,0,0,0-.88.3,1.46,1.46,0,0,0-.35.58l.13.15a.9.9,0,0,1,.64-.21c.6.1.82.84,1.34,1.85a2.05,2.05,0,0,0-1.21-.71l5.08,6.12Z"/><polygon class="cls-7" points="24.94 35.8 24.93 31.45 13.71 31.45 17.33 35.8 24.94 35.8"/><polygon class="cls-7" points="24.9 15.89 9.31 21.42 24.91 21.42 24.9 15.89"/><polygon class="cls-7" points="7.4 21.44 24.9 15.23 24.9 12.04 3.7 19.39 5.86 21.99 7.4 21.44"/><polygon class="cls-7" points="10.6 27.7 13.19 30.82 24.93 30.82 24.92 27.7 10.6 27.7"/><polygon class="cls-7" points="7.49 22.05 5.91 22.05 10.08 27.07 24.92 27.07 24.91 22.05 7.49 22.05"/><polygon class="cls-8" points="60.06 4.08 59.12 3.76 58.55 3.96 60.06 5.01 60.06 4.08"/><polygon class="cls-8" points="59.03 3.13 59.12 3.1 59.21 3.13 60.06 3.42 60.06 0.14 59.64 0 55.12 1.57 57.93 3.52 59.03 3.13"/><polygon class="cls-9" points="24.91 22.05 24.92 27.07 32.58 27.07 34.71 22.05 24.91 22.05"/><polygon class="cls-9" points="24.92 27.7 24.93 30.82 30.98 30.82 32.31 27.7 24.92 27.7"/><polygon class="cls-9" points="37.07 10.92 35.98 8.2 24.9 12.04 24.9 15.23 37.07 10.92"/><path class="cls-9" d="M25.17,44.47l2.42-5.69a2.73,2.73,0,0,0-.29.28,11.21,11.21,0,0,1,.78-1.45l.49-1.16a2.89,2.89,0,0,0-.4-.07H24.94v8.08Z"/><polygon class="cls-9" points="34.98 21.42 38.22 13.8 37.3 11.5 24.9 15.89 24.91 21.42 34.98 21.42"/><polygon class="cls-9" points="28.86 35.8 30.71 31.45 24.93 31.45 24.94 35.8 28.86 35.8"/><polygon class="cls-10" points="34.98 21.42 43.6 21.42 38.22 13.8 34.98 21.42"/><polygon class="cls-10" points="53.73 35.8 50.66 31.45 30.71 31.45 28.86 35.8 53.73 35.8"/><path class="cls-10" d="M28.65,37.21a1,1,0,0,1,.86.42,1.74,1.74,0,0,0-.45-.95,1.19,1.19,0,0,0-.48-.23l-.49,1.16A.91.91,0,0,1,28.65,37.21Z"/><path class="cls-10" d="M33.73,38.35c-.49.05-1.37.56-.74,1.81,0,0,.28-.88.88-.71s1,2.24,1,2.24-.16-.62-1-.41-.73,1.48-.73,1.48c.26-.52.77-.89,1-.69a3.53,3.53,0,0,1,.62,2.06l.15.35h6.84l.15-.35a3.52,3.52,0,0,1,.61-2.06c.27-.19.77.18,1,.69,0,0,.11-1.27-.73-1.48s-1,.41-1,.41.45-2.08,1-2.24.88.71.88.71c.63-1.25-.25-1.75-.74-1.81-.72-.08-1.37.72-1.37.72.52-1,.74-1.75,1.34-1.85a1,1,0,0,1,.87.42,1.76,1.76,0,0,0-.45-.95,1.81,1.81,0,0,0-.89-.3H34.22a1.79,1.79,0,0,0-.88.3,1.75,1.75,0,0,0-.45.95,1,1,0,0,1,.87-.42c.6.1.82.84,1.34,1.85C35.1,39.06,34.45,38.27,33.73,38.35Z"/><path class="cls-10" d="M27.4,44.47l.15-.35a3.55,3.55,0,0,1,.61-2.06c.27-.19.77.18,1,.69,0,0,.1-1.27-.73-1.48s-1,.41-1,.41.45-2.08,1-2.24.88.71.88.71c.63-1.25-.25-1.75-.74-1.81a1.49,1.49,0,0,0-1.08.43l-2.42,5.69Z"/><polygon class="cls-10" points="34.71 22.05 32.58 27.07 47.57 27.07 44.04 22.05 34.71 22.05"/><path class="cls-10" d="M48.17,38.35c-.49.05-1.37.56-.74,1.81,0,0,.28-.88.88-.71s1,2.24,1,2.24-.16-.62-1-.41-.73,1.48-.73,1.48c.27-.52.77-.89,1-.69a3.49,3.49,0,0,1,.61,2.06l.16.35h6.84l.15-.35A3.52,3.52,0,0,1,57,42.06c.27-.19.77.18,1,.69a2.08,2.08,0,0,0-.25-1.13l0-.05a.79.79,0,0,0-.45-.3c-.83-.21-1,.41-1,.41a9.38,9.38,0,0,1,.46-1.49l-2.68-3.81H48.66a1.8,1.8,0,0,0-.88.3,1.77,1.77,0,0,0-.45.95,1,1,0,0,1,.87-.42c.6.1.82.84,1.34,1.85C49.53,39.06,48.89,38.27,48.17,38.35Z"/><polygon class="cls-10" points="32.31 27.7 30.98 30.82 50.22 30.82 48.02 27.7 32.31 27.7"/><polygon class="cls-11" points="5.55 24.42 5.55 27.09 5.91 27.09 5.91 27.07 10.08 27.07 5.91 22.05 5.67 22.05 5.86 21.99 3.7 19.39 2.03 19.97 1.26 21.7 2.06 22.36 2.06 24.42 5.55 24.42"/><path class="cls-11" d="M18.45,37.63a1.37,1.37,0,0,1,.22-.21l-.13-.15A2,2,0,0,0,18.45,37.63Z"/><polygon class="cls-11" points="13.71 31.45 5.4 31.45 5.66 32.33 5.66 33.42 5.9 33.42 5.9 34.52 6.4 34.52 6.4 35.59 6.4 35.8 17.33 35.8 13.71 31.45"/><path class="cls-11" d="M14.1,39.44c.6-.17.88.71.88.71.63-1.25-.25-1.75-.74-1.81-.72-.08-1.37.72-1.37.72.52-1,.74-1.75,1.34-1.85a1,1,0,0,1,.87.42,1.74,1.74,0,0,0-.45-.95,1.82,1.82,0,0,0-.89-.3H6.4v.18a2.24,2.24,0,0,1-.57-.15c-1.08-.52-1.24.82-1.24.82a1.05,1.05,0,0,1,.87-.42c.6.11.82.84,1.34,1.86,0,0-.64-.8-1.37-.72-.49.05-1.37.56-.74,1.81,0,0,.28-.88.88-.71s1,2.24,1,2.24-.16-.62-1-.4-.73,1.48-.73,1.48c.27-.52.77-.89,1-.69a3.51,3.51,0,0,1,.61,2.06v.74H13l.15-.35a3.55,3.55,0,0,1,.62-2.06c.27-.19.77.18,1,.69,0,0,.1-1.27-.73-1.48s-1,.41-1,.41S13.5,39.6,14.1,39.44Z"/><polygon class="cls-11" points="6.24 27.7 6.24 30.82 13.19 30.82 10.6 27.7 6.24 27.7"/><path class="cls-11" d="M19.48,41.27c-.83.22-.73,1.48-.73,1.48.26-.52.77-.89,1-.69a3.52,3.52,0,0,1,.61,2.06l.15.35h4l-5.08-6.12h-.15c-.49.05-1.37.56-.74,1.81,0,0,.29-.88.88-.71s1,2.24,1,2.24S20.32,41.06,19.48,41.27Z"/><path class="cls-12" d="M57.4,39.44c.6-.17.88.71.88.71.63-1.25-.25-1.75-.74-1.81-.72-.08-1.37.72-1.37.72.52-1,.74-1.75,1.34-1.85a1,1,0,0,1,.87.42,1.76,1.76,0,0,0-.45-.95,1.79,1.79,0,0,0-.88-.3H54.14l2.68,3.81C57,39.82,57.18,39.5,57.4,39.44Z"/><polygon class="cls-12" points="48.02 27.7 50.22 30.82 60.15 30.82 60.14 27.7 48.02 27.7"/><path class="cls-12" d="M57.8,41.58l0,.05Z"/><polygon class="cls-12" points="44.04 22.05 47.57 27.07 60.14 27.07 60.12 22.05 44.04 22.05"/><polygon class="cls-12" points="60.17 35.8 60.15 31.45 50.66 31.45 53.73 35.8 60.17 35.8"/><polygon class="cls-12" points="38.22 13.8 43.6 21.42 60.12 21.42 60.06 5.01 38.22 13.8"/><polygon class="cls-13" points="57.93 3.52 55.12 1.57 35.98 8.2 37.07 10.92 57.93 3.52"/><polygon class="cls-13" points="60.06 5.01 58.55 3.96 37.3 11.5 38.22 13.8 60.06 5.01"/><polygon class="cls-14" points="0 20.67 1.26 21.7 2.03 19.97 0 20.67"/><polygon class="cls-15" points="113.61 61.99 113.61 45.33 114.08 45.33 114.08 45.1 107.46 45.1 107.58 45.38 107.58 66.73 108.94 67.35 113.61 61.99"/><path class="cls-15" d="M70.33,45.33l.1-.23H64.15l.12.28v1.54l6.05,2.77Q70.33,47.5,70.33,45.33Z"/><path class="cls-15" d="M99.2,45.33l.1-.23H93l.12.28V60.12l6,2.77V45.33Z"/><path class="cls-15" d="M78.71,45.38v8.14l6.05,2.77v-11l.1-.23H78.59Z"/><path class="cls-16" d="M78.71,66.77l6.05,7.07V56.28l-6.05-2.77Z"/><path class="cls-16" d="M99.2,79V62.89l-6-2.77V83.63l1.11,1.29Z"/><polygon class="cls-16" points="107.58 66.73 107.58 68.98 108.94 67.35 107.58 66.73"/><path class="cls-16" d="M70.33,49.68l-6.05-2.77v3L70.33,57Z"/><polygon class="cls-17" points="113.61 71.56 113.61 61.99 108.94 67.35 113.61 71.56"/><path class="cls-18" d="M93.15,83.63v2.56l1.11-1.27Z"/><path class="cls-18" d="M78.71,95.7H78v.51h.19v.37h-.29v.51h-.46v.61h-.77v2.39H81l3.82-4.38h-.09V73.83l-6.05-7.06Z"/><polygon class="cls-19" points="113.61 71.56 108.94 67.35 107.58 68.98 107.58 84.92 113.61 84.92 113.61 71.56"/><polygon class="cls-19" points="99.2 84.92 99.2 79.01 94.25 84.92 99.2 84.92"/><polygon class="cls-10" points="99.2 90.64 99.2 84.92 94.25 84.92 99.2 90.64"/><polygon class="cls-10" points="107.58 84.92 107.58 95.7 106.9 95.7 106.9 96.21 107.1 96.21 107.1 96.58 106.81 96.58 106.81 97.08 106.35 97.08 106.35 97.69 105.58 97.69 105.58 98.03 107.35 100.08 113.61 100.08 114.58 100.08 114.58 97.58 113.61 97.58 113.61 84.92 107.58 84.92"/><path class="cls-20" d="M94.26,84.92l-1.11,1.27V95.7h-.68v.51h.19v.37h-.29v.51h-.45v.61h-.77v2.39h10.06V97.7h-.77v-.61H100v-.51h-.29v-.37h.19V95.7H99.2V90.65Z"/><path class="cls-20" d="M86.77,100.08V97.69H86v-.61h-.46v-.51h-.29v-.37h.19V95.7h-.59L81,100.08Z"/><polygon class="cls-20" points="105.58 100.08 107.35 100.08 105.58 98.03 105.58 100.08"/><path class="cls-21" d="M71.56,97.09h-.46v-.51h-.29v-.37H71V95.7h-.68V59l-6.05,3.46V92.49l5.88,7.59h2.18V97.69h-.77C71.56,97.49,71.56,97.29,71.56,97.09Z"/><path class="cls-21" d="M55.89,67.22l-6.05,3.46v3.18l6.05,7.81Z"/><path class="cls-22" d="M27,83.68V47.32L25.09,45.1H25l-.14,39.82Z"/><path class="cls-22" d="M41.46,64,35.4,57V78.91l6.05-3.45Z"/><path class="cls-23" d="M43.46,100.08V97.69h-.77v-.61h-.46v-.51h-.29v-.37h.19V95.7h-.68V92.09L35.4,89.48V95.7h-.68V96l.16.19h0v0l3.41,3.84Z"/><path class="cls-23" d="M27,87.36V85.86l-2.17-.94Z"/><path class="cls-23" d="M49.83,95.7h-.67v.51h.19v.37h-.29v.51H48.6v.61h-.77v2.39H57.9v-.9Z"/><polygon class="cls-24" points="12.58 70.24 12.58 59.83 8.23 65.03 12.58 70.24"/><polygon class="cls-24" points="24.99 45.1 24.9 45.1 20.97 49.8 20.97 80.28 24.85 84.92 24.99 45.1"/><polygon class="cls-25" points="20.84 45.1 20.97 45.38 20.97 49.8 24.9 45.1 20.84 45.1"/><polygon class="cls-25" points="12.58 59.83 12.58 45.33 12.69 45.1 6.09 45.1 6.09 45.33 6.55 45.33 6.55 63.1 8.23 65.03 12.58 59.83"/><path class="cls-26" d="M55.89,45.33l.1-.23H49.71l.13.28V67.84l6.05-13.54Q55.89,49.82,55.89,45.33Z"/><path class="cls-26" d="M41.46,45.33l.1-.23H35.28l.13.28V57l6.05,7Z"/><path class="cls-26" d="M27,45.33l.1-.23h-2L27,47.32Q27,46.32,27,45.33Z"/><polygon class="cls-27" points="6.55 63.1 6.55 68.36 8.23 65.03 6.55 63.1"/><path class="cls-28" d="M34.92,96.25v.33h-.29v.51h-.45v.61H33.4v2.39h4.93Z"/><path class="cls-28" d="M34.72,96.21h.16L34.72,96Z"/><path class="cls-28" d="M24.85,100.08H29V97.69h-.77v-.61H27.8v-.51h-.29v-.37h.19V95.7H27V87.36l-2.17-2.44Z"/><path class="cls-29" d="M41.46,75.46,35.4,78.91V89.48l6.05,2.61Z"/><path class="cls-29" d="M27,85.86V83.68l-2.17,1.24Z"/><path class="cls-29" d="M64.27,95.7H63.6v.51h.19v.37H63.5v.51H63v.61h-.77v2.39h7.89l-5.88-7.59Q64.27,94.1,64.27,95.7Z"/><path class="cls-29" d="M57.9,97.69h-.77v-.61h-.45v-.51h-.3v-.37h.19V95.7h-.68v-14l-6.05-7.81V95.7h0l8.07,3.48Q57.9,98.44,57.9,97.69Z"/><polygon class="cls-30" points="12.58 70.24 8.23 65.03 6.55 68.36 6.55 92.75 12.58 90.17 12.58 70.24"/><polygon class="cls-30" points="20.97 80.28 20.97 86.58 24.85 84.92 20.97 80.28"/><path class="cls-31" d="M55.89,54.31,49.84,67.84v2.84l6.05-3.46Z"/><path class="cls-31" d="M70.33,57l-6.05-7.07V62.44L70.33,59Z"/><polygon class="cls-18" points="20.97 86.58 20.97 89.38 24.85 84.92 20.97 86.58"/><polygon class="cls-18" points="13.82 97.08 13.36 97.08 13.36 96.58 13.07 96.58 13.07 96.21 13.26 96.21 13.26 95.7 12.58 95.7 12.58 90.17 6.55 92.75 6.55 97.58 5.58 97.58 5.58 100.08 6.55 100.08 11.66 100.08 13.82 97.61 13.82 97.08"/><polygon class="cls-32" points="14.59 97.69 13.82 97.69 13.82 97.61 11.66 100.08 14.59 100.08 14.59 97.69"/><polygon class="cls-32" points="24.85 84.92 20.97 89.38 20.97 95.7 20.29 95.7 20.29 96.21 20.48 96.21 20.48 96.58 20.19 96.58 20.19 97.08 19.73 97.08 19.73 97.69 18.96 97.69 18.96 100.08 24.85 100.08 24.85 84.92"/></g></g></svg>
