<svg xmlns="http://www.w3.org/2000/svg" viewBox="0 0 118.86 134.13" width="118.86" height="134.13"><defs><style>.cls-1{fill:none;}.cls-2{fill:#a72f6d;}.cls-3{fill:#aa2754;}.cls-4{fill:#852c5a;}.cls-5{fill:#bf325b;}.cls-6{fill:#a2304b;}.cls-7{fill:#5e1f69;}.cls-8{fill:#630035;}.cls-9{fill:#b50e54;}.cls-10{fill:#be2e51;}.cls-11{fill:#90244d;}.cls-12{fill:#c60c5a;}.cls-13{fill:#5d0333;}.cls-14{fill:#60206a;}.cls-15{fill:#671042;}.cls-16{fill:#3e1a52;}.cls-17{fill:#4e1a59;}.cls-18{fill:#770d3f;}.cls-19{fill:#b01560;}.cls-20{fill:#c9363f;}.cls-21{fill:#f4af7e;}.cls-22{fill:#eb74a2;}.cls-23{fill:#eba867;}.cls-24{fill:#f5b172;}.cls-25{fill:#f0946e;}.cls-26{fill:#de5657;}.cls-27{fill:#f3c99a;}.cls-28{fill:#df5754;}.cls-29{fill:#fadab1;}.cls-30{fill:#df684c;}.cls-31{fill:#c1303b;}.cls-32{fill:#f3a077;}.cls-33{fill:#f9cc92;}.cls-34{fill:#fbd497;}.cls-35{fill:#fbdfc2;}.cls-36{fill:#f5d1af;}.cls-37{fill:#e8767c;}.cls-38{fill:#c13d38;}.cls-39{fill:#a92563;}.cls-40{fill:#b0135c;}.cls-41{fill:#d3315a;}.cls-42{fill:#e34c7b;}.cls-43{fill:#dc4765;}.cls-44{fill:#8e1d6d;}.cls-45{fill:#8b1848;}.cls-46{fill:#681656;}.cls-47{fill:#4d0a43;}.cls-48{fill:#690b44;}.cls-49{fill:#6b1a4e;}.cls-50{fill:#501b5c;}.cls-51{fill:#3d0f47;}.cls-52{fill:#4c0c44;}.cls-53{fill:#782e7f;}.cls-54{fill:#894898;}.cls-55{fill:#98348e;}.cls-56{fill:#762a7f;}.cls-57{fill:#702c7c;}.cls-58{fill:#aa579d;}.cls-59{fill:#4d195c;}.cls-60{fill:#cb456a;}.cls-61{fill:#c5478f;}.cls-62{fill:#ce5c9e;}.cls-63{fill:#a92368;}.cls-64{fill:#c65988;}.cls-65{fill:#b13e68;}</style></defs><title>资源 2</title><g id="图层_2" data-name="图层 2"><g id="央铋_1" data-name="央铋 1"><polygon class="cls-1" points="40.31 63.42 32.63 55.32 32.63 55.32 40.31 63.42"/><polygon class="cls-1" points="31.06 53.68 31.06 53.68 23.38 45.58 23.38 45.58 28.42 50.9 31.06 53.68"/><polygon class="cls-1" points="13.67 107.14 13.67 107.14 21.12 111.83 13.67 107.14"/><polygon class="cls-1" points="41.85 65.06 41.89 65.11 41.89 65.11 41.85 65.06"/><polygon class="cls-1" points="21.83 43.94 21.83 43.94 21.12 43.18 21.83 43.94"/><polygon class="cls-1" points="4.97 101.66 4.97 101.66 11.81 105.97 11.81 105.97 11.45 105.74 4.97 101.66"/><polygon class="cls-1" points="18.27 18.26 18.27 18.26 21.12 20.06 18.27 18.26"/><polygon class="cls-2" points="59.47 0.57 53.57 0.48 50.63 4.88 53.63 9.37 60.49 2.1 59.47 0.57"/><polygon class="cls-2" points="47.62 0.39 49.3 2.9 50.95 0.44 47.62 0.39"/><polygon class="cls-2" points="61.87 0.61 61.88 0.63 61.89 0.61 61.87 0.61"/><polygon class="cls-2" points="42.26 13.43 48.12 4.67 45.23 0.35 37.98 0.24 37.02 1.68 39.38 9.13 42.26 13.43"/><polygon class="cls-2" points="45.39 18.11 52.25 10.84 49.44 6.65 43.58 15.41 45.39 18.11"/><polygon class="cls-2" points="44 19.58 42.4 17.18 42.07 17.66 43.01 20.63 44 19.58"/><polygon class="cls-3" points="37.02 1.68 35.7 3.64 39.38 9.13 37.02 1.68"/><polygon class="cls-3" points="33.19 3.44 30.98 0.13 23.56 0.02 30.53 7.41 33.19 3.44"/><polygon class="cls-3" points="42.07 17.66 41.3 18.82 43.01 20.63 42.07 17.66"/><polygon class="cls-3" points="39.75 17.18 41.07 15.2 34.52 5.41 32.08 9.05 39.75 17.18"/><polygon class="cls-3" points="33.38 0.17 34.38 1.66 35.36 0.2 33.38 0.17"/><polygon class="cls-4" points="35.21 23.96 37.53 20.49 32.8 20.36 35.21 23.96"/><polygon class="cls-4" points="40.13 20.55 36.53 25.94 37.08 26.76 43.01 20.63 40.13 20.55"/><polygon class="cls-4" points="24.65 20.15 21.61 24.7 28.16 34.48 34.02 25.73 30.39 20.3 24.65 20.15"/><polygon class="cls-4" points="24.89 39.37 26.97 36.26 21.14 27.55 21.2 43.18 24.89 39.37"/><polygon class="cls-4" points="21.12 21.47 22.05 20.08 21.12 20.06 21.12 21.47"/><polygon class="cls-4" points="33.51 30.45 35.68 28.21 35.35 27.71 33.51 30.45"/><polygon class="cls-5" points="56.12 34.14 56.67 34.96 56.91 34.95 56.12 34.14"/><polygon class="cls-5" points="45.94 31.46 48.95 26.96 48.48 26.27 43.01 20.63 45.94 31.46"/><polygon class="cls-5" points="50.27 28.95 46.7 34.28 47.02 35.46 47.08 35.5 48.44 35.42 54.38 35.09 50.27 28.95"/><polygon class="cls-6" points="29.48 36.47 33.98 43.18 38.09 43.18 41.9 37.49 35.68 28.21 33.51 30.45 29.48 36.47"/><polygon class="cls-6" points="45.09 42.27 43.22 39.47 40.74 43.18 44.97 43.18 45.09 42.27"/><polygon class="cls-6" points="46.09 35.19 45.84 35.57 46.04 35.56 46.09 35.19"/><polygon class="cls-6" points="46.23 34.99 47.02 35.46 46.7 34.28 46.23 34.99"/><polygon class="cls-6" points="44.41 37.7 45.51 39.34 45.93 36.31 45.99 35.92 45.71 35.76 44.41 37.7"/><polygon class="cls-6" points="28.3 38.24 24.99 43.18 31.61 43.18 28.3 38.24"/><polygon class="cls-6" points="45.94 31.46 43.01 20.63 37.08 26.76 43.08 35.72 45.94 31.46"/><polygon class="cls-6" points="22.34 43.18 24.89 39.37 21.2 43.18 22.34 43.18"/><polygon class="cls-7" points="44.68 20.6 44 19.58 43.01 20.63 44.68 20.6"/><polygon class="cls-7" points="53.63 9.37 57.18 14.66 63.04 5.91 60.49 2.1 53.63 9.37"/><polygon class="cls-7" points="57.32 18.41 56.01 20.37 58.6 20.32 57.32 18.41"/><polygon class="cls-7" points="47.02 20.55 53.32 20.43 55.99 16.44 52.25 10.84 45.39 18.11 47.02 20.55"/><polygon class="cls-7" points="61.89 0.61 61.88 0.63 64.23 4.14 64.9 3.14 64.9 0.66 61.89 0.61"/><polygon class="cls-7" points="64.9 8.68 64.37 7.89 58.51 16.64 60.94 20.28 64.9 20.2 64.9 8.68"/><polygon class="cls-8" points="64.9 30.63 62.2 34.65 64.9 34.5 64.9 30.63"/><polygon class="cls-8" points="50.13 25.19 53.32 20.43 47.02 20.55 50.13 25.19"/><polygon class="cls-8" points="48.48 26.27 44.68 20.6 43.01 20.63 48.48 26.27"/><polygon class="cls-8" points="60.94 20.28 64.9 26.19 64.9 20.2 60.94 20.28"/><polygon class="cls-8" points="59.45 34.8 63.87 28.2 58.6 20.32 56.01 20.37 51.46 27.17 56.12 34.14 56.91 34.95 59.45 34.8"/><polygon class="cls-6" points="21.12 20.06 22.05 20.08 26.14 13.96 21.12 6.45 21.12 20.06"/><polygon class="cls-6" points="27.47 15.94 24.65 20.15 30.39 20.3 27.47 15.94"/><polygon class="cls-6" points="41.3 18.82 40.13 20.55 43.01 20.63 41.3 18.82"/><polygon class="cls-6" points="28.66 14.17 32.8 20.36 37.53 20.49 39.75 17.18 32.08 9.05 28.66 14.17"/><polygon class="cls-6" points="21.12 2.91 27.33 12.19 30.53 7.41 23.56 0.02 22.39 0 21.12 1.9 21.12 2.91"/><polygon class="cls-9" points="20.8 2.38 20.79 2.42 21.12 2.91 21.12 1.9 20.8 2.38"/><polygon class="cls-9" points="21.12 6.45 20.34 5.29 18.27 18.26 21.12 20.06 21.12 6.45"/><polygon class="cls-10" points="17.51 43.18 14.91 39.3 14.29 43.18 17.51 43.18"/><polygon class="cls-10" points="21.2 43.18 15.47 35.82 15.37 36.44 19.88 43.18 21.12 43.18 21.2 43.18"/><polygon class="cls-11" points="21.2 43.18 21.14 27.55 20.42 26.47 15.88 33.26 15.47 35.82 21.2 43.18"/><polygon class="cls-11" points="17.62 22.29 16.7 28.07 19.1 24.49 17.62 22.29"/><polygon class="cls-11" points="19.01 20.82 20.28 22.72 21.12 21.47 21.12 20.06 19.01 20.82"/><polygon class="cls-12" points="18.27 18.26 18.08 19.43 19.01 20.82 21.12 20.06 18.27 18.26"/><polygon class="cls-13" points="78.57 33.73 81.56 33.57 80.18 31.51 80.08 31.47 78.57 33.73"/><polygon class="cls-13" points="73.84 34 75.82 33.89 78.01 30.62 77.38 30.36 73.84 34"/><polygon class="cls-13" points="83.45 32.85 83.85 33.44 84.77 33.39 83.45 32.85"/><polygon class="cls-14" points="79.98 27.67 80.25 27.27 79.94 27.6 79.98 27.67"/><polygon class="cls-14" points="78.01 30.62 78.8 29.44 78.56 29.09 77.38 30.36 78.01 30.62"/><polygon class="cls-14" points="80.08 31.47 80.18 31.51 80.12 31.42 80.08 31.47"/><polygon class="cls-14" points="87.63 33.23 86.56 21.8 81.31 29.65 83.45 32.85 84.77 33.39 87.63 33.23"/><polygon class="cls-15" points="69.42 23.88 66.38 28.41 70.26 34.2 73.84 34 77.38 30.36 69.42 23.88"/><polygon class="cls-15" points="67.97 34.33 65.2 30.18 64.9 30.63 64.9 34.5 67.97 34.33"/><polygon class="cls-15" points="64.9 26.19 65.06 26.43 67.7 22.48 64.9 20.2 64.9 26.19"/><polygon class="cls-16" points="71.88 20.2 69.42 23.88 77.38 30.36 78.56 29.09 72.61 20.2 71.88 20.2"/><polygon class="cls-16" points="79.94 27.6 80.25 27.27 84.98 20.2 74.98 20.2 79.94 27.6"/><polygon class="cls-16" points="67.7 22.48 69.23 20.2 64.9 20.2 67.7 22.48"/><polygon class="cls-15" points="73.43 17.88 74.98 20.2 84.98 20.2 85.73 19.09 78.02 11.02 73.43 17.88"/><polygon class="cls-15" points="72.25 19.65 71.88 20.2 72.61 20.2 72.25 19.65"/><polygon class="cls-15" points="64.9 20.2 69.23 20.2 70.92 17.67 64.9 8.68 64.9 20.2"/><polygon class="cls-15" points="65.55 6.12 72.11 15.9 76.46 9.39 68.76 1.33 65.55 6.12"/><polygon class="cls-15" points="64.9 3.14 66.54 0.68 64.9 0.66 64.9 3.14"/><polygon class="cls-17" points="76.11 0.83 79.15 5.37 81.25 2.24 76.62 0.84 76.11 0.83"/><polygon class="cls-17" points="76.46 9.39 77.97 7.14 73.72 0.79 69.17 0.72 68.76 1.33 76.46 9.39"/><polygon class="cls-17" points="80.48 7.35 85.98 15.56 84.83 3.33 83.45 2.91 80.48 7.35"/><polygon class="cls-17" points="78.02 11.02 85.73 19.09 85.84 18.91 79.29 9.12 78.02 11.02"/><polygon class="cls-18" points="83.45 2.91 84.83 3.33 84.63 1.16 83.45 2.91"/><polygon class="cls-18" points="81.25 2.24 82.13 0.92 76.62 0.84 81.25 2.24"/><polygon class="cls-19" points="21.12 43.18 22.07 43.58 22.34 43.18 21.2 43.18 21.12 43.18"/><polygon class="cls-19" points="34.85 48.02 31.61 43.18 24.99 43.18 24.15 44.44 34.41 48.68 34.85 48.02"/><polygon class="cls-19" points="36.04 46.25 38.09 43.18 33.98 43.18 36.04 46.25"/><polygon class="cls-19" points="44.97 43.18 40.74 43.18 37.36 48.23 38.91 50.54 43.66 52.5 44.97 43.18"/><polygon class="cls-20" points="32.62 55.32 40.29 63.42 42.61 59.96 42.65 59.67 36.17 50 32.62 55.32"/><polygon class="cls-20" points="41.9 64.97 41.84 65.06 41.88 65.1 41.9 64.97"/><polygon class="cls-20" points="34.41 48.68 24.15 44.44 23.38 45.58 31.06 53.68 34.41 48.68"/><polygon class="cls-20" points="21.83 43.94 22.07 43.58 21.12 43.18 21.83 43.94"/><polygon class="cls-20" points="43.66 52.5 38.91 50.54 43.06 56.74 43.66 52.5"/><polygon class="cls-21" points="28.42 50.9 28.93 56.69 28.99 56.78 31.06 53.68 28.42 50.9"/><polygon class="cls-21" points="30.75 77.68 35.68 70.32 29.28 60.76 30.75 77.68"/><polygon class="cls-21" points="30.31 58.76 36.86 68.55 40.29 63.42 32.61 55.32 30.31 58.76"/><polygon class="cls-21" points="41.88 65.1 41.84 65.06 38.19 70.52 38.49 70.97 41.5 67.85 41.88 65.1"/><polygon class="cls-21" points="37 72.3 36.54 72.99 37.09 72.42 37 72.3"/><polygon class="cls-22" points="38.49 70.97 40.62 74.15 41.5 67.85 38.49 70.97"/><polygon class="cls-22" points="40.2 77.08 37.09 72.42 36.54 72.99 32.3 79.32 39.58 81.53 40.2 77.08"/><polygon class="cls-23" points="39.58 81.53 32.3 79.32 31.57 80.41 33.56 84.67 36.6 89.2 38.5 89.2 39.58 81.53"/><polygon class="cls-24" points="31.14 81.05 33.56 84.67 31.57 80.41 31.14 81.05"/><polygon class="cls-24" points="22.5 89.2 23.03 89.2 27.72 82.2 21.92 88.34 22.5 89.2"/><polygon class="cls-24" points="25.68 89.2 34.22 89.2 29.95 82.82 25.68 89.2"/><polygon class="cls-24" points="36.6 89.2 37.69 90.84 38.42 89.74 38.5 89.2 36.6 89.2"/><polygon class="cls-24" points="37.72 94.75 37.53 95.04 37.63 95.38 37.72 94.75"/><polygon class="cls-25" points="37.63 95.38 37.53 95.04 33 101.8 36.25 105.24 37.63 95.38"/><polygon class="cls-25" points="22.77 89.6 23.03 89.2 22.5 89.2 22.77 89.6"/><polygon class="cls-25" points="24.09 91.58 25.88 94.25 31.45 100.16 36.51 92.61 34.22 89.2 25.68 89.2 24.09 91.58"/><polygon class="cls-26" points="27.8 58.55 24.15 53.1 15.44 57.6 21.94 67.31 27.8 58.55"/><polygon class="cls-26" points="14.2 59.29 14.14 59.38 14.69 60.03 14.2 59.29"/><polygon class="cls-26" points="29.13 60.53 23.26 69.29 25.52 72.66 30.34 78.28 30.75 77.68 29.28 60.76 29.13 60.53"/><polygon class="cls-26" points="25.92 52.19 28.93 56.69 28.42 50.9 25.92 52.19"/><polygon class="cls-24" points="12.07 57.14 11.78 58.95 12.61 57.71 12.07 57.14"/><polygon class="cls-27" points="15.03 81.59 14.46 82.44 18.02 86.06 15.03 81.59"/><polygon class="cls-27" points="17.64 73.73 10.19 70.82 14.89 77.84 17.64 73.73"/><polygon class="cls-27" points="13.71 79.61 9.49 73.31 8.93 76.82 12.88 80.83 13.71 79.61"/><polygon class="cls-27" points="29.82 79.07 30.13 78.6 29.27 78.26 29.82 79.07"/><polygon class="cls-27" points="16.21 79.82 21.92 88.34 27.72 82.2 28.63 80.84 26.06 77.01 19.74 74.55 16.21 79.82"/><polygon class="cls-28" points="12.66 53.45 14.06 55.54 17.65 50.18 19.58 46.28 17.51 43.18 14.29 43.18 12.66 53.45"/><polygon class="cls-28" points="19.88 43.18 20.59 44.24 21.12 43.18 19.88 43.18"/><polygon class="cls-28" points="12.88 57.31 12.2 56.31 12.07 57.14 12.61 57.71 12.88 57.31"/><polygon class="cls-26" points="23.73 115.64 21.14 119.51 21.18 129.35 23.41 132.67 30.01 125.85 30.29 125.43 23.73 115.64"/><polygon class="cls-26" points="21.13 115.58 22.41 113.67 21.18 111.83 21.12 111.83 21.13 115.58"/><polygon class="cls-26" points="26.2 111.96 24.92 113.87 31.47 123.66 34.24 119.53 35.27 112.2 26.2 111.96"/><polygon class="cls-29" points="18.02 86.06 14.46 82.44 9.93 89.2 20.13 89.2 18.02 86.06"/><polygon class="cls-29" points="12.88 80.83 8.93 76.82 7.24 87.46 7.84 88.36 12.88 80.83"/><polygon class="cls-29" points="19.74 74.55 26.06 77.01 22.08 71.06 19.74 74.55"/><polygon class="cls-29" points="20.75 69.08 14.69 60.03 14.14 59.38 10.95 64.15 9.95 70.45 10.19 70.82 17.64 73.73 20.75 69.08"/><polygon class="cls-29" points="29.27 78.26 30.13 78.6 30.34 78.28 25.52 72.66 29.27 78.26"/><polygon class="cls-30" points="23.52 132.85 25.32 132.85 30.01 125.85 23.41 132.67 23.52 132.85"/><polygon class="cls-30" points="31.61 127.41 27.97 132.85 32.37 132.85 32.87 129.29 31.61 127.41"/><polygon class="cls-30" points="33.28 126.36 33.54 124.53 32.8 125.64 33.28 126.36"/><polygon class="cls-31" points="23.38 45.58 22.43 46.99 25.92 52.19 28.42 50.9 23.38 45.58"/><polygon class="cls-31" points="21.25 48.76 15.39 57.52 15.44 57.6 24.15 53.1 21.25 48.76"/><polygon class="cls-31" points="20.59 44.24 21.11 45.01 21.83 43.94 21.12 43.18 20.59 44.24"/><polygon class="cls-31" points="19.92 46.78 19.58 46.28 17.65 50.18 19.92 46.78"/><polygon class="cls-32" points="33 101.8 31.97 103.35 35.73 108.96 36.25 105.24 33 101.8"/><polygon class="cls-32" points="22.91 93.35 21.12 96.03 21.12 108.19 23.59 111.89 29.46 103.14 22.91 93.35"/><polygon class="cls-32" points="35.31 111.89 30.78 105.12 26.2 111.96 35.27 112.2 35.31 111.89"/><polygon class="cls-32" points="21.12 111.83 21.18 111.83 21.12 111.73 21.12 111.83"/><polygon class="cls-32" points="21.58 91.37 21.12 90.68 21.12 92.07 21.58 91.37"/><polygon class="cls-32" points="30.64 101.37 31.45 100.16 25.88 94.25 30.64 101.37"/><polygon class="cls-33" points="15.19 99.34 20.66 89.99 20.33 89.5 10.95 93 15.19 99.34"/><polygon class="cls-33" points="6.03 95.03 4.97 101.66 11.45 105.74 14.09 101.23 9.05 93.71 6.2 94.78 6.03 95.03"/><polygon class="cls-34" points="21.12 111.73 15.86 103.88 13.67 107.14 21.12 111.83 21.12 111.73"/><polygon class="cls-34" points="17.04 102.11 21.12 108.19 21.12 96.03 17.04 102.11"/><polygon class="cls-34" points="11.81 105.97 14.53 101.9 14.09 101.23 11.45 105.74 11.81 105.97"/><polygon class="cls-34" points="15.72 100.13 21.12 92.07 21.12 90.68 20.66 89.99 15.19 99.34 15.72 100.13"/><polygon class="cls-35" points="1.76 124.94 1.1 125.92 0.19 131.66 2.7 126.34 1.76 124.94"/><polygon class="cls-35" points="2.95 123.17 3.67 124.26 7.13 116.91 2.95 123.17"/><polygon class="cls-35" points="6.08 114.53 3.75 109.3 1.93 120.72 6.08 114.53"/><polygon class="cls-36" points="9.57 132.85 14.18 125.95 7.13 116.91 7.13 116.91 3.67 124.26 9.43 132.85 9.57 132.85"/><polygon class="cls-36" points="2.7 126.34 0.19 131.66 0 132.85 7.06 132.85 2.7 126.34"/><polygon class="cls-36" points="12.22 132.85 19.56 132.85 15.61 127.78 12.22 132.85"/><polygon class="cls-37" points="17.87 124.4 21.18 129.35 21.14 119.51 17.87 124.4"/><polygon class="cls-37" points="15.36 124.2 9.83 115.93 7.13 116.91 7.13 116.91 14.18 125.95 15.36 124.2"/><polygon class="cls-37" points="11.74 115.24 16.55 122.42 21.13 115.58 21.12 111.83 11.74 115.24"/><polygon class="cls-37" points="15.61 127.78 19.56 132.85 21.15 132.85 16.69 126.17 15.61 127.78"/><polygon class="cls-29" points="7.48 112.43 4.07 107.33 3.75 109.3 6.08 114.53 7.48 112.43"/><polygon class="cls-29" points="8.81 114.41 7.13 116.91 9.83 115.93 8.81 114.41"/><polygon class="cls-29" points="4.52 104.47 8.67 110.66 11.81 105.97 4.97 101.66 4.52 104.47"/><polygon class="cls-29" points="13.67 107.14 9.99 112.64 11.74 115.24 21.12 111.83 13.67 107.14"/><polygon class="cls-36" points="9.05 93.71 7.98 92.12 6.2 94.78 9.05 93.71"/><polygon class="cls-36" points="10.95 93 20.33 89.5 20.13 89.2 9.93 89.2 9.17 90.34 10.95 93"/><rect class="cls-1" x="34.63" y="123.38" width="23.2" height="0.01"/><polygon class="cls-12" points="55.74 132.85 57.23 132.68 57.52 128.16 52.97 132.85 55.74 132.85"/><polygon class="cls-38" points="33.3 132.85 36.77 132.85 34.5 124.35 33.3 132.85"/><polygon class="cls-39" points="34.5 124.35 36.77 132.85 52.97 132.85 57.52 128.16 57.84 123.39 34.63 123.39 34.5 124.35"/><polygon class="cls-40" points="34.63 123.38 57.84 123.38 57.95 121.65 36.13 112.72 34.63 123.38"/><polygon class="cls-5" points="48.07 108.63 47.09 108.49 47.2 107.7 40.27 100.4 37.43 103.47 36.13 112.72 57.95 121.65 58.11 119.17 54.85 115.79 48.07 108.63"/><polygon class="cls-41" points="47.2 107.7 49.37 90.97 40.27 100.4 47.2 107.7"/><polygon class="cls-41" points="54.31 109.5 48.07 108.63 54.85 115.79 54.31 109.5"/><polygon class="cls-41" points="37.86 100.4 37.43 103.47 40.27 100.4 37.86 100.4"/><polygon class="cls-42" points="38.17 98.2 37.86 100.4 40.27 100.4 38.17 98.2"/><polygon class="cls-12" points="49.37 90.97 49.88 87.03 40.15 84.08 38.17 98.2 40.27 100.4 49.37 90.97"/><polygon class="cls-43" points="50.35 83.38 47.6 77.48 41.08 77.48 40.15 84.08 49.88 87.03 50.35 83.38"/><polygon class="cls-44" points="50.35 83.38 51.12 77.48 47.6 77.48 50.35 83.38"/><polygon class="cls-45" points="43.09 63.2 41.08 77.48 47.6 77.48 43.09 63.2"/><polygon class="cls-46" points="51.12 77.48 52.46 67.19 43.81 58.03 43.09 63.2 47.6 77.48 51.12 77.48"/><polygon class="cls-11" points="54.85 115.79 58.45 113.93 58.7 110.12 54.31 109.5 54.85 115.79"/><polygon class="cls-47" points="55.76 41.79 53.59 40.49 45.03 49.35 44.33 54.39 54.09 54.64 55.76 41.79"/><polygon class="cls-48" points="46.85 36.44 45.03 49.35 53.59 40.49 46.85 36.44"/><polygon class="cls-2" points="54.85 115.79 58.11 119.17 58.45 113.93 54.85 115.79"/><polygon class="cls-11" points="54.09 54.64 44.33 54.39 43.81 58.03 52.46 67.19 54.09 54.64"/><polygon class="cls-14" points="88.77 30.13 89.08 34.09 93.99 38.22 95.13 37.01 88.77 30.13"/><polygon class="cls-14" points="95.13 37.01 93.99 38.22 98.87 42.32 100.45 43.65 101.11 48.48 106.25 48.48 95.13 37.01"/><polygon class="cls-49" points="106.25 48.48 106.25 42.91 104.47 30.18 101.43 25.71 95.13 37.01 106.25 48.48"/><polygon class="cls-50" points="101.43 25.71 97.79 20.35 88.29 24.03 88.77 30.13 95.13 37.01 101.43 25.71"/><polygon class="cls-51" points="94.33 15.27 88.11 21.74 88.29 24.03 97.79 20.35 94.33 15.27"/><polygon class="cls-52" points="106.94 47.78 106.25 42.91 106.25 48.48 106.94 47.78"/><polygon class="cls-16" points="107.04 48.48 106.94 47.78 106.25 48.48 107.04 48.48"/><polygon class="cls-17" points="86.73 4.08 88.11 21.74 94.33 15.27 86.73 4.08"/><polygon class="cls-51" points="106.25 48.48 107.08 48.83 107.04 48.48 106.25 48.48"/><polygon class="cls-53" points="107.17 49.46 107.08 48.83 106.25 48.48 107.17 49.46"/><polygon class="cls-47" points="107.38 94.65 113.5 94.65 112.57 87.96 107.24 93.61 107.38 94.65"/><polygon class="cls-14" points="107.57 96.04 114.77 103.67 113.5 94.65 107.38 94.65 107.57 96.04"/><polygon class="cls-14" points="104.09 70.44 111.29 78.84 108.5 58.95 102.92 61.84 104.09 70.44"/><polygon class="cls-54" points="107.24 93.61 112.57 87.96 111.83 82.65 105.4 80.07 107.24 93.61"/><polygon class="cls-55" points="101.11 48.48 102.22 56.71 106.25 48.48 101.11 48.48"/><polygon class="cls-56" points="112.57 132.85 113.5 132.85 118.19 128.05 117.19 120.97 111.19 122.67 112.57 132.85"/><polygon class="cls-57" points="105.4 80.07 111.83 82.65 111.29 78.84 104.09 70.44 105.4 80.07"/><polygon class="cls-58" points="118.86 132.85 118.19 128.05 113.5 132.85 118.86 132.85"/><polygon class="cls-16" points="102.22 56.71 102.92 61.84 108.5 58.95 107.17 49.46 106.25 48.48 102.22 56.71"/><polygon class="cls-48" points="111.19 122.67 117.19 120.97 114.77 103.67 107.57 96.04 111.19 122.67"/><polygon class="cls-53" points="94.39 39.76 92.4 38.09 92.69 41.53 94.39 39.76"/><polygon class="cls-14" points="97.83 43.09 98.27 43.02 94.39 39.76 92.69 41.53 97.83 43.09"/><polygon class="cls-59" points="92.69 41.53 93.69 43.67 97.83 43.09 92.69 41.53"/><polygon class="cls-47" points="90.2 44.17 93.69 43.67 92.69 41.53 90.2 44.17"/><polygon class="cls-14" points="48.49 36.34 56.23 41 56.75 41.31 56.69 41.77 58.93 41.72 50.25 36.25 48.49 36.34"/><polygon class="cls-14" points="92.4 38.09 87.72 34.15 86.43 34.22 92.69 41.53 92.4 38.09"/><polygon class="cls-54" points="75.94 34.81 67.24 35.3 77.39 45.99 90.2 44.17 92.69 41.53 75.94 34.81"/><polygon class="cls-47" points="57.94 35.82 60.54 41.68 61.17 41.67 61.16 35.64 57.94 35.82"/><polygon class="cls-57" points="61.16 35.64 61.17 41.67 70.31 41.46 77.01 46.04 77.39 45.99 67.24 35.3 61.16 35.64"/><polygon class="cls-57" points="86.43 34.22 75.94 34.81 92.69 41.53 86.43 34.22"/><polygon class="cls-48" points="50.25 36.25 58.93 41.72 60.54 41.68 57.94 35.82 50.25 36.25"/><polygon class="cls-1" points="78.84 129.6 78.84 129.6 80.86 131.74 78.84 129.6"/><rect class="cls-1" x="75.04" y="121.09" height="9.04" transform="translate(-65.82 86.02) rotate(-43.45)"/><rect class="cls-1" x="100.92" y="131.73" width="1.83"/><rect class="cls-1" x="83.34" y="131.73" width="4.67"/><rect class="cls-1" x="62.34" y="109.25" height="5.9" transform="translate(-60.07 73.6) rotate(-43.44)"/><polygon class="cls-1" points="82.2 131.74 82.2 131.74 80.86 131.74 82.2 131.74"/><polygon class="cls-1" points="65.06 115.06 66.28 116.35 71.28 121.62 71.28 121.62 65.06 115.06 65.06 115.06"/><rect class="cls-1" x="95.1" y="131.73" width="4.67"/><rect class="cls-1" x="91.56" y="129.34" height="4.79"/><polygon class="cls-48" points="97.44 49.14 94.22 53.94 100.46 60.47 100.7 60.11 99.6 52.37 97.44 49.14"/><polygon class="cls-48" points="88.19 45.39 87.31 46.71 93.54 53.24 96.86 48.28 94.34 44.52 88.19 45.39"/><polygon class="cls-48" points="86.63 46 86.92 45.57 86.3 45.66 86.63 46"/><polygon class="cls-48" points="98.01 48.28 99.29 50.2 98.84 47.04 98.01 48.28"/><polygon class="cls-48" points="98.4 43.94 95.39 44.37 97.44 47.43 98.64 45.62 98.4 43.94 98.4 43.94"/><polygon class="cls-39" points="91.56 57.92 90.69 59.22 92.87 59.88 91.56 57.92"/><polygon class="cls-39" points="90.98 57.06 85.68 49.14 80.92 56.26 89.73 58.93 90.98 57.06"/><polygon class="cls-39" points="92.13 57.06 94.31 60.32 99.5 61.89 100.46 60.47 94.22 53.94 92.13 57.06"/><polygon class="cls-39" points="86.25 48.28 91.56 56.2 93.54 53.24 87.31 46.71 86.25 48.28"/><polygon class="cls-39" points="100.9 61.53 100.46 62.18 101.01 62.35 100.9 61.53"/><polygon class="cls-39" points="84.65 45.89 85.68 47.43 86.63 46 86.3 45.66 84.65 45.89"/><polygon class="cls-39" points="85.11 48.28 83.6 46.04 77.14 46.96 77.13 46.96 77.96 53.45 79.56 55.84 79.96 55.97 85.11 48.28"/><polygon class="cls-60" points="92.87 59.88 90.69 59.22 88.24 62.88 94.87 62.88 92.87 59.88"/><polygon class="cls-60" points="79.96 55.97 79.56 55.84 79.8 56.2 79.96 55.97"/><polygon class="cls-60" points="78.23 55.58 78.55 58.07 79.23 57.06 78.23 55.58"/><polygon class="cls-60" points="101.01 62.35 100.46 62.18 100 62.88 101.09 62.88 101.01 62.35"/><polygon class="cls-60" points="87.09 62.88 89.73 58.93 80.92 56.26 80.38 57.06 84.27 62.88 87.09 62.88"/><polygon class="cls-60" points="96.02 62.88 98.85 62.88 99.5 61.89 94.31 60.32 96.02 62.88"/><polygon class="cls-60" points="79.8 57.92 78.73 59.51 79.17 62.88 83.12 62.88 79.8 57.92"/><polygon class="cls-2" points="80.63 74.25 80.75 75.17 85.06 81.62 89.3 77.13 90.98 74.62 85.68 66.7 80.63 74.25"/><polygon class="cls-2" points="88.24 62.88 86.25 65.84 91.56 73.77 96.86 65.84 94.87 62.88 88.24 62.88"/><polygon class="cls-2" points="100 62.88 98.01 65.84 98.82 67.05 101.31 64.41 101.09 62.88 100 62.88"/><polygon class="cls-2" points="85.68 64.99 87.09 62.88 84.27 62.88 85.68 64.99"/><polygon class="cls-2" points="93.26 72.94 98.14 67.76 97.44 66.7 93.26 72.94"/><polygon class="cls-2" points="85.11 65.84 83.12 62.88 79.17 62.88 80.44 72.81 85.11 65.84"/><polygon class="cls-2" points="81.02 77.29 81.99 84.88 84.39 82.34 81.02 77.29"/><polygon class="cls-2" points="97.44 64.99 98.85 62.88 96.02 62.88 97.44 64.99"/><polygon class="cls-5" points="92.88 108.63 101.99 108.63 100.31 106.11 96.91 102.61 92.88 108.63"/><polygon class="cls-5" points="90.24 108.63 85.68 101.82 85.28 102.42 86.96 108.63 90.24 108.63"/><polygon class="cls-5" points="85.68 100.1 89.27 94.74 82.99 88.27 82.52 88.99 83.3 95.08 83.96 97.54 85.68 100.1"/><polygon class="cls-5" points="84.95 101.19 85.11 100.96 84.74 100.42 84.95 101.19"/><polygon class="cls-5" points="86.25 100.96 91.39 108.63 91.73 108.63 96.23 101.91 89.95 95.44 86.25 100.96"/><polygon class="cls-6" points="83.8 99.01 84.22 102.28 84.95 101.19 84.74 100.42 83.8 99.01"/><polygon class="cls-6" points="85.28 102.42 84.41 103.72 85.03 108.63 86.96 108.63 85.28 102.42"/><polygon class="cls-6" points="83.96 97.54 83.3 95.08 83.53 96.89 83.96 97.54"/><polygon class="cls-7" points="102.75 76.32 98.01 83.4 99.55 85.71 102.75 85.65 102.75 76.32"/><polygon class="cls-7" points="97.44 84.26 96.42 85.77 98.42 85.73 97.44 84.26"/><polygon class="cls-7" points="85.68 84.26 84.51 86.01 86.82 85.96 85.68 84.26"/><polygon class="cls-7" points="85.68 82.54 89.3 77.13 85.06 81.62 85.68 82.54"/><polygon class="cls-7" points="96.86 83.4 91.56 75.48 86.25 83.4 87.95 85.94 95.26 85.8 96.86 83.4"/><polygon class="cls-7" points="92.13 74.62 97.44 82.54 102.74 74.62 98.14 67.76 93.26 72.94 92.13 74.62"/><polygon class="cls-7" points="83.35 86.03 85.11 83.4 84.39 82.34 81.99 84.88 82.14 86.05 83.35 86.03"/><polygon class="cls-7" points="102.45 72.48 101.31 64.41 98.82 67.05 102.45 72.48"/><polygon class="cls-8" points="98.42 85.73 96.42 85.77 92.13 92.18 97.44 100.1 102.74 92.18 98.42 85.73"/><polygon class="cls-8" points="99.55 85.71 102.75 90.49 102.75 85.65 99.55 85.71"/><polygon class="cls-8" points="82.33 87.55 83.35 86.03 82.14 86.05 82.33 87.55"/><polygon class="cls-8" points="90.98 92.18 86.82 85.96 84.51 86.01 82.99 88.27 89.27 94.74 90.98 92.18"/><polygon class="cls-8" points="87.95 85.94 91.56 91.33 95.26 85.8 87.95 85.94"/><polygon class="cls-8" points="98.01 100.96 102.75 108.05 102.75 93.88 98.01 100.96"/><polygon class="cls-8" points="96.91 102.61 100.31 106.11 97.44 101.82 96.91 102.61"/><polygon class="cls-8" points="89.95 95.44 96.23 101.91 96.86 100.96 91.56 93.04 89.95 95.44"/><polygon class="cls-13" points="103.14 108.63 103.48 108.63 105.09 106.23 102.98 108.39 103.14 108.63"/><polygon class="cls-13" points="107.06 105 104.63 108.63 107.58 108.63 107.06 105"/><polygon class="cls-15" points="103.31 93.04 102.75 93.88 102.75 108.05 102.98 108.39 105.09 106.23 106.86 103.58 105.92 96.93 103.31 93.04"/><polygon class="cls-15" points="103.89 92.18 105.61 94.76 105.01 90.51 103.89 92.18"/><polygon class="cls-15" points="102.75 90.49 103.31 91.33 104.81 89.09 104.52 87.09 102.75 85.65 102.75 90.49"/><polygon class="cls-16" points="102.75 85.65 104.52 87.09 104.32 85.65 102.75 85.65"/><polygon class="cls-15" points="104.32 85.65 102.95 76.02 102.75 76.32 102.75 85.65 104.32 85.65"/><polygon class="cls-19" points="95.36 116.29 91.56 110.6 86.25 118.52 87.54 120.44 90.27 121.57 95.36 116.29"/><polygon class="cls-19" points="66.21 111.62 67.43 109.8 62.27 109.99 66.21 111.62"/><polygon class="cls-19" points="80.67 109.31 80.38 109.74 85.68 117.66 90.98 109.74 90.24 108.63 86.96 108.63 85.03 108.63 85.1 109.14 80.67 109.31"/><polygon class="cls-19" points="67.11 112 69.7 113.06 68.05 110.6 67.11 112"/><polygon class="cls-19" points="92.13 109.74 96.04 115.58 102.31 109.09 101.99 108.63 92.88 108.63 92.13 109.74"/><polygon class="cls-19" points="79.23 109.74 78.98 109.37 68.63 109.75 71.28 113.72 75.42 115.43 79.23 109.74"/><polygon class="cls-19" points="91.56 108.88 91.73 108.63 91.39 108.63 91.56 108.88"/><polygon class="cls-19" points="85.11 118.52 79.8 110.6 76.32 115.8 84.63 119.24 85.11 118.52"/><polygon class="cls-19" points="85.68 119.38 85.53 119.61 85.95 119.79 85.68 119.38"/><polygon class="cls-20" points="65.06 115.06 71.28 121.62 73.35 118.52 69.7 113.06 67.11 112 65.06 115.06"/><polygon class="cls-20" points="81.64 130.9 79.8 128.16 78.84 129.6 80.86 131.74 81.64 130.9"/><polygon class="cls-20" points="88.46 123.53 85.95 119.79 85.53 119.61 80.38 127.3 82.3 130.18 88.46 123.53"/><polygon class="cls-20" points="60.33 110.06 64.39 114.35 66.21 111.62 62.27 109.99 60.33 110.06"/><polygon class="cls-20" points="87.54 120.44 89.12 122.81 90.27 121.57 87.54 120.44"/><polygon class="cls-20" points="79.23 127.3 73.92 119.38 71.95 122.33 78.17 128.89 79.23 127.3"/><polygon class="cls-20" points="84.63 119.24 76.32 115.8 74.5 118.52 79.8 126.44 84.63 119.24"/><polygon class="cls-20" points="75.42 115.43 71.28 113.72 73.92 117.66 75.42 115.43"/><polygon class="cls-31" points="102.75 131.31 102.75 128.99 101.56 130.77 102.75 131.73 102.75 131.31"/><polygon class="cls-31" points="97.44 117.66 102.74 109.74 102.31 109.09 96.04 115.58 97.44 117.66"/><polygon class="cls-31" points="102.74 127.3 97.44 119.38 93.96 124.58 100.82 130.16 102.74 127.3"/><polygon class="cls-31" points="93.21 123.97 96.86 118.52 95.36 116.29 90.27 121.57 93.21 123.97"/><polygon class="cls-31" points="102.75 111.44 98.01 118.52 102.75 125.61 102.75 111.44"/><polygon class="cls-21" points="67.02 124.92 68.05 126.44 71.28 121.62 66.28 116.35 67.02 124.92"/><polygon class="cls-21" points="71.11 132.72 68.05 128.16 67.39 129.14 67.7 132.72 71.11 132.72"/><polygon class="cls-21" points="67.47 127.3 67.19 126.89 67.26 127.62 67.47 127.3"/><polygon class="cls-21" points="75.59 132.74 78.17 128.89 71.95 122.33 68.62 127.3 72.25 132.73 75.59 132.74"/><polygon class="cls-21" points="78.84 129.6 76.73 132.74 79.88 132.75 80.86 131.74 78.84 129.6"/><polygon class="cls-61" points="90.27 121.57 89.12 122.81 91.56 126.44 93.21 123.97 90.27 121.57"/><polygon class="cls-61" points="91.56 128.16 89.16 131.74 93.95 131.74 91.56 128.16"/><polygon class="cls-61" points="100.82 130.16 93.96 124.58 92.13 127.3 95.1 131.74 99.77 131.73 100.82 130.16"/><polygon class="cls-61" points="83.34 131.74 88.01 131.74 90.98 127.3 88.46 123.53 82.3 130.18 83.34 131.74"/><polygon class="cls-61" points="82.2 131.74 81.64 130.9 80.86 131.74 82.2 131.74"/><polygon class="cls-61" points="101.56 130.77 100.92 131.73 102.75 131.73 101.56 130.77"/><polygon class="cls-62" points="95.1 131.74 95.81 132.8 99.05 132.81 99.77 131.74 95.1 131.74"/><polygon class="cls-62" points="81.84 132.76 82.88 132.76 82.2 131.74 80.86 131.74 81.84 132.76"/><polygon class="cls-62" points="102.75 131.74 100.92 131.74 100.19 132.81 102.75 132.82 102.75 131.74"/><polygon class="cls-62" points="84.03 132.76 87.32 132.78 88.01 131.74 83.34 131.74 84.03 132.76"/><polygon class="cls-62" points="88.46 132.78 94.66 132.8 93.95 131.74 89.16 131.74 88.46 132.78"/><polygon class="cls-22" points="80.86 131.74 79.88 132.75 81.84 132.76 80.86 131.74"/><polygon class="cls-26" points="63.1 117.99 62.74 118.52 67.02 124.92 66.28 116.35 63.1 117.99"/><polygon class="cls-26" points="63.85 132.7 67.26 127.62 67.19 126.89 62.17 119.38 58.68 124.59 58.36 129.53 60.48 132.69 63.85 132.7"/><polygon class="cls-26" points="59.33 132.69 58.26 131.1 58.2 132.06 58.73 132.69 59.33 132.69"/><polygon class="cls-26" points="67.39 129.14 65 132.71 67.7 132.72 67.39 129.14"/><polygon class="cls-26" points="58.81 122.69 61.34 118.89 58.97 120.12 58.81 122.69"/><polygon class="cls-29" points="58.2 132.06 58.16 132.69 58.73 132.69 58.2 132.06"/><polygon class="cls-31" points="59.63 110.09 59.62 110.18 59.4 113.53 62.17 117.66 64.39 114.35 60.33 110.06 59.63 110.09"/><polygon class="cls-31" points="58.97 120.12 61.34 118.89 61.59 118.52 59.3 115.1 58.97 120.12"/><polygon class="cls-31" points="65.06 115.06 63.1 117.99 66.28 116.35 65.06 115.06"/><polygon class="cls-63" points="103.31 108.88 103.48 108.63 103.14 108.63 103.31 108.88"/><polygon class="cls-63" points="104.63 108.63 103.89 109.74 104.02 109.94 108.41 114.49 107.58 108.63 104.63 108.63"/><polygon class="cls-64" points="107.59 132.84 110.78 132.85 110.97 132.56 110.79 131.31 106.57 131.31 107.59 132.84"/><polygon class="cls-64" points="102.75 131.73 102.75 131.74 102.75 132.82 106.44 132.83 105.42 131.31 102.75 131.31 102.75 131.73"/><polygon class="cls-65" points="108.77 117.03 108.41 114.49 104.02 109.94 108.77 117.03"/><polygon class="cls-65" points="103.31 126.44 108.62 118.52 103.31 110.6 102.75 111.44 102.75 125.61 103.31 126.44"/><polygon class="cls-65" points="103.89 127.3 106.57 131.31 110.79 131.31 109.12 119.49 103.89 127.3"/><polygon class="cls-65" points="105.42 131.31 103.31 128.16 102.75 128.99 102.75 131.31 105.42 131.31"/></g></g></svg>
