<svg xmlns="http://www.w3.org/2000/svg" viewBox="0 0 124.21 113.83" width="124.21" height="113.83"><defs><style>.cls-1{fill:none;}.cls-2{fill:#3d0f47;}.cls-3{fill:#3f0e19;}.cls-4{fill:#630035;}.cls-5{fill:#5c1f68;}.cls-6{fill:#690a44;}.cls-7{fill:#2e1016;}.cls-8{fill:#4d1220;}.cls-9{fill:#4a111f;}.cls-10{fill:#a62f6d;}.cls-11{fill:#7e083c;}.cls-12{fill:#410941;}.cls-13{fill:#400e20;}.cls-14{fill:#8b1948;}.cls-15{fill:#700c48;}.cls-16{fill:#962a4a;}.cls-17{fill:#5e1f69;}.cls-18{fill:#701146;}.cls-19{fill:#60206a;}.cls-20{fill:#a12057;}.cls-21{fill:#b04279;}.cls-22{fill:#a33475;}.cls-23{fill:#aa2754;}.cls-24{fill:#8d1c6d;}.cls-25{fill:#4e124f;}.cls-26{fill:#702c7c;}.cls-27{fill:#b40c54;}.cls-28{fill:#a2304b;}.cls-29{fill:#b13e68;}.cls-30{fill:#da4167;}.cls-31{fill:#d71d44;}.cls-32{fill:#c51d6e;}.cls-33{fill:#c95775;}.cls-34{fill:#d31e44;}.cls-35{fill:#d2305a;}.cls-36{fill:#770c3e;}.cls-37{fill:#5e0236;}.cls-38{fill:#c8353f;}.cls-39{fill:#c45789;}</style></defs><title>pcdd-dm</title><g id="图层_2" data-name="图层 2"><g id="央铋_1" data-name="央铋 1"><polygon class="cls-1" points="113.96 57.44 113.96 57.44 113.99 47.44 113.96 57.44"/><polygon class="cls-1" points="113.96 61.67 113.97 57.74 113.97 57.74 113.96 61.67"/><polygon class="cls-1" points="113.93 68.88 113.95 61.93 113.95 61.93 113.93 68.45 113.93 68.88"/><polygon class="cls-2" points="30.75 5.98 31.24 5.48 31.13 0 30.75 5.98"/><polygon class="cls-3" points="11.64 11.48 11.48 3.66 11.02 10.86 11.64 11.48"/><polygon class="cls-4" points="10.04 26.16 11.91 24.44 11.82 20.1 10.4 20.47 10.04 26.16"/><polygon class="cls-5" points="32.93 39.11 32.93 36.03 29.83 34.73 27.77 35.65 27.77 38.4 29.11 37.82 32.93 39.11"/><polygon class="cls-5" points="27.26 47.44 34.66 47.44 34.66 39.94 29.12 38.06 25.7 39.55 25.7 42.27 27.26 47.44"/><polygon class="cls-5" points="28.9 34.92 29.82 34.51 31.86 35.36 31.76 30.44 29.32 28.23 28.9 34.92"/><polygon class="cls-6" points="9.24 38.58 10.17 38.17 12.21 39.02 11.91 24.44 10.04 26.16 9.24 38.58"/><polygon class="cls-6" points="6.05 43.22 6.05 47.44 15.01 47.44 15.01 43.6 9.47 41.72 6.05 43.22"/><polygon class="cls-6" points="8.11 39.31 8.11 42.06 9.46 41.48 13.28 42.77 13.28 39.69 10.18 38.39 8.11 39.31"/><polygon class="cls-6" points="25.7 42.27 25.7 47.44 27.26 47.44 25.7 42.27"/><polygon class="cls-7" points="29.95 18.38 31.51 18.38 31.24 5.48 30.75 5.98 29.95 18.38"/><polygon class="cls-8" points="29.32 28.23 31.76 30.44 31.51 18.38 29.95 18.38 29.32 28.23"/><polygon class="cls-9" points="10.4 20.47 11.82 20.1 11.64 11.48 11.02 10.86 10.4 20.47"/><polygon class="cls-10" points="89.55 47.33 98.51 47.37 98.51 41.77 91.61 39.24 89.55 39.94 89.55 47.33"/><polygon class="cls-10" points="113.99 47.44 109.2 45.69 109.2 47.42 113.99 47.44"/><polygon class="cls-11" points="96.45 38.4 96.45 35.65 94.38 34.73 91.29 36.03 91.29 39.11 95.1 37.82 96.45 38.4"/><polygon class="cls-11" points="98.51 39.55 95.09 38.06 91.61 39.24 98.51 41.77 98.51 39.55"/><polygon class="cls-11" points="109.68 43.44 109.2 43.6 109.2 45.69 113.99 47.44 109.68 43.44"/><polygon class="cls-11" points="92.35 35.36 94.39 34.51 95.32 34.92 94.99 29.73 92.52 27.42 92.35 35.36"/><polygon class="cls-6" points="92.92 7.67 92.52 27.42 94.99 29.73 93.54 7.1 92.92 7.67"/><polygon class="cls-12" points="93.08 0 92.92 7.67 93.54 7.1 93.08 0"/><polygon class="cls-12" points="112.12 33.41 114.57 32.29 113.51 15.68 112.51 14.65 112.12 33.41"/><polygon class="cls-13" points="112.69 6.09 112.89 6.17 112.74 3.66 112.69 6.09"/><polygon class="cls-14" points="118.16 47.44 118.16 43.22 116.68 42.56 113.99 47.44 118.16 47.44"/><polygon class="cls-15" points="112.51 14.65 113.51 15.68 112.89 6.17 112.69 6.09 112.51 14.65"/><polygon class="cls-16" points="112 39.02 114.04 38.17 114.97 38.58 114.57 32.29 112.12 33.41 112 39.02"/><polygon class="cls-16" points="110.94 39.69 110.94 42.77 114.76 41.48 116.1 42.06 116.1 39.31 114.04 38.39 110.94 39.69"/><polygon class="cls-16" points="116.68 42.56 114.74 41.72 109.68 43.44 113.99 47.44 116.68 42.56"/><polygon class="cls-17" points="36.67 55.91 28.36 53.65 23.37 55.43 23.37 59.16 27.42 57.47 36.67 59.41 36.67 55.91"/><polygon class="cls-17" points="25.7 47.44 25.7 54.31 28.36 53.36 34.66 55.08 34.66 47.44 27.26 47.44 25.7 47.44"/><polygon class="cls-17" points="6.05 54.42 15.01 57.69 15.01 47.44 6.05 47.44 6.05 54.42"/><polygon class="cls-17" points="32.16 63.93 36.83 59.72 27.44 57.75 21.72 60.13 32.16 63.93"/><polygon class="cls-6" points="6.05 57.97 8.71 57.02 15.01 58.74 15.01 57.69 6.05 54.42 6.05 57.97"/><polygon class="cls-6" points="17.02 63.07 17.02 59.58 8.71 57.31 3.71 59.09 3.71 62.82 7.77 61.13 17.02 63.07"/><polygon class="cls-6" points="21.72 60.13 20.28 60.73 20.16 70.56 20.16 75.44 32.16 63.93 21.72 60.13"/><polygon class="cls-6" points="19.27 76.28 19.27 63.82 7.79 61.41 3.66 63.13 18.5 77.03 19.27 76.28"/><path class="cls-18" d="M48.77,62.37v1.35H46.94V62.37H45.85v1.35H44V62.37H42.93v1.35H40.35v6.13L50.29,77l.07-13.31h-.51V62.37Z"/><polygon class="cls-18" points="39.47 69.21 39.47 63.72 39.37 63.72 39.37 60.25 36.83 59.72 32.16 63.93 39.47 69.21"/><polygon class="cls-19" points="18.5 77.03 3.66 63.13 0.63 64.39 0.33 87.91 0.85 93.26 18.5 77.03"/><polygon class="cls-18" points="19.27 77.03 19.27 76.28 18.5 77.03 19.27 77.03"/><polygon class="cls-18" points="20.16 75.44 20.16 77.03 39.47 77.03 39.47 69.21 32.16 63.93 20.16 75.44"/><polygon class="cls-18" points="40.35 69.85 40.35 77.03 50.29 77.03 40.35 69.85"/><polygon class="cls-16" points="50.29 77.03 40.35 77.03 40.35 97.33 50.29 106.56 50.29 77.03"/><polygon class="cls-16" points="20.16 78.57 39.47 96.51 39.47 77.03 20.16 77.03 20.16 78.57"/><polygon class="cls-16" points="19.27 77.75 19.27 77.03 18.5 77.03 19.27 77.75"/><polygon class="cls-20" points="40.35 97.33 40.35 103.88 50.29 106.56 40.35 97.33"/><polygon class="cls-20" points="20.16 98.45 39.47 103.65 39.47 96.51 20.16 78.57 20.16 98.45"/><polygon class="cls-20" points="0.85 93.26 19.27 98.21 19.27 77.75 18.5 77.03 0.85 93.26"/><polygon class="cls-21" points="7.87 106.56 19.27 106.56 19.27 98.21 0.85 93.26 7.87 106.56"/><polygon class="cls-21" points="20.16 106.56 39.47 106.56 39.47 103.65 20.16 98.45 20.16 106.56"/><polygon class="cls-21" points="40.35 103.88 40.35 106.56 50.29 106.56 40.35 103.88"/><polygon class="cls-22" points="0.85 93.26 0.26 93.82 0.09 106.56 7.87 106.56 0.85 93.26"/><polygon class="cls-23" points="10.45 113.83 19.27 113.83 19.27 106.56 7.87 106.56 10.45 113.83"/><polygon class="cls-23" points="20.16 113.83 39.37 113.83 39.47 113.83 39.47 106.56 20.16 106.56 20.16 113.83"/><polygon class="cls-23" points="40.35 106.56 40.35 113.83 42.56 113.83 50.29 106.56 40.35 106.56"/><polygon class="cls-24" points="10.45 113.83 7.87 106.56 0.09 106.56 0 113.83 8.9 113.83 10.45 113.83"/><polygon class="cls-25" points="0.33 87.91 0.27 92.65 0.85 93.26 0.33 87.91"/><polygon class="cls-26" points="0.27 93.05 0.26 93.82 0.85 93.26 0.27 93.05"/><polygon class="cls-5" points="0.27 92.65 0.27 93.05 0.85 93.26 0.27 92.65"/><polygon class="cls-27" points="42.56 113.83 50.29 113.83 50.29 106.56 42.56 113.83"/><polygon class="cls-4" points="118.16 51.28 118.16 47.44 113.99 47.44 118.16 51.28"/><polygon class="cls-28" points="113.96 57.73 113.95 61.66 116.44 61.13 120.5 62.82 120.5 59.09 115.5 57.31 113.96 57.73"/><polygon class="cls-28" points="113.96 57.44 115.5 57.02 118.16 57.97 118.16 51.28 113.99 47.44 113.96 57.44"/><polygon class="cls-28" points="113.89 87.84 123.68 72.28 123.58 64.39 116.42 61.41 113.95 61.93 113.93 68.88 113.89 87.84"/><polygon class="cls-29" points="113.89 87.87 123.84 84.46 123.68 72.28 113.89 87.84 113.89 87.87"/><polygon class="cls-23" points="50.29 113.83 58.22 113.83 50.29 106.56 50.29 113.83"/><polygon class="cls-20" points="58.22 113.83 78.09 113.83 50.29 106.56 58.22 113.83"/><polygon class="cls-30" points="96.74 113.83 92.71 106.19 84.77 106.25 84.77 113.83 84.84 113.83 96.74 113.83"/><polygon class="cls-30" points="78.09 113.83 83.88 113.83 83.88 106.26 50.29 106.56 78.09 113.83"/><polygon class="cls-31" points="96.74 113.83 104.04 113.83 104.04 106.19 92.71 106.19 96.74 113.83"/><polygon class="cls-31" points="104.92 106.19 104.92 113.83 105.74 113.83 113.87 106.19 104.92 106.19"/><polygon class="cls-32" points="84.77 83.85 84.77 106.25 92.71 106.19 84.77 83.85"/><polygon class="cls-32" points="50.29 106.56 83.88 106.26 83.88 81.37 82.08 76.29 50.29 106.56"/><polygon class="cls-33" points="113.89 87.87 113.87 106.19 124 96.84 123.84 84.46 113.89 87.87"/><polygon class="cls-10" points="104.92 97.78 104.92 106.19 113.87 106.19 104.92 97.78"/><polygon class="cls-10" points="104.04 106.19 104.04 96.94 84.77 78.82 84.77 83.85 92.71 106.19 104.04 106.19"/><polygon class="cls-10" points="83.88 81.37 83.88 77.99 82.08 76.29 83.88 81.37"/><polygon class="cls-34" points="105.74 113.83 121.98 113.83 113.87 106.19 105.74 113.83"/><polygon class="cls-11" points="109.2 51.77 109.2 58.74 113.96 57.44 113.99 47.44 109.2 51.77"/><polygon class="cls-11" points="83.88 75.84 83.88 74.66 82.08 76.29 83.88 75.84"/><polygon class="cls-11" points="107.19 59.58 107.19 63.07 113.95 61.66 113.96 57.73 107.19 59.58"/><polygon class="cls-11" points="104.04 69.44 103.93 60.73 100.75 59.41 84.77 73.86 84.77 75.63 104.04 70.89 104.04 69.44"/><polygon class="cls-11" points="113.95 61.93 104.92 63.82 104.92 70.67 113.93 68.45 113.95 61.93"/><polygon class="cls-35" points="121.98 113.83 124.21 113.83 124.12 106.31 113.87 106.19 121.98 113.83"/><path class="cls-20" d="M67.38,62.37h-.56l.56.51Z"/><path class="cls-20" d="M78,62.68v1H76.13V62.37H75v1.35H73.21V62.37H72.13v1.35H70.3V62.37H69.21v1.35H68.3L82.08,76.29Z"/><path class="cls-36" d="M83.88,74.66V63.72H82V62.37H80.89v1.35H79.06V62.37H78v.31l4.11,13.61Z"/><polygon class="cls-36" points="87.54 55.91 87.54 59.41 96.79 57.47 100.85 59.16 100.85 55.43 95.85 53.65 87.54 55.91"/><polygon class="cls-36" points="96.77 57.75 84.84 60.25 84.84 63.72 84.77 63.72 84.77 73.86 100.75 59.41 96.77 57.75"/><polygon class="cls-36" points="109.2 47.42 109.2 51.77 113.99 47.44 109.2 47.42"/><polygon class="cls-36" points="89.55 55.08 95.85 53.36 98.51 54.31 98.51 47.37 89.55 47.33 89.55 55.08"/><polygon class="cls-36" points="82.08 76.29 50.29 77.03 50.29 106.56 82.08 76.29"/><path class="cls-37" d="M82.08,76.29,68.3,63.72h-.92v-.84l-.56-.51h-.53v1.35H64.46V62.37H63.37v1.35H61.54V62.37H60.45v1.35H58.62V62.37H57.53v1.35H55.7V62.37H54.61v1.35H52.78V62.37H51.69v1.35H50.36L50.29,77Z"/><polygon class="cls-38" points="124.12 106.31 124 96.84 113.87 106.19 124.12 106.31"/><polygon class="cls-39" points="83.88 77.99 83.88 75.84 82.08 76.29 83.88 77.99"/><polygon class="cls-39" points="104.04 70.89 84.77 75.63 84.77 78.82 104.04 96.94 104.04 70.89"/><polygon class="cls-39" points="113.89 87.87 113.89 87.84 113.93 68.88 113.93 68.45 104.92 70.67 104.92 97.78 113.87 106.19 113.89 87.87"/></g></g></svg>
