<svg xmlns="http://www.w3.org/2000/svg" viewBox="0 0 128.4 107.17" width="128.4" height="107.17"><defs><style>.cls-1{fill:#00966d;}.cls-2{fill:none;}.cls-3{fill:#e96657;}.cls-4{fill:#dd5657;}.cls-5{fill:#c5095a;}.cls-6{fill:#c03d38;}.cls-7{fill:#a92563;}.cls-8{fill:#ad358d;}.cls-9{fill:#c8353f;}.cls-10{fill:#c92c6a;}.cls-11{fill:#60206a;}.cls-12{fill:#4d0942;}.cls-13{fill:#7a2673;}.cls-14{fill:#701146;}.cls-15{fill:#6d154e;}.cls-16{fill:#b1135e;}.cls-17{fill:#842c5a;}.cls-18{fill:#b0115c;}.cls-19{fill:#410941;}.cls-20{fill:#660a44;}.cls-21{fill:#5e124e;}.cls-22{fill:#772d7f;}.cls-23{fill:#be315c;}.cls-24{fill:#a2304b;}.cls-25{fill:#630035;}.cls-26{fill:#5d0233;}.cls-27{fill:#671042;}.cls-28{fill:#3d0f47;}.cls-29{fill:#6b1a4f;}.cls-30{fill:#4c0c43;}.cls-31{fill:#3e1a52;}.cls-32{fill:#af1360;}.cls-33{fill:#c1303b;}.cls-34{fill:#f4ae7e;}.cls-35{fill:#c4478e;}.cls-36{fill:#cd5c9d;}.cls-37{fill:#ea74a1;}.cls-38{fill:#eba767;}.cls-39{fill:#f4b172;}.cls-40{fill:#ef936d;}.cls-41{fill:#f3c89a;}.cls-42{fill:#fad9b0;}.cls-43{fill:#e7996a;}.cls-44{fill:#d2305a;}.cls-45{fill:#f29f77;}.cls-46{fill:#e34b7b;}.cls-47{fill:#db4664;}.cls-48{fill:#8d1c6d;}.cls-49{fill:#8b1948;}.cls-50{fill:#681656;}.cls-51{fill:#8f244d;}.cls-52{fill:#9a338a;}.cls-53{fill:#702c7c;}.cls-54{fill:#471956;}.cls-55{fill:#7f1d47;}.cls-56{fill:#a82268;}.cls-57{fill:#690a44;}.cls-58{fill:#a62f6d;}.cls-59{fill:#c65987;}.cls-60{fill:#b13e68;}.cls-61{fill:#782d7f;}.cls-62{fill:#421756;}.cls-63{fill:#884797;}.cls-64{fill:#5e1f69;}.cls-65{fill:#97338d;}.cls-66{fill:#772a7f;}.cls-67{fill:#a9569c;}</style></defs><title>pxdd-nw</title><g id="图层_2" data-name="图层 2"><g id="央铋_1" data-name="央铋 1"><polygon class="cls-1" points="126.55 83.83 126.55 82.86 128.4 83.83 126.55 83.83"/><path class="cls-2" d="M73.12,35.89h1.42V31.06H73.12Z"/><path class="cls-2" d="M84,31.06H82.55v4.83H84Z"/><path class="cls-2" d="M92,31.06v4.83H93.4V31.06Z"/><path class="cls-2" d="M102.83,35.89V31.06h-1.42v4.83Z"/><path class="cls-2" d="M26,35.89H27.4V31.06H26Z"/><path class="cls-2" d="M44.84,31.06v4.83h1.42V31.06Z"/><path class="cls-2" d="M63.69,31.06v4.83h1.42V31.06Z"/><path class="cls-2" d="M54.26,35.89h1.42V31.06H54.26Z"/><polygon class="cls-2" points="103.2 72.59 103.2 69.48 103.2 68.69 102.02 68.69 102.02 71.6 102.02 72.59 103.2 72.59"/><polygon class="cls-2" points="105.77 64.88 105.77 63.65 103.63 63.65 103.63 68.03 104.01 68.03 105.77 68.03 105.77 64.88"/><polygon class="cls-2" points="105.77 72.59 105.77 68.69 103.64 68.69 103.63 68.69 103.63 68.72 103.63 72.59 105.77 72.59"/><rect class="cls-2" x="106.2" y="68.69" width="1.18" height="3.9"/><polygon class="cls-2" points="107.38 62 107.38 60.55 107.38 59.77 106.19 59.77 106.19 61.01 106.19 63 106.82 63 107.38 63 107.38 62"/><polygon class="cls-2" points="107.38 68.03 107.38 63.65 106.45 63.65 106.19 63.65 106.19 64.12 106.19 68.03 107.38 68.03"/><polygon class="cls-2" points="103.63 59.77 103.63 62 103.63 63 105.77 63 105.77 61.17 105.77 59.77 103.63 59.77"/><polygon class="cls-2" points="102.02 59.77 102.02 62.62 102.02 63 103.2 63 103.2 62.17 103.2 59.77 102.02 59.77"/><polygon class="cls-2" points="7.12 35.89 8.02 35.89 8.54 35.89 8.54 31.06 7.6 31.06 7.12 31.06 7.12 35.89"/><path class="cls-2" d="M68.6,58.47v-4c-.56-.26-1.14-.48-1.72-.69a21.76,21.76,0,0,0-7.25-1.26,21.47,21.47,0,0,0-6.19.92,21.81,21.81,0,0,0-2.78,1V79.94H68.6V58.47Z"/><rect class="cls-2" x="76.14" y="97.73" width="4.91" height="3.57"/><path class="cls-2" d="M46,67V57.32c-.22.17-.42.35-.64.52a26.45,26.45,0,0,0-7,9.2c-.19.42-.38.84-.56,1.27a29.06,29.06,0,0,0-1.56,5.21,30.14,30.14,0,0,0-.61,6c0,.14,0,.28,0,.42H46V67Z"/><polygon class="cls-2" points="77.25 92.51 81.05 92.51 81.05 89.55 76.14 89.55 76.14 91.08 76.14 92.51 77.25 92.51"/><path class="cls-2" d="M16.55,31.47v4.42H18V31.06H16.55Z"/><polygon class="cls-2" points="38.2 92.51 42.69 92.51 43.11 92.51 43.11 89.55 39.82 89.55 38.2 89.55 38.2 92.51"/><polygon class="cls-2" points="76.14 97.12 80.84 97.12 81.05 97.12 81.05 93.11 77.72 93.11 76.14 93.11 76.14 97.12"/><path class="cls-2" d="M73.22,57.32V79.94H83.6c0-.14,0-.28,0-.42s0-.55,0-.83a29.82,29.82,0,0,0-1.13-7.45,28,28,0,0,0-4.54-9.13A25.4,25.4,0,0,0,73.22,57.32Z"/><polygon class="cls-2" points="13.19 63 13.19 61.96 13.19 59.77 12.01 59.77 12.01 60.71 12.01 63 13.19 63"/><polygon class="cls-2" points="15.09 15.04 15.09 16.78 15.09 19.1 19.86 19.1 19.86 18.75 19.86 15.04 15.09 15.04"/><path class="cls-2" d="M35.4,35.89h1.42V31.06H35.4Z"/><rect class="cls-2" x="99.52" y="15.04" width="4.77" height="4.06"/><polygon class="cls-2" points="14.17 63 15.76 63 15.76 59.77 13.62 59.77 13.62 62.41 13.62 63 14.17 63"/><polygon class="cls-2" points="16.93 63 17.37 63 17.37 59.77 16.19 59.77 16.19 60.63 16.19 63 16.93 63"/><polygon class="cls-2" points="110.84 31.06 110.84 33.58 110.84 35.89 112.26 35.89 112.26 35.24 112.26 31.06 110.84 31.06"/><polygon class="cls-2" points="107.38 92.79 107.38 89.56 106.59 89.56 106.19 89.56 106.19 90.36 106.19 92.79 107.38 92.79"/><polygon class="cls-2" points="105.77 91.23 105.77 89.56 103.63 89.56 103.63 92.79 105 92.79 105.77 92.79 105.77 91.23"/><rect class="cls-2" x="102.02" y="89.56" width="1.18" height="3.23"/><polygon class="cls-2" points="104.67 93.45 103.63 93.45 103.63 95.56 103.63 97.77 103.63 97.83 105.77 97.83 105.77 96.66 105.77 93.45 104.67 93.45"/><polygon class="cls-2" points="106.19 93.45 106.19 96.44 106.19 97.83 107.38 97.83 107.38 95.83 107.38 93.45 106.19 93.45"/><rect class="cls-2" x="102.02" y="63.65" width="1.18" height="4.38"/><polygon class="cls-2" points="103.2 96.42 103.2 93.45 102.02 93.45 102.02 97.83 102.5 97.83 103.2 97.83 103.2 96.42"/><polygon class="cls-2" points="105.47 102.39 105.77 102.39 105.77 98.49 103.63 98.49 103.63 100.23 103.63 102.39 105.47 102.39"/><rect class="cls-2" x="106.2" y="98.49" width="1.18" height="3.9"/><polygon class="cls-2" points="102.13 98.49 102.02 98.49 102.02 98.6 102.02 102.39 103.2 102.39 103.2 99.73 103.2 98.49 102.23 98.49 102.18 98.49 102.13 98.49"/><polygon class="cls-2" points="36.25 29.63 36.25 29.63 18.32 29.63 36.25 29.63"/><polygon class="cls-2" points="114.4 92.2 115.46 93.32 115.46 93.32 108.41 85.88 114.4 92.2"/><polygon class="cls-2" points="17.48 28.75 13.42 24.48 13.42 24.48 17.48 28.75"/><polygon class="cls-2" points="93.27 85.88 93.27 85.88 90.58 85.88 93.27 85.88"/><polygon class="cls-2" points="113.1 15.68 113.1 15.68 108.41 10.7 113.1 15.68"/><polygon class="cls-2" points="108.41 85.87 93.94 85.88 93.94 85.88 108.41 85.88 115.46 85.88 115.46 85.87 108.41 85.87"/><polygon class="cls-2" points="12.68 23.67 12.68 23.67 6.28 16.91 6.28 16.92 6.38 17.02 12.68 23.67"/><polygon class="cls-2" points="18.05 29.34 18.05 29.34 18.32 29.63 18.05 29.34"/><polygon class="cls-2" points="36.25 85.87 36.25 85.88 49.24 85.88 72.12 85.88 72.12 85.88 90.58 85.88 72.12 85.87 36.25 85.87"/><polygon class="cls-3" points="33.34 85.87 33.34 88.78 36.15 85.87 33.34 85.87"/><polygon class="cls-4" points="36.25 85.87 36.15 85.87 33.34 88.78 33.34 94.08 33.34 94.09 36.25 94.09 36.25 85.88 36.25 85.87"/><line class="cls-2" x1="36.25" y1="85.87" x2="36.25" y2="85.88"/><polygon class="cls-5" points="72.12 85.88 72.12 85.88 72.12 85.88 72.12 85.88"/><polygon class="cls-5" points="72.11 85.89 68.41 89.69 68.49 89.69 68.49 104.71 72.12 104.81 72.11 85.89"/><polygon class="cls-6" points="36.25 85.88 39.82 89.55 43.11 89.55 43.11 92.51 42.69 92.51 44.23 94.09 44.76 94.09 44.76 94.63 50.76 100.82 50.76 91.56 49.24 85.88 36.25 85.88"/><polygon class="cls-7" points="72.11 85.88 72.12 85.88 72.12 85.88 49.24 85.88 50.76 91.56 50.76 89.69 68.41 89.69 72.11 85.89 72.11 85.88"/><rect class="cls-8" x="44.76" y="104.34" width="6.01" height="2.83"/><polygon class="cls-9" points="38.2 92.51 38.2 89.55 39.82 89.55 36.25 85.88 36.25 94.09 38.2 94.09 38.2 93.11 43.11 93.11 43.11 94.09 43.8 94.09 44.23 94.09 42.69 92.51 38.2 92.51"/><polygon class="cls-9" points="44.76 95.05 44.76 104.34 50.76 104.34 50.76 100.82 44.76 94.63 44.76 95.05"/><polygon class="cls-10" points="68.49 104.71 68.49 107.17 72.12 107.17 72.12 104.81 68.49 104.71"/><polygon class="cls-11" points="115.46 88.79 115.46 85.88 108.41 85.88 115.46 88.79"/><polygon class="cls-12" points="115.46 93.32 115.46 88.79 108.41 85.88 115.46 93.32"/><polygon class="cls-13" points="115.46 104.39 115.46 93.32 114.4 92.2 115.46 104.39"/><path class="cls-14" d="M107.38,95.83v2H106.2V96.44l-.43.22v1.17h-2.14v-.06l-1.4.72h1v1.25l.42.5V98.49h2.14v3.9h-.3l4.1,4.78h5.89v-2.78L114.4,92.2Zm0,6.56H106.2v-3.9h1.18Z"/><polygon class="cls-15" points="102.02 98.49 102.13 98.49 93.94 89.54 93.94 102.99 102.02 98.6 102.02 98.49"/><polygon class="cls-15" points="90.58 104.81 93.27 103.35 93.27 88.81 90.58 85.88 90.58 104.81"/><polygon class="cls-12" points="93.94 107.17 96.49 107.17 93.94 106.15 93.94 107.17"/><polygon class="cls-12" points="92.83 107.17 93.27 107.17 93.27 105.88 90.58 104.81 92.83 107.17"/><polygon class="cls-16" points="72.12 107.17 75.86 107.17 72.12 104.81 72.12 107.17"/><polygon class="cls-12" points="90.58 85.88 83.57 100.64 86.47 107.17 90.58 107.17 90.58 104.81 90.58 85.88"/><polygon class="cls-17" points="72.12 85.88 72.11 85.88 76.14 91.08 76.14 89.55 81.05 89.55 81.05 92.51 77.25 92.51 77.72 93.11 81.05 93.11 81.05 97.12 80.84 97.12 83.57 100.64 90.58 85.88 72.12 85.88 72.12 85.88"/><polygon class="cls-14" points="93.27 88.81 93.27 85.88 90.58 85.88 93.27 88.81"/><path class="cls-14" d="M102.18,98.49l.33-.66H102V93.45h1.18v3l.42-.86V93.45h1l.33-.66h-1.37V89.56h2.14v1.67l.43-.86v-.8h.4l1.82-3.68H93.94v3.66l8.19,8.95h0ZM102,89.56h1.18v3.23H102Z"/><path class="cls-18" d="M76.14,97.12v-4h1.58l-.47-.6H76.14V91.08l-4-5.2h0v18.92l11.45-4.16-2.73-3.52H76.14Zm4.91,4.17H76.14V97.73h4.91Z"/><polygon class="cls-19" points="90.58 107.17 92.83 107.17 90.58 104.81 90.58 107.17"/><polygon class="cls-20" points="103.63 102.39 103.63 100.23 103.2 99.73 103.2 102.39 102.02 102.39 102.02 98.6 93.94 102.99 93.94 106.15 96.49 107.17 109.57 107.17 105.47 102.39 103.63 102.39"/><polygon class="cls-20" points="93.27 105.88 93.27 103.35 90.58 104.81 93.27 105.88"/><polygon class="cls-21" points="72.12 104.81 75.86 107.17 86.47 107.17 83.57 100.64 72.12 104.81"/><polygon class="cls-22" points="103.2 96.42 103.2 97.83 102.5 97.83 102.18 98.49 102.23 98.49 103.63 97.77 103.63 95.56 103.2 96.42"/><polygon class="cls-22" points="107.38 89.56 107.38 92.79 106.19 92.79 106.19 90.36 105.77 91.23 105.77 92.79 105 92.79 104.67 93.45 105.77 93.45 105.77 96.66 106.19 96.44 106.19 93.45 107.38 93.45 107.38 95.83 114.4 92.2 108.41 85.88 106.59 89.56 107.38 89.56"/><polygon class="cls-23" points="36.08 10.52 29.47 10.52 29.47 10.7 36.25 10.7 36.08 10.52"/><polygon class="cls-23" points="28.67 10.7 28.67 10.46 23.25 10.46 23.32 10.7 28.67 10.7"/><path class="cls-23" d="M28.64,9.81A10.65,10.65,0,0,0,20.53.4l2.54,9.4Z"/><polygon class="cls-24" points="23.25 10.46 6.28 10.46 6.28 10.7 23.32 10.7 23.25 10.46"/><path class="cls-24" d="M20.53.4A11.94,11.94,0,0,0,17.47,0C11.53,0,6.66,4.34,6.3,9.81H23.08Z"/><polygon class="cls-25" points="36.25 10.52 36.08 10.52 36.25 10.7 36.25 10.52"/><polygon class="cls-26" points="49.33 10.7 72.12 10.7 71.68 10.52 36.43 10.52 36.25 10.7 49.33 10.7"/><polygon class="cls-11" points="71.95 10.52 71.68 10.52 72.12 10.7 71.95 10.52"/><polygon class="cls-27" points="36.43 10.52 36.25 10.52 36.25 10.7 36.43 10.52"/><polygon class="cls-11" points="90.71 10.46 90.71 10.48 90.73 10.46 90.71 10.46"/><path class="cls-11" d="M98.55.49a10.63,10.63,0,0,0-7.81,9.32h.61l8-8.51Z"/><polygon class="cls-11" points="108.19 10.46 90.73 10.46 90.71 10.48 90.71 10.7 108.41 10.7 108.19 10.46"/><polygon class="cls-11" points="91.35 9.81 107.55 9.81 99.3 1.3 91.35 9.81"/><polygon class="cls-28" points="89.91 10.7 89.91 10.52 72.21 10.52 72.12 10.7 89.91 10.7"/><path class="cls-29" d="M101.9,0a11.92,11.92,0,0,0-2,.17L99.3,1.3l8.25,8.51h.87V2A11.65,11.65,0,0,0,101.9,0Z"/><polygon class="cls-29" points="108.41 10.46 108.19 10.46 108.41 10.7 108.41 10.46"/><polygon class="cls-28" points="72.21 10.52 71.95 10.52 72.12 10.7 72.21 10.52"/><path class="cls-30" d="M108.41,2V9.81h.87l3-3.12A10.61,10.61,0,0,0,108.41,2Z"/><polygon class="cls-30" points="108.64 10.46 108.41 10.46 108.41 10.7 108.64 10.46"/><path class="cls-31" d="M113.08,9.81a9.82,9.82,0,0,0-.74-3.12l-3,3.12Z"/><polygon class="cls-31" points="108.41 10.7 113.1 10.7 113.1 10.46 108.64 10.46 108.41 10.7"/><polygon class="cls-32" points="29.47 10.7 29.47 17.73 36.25 10.7 29.47 10.7"/><polygon class="cls-32" points="15.09 15.04 19.86 15.04 19.86 18.75 26.03 21.3 28.67 18.57 28.67 10.7 23.32 10.7 6.28 10.7 6.28 13.13 15.09 16.78 15.09 15.04"/><polygon class="cls-9" points="23.84 23.67 26.03 21.3 19.86 18.75 19.86 19.1 15.09 19.1 15.09 16.78 6.28 13.13 6.28 16.91 12.68 23.67 23.84 23.67"/><polygon class="cls-9" points="18.59 29.34 18.05 29.34 18.32 29.63 18.59 29.34"/><polygon class="cls-9" points="13.45 24.48 17.5 28.76 19.13 28.76 23.08 24.48 13.45 24.48"/><polygon class="cls-33" points="36.25 29.34 35.9 29.34 36.25 29.63 36.25 29.34"/><polygon class="cls-33" points="36.25 10.7 29.47 17.73 29.47 23.67 36.25 23.67 36.25 10.7"/><polygon class="cls-33" points="29.93 24.48 35.19 28.76 36.25 28.76 36.25 24.48 29.93 24.48"/><polygon class="cls-33" points="28.67 23.45 28.67 18.57 26.03 21.3 28.67 23.45"/><polygon class="cls-34" points="7.03 24.48 7.4 28.76 17.5 28.76 13.45 24.48 7.03 24.48"/><path class="cls-34" d="M16.55,31.06h.39l1.38-1.43L18,29.34H7.45l.15,1.72h.94v4.83H8l.15,1.72h2.45l5.93-6.15C16.55,31.33,16.55,31.2,16.55,31.06Z"/><polygon class="cls-34" points="10.07 38.17 8.21 38.17 8.37 39.94 10.07 38.17"/><polygon class="cls-34" points="6.95 23.67 12.68 23.67 6.38 17.02 6.95 23.67"/><polygon class="cls-35" points="23.84 23.67 28.67 23.67 28.67 23.45 26.03 21.3 23.84 23.67"/><polygon class="cls-35" points="23.08 24.48 19.13 28.76 35.19 28.76 29.93 24.48 23.08 24.48"/><polygon class="cls-35" points="36.25 29.63 35.9 29.34 18.59 29.34 18.32 29.63 36.25 29.63"/><path class="cls-36" d="M35.4,35.89V31.06h.85V29.63H18.32l7.63,8h10.3V35.89Zm-8,0H26V31.06H27.4Z"/><polygon class="cls-36" points="36.25 48.28 36.25 38.17 26.49 38.17 36.25 48.4 36.25 48.28"/><polygon class="cls-37" points="26.49 38.17 25.98 38.17 25.98 45.28 36.25 48.4 26.49 38.17"/><polygon class="cls-37" points="8.37 39.94 25.45 45.12 25.45 38.17 10.07 38.17 8.37 39.94"/><path class="cls-37" d="M16.94,31.06h1v4.83H16.55V31.47l-5.93,6.15H26l-7.63-8Z"/><polygon class="cls-38" points="25.98 45.28 25.98 48.4 36.25 48.4 25.98 45.28"/><polygon class="cls-38" points="12.32 48.4 25.45 48.4 25.45 45.12 8.37 39.94 12.32 48.4"/><polygon class="cls-39" points="8.37 39.94 3.93 44.65 3.93 48.4 12.32 48.4 8.37 39.94"/><polygon class="cls-39" points="16.19 60.63 16.19 59.77 17.37 59.77 17.37 63 16.93 63 17.14 63.65 17.37 63.65 17.37 64.38 18.03 66.48 18.96 66.72 25.45 59.85 25.45 48.4 12.32 48.4 16.19 60.63"/><polygon class="cls-39" points="25.98 48.4 25.98 59.28 36.25 48.4 25.98 48.4"/><polygon class="cls-40" points="16.19 63 16.19 60.63 12.32 48.4 3.93 48.4 3.93 52.14 12.01 60.71 12.01 59.77 13.19 59.77 13.19 61.96 13.62 62.41 13.62 59.77 15.76 59.77 15.76 63 14.17 63 14.79 63.65 15.76 63.65 15.76 64.69 16.19 65.14 16.19 63.65 17.14 63.65 16.93 63 16.19 63"/><polygon class="cls-40" points="17.37 66.31 18.03 66.48 17.37 64.38 17.37 66.31"/><polygon class="cls-4" points="7.12 35.89 7.12 31.06 7.6 31.06 7.45 29.34 2.4 29.34 2.4 32.98 6.37 37.61 8.16 37.61 8.02 35.89 7.12 35.89"/><polygon class="cls-4" points="6.38 17.02 6.28 17.07 6.28 23.67 6.95 23.67 6.38 17.02"/><polygon class="cls-4" points="8.21 38.17 6.85 38.17 8.37 39.94 8.21 38.17"/><polygon class="cls-4" points="0 24.48 2.4 28.76 7.4 28.76 7.03 24.48 0 24.48"/><polygon class="cls-41" points="3.93 38.21 3.93 44.65 8.37 39.94 3.93 38.21"/><polygon class="cls-42" points="2.4 37.61 6.37 37.61 2.4 32.98 2.4 37.61"/><polygon class="cls-42" points="6.85 38.17 3.93 38.17 3.93 38.21 8.37 39.94 6.85 38.17"/><polygon class="cls-4" points="36.25 85.87 33.95 83.5 33.34 83.5 33.34 85.87 36.15 85.87 36.25 85.87"/><polygon class="cls-33" points="6.28 16.92 6.28 17.07 6.38 17.02 6.28 16.92"/><polygon class="cls-43" points="36.25 48.4 25.98 59.28 25.98 67.25 36.25 67.05 36.25 48.4"/><polygon class="cls-43" points="21.37 67.34 25.45 67.26 25.45 59.85 18.96 66.72 21.37 67.34"/><path class="cls-44" d="M35.65,79.94c0-.14,0-.28,0-.42a30.19,30.19,0,0,1,.61-6V67L26,67.25v1.28l6.72,1.73.63,1.88V82.79h2.92V79.94h-.6Z"/><polygon class="cls-44" points="25.45 68.39 25.45 67.26 21.37 67.34 25.45 68.39"/><polygon class="cls-44" points="36.25 85.87 36.25 85.76 36.25 85.76 36.25 83.5 33.95 83.5 36.25 85.87"/><polygon class="cls-45" points="13.62 63 13.62 62.41 13.19 61.96 13.19 63 12.01 63 12.01 60.71 3.93 52.14 3.93 64.01 8.33 64.01 8.43 64.01 8.56 64.04 12.01 64.93 12.01 63.65 13.19 63.65 13.19 65.23 13.62 65.34 13.62 63.65 14.79 63.65 14.17 63 13.62 63"/><polygon class="cls-45" points="15.76 65.9 16.19 66 16.19 65.14 15.76 64.69 15.76 65.9"/><polygon class="cls-18" points="50.66 79.94 50.66 77.08 46.48 75.38 46.03 75.84 46.03 79.94 42.03 79.94 39.26 82.79 64.59 82.79 57.63 79.94 50.66 79.94"/><polygon class="cls-18" points="72.12 85.87 66.34 83.5 38.56 83.5 36.25 85.87 72.12 85.87"/><polygon class="cls-23" points="69.84 83.5 66.34 83.5 72.12 85.87 69.84 83.5"/><polygon class="cls-23" points="46.48 75.38 50.66 77.08 50.66 70.86 46.48 75.38"/><polygon class="cls-23" points="57.63 79.94 64.59 82.79 69.15 82.79 66.41 79.94 57.63 79.94"/><polygon class="cls-46" points="36.25 79.94 36.25 82.79 39.26 82.79 42.03 79.94 36.25 79.94"/><path class="cls-46" d="M36.25,67v6.48a29,29,0,0,1,1.56-5.21Z"/><polygon class="cls-46" points="36.25 85.76 36.25 85.87 38.56 83.5 36.25 83.5 36.25 85.76 36.25 85.76"/><polygon class="cls-46" points="46.03 75.84 46.48 75.38 46.03 75.01 46.03 75.84"/><polygon class="cls-44" points="50.66 67.05 46.03 67.05 46.03 75.01 46.48 75.38 50.66 70.86 50.66 67.05"/><path class="cls-44" d="M38.37,67H36.25l1.56,1.27C38,67.89,38.18,67.47,38.37,67Z"/><polygon class="cls-46" points="46.03 67.05 50.66 67.05 50.66 63.36 46.03 58.51 46.03 67.05"/><path class="cls-46" d="M45.4,57.85l-9.14-9.57V67h2.12A26.46,26.46,0,0,1,45.4,57.85Z"/><path class="cls-5" d="M46,57.32v1.19l4.63,4.84V54.52a21.81,21.81,0,0,1,2.78-1L36.25,48.28l9.14,9.57C45.61,57.67,45.82,57.49,46,57.32Z"/><path class="cls-47" d="M59.63,52.57a21.64,21.64,0,0,1,2.65.17l-2.09-4.46H36.25l17.18,5.21A21.51,21.51,0,0,1,59.63,52.57Z"/><path class="cls-48" d="M66.88,53.83l5.24-5.56H60.18l2.09,4.46A21.71,21.71,0,0,1,66.88,53.83Z"/><path class="cls-49" d="M55.68,35.89H54.26V31.06h.49l-.55-1.72h-.08l-7.81,8.27h10.5L55.68,34Q55.68,35,55.68,35.89Z"/><polygon class="cls-49" points="60.18 48.28 57 38.17 45.79 38.17 36.25 48.28 60.18 48.28"/><polygon class="cls-50" points="72.12 48.28 62.58 38.17 57 38.17 60.18 48.28 72.12 48.28"/><path class="cls-50" d="M54.21,29.34l.55,1.72h.93v3l1.14,3.6h5.23l-7.81-8.27h0Z"/><polygon class="cls-51" points="68.6 61.93 68.6 78.38 73.22 75.99 73.22 67.33 68.6 61.93"/><polygon class="cls-25" points="90.58 83.5 88.27 83.5 90.58 85.88 90.58 83.5"/><path class="cls-25" d="M82.45,71.24a29.86,29.86,0,0,1,1.13,7.45l4,4.1h3V67Z"/><path class="cls-52" d="M66.88,53.83c.58.21,1.16.43,1.72.69v4l4.63,1.8v-3a25.47,25.47,0,0,1,4.69,4.78L90.59,67,72.12,48.28Z"/><polygon class="cls-14" points="90.58 82.79 93.27 82.79 93.27 69.95 90.58 67.05 90.58 82.79"/><polygon class="cls-14" points="93.94 70.67 93.94 82.26 99.3 76.47 93.94 70.67"/><polygon class="cls-14" points="90.58 85.88 92.78 83.5 90.58 83.5 90.58 85.88"/><polygon class="cls-53" points="99.3 76.47 93.94 82.26 93.94 85.88 108.41 85.87 99.3 76.47"/><polygon class="cls-53" points="93.27 85.88 93.27 83.5 92.78 83.5 90.58 85.88 93.27 85.88"/><path class="cls-14" d="M83.61,79.52c0,.14,0,.28,0,.42H75.08l-1.42,2.85H87.58l-4-4.1C83.59,79,83.61,79.24,83.61,79.52Z"/><polygon class="cls-14" points="90.58 85.88 88.27 83.5 73.3 83.5 72.12 85.87 90.58 85.88"/><path class="cls-54" d="M108.41,60.15l-1,1.85v1h-.55l-.37.66h.92V68h-1.18V64.12l-.43.77V68H104l-.37.66h2.13v3.9h-2.14V68.72l-.42.76v3.11H102v-1l-2.72,4.87,9.12,9.4V60.15Zm-1,12.45H106.2V68.7h1.18Z"/><polygon class="cls-12" points="59.6 23.67 72.12 23.67 72.12 10.7 59.6 23.67"/><polygon class="cls-12" points="72.12 29.34 56.58 29.34 72.12 29.74 72.12 29.34"/><polygon class="cls-12" points="58.81 24.48 54.69 28.76 72.12 28.76 72.12 24.48 58.81 24.48"/><polygon class="cls-17" points="90.58 67.05 90.58 48.28 72.12 48.28 90.58 67.05"/><polygon class="cls-55" points="73.22 67.33 73.22 60.28 68.6 58.47 68.6 61.93 73.22 67.33"/><path class="cls-55" d="M82.45,71.24,90.59,67,77.91,62.1A28,28,0,0,1,82.45,71.24Z"/><polygon class="cls-56" points="36.25 10.7 48.77 23.67 52.72 23.67 49.33 10.7 36.25 10.7"/><polygon class="cls-56" points="49.56 24.48 53.69 28.76 54.05 28.76 52.93 24.48 49.56 24.48"/><path class="cls-28" d="M102,71.6V68.7h1.18v.79l.42-.76v0h0L104,68h-.38V63.66h2.14v1.23l.43-.77v-.46h.26l.37-.66h-.63V61l-.43.17V63h-2.14V62l-.42.17V63H102v-.37l-8.08,3.13v4.92l5.36,5.8Zm0-7.95h1.18V68H102Z"/><polygon class="cls-28" points="108.41 60.15 107.38 60.55 107.38 62 108.41 60.15"/><polygon class="cls-28" points="93.27 69.95 93.27 66.01 90.58 67.05 93.27 69.95"/><polygon class="cls-57" points="49.33 10.7 52.72 23.67 59.6 23.67 72.12 10.7 49.33 10.7"/><polygon class="cls-57" points="52.93 24.48 54.05 28.76 54.69 28.76 58.81 24.48 52.93 24.48"/><polygon class="cls-58" points="73.22 79.94 73.22 75.99 68.6 78.38 68.6 79.94 66.41 79.94 69.15 82.79 73.66 82.79 75.08 79.94 73.22 79.94"/><polygon class="cls-58" points="73.3 83.5 69.84 83.5 72.12 85.87 73.3 83.5"/><polygon class="cls-59" points="45.79 38.17 36.25 38.17 36.25 48.28 45.79 38.17"/><path class="cls-59" d="M36.25,29.34v.29h0v1.43h.57v4.83h-.57v1.72H46.32l7.81-8.27H36.25Zm8.58,6.55V31.06h1.42v4.83Z"/><polygon class="cls-60" points="36.25 23.67 48.77 23.67 36.25 10.7 36.25 23.67"/><polygon class="cls-60" points="36.25 24.48 36.25 28.76 53.69 28.76 49.56 24.48 36.25 24.48"/><polygon class="cls-51" points="72.12 38.17 62.58 38.17 72.12 48.28 72.12 38.17"/><path class="cls-51" d="M56.58,29.34H54.24l7.81,8.27H72.12V29.74Zm7.12,6.55V31.06h1.42v4.83Z"/><polygon class="cls-28" points="113.1 12.66 113.1 10.7 108.41 10.7 113.1 12.66"/><polygon class="cls-61" points="113.1 15.68 113.1 12.66 108.41 10.7 113.1 15.68"/><polygon class="cls-61" points="115.43 28.76 116.98 28.76 119.38 24.48 115.07 24.48 115.43 28.76"/><polygon class="cls-61" points="116.98 37.61 116.98 29.34 115.48 29.34 116.18 37.61 116.98 37.61"/><polygon class="cls-12" points="115.46 48.51 115.46 41.05 108.41 48.51 115.46 48.51"/><polygon class="cls-62" points="102.02 59.77 103.2 59.77 103.2 62.17 103.63 62 103.63 59.77 105.77 59.77 105.77 61.17 106.19 61.01 106.19 59.77 107.38 59.77 107.38 60.55 108.41 60.15 108.41 48.51 93.94 63.56 93.94 65.75 102.02 62.62 102.02 59.77"/><polygon class="cls-62" points="93.27 66.01 93.27 64.26 90.58 67.05 93.27 66.01"/><polygon class="cls-11" points="115.46 55.98 115.46 48.51 108.41 48.51 115.46 55.98"/><polygon class="cls-11" points="78.35 37.61 84.61 37.61 80.03 34.73 78.35 37.61"/><polygon class="cls-11" points="90.58 41.38 90.58 41.37 85.5 38.17 78.02 38.17 72.12 48.28 90.58 41.38"/><polygon class="cls-11" points="103.04 24.48 106.7 28.76 115.43 28.76 115.07 24.48 103.04 24.48"/><polygon class="cls-11" points="115.46 38.17 114.78 38.17 115.46 38.97 115.46 38.17"/><polygon class="cls-11" points="110.84 31.06 112.26 31.06 112.26 35.24 114.29 37.61 116.18 37.61 115.48 29.34 107.2 29.34 110.84 33.58 110.84 31.06"/><polygon class="cls-11" points="102.34 23.67 113.1 23.67 113.1 17.81 102.16 23.46 102.34 23.67"/><polygon class="cls-11" points="90.71 10.92 90.71 23.67 101.77 23.67 102.16 23.46 90.71 10.92"/><polygon class="cls-11" points="91.22 29.34 90.56 29.34 90.56 29.69 91.22 29.34"/><polygon class="cls-11" points="90.54 24.48 90.55 28.76 92.3 28.76 100.25 24.48 90.54 24.48"/><path class="cls-63" d="M102.83,35.89h-1.42V34L90.56,29.69h0L92,31.2v-.14H93.4v1.63l4.67,4.92H110.3l-7.46-3C102.83,35,102.83,35.47,102.83,35.89Z"/><polygon class="cls-63" points="115.46 41.05 115.46 39.69 111.69 38.17 98.6 38.17 108.41 48.51 115.46 41.05"/><path class="cls-61" d="M74.54,31.27v4.62H73.12V31.06h1.09l-2.09-1.32v7.87h6.23L80,34.73Z"/><polygon class="cls-61" points="78.02 38.17 72.12 38.17 72.12 48.28 78.02 38.17"/><polygon class="cls-12" points="90.57 38.17 89.16 38.17 90.57 41.35 90.57 38.17"/><polygon class="cls-12" points="89.91 23.67 89.91 11.99 84.46 23.67 89.91 23.67"/><polygon class="cls-12" points="90.56 29.69 90.56 29.34 85.24 29.34 88.91 37.61 90.57 37.61 90.56 29.69"/><polygon class="cls-12" points="84.08 24.48 83.57 25.58 84.98 28.76 90.55 28.76 90.54 24.48 84.08 24.48"/><path class="cls-12" d="M90.56,29.69Z"/><polygon class="cls-64" points="82.1 23.67 84.46 23.67 89.91 11.99 89.91 10.7 72.12 10.7 82.1 23.67"/><polygon class="cls-64" points="84.08 24.48 82.72 24.48 83.57 25.58 84.08 24.48"/><path class="cls-65" d="M108.41,10.7H90.71v.22l11.45,12.54ZM99.52,15h4.77V19.1H99.52Z"/><polygon class="cls-58" points="72.12 23.67 82.1 23.67 72.12 10.7 72.12 23.67"/><polygon class="cls-58" points="73.24 29.34 72.12 29.34 72.12 29.74 73.24 29.34"/><polygon class="cls-58" points="82.72 24.48 72.12 24.48 72.12 28.76 74.83 28.76 83.57 25.58 82.72 24.48"/><polygon class="cls-66" points="108.41 85.87 115.46 78.66 115.46 70.61 108.41 72.62 108.41 85.87"/><polygon class="cls-53" points="98.6 38.17 93.94 38.17 93.94 48.32 108.41 48.51 98.6 38.17"/><path class="cls-53" d="M93.4,32.69v3.2H92V31.2l-1.43-1.5h0v7.92h7.5Z"/><polygon class="cls-53" points="90.58 41.38 90.58 41.38 90.58 41.37 90.58 41.38"/><polygon class="cls-53" points="90.57 38.17 90.57 41.35 90.58 41.38 90.58 48.28 93.27 48.31 93.27 38.17 90.57 38.17"/><polygon class="cls-53" points="115.46 38.97 114.78 38.17 111.69 38.17 115.46 39.69 115.46 38.97"/><polygon class="cls-53" points="101.77 23.67 102.34 23.67 102.16 23.46 101.77 23.67"/><polygon class="cls-53" points="100.25 24.48 92.3 28.76 106.7 28.76 103.04 24.48 100.25 24.48"/><path class="cls-53" d="M90.56,29.69h0L101.41,34v-3h1.42v3.56l7.46,3h4l-2-2.37v.65h-1.42V33.58l-3.64-4.25h-16l-.67.36Z"/><polygon class="cls-57" points="74.83 28.76 84.98 28.76 83.57 25.58 74.83 28.76"/><path class="cls-57" d="M73.24,29.34l-1.12.41,2.09,1.32h.33v.21L80,34.73l4.57,2.88h4.31l-3.67-8.27h-12Zm9.32,1.72H84v4.83H82.55Z"/><polygon class="cls-57" points="90.58 41.38 90.57 41.35 89.16 38.17 85.5 38.17 90.58 41.37 90.58 41.38"/><polygon class="cls-67" points="115.46 85.87 115.46 78.66 108.41 85.87 115.46 85.87"/><polygon class="cls-31" points="102.16 23.46 113.1 17.81 113.1 15.68 108.41 10.7 102.16 23.46"/><polygon class="cls-25" points="93.94 48.32 93.94 63.56 108.41 48.51 93.94 48.32"/><polygon class="cls-25" points="90.58 67.05 93.27 64.26 93.27 48.31 90.58 48.28 90.58 67.05"/><polygon class="cls-57" points="108.41 60.15 108.41 72.62 115.46 70.61 115.46 55.98 108.41 48.51 108.41 60.15"/><polygon class="cls-53" points="72.12 48.28 90.58 48.28 90.58 41.38 90.58 41.38 72.12 48.28"/><polygon class="cls-2" points="15.51 72.59 15.51 69.48 15.51 68.69 16.7 68.69 16.7 71.6 16.7 72.59 15.51 72.59"/><polygon class="cls-2" points="12.95 64.88 12.95 63.65 15.09 63.65 15.09 68.03 14.71 68.03 12.95 68.03 12.95 64.88"/><polygon class="cls-2" points="12.95 72.59 12.95 68.69 15.07 68.69 15.09 68.69 15.09 68.72 15.09 72.59 12.95 72.59"/><rect class="cls-2" x="11.34" y="68.69" width="1.18" height="3.9"/><polygon class="cls-2" points="11.34 62 11.34 60.55 11.34 59.77 12.52 59.77 12.52 61.01 12.52 63 11.89 63 11.34 63 11.34 62"/><polygon class="cls-2" points="11.34 68.03 11.34 63.65 12.26 63.65 12.52 63.65 12.52 64.12 12.52 68.03 11.34 68.03"/><polygon class="cls-2" points="15.09 59.77 15.09 62 15.09 63 12.95 63 12.95 61.17 12.95 59.77 15.09 59.77"/><polygon class="cls-2" points="16.7 59.77 16.7 62.62 16.7 63 15.51 63 15.51 62.17 15.51 59.77 16.7 59.77"/><polygon class="cls-2" points="11.34 92.79 11.34 89.56 12.12 89.56 12.52 89.56 12.52 90.36 12.52 92.79 11.34 92.79"/><polygon class="cls-2" points="12.95 91.23 12.95 89.56 15.09 89.56 15.09 92.79 13.72 92.79 12.95 92.79 12.95 91.23"/><rect class="cls-2" x="15.51" y="89.56" width="1.18" height="3.23"/><polygon class="cls-2" points="14.04 93.45 15.09 93.45 15.09 95.56 15.09 97.77 15.09 97.83 12.95 97.83 12.95 96.66 12.95 93.45 14.04 93.45"/><polygon class="cls-2" points="12.52 93.45 12.52 96.44 12.52 97.83 11.34 97.83 11.34 95.83 11.34 93.45 12.52 93.45"/><rect class="cls-2" x="15.51" y="63.65" width="1.18" height="4.38"/><polygon class="cls-2" points="15.51 96.42 15.51 93.45 16.7 93.45 16.7 97.83 16.21 97.83 15.51 97.83 15.51 96.42"/><polygon class="cls-2" points="13.24 102.39 12.95 102.39 12.95 98.49 15.09 98.49 15.09 100.23 15.09 102.39 13.24 102.39"/><rect class="cls-2" x="11.34" y="98.49" width="1.18" height="3.9"/><polygon class="cls-2" points="16.59 98.49 16.7 98.49 16.7 98.6 16.7 102.39 15.51 102.39 15.51 99.73 15.51 98.49 16.49 98.49 16.54 98.49 16.59 98.49"/><polygon class="cls-2" points="4.31 92.2 3.25 93.32 3.25 93.32 10.3 85.88 4.31 92.2"/><polygon class="cls-2" points="25.45 85.88 25.45 85.88 28.13 85.88 25.45 85.88"/><polygon class="cls-2" points="10.3 85.87 24.78 85.88 24.78 85.88 10.3 85.88 3.25 85.88 3.25 85.87 10.3 85.87"/><polygon class="cls-2" points="82.46 85.87 82.46 85.88 69.47 85.88 46.6 85.88 46.6 85.88 28.13 85.88 46.6 85.87 82.46 85.87"/><polygon class="cls-11" points="3.25 88.79 3.25 85.88 10.3 85.88 3.25 88.79"/><polygon class="cls-12" points="3.25 93.32 3.25 88.79 10.3 85.88 3.25 93.32"/><polygon class="cls-13" points="3.25 104.39 3.25 93.32 4.31 92.2 3.25 104.39"/><path class="cls-14" d="M11.34,95.83v2h1.18V96.44l.43.22v1.17h2.14v-.06l1.4.72h-1v1.25l-.42.5V98.49H12.95v3.9h.3l-4.1,4.78H3.25v-2.78L4.31,92.2Zm0,6.56h1.18v-3.9H11.34Z"/><polygon class="cls-15" points="16.7 98.49 16.59 98.49 24.78 89.54 24.78 102.99 16.7 98.6 16.7 98.49"/><polygon class="cls-15" points="28.13 104.81 25.45 103.35 25.45 88.81 28.13 85.88 28.13 104.81"/><polygon class="cls-12" points="24.78 107.17 22.22 107.17 24.78 106.15 24.78 107.17"/><polygon class="cls-12" points="25.89 107.17 25.45 107.17 25.45 105.88 28.13 104.81 25.89 107.17"/><polygon class="cls-12" points="28.13 85.88 35.14 100.64 32.25 107.17 28.13 107.17 28.13 104.81 28.13 85.88"/><polygon class="cls-17" points="46.6 85.88 46.61 85.88 42.57 91.08 42.57 89.55 37.66 89.55 37.66 92.51 41.46 92.51 40.99 93.11 37.66 93.11 37.66 97.12 37.88 97.12 35.14 100.64 28.13 85.88 46.6 85.88 46.6 85.88"/><polygon class="cls-14" points="25.45 88.81 25.45 85.88 28.13 85.88 25.45 88.81"/><path class="cls-14" d="M16.54,98.49l-.33-.66h.49V93.45H15.51v3l-.42-.86V93.45H14l-.33-.66h1.37V89.56H12.94v1.67l-.43-.86v-.8h-.4L10.3,85.88H24.78v3.66l-8.19,8.95h0Zm.16-8.93H15.51v3.23H16.7Z"/><polygon class="cls-19" points="28.13 107.17 25.89 107.17 28.13 104.81 28.13 107.17"/><polygon class="cls-20" points="15.09 102.39 15.09 100.23 15.51 99.73 15.51 102.39 16.7 102.39 16.7 98.6 24.78 102.99 24.78 106.15 22.22 107.17 9.14 107.17 13.24 102.39 15.09 102.39"/><polygon class="cls-20" points="25.45 105.88 25.45 103.35 28.13 104.81 25.45 105.88"/><polygon class="cls-22" points="15.51 96.42 15.51 97.83 16.21 97.83 16.54 98.49 16.49 98.49 15.09 97.77 15.09 95.56 15.51 96.42"/><polygon class="cls-22" points="11.34 89.56 11.34 92.79 12.52 92.79 12.52 90.36 12.95 91.23 12.95 92.79 13.72 92.79 14.04 93.45 12.95 93.45 12.95 96.66 12.52 96.44 12.52 93.45 11.34 93.45 11.34 95.83 4.31 92.2 10.3 85.88 12.12 89.56 11.34 89.56"/><polygon class="cls-25" points="28.13 83.5 30.44 83.5 28.13 85.88 28.13 83.5"/><path class="cls-25" d="M36.26,71.24a29.86,29.86,0,0,0-1.13,7.45l-4,4.1h-3V67Z"/><polygon class="cls-14" points="28.13 82.79 25.45 82.79 25.45 69.95 28.13 67.05 28.13 82.79"/><polygon class="cls-14" points="24.78 70.67 24.78 82.26 19.42 76.47 24.78 70.67"/><polygon class="cls-14" points="28.13 85.88 25.93 83.5 28.13 83.5 28.13 85.88"/><polygon class="cls-53" points="19.42 76.47 24.78 82.26 24.78 85.88 10.3 85.87 19.42 76.47"/><polygon class="cls-53" points="25.45 85.88 25.45 83.5 25.93 83.5 28.13 85.88 25.45 85.88"/><polygon class="cls-14" points="28.13 85.88 30.44 83.5 45.41 83.5 46.6 85.87 28.13 85.88"/><path class="cls-54" d="M10.3,60.15l1,1.85v1h.55l.37.66h-.92V68h1.18V64.12l.43.77V68h1.76l.37.66H12.95v3.9h2.14V68.72l.42.76v3.11H16.7v-1l2.72,4.87-9.12,9.4V60.15Zm1,12.45h1.18V68.7H11.34Z"/><polygon class="cls-17" points="28.13 67.05 28.13 48.28 46.6 48.28 28.13 67.05"/><path class="cls-55" d="M36.26,71.24,28.13,67,40.8,62.1A28,28,0,0,0,36.26,71.24Z"/><path class="cls-28" d="M16.7,71.6V68.7H15.51v.79l-.42-.76v0h0L14.71,68h.38V63.66H12.94v1.23l-.43-.77v-.46h-.26L11.89,63h.63V61l.43.17V63h2.14V62l.42.17V63H16.7v-.37l8.08,3.13v4.92l-5.36,5.8Zm0-7.95H15.51V68H16.7Z"/><polygon class="cls-28" points="10.3 60.15 11.34 60.55 11.34 62 10.3 60.15"/><polygon class="cls-28" points="25.45 69.95 25.45 66.01 28.13 67.05 25.45 69.95"/><polygon class="cls-12" points="3.25 48.51 3.25 41.05 10.3 48.51 3.25 48.51"/><polygon class="cls-62" points="16.7 59.77 15.51 59.77 15.51 62.17 15.09 62 15.09 59.77 12.95 59.77 12.95 61.17 12.52 61.01 12.52 59.77 11.34 59.77 11.34 60.55 10.3 60.15 10.3 48.51 24.78 63.56 24.78 65.75 16.7 62.62 16.7 59.77"/><polygon class="cls-62" points="25.45 66.01 25.45 64.26 28.13 67.05 25.45 66.01"/><polygon class="cls-11" points="3.25 55.98 3.25 48.51 10.3 48.51 3.25 55.98"/><polygon class="cls-63" points="3.25 41.05 3.25 39.69 7.02 38.17 20.11 38.17 10.3 48.51 3.25 41.05"/><polygon class="cls-66" points="10.3 85.87 3.25 78.66 3.25 70.61 10.3 72.62 10.3 85.87"/><polygon class="cls-53" points="20.11 38.17 24.78 38.17 24.78 48.32 10.3 48.51 20.11 38.17"/><polygon class="cls-53" points="28.14 38.17 28.14 41.35 28.13 41.38 28.13 48.28 25.45 48.31 25.45 38.17 28.14 38.17"/><polygon class="cls-67" points="3.25 85.87 3.25 78.66 10.3 85.87 3.25 85.87"/><polygon class="cls-25" points="24.78 48.32 24.78 63.56 10.3 48.51 24.78 48.32"/><polygon class="cls-25" points="28.13 67.05 25.45 64.26 25.45 48.31 28.13 48.28 28.13 67.05"/><polygon class="cls-57" points="10.3 60.15 10.3 72.62 3.25 70.61 3.25 55.98 10.3 48.51 10.3 60.15"/><polygon class="cls-53" points="46.6 48.28 28.13 48.28 28.13 41.38 28.14 41.38 46.6 48.28"/></g></g></svg>
