<svg xmlns="http://www.w3.org/2000/svg" viewBox="0 0 691 144.09"><defs><style>.cls-1{opacity:0.4;}.cls-2{fill:#fff;}</style></defs><title>room-bg</title><g id="图层_2" data-name="图层 2"><g id="图层_1-2" data-name="图层 1"><g class="cls-1"><path class="cls-2" d="M596.37.34l-.6.29A838.67,838.67,0,0,1,512.51,35a691.41,691.41,0,0,1-80.85,23C295.34,87.78,170.44,67.78,60.91.32l.2-.32h.74C171.07,67.09,295.6,86.94,431.49,57.31a690.33,690.33,0,0,0,80.76-23A837,837,0,0,0,595.32,0h.89l.16.34Zm5.15,0L601.35,0h-.89a864.64,864.64,0,0,1-85.38,35.46,707.09,707.09,0,0,1-82.86,23.76C292.88,89.84,165.66,69.29,53,0h-.74l-.2.32C165,70,292.63,90.67,432.39,60a707.13,707.13,0,0,0,83-23.78A865.44,865.44,0,0,0,600.95.61l.57-.27Zm5.26,0L606.61,0h-.88A892.77,892.77,0,0,1,518,36.63a723.33,723.33,0,0,1-85,24.54C290.1,92.79,160.17,71.51,43.85,0h-.74l-.2.32C159.54,72.2,289.84,93.62,433.12,61.92a724.29,724.29,0,0,0,85.11-24.56A893.49,893.49,0,0,0,606.24.6l.53-.26Zm5.22,0L611.82,0h-.89C501.64,52.5,399.24,78.11,303.3,77.79S117.9,51.21,34.43,0h-.74l-.2.32C117.23,51.83,207,78.22,303.3,78.55S502.32,53.13,612,.34Zm5.33,0L617.16,0h-.89C503.77,54.14,399,80.52,300.85,80.16S111.05,52.74,24.76,0H24l-.2.32c86.57,53,178.51,80.25,277,80.6S504.44,54.77,617.33.34Zm5.36,0L622.52,0h-.89C505.92,55.75,398.91,82.89,298.53,82.55S104.29,54.37,15,.17l-.59.09-.2.32C103.73,55,197.81,83,298.53,83.31S506.6,56.37,622.69.34Zm5.44,0L628,0h-.88C508.83,57,400.19,84.91,298.16,85S100.43,57.09,8.47,2.46l-.37.23L7.9,3C100,57.78,195.78,85.76,298.16,85.71S509.5,57.62,628.13.34Zm5.53,0L633.49,0h-.89C512.22,58,402.33,86.7,299,87.36,195.46,88,98.49,60.54,4.07,6.19l-.25.3-.19.33C98.18,61.25,195.3,88.78,299,88.12S512.88,58.63,633.66.34Zm5.58,0L639.07,0h-.88C515.93,58.82,405.08,88.29,300.68,89.71,196.09,91.13,98,64.4,1.31,10.84l-.19.33L1,11.54c96.75,53.6,195,80.35,299.7,78.93S516.6,59.45,639.24.34Zm5.71,0L644.78,0h-.89C520.05,59.48,408.49,89.71,303.28,92,197.87,94.37,98.83,68.71.19,16.41L0,16.75v.43c98.7,52.29,197.81,78,303.29,75.62S520.72,60.1,645,.34Zm5.74,0L650.53,0h-.89C524.38,60,412.28,91,306.43,94.31,200.39,97.64,100.61,73.24.18,22.5L0,22.84v.43C100.5,74,200.34,98.41,306.45,95.07S525,60.62,650.7.34Zm5.91,0L656.44,0h-.89C528.79,60.53,416.1,92.24,309.6,96.55,202.91,100.88,102.41,77.71.17,28.51L0,28.85v.42c102.3,49.21,202.87,72.37,309.63,68s219.82-36.17,347-97Zm6,0L662.39,0h-.89C533.18,61,419.9,93.44,312.74,98.72,205.4,104,104.19,82.08.16,34.39L0,34.73v.42c104.09,47.69,205.36,69.63,312.78,64.33S533.84,61.63,662.56.34Zm6.13,0L668.52,0h-.89c-130,61.51-243.9,94.63-351.73,100.87C207.88,107.11,106,86.38.16,40.18L0,40.53v.42c105.88,46.2,207.85,66.93,315.94,60.68S538.3,62.12,668.68.34Zm6.13,0L674.65,0l-.84,0C542.1,62,427.51,95.8,319,103,210.33,110.14,107.74,90.6.15,45.89L0,46.24v.41c107.65,44.71,210.31,64.25,319.06,57.07S542.73,62.61,674.81.38Zm4.5.87L679.15.9l-.54-.17C545.43,62.87,430.39,97.13,321.4,105.09S109.27,94.67.14,51.53L0,51.88v.41c109.19,43.14,212.29,61.53,321.45,53.56S545.88,63.54,679.31,1.25Zm3.27,1.5-.16-.35L682,2.17C547.72,64.11,432.49,98.6,323.24,107.23S110.61,98.62.14,57.09L0,57.45v.41C110.53,99.38,213.93,116.63,323.3,108S548.1,64.8,682.59,2.74Zm2.57,1.84L685,4.24,684.67,4c-135.23,61.58-250.52,96.17-359.9,105.41S111.83,102.46.13,62.57L0,62.93v.4c111.76,39.9,215.35,56,324.83,46.8S549.77,66.24,685.15,4.58Zm2.06,2.1-.16-.35L686.8,6c-136,61.08-251.3,95.7-360.73,105.48S113,106.23.12,68L0,68.33v.4C112.89,107,216.61,122.06,326.13,112.27S551.05,67.83,687.21,6.69ZM688.84,9l-.15-.32-.21-.36c-136.75,60.5-251.9,95.06-361.33,105.33S114,109.94.12,73.31L0,73.67v.4c113.94,36.63,217.73,50.63,327.23,40.35S552,69.55,688.84,9ZM690,11.54l-.15-.4-.14-.31c-137.35,59.82-252.33,94.26-361.68,105S115,113.59.11,78.58L0,78.95v.4c114.92,35,218.72,48,328.13,37.24S552.6,71.38,690,11.54Zm.73,2.74-.07-.39-.15-.34C552.7,72.59,438,106.85,328.76,118S115.87,117.19.11,83.8L0,84.17v.4C115.82,118,219.57,129.91,328.84,118.76s224-45.42,361.9-104.47Zm.26,2.95v-.41l-.15-.35c-138.17,58.19-252.57,92.2-361.57,103.72S116.68,120.74.1,89l-.1.37v.39c116.63,31.78,220.29,42.75,329.35,31.22S552.82,75.41,691,17.23Zm0,3v-.41l-.15-.35c-138.44,57.28-252.47,91-361.22,102.87S117.42,124.24.1,94.06l-.1.37v.39C117.38,125,220.91,135,329.72,123.14S552.56,77.55,691,20.28Zm0,3v-.41l-.15-.35c-138.7,56.38-252.36,89.82-360.87,102S118.15,127.71.09,99.09L0,99.46v.39c118.11,28.62,221.51,37.67,330.07,25.48S552.3,79.69,691,23.32Zm0,3V26l-.14-.35c-139,55.49-252.28,88.64-360.54,101.16S118.85,131.15.09,104.07l-.09.37v.39c118.81,27.07,222.09,35.2,330.4,22.68S552,81.84,691,26.37Zm0,3V29l-.14-.35c-139.23,54.61-252.2,87.48-360.22,100.3S119.54,134.56.08,109l-.08.37v.39c119.51,25.55,222.65,32.76,330.73,19.93S551.77,84,691,29.4Zm0,3V32l-.14-.36C551.36,85.41,438.73,118,330.94,131.13S120.21,138,.08,113.9l-.07.37v.39C120.19,138.72,223.19,145,331,131.89S551.5,86.16,691,32.44Zm0,3v-.41l-.14-.36c-139.77,52.87-252.08,85.18-359.63,98.61s-210.36,8-331.16-14.57l-.07.37v.39c120.85,22.59,223.72,28,331.33,14.57S551.24,88.33,691,35.47Zm0,3v-.41l-.13-.36c-140,52-252,84-359.36,97.77s-210,9.17-331.44-12l-.07.38v.39c121.49,21.14,224.23,25.69,331.61,12S551,90.5,691,38.49ZM591.22.34,591.06,0h-.89a812,812,0,0,1-80.8,33.17,675,675,0,0,1-78.68,22.22C298.23,84,176.42,64.88,70.48,0h-.74l-.2.32C175.78,65.58,298,84.86,430.85,56.14a675.62,675.62,0,0,0,78.77-22.24,812.18,812.18,0,0,0,81-33.25Z"/></g></g></g></svg>