<?xml version="1.0" encoding="utf-8"?>
<!-- Generator: Adobe Illustrator 15.0.0, SVG Export Plug-In . SVG Version: 6.00 Build 0)  -->
<!DOCTYPE svg PUBLIC "-//W3C//DTD SVG 1.1//EN" "http://www.w3.org/Graphics/SVG/1.1/DTD/svg11.dtd">
<svg version="1.1" id="图层_1" xmlns="http://www.w3.org/2000/svg" xmlns:xlink="http://www.w3.org/1999/xlink" x="0px" y="0px"
	 width="200.195px" height="200px" viewBox="0 0 200.195 200" enable-background="new 0 0 200.195 200" xml:space="preserve">
<path fill="#FFFFFF" d="M129.487,42.875l-62.725,62.487L92.55,128.8l-40.075,62.5l81.337-71.1l-28.388-26.55L129.487,42.875z"/>
<path fill="#FFFFFF" d="M66.737,29.487c3.55,3.638,14.85,4.413,33.913,2.325C94.837,29.225,90.063,18.837,86.337,0.65h-31.95
	C57.775,17.787,61.888,27.4,66.737,29.487L66.737,29.487z"/>
<path fill="#FFFFFF" d="M38.25,156.45l-0.087,0.075L57.325,41.188H26.163L0,198.612h31.175l5.95-35.85H37.2L38.25,156.45z"/>
<path fill="#FFFFFF" d="M198.862,52.875c4.851-19.737-5.774-29.35-31.825-28.837H90.663l-1.425,8.575h61.575
	C166.138,31.05,171.588,38.85,167.2,56l-17.487,105.188c-2.013,15.088-9.65,22.1-22.976,21.075
	c-11.888-0.55-21.712-2.351-29.5-5.476c7.612,13.5,21.987,20.775,43.138,21.825c23.287,0.5,36.475-10.138,39.588-31.975
	L198.862,52.875L198.862,52.875z"/>
</svg>
