<?xml version="1.0" encoding="utf-8"?>
<!-- Generator: Adobe Illustrator 23.0.0, SVG Export Plug-In . SVG Version: 6.00 Build 0)  -->
<svg version="1.1" id="图层_1" xmlns="http://www.w3.org/2000/svg" xmlns:xlink="http://www.w3.org/1999/xlink" x="0px" y="0px"
	 viewBox="0 0 1024 1024" style="enable-background:new 0 0 1024 1024;" xml:space="preserve">
<style type="text/css">
	.st0{fill:#868381;}
	.st1{clip-path:url(#SVGID_3_);}
</style>
<path class="st0" d="M511.6,72.8C268.7,72.8,72.4,269.5,72.4,512s196.7,439.2,439.2,439.2S950.8,754.5,950.8,512
	S754,72.8,511.6,72.8z M158,743.8c50.5,6.1,101.4,66.8,101.4,112.4C224.8,839.6,162.9,767.5,158,743.8z M456.7,786.4
	c-181.8,0-329.4-147.6-329.4-329.4s147.6-329.4,329.4-329.4S786,275.2,786,457S638.5,786.4,456.7,786.4z M556.8,925.2
	c26.3-57.1,209.5-139.2,252.5-134.8C778.1,867.7,628.8,936.2,556.8,925.2L556.8,925.2z M859.8,278.3c31.6,20.2,76,123,69.8,195.9
	C874.7,450,851,305.5,859.8,278.3z"/>
<g>
	<g>
		<path id="SVGID_1_" class="st0" d="M491.6,408.2l-9.8,16V254.7l-12.7,21.2v169.2l-16.7,27.4v1.2h-0.7l-1.8,2.9l19.2-17.2v132.7
			H447l0.3-112.9v-5.5h-70.1l37.6-54.3h32.4l0.4-63.1l-0.7-43.5l-26.2,43.5L379,426.4L266.1,618l9.3,9.5H174.2l14.6-12.7l13.5-22.1
			l0.1-0.1l211.1-344.5l19.7,0.1v-0.1l35.8,0.1l0,0l16.7-0.2l-0.1,0.2h5.2L491.6,408.2L491.6,408.2z M437.4,627.5l9-8.8l0.2-28.9
			h22.5v37.7H437.4L437.4,627.5z"/>
	</g>
</g>
<g>
	<g>
		<path id="SVGID_5_" class="st0" d="M493.3,627.5h-11.5v-37.7h11.6v28.9L493.3,627.5L493.3,627.5z M505.5,390.8V247.1h12.7v122.2
			L505.5,390.8L505.5,390.8z M505.5,627.5v-37.7h12.7c0,10.9,0,22.7,0,28.9l9.1,8.8H505.5L505.5,627.5z M481.8,594.9V508v-60.1
			l11.6-10.4v62.2v95.2l-11.6-3V594.9z M712.3,248l-59,75.3l-78.8,100.6c-0.1,0.1,0,0.2-0.1,0.3c-26.6-10.7-49.8-14.6-66.1-15.9
			l37.7-52.4l67.9-94.5c1-1.2,1.5-2.5,1.5-4c0-1.7-1.7-4.7-5-9.1L712.3,248L712.3,248z"/>
	</g>
	<g>
		<g>
			<defs>
				<path id="SVGID_2_" d="M493.3,627.5h-11.5v-37.7h11.6v28.9L493.3,627.5L493.3,627.5z M505.5,390.8V247.1h12.7v122.2L505.5,390.8
					L505.5,390.8z M505.5,627.5v-37.7h12.7c0,10.9,0,22.7,0,28.9l9.1,8.8H505.5L505.5,627.5z M481.8,530.9V508v-60.1l11.6-10.4v62.2
					v31.2H481.8L481.8,530.9z M712.3,248l-59,75.3l-78.8,100.6c-0.1,0.1,0,0.2-0.1,0.3c-26.6-10.7-49.8-14.6-66.1-15.9l37.7-52.4
					l67.9-94.5c1-1.2,1.5-2.5,1.5-4c0-1.7-1.7-4.7-5-9.1L712.3,248L712.3,248z"/>
			</defs>
			<clipPath id="SVGID_3_">
				<use xlink:href="#SVGID_2_"  style="overflow:visible;"/>
			</clipPath>
			<g transform="matrix(1 0 0 1 -3.814697e-06 0)" class="st1">
			</g>
		</g>
	</g>
</g>
<g>
	<g>
		<path id="SVGID_8_" class="st0" d="M722.2,616.2c0-0.4,0-0.7,0-1.1c0.1-2.8,0.2-5.5,0.2-8.3c0-5-0.2-10-0.6-15
			c-4.5-59.6-35.5-111.2-80.4-141c-26-17.3-56.7-27.3-89.6-27.3c-1.9,0-3.9,0.1-5.8,0.2c-13.5,0.5-26.7,2.7-39.2,6.3l-1.2,0.5v62.7
			v99.9h12.7c0-13,0-93.2,0-104.9c0-20,0-36.7,0-45.2l34.4,38.5l1.3,1.4c62.7,1.3,113.2,56.3,113.2,124c0,1.5-0.1,3-0.1,4.4
			c-0.7,3.7-2.2,7.2-4.5,10.3c-1.7,2.2-3.4,4.2-4.9,6h7.9h55.7H733C732.9,623.5,722.3,619.8,722.2,616.2L722.2,616.2z"/>
	</g>
</g>
</svg>
