<?xml version="1.0" encoding="utf-8"?>
<!-- Generator: Adobe Illustrator 23.0.0, SVG Export Plug-In . SVG Version: 6.00 Build 0)  -->
<svg version="1.1" id="图层_1" xmlns="http://www.w3.org/2000/svg" xmlns:xlink="http://www.w3.org/1999/xlink" x="0px" y="0px"
	 viewBox="0 0 1024 1024" style="enable-background:new 0 0 1024 1024;" xml:space="preserve">
<style type="text/css">
	.st0{fill:#868381;}
</style>
<path class="st0" d="M511.6,72.6c-242.9,0-439.2,196.7-439.2,439.2s196.7,439.2,439.2,439.2s439.2-196.7,439.2-439.2
	S754,72.6,511.6,72.6z M158,743.6c50.5,6.1,101.4,66.8,101.4,112.4C224.8,839.4,162.9,767.3,158,743.6z M456.7,786.2
	c-181.8,0-329.4-147.6-329.4-329.4s147.6-329.4,329.4-329.4S786,275,786,456.8S638.5,786.2,456.7,786.2z M556.8,925
	c26.3-57.1,209.5-139.2,252.5-134.8C778.1,867.5,628.8,936,556.8,925L556.8,925z M859.8,278.1c31.6,20.2,76,123,69.8,195.9
	C874.7,449.8,851,305.3,859.8,278.1z"/>
<path class="st0" d="M502.8,316.3c-10.1,43.9-23.3,77.7-38.6,102.3h-50.1v17.6h79v54h-15.4c2.6,43.9,14.1,81.2,34.7,112v21.1
	c51.4-28.1,88.3-73.8,110.2-137h75.1c-24.6,99.2-89.6,163.4-195,192.8v-36.9c-54-25.9-82.6-76.4-84.8-152.4h-4v185.3h-75.5V490.2
	h-5.7c-1.3,79.9-34.7,135.7-100.1,167.8v-48.3c24.6-29.4,37.8-69.4,40.4-119.9h-27.2v-53.6h92.7v-25h71.1
	c14.1-27.2,23.3-58.4,27.2-94.4C437.3,316.3,502.8,316.3,502.8,316.3L502.8,316.3z M245.9,252.6h156.3c32.9,1.3,65.4-4,96.6-15.4v58
	c-27.2,7.9-56.7,11.4-88.7,11.4H245.9V252.6z M502.8,528.9v-50.1c55.3-25.9,92.2-67.2,110.2-123.4h77.3
	C664.4,446.3,602,504.3,502.8,528.9L502.8,528.9z M502.8,397.6v-50.1c45.2-19.3,75.1-54,90.9-104.1h80.8
	C644.6,330.8,587.5,382.2,502.8,397.6z M244.1,316.3h58c15.4,37.3,24.6,71.6,27.2,102.3h-64.1C262.1,383.9,254.7,349.7,244.1,316.3z
	 M327.1,316.3h58c12.7,27.2,20.6,54.9,23.3,83h-63.7C343.4,378.7,337.7,351,327.1,316.3z"/>
</svg>
