<?xml version="1.0" encoding="utf-8"?>
<!-- Generator: Adobe Illustrator 21.1.0, SVG Export Plug-In . SVG Version: 6.00 Build 0)  -->
<svg version="1.1" id="图层_1" xmlns="http://www.w3.org/2000/svg" xmlns:xlink="http://www.w3.org/1999/xlink" x="0px" y="0px"
	 viewBox="0 0 1024 1024" style="enable-background:new 0 0 1024 1024;" xml:space="preserve">
<g id="图层_2">
	<g id="图层_1-2">
		<path style="fill:#2995FF;" d="M454.8,902.8h231.3c119.6,0,216.6-97,216.6-216.6s-97-216.6-216.6-216.6H507.7
			c-29.2,0-52.9,23.7-52.9,52.9l0,0L454.8,902.8L454.8,902.8z"/>
		<path style="fill:#193653;" d="M95.7,349.3C82.6,349.3,72,359.9,72,373l0,0v517c0,13.1,10.6,23.7,23.7,23.7s23.7-10.6,23.7-23.7
			V373C119.4,359.9,108.8,349.3,95.7,349.3L95.7,349.3z"/>
		<path style="fill:#193653;" d="M667.3,326.6L686.1,193c7.6-49.2-26-95.2-75.2-102.8c-24.3-3.8-49.1,2.6-68.6,17.5L251.1,329.5
			c-5.9,4.4-9.4,11.4-9.4,18.8v562.9c0,13.1,10.6,23.7,23.7,23.7h384c166.2-0.2,301.2-134.2,302.6-300.4v-5.8
			C951.8,468.6,827.1,336.3,667.3,326.6z M904.6,633.6c0,141.3-114.6,255.9-255.9,255.9H289.8V360.7l281.8-214.6
			c18.9-14.3,45.7-10.5,60,8.3c6.9,9.1,9.8,20.5,8.3,31.8l-23.2,159.3c-0.9,6.8,1.1,13.7,5.6,18.9c4.3,5,10.5,8,17.1,8.2h9.4
			c141.3,0,255.9,114.6,255.9,255.9L904.6,633.6L904.6,633.6z"/>
	</g>
</g>
</svg>
