<?xml version="1.0" encoding="utf-8"?>
<!-- Generator: Adobe Illustrator 21.1.0, SVG Export Plug-In . SVG Version: 6.00 Build 0)  -->
<svg version="1.0" id="图层_1" xmlns="http://www.w3.org/2000/svg" xmlns:xlink="http://www.w3.org/1999/xlink" x="0px" y="0px"
	 viewBox="0 0 1024 1024" style="enable-background:new 0 0 1024 1024;" xml:space="preserve">
<path style="fill:#FDD38F;" d="M520.7,763c14.7-12.9,41.1-40.5,70.5-73.6l-70.5-190.7l-65,190.7C483.3,721.9,507.8,749.5,520.7,763z
	"/>
<g>
	<linearGradient id="SVGID_1PRO_" gradientUnits="userSpaceOnUse" x1="372.5829" y1="461.6108" x2="697.1395" y2="765.8829">
		<stop  offset="0" style="stop-color:#B07BFB"/>
		<stop  offset="0.9113" style="stop-color:#8978F5"/>
	</linearGradient>
	<path style="fill:url(#SVGID_1PRO_);" d="M614.4,470.6c66.8-35.6,112.2-106.1,112.2-187C726.6,167.1,631.6,72,515,72
		c-116.5,0-211.6,95.1-211.6,211.6c0,79.7,44.8,149.6,110.4,185.8C250.8,508.6,130,644.2,130,804.8c0,5.5,0,11.6,0.6,18.4
		c0.6,8,3.7,15.3,9.2,20.8c89.5,95.7,245.9,108,372.8,108c125.7,0,281.5-12.9,371.6-114.7c6.1-6.7,9.8-15.9,9.8-25.8v-6.7
		C894,646,775.1,511.7,614.4,470.6z"/>
</g>
<path style="fill:#FFFFFF;" d="M455.7,689.4l65-190.7l70.5,190.7c-29.4,33.1-55.8,60.7-70.5,73.6
	C507.8,749.5,483.3,721.9,455.7,689.4z"/>
</svg>
