<?xml version="1.0" encoding="utf-8"?>
<!-- Generator: Adobe Illustrator 21.1.0, SVG Export Plug-In . SVG Version: 6.00 Build 0)  -->
<svg version="1.1" id="图层_1" xmlns="http://www.w3.org/2000/svg" xmlns:xlink="http://www.w3.org/1999/xlink" x="0px" y="0px"
	 viewBox="0 0 1024 1024" style="enable-background:new 0 0 1024 1024;" xml:space="preserve">
<path style="fill:#FD8157;" d="M707.5,399.1v374.4c0,13.3-10.2,24.1-22.7,24.1H320.6c-12.5,0-22.7-10.9-22.7-24.1V274.8
	c0-13.3,10.3-24.1,22.7-24.1h247.2L707.5,399.1z"/>
<path style="fill:#193653;" d="M540.7,271.4H344.5c-10.1,0-18.4,8.3-18.4,18.4v5c0,10.2,8.3,18.4,18.4,18.4h196.1
	c10.1,0,18.4-8.3,18.4-18.4v-5C559.1,279.7,550.9,271.4,540.7,271.4L540.7,271.4z M511.5,422h-167c-10.1,0-18.4,8.3-18.4,18.4v5
	c0,10.2,8.3,18.4,18.4,18.4h167c10.1,0,18.4-8.3,18.4-18.4v-5C530.1,430.3,521.7,422,511.5,422L511.5,422z M670.1,572.6H344.5
	c-10.1,0-18.4,8.3-18.4,18.4v5c0,10.1,8.3,18.4,18.4,18.4h325.6c10.1,0,18.4-8.3,18.4-18.4v-5C688.6,581,680.3,572.6,670.1,572.6
	L670.1,572.6z M721.9,729.8H344.5c-10.1,0-18.4,8.3-18.4,18.4v5c0,10.2,8.3,18.4,18.4,18.4h377.4c10.2,0,18.4-8.3,18.4-18.4v-5
	C740.4,738.1,732.1,729.8,721.9,729.8L721.9,729.8z M822.8,366.4H647.7c-32.1,0-58.2-28.3-58.2-63V92.9h42v210.5
	c0,11.4,7.5,21.1,16.3,21.1h175.1v41.9H822.8z"/>
<path style="fill:#193653;" d="M624.3,72H222.7c-31.5,0-57,25.9-57,57.8v764.3c0,31.9,25.6,57.9,57,57.9h578.7
	c31.4,0,57.1-26,56.9-57.9V311.8L624.3,72z M816.5,894c0,8.6-6.9,15.9-15.1,15.9H222.7c-8.2,0-15.1-7.2-15.1-15.9V129.8
	c0-8.6,6.9-15.9,15.1-15.9h384l209.9,215L816.5,894L816.5,894z"/>
<path style="fill:#0F0F0F;" d="M222.7,113.8"/>
</svg>
