<?xml version="1.0" encoding="utf-8"?>
<!-- Generator: Adobe Illustrator 21.1.0, SVG Export Plug-In . SVG Version: 6.00 Build 0)  -->
<svg version="1.1" id="图层_1" xmlns="http://www.w3.org/2000/svg" xmlns:xlink="http://www.w3.org/1999/xlink" x="0px" y="0px"
	 viewBox="0 0 1024 1024" style="enable-background:new 0 0 1024 1024;" xml:space="preserve">
<path style="fill:#F43A74;" d="M608.3,826.4h-197c-75.3,0-136.5-61.2-136.5-136.5v-197c0-75.3,61.2-136.5,136.5-136.5h197.8
	c75.3,0,136.5,61.2,136.5,136.5v197.8C745.6,765.2,683.6,826.4,608.3,826.4L608.3,826.4z"/>
<path style="fill:#193653;" d="M511.5,950.5c-14.1,0-24.8-10.8-24.8-24.8V275.3c0-14.1,10.8-24.8,24.8-24.8
	c14.1,0,24.8,10.8,24.8,24.8v650.4C536.3,939.8,525.5,950.5,511.5,950.5L511.5,950.5z"/>
<path style="fill:#193653;" d="M844.1,497.9H178.8c-35.6,0-63.7-29-63.7-63.7v-120c0-35.6,29-63.7,63.7-63.7h665.3
	c35.6,0,63.7,29,63.7,63.7v120C907.8,469,879.7,497.9,844.1,497.9L844.1,497.9z M178.8,300.1c-8.3,0-14.1,6.6-14.1,14.1v120
	c0,8.3,6.6,14.1,14.1,14.1h665.3c8.3,0,14.1-6.6,14.1-14.1v-120c0-8.3-6.6-14.1-14.1-14.1H178.8z"/>
<path style="fill:#193653;" d="M805.2,950.5H217.7c-35.6,0-63.7-29-63.7-63.7V512c0-35.6,29-63.7,63.7-63.7h586.7
	c35.6,0,63.7,29,63.7,63.7v374C868.9,921.6,839.9,950.5,805.2,950.5L805.2,950.5z M217.7,497.9c-8.3,0-14.1,6.6-14.1,14.1v374
	c0,8.3,6.6,14.1,14.1,14.1h586.7c8.3,0,14.1-6.6,14.1-14.1V512c0-8.3-6.6-14.1-14.1-14.1H217.7z M509.8,300.1
	c-11.6,0-21.5-8.3-24-19.8c-7.5-36.4-46.3-81.1-99.3-115c-37.3-23.2-77.8-38.9-111.7-41.4c-28.1-2.5-48.8,3.3-57.1,15.7
	c-13.2,20.7,6.6,70.3,62.1,115.8c10.8,9.1,11.6,24.8,3.3,34.7c-9.1,10.8-24.8,11.6-34.7,3.3c-72.8-61.2-101.8-133.2-72-181.2
	c18.2-29,55.4-43,103.4-38.9c42.2,4.2,89.4,21.5,134,49.6c64.6,40.6,110.9,96.8,120.8,146.5c2.5,13.3-5.8,26.5-19,29.8
	C513.1,299.3,511.5,300.1,509.8,300.1L509.8,300.1z"/>
<path style="fill:#193653;" d="M509.8,300.1c-1.7,0-3.3,0-5-0.8c-13.2-2.5-22.3-15.7-19-29.8c10.8-49.6,57.1-105.9,120.8-146.5
	c99.3-62.9,201.1-67,237.5-10.8c29.8,47.2,0.8,120-72,181.2c-10.8,9.1-26.5,7.5-34.7-3.3c-9.1-10.8-7.5-26.5,3.3-34.7
	c55.5-46.3,75.3-95.1,62.1-115.8c-17.4-27.3-92.7-21.5-168.8,26.5c-52.1,33.1-91,77.8-99.3,115C532.1,291.9,521.4,300.1,509.8,300.1
	L509.8,300.1z"/>
<rect x="115.1" y="72" style="fill:none;" width="793.8" height="880"/>
</svg>
