<?xml version="1.0" encoding="utf-8"?>
<!-- Generator: Adobe Illustrator 21.1.0, SVG Export Plug-In . SVG Version: 6.00 Build 0)  -->
<svg version="1.1" id="图层_1" xmlns="http://www.w3.org/2000/svg" xmlns:xlink="http://www.w3.org/1999/xlink" x="0px" y="0px"
	 viewBox="0 0 1024 1024" style="enable-background:new 0 0 1024 1024;" xml:space="preserve">
<path style="fill:#8670F7;" d="M636,717.2H388c-90.1,0-163.2-73.1-163.2-163.2S297.9,390.8,388,390.8h248
	c90.1,0,163.2,73.1,163.2,163.2S726.1,717.2,636,717.2L636,717.2z"/>
<path style="fill:#193653;" d="M671.5,273.5H534v-62c0-12.1-9.9-22-22-22c-12.1,0-22,9.9-22,22v62H352.5
	C197.9,273.5,72,399.4,72,554s125.9,280.5,280.5,280.5h319C826.1,834.5,952,708.6,952,554S826.2,273.5,671.5,273.5L671.5,273.5z
	 M671.5,790.5h-319C222.1,790.5,116,684.4,116,554s106.1-236.5,236.5-236.5h319C801.9,317.5,908,423.6,908,554
	S801.9,790.5,671.5,790.5L671.5,790.5z"/>
<path style="fill:#193653;" d="M413.1,532h-41.2v-41.3c0-12.1-9.9-22-22-22s-22,9.9-22,22V532h-41.3c-12.1,0-22,9.9-22,22
	s9.9,22,22,22h41.3v41.2c0,12.1,9.9,22,22,22s22-9.9,22-22v-41.3h41.3c12.1,0,22-9.9,22-22C435.3,541.8,425.3,532,413.1,532
	L413.1,532z"/>
<path style="fill:#193653;" d="M663.4,496.7c0,12.1,9.8,22,22,22c12.1,0,22-9.9,22-22s-9.9-22-22-22
	C673.3,474.7,663.4,484.5,663.4,496.7L663.4,496.7z"/>
<path style="fill:#193653;" d="M663.4,611.2c0,12.1,9.8,22,22,22c12.1,0,22-9.8,22-22c0-12.1-9.9-22-22-22
	C673.3,589.2,663.4,599.1,663.4,611.2L663.4,611.2z"/>
<path style="fill:#193653;" d="M720.5,554c0,12.1,9.8,22,22,22c12.1,0,22-9.8,22-22s-9.8-22-22-22S720.5,541.8,720.5,554L720.5,554z
	"/>
<path style="fill:#193653;" d="M606.2,554c0,12.1,9.8,22,22,22c12.1,0,22-9.8,22-22s-9.9-22-22-22C616.1,532,606.2,541.8,606.2,554
	L606.2,554z"/>
</svg>
