<?xml version="1.0" encoding="utf-8"?>
<!-- Generator: Adobe Illustrator 21.1.0, SVG Export Plug-In . SVG Version: 6.00 Build 0)  -->
<svg version="1.1" id="图层_1" xmlns="http://www.w3.org/2000/svg" xmlns:xlink="http://www.w3.org/1999/xlink" x="0px" y="0px"
	 viewBox="0 0 1024 1024" style="enable-background:new 0 0 1024 1024;" xml:space="preserve">
<circle style="fill:#FD8A5A;" cx="511.7" cy="513.9" r="306"/>
<g>
	<path style="fill:#193653;" d="M365.4,868.1c-180.5-65.9-285.3-258.4-237.5-449c25-99.7,86.9-180.9,173.6-232.8L271,307.6
		c-3.3,13,3.2,23.9,16.2,27.1c13,3.3,23.8-3.2,27.1-16.2l43.5-173.3c3.3-13-3.2-23.8-16.2-27.1L168.3,74.6
		c-13-3.2-23.9,3.2-27.1,16.2c-3.2,13,3.2,23.9,16.2,27.1l121.3,30.5c-97.6,58.4-165.9,147.3-194.2,259.9
		c-54.2,215.9,71.9,438.6,280.8,506.6c0,0,24.6,6.1,27.8-16.9C396.1,876.7,365.4,868.1,365.4,868.1z"/>
	<path style="fill:#193653;" d="M939.4,615.7c54.2-215.9-71.9-438.6-280.8-506.6c0,0-24.6-6.1-27.8,16.9
		c-2.9,21.3,27.8,29.8,27.8,29.8c180.5,65.9,285.3,258.4,237.5,449c-25,99.7-86.9,180.9-173.6,232.8L753,716.4
		c3.3-13-3.2-23.9-16.2-27.1c-13-3.3-23.8,3.2-27.1,16.2l-43.5,173.3c-3.3,13,3.2,23.8,16.2,27.1l173.3,43.5
		c13,3.2,23.9-3.2,27.1-16.2c3.2-13-3.2-23.9-16.2-27.1l-121.3-30.5C842.8,817.2,911.2,728.3,939.4,615.7z"/>
</g>
<path style="fill:#193653;" d="M507,719.1c-9.2-0.5-16.6-6.3-17.3-13.5c0-0.7-0.2-1.3-0.5-1.9c0-0.7-0.1-1.3-0.2-1.6l0.4-0.4V591.5
	c0-3.9-3.2-7.1-7.1-7.1h-88c-0.5-0.2-1.1-0.3-1.7-0.3l-4.9-0.1c-7.7-0.2-13.8-8.6-13.6-18.8c0.2-10,6.6-18.2,14.2-18.2
	c0,0,12,0.3,12.4,0.3h81.7c3.9,0,7.1-3.2,7.1-7.1v-41.8c0-3.9-3.2-7.1-7.1-7.1h-87.9c-0.6-0.2-1.2-0.3-1.8-0.3l-2.6-0.1
	c-7.7-0.2-13.8-8.6-13.5-18.8c0.2-10,6.6-18.2,14.2-18.2c0,0,11.9,0.3,12.2,0.3h60.9c2.7,0,5.1-1.5,6.3-3.9c1.2-2.4,0.9-5.3-0.6-7.4
	L409,362.5c-2.3-3.1-2.4-6.6-2-9c0.7-5,3.8-9.8,8.4-13.3c3.9-2.9,8.4-4.5,12.7-4.5c4.5,0,8.2,1.6,10.4,4.7l62.9,84
	c1.3,1.8,3.4,2.8,5.7,2.8l0,0c2.2,0,4.3-1,5.7-2.8l55.5-74.1c0.5-0.7,1-1.8,1.3-2.6l6-7.3c2.2-3,6-4.7,10.4-4.7
	c4.3,0,8.9,1.6,12.7,4.5c4.1,3.1,7,7.3,8.1,11.8c1,4,0.4,7.7-1.7,10.5l-2.4,3.2c-0.3,0.5-0.6,0.9-0.8,1.4L545,443.2
	c-1.6,2.1-1.9,5-0.6,7.4c1.2,2.4,3.6,3.9,6.3,3.9h59.7c0.7,0,2.1-0.3,2.8-0.5l10,0.5c7.7,0.2,13.8,8.6,13.6,18.8
	c-0.2,10-6.6,18.1-14.2,18.1c-0.6,0-1.3,0.1-2,0.3l0.1-0.1h-87.4c-3.9,0-7.1,3.2-7.1,7.1v41.8c0,3.9,3.2,7.1,7.1,7.1h74.4
	c0.7,0,2.1-0.3,2.8-0.5l10.2,0.4c7.7,0.2,13.8,8.6,13.6,18.8c-0.2,9.7-6.5,17.7-13.9,17.9c-0.6,0-1.3,0.1-1.9,0.3h-85.3
	c-3.9,0-7.1,3.2-7.1,7.1v101.3c0,0.7,0.3,2.2,0.5,2.9l-0.5,5.9v3c-0.1,0.4-0.2,0.9-0.2,1.4c-0.4,7.3-8.4,13.2-17.9,13.2L507,719.1z"
	/>
</svg>
