<?xml version="1.0" encoding="utf-8"?>
<!-- Generator: Adobe Illustrator 21.1.0, SVG Export Plug-In . SVG Version: 6.00 Build 0)  -->
<svg version="1.1" id="图层_1" xmlns="http://www.w3.org/2000/svg" xmlns:xlink="http://www.w3.org/1999/xlink" x="0px" y="0px"
	 viewBox="0 0 1024 1024" style="enable-background:new 0 0 1024 1024;" xml:space="preserve">
<path style="fill:#FCA63D;" d="M231.9,805.1c72.2,70.8,171,114.5,280.1,114.5c152.5,0,285-85.3,352.4-210.7
	c30.4-56.3,47.6-120.8,47.6-189.2c0-10.6-0.4-21.2-1.3-31.5L231.9,805.1z"/>
<path style="fill:#193653;" d="M512,952c-58.4,0-115-11.5-168.3-34c-51.5-21.8-97.8-52.9-137.5-92.6c-39.8-39.8-71-86.1-92.7-137.5
	c-22.6-53.3-34-109.9-34-168.3c0-50.2,8.6-99.5,25.4-146.5c16.3-45.2,40-87.3,70.4-125c6.2-7.7,15.4-12,25.3-12
	c7.5,0,14.5,2.5,20.3,7.2c13.9,11.2,16.1,31.7,4.9,45.7c-53.3,65.9-81.5,145.7-81.5,230.7c0,202.7,164.9,367.5,367.5,367.5
	c202.7,0,367.5-164.9,367.5-367.5c0-85-28.2-164.7-81.5-230.7c-11.2-13.9-9-34.5,4.9-45.7c5.8-4.7,12.9-7.1,20.3-7.1
	c9.9,0,19.1,4.4,25.3,12c30.3,37.5,54,79.6,70.4,125c16.8,46.9,25.4,96.2,25.4,146.5c0,58.3-11.4,115-34,168.3
	c-21.7,51.4-52.8,97.6-92.7,137.5c-39.5,39.6-85.7,70.8-137.4,92.6C627,940.5,570.3,952,512,952z"/>
<path style="fill:#193653;" d="M512,525.5c-17.9,0-32.5-14.6-32.5-32.5V104.5c0-17.9,14.6-32.5,32.5-32.5
	c17.9,0,32.5,14.6,32.5,32.5V493C544.5,510.9,529.9,525.5,512,525.5z"/>
</svg>
