<?xml version="1.0" encoding="utf-8"?>
<!-- Generator: Adobe Illustrator 21.1.0, SVG Export Plug-In . SVG Version: 6.00 Build 0)  -->
<svg version="1.1" id="图层_1" xmlns="http://www.w3.org/2000/svg" xmlns:xlink="http://www.w3.org/1999/xlink" x="0px" y="0px"
	 viewBox="0 0 1024 1024" style="enable-background:new 0 0 1024 1024;" xml:space="preserve">
<path style="fill:#FFD45A;" d="M173.8,496.7h41.6V216.4H144c-29.9,0-52.6,26.9-47.6,56.3l31.9,185.6
	C132.1,480.5,151.3,496.7,173.8,496.7L173.8,496.7z M849.5,496.7h-41.6V216.4h73.9c28.7,0,50.4,25.8,45.6,54l-32.3,187.9
	C891.2,480.5,872,496.7,849.5,496.7L849.5,496.7z"/>
<path style="fill:#193653;" d="M934,218.6c-13.6-16.2-33.5-25.3-54.5-25.3H831v-53c0-12.8-10.3-23.1-23.1-23.1H215.3
	c-12.8,0-23.1,10.3-23.1,23.1v53h-50.8c-20.5,0-39.8,9-53,24.7S69.5,254.3,73,274.5l32,186.2c5.9,34.3,35.5,59.1,70.3,59.1h20
	C216.5,664.7,339,777,488.4,782.1V859H364.9c-12.8,0-23.1,10.3-23.1,23.1s10.3,23.1,23.1,23.1h293.3c12.8,0,23.1-10.3,23.1-23.1
	S671,859,658.2,859H534.7v-76.9c149.4-5.2,271.9-117.6,293-262.3h20c34.8,0,64.4-24.9,70.3-59.1l31.6-183.9
	C953.4,255.9,947.6,234.8,934,218.6z M192.3,473.4h-16.8c-12.3,0.1-22.7-8.7-24.8-20.7l-32-186.2c-1.2-6.8,0.7-13.6,5.2-18.9
	c4.5-5.3,10.7-8.3,17.7-8.3h50.8L192.3,473.4L192.3,473.4z M784.9,475.2c0,143.8-117.1,260.9-261,260.9h-24.5
	c-143.8,0-260.9-117.1-260.9-260.9V163.4H785L784.9,475.2L784.9,475.2z M872.5,452.8c-2,12-12.5,20.8-24.8,20.8h-16.8v-234h48.5
	c7.5,0,14.3,3.2,19.1,8.9c5.1,5.7,7,13.1,5.7,20.4L872.5,452.8z"/>
<path style="fill:#F43575;" d="M123.8,247.7c-4.5,5.3-6.3,12-5.2,18.9l32,186.2c2.1,12,12.5,20.8,24.8,20.7h16.8v-234h-50.8
	C134.5,239.4,128.3,242.4,123.8,247.7z"/>
<path style="fill:#F43575;" d="M879.3,239.6h-48.5v234h16.8c12.3,0,22.8-8.8,24.8-20.8l31.7-183.9c1.3-7.4-0.6-14.7-5.7-20.4
	C893.7,242.8,886.8,239.6,879.3,239.6z"/>
<rect x="72" y="117.2" style="fill:none;" width="880" height="789.6"/>
<path style="fill:#193653;" d="M520.8,307.5c-9.1-9-23.7-9-32.7,0l-75.2,75.2c-9,9-9,23.6,0,32.7c4.5,4.5,10.5,6.7,16.3,6.7
	c5.9,0,11.9-2.2,16.3-6.7l75.2-75.2C529.8,331.1,529.8,316.4,520.8,307.5L520.8,307.5z M598.6,388.9L485,502.5c-9,9-9,23.6,0,32.7
	c4.5,4.5,10.5,6.7,16.3,6.7s11.9-2.2,16.3-6.7l113.6-113.6c9-9,9-23.6,0-32.7C622.1,379.9,607.6,379.9,598.6,388.9L598.6,388.9z"/>
</svg>
