<?xml version="1.0" encoding="utf-8"?>
<!-- Generator: Adobe Illustrator 21.1.0, SVG Export Plug-In . SVG Version: 6.00 Build 0)  -->
<svg version="1.1" id="图层_1" xmlns="http://www.w3.org/2000/svg" xmlns:xlink="http://www.w3.org/1999/xlink" x="0px" y="0px"
	 viewBox="0 0 1024 1024" style="enable-background:new 0 0 1024 1024;" xml:space="preserve">
<path style="fill:#24BBEF;" d="M368.3,606.8c0,82.3,48.9,155.6,131.2,195.6c79.8,42.4,180.6,42.4,259.9,0
	c82.3-39.9,131.2-113.2,131.2-195.6c0-125.7-115.7-226.5-259.4-226.5C484.6,380.3,368.3,481.1,368.3,606.8L368.3,606.8z"/>
<path style="fill:#193653;" d="M512,893.6H157.3c-9,0-15-3-18-12c-6.5-6-3-15.5,0-21.4l54.9-85.8C114.9,704.5,72,609.8,72,509
	c0-211,198.5-382.1,440-382.1c241.4,0,440,171.1,440,382.1C952,722.5,753.4,893.6,512,893.6L512,893.6z M200.2,848.2H512
	c217,0,394.1-153.1,394.1-339.2c0-186.6-177.1-336.3-394.1-336.3S117.9,322.4,117.9,509c0,94.8,42.4,180.1,122.2,244.5
	c6,6,9,17.9,6,27.4c0,3-3,6-6,6L200.2,848.2z"/>
<rect x="72" y="126.9" style="fill:none;" width="880" height="770.2"/>
<path style="fill:#193653;" d="M246.1,509c0,24.5,18.5,39.4,39.9,39.4c21,0,39.4-14.9,39.4-39.4c0-21.4-18.5-39.9-39.4-39.9
	C264.5,469.1,246.1,487.5,246.1,509L246.1,509z"/>
<path style="fill:#193653;" d="M472.1,509c0,14.9,9.5,27.4,21.4,36.4c12.5,6,27.5,6,39.9,0c12-9,18-21.5,18-36.4
	c0-21.4-18-39.9-39.4-39.9C490.5,469.1,472.1,487.5,472.1,509L472.1,509z"/>
<path style="fill:#193653;" d="M698.1,509c0,14.9,6.5,27.4,18.5,36.4c12.4,6,27.4,6,39.9,0c12-9,21.4-21.5,21.4-36.4
	c0-12.5-9.5-24.5-21.4-33.9c-12.5-6-27.5-6-39.9,0C704.6,484.5,698.1,496.5,698.1,509L698.1,509z"/>
</svg>
