<?xml version="1.0" encoding="utf-8"?>
<!-- Generator: Adobe Illustrator 21.1.0, SVG Export Plug-In . SVG Version: 6.00 Build 0)  -->
<svg version="1.1" id="图层_1" xmlns="http://www.w3.org/2000/svg" xmlns:xlink="http://www.w3.org/1999/xlink" x="0px" y="0px"
	 viewBox="0 0 1024 1024" style="enable-background:new 0 0 1024 1024;" xml:space="preserve">
<path style="fill:#05BECB;" d="M725.1,830.7H298.9c-27.2,0-49.3-22.1-49.3-49.3V493c0-27.2,22.1-49.4,49.3-49.4H725
	c27.2,0,49.3,22.1,49.3,49.4v288.5C774.4,808.7,752.3,830.7,725.1,830.7L725.1,830.7z"/>
<path style="fill:#193653;" d="M823.9,296.9h-20.5l-35-165.2c-8.3-39.2-45.7-64.2-85-57l-439.3,80.4c-19.3,3.6-36.1,14.3-47.2,30.5
	c-11.2,16.2-15.3,35.7-11.7,55l10.4,56.3c-65.3,2.4-117.8,56.3-117.8,122.2V828c0,67.5,54.9,122.4,122.4,122.4H824
	c67.5,0,122.4-54.9,122.4-122.4V419.1C946.3,351.8,891.4,296.9,823.9,296.9L823.9,296.9z M237.2,213.5c3.7-5.4,9.3-9,15.7-10.1
	L692.2,123c13.2-2.4,25.5,5.9,28.3,19l32.8,155h-508l-12-65C232.1,225.4,233.4,218.9,237.2,213.5L237.2,213.5z M823.9,901.3H200.1
	c-40.5,0-73.4-32.9-73.4-73.4V419.1c0-40.5,32.9-73.4,73.4-73.4h623.8c40.5,0,73.4,32.9,73.4,73.4V492H720.1
	c-72.5,0-131.5,59-131.5,131.5S647.6,755,720.1,755h177.3v72.9C897.3,868.4,864.4,901.3,823.9,901.3L823.9,901.3z M897.3,706H720.1
	c-45.5,0-82.5-37-82.5-82.5s37-82.5,82.5-82.5h177.3L897.3,706L897.3,706z"/>
<rect x="77.7" y="72" style="fill:none;" width="868.6" height="880"/>
<path style="fill:#193653;" d="M695.5,623.5c0,11.4,6.1,21.9,15.9,27.6c9.9,5.7,22,5.7,31.8,0c9.9-5.7,15.9-16.2,15.9-27.6
	c0-11.4-6.1-21.9-15.9-27.6c-9.8-5.7-22-5.7-31.8,0C701.5,601.6,695.5,612.2,695.5,623.5L695.5,623.5z"/>
</svg>
