<?xml version="1.0" encoding="utf-8"?>
<!-- Generator: Adobe Illustrator 21.1.0, SVG Export Plug-In . SVG Version: 6.00 Build 0)  -->
<svg version="1.1" id="图层_1" xmlns="http://www.w3.org/2000/svg" xmlns:xlink="http://www.w3.org/1999/xlink" x="0px" y="0px"
	 viewBox="0 0 1024 1024" style="enable-background:new 0 0 1024 1024;" xml:space="preserve">
<g>

		<linearGradient id="SVGID_1PLA_" gradientUnits="userSpaceOnUse" x1="332.4009" y1="708.5546" x2="572.8558" y2="249.019" gradientTransform="matrix(1 0 0 -1 0 1024)">
		<stop  offset="0.133" style="stop-color:#FF9249"/>
		<stop  offset="0.7833" style="stop-color:#FB5F1E"/>
	</linearGradient>
	<path style="fill:url(#SVGID_1PLA_);" d="M618.7,88.9v172.6c0,63.6,51.5,115.1,115.1,115.1h172.6v517.9c0,31.8-25.8,57.5-57.5,57.5
		H158.3c-31.8,0-57.5-25.8-57.5-57.5V146.4c0-31.8,25.8-57.5,57.5-57.5C158.3,88.9,618.7,88.9,618.7,88.9z"/>
</g>
<path style="fill:#FFFFFF;" d="M302.2,549.2c-15.9,0-28.8,12.9-28.8,28.8c0,15.9,12.9,28.8,28.8,28.8H705
	c15.9,0,28.8-12.9,28.8-28.8c0-15.9-12.9-28.8-28.8-28.8H302.2z"/>
<path style="fill:#FFFFFF;" d="M302.2,721.8c-15.9,0-28.8,12.9-28.8,28.8c0,15.9,12.9,28.8,28.8,28.8H705
	c15.9,0,28.8-12.9,28.8-28.8c0-15.9-12.9-28.8-28.8-28.8H302.2z"/>
<path style="fill:#FEC29F;" d="M725.3,80.5l189.4,189.4c8.2,8.2,10.7,20.6,6.3,31.4s-14.9,17.8-26.6,17.8H733.7
	c-31.8,0-57.5-25.8-57.5-57.5V100.8c0-11.6,7-22.1,17.8-26.6C704.7,69.7,717.1,72.2,725.3,80.5L725.3,80.5z"/>
<path d="M725.3,80.5"/>
</svg>
