<?xml version="1.0" encoding="utf-8"?>
<!-- Generator: Adobe Illustrator 21.1.0, SVG Export Plug-In . SVG Version: 6.00 Build 0)  -->
<svg version="1.1" id="图层_1" xmlns="http://www.w3.org/2000/svg" xmlns:xlink="http://www.w3.org/1999/xlink" x="0px" y="0px"
	 viewBox="0 0 1024 1024" style="enable-background:new 0 0 1024 1024;" xml:space="preserve">
<path style="fill:#193653;" d="M512,952c-59.3,0-117-11.7-171.3-34.6c-52.4-22.2-99.5-53.9-139.8-94.3
	c-40.3-40.5-72.1-87.4-94.3-139.8C83.6,629,72,571.4,72,512s11.6-117,34.6-171.3c22.2-52.4,53.8-99.5,94.3-139.9
	c40.4-40.3,87.4-72.1,139.8-94.3C395,83.6,452.6,72,512,72c59.3,0,117,11.6,171.3,34.6c52.4,22.2,99.5,53.9,139.8,94.3
	s72.1,87.4,94.3,139.9C940.4,395,952,452.6,952,512s-11.6,117-34.6,171.3c-22.2,52.4-53.9,99.5-94.3,139.8
	c-40.4,40.3-87.4,72.1-139.8,94.3C629,940.3,571.3,952,512,952L512,952z M512,118.7c-216.9,0-393.3,176.5-393.3,393.3
	S295.2,905.2,512,905.2S905.3,728.7,905.3,512C905.3,295.2,728.9,118.7,512,118.7L512,118.7z"/>
<path style="fill:#00ABBE;" d="M255.4,520.3C255.4,662.1,370.3,777,512,777s256.6-114.9,256.6-256.6S653.7,263.8,512,263.8
	C370.3,263.7,255.4,378.6,255.4,520.3L255.4,520.3z"/>
<path style="fill:#193653;" d="M492.2,570.7c-12.8,0-23.3-10.5-23.3-23.3v-220c0-12.8,10.5-23.3,23.3-23.3s23.3,10.5,23.3,23.3v220
	C515.5,560.2,505,570.7,492.2,570.7L492.2,570.7z"/>
<path style="fill:#193653;" d="M650.8,686.1c-9.1,9.1-24,9.1-33,0L462.3,530.5c-9.1-9.1-9.1-23.9,0-33s23.9-9.1,33,0L650.8,653
	C659.9,662.3,659.9,677,650.8,686.1L650.8,686.1z"/>
</svg>
