<?xml version="1.0" encoding="utf-8"?>
<!-- Generator: Adobe Illustrator 21.1.0, SVG Export Plug-In . SVG Version: 6.00 Build 0)  -->
<svg version="1.1" id="图层_1" xmlns="http://www.w3.org/2000/svg" xmlns:xlink="http://www.w3.org/1999/xlink" x="0px" y="0px"
	 viewBox="0 0 1024 1024" style="enable-background:new 0 0 1024 1024;" xml:space="preserve">
<path style="fill:#566BA3;" d="M387.5,553.5c0,91.6,74.3,165.9,165.9,165.9s165.9-74.3,165.9-165.9c0-91.7-74.3-165.9-165.9-165.9
	C461.8,387.5,387.5,461.8,387.5,553.5L387.5,553.5z"/>
<path style="fill:#193653;" d="M429,952c-25.4,0-46-20.6-46-45.9v-83.6c-26.9-11.3-52.3-26-75.4-43.7l-72.5,41.9
	c-7,4-14.9,6.2-22.9,6.2c-16.4,0-31.7-8.8-39.9-23l-83-143.7c-12.6-21.9-5.1-50.1,16.8-62.8l72.6-41.9c-4.2-28.9-4.2-58.1,0-87
	l-72.6-41.9c-21.9-12.7-29.5-40.8-16.8-62.8l83-143.7c8.2-14.2,23.4-23,39.9-23c8,0,15.9,2.2,22.9,6.1l72.5,41.9
	c23.2-17.8,48.5-32.5,75.4-43.7v-83.6c0-25.3,20.6-45.9,46-45.9h165.9c25.4,0,46,20.6,46,45.9v83.6c26.9,11.2,52.2,25.9,75.4,43.7
	l72.5-41.9c7-4,14.9-6.1,23-6.1c4,0,8,0.5,11.9,1.6c11.8,3.2,21.7,10.8,27.9,21.4l83,143.7c6.1,10.5,7.8,23.2,4.6,34.9
	c-3.1,11.7-11,21.9-21.4,27.9l-72.6,41.9c4.2,28.9,4.2,58.1,0,87l72.6,41.9c10.6,6.1,18.3,16.1,21.4,27.9
	c3.1,11.6,1.5,24.4-4.6,34.9l-82.9,143.7c-6.2,10.6-16.1,18.3-27.9,21.4c-3.9,1-7.9,1.6-11.9,1.6c-8,0-16-2.2-23-6.1l-72.6-41.9
	c-23.1,17.8-48.5,32.4-75.4,43.6v83.6c0,25.3-20.6,45.9-46,45.9L429,952L429,952z M590.5,901.6V786.9l3.2-1
	c42.6-12.8,82.2-35.7,114.6-66.3l2.4-2.3l99.5,57.5l78.5-135.9l-99.4-57.4l0.8-3.2c10.5-43.3,10.5-89.1,0-132.4l-0.8-3.2l99.4-57.4
	l-78.5-135.9l-99.5,57.5l-2.4-2.3C676,274,636.4,251,593.7,238.2l-3.2-1V122.4h-157v114.8l-3.2,1c-42.7,12.8-82.3,35.7-114.6,66.3
	l-2.4,2.3l-99.5-57.5l-78.4,136l99.3,57.4l-0.8,3.2c-10.5,43.3-10.5,89.1,0,132.4l0.8,3.2l-99.3,57.4l78.4,136l99.5-57.5l2.4,2.3
	c32.3,30.6,71.9,53.6,114.6,66.4l3.2,1v114.8h157V901.6z M512,682.4c-94,0-170.4-76.4-170.4-170.4c0-93.9,76.4-170.4,170.4-170.4
	c93.9,0,170.4,76.4,170.4,170.4c0,45.5-17.7,88.3-49.9,120.5S557.5,682.4,512,682.4z M512,392c-66.2,0-120,53.8-120,120
	s53.8,120,120,120c66.1,0,120-53.8,120-120S578.1,392,512,392z"/>
<path style="fill:#193653;" d="M915.5,422.8l-75.2,43.4c4.7,30.4,4.7,61.3,0,91.7l75.2,43.4c9.5,5.5,16.5,14.6,19.3,25.2
	c2.8,10.6,1.3,21.9-4.2,31.5l-82.9,143.7c-5.5,9.5-14.6,16.5-25.2,19.3s-21.9,1.3-31.5-4.2l-75.1-43.4c-24.2,18.9-51,34.4-79.5,46
	V906c0,22.9-18.6,41.5-41.5,41.5H429c-22.9,0-41.5-18.6-41.5-41.5v-86.6c-28.5-11.6-55.2-27.1-79.5-46.1l-75.1,43.4
	c-19.8,11.5-45.2,4.7-56.6-15.2l-83-143.7c-11.5-19.8-4.7-45.2,15.2-56.7l75.2-43.4c-4.7-30.4-4.7-61.3,0-91.7l-75.2-43.4
	c-19.8-11.5-26.6-36.9-15.2-56.7l83-143.7c11.5-19.8,36.8-26.6,56.6-15.2l75.1,43.4c24.2-19,51-34.5,79.5-46.1v-86.6
	c0-22.9,18.6-41.5,41.5-41.5h165.9c22.9,0,41.5,18.6,41.5,41.5v86.6c28.5,11.6,55.3,27.1,79.5,46.1L791,207c9.5-5.5,20.8-7,31.5-4.2
	c10.6,2.8,19.7,9.8,25.2,19.3l82.9,143.7c5.5,9.5,7,20.9,4.2,31.5C932,408.3,925,417.3,915.5,422.8L915.5,422.8z M811.8,243.2
	l-100.4,58.1c-33-31.3-72.9-54.4-116.4-67.4v-116H429v115.9c-43.5,13-83.4,36-116.4,67.3L212.1,243l-82.9,143.7l100.3,57.9
	c-10.6,44.2-10.6,90.3,0,134.5l-100.3,58l82.9,143.7l100.5-58.1c33,31.3,72.8,54.4,116.4,67.4V906h165.9V790.2
	c43.5-13,83.4-36.1,116.4-67.3L811.8,781l83-143.7l-100.4-58c10.7-44.2,10.7-90.3,0-134.5l100.4-57.9L811.8,243.2z M512,677.9
	c-91.7,0-165.9-74.3-165.9-165.9S420.4,346.1,512,346.1S677.9,420.4,677.9,512c0,44-17.5,86.2-48.6,117.3
	C598.2,660.4,556,677.9,512,677.9L512,677.9z M512,387.5c-68.7,0-124.5,55.7-124.5,124.4c0,68.8,55.7,124.5,124.5,124.5
	c68.7,0,124.4-55.7,124.4-124.5C636.4,443.3,580.7,387.5,512,387.5L512,387.5z"/>
<rect x="87.9" y="76.5" style="fill:none;" width="848.7" height="872.1"/>
</svg>
