<?xml version="1.0" standalone="no"?><!DOCTYPE svg PUBLIC "-//W3C//DTD SVG 1.1//EN" "http://www.w3.org/Graphics/SVG/1.1/DTD/svg11.dtd"><svg t="1566368529584" class="icon" viewBox="0 0 1029 1024" version="1.1" xmlns="http://www.w3.org/2000/svg" p-id="11460" xmlns:xlink="http://www.w3.org/1999/xlink" width="200.9765625" height="200"><defs><style type="text/css"></style></defs><path d="M570.896129 37.663286l108.364543 232.587312c7.929113 18.501263 26.430376 31.716452 47.574678 34.359489l248.445537 37.002527c50.217715 7.929113 71.362016 68.718979 34.35949 105.721506L827.27078 634.989792c-13.215188 13.215188-21.144301 34.359489-15.858226 52.860752l42.288602 261.660726c7.929113 52.860753-47.574677 89.86328-92.506317 66.075941l-216.729086-118.936693c-18.501263-10.572151-42.288602-10.572151-60.789866 0l-216.729086 118.936693c-44.93164 26.430376-100.43543-13.215188-92.506317-66.075941L216.729086 687.850544c2.643038-18.501263-2.643038-39.645565-15.858226-52.860752L18.501263 447.33412c-34.359489-37.002527-15.858226-97.792392 34.35949-105.721506l248.445537-37.002527c21.144301-2.643038 39.645565-15.858226 47.574678-34.359489l108.364543-232.587312c23.787339-50.217715 89.86328-50.217715 113.650618 0z" fill="#b0a9a9" p-id="11461"></path></svg>