<?xml version="1.0" standalone="no"?><!DOCTYPE svg PUBLIC "-//W3C//DTD SVG 1.1//EN" "http://www.w3.org/Graphics/SVG/1.1/DTD/svg11.dtd"><svg t="1566368487692" class="icon" viewBox="0 0 1024 1024" version="1.1" xmlns="http://www.w3.org/2000/svg" p-id="9240" xmlns:xlink="http://www.w3.org/1999/xlink" width="200" height="200"><defs><style type="text/css"></style></defs><path d="M227.773 538.72h-47.738c-33.368 0-60.424 27.055-60.424 60.423v153.715c0 33.37 27.055 60.425 60.424 60.425h47.738c33.384 0 60.424-27.055 60.424-60.425V599.142c0-33.367-27.04-60.422-60.424-60.422z m616.925-164.367H796.96c-33.398 0-60.424 27.055-60.424 60.423v318.081c0 33.37 27.025 60.425 60.424 60.425h47.738c33.368 0 60.424-27.055 60.424-60.425v-318.08c0-33.369-27.056-60.424-60.424-60.424z m-308.934-165.31h-46.793c-33.384 0-60.425 27.055-60.425 60.425v483.39c0 33.37 27.04 60.425 60.425 60.425h46.793c33.368 0 60.424-27.055 60.424-60.425v-483.39c0-33.37-27.056-60.425-60.424-60.425z" fill="#0572f9" p-id="9241"></path></svg>