<?xml version="1.0" encoding="utf-8"?>
<!-- Generator: Adobe Illustrator 23.0.0, SVG Export Plug-In . SVG Version: 6.00 Build 0)  -->
<svg version="1.1" id="图层_1" xmlns="http://www.w3.org/2000/svg" xmlns:xlink="http://www.w3.org/1999/xlink" x="0px" y="0px"
	 viewBox="0 0 1024 1024" style="enable-background:new 0 0 1024 1024;" xml:space="preserve">
<style type="text/css">
	.st0{fill:#868381;}
</style>
<path class="st0" d="M508.9,68.7c-243.3,0-440.6,197.3-440.6,440.6s197.3,440.6,440.6,440.6s440.6-197.3,440.6-440.6l0,0
	C949.6,265.9,752.3,68.7,508.9,68.7z M420.8,795.7c-146,0-264.4-118.4-264.4-264.4s118.4-264.4,264.4-264.4s264.4,118.4,264.4,264.4
	l0,0C685.2,677.3,566.8,795.7,420.8,795.7L420.8,795.7z M723.7,327.5c-47.4-47.4-71.6-99.8-54-117.2s69.8,6.6,117.2,54
	s71.6,99.8,54,117.2C823.3,398.9,771.1,374.9,723.7,327.5z"/>
<path class="st0" d="M480.7,524.9c40.5-12.9,61.5-37.2,62.8-72.7c-4-49.8-40.5-77.3-110.2-82.6c-70.8,6.6-109.4,40.7-115.9,102.2
	c-2.7,39.4,21.6,75.7,59,88.1c-44.1,17-67,44.6-69,82.6c4,51.1,42.5,78,116.1,80.4c85.3-2.3,129.9-35.8,133.7-100.2
	C558.6,578.5,533,545.9,480.7,524.9L480.7,524.9z M433.4,389.2c36.8,1.3,55.7,22,57.1,63c1.1,24-10,47-29.5,61
	c-53.8-22.5-79.3-48.1-76.7-76.9c0.5-26.5,22.4-47.6,48.9-47.2C433.2,389.2,433.3,389.2,433.4,389.2z M427.7,707.6
	c-42-2.6-64-26.9-66.1-72.7c-0.2-25.3,13.4-48.7,35.5-61c3.6,0.3,6.9,1.7,9.7,4c1,1.2,2.4,1.9,4,2l32.2,17.6
	c28.9,14.5,42.5,32.8,41.2,55.1C483.4,683.2,458.3,707.7,427.7,707.6L427.7,707.6z"/>
</svg>
