<?xml version="1.0" encoding="utf-8"?>
<!-- Generator: Adobe Illustrator 24.0.1, SVG Export Plug-In . SVG Version: 6.00 Build 0)  -->
<svg version="1.1" id="图层_1" xmlns="http://www.w3.org/2000/svg" xmlns:xlink="http://www.w3.org/1999/xlink" x="0px" y="0px"
	 viewBox="0 0 1024 1024" style="enable-background:new 0 0 1024 1024;" xml:space="preserve">
<style type="text/css">
	.st0{fill:#ff2f1f;}
</style>
<path class="st0" d="M0,85.3v853.1c0,29.8,15.3,57.1,40.6,72.4c13.7,8.4,29.4,12.9,45,12.9c12.9,0,26.1-2.8,38.2-8.8L976.9,588
	c29-14.5,47.1-43.8,47.1-76.4c0-32.2-18.1-61.9-47.1-76.4L123.5,9.3c-12.1-6-24.9-8.8-38.2-8.8c-15.7,0-31,4.4-45,12.9
	C15.3,28.6,0,55.9,0,85.3z M85.3,85.3L938.3,512l0,0l0,0L85.3,938.7V85.3z"/>
</svg>
