<?xml version="1.0" encoding="utf-8"?>
<!-- Generator: Adobe Illustrator 24.0.1, SVG Export Plug-In . SVG Version: 6.00 Build 0)  -->
<svg version="1.1" id="图层_1" xmlns="http://www.w3.org/2000/svg" xmlns:xlink="http://www.w3.org/1999/xlink" x="0px" y="0px"
	 viewBox="0 0 1024 1024" style="enable-background:new 0 0 1024 1024;" xml:space="preserve">
<path d="M493.8,72.7c-229.3,0-415.2,185.9-415.2,415.2S264.6,903,493.8,903S909,717.2,909,487.9S723.1,72.7,493.8,72.7z
	 M159.6,706.9L159.6,706.9c47.9,6,95.9,63.2,95.9,106.3C223,797.5,164.5,729.5,159.6,706.9L159.6,706.9z M441.9,747.3
	c-172,0-311.4-139.4-311.4-311.4S270,124.6,441.9,124.6S753.3,264,753.3,436S613.9,747.3,441.9,747.3z M536.6,878.4
	c24.9-54.1,198.2-131.5,238.5-127.5C746.1,824.3,604.8,889.1,536.6,878.4L536.6,878.4z M823.1,266.8c30,19.2,71.8,116.3,66.1,185.3
	C837.5,429.2,814.9,292.9,823.1,266.8z M489.8,303.2c-9.8,41.4-21.9,73.6-36.5,96.7h-47.5v16.4h74.8v51.1h-14.5
	c2.4,41.4,13.4,76.7,32.8,105.9v20.1c48.7-26.7,83.3-69.9,104-129.5H674c-23.1,93.7-84.5,154.5-184.2,182.5v-34.7
	c-51.1-24.3-77.8-72.4-80.3-144.2h-3.7v175.2h-71.1V467.4h-5.5c-1.2,75.5-32.8,128.3-94.9,158.8v-45.7
	c23.1-27.9,35.9-65.6,38.3-113.1h-25.5v-51.1h87.6v-23.7h67.4c13.4-25.6,21.9-55.3,25.6-89.5L489.8,303.2L489.8,303.2z M247.2,243
	H395c31.1,1.1,62-3.8,91.2-14.5v54.7c-27.3,7.5-55.6,11.2-83.9,10.9H247.2C247.2,294,247.2,243,247.2,243z M489.8,504v-47.5
	c52.3-24.4,87-63.3,104-116.7h72.9C642.4,426.1,583.5,480.8,489.8,504z M489.8,379.8v-47.4c42.6-18.3,71.2-51.1,85.7-98.5h76.7
	C624.1,316.7,570.1,365.3,489.8,379.8L489.8,379.8L489.8,379.8z M245.2,303.2H300c14.5,35.3,23,67.5,25.5,96.7h-60.2
	C262.2,367,255.4,334.6,245.2,303.2C245.2,303.1,245.2,303.2,245.2,303.2z M323.7,303.2h54.7c12.2,25.6,19.5,51.7,21.9,78.5h-60.1
	c-1.2-19.4-6.7-45.6-16.4-78.5H323.7L323.7,303.2z"/>
</svg>
