<?xml version="1.0" encoding="utf-8"?>
<!-- Generator: Adobe Illustrator 24.0.1, SVG Export Plug-In . SVG Version: 6.00 Build 0)  -->
<svg version="1.1" id="图层_1" xmlns="http://www.w3.org/2000/svg" xmlns:xlink="http://www.w3.org/1999/xlink" x="0px" y="0px"
	 viewBox="0 0 1024 1024" style="enable-background:new 0 0 1024 1024;" xml:space="preserve">
<path d="M342.2,211.1c0-37.1-11.3-50.9-41.8-51.3c-56.2-0.7-112.5-0.4-168.7-0.2c-27.6,0-41,15.8-41,48.8
	c0.2,183.7,0.2,367.4,0,551.1c0,17.7,2.7,33.5,18.7,40.9l214.6-0.3c17-8.9,18.2-26.6,18.2-45.2L342.2,211.1L342.2,211.1z
	 M153.8,214.4h141.5c-16,33.3-38.1,48-65.7,51.9c-36.9,5.1-67.5-8.2-92.2-50.2C146.1,215.2,149.9,214.4,153.8,214.4z M140.5,749.8
	c23.8-64.6,125.4-69,152.6,0C293,749.8,140.5,749.8,140.5,749.8z M291.3,435.2c-24.2,43.6-38.2,89.6-40.2,140.9
	c-0.9,22.8-15.5,14.5-24.9,14.5c-48.6,1.6-50.2-1.4-37.1-56.2c9.6-39.9,29.7-72.2,54.2-103.1c-21.9,6.8-50.3-23.8-64.9,21
	c-3.1,9.2-23,4.6-34.8,2c-11.7-2.6-7-15.3-7.3-23.8c-1.9-55.1-1.8-55.1,46-55.1h79.6C295.7,375.4,310.3,401.1,291.3,435.2
	L291.3,435.2z M614.4,211.1c0-37.1-11.3-51-41.8-51.3c-56.2-0.7-112.5-0.2-168.7,0c-27.6-0.2-40.9,15.6-40.9,48.6
	c0.3,183.7,0.3,367.4,0,551.1c0,17.7,2.7,33.5,18.7,40.9l214.6-0.3c17-8.9,18.2-26.6,18.2-45.2C614.5,573.7,614.5,392.4,614.4,211.1
	L614.4,211.1z M425.9,214.4h141.5c-15.9,33.4-38.1,48.1-65.7,52c-36.8,5.1-67.5-8.2-92.2-50.2C418.2,215.2,422.1,214.4,425.9,214.4z
	 M412.5,749.8c23.8-64.6,125.5-69,152.6,0H412.5L412.5,749.8z M563.3,435.2c-24.2,43.6-38.1,89.5-40.2,140.9
	c-0.9,22.8-15.4,14.5-24.9,14.5c-48.6,1.6-50.2-1.4-37.1-56.2c9.6-39.9,29.8-72.2,54.2-103.1c-21.9,6.8-50.3-23.8-65,21
	c-3.1,9.2-23,4.6-34.7,2c-11.8-2.6-7-15.3-7.3-23.8c-2-55.1-1.8-55.1,46-55.1h79.6C567.9,375.4,582.4,401.1,563.3,435.2L563.3,435.2
	z M886.4,211.1c0-37.1-11.3-51-41.8-51.3c-56.2-0.7-112.4-0.2-168.6,0c-27.7-0.2-41,15.6-41,48.6c0.2,183.7,0.2,367.4,0,551.1
	c0,17.7,2.7,33.5,18.7,40.9l214.6-0.3c17-8.9,18.2-26.6,18.2-45.2L886.4,211.1L886.4,211.1L886.4,211.1z M698,214.4h141.5
	c-15.9,33.4-38.1,48.1-65.7,52c-36.8,5.1-67.5-8.2-92.2-50.2C690.3,215.2,694.1,214.4,698,214.4z M684.7,749.8
	c23.8-64.6,125.5-69,152.6,0H684.7z M835.5,435.2c-24.2,43.6-38.1,89.5-40.2,140.9c-0.9,22.8-15.5,14.5-24.9,14.5
	c-48.6,1.6-50.2-1.4-37.1-56.2c9.6-39.9,29.8-72.2,54.2-103.1c-21.9,6.8-50.3-23.8-65.1,21c-3.1,9.2-23,4.6-34.7,2
	c-11.8-2.6-6.8-15.3-7.1-23.8c-2-55.1-1.8-55.1,46-55.1H806C840,375.4,854.5,401.1,835.5,435.2z"/>
</svg>
