<?xml version="1.0" encoding="utf-8"?>
<!-- Generator: Adobe Illustrator 24.0.1, SVG Export Plug-In . SVG Version: 6.00 Build 0)  -->
<svg version="1.1" id="图层_1" xmlns="http://www.w3.org/2000/svg" xmlns:xlink="http://www.w3.org/1999/xlink" x="0px" y="0px"
	 viewBox="0 0 1024 1024" style="enable-background:new 0 0 1024 1024;" xml:space="preserve">
<path d="M518.5,136.7c-22.6-5.4-45.3,8.4-50.6,31.1l-132,570.4c-3.8,16.9,6.5,34.1,23.4,38.4l357.1,80.9
	c27.6,6.1,55.2-10.7,62.1-38.4l127-546.3c5.4-22.2-8.8-44.9-31.1-50.3L518.5,136.7z M503.1,210.4c11.9-1.2,22.6,7.7,23.8,19.6
	c1.2,11.9-7.7,22.6-19.6,23.8c-11.9,1.2-22.6-7.7-23.8-19.6C482.4,222.2,491.2,211.5,503.1,210.4z M696.9,785.8
	c-12.3,1.2-23-7.7-24.2-19.9c-1.2-12.3,7.7-23,19.9-24.2c12.3-1.2,23,7.7,24.2,19.9C718,773.9,709.1,784.6,696.9,785.8z M728.7,533
	c-6.9,30.3-32.6,51.4-62.5,54.5c-31.8,3.1-61.8-15.3-73.7-44.9c-29.5,26.9-75.2,24.9-102-4.6c-2.7-3.1-5-6.1-7.3-9.6
	c-10.4-15.7-13.8-34.9-9.6-53.3c3.8-16.1,10-35.3,36.1-55.6c18.8-15,81.3-48.3,116.6-66.7c0.4,0,0.4-0.4,0.8-0.4
	c5.8-2.7,12.7-1.2,16.5,3.8c15,20.3,65.2,87.8,76.7,111.2C734.8,497.3,732.1,516.9,728.7,533L728.7,533z"/>
<path d="M339.7,795.7c-11.9-2.7-21.9-9.6-28.4-19.9c-6.5-10.4-8.4-22.2-5.8-34.1L439.1,154c3.1-13,11.5-23.8,22.6-29.9
	c-24.2-14.6-55.6-16.9-83.2-3.1L118.4,252.6l-0.4,0.4c-20.7,10.4-36.1,28-43.3,49.9s-5.4,45.3,5,66l223.6,442.7
	c15,29.2,44.5,47.6,77.1,47.6c13.4,0,26.9-3.1,39.1-9.6l47.2-24.9C466.7,824.5,339.7,795.7,339.7,795.7z M167.5,367.3
	c-12.3,0-22.2-10-22.2-22.2c0-12.3,10-22.2,22.2-22.2c12.3,0,22.2,10,22.2,22.2C190.1,357.3,179.7,367.3,167.5,367.3z"/>
</svg>
