<?xml version="1.0" encoding="utf-8"?>
<!-- Generator: Adobe Illustrator 24.0.1, SVG Export Plug-In . SVG Version: 6.00 Build 0)  -->
<svg version="1.1" id="图层_1" xmlns="http://www.w3.org/2000/svg" xmlns:xlink="http://www.w3.org/1999/xlink" x="0px" y="0px"
	 viewBox="0 0 1024 1024" style="enable-background:new 0 0 1024 1024;" xml:space="preserve">
<path d="M692.1,621.3c-20.1-75.2-6.6-197.1-4.9-236.4c0-3,0.3-5.7,0.3-8.7c3.3-5.4,6.3-11.1,8.6-17.1c5.6-13.8,8.9-28.9,7.2-43.3
	c-1-8.4-4.3-16.1-9.5-21.5c0-3-0.3-6-0.3-9.4c0.3-28.9-2.3-59.4-12.5-92C656.2,112.5,572.7,70.8,493.7,70.8s-162.5,41.6-187.1,121.9
	c-10.9,35.6-13.2,68.2-12.2,99.4c-6.3,5.7-10.5,14.1-11.5,23.8c-1.6,14.4,1.6,29.6,7.2,43.3c3,7.1,6.6,13.8,10.2,19.8
	c0,2,0.3,4,0.3,6c1.6,38.6,14.8,160.5-5.3,235.8c-15.5,5.2-30.9,11-46,17.1c-13.5,5.4-25,13.4-34.9,23.2
	c-9.5,9.7-17.1,21.2-23.7,34.3c-8.2,16.8-14.8,34.4-19.7,52.4c-5.7,20.3-10.2,40.9-13.5,61.8v2c0,7.4,5.9,13.4,13.2,13.4
	c70.4,0.3,120.4,14.1,168.7,27.5c47.4,13.1,92.8,25.9,153.6,25.9s106.2-12.8,153.6-25.9c48.4-13.4,98.4-27.2,168.4-27.5h2.6
	c7.2-1,12.2-8.1,10.9-15.4c-3.6-22.8-7.9-43-13.5-61.8c-5.3-17.9-11.9-35.4-19.7-52.4c-5.9-12.7-13.9-24.2-23.7-34.3
	c-9.9-9.7-21-17.8-34.9-23.2C722.1,632,707.2,626.4,692.1,621.3L692.1,621.3z M313.4,305.2c9.9,1,12.5,6.5,26.6,14
	c11.8,6.5,25-75.5,22.7-100.5C432.4,286,568.6,326.3,669.5,341c-0.3,1-0.7,2-1.3,3.4c-5.3,13-13.2,24.6-19.7,30.4
	c-8.2,7.5-16.4,8.9-22,10.3c-9.2,1.7-13.2,3.1-17.7,12.7c-22.4,45.1-58.6,128.1-119.1,128.1c-60.5,0-97-83.4-119-128.1
	c-4.6-9.2-8.9-10.6-17.8-12.7c-5.6-1-13.8-2.7-22-10.2c-6.6-5.8-14.5-17.4-19.7-30.4c-3.9-9.9-6.6-20.8-5.3-30.1
	C306.1,307.6,309.4,305.2,313.4,305.2L313.4,305.2z M546.4,537.3c8.6,70.1,44.1,82,112.3,104.6c18.4,6,39.5,13,63.2,22.6
	c10.2,4,18.8,10,26,17c7.7,7.8,13.9,16.9,18.4,26.9c7.5,15.3,13.5,31.2,18.1,47.5c3.9,13.3,7.2,27.2,10.2,42.5
	c-28.9,0.9-57.6,4.1-85.9,9.6c-5.3-24.9-17.1-49.8-29.3-75.1c-73.7,5-147.5-4-191.9,77.4c-44.4-81.4-118.2-72.7-191.9-77.4
	c-11.9,24.9-24,49.8-29.3,75.1c-28.3-5.5-57.1-8.8-85.9-9.6c3-15.3,6.3-29.2,10.2-42.5c4.9-16.3,10.9-32.1,18.1-47.5
	c4.7-9.9,10.9-18.9,18.4-26.9c7.4-7.4,16.2-13.2,26-17c23.7-9.3,44.8-16.3,63.2-22.6c68.1-22.6,104-34.5,112.3-104.6
	c16.8,12,35.9,19.6,58.6,19.6C510.5,556.9,529.6,549.2,546.4,537.3L546.4,537.3L546.4,537.3z M363.9,650.7c-2.3-3.1-2-7.1,1-9.5
	c3-2.4,7-2,9.3,1c29.9,38,71.1,59.1,119,59.1s89.1-21,119-59.1c2.3-3.1,6.3-3.4,9.3-1s3.3,6.5,1,9.5c-28.3,36-66.8,58.7-111.7,63.5
	c7.1,5.2,11.4,13.6,11.3,22.4c0,15.6-13,28.2-28.9,28.2c-16,0-28.9-12.6-28.9-28.2c0-9.2,4.3-17,11.3-22.4
	C430.3,709.5,392.1,686.7,363.9,650.7z M362.3,184.6c88.7,85.6,188.3,118.2,307.2,136.5C627.3,273.9,503.5,285.5,362.3,184.6z"/>
</svg>
