<?xml version="1.0" encoding="utf-8"?>
<!-- Generator: Adobe Illustrator 24.0.1, SVG Export Plug-In . SVG Version: 6.00 Build 0)  -->
<svg version="1.1" id="图层_1" xmlns="http://www.w3.org/2000/svg" xmlns:xlink="http://www.w3.org/1999/xlink" x="0px" y="0px"
	 viewBox="0 0 1024 1024" style="enable-background:new 0 0 1024 1024;" xml:space="preserve">
<style type="text/css">
	.st0{fill:#ff2f1f;}
</style>
<path class="st0" d="M983.8,13.3c-14.1-8.4-29.4-12.9-45-12.9c-13.3,0-26.1,2.8-38.2,8.8L47.1,435.2C18.1,449.7,0,479.4,0,511.6
	c0,32.6,18.1,61.9,47.1,76.4l853.1,426.7c12.1,6,25.3,8.8,38.2,8.8c15.7,0,31.4-4.4,45-12.9c25.3-15.3,40.6-42.6,40.6-72.4V85.3
	C1024,55.9,1008.7,28.6,983.8,13.3z M938.7,938.7L85.7,512l0,0l0,0L938.7,85.3V938.7z"/>
</svg>
