<svg xmlns="http://www.w3.org/2000/svg" viewBox="0 0 696.45 393.81"><defs><style>.cls-1{fill:#e45d26;}.cls-2{fill:#c2172f;}.cls-3{fill:#168fb3;}</style></defs><title>game-ag</title><g id="图层_2" data-name="图层 2"><g id="图层_1-2" data-name="图层 1"><path class="cls-1" d="M60.93,48.25,0,393.81H345.32l27-153.29c-8.68-20-11-42.24-6.81-66.47a148.6,148.6,0,0,1,27.66-63.76q1.35-1.83,2.75-3.6l10.3-58.42H60.93ZM290.62,346.84l-34.74-81.6H135l-61.18,81.6H27L229,77.27,336.94,346.84Z"/><path class="cls-1" d="M345.32,393.81"/><polygon class="cls-2" points="290.2 345.56 345.32 393.81 354.64 340.95 290.2 345.56"/><polygon class="cls-1" points="165.86 224.9 240.08 224.9 213.76 161.74 165.86 224.9"/><path class="cls-3" d="M351.13,0,290.2,345.56H635.52L696.45,0H351.13Zm270.3,131.49-45.48.79-4.74-14.21c-18.86-23-31.51-28.14-59.23-28.14-15.69,0-31.46,4-46.87,11.84l-.06,0a109.54,109.54,0,0,0-39.26,32.46c-10.1,13.52-16.51,27.89-19.06,42.71-2.69,15.66-1.22,29.72,4.51,43a65.19,65.19,0,0,0,26.54,30.77c12.61,7.83,27.51,11.79,44.32,11.79a93.09,93.09,0,0,0,54.07-16.82c13-9,18.65-12.77,25.15-26.4l-71.38,0,5.26-38.6,121.59-.61-.37,2.07c-6.53,36.79-22.45,66.55-47.3,88.44s-55.61,33-91.34,33c-43.53,0-76-15.7-96.5-46.66-15.81-23.9-21.11-51.8-15.76-82.92a148.6,148.6,0,0,1,27.66-63.76,154.89,154.89,0,0,1,53.46-45.68,147.11,147.11,0,0,1,68.41-16.52c56.65.77,86.48,29.08,96.42,51.84C624.7,123.84,621.44,131.49,621.44,131.49Z"/></g></g></svg>