<svg xmlns="http://www.w3.org/2000/svg" xmlns:xlink="http://www.w3.org/1999/xlink" viewBox="0 0 210.57 180.33" width="210.57" height="180.33"><defs><style>.cls-1{fill:url(#radial-gradient);}.cls-2{fill:#f6c37a;}.cls-3{fill:url(#radial-gradient-2);}.cls-4{fill:url(#radial-gradient-3);}.cls-5{fill:url(#linear-gradient);}</style><radialGradient id="radial-gradient" cx="137.14" cy="190.26" fx="129.6942705904279" r="17.42" gradientTransform="matrix(1.03, 0.27, -0.26, 1.07, 10.22, -184.31)" gradientUnits="userSpaceOnUse"><stop offset="0" stop-color="#f6ba6a"/><stop offset="0.27" stop-color="#f39d43"/><stop offset="1" stop-color="#ed6a1a"/></radialGradient><radialGradient id="radial-gradient-2" cx="115.21" cy="262.82" fx="88.23285793373068" r="63.1" xlink:href="#radial-gradient"/><radialGradient id="radial-gradient-3" cx="108.71" cy="218.32" r="87.72" gradientTransform="matrix(1.03, 0.27, -0.26, 1.07, 10.22, -184.31)" gradientUnits="userSpaceOnUse"><stop offset="0.4" stop-color="#f6b55e"/><stop offset="0.63" stop-color="#f39e45"/><stop offset="0.96" stop-color="#ef7a1e"/></radialGradient><linearGradient id="linear-gradient" x1="229.7" y1="172.6" x2="253.93" y2="123.22" gradientTransform="matrix(0.97, 0.25, -0.25, 0.97, -17, -152.24)" gradientUnits="userSpaceOnUse"><stop offset="0" stop-color="#ec661a"/><stop offset="0.39" stop-color="#ec691d"/><stop offset="1" stop-color="#f7bc6f"/></linearGradient></defs><title>资源 1</title><g id="图层_2" data-name="图层 2"><g id="图层_1-2" data-name="图层 1"><path class="cls-1" d="M119.59,68.81a15.79,15.79,0,0,1-19.31,11.87h0c-8.51-2.27-13.66-11.27-11.51-20.1L94,39.28a15.8,15.8,0,0,1,19.31-11.87h0c8.51,2.27,13.66,11.27,11.51,20.09Z"/><path class="cls-2" d="M111.76,155.1c-4.39,18-22,28.79-39.31,24.16h0C55.13,174.64,44.64,156.32,49,138.36l1.17-4.8c4.39-18,22-28.79,39.31-24.17h0c17.33,4.62,27.82,22.94,23.43,40.91Z"/><path class="cls-3" d="M158.1,135.6l-4.51-1.2L24.75,100l-6.19-1.65A14.8,14.8,0,0,0,.46,109.48a15.58,15.58,0,0,0,10.78,18.83L17.44,130l128.85,34.38,4.51,1.2a14.8,14.8,0,0,0,18.09-11.12A15.58,15.58,0,0,0,158.1,135.6Z"/><path class="cls-4" d="M155.53,126.46c9.65-39.52-11.38-79.25-47-88.74S36.33,52.57,26.68,92.08L24.75,100,153.59,134.4Z"/><path class="cls-5" d="M171.07,85.15a6,6,0,0,1-4.74-.29,6.57,6.57,0,0,1-2.9-8.6,31.43,31.43,0,0,0,1.24-23.36,30.19,30.19,0,0,0-15-17.49,6.57,6.57,0,0,1-2.91-8.6,6.09,6.09,0,0,1,8.28-3,42.89,42.89,0,0,1,21.36,24.86,44.63,44.63,0,0,1-1.77,33.19,6.22,6.22,0,0,1-3.53,3.27m29.79,5.15a6,6,0,0,1-4.74-.29,6.57,6.57,0,0,1-2.9-8.6,53.2,53.2,0,0,0,2.11-39.55,51.11,51.11,0,0,0-25.46-29.62,6.57,6.57,0,0,1-2.9-8.6,6.08,6.08,0,0,1,8.27-3,63.8,63.8,0,0,1,31.79,37A66.42,66.42,0,0,1,204.4,87a6.22,6.22,0,0,1-3.54,3.27"/></g></g></svg>