<?xml version="1.0" encoding="utf-8"?>
<!-- Generator: Adobe Illustrator 15.0.0, SVG Export Plug-In . SVG Version: 6.00 Build 0)  -->
<!DOCTYPE svg PUBLIC "-//W3C//DTD SVG 1.1//EN" "http://www.w3.org/Graphics/SVG/1.1/DTD/svg11.dtd">
<svg version="1.1" id="图层_1" xmlns="http://www.w3.org/2000/svg" xmlns:xlink="http://www.w3.org/1999/xlink" x="0px" y="0px"
	 width="172.91px" height="172.91px" viewBox="0 0 172.91 172.91" enable-background="new 0 0 172.91 172.91" xml:space="preserve">
<linearGradient id="SVGID_1_" gradientUnits="userSpaceOnUse" x1="86.4575" y1="170.1475" x2="86.4575" y2="2.7832">
	<stop  offset="0" style="stop-color:#5E9328"/>
	<stop  offset="1" style="stop-color:#B1D24C"/>
</linearGradient>
<path fill="url(#SVGID_1_)" stroke="#30A138" stroke-miterlimit="10" d="M128.306,86.466c-5.775,0-10.462-4.688-10.462-10.462
	c0-5.775,4.687-10.463,10.462-10.463c5.774,0,10.462,4.688,10.462,10.463C138.768,81.777,134.08,86.466,128.306,86.466
	L128.306,86.466L128.306,86.466z M86.458,86.466c-5.776,0-10.462-4.688-10.462-10.462c0-5.775,4.687-10.463,10.462-10.463
	c5.775,0,10.462,4.688,10.462,10.463C96.92,81.777,92.233,86.466,86.458,86.466L86.458,86.466L86.458,86.466z M44.623,86.466
	c-5.775,0-10.461-4.688-10.461-10.462c0-5.775,4.673-10.463,10.461-10.463c5.79,0,10.462,4.688,10.462,10.463
	C55.085,81.777,50.398,86.466,44.623,86.466L44.623,86.466L44.623,86.466z M86.458,2.783c-46.215,0-83.683,32.781-83.683,73.221
	c0,23.114,12.262,43.689,31.386,57.108v37.036l36.659-22.249c5.078,0.836,10.295,1.324,15.638,1.324
	c46.214,0,83.682-32.781,83.682-73.219C170.14,35.564,132.686,2.783,86.458,2.783L86.458,2.783L86.458,2.783z"/>
</svg>
