<?xml version="1.0" encoding="utf-8"?>
<!-- Generator: Adobe Illustrator 19.0.0, SVG Export Plug-In . SVG Version: 6.00 Build 0)  -->
<svg version="1.1" id="Layer_1" xmlns="http://www.w3.org/2000/svg" xmlns:xlink="http://www.w3.org/1999/xlink" x="0px" y="0px"
	 width="1024px" height="1024px" viewBox="0 0 1024 1024" style="enable-background:new 0 0 1024 1024;" xml:space="preserve">
<style type="text/css">
	.st0{fill:#29A1F7;}
</style>
<path id="XMLID_3_" class="st0" d="M532.4,648.1c-0.5,2.3-4.7,7-6.5,9.3c-10.2,13-25.1,29.8-37.7,40.5c-2.7,2.3-5.1,4.7-8.3,7.4
	c-2.3,2.3-5.1,4.2-7.9,7c-54,42.9-117.7,66.2-188.9,45.6c-7.9-2.3-16.3-5.1-22.8-8.3c-20-9.8-37.2-26.6-43.7-49.9
	c-5.1-18.1-2.3-37.3,4.7-53.1c21-45.6,72.1-65.7,124.2-61.5c38.2,2.7,69.3,11.2,101.8,22.8C463,614.1,516.1,637.4,532.4,648.1
	L532.4,648.1z M512,64c247,0,447.2,200.6,447.2,448c0,73.7-17.7,143.2-49.2,204.5v-11.9c-11.2-3.3-22.3-7.9-33.5-11.6
	c-32.6-10.3-66.5-22.8-99.6-34c-21.9-7.4-44.2-14.9-66.5-22.4c-7.9-3.3-63.7-21-66.5-22.8c1.4-2.7,3.8-6.5,5.6-9.3
	c1.4-3.3,3.3-6.5,5.1-9.4c9.3-17.2,19.5-40.5,27.4-58.2c6-13,11.2-27.5,16.3-41c2.3-7.4,4.7-13.9,7-21.4c2.3-6.1,5.6-15.9,6.5-21.9
	L559.8,452v-55h186.9v-24.6H559.8l0.5-90.8c-3.3-0.5-79.5-0.9-84.6,0l-0.5,90.8H288.6V397h186.9l-0.5,55.5H312.8v29.3h302.8
	c0.9,6.5-5.1,30.2-7,37.3c-3.3,12.1-5.6,18.1-10.7,28.9c-0.5,1.8-0.5,2.3-1.8,3.8c-0.9,6.5-23.2,39.1-24.2,41.4
	c-5.6-0.5-42.4-10.7-51.2-13c-60-15.4-100-23.7-162.3-28.4c-39.1-0.9-74.4,3.3-105.6,18.6c-14.9,7.4-27.4,15.9-36.8,25.1
	c-35.8,35.8-37.7,96.9-15.8,141.1c13.9,27,34.9,47.5,61.8,61.5c33,16.8,67.9,19.5,104.7,17.7c16.3-0.5,38.1-4.7,53.5-8.3
	c31.2-7.4,59.6-21,85.6-38.2c7.4-4.7,20-13.9,27-19.5l16.3-13.9c4.7-3.8,18.1-18.6,23.2-23.3l28.4-33.1c2.7,0.5,33.5,13.9,38.6,16.3
	l154.5,67.1c22.3,9.4,45.3,19.8,67.5,29C779.3,894.3,653.3,960,512,960C265,960,64.8,759.4,64.8,512S265,64,512,64z"/>
</svg>
