<?xml version="1.0" encoding="utf-8"?>
<!-- Generator: Adobe Illustrator 19.0.0, SVG Export Plug-In . SVG Version: 6.00 Build 0)  -->
<svg version="1.1" id="Layer_1" xmlns="http://www.w3.org/2000/svg" xmlns:xlink="http://www.w3.org/1999/xlink" x="0px" y="0px"
	 width="1024px" height="1024px" viewBox="0 0 1024 1024" style="enable-background:new 0 0 1024 1024;" xml:space="preserve">
<style type="text/css">
	.st0{fill:#19D100;}
</style>
<path class="st0" d="M571.2,511.6c-11.2,0.7-20.1,9.9-20.2,21.2c1.1,10.6,9.9,18.6,20.5,18.9c15.3,0,26-9.5,26-18.9
	c0-11.7-11-21.2-26-21.2L571.2,511.6L571.2,511.6z M504,413.1c13.4,0.9,25-9.3,26-22.6c0.1-0.9,0.1-1.9,0-2.9
	c0.9-13.2-9.1-24.6-22.3-25.6c-1.2-0.1-2.4-0.1-3.8,0c-15.3,0-29.9,9.5-29.9,25.6C474,403.7,488.6,413.1,504,413.1z M512,64
	C264.6,64,64,264.6,64,512s200.6,448,448,448s448-200.6,448-448S759.4,64,512,64z M427.6,625.5c-24.5-0.2-48.9-4.2-72.3-11.7
	l-74,37.3l21.2-62.8c-51.8-36.5-82.7-82.8-82.7-138.7c0-99.3,93.5-175.3,207.3-175.3c100.7,0,190.5,59.9,207.8,144.5
	c-6.4-1.3-12.9-2.1-19.4-2.2c-99.3,0-175.8,74.4-175.8,164.2c0.1,14.8,2,29.5,5.8,43.8c-6.1,0.6-12.1,0.8-18.2,0.7L427.6,625.5z
	 M731.9,696.9l14.6,52.5L691,718.1c-21.2,4.4-41.6,11-62.8,11c-97.7,0-175.3-67.1-175.3-150.4s77.4-150.4,175.3-150.4
	c92.6,0.1,176,67.3,176,150.5c0,46.6-31.4,88.3-72.3,118.2V696.9z M359.4,362c-15.3,0-31.4,9.5-31.4,25.6
	c0,16.1,16.1,25.6,31.4,25.6c13.8,0.5,25.5-10.4,26-24.2c0-0.4,0-0.9,0-1.3c0.5-13.6-10.2-25-23.8-25.6
	C360.9,362,360.2,362,359.4,362z M685.7,511.4c-11.4,0.3-20.6,9.7-20.5,21.2c0.9,10.7,9.8,18.9,20.5,18.9c14.6,0,25.6-9.5,25.6-18.9
	C711.2,520.9,700.3,511.4,685.7,511.4L685.7,511.4z"/>
</svg>
