<svg xmlns="http://www.w3.org/2000/svg" viewBox="0 0 127.51 117.56" width="127.51" height="117.56"><defs><style>.cls-1{fill:none;}.cls-2{fill:#e03319;}.cls-3{fill:#eb660f;}.cls-4{fill:#e9653f;}.cls-5{fill:#ec9a00;}.cls-6{fill:#fbcc00;}.cls-7{fill:#ef8500;}.cls-8{fill:#f8b700;}.cls-9{fill:#f09e00;}.cls-10{fill:#e95913;}.cls-11{fill:#f29d00;}.cls-12{fill:#f08c00;}.cls-13{fill:#ec7109;}.cls-14{fill:#ef8000;}.cls-15{fill:#e64b10;}.cls-16{fill:#e74e11;}.cls-17{fill:#f6ae00;}.cls-18{fill:#ec6f00;}.cls-19{fill:#e73617;}.cls-20{fill:#cc1c1d;}.cls-21{fill:#df4018;}.cls-22{fill:#eb6900;}.cls-23{fill:#f5aa00;}.cls-24{fill:#ed7829;}.cls-25{fill:#f29800;}.cls-26{fill:#e85112;}.cls-27{fill:#ea622c;}.cls-28{fill:#e23417;}.cls-29{fill:#f3a134;}.cls-30{fill:#a24e15;}.cls-31{fill:#f08922;}.cls-32{fill:#f08700;}.cls-33{fill:#ee7d00;}.cls-34{fill:#c71e20;}.cls-35{fill:#e12e18;}.cls-36{fill:#c71520;}.cls-37{fill:#e03f10;}.cls-38{fill:#dd2a17;}.cls-39{fill:#e02f16;}.cls-40{fill:#e74f11;}.cls-41{fill:#eb6830;}.cls-42{fill:#eb6501;}.cls-43{fill:#ed8119;}.cls-44{fill:#e9632a;}.cls-45{fill:#e33914;}.cls-46{fill:#e34410;}.cls-47{fill:#ec7436;}.cls-48{fill:#f39d44;}.cls-49{fill:#f5ac63;}.cls-50{fill:#ef884c;}.cls-51{fill:#ec7426;}.cls-52{fill:#e95e24;}</style></defs><title>pcdd-nxl</title><g id="图层_2" data-name="图层 2"><g id="央铋_1" data-name="央铋 1"><path class="cls-1" d="M53.9,51.39a2.51,2.51,0,1,0-2.51-2.51,2.54,2.54,0,0,0,2.51,2.51Z"/><rect class="cls-2" y="70.75" width="12.49" height="2.55"/><polygon class="cls-2" points="12.49 92.81 12.49 78.77 0 78.77 0 79.63 12.49 92.98 12.49 92.81"/><rect class="cls-2" y="74.16" width="12.49" height="3.77"/><polygon class="cls-3" points="0 79.63 0 89.11 12.49 92.98 0 79.63"/><polygon class="cls-4" points="0 89.11 0 92.98 12.49 92.98 0 89.11"/><polygon class="cls-5" points="0 92.98 0 106.49 12.49 92.98 0 92.98"/><polygon class="cls-6" points="0 106.49 0 117.56 12.49 117.56 12.49 92.98 0 106.49"/><polygon class="cls-7" points="39.47 117.56 52.54 117.56 51.46 104.87 39.47 117.56"/><path class="cls-8" d="M12.49,93v24.58h1.73V97.86A14.66,14.66,0,0,1,14.51,95l-2-2.16Z"/><polygon class="cls-9" points="37.5 100.55 37.5 117.56 39.47 117.56 51.46 104.87 37.5 100.55"/><path class="cls-9" d="M14.51,95c.1-.48.22-1,.36-1.42l-2.39-.74Z"/><path class="cls-10" d="M45.93,92.81H36.6a14.46,14.46,0,0,1,.9,5v2.69l14,4.32Z"/><path class="cls-10" d="M14.88,93.55c.08-.25.15-.5.24-.74H12.49Z"/><path class="cls-11" d="M51.46,104.87l4-4.33V97.86a14.46,14.46,0,0,1,.9-5H45.94Z"/><polygon class="cls-12" points="33.89 69.66 38.78 69.66 37.55 65.7 33.89 69.66"/><polygon class="cls-12" points="29.73 74.16 26.25 77.92 41.33 77.92 40.17 74.16 29.73 74.16"/><polygon class="cls-12" points="32.88 70.75 30.52 73.3 39.91 73.3 39.12 70.75 32.88 70.75"/><path class="cls-12" d="M41.6,78.77H25.47l-13,14h2.63c1.76-4.72,5.9-8,10.74-8s9,3.32,10.74,8h9.34Z"/><polygon class="cls-13" points="38.78 69.66 41.21 69.66 37.55 65.7 38.78 69.66"/><path class="cls-13" d="M41.6,78.77l4.34,14H56.36a13.35,13.35,0,0,1,2.44-4.12l-9.17-9.92Z"/><polygon class="cls-13" points="39.12 70.75 39.91 73.3 44.58 73.3 42.23 70.75 39.12 70.75"/><polygon class="cls-13" points="40.17 74.16 41.33 77.92 48.85 77.92 45.37 74.16 40.17 74.16"/><polygon class="cls-14" points="52.54 117.56 55.47 117.56 55.47 109.64 51.46 104.87 52.54 117.56"/><polygon class="cls-15" points="55.47 106.47 55.47 100.54 51.46 104.87 55.47 106.47"/><polygon class="cls-15" points="78.74 115.73 83.32 117.56 86.46 117.56 78.74 109.54 78.74 115.73"/><path class="cls-16" d="M56.41,48.88A2.5,2.5,0,0,1,52,50.46l-6.27,6.63H62.61V46.84l-4.33-3.06-2.91,3.08A2.51,2.51,0,0,1,56.41,48.88Z"/><polygon class="cls-16" points="62.61 66.37 62.61 57.9 44.93 57.9 37.55 65.7 62.61 66.37"/><path class="cls-17" d="M77.84,92.81a14.44,14.44,0,0,1,.9,5v11.69l7.72,8h2V92.81H77.84Z"/><polygon class="cls-18" points="78.74 117.56 83.32 117.56 78.74 115.73 78.74 117.56"/><polygon class="cls-18" points="55.47 109.64 55.47 106.47 51.46 104.87 55.47 109.64"/><polygon class="cls-19" points="30.71 57.09 30.93 57.09 35.35 57.09 34.64 54.31 30.93 56.93 30.93 52.39 31.5 52.39 31.5 50.69 25.08 50.69 25.08 52.39 25.65 52.39 25.65 53.11 29.41 57.09 30.71 57.09"/><polygon class="cls-19" points="35.55 57.9 30.18 57.9 37.55 65.7 35.55 57.9"/><polygon class="cls-20" points="44.93 57.9 35.55 57.9 37.55 65.7 44.93 57.9"/><path class="cls-20" d="M45.69,57.09,52,50.45a2.48,2.48,0,0,1-.57-1.57,2.5,2.5,0,0,1,4-2l2.91-3.08-4.37-3.1-11.6,8.2-7.67,5.43.71,2.78H45.69Z"/><polygon class="cls-21" points="12.49 70.75 12.49 73.3 30.52 73.3 32.88 70.75 12.49 70.75"/><polygon class="cls-21" points="25.47 78.77 12.49 78.77 12.49 92.81 25.47 78.77"/><polygon class="cls-21" points="16.31 65.7 16.31 69.66 33.89 69.66 37.55 65.7 16.31 65.7"/><polygon class="cls-21" points="12.49 74.16 12.49 77.92 26.25 77.92 29.73 74.16 12.49 74.16"/><polygon class="cls-16" points="25.65 53.11 25.65 57.09 29.41 57.09 25.65 53.11"/><polygon class="cls-16" points="30.18 57.9 16.31 57.9 16.31 65.7 37.55 65.7 30.18 57.9"/><path class="cls-22" d="M49.64,78.77l9.17,9.92a11.72,11.72,0,0,1,3.81-2.91v-7Z"/><polygon class="cls-22" points="37.55 65.7 41.21 69.66 62.61 69.66 62.61 66.37 37.55 65.7"/><polygon class="cls-22" points="42.23 70.75 44.58 73.3 62.61 73.3 62.61 70.75 42.23 70.75"/><polygon class="cls-22" points="45.37 74.16 48.85 77.92 62.61 77.92 62.61 74.16 45.37 74.16"/><polygon class="cls-23" points="92.83 117.56 92.83 114.91 90.33 117.56 92.83 117.56"/><polygon class="cls-24" points="80.58 77.92 74.72 74.16 73.29 74.16 71.13 77.92 80.58 77.92"/><path class="cls-24" d="M88.4,83l-6.5-4.18H70.64l-3.43,6a10.9,10.9,0,0,1,7.66,3.36L88.4,83Z"/><polygon class="cls-25" points="92.83 63.86 92.83 58.64 92.83 57.9 88.36 57.9 88.38 66.29 92.83 63.86"/><polygon class="cls-26" points="91.51 69.66 92.83 69.66 92.83 68.11 88.38 66.3 91.51 69.66"/><polygon class="cls-26" points="92.83 71.08 92.83 70.75 92.52 70.75 92.83 71.08"/><path class="cls-10" d="M62.61,78.77v7a10.5,10.5,0,0,1,4.49-1h.11l3.43-6h-8Z"/><polygon class="cls-10" points="62.61 69.66 67.73 69.66 62.61 66.37 62.61 69.66"/><polygon class="cls-10" points="62.61 70.75 62.61 73.3 73.4 73.3 69.43 70.75 62.61 70.75"/><polygon class="cls-10" points="62.61 77.92 71.13 77.92 73.29 74.16 62.61 74.16 62.61 77.92"/><polygon class="cls-27" points="88.4 77.92 88.39 74.16 84.59 74.16 86.23 77.92 88.4 77.92"/><polygon class="cls-27" points="88.38 66.29 88.36 57.9 79.77 57.9 78.62 60.43 82.63 69.66 88.38 69.66 88.38 66.3 88.38 66.29"/><polygon class="cls-27" points="82.37 57.09 82.37 52.39 82.94 52.39 82.94 50.96 80.14 57.09 82.37 57.09"/><polygon class="cls-27" points="83.11 70.75 84.22 73.3 88.39 73.3 88.39 70.75 83.11 70.75"/><polygon class="cls-27" points="88.4 78.77 86.6 78.77 88.4 82.93 88.4 78.77"/><polygon class="cls-28" points="79.77 57.9 76.71 57.9 78.62 60.43 79.77 57.9"/><polygon class="cls-28" points="82.94 50.96 82.94 50.69 76.52 50.69 76.52 52.39 77.09 52.39 77.09 57.09 80.14 57.09 82.94 50.96"/><polygon class="cls-28" points="77.09 57.09 74.96 55.58 76.1 57.09 77.09 57.09"/><polygon class="cls-29" points="76.1 57.09 74.96 55.58 65.5 48.88 62.61 46.84 62.61 57.09 76.1 57.09"/><polygon class="cls-29" points="78.62 60.43 76.71 57.9 62.61 57.9 62.61 66.37 78.62 60.43"/><polygon class="cls-30" points="88.4 82.97 88.42 82.97 88.4 82.95 88.4 82.97"/><polygon class="cls-31" points="88.38 66.3 88.38 69.66 91.51 69.66 88.38 66.3 88.38 66.3"/><polygon class="cls-31" points="88.39 70.75 88.39 73.3 92.83 73.3 92.83 71.08 92.52 70.75 88.39 70.75"/><polygon class="cls-31" points="88.42 82.97 88.42 92.81 92.83 92.87 92.83 78.77 88.4 78.77 88.4 82.93 88.42 82.97"/><polygon class="cls-31" points="92.83 77.92 92.83 74.16 88.39 74.16 88.4 77.92 92.83 77.92"/><polygon class="cls-31" points="88.38 66.29 88.38 66.3 88.38 66.3 92.83 68.11 92.83 63.86 88.38 66.29"/><polygon class="cls-32" points="86.23 77.92 84.59 74.16 74.72 74.16 80.58 77.92 86.23 77.92"/><polygon class="cls-32" points="62.61 66.37 67.73 69.66 82.63 69.66 78.62 60.43 62.61 66.37"/><polygon class="cls-32" points="69.43 70.75 73.4 73.3 84.22 73.3 83.11 70.75 69.43 70.75"/><polygon class="cls-32" points="88.42 82.97 88.4 82.93 86.6 78.77 81.9 78.77 88.4 82.95 88.42 82.97"/><polygon class="cls-33" points="88.42 92.81 88.42 117.56 90.33 117.56 92.83 114.91 92.83 92.87 88.42 92.81"/><path class="cls-10" d="M88.42,83h0L74.87,88.13a13.15,13.15,0,0,1,3,4.68H88.42V83Z"/><polygon class="cls-1" points="110.61 24.69 110.61 19.04 110.15 19.04 107.67 19.04 107.67 19.96 107.67 24.69 110.61 24.69"/><polygon class="cls-1" points="108.61 56.15 111.62 56.15 111.62 53.59 106.66 53.59 106.66 54.13 106.66 56.15 108.61 56.15"/><polygon class="cls-1" points="105.56 52.99 105.92 52.99 105.92 49.25 103.59 49.25 103.59 50.95 103.59 52.99 105.56 52.99"/><polygon class="cls-1" points="114.69 43.66 114.69 40.77 112.36 40.77 112.36 44.32 112.97 44.32 114.69 44.32 114.69 43.66"/><polygon class="cls-1" points="111.62 48.65 111.62 44.92 111.39 44.92 106.66 44.92 106.66 46.72 106.66 48.65 111.62 48.65"/><rect class="cls-1" x="103.59" y="53.59" width="2.34" height="2.57"/><polygon class="cls-1" points="106.66 39.59 106.66 40.17 111.62 40.17 111.62 36.02 108.7 36.02 106.66 36.02 106.66 39.59"/><rect class="cls-1" x="103.59" y="36.02" width="2.34" height="4.15"/><polygon class="cls-1" points="103.59 44.96 103.59 47.9 103.59 48.65 105.92 48.65 105.92 47 105.92 44.92 103.61 44.92 103.59 44.92 103.59 44.96"/><polygon class="cls-1" points="103.59 40.77 103.59 44.32 103.96 44.32 105.92 44.32 105.92 40.88 105.92 40.77 103.59 40.77"/><rect class="cls-1" x="112.36" y="36.02" width="2.33" height="4.15"/><rect class="cls-1" x="112.36" y="53.59" width="2.33" height="2.57"/><rect class="cls-1" x="106.66" y="49.25" width="4.96" height="3.73"/><rect class="cls-1" x="112.36" y="49.25" width="2.33" height="3.73"/><rect class="cls-1" x="112.36" y="44.92" width="2.33" height="3.73"/><rect class="cls-1" x="106.66" y="40.77" width="4.96" height="3.55"/><polygon class="cls-34" points="92.55 98.63 92.55 102.35 101.44 102.35 92.55 98.63"/><polygon class="cls-35" points="92.55 93.54 92.55 95.86 95.32 95.86 93.14 93.54 92.55 93.54"/><polygon class="cls-35" points="96.31 96.92 92.55 96.92 92.55 98.63 101.44 102.35 96.31 96.92"/><polygon class="cls-36" points="92.55 92.49 92.99 92.49 92.55 87.28 92.55 92.49"/><polygon class="cls-37" points="92.55 48.71 92.55 58.34 101.44 48.71 92.55 48.71"/><polygon class="cls-38" points="92.55 39.09 92.55 48.71 101.44 48.71 92.55 39.09"/><polygon class="cls-39" points="92.55 63.56 92.63 63.56 92.55 63.46 92.55 63.56"/><polygon class="cls-39" points="93.52 64.62 92.55 64.62 92.55 70.75 92.55 73.3 92.55 74.16 92.55 77.92 92.55 78.77 92.55 87.28 92.99 92.49 94.95 92.49 110.18 84.46 93.52 64.62"/><polygon class="cls-40" points="125.73 96.92 121.99 96.92 125.73 100.86 125.73 96.92"/><polygon class="cls-40" points="117.79 92.49 125.73 92.49 125.73 76.29 110.18 84.46 117.79 92.49"/><polygon class="cls-40" points="127.18 93.54 125.73 93.54 118.79 93.54 120.99 95.86 125.73 95.86 127.18 93.97 127.18 93.54"/><polygon class="cls-41" points="92.55 61.25 92.55 61.67 97.29 63.56 115.75 63.56 113.52 61.25 92.55 61.25"/><path class="cls-41" d="M106.66,56.15v-2L105.56,53h-2v-2l-2.15-2.23-8.9,9.63v1.85h20l-3.89-4h-1.95Zm-.74,0h-2.34V53.59h2.34Z"/><polygon class="cls-41" points="99.93 64.62 125.73 74.89 125.73 73.92 116.77 64.62 99.93 64.62"/><polygon class="cls-42" points="127.51 93.54 127.18 93.54 127.18 93.97 127.51 93.54"/><polygon class="cls-24" points="105.74 93.54 104.61 95.86 120.99 95.86 118.79 93.54 105.74 93.54"/><polygon class="cls-24" points="106.26 92.49 117.79 92.49 110.18 84.46 106.26 92.49"/><path class="cls-24" d="M125.73,100.86,122,96.92H104.1l-2.65,5.44H105a4.71,4.71,0,0,1,8.18,0h12.5Z"/><polygon class="cls-43" points="125.73 73.92 125.73 64.62 116.77 64.62 125.73 73.92"/><path class="cls-43" d="M103.59,50.95V49.26h2.34V53h-.37l1.1,1.14v-.54h5v2.57h-3l3.89,4h13.23V48.71H101.44Zm8.77-1.69h2.33V53h-2.33Zm0,4.33h2.33v2.57h-2.33Zm-5.69-4.33h5V53h-5Z"/><polygon class="cls-43" points="125.73 61.25 113.52 61.25 115.75 63.56 125.73 63.56 127.25 61.58 127.25 61.25 125.73 61.25"/><polygon class="cls-44" points="93.52 64.62 110.18 84.46 125.73 76.29 125.73 74.89 99.93 64.62 93.52 64.62"/><polygon class="cls-44" points="92.55 63.46 92.63 63.56 97.29 63.56 92.55 61.67 92.55 63.46"/><polygon class="cls-45" points="94.95 92.49 106.26 92.49 110.18 84.46 94.95 92.49"/><polygon class="cls-45" points="93.14 93.54 95.32 95.86 104.61 95.86 105.74 93.54 93.14 93.54"/><polygon class="cls-45" points="104.1 96.92 96.31 96.92 101.44 102.35 104.1 96.92"/><polygon class="cls-46" points="101.44 33.31 92.55 33.31 92.55 39.09 101.44 48.71 101.44 33.31"/><polygon class="cls-46" points="98.77 26.79 101.44 26.79 101.44 22.36 98.77 26.79"/><polygon class="cls-46" points="90.78 27.64 92.55 32.28 101.44 32.28 101.44 27.64 90.78 27.64"/><path class="cls-47" d="M110.26,33.31,108.7,36h2.91v4.15h-5v-.58l-.74,1.29v3.44h-2l-.35.6h2.31V47l.74-.28v-1.8h4.73l1.58-.6h-.61V40.77h2.33v2.89l11-4.21V37.9l-7.13-4.59h-8.34Zm1.36,11h-5V40.77h5Zm.74-4.15V36h2.33v4.15Z"/><polygon class="cls-47" points="101.44 48.71 103.59 47.9 103.59 44.96 101.44 48.71"/><polygon class="cls-47" points="110.85 32.28 117 32.28 112.5 29.39 110.85 32.28"/><polygon class="cls-35" points="109.79 27.64 101.44 27.64 101.44 32.28 110.85 32.28 112.5 29.39 109.79 27.64"/><polygon class="cls-35" points="101.44 22.36 101.44 26.79 108.46 26.79 101.48 22.3 101.44 22.36"/><path class="cls-35" d="M103.59,45v0h0l.35-.6h-.37V40.77h2.34v.11l.74-1.29V36h2l1.55-2.72h-8.82v15.4Zm0-8.93h2.34v4.15h-2.34Z"/><polygon class="cls-48" points="125.73 35.39 125.73 33.31 124.83 33.31 125.73 35.39"/><polygon class="cls-48" points="122.37 27.64 124.38 32.28 125.73 32.28 127.25 28.31 127.25 27.64 122.37 27.64"/><polygon class="cls-49" points="109.33 5.13 109.14 0 108.95 5.13 108.95 5.16 109.35 5.69 109.33 5.13"/><polygon class="cls-37" points="103.95 18.2 101.51 22.25 107.67 19.96 107.67 19.04 110.15 19.04 113.97 17.62 109.52 10.25 109.35 5.69 108.95 5.16 108.76 10.25 103.95 18.2"/><polygon class="cls-27" points="127.25 28.31 127.51 27.64 127.25 27.64 127.25 28.31"/><polygon class="cls-50" points="118.6 33.31 125.73 37.9 125.73 35.39 124.83 33.31 118.6 33.31"/><polygon class="cls-50" points="110.61 19.04 110.61 24.69 107.67 24.69 107.67 19.96 101.51 22.25 101.48 22.3 108.46 26.79 109.14 26.79 119.51 26.79 114.33 18.2 113.97 17.62 110.15 19.04 110.61 19.04"/><polygon class="cls-50" points="109.79 27.64 112.5 29.39 117 32.28 124.38 32.28 122.37 27.64 109.79 27.64"/><polygon class="cls-51" points="127.25 61.58 127.51 61.25 127.25 61.25 127.25 61.58"/><path class="cls-52" d="M114.69,44.32H113l-1.58.6h.23v3.73h-5V46.72l-.74.28v1.65h-2.34v-.76l-2.15.82h24.29V39.45l-11,4.21v.66Zm0,4.33h-2.33V44.92h2.33Z"/><polygon class="cls-16" points="92.55 111.76 92.55 117.56 101.44 117.56 101.44 102.35 92.55 111.76"/><polygon class="cls-20" points="92.55 102.35 92.55 111.76 101.44 102.35 92.55 102.35"/><polygon class="cls-27" points="120.2 117.56 125.73 117.56 125.73 105.44 120.2 117.56"/><path class="cls-28" d="M125.73,102.35h-12.5a6.12,6.12,0,0,1,.95,3.29v11.92h6l5.54-12.12Z"/><path class="cls-28" d="M104.1,105.88v-.24a6.11,6.11,0,0,1,.95-3.29h-3.61Z"/><polygon class="cls-29" points="101.44 117.56 104.1 117.56 104.1 105.88 101.44 102.35 101.44 117.56"/></g></g></svg>
