<svg xmlns="http://www.w3.org/2000/svg" viewBox="0 0 132.18 94.43" width="132.18" height="94.43"><defs><style>.cls-1{fill:none;}.cls-2{fill:#ee7a00;}.cls-3{fill:#e74e11;}.cls-4{fill:#e95913;}.cls-5{fill:#e4121d;}.cls-6{fill:#dd3819;}.cls-7{fill:#e03319;}.cls-8{fill:#eb660f;}.cls-9{fill:#e9653f;}.cls-10{fill:#ec705b;}.cls-11{fill:#ec9a00;}.cls-12{fill:#ee7e0e;}.cls-13{fill:#e34410;}.cls-14{fill:#e95640;}.cls-15{fill:#e41a1c;}.cls-16{fill:#e73617;}.cls-17{fill:#e7412b;}.cls-18{fill:#fbcc00;}.cls-19{fill:#eb6602;}.cls-20{fill:#ea6240;}.cls-21{fill:#ee7f45;}.cls-22{fill:#ea6043;}.cls-23{fill:#e95808;}.cls-24{fill:#a84d15;}.cls-25{fill:#e63416;}.cls-26{fill:#e95331;}.cls-27{fill:#ed7953;}.cls-28{fill:#e95416;}.cls-29{fill:#ea6656;}.cls-30{fill:#ef8500;}.cls-31{fill:#f8b700;}.cls-32{fill:#f09e00;}.cls-33{fill:#f29d00;}.cls-34{fill:#f08c00;}.cls-35{fill:#ec7109;}.cls-36{fill:#ef8000;}.cls-37{fill:#e64b10;}.cls-38{fill:#ec6f00;}.cls-39{fill:#df4018;}.cls-40{fill:#eb6900;}.cls-41{fill:#cf161f;}.cls-42{fill:#e95c21;}.cls-43{fill:#c71625;}.cls-44{fill:#be1e23;}.cls-45{fill:#aa141b;}.cls-46{fill:#c3171f;}.cls-47{fill:#cede68;}.cls-48{fill:#d9151e;}.cls-49{fill:#e22624;}.cls-50{fill:#e84b2c;}.cls-51{fill:#d5231a;}.cls-52{fill:#d1151d;}</style></defs><title>pcdd-mxg</title><g id="图层_2" data-name="图层 2"><g id="央铋_1" data-name="央铋 1"><rect class="cls-1" x="59.67" y="46.7" height="11.98" transform="translate(-18.93 65.28) rotate(-50.54)"/><polygon class="cls-1" points="90.7 59.86 90.7 59.86 68.39 59.86 90.7 59.86"/><polygon class="cls-1" points="64.77 56.88 64.77 56.88 68.39 59.86 64.77 56.88"/><polygon class="cls-1" points="23.11 84.78 42.75 94.43 42.75 94.43 36.23 91.22 23.11 84.78"/><polygon class="cls-1" points="23.1 84.77 23.11 84.78 23.1 84.77 23.1 84.77"/><path class="cls-2" d="M78.26,51.55a13.24,13.24,0,0,1-1.62-5.2V45.9H59.75L78,51.78Z"/><polygon class="cls-2" points="75.56 45.55 75.56 42.87 56.62 42.87 56.62 44.9 58.64 45.55 75.56 45.55"/><polygon class="cls-3" points="56.62 44.9 56.62 45.55 58.64 45.55 56.62 44.9"/><polygon class="cls-3" points="71.92 56.88 64.77 56.88 68.39 59.86 71.92 56.88"/><path class="cls-3" d="M59.75,45.9h-4.2v.45a14.19,14.19,0,0,1-.5,2.52L64.3,56.5h8.08L78,51.78Z"/><polygon class="cls-4" points="90.7 59.52 90.7 56.88 86.01 56.88 90.7 59.86 90.7 59.52"/><path class="cls-4" d="M78,51.78l.68.43c-.14-.21-.27-.44-.4-.67Z"/><polygon class="cls-5" points="64.7 62.84 55.22 62.84 56 69.87 64.7 62.84"/><polygon class="cls-5" points="64.77 56.88 54.56 56.88 55.17 62.42 65.23 62.42 68.39 59.86 64.77 56.88"/><path class="cls-5" d="M54,51.5l.56,5H64.3L55,48.88A12.36,12.36,0,0,1,54,51.5Z"/><path class="cls-6" d="M72.38,56.5H83.83a11.15,11.15,0,0,1-5.17-4.28L78,51.78Z"/><polygon class="cls-6" points="90.7 59.86 86.01 56.88 71.92 56.88 68.39 59.86 90.7 59.86"/><polygon class="cls-7" points="90.7 77.96 90.7 62.84 72.04 62.84 90.7 78.08 90.7 77.96"/><polygon class="cls-7" points="68.39 59.86 71.52 62.42 90.7 62.42 90.7 59.86 68.39 59.86"/><polygon class="cls-8" points="90.7 78.08 72.04 62.84 64.7 62.84 56 69.87 90.7 78.08"/><polygon class="cls-8" points="65.23 62.42 71.52 62.42 68.39 59.86 65.23 62.42"/><polygon class="cls-9" points="60.92 78.08 90.7 78.08 56 69.87 60.92 78.08"/><polygon class="cls-10" points="46.08 78.08 60.92 78.08 56 69.87 46.08 78.08"/><polygon class="cls-11" points="60.92 78.08 62.83 82.79 85 82.79 90.7 78.08 60.92 78.08"/><polygon class="cls-11" points="63.18 83.65 67.54 94.43 70.92 94.43 83.96 83.65 63.18 83.65"/><polygon class="cls-12" points="52.81 83.65 65.86 94.43 67.54 94.43 63.18 83.65 52.81 83.65"/><polygon class="cls-12" points="46.08 78.08 51.77 82.79 62.83 82.79 60.92 78.08 46.08 78.08"/><path class="cls-13" d="M48.36,56.5h6.15l-.56-5A11.28,11.28,0,0,1,48.36,56.5Z"/><polygon class="cls-13" points="55.22 62.84 48.27 62.84 56 69.87 55.22 62.84"/><polygon class="cls-13" points="41.73 56.88 47.81 62.42 55.17 62.42 54.56 56.88 41.73 56.88"/><polygon class="cls-14" points="23.71 60.35 26.32 62.42 31.49 62.42 24.31 60.23 23.71 60.35"/><polygon class="cls-14" points="56 69.87 32.89 62.84 26.86 62.84 46.08 78.08 56 69.87"/><polygon class="cls-15" points="46.08 78.08 26.86 62.84 23.1 62.84 23.1 78.08 46.08 78.08"/><polygon class="cls-15" points="23.1 60.47 23.1 62.42 26.32 62.42 23.71 60.35 23.1 60.47"/><polygon class="cls-16" points="41.31 56.88 24.31 60.23 31.49 62.42 47.81 62.42 41.73 56.88 41.31 56.88"/><polygon class="cls-16" points="48.27 62.84 32.89 62.84 56 69.87 48.27 62.84"/><polygon class="cls-17" points="13.2 62.42 14.64 62.42 17.32 61.61 13.2 62.42"/><polygon class="cls-18" points="85 82.79 90.7 82.79 90.7 78.08 85 82.79"/><polygon class="cls-18" points="83.96 83.65 70.92 94.43 90.7 94.43 90.7 83.65 83.96 83.65"/><polygon class="cls-19" points="46.08 82.79 51.77 82.79 46.08 78.08 46.08 82.79"/><polygon class="cls-19" points="46.08 83.65 46.08 94.43 65.86 94.43 52.81 83.65 46.08 83.65"/><polygon class="cls-5" points="17.32 61.61 14.64 62.42 19.95 62.42 22.11 60.66 17.32 61.61"/><polygon class="cls-5" points="13.3 62.84 13.3 67.81 19.42 62.84 13.3 62.84"/><polygon class="cls-9" points="23.11 84.78 36.23 91.22 41.9 83.65 26.96 83.65 23.11 84.77 23.11 84.78"/><polygon class="cls-9" points="29.92 82.79 42.55 82.79 46.08 78.08 29.92 82.79"/><polygon class="cls-20" points="0 94.43 0.2 94.43 0 94.25 0 94.43"/><polygon class="cls-21" points="0 83.65 0 88.91 17.42 94.43 20.94 94.43 7.92 83.65 0 83.65"/><polygon class="cls-22" points="42.55 82.79 46.08 82.79 46.08 78.08 42.55 82.79"/><polygon class="cls-22" points="41.9 83.65 36.23 91.22 42.75 94.43 46.08 94.43 46.08 83.65 41.9 83.65"/><polygon class="cls-23" points="23.12 94.43 28.6 94.43 23.11 84.79 23.12 94.43"/><polygon class="cls-24" points="23.1 84.77 23.11 84.78 23.11 84.77 23.1 84.77"/><polygon class="cls-25" points="23.1 84.77 23.1 84.77 23.1 84.77 23.1 83.65 7.92 83.65 20.94 94.43 23.12 94.43 23.11 84.79 23.1 84.77"/><polygon class="cls-25" points="13.3 77.98 13.3 82.79 23.1 82.79 23.1 78.08 13.3 77.98"/><polygon class="cls-26" points="0 94.25 0.2 94.43 17.42 94.43 0 88.91 0 94.25"/><polygon class="cls-27" points="23.1 84.77 23.1 84.77 23.11 84.79 28.6 94.43 42.75 94.43 23.11 84.78 23.1 84.77"/><polygon class="cls-28" points="23.1 62.84 19.42 62.84 13.3 67.81 13.3 77.98 23.1 78.08 23.1 62.84"/><polygon class="cls-28" points="22.11 60.66 19.95 62.42 23.1 62.42 23.1 60.47 22.11 60.66"/><polygon class="cls-29" points="23.11 84.77 26.96 83.65 23.1 83.65 23.1 84.77 23.11 84.77"/><polygon class="cls-29" points="23.1 78.08 23.1 82.79 29.92 82.79 46.08 78.08 23.1 78.08"/><polygon class="cls-30" points="115.17 94.43 126.32 94.43 125.4 86.17 115.17 94.43"/><polygon class="cls-31" points="90.7 78.08 90.7 82.79 96.61 82.79 90.7 77.96 90.7 78.08"/><polygon class="cls-31" points="90.7 83.65 90.7 94.43 110.87 94.43 97.66 83.65 90.7 83.65"/><polygon class="cls-32" points="96.61 82.79 111.09 82.79 90.7 77.96 96.61 82.79"/><polygon class="cls-32" points="114.74 83.65 97.66 83.65 110.87 94.43 115.17 94.43 125.4 86.17 114.74 83.65"/><polygon class="cls-4" points="111.09 82.79 118.89 82.79 118.89 77.96 90.7 77.96 111.09 82.79"/><polygon class="cls-4" points="123.89 83.65 114.74 83.65 125.4 86.17 123.89 83.65"/><polygon class="cls-33" points="128.45 83.65 123.89 83.65 125.4 86.17 128.45 83.65"/><polygon class="cls-34" points="108.99 62.84 90.7 77.96 118.89 77.96 118.89 74.03 114.36 62.84 108.99 62.84"/><polygon class="cls-34" points="111.33 60.91 109.51 62.42 114.19 62.42 113.77 61.39 111.33 60.91"/><polygon class="cls-35" points="113.77 61.39 114.19 62.42 116.52 62.42 115.75 61.78 113.77 61.39"/><polygon class="cls-35" points="114.36 62.84 118.89 74.03 118.89 64.37 117.03 62.84 114.36 62.84"/><polygon class="cls-36" points="126.32 94.43 132.18 94.43 132.18 92.34 125.4 86.17 126.32 94.43"/><polygon class="cls-37" points="128.45 83.65 125.4 86.17 132.18 88.23 132.18 83.65 128.45 83.65"/><polygon class="cls-38" points="132.18 92.34 132.18 88.23 125.4 86.17 132.18 92.34"/><polygon class="cls-39" points="104.27 59.52 90.7 59.52 90.7 59.86 90.7 59.86 90.7 62.42 109.51 62.42 111.33 60.91 104.27 59.52"/><polygon class="cls-39" points="108.99 62.84 90.7 62.84 90.7 77.96 108.99 62.84"/><polygon class="cls-3" points="104.27 59.52 90.87 56.88 90.7 56.88 90.7 59.52 104.27 59.52"/><polygon class="cls-40" points="117.03 62.84 118.89 64.37 118.89 62.84 117.03 62.84"/><polygon class="cls-40" points="116.52 62.42 118.98 62.42 115.75 61.78 116.52 62.42"/><path class="cls-1" d="M60.12,39.34a1.18,1.18,0,0,0,.37,0h0c.38-.06.23-.4.23-.71s.63-5.15.76-6,1.1-2.53-.05-2.37,0-5.45.1-6.48-.13-1-1-.34l-.08.05a3.26,3.26,0,0,1-.36.24L60,31.29v.6l-.11,7.42Z"/><polygon class="cls-1" points="60.45 20.23 77.4 28.56 77.4 28.56 73.57 26.68 60.45 20.23"/><polygon class="cls-1" points="60.49 42.48 60.48 39.35 60.48 39.35 60.49 42.48"/><path class="cls-41" d="M73.41,5c.37-.22,1.49-.57.57-.75s-1-.06-1-.61-.17-3-.17-3S72.28-.2,70.25,0a7.55,7.55,0,0,0-2.95.7l5.89,4.67C73.12,5.17,73.13,5.16,73.41,5Z"/><path class="cls-42" d="M79.7,13.53c-.11-.31-.23-.61-.37-.9C77.6,9,77.75,9.92,76.89,9.7a7.49,7.49,0,0,1-2.17-.8c-.21-.23-1.58-.86-1.63-1.12a13.46,13.46,0,0,0,.18-2.06c0-.13-.06-.22-.08-.29L67.3.75a.8.8,0,0,0-.39.76c.08,1,.4,2,.4,2.23s-1.77.58-.57,1.75,1.2,1.53,1.19,1.9-1,.7-1.05,1-2.24.11-2.39.07-2.4,0-3.71,2.7l-.33.66v1.74H79.7Z"/><path class="cls-43" d="M60.45,20.23l13.12,6.45,7-9.32A18.65,18.65,0,0,0,80,14.52l-19.57,5.7h0Z"/><path class="cls-44" d="M60.12,39.34l-.25,0L60,31.9l-.93.38-.1,7.18a.75.75,0,0,0-.51.73c0,.63-1.15,1.42-.32,2.3H60.5V39.35A1.22,1.22,0,0,1,60.12,39.34Z"/><polygon class="cls-39" points="59.99 31.29 59.07 30.54 59.06 31.25 59.98 31.54 59.99 31.29"/><path class="cls-45" d="M77.4,28.56c0-.66.06-1.19.33-1.09.5.18,2.52.52,2.57-.9s-.32-1.48,0-1.42.66.1.53-1.8c-.08-1.15,0-3.5-.25-6l-7,9.32Z"/><path class="cls-46" d="M68.86,35c-.08.35-.18.67-.28,1a3.4,3.4,0,0,0-.16.83l.76-1.26Z"/><path class="cls-46" d="M60.46,23.55l.08-.05c.87-.66,1.13-.68,1,.34s-1.26,6.64-.1,6.48.18,1.57.05,2.37-.76,5.58-.76,6,.14.65-.23.71v3.14h3.16c.81-.42,1.85-1.07,1.78-1.49a6.25,6.25,0,0,1,.42-2.53,11.42,11.42,0,0,0,.37-2.33,13.5,13.5,0,0,1,.31-2.21c.21-.68.58-1.57.58-1.57l.14-.14-6.81-12Z"/><path class="cls-7" d="M68.41,36.82c0,.48,0,.92,0,1.6a13.47,13.47,0,0,1,.08,2.19c-.13.68-.4.34,0,1,.28.48.16.71.26.88h4.94a3.18,3.18,0,0,0-.21-1,2.73,2.73,0,0,1,.11-1.5l-4.45-4.45Z"/><path class="cls-41" d="M73.62,40c0-.17.07-.34.1-.53.11-.84.24-3.69.24-4s1.21.06,1.6.6,1,.06,1.15-1.32c0-.52.12-1,.2-1.36l-7.73,2.19Z"/><polygon class="cls-47" points="60.45 20.23 60.44 20.23 60.45 20.23 60.45 20.23"/><path class="cls-48" d="M60.1,23.79a3.4,3.4,0,0,0,.36-.24v-10h-.89a14.79,14.79,0,0,0-1.9,5.63,6.42,6.42,0,0,0,0,2.24,1.25,1.25,0,0,0,.36,2,4,4,0,0,0,1.18.57l-.1,6.61.91.75Z"/><polygon class="cls-49" points="59.98 31.9 59.98 31.54 59.06 31.25 59.05 32.28 59.98 31.9"/><path class="cls-50" d="M60.44,20.23v0l6.81,12c.28-.27.95-.72,1.39.43a3.88,3.88,0,0,1,.2,2.37l.31.55,7.73-2.19a7,7,0,0,1,.49-1.62c.32-.66.05-.48.05-1.48,0-.46,0-1.13,0-1.7L60.45,20.23Z"/><path class="cls-51" d="M60.44,11.79l-.89,1.73h.89Z"/><path class="cls-52" d="M60.44,20.23h0L80,14.52c-.09-.34-.2-.67-.32-1H60.44Z"/></g></g></svg>
