<svg xmlns="http://www.w3.org/2000/svg" viewBox="0 0 109.25 104.44" width="109.25" height="104.44"><defs><style>.cls-1{fill:none;}.cls-2{fill:#2a3285;}.cls-3{fill:#2e2582;}.cls-4{fill:#422583;}.cls-5{fill:#183585;}.cls-6{fill:#3a2d81;}.cls-7{fill:#242a80;}.cls-8{fill:#343086;}.cls-9{fill:#1e247f;}.cls-10{fill:#3c3b94;}.cls-11{fill:#19257f;}.cls-12{fill:#382f84;}.cls-13{fill:#1f3c90;}.cls-14{fill:#1b227d;}.cls-15{fill:#1b247e;}.cls-16{fill:#295b9a;}.cls-17{fill:#383f8c;}.cls-18{fill:#374691;}.cls-19{fill:#422483;}.cls-20{fill:#2c3386;}.cls-21{fill:#334e96;}.cls-22{fill:#2f4c9f;}.cls-23{fill:#2f53a4;}.cls-24{fill:#0070a9;}.cls-25{fill:#255ea2;}.cls-26{fill:#343a87;}.cls-27{fill:#44277f;}.cls-28{fill:#3a4399;}.cls-29{fill:#222580;}.cls-30{fill:#412683;}.cls-31{fill:#423287;}.cls-32{fill:#363e8b;}.cls-33{fill:#0092c3;}.cls-34{fill:#344e93;}.cls-35{fill:#324d9f;}.cls-36{fill:#0084b7;}.cls-37{fill:#0073ac;}.cls-38{fill:#0072b0;}.cls-39{fill:#1568a4;}.cls-40{fill:#2f559a;}.cls-41{fill:#1a267f;}.cls-42{fill:#2c3788;}.cls-43{fill:#335094;}</style></defs><title>资源 4</title><g id="图层_2" data-name="图层 2"><g id="央铋_1" data-name="央铋 1"><polygon class="cls-1" points="24.11 35.3 24.11 33.57 24.11 31.15 24.11 29.33 24.32 29.33 24.32 24.27 23.76 24.27 22.98 24.09 22.98 22.53 21.04 22.53 20.86 22.53 20.86 23.72 19.91 24.27 19.35 24.27 19.35 29.33 19.55 29.33 19.55 31.15 19.74 31.15 19.74 35.3 21.08 35.3 22.87 35.3 24.11 35.3"/><polygon class="cls-1" points="45.67 53.29 45.67 58.35 46.39 58.35 46.39 60.17 47.05 60.17 47.05 64.32 48.13 64.32 61.34 64.32 62.58 64.32 62.58 60.17 62.58 58.35 63.3 58.35 63.3 53.29 61.33 53.29 58.55 51.62 58.55 50.07 58.1 50.07 51.02 50.07 51.02 51.26 48.2 52.95 47.63 53.29 45.67 53.29"/><polygon class="cls-1" points="42.52 64.32 42.52 60.17 42.52 58.35 43.24 58.35 43.24 53.29 41.27 53.29 38.5 51.62 38.5 50.07 30.96 50.07 30.96 51.26 30.61 51.47 30.61 51.47 28.9 52.49 27.58 53.29 25.61 53.29 25.61 58.35 26.33 58.35 26.33 60.17 27 60.17 27 64.32 29.66 64.32 39.65 64.32 39.66 64.32 42.52 64.32"/><polygon class="cls-1" points="22.36 51.25 21.24 51.04 21.24 49.2 18.2 49.2 18.2 50.61 16.83 51.25 16.05 51.25 16.04 51.25 16.04 51.27 16.04 57.25 16.33 57.25 16.33 57.26 16.33 59.4 16.6 59.4 16.6 64.32 22.86 64.32 22.86 59.4 22.86 57.25 23.15 57.25 23.15 52.51 23.15 51.25 22.36 51.25"/><polygon class="cls-1" points="77.15 21.05 69.97 21.05 69.97 22.24 66.9 24.16 66.74 24.27 64.86 24.27 64.86 29.33 65.55 29.33 65.55 31.15 66.19 31.15 66.19 35.3 66.9 35.3 68.7 35.3 80.99 35.3 80.99 31.15 80.99 29.33 81.68 29.33 81.68 24.27 79.8 24.27 77.66 22.92 77.15 22.6 77.15 21.05"/><polygon class="cls-1" points="51 22.24 47.77 24.27 47.63 24.27 45.9 24.27 45.9 29.33 46.59 29.33 46.59 31.15 47.22 31.15 47.22 35.3 49.84 35.3 62.02 35.3 62.02 31.15 62.02 31.02 62.02 29.33 62.71 29.33 62.71 24.27 60.84 24.27 58.19 22.6 58.19 21.05 54.84 21.05 51 21.05 51 22.24"/><polygon class="cls-1" points="27.46 31.15 28.09 31.15 28.09 35.3 42.9 35.3 42.9 31.15 42.9 29.33 43.59 29.33 43.59 24.27 41.71 24.27 39.06 22.6 39.06 21.05 33.1 21.05 31.88 21.05 31.88 22.24 28.65 24.27 26.77 24.27 26.77 29.33 27.16 29.33 27.46 29.33 27.46 31.15"/><polygon class="cls-1" points="85 23.72 84.04 24.27 83.49 24.27 83.49 29.33 83.69 29.33 83.69 31.15 83.88 31.15 83.88 35.3 88.25 35.3 88.25 31.15 88.25 29.33 88.45 29.33 88.45 24.36 88.45 24.27 88.29 24.27 87.9 24.27 87.12 24.09 87.12 23.62 87.12 22.53 85.16 22.53 85 22.53 85 23.72"/><polygon class="cls-1" points="85.83 57.28 86.13 57.28 86.13 59.43 86.4 59.43 86.4 64.35 88.79 64.35 92.66 64.35 92.66 59.43 92.66 57.28 92.95 57.28 92.95 51.28 92.16 51.28 91.03 51.06 91.03 49.23 87.99 49.23 87.99 50.64 86.63 51.28 86.26 51.28 85.83 51.28 85.83 57.28"/><polygon class="cls-1" points="66.94 64.32 82.47 64.32 82.47 60.17 82.47 59.51 82.47 58.35 83.19 58.35 83.19 53.29 81.22 53.29 78.44 51.62 78.44 50.07 75.7 50.07 70.91 50.07 70.91 51.26 67.53 53.29 66.9 53.29 65.56 53.29 65.56 58.35 66.28 58.35 66.28 60.17 66.9 60.17 66.94 60.17 66.94 64.32"/><line class="cls-1" x1="97.35" y1="104.44" x2="97.34" y2="104.44"/><polygon class="cls-1" points="30.61 51.47 20.99 37.79 28.66 48.69 30.61 51.47 30.61 51.47"/><polygon class="cls-1" points="39.65 64.32 43.95 70.42 39.66 64.32 39.65 64.32"/><polygon class="cls-1" points="66.9 70.42 66.9 70.42 43.95 70.42 66.9 70.42"/><polygon class="cls-2" points="44.88 4.61 43.63 4.61 43.95 5.94 44.88 4.61"/><polygon class="cls-2" points="43.63 4.61 43.01 4.61 43.95 5.94 43.63 4.61"/><path class="cls-2" d="M23,22.53v1.55l.78.18h.55v5.07h-.2v4.24l3-4.24h-.38V24.26h1.88l3.22-2V21.05H33.1L43.95,5.94,29.12,5.42c-.89,4.06-1.72,3.5-2.42,3.37-.45-.08-.79-2-1-3.49l-.43,0-.65,4.35H21.56l-.55,0,0,12.88H23Z"/><polygon class="cls-2" points="21.08 35.3 21.08 37.79 22.87 35.3 21.08 35.3"/><polygon class="cls-3" points="47.77 24.27 51 22.24 51 21.05 54.84 21.05 43.95 5.94 47.63 24.27 47.77 24.27"/><polygon class="cls-3" points="62.02 31.15 62.02 35.3 49.84 35.3 50.34 37.79 66.9 37.79 62.02 31.02 62.02 31.15"/><polygon class="cls-4" points="49.84 35.3 47.22 35.3 47.22 31.15 46.59 31.15 46.59 29.33 45.9 29.33 45.9 24.27 47.63 24.27 43.95 5.94 33.1 21.05 39.06 21.05 39.06 22.6 41.71 24.27 43.59 24.27 43.59 29.33 42.9 29.33 42.9 31.15 42.9 35.3 28.09 35.3 28.09 31.15 27.46 31.15 27.46 29.33 27.16 29.33 24.11 33.57 24.11 35.3 22.87 35.3 21.08 37.79 50.34 37.79 49.84 35.3"/><polygon class="cls-5" points="66.9 5.33 66.9 4.61 44.88 4.61 43.95 5.94 66.9 5.33"/><polygon class="cls-6" points="66.19 35.3 66.19 31.15 65.55 31.15 65.55 29.33 64.86 29.33 64.86 24.27 66.74 24.27 66.9 24.16 66.9 5.33 43.95 5.94 54.84 21.05 58.19 21.05 58.19 22.6 60.84 24.27 62.71 24.27 62.71 29.33 62.02 29.33 62.02 31.02 66.9 37.79 66.9 35.3 66.19 35.3"/><path class="cls-7" d="M25.54,3.62l-.25,1.66.43,0C25.6,4.37,25.54,3.62,25.54,3.62Z"/><path class="cls-7" d="M43,4.6H33.72A4.48,4.48,0,0,0,34,3c0-1.67-.84-3-1.88-3s-1.88,1.36-1.88,3a4.5,4.5,0,0,0,.27,1.57H29.28c0,.19-.07.38-.11.55l-.06.26,14.83.52Z"/><path class="cls-8" d="M21.08,37.79l-3.46-6V35.3c-3.52.09-5.79,0-11.16-4-1.59-1.21-1.41.46-1.41,2.92v3.58h16Z"/><path class="cls-9" d="M21.08,35.3H19.74V31.15h-.19V29.33h-.2V24.26h.56l1-.54V22.53H21L21,9.65A8.57,8.57,0,0,1,14.92,8.1L9,11v.14a63,63,0,0,1,8.67,18v2.65l3.46,6Z"/><path class="cls-10" d="M10.2,4.6C8.81,3.5,9,5,9,7.19V11l6-2.92A58.46,58.46,0,0,1,10.2,4.6Z"/><polygon class="cls-11" points="87.9 24.27 88.29 24.27 87.12 23.62 87.12 24.09 87.9 24.27"/><path class="cls-11" d="M88.45,29.33h-.2v6H83.88V31.15h-.19V29.33h-.2V24.26H84l1-.54V22.53h.16L80,19.69l-2.34,3.23,2.15,1.35h1.88v5.07H81v6H68.7l-1.8,2.49h37.3V35.7c0-1.1,0-2-.07-2.7l-2.34-1.29-.42.27c-5.59,3.8-9.59,3.31-11,3.32V29.16c.34-1.07.7-2.12,1.07-3.15l-3-1.65v5Z"/><path class="cls-12" d="M101.8,31.71,104.13,33C104,31.08,103.44,30.7,101.8,31.71Z"/><path class="cls-12" d="M86.93,9.59,80,19.69l5.16,2.85h2v1.08l1.18.65h.16v.09l3,1.65A64.45,64.45,0,0,1,96.6,14.93l-4.5-6.4A25.63,25.63,0,0,1,86.93,9.59Z"/><polygon class="cls-13" points="66.9 24.16 69.97 22.24 69.97 21.05 77.15 21.05 77.15 22.6 77.66 22.92 79.99 19.69 66.9 5.33 66.9 24.16"/><polygon class="cls-13" points="66.9 37.79 68.7 35.3 66.9 35.3 66.9 37.79"/><path class="cls-14" d="M97.32,5.8A15.63,15.63,0,0,1,92.1,8.52l4.5,6.4c.77-1.3,1.59-2.56,2.45-3.76V8.81C99.05,4.92,99.54,3.95,97.32,5.8Z"/><path class="cls-3" d="M80,19.69l6.94-10.1-.48,0H84.7l-.64-4.3h-.44c-.19,1.47-.52,3.37-1,3.45-.7.13-1.54.7-2.44-3.45H66.9Z"/><path class="cls-15" d="M83.81,3.62s-.07.77-.19,1.71h.44Z"/><path class="cls-15" d="M80.2,5.33l0-.17-.11-.55H78.93A4.48,4.48,0,0,0,79.2,3c0-1.67-.84-3-1.88-3s-1.88,1.36-1.88,3a4.5,4.5,0,0,0,.27,1.57H66.9v.73H80.2Z"/><polygon class="cls-16" points="21.08 37.79 20.99 37.79 48.2 52.95 51.02 51.26 51.02 50.07 58.1 50.07 66.9 37.79 50.34 37.79 21.08 37.79"/><polygon class="cls-17" points="47.05 64.32 47.05 60.17 46.39 60.17 46.39 58.35 45.67 58.35 45.67 53.29 47.63 53.29 48.2 52.95 20.99 37.79 30.61 51.47 30.96 51.26 30.96 50.07 38.5 50.07 38.5 51.62 41.27 53.29 43.24 53.29 43.24 58.35 42.52 58.35 42.52 60.17 42.52 64.32 39.66 64.32 43.95 70.42 48.13 64.32 47.05 64.32"/><polygon class="cls-18" points="58.55 50.07 58.55 51.62 61.33 53.29 63.3 53.29 63.3 58.35 62.58 58.35 62.58 60.17 62.58 64.32 61.34 64.32 66.9 70.42 66.9 69.82 66.9 60.17 66.28 60.17 66.28 58.35 65.56 58.35 65.56 53.29 66.9 53.29 66.9 37.79 58.1 50.07 58.55 50.07"/><polygon class="cls-19" points="28.66 48.69 28.9 52.49 30.61 51.47 28.66 48.69"/><polygon class="cls-19" points="39.65 64.32 29.66 64.32 30.43 76.17 37.73 76.17 37.73 79.11 43.95 70.42 39.65 64.32"/><polygon class="cls-20" points="48.13 64.32 43.95 70.42 66.9 70.42 61.34 64.32 48.13 64.32"/><polygon class="cls-8" points="43.95 70.42 50.2 79.24 50.82 78.53 50.82 76.17 58.7 76.17 58.7 79.24 61.61 82.55 63.67 82.55 63.67 92.59 62.92 92.59 62.92 96.19 62.92 97.17 66.9 102.79 66.9 102.58 66.9 96.19 66.78 96.19 66.78 92.59 66.03 92.59 66.03 82.55 66.9 82.55 66.9 70.42 43.95 70.42"/><polygon class="cls-21" points="62.92 97.17 62.92 101.16 66.9 102.79 62.92 97.17"/><polygon class="cls-21" points="37.73 79.11 37.73 79.24 40.63 82.55 42.69 82.55 42.69 92.59 41.94 92.59 41.94 92.59 45.98 94.24 45.98 92.59 45.23 92.59 45.23 82.55 47.28 82.55 50.2 79.24 43.95 70.42 37.73 79.11"/><polygon class="cls-22" points="62.92 101.16 62.92 102.79 66.9 102.79 62.92 101.16"/><polygon class="cls-22" points="41.94 96.19 41.94 102.79 46.68 102.79 46.68 96.19 45.98 96.19 45.98 94.24 41.94 92.59 41.94 96.19"/><polygon class="cls-23" points="21.36 102.79 25.7 102.79 25.7 96.19 25.61 96.19 21.36 102.26 21.36 102.79"/><rect class="cls-24" x="41.94" y="102.79" width="4.74" height="1.65"/><polygon class="cls-24" points="62.92 102.79 62.92 104.44 65.74 104.44 66.9 102.79 62.92 102.79"/><polygon class="cls-25" points="21.36 103.31 22.15 104.44 25.7 104.44 25.7 102.79 21.36 102.79 21.36 103.31"/><polygon class="cls-26" points="27 64.32 27 60.17 26.33 60.17 26.33 58.35 25.61 58.35 25.61 53.29 27.58 53.29 28.9 52.49 28.66 48.69 23.15 52.51 23.15 57.25 22.86 57.25 22.86 59.4 22.86 64.32 16.6 64.32 16.6 59.4 16.33 59.4 16.33 57.26 13.14 59.48 13.14 59.83 27.05 81.69 29.84 78.53 29.84 76.17 30.43 76.17 29.66 64.32 27 64.32"/><path class="cls-27" d="M1.25,59.32C-.13,58.22,0,59.73,0,61.91v4c.47.65.92,1.23,1.36,1.75l5.89-4.08A38.8,38.8,0,0,1,1.25,59.32Z"/><polygon class="cls-28" points="21.79 90.41 21.36 90.41 21.36 94.67 21.36 102.26 25.61 96.19 25 96.19 25 92.59 24.25 92.59 24.25 84.56 21.79 83.27 21.79 90.41"/><path class="cls-28" d="M8.68,78.45v7.48l2.5,3.42V78.5h1.19l.17-.11L7.7,75.86A23.68,23.68,0,0,1,8.68,78.45Z"/><path class="cls-29" d="M16,51.25h0L21,37.79H5.06v.92c4.17,5.81,5.59,5,8,12.69l.06,7.76,2.9-7.9Z"/><polygon class="cls-30" points="8.68 102.79 12.01 102.79 12.01 94.67 11.61 94.67 11.61 90.41 11.18 90.41 11.18 89.35 8.68 85.93 8.68 102.79"/><path class="cls-31" d="M13.18,64.35h-.57c-2.24.08-3.47.15-5.35-.8L1.36,67.64C3.9,70.68,6,72,7.7,75.86l4.83,2.54,1.87-1.17v-2.8h4.54v3.64l1.67.42h1.19v4.76l2.45,1.29v-2h2.06l.75-.85L13.14,59.83Z"/><polygon class="cls-32" points="16.33 57.25 16.04 57.25 16.04 51.27 13.14 59.17 13.14 59.48 16.33 57.26 16.33 57.25"/><polygon class="cls-32" points="16.05 51.25 16.83 51.25 18.2 50.61 18.2 49.2 21.24 49.2 21.24 51.04 22.36 51.25 23.15 51.25 23.15 52.51 28.66 48.69 20.99 37.79 16.05 51.25"/><polygon class="cls-33" points="65.74 104.44 66.9 104.44 66.9 102.79 65.74 104.44"/><polygon class="cls-34" points="21.36 104.44 22.15 104.44 21.36 103.31 21.36 104.44"/><rect class="cls-35" x="8.68" y="102.79" width="3.33" height="1.65"/><polygon class="cls-36" points="66.9 102.79 66.9 104.44 67.48 104.44 67.48 103.4 66.9 102.58 66.9 102.79"/><polygon class="cls-37" points="67.48 103.4 67.48 102.82 66.9 102.58 67.48 103.4"/><polygon class="cls-18" points="67.48 102.82 67.48 102.58 66.9 102.58 67.48 102.82"/><polygon class="cls-18" points="97.35 102.58 97.35 104.44 98.18 104.44 97.53 102.58 97.35 102.58"/><rect class="cls-18" x="83.72" y="102.58" width="4.24" height="1.86"/><polygon class="cls-38" points="98.18 104.44 100.54 104.44 100.54 102.58 97.53 102.58 98.18 104.44"/><polygon class="cls-39" points="67.48 102.58 67.48 101.76 66.9 102.58 67.48 102.58"/><polygon class="cls-39" points="81.59 81.61 82.42 82.55 84.47 82.55 84.47 92.59 83.72 92.59 83.72 96.19 83.72 102.58 87.96 102.58 87.96 97.52 87.96 94.67 87.55 94.67 87.55 90.41 87.12 90.41 87.12 78.5 88.31 78.5 90.36 77.23 90.36 74.44 90.94 74.44 89.86 69.82 81.59 81.61"/><polygon class="cls-39" points="97.35 101.8 97.35 102.58 97.53 102.58 97.35 101.8"/><polygon class="cls-40" points="90.94 74.44 93.09 74.44 89.86 69.82 90.94 74.44"/><polygon class="cls-40" points="97.79 90.41 97.35 90.41 97.35 94.67 97.35 101.8 97.53 102.58 100.54 102.58 100.54 85.06 97.79 81.14 97.79 90.41"/><polygon class="cls-40" points="94.91 78.08 95.8 78.31 94.91 77.04 94.91 78.08"/><path class="cls-17" d="M105.41,70.36a42.8,42.8,0,0,0,3.8-4.48V63.53c0-3.89.49-4.86-1.73-3-3.34,2.79-8.45,3.64-10.87,3.82H95.5V61.94l-5.65,7.88Z"/><polygon class="cls-31" points="78.44 50.07 78.44 51.62 81.22 53.29 83.19 53.29 83.19 58.35 82.47 58.35 82.47 59.51 89.86 69.82 88.79 64.35 86.4 64.35 86.4 59.43 86.13 59.43 86.13 57.28 85.83 57.28 85.83 51.28 86.26 51.28 83.64 37.79 66.9 37.79 75.7 50.07 78.44 50.07"/><path class="cls-41" d="M86.26,51.28h.37L88,50.64V49.23h3v1.83l1.12.21H93v6h-.29v7.07H88.79l1.06,5.47,5.65-7.88V51.48c2.42-7.7,4.53-7.3,8.7-13.12v-.57H83.64Z"/><polygon class="cls-42" points="67.48 101.76 67.48 96.19 66.9 96.19 66.9 102.58 67.48 101.76"/><polygon class="cls-42" points="66.9 69.82 66.9 70.42 66.9 70.42 66.9 82.55 68.09 82.55 71.63 78.53 71.63 76.17 79.51 76.17 79.51 79.24 81.59 81.61 89.86 69.82 66.9 69.82"/><polygon class="cls-17" points="82.47 60.17 82.47 64.32 66.94 64.32 66.94 60.17 66.9 60.17 66.9 69.82 89.86 69.82 82.47 59.51 82.47 60.17"/><polygon class="cls-17" points="67.53 53.29 70.91 51.26 70.91 50.07 75.7 50.07 66.9 37.79 66.9 53.29 67.53 53.29"/><path class="cls-43" d="M93.09,74.44h1.82V77l.89,1.27.79.2h1.19v2.63l2.75,3.93V78.58a18.83,18.83,0,0,1,4.87-8.22l-15.55-.55Z"/></g></g></svg>
