<svg xmlns="http://www.w3.org/2000/svg" xmlns:xlink="http://www.w3.org/1999/xlink" viewBox="0 0 274.36 146.18"><defs><style>.cls-1,.cls-10,.cls-11,.cls-12,.cls-13,.cls-14,.cls-15,.cls-16,.cls-17,.cls-18,.cls-19,.cls-2,.cls-20,.cls-21,.cls-22,.cls-23,.cls-24,.cls-25,.cls-26,.cls-27,.cls-28,.cls-29,.cls-3,.cls-30,.cls-31,.cls-32,.cls-33,.cls-34,.cls-35,.cls-36,.cls-37,.cls-38,.cls-39,.cls-4,.cls-40,.cls-41,.cls-42,.cls-43,.cls-44,.cls-45,.cls-46,.cls-5,.cls-6,.cls-7,.cls-8,.cls-9{fill-rule:evenodd;}.cls-1{fill:url(#GradientFill_5);}.cls-2{fill:url(#GradientFill_6);}.cls-3{fill:url(#GradientFill_7);}.cls-4{fill:url(#GradientFill_8);}.cls-5{fill:url(#GradientFill_7-2);}.cls-6{fill:url(#GradientFill_8-2);}.cls-7{fill:url(#GradientFill_7-3);}.cls-8{fill:url(#GradientFill_8-3);}.cls-9{fill:url(#GradientFill_7-4);}.cls-10{fill:url(#GradientFill_7-5);}.cls-11{fill:url(#GradientFill_8-4);}.cls-12{fill:url(#GradientFill_7-6);}.cls-13{fill:url(#GradientFill_8-5);}.cls-14{fill:url(#GradientFill_8-6);}.cls-15{fill:url(#GradientFill_9);}.cls-16{fill:url(#GradientFill_6-2);}.cls-17{fill:url(#GradientFill_10);}.cls-18{fill:url(#GradientFill_11);}.cls-19{fill:url(#GradientFill_10-2);}.cls-20{fill:url(#GradientFill_11-2);}.cls-21{fill:url(#GradientFill_10-3);}.cls-22{fill:url(#GradientFill_11-3);}.cls-23{fill:url(#GradientFill_10-4);}.cls-24{fill:url(#GradientFill_11-4);}.cls-25{fill:url(#GradientFill_12);}.cls-26{fill:url(#GradientFill_11-5);}.cls-27{fill:url(#GradientFill_9-2);}.cls-28{fill:url(#GradientFill_6-3);}.cls-29{fill:url(#GradientFill_7-7);}.cls-30{fill:url(#GradientFill_8-7);}.cls-31{fill:url(#GradientFill_7-8);}.cls-32{fill:url(#GradientFill_8-8);}.cls-33{fill:url(#GradientFill_9-3);}.cls-34{fill:url(#GradientFill_7-9);}.cls-35{fill:url(#GradientFill_8-9);}.cls-36{fill:url(#GradientFill_7-10);}.cls-37{fill:url(#GradientFill_8-10);}.cls-38{fill:url(#GradientFill_6-4);}.cls-39{fill:url(#GradientFill_12-2);}.cls-40{fill:url(#GradientFill_11-6);}.cls-41{fill:url(#GradientFill_12-3);}.cls-42{fill:url(#GradientFill_11-7);}.cls-43{fill:url(#GradientFill_12-4);}.cls-44{fill:url(#GradientFill_11-8);}.cls-45{fill:url(#GradientFill_12-5);}.cls-46{fill:url(#GradientFill_11-9);}</style><linearGradient id="GradientFill_5" x1="109.21" y1="123.24" x2="-3.92" y2="17.75" gradientUnits="userSpaceOnUse"><stop offset="0" stop-color="#808285"/><stop offset="0.27" stop-color="#d1d3d4"/><stop offset="1" stop-color="#fff"/></linearGradient><linearGradient id="GradientFill_6" x1="18.58" y1="146.22" x2="100.78" y2="9.42" gradientUnits="userSpaceOnUse"><stop offset="0"/><stop offset="1" stop-color="#d1d3d4"/></linearGradient><radialGradient id="GradientFill_7" cx="58.6" cy="82.61" r="18.42" gradientUnits="userSpaceOnUse"><stop offset="0" stop-color="#808285"/><stop offset="0.03" stop-color="#7b7d7f"/><stop offset="0.36" stop-color="#464749"/><stop offset="0.64" stop-color="#202121"/><stop offset="0.86" stop-color="#090909"/><stop offset="1"/></radialGradient><radialGradient id="GradientFill_8" cx="64.64" cy="86" r="25.75" gradientUnits="userSpaceOnUse"><stop offset="0" stop-color="#e7e8e9"/><stop offset="0.49" stop-color="#6e6e6f"/><stop offset="0.84" stop-color="#1f1f1f"/><stop offset="1"/></radialGradient><radialGradient id="GradientFill_7-2" cx="33.82" cy="30.98" r="15.6" xlink:href="#GradientFill_7"/><radialGradient id="GradientFill_8-2" cx="35.85" cy="32.7" r="15.99" xlink:href="#GradientFill_8"/><radialGradient id="GradientFill_7-3" cx="19.16" cy="40.19" r="7.74" xlink:href="#GradientFill_7"/><radialGradient id="GradientFill_8-3" cx="21.29" cy="40.88" r="9.43" xlink:href="#GradientFill_8"/><radialGradient id="GradientFill_7-4" cx="17.7" cy="25.78" r="9.47" xlink:href="#GradientFill_7"/><radialGradient id="GradientFill_7-5" cx="82.09" cy="133.53" r="12.49" xlink:href="#GradientFill_7"/><radialGradient id="GradientFill_8-4" cx="86.24" cy="134.89" r="17.76" xlink:href="#GradientFill_8"/><radialGradient id="GradientFill_7-6" cx="97.57" cy="124.9" r="7.72" xlink:href="#GradientFill_7"/><radialGradient id="GradientFill_8-5" cx="99.35" cy="125.79" r="10.68" xlink:href="#GradientFill_8"/><radialGradient id="GradientFill_8-6" cx="18.56" cy="26.87" r="9.12" xlink:href="#GradientFill_8"/><linearGradient id="GradientFill_9" x1="151.02" y1="123.48" x2="49.72" y2="32.28" gradientUnits="userSpaceOnUse"><stop offset="0"/><stop offset="0.26" stop-color="#d1d3d4"/><stop offset="1" stop-color="#fff"/></linearGradient><linearGradient id="GradientFill_6-2" x1="66.8" y1="144.6" x2="146.81" y2="11.42" xlink:href="#GradientFill_6"/><radialGradient id="GradientFill_10" cx="77.71" cy="34.04" r="9.35" gradientUnits="userSpaceOnUse"><stop offset="0" stop-color="#ea2228"/><stop offset="0.18" stop-color="#c32327"/><stop offset="0.46" stop-color="#8c2426"/><stop offset="0.7" stop-color="#642525"/><stop offset="0.88" stop-color="#4c2624"/><stop offset="1" stop-color="#432624"/></radialGradient><radialGradient id="GradientFill_11" cx="75.87" cy="31.58" r="9.02" gradientUnits="userSpaceOnUse"><stop offset="0" stop-color="#fff"/><stop offset="0.48" stop-color="#f68b8f"/><stop offset="0.84" stop-color="#ef3b42"/><stop offset="1" stop-color="#ed1c24"/></radialGradient><radialGradient id="GradientFill_10-2" cx="94.88" cy="27.33" r="14.84" xlink:href="#GradientFill_10"/><radialGradient id="GradientFill_11-2" cx="92.02" cy="22.02" r="13.4" xlink:href="#GradientFill_11"/><radialGradient id="GradientFill_10-3" cx="131.6" cy="136.15" r="9.35" xlink:href="#GradientFill_10"/><radialGradient id="GradientFill_11-3" cx="129.76" cy="133.7" r="9.02" xlink:href="#GradientFill_11"/><radialGradient id="GradientFill_10-4" cx="103.09" cy="82.51" r="21.82" xlink:href="#GradientFill_10"/><radialGradient id="GradientFill_11-4" cx="98.8" cy="76.78" r="21.04" xlink:href="#GradientFill_11"/><radialGradient id="GradientFill_12" cx="81.74" cy="22.87" r="11.16" gradientUnits="userSpaceOnUse"><stop offset="0" stop-color="#ea2228"/><stop offset="0.01" stop-color="#e82228"/><stop offset="0.7" stop-color="#722525"/><stop offset="1" stop-color="#432624"/></radialGradient><radialGradient id="GradientFill_11-5" cx="82.55" cy="23.59" r="10.71" xlink:href="#GradientFill_11"/><linearGradient id="GradientFill_9-2" x1="198.54" y1="195.06" x2="115.91" y2="32.9" xlink:href="#GradientFill_9"/><linearGradient id="GradientFill_6-3" x1="120.08" y1="149.29" x2="194.03" y2="26.21" xlink:href="#GradientFill_6"/><radialGradient id="GradientFill_7-7" cx="149.88" cy="105.86" r="13.73" xlink:href="#GradientFill_7"/><radialGradient id="GradientFill_8-7" cx="152.74" cy="109.26" r="20.68" xlink:href="#GradientFill_8"/><radialGradient id="GradientFill_7-8" cx="143.17" cy="35.88" r="11.59" xlink:href="#GradientFill_7"/><radialGradient id="GradientFill_8-8" cx="143.3" cy="37.34" r="9.93" xlink:href="#GradientFill_8"/><linearGradient id="GradientFill_9-3" x1="250.55" y1="238.28" x2="156.18" y2="53.08" xlink:href="#GradientFill_9"/><radialGradient id="GradientFill_7-9" cx="137.04" cy="49.41" r="6.24" xlink:href="#GradientFill_7"/><radialGradient id="GradientFill_8-9" cx="138.33" cy="50.95" r="9.4" xlink:href="#GradientFill_8"/><radialGradient id="GradientFill_7-10" cx="155.89" cy="49.73" r="11.46" xlink:href="#GradientFill_7"/><radialGradient id="GradientFill_8-10" cx="157.08" cy="52.12" r="19.11" xlink:href="#GradientFill_8"/><linearGradient id="GradientFill_6-4" x1="143.67" y1="210.14" x2="237.31" y2="54.3" xlink:href="#GradientFill_6"/><radialGradient id="GradientFill_12-2" cx="190.86" cy="133.08" r="21.36" xlink:href="#GradientFill_12"/><radialGradient id="GradientFill_11-6" cx="188.71" cy="141.16" r="28.43" xlink:href="#GradientFill_11"/><radialGradient id="GradientFill_12-3" cx="191.13" cy="76.76" r="9.43" xlink:href="#GradientFill_12"/><radialGradient id="GradientFill_11-7" cx="190.18" cy="80.33" r="12.56" xlink:href="#GradientFill_11"/><radialGradient id="GradientFill_12-4" cx="210.18" cy="80.31" r="17.29" xlink:href="#GradientFill_12"/><radialGradient id="GradientFill_11-8" cx="210.99" cy="82.2" r="17.61" xlink:href="#GradientFill_11"/><radialGradient id="GradientFill_12-5" cx="199.04" cy="67.12" r="11.77" xlink:href="#GradientFill_12"/><radialGradient id="GradientFill_11-9" cx="199.33" cy="68.08" r="11.44" xlink:href="#GradientFill_11"/></defs><title>资源 2</title><g id="图层_2" data-name="图层 2"><g id="Layer_1" data-name="Layer 1"><path class="cls-1" d="M6.48,8.57,94.24,0a7.2,7.2,0,0,1,7.84,6.45l13.54,139.23h-103L0,16.41A7.19,7.19,0,0,1,6.48,8.57Z"/><polygon class="cls-2" points="8.24 16.58 94.06 8.24 107.43 145.72 107.94 145.72 94.52 7.68 7.68 16.12 20.28 145.72 20.79 145.72 8.24 16.58"/><path class="cls-3" d="M52,93.64a7,7,0,0,1-7.76-6.11,7.6,7.6,0,0,1,2.07-6c3.85-4.75,7.7-9.22,10.11-14.82,2.83,4,6.8,7.81,12.44,12.63,1.62,1.38,3.27,3.18,3.49,5.49a7,7,0,0,1-6.44,7.49,7.2,7.2,0,0,1-6.57-2.93c.11,2.55,1.9,6,4.15,9.77a9.32,9.32,0,0,0-7.58.74c1.5-4.4,2.26-8,2-10.34A7.19,7.19,0,0,1,52,93.64Z"/><path class="cls-4" d="M69.53,80.55c-.31-.31-.63-.6-1-.87-2.5-2.14-5-4.33-7.3-6.66a51.12,51.12,0,0,1-4.72-5.38c-2.45,5.29-6.19,9.66-9.84,14.17a9.43,9.43,0,0,0-1.63,2.68l.21.31c6,8.5,17.81-8.76,24.24-4.19Z"/><path class="cls-5" d="M26,26.73a34.29,34.29,0,0,0,4.55-7.36c2.15,3,5.18,5.94,9.47,9.6a6.67,6.67,0,0,1,2.65,4.18,5.33,5.33,0,0,1-4.9,5.7,5.48,5.48,0,0,1-5-2.23c.08,1.94,1.45,4.59,3.15,7.43a7.1,7.1,0,0,0-5.76.56c1.14-3.35,1.72-6.06,1.49-7.86a5.49,5.49,0,0,1-4.37,3.12Z"/><path class="cls-6" d="M40.48,29.92c-.24-.24-.48-.46-.73-.67C37.85,27.63,36,26,34.19,24.18a39.41,39.41,0,0,1-3.6-4.1A36.94,36.94,0,0,1,26,27.26l.73,7.49C31.34,33.53,37,27.46,40.48,30Z"/><path class="cls-7" d="M16.4,44.83a2.94,2.94,0,0,1-3.26-2.57A3.19,3.19,0,0,1,14,39.72a27.23,27.23,0,0,0,4.25-6.23,31.28,31.28,0,0,0,5.23,5.31A3.69,3.69,0,0,1,25,41.11a3,3,0,0,1-2.71,3.15A3,3,0,0,1,19.48,43a10.43,10.43,0,0,0,1.74,4.11,3.93,3.93,0,0,0-3.19.31,10.94,10.94,0,0,0,.82-4.34A3,3,0,0,1,16.4,44.83Z"/><path class="cls-8" d="M23.75,39.32c-.13-.13-.27-.25-.4-.37-1.05-.9-2.09-1.82-3.07-2.8a21.6,21.6,0,0,1-2-2.26,29.16,29.16,0,0,1-4.14,6A4,4,0,0,0,13.47,41l.09.13c2.53,3.58,7.49-3.68,10.19-1.76Z"/><path class="cls-9" d="M14.53,19.13l3-.29,1.62-.16.15,1.55-1.22.12,3.79,10.39,1.2-.12.18,1.86-4.1.4L18.94,31l1.35-.13-.88-2.44-3.24.31-.42,2.56L17,31.21l.18,1.86-4,.39L13,31.6l1.2-.12h0l1.77-10.93-1.27.12-.15-1.55Zm1.93,7.71h0l2.27-.22-1.61-4.09Z"/><path class="cls-10" d="M84.68,127.91a5.59,5.59,0,0,1,3.91-2.17l.42,0,1.24,12.72a33.07,33.07,0,0,0-4.5,7.21l-.24.54-.34-.48a53.9,53.9,0,0,0-8.92-9,6.59,6.59,0,0,1-2.63-4.18,5.39,5.39,0,0,1,4.94-5.77,5.61,5.61,0,0,1,4.27,1.39,24.13,24.13,0,0,0-2.78-5.82l-.42-.69.78.2a6.38,6.38,0,0,0,5.22-.5l.75-.41-.28.81A24.45,24.45,0,0,0,84.68,127.91Z"/><path class="cls-11" d="M88.63,126.07l.42,0,.46,4.77a8.56,8.56,0,0,0-2.68,1c-2.32,1.25-9.44,6.06-12,2.88a4.66,4.66,0,0,1-.88-2.22A5.05,5.05,0,0,1,78.6,127a5.2,5.2,0,0,1,4.74,2.11c-.08-1.84-1.37-4.35-3-7a6.75,6.75,0,0,0,5.47-.53c-1.09,3.18-1.63,5.74-1.41,7.45A5.19,5.19,0,0,1,88.63,126.07Z"/><path class="cls-12" d="M97.55,121.93a3.09,3.09,0,0,1,2.16-1.2,3,3,0,0,1,3.29,2.6,3.2,3.2,0,0,1-.86,2.53,25.76,25.76,0,0,0-4,5.86L98,132l-.19-.26a29.77,29.77,0,0,0-4.93-5,3.64,3.64,0,0,1-1.45-2.31,3,3,0,0,1,2.73-3.19,3.09,3.09,0,0,1,2.36.76A13.38,13.38,0,0,0,95,118.82l-.23-.38.43.11a3.53,3.53,0,0,0,2.89-.28l.41-.22-.15.44A13.47,13.47,0,0,0,97.55,121.93Z"/><path class="cls-13" d="M99.73,120.92a2.79,2.79,0,0,1,2.91,3.82c-.33-.63-1.38-2-3.9-.66-1.28.69-5.22,3.35-6.63,1.59a2.56,2.56,0,0,1-.49-1.23,2.79,2.79,0,0,1,2.57-3,2.87,2.87,0,0,1,2.62,1.17,9.88,9.88,0,0,0-1.65-3.89,3.71,3.71,0,0,0,3-.29,10.36,10.36,0,0,0-.78,4.12A2.87,2.87,0,0,1,99.73,120.92Z"/><path class="cls-14" d="M14.71,28.21c1.61.7,4.06-2.41,5.58-1.74l-2.24-6.12,1.22-.12-.15-1.55-1.62.16-3,.29.15,1.55,1.27-.12-1.24,7.65Zm1.75-1.37.66-4.31,1.61,4.09-2.27.22Z"/><path class="cls-15" d="M75,1.66l87,14.46a7.2,7.2,0,0,1,5.9,8.26L147.73,145.72H43.8l23-138.16A7.19,7.19,0,0,1,75,1.66Z"/><polygon class="cls-16" points="74.66 9.85 159.72 24 139.47 145.72 139.99 145.72 160.31 23.58 74.24 9.26 51.54 145.72 52.06 145.72 74.66 9.85"/><path class="cls-17" d="M72.93,35a38.66,38.66,0,0,0,7-5.87,35.44,35.44,0,0,0,4.69,7.81,21.46,21.46,0,0,0-7,5.87A26.68,26.68,0,0,0,72.93,35Z"/><path class="cls-18" d="M73.57,35.43l.34.43c2.14,2.08,7.55-2.11,9.55-.12a33.71,33.71,0,0,1-3.63-6.25A39,39,0,0,1,73.34,35,2.8,2.8,0,0,0,73.57,35.43Z"/><path class="cls-19" d="M89.15,23.7a61.79,61.79,0,0,0,6.41-6,64,64,0,0,0,8.49,14.13A38.79,38.79,0,0,0,91.44,42.43a44.92,44.92,0,0,0-4.06-8.11Z"/><path class="cls-20" d="M87.94,31c4.6-.07,11.23-4.11,14.06-1.28a61,61,0,0,1-6.56-11.32,63.1,63.1,0,0,1-6.38,5.91Z"/><path class="cls-21" d="M126.82,137.1a38.72,38.72,0,0,0,7-5.87,35.31,35.31,0,0,0,4.69,7.81,21.47,21.47,0,0,0-7,5.87A26.63,26.63,0,0,0,126.82,137.1Z"/><path class="cls-22" d="M127.46,137.55l.34.43c2.14,2.08,7.55-2.11,9.55-.12a33.56,33.56,0,0,1-3.63-6.25,39,39,0,0,1-6.49,5.46A2.94,2.94,0,0,0,127.46,137.55Z"/><path class="cls-23" d="M91.93,84.72A90.2,90.2,0,0,0,108.19,71a82.62,82.62,0,0,0,10.95,18.22,50.06,50.06,0,0,0-16.26,13.7A62.3,62.3,0,0,0,91.93,84.72Z"/><path class="cls-24" d="M93.43,85.77l.79,1c5,4.84,17.61-4.93,22.28-.27A78.69,78.69,0,0,1,108,71.91,90.82,90.82,0,0,1,92.9,84.65,6.58,6.58,0,0,0,93.43,85.77Z"/><path class="cls-25" d="M80.08,13.94l2.95.49,1.61.27-.25,1.54L83.17,16l1,11,1.19.2L85,29.09,81,28.41l.31-1.84,1.34.22-.22-2.58-3.21-.53L78.11,26l1.24.21L79,28.09l-4-.66.31-1.84,1.19.2h0l4.54-10.1-1.25-.21.25-1.54Zm-.13,7.95h0l2.25.37-.49-4.36Z"/><path class="cls-26" d="M77.91,22.75c1.37,1.09,4.55-1.28,5.84-.23L83.17,16l1.21.2.25-1.54L83,14.43l-2.95-.49-.26,1.54,1.25.21-3.17,7.07Zm2-.87,1.75-4,.49,4.36-2.25-.37Z"/><path class="cls-27" d="M142,15.39l80.27,36.49a7.19,7.19,0,0,1,3.56,9.5l-38.34,84.34H74.92L132.54,19A7.19,7.19,0,0,1,142,15.39Z"/><polygon class="cls-28" points="139.56 23.21 218.06 58.89 178.59 145.72 179.15 145.72 218.74 58.64 139.31 22.54 83.31 145.72 83.87 145.72 139.56 23.21"/><path class="cls-29" d="M143.8,99.19a6.43,6.43,0,0,1,3.53,4.15.92.92,0,0,0,.46.5.87.87,0,0,0,1.15-.43.84.84,0,0,0-.14-1,6.41,6.41,0,1,1,10.1-2.14,6.32,6.32,0,0,1-6.28,3.74,1,1,0,0,0-1,.48.87.87,0,0,0,.43,1.15,1.11,1.11,0,0,0,.94-.15,6,6,0,0,1,5,.11,6.41,6.41,0,1,1-9,6.44c-.23-2-1.38-.69-2,1.23-.47,1.59-.52,2.88-.71,7.73-1.9-2-3.56-3-6.43-2.93,3.58-3.49,4.34-4.45,5.14-5.66,1.28-1.93,1.35-3.32-.12-2.27a6.15,6.15,0,0,1-6.41.66,6.41,6.41,0,0,1,5.31-11.68Z"/><path class="cls-30" d="M161.14,110a6,6,0,0,0-3.31-3.94,5.61,5.61,0,0,0-4.67-.11,1.47,1.47,0,0,1-1.31.15,1.31,1.31,0,0,1-.65-1.74,1.39,1.39,0,0,1,1.48-.73,5.88,5.88,0,0,0,5.83-3.49,6,6,0,1,0-9.41,2,1.21,1.21,0,0,1,.32.51,1.32,1.32,0,0,1-2.51.82,6,6,0,0,0-9.78-2.84c0,.24,0,.48,0,.71C138.16,112,157.45,102.89,161.14,110Z"/><path class="cls-31" d="M143.74,28.56l2.72,1.24,1.49.67-.64,1.42-1.12-.51-1.91,10.89,1.1.5-.77,1.7-3.75-1.71.77-1.7,1.24.56.46-2.55-3-1.35-1.64,2,1.14.52-.77,1.7-3.68-1.67.77-1.7,1.1.5h0l7-8.58L143.09,30l.64-1.42Zm-2.19,7.64h0l2.08.94.65-4.34Z"/><path class="cls-32" d="M139.35,36.51c1,1.41,4.72-.06,5.7,1.29l1.12-6.42,1.12.51.65-1.42-1.49-.68-2.72-1.24L143.09,30l1.16.53-4.9,6Zm2.2-.31,2.73-3.4-.65,4.34-2.07-.94Z"/><path class="cls-33" d="M203.66,45.22l68.09,56a7.2,7.2,0,0,1,1,10.1l-28.28,34.37H111.69l81.87-99.51A7.2,7.2,0,0,1,203.66,45.22Z"/><path class="cls-34" d="M134.27,46.38a2.92,2.92,0,0,1,1.6,1.88.41.41,0,0,0,.21.23.4.4,0,0,0,.52-.2.38.38,0,0,0-.06-.43,2.92,2.92,0,1,1,4.59-1,2.87,2.87,0,0,1-2.85,1.7.43.43,0,0,0-.47.22.4.4,0,0,0,.2.52.5.5,0,0,0,.43-.07,2.75,2.75,0,0,1,2.29,0,2.92,2.92,0,1,1-4.11,2.93c-.11-.92-.63-.31-.89.56a14.21,14.21,0,0,0-.32,3.52A3.43,3.43,0,0,0,132.49,55a14.92,14.92,0,0,0,2.34-2.57c.58-.88.61-1.51-.05-1a2.8,2.8,0,0,1-2.91.3,2.91,2.91,0,0,1,2.41-5.31Z"/><path class="cls-35" d="M142.16,51.29a2.72,2.72,0,0,0-1.5-1.79,2.55,2.55,0,0,0-2.12-.05.67.67,0,0,1-.6.07.6.6,0,0,1-.3-.79.63.63,0,0,1,.67-.33A2.67,2.67,0,0,0,141,46.8a2.72,2.72,0,1,0-4.28.9.54.54,0,0,1,.14.23.6.6,0,0,1-.82.73.61.61,0,0,1-.32-.35A2.71,2.71,0,0,0,131.24,47c0,.11,0,.22,0,.32C131.71,52.21,140.48,48.06,142.16,51.29Z"/><path class="cls-36" d="M148.65,43.28a5.48,5.48,0,0,1,2.2,3.07.76.76,0,0,0,.39.42.74.74,0,0,0,1-.37.71.71,0,0,0-.12-.8,5.41,5.41,0,1,1,8.53-1.8,5.34,5.34,0,0,1-5.3,3.16.81.81,0,0,0-.87.4.74.74,0,0,0,.37,1,.94.94,0,0,0,.8-.12,5.09,5.09,0,0,1,4.25.09,5.42,5.42,0,1,1-7.63,5.44c-.2-1.72-1.16-.58-1.65,1-.4,1.35-.44,2.43-.6,6.53a6.37,6.37,0,0,0-5.43-2.47c3-2.95,3.66-3.76,4.34-4.78,1.08-1.63,1.14-2.8-.1-1.91a5.14,5.14,0,0,1-4.57.87Z"/><path class="cls-37" d="M162.51,52a5,5,0,0,0-2.79-3.33,4.75,4.75,0,0,0-3.94-.09,1.24,1.24,0,0,1-1.11.13,1.11,1.11,0,0,1-.55-1.47,1.17,1.17,0,0,1,1.25-.62,5,5,0,0,0,4.93-2.94,5,5,0,1,0-7.95,1.68,1,1,0,0,1,.27.43,1.11,1.11,0,0,1-2.12.7,5.09,5.09,0,0,0-2-2.82L146.05,49C151.28,50.41,160.27,47.67,162.51,52Z"/><polygon class="cls-38" points="199.24 52.13 265.82 106.92 233.9 145.72 234.56 145.72 266.54 106.85 199.17 51.41 121.57 145.72 122.24 145.72 199.24 52.13"/><path class="cls-39" d="M202.08,128.36a7.55,7.55,0,0,1,1.23,10.58c-1.7,2.07-4.39,2.91-7,3.19-6.79.73-10.6.62-17.41,2.58.36-6.63-.13-10.8-.95-17.69a10.59,10.59,0,0,1,1.93-7.38,7.55,7.55,0,0,1,10.62-.83,7.63,7.63,0,0,1,2.06,9.33A7.63,7.63,0,0,1,202.08,128.36Z"/><path class="cls-40" d="M202.21,139.41a6.68,6.68,0,0,0,.74-.77,7.08,7.08,0,0,0-1.16-9.92,7.37,7.37,0,0,0-9.1-.34l-.91.67.47-1a7.35,7.35,0,0,0-2.07-8.85,7.08,7.08,0,0,0-10,.77,8.1,8.1,0,0,0-1.42,2.83l0,.22C176.71,134.91,200.44,130.51,202.21,139.41Z"/><path class="cls-41" d="M196.09,74.68a3.33,3.33,0,0,1,.54,4.67,4.52,4.52,0,0,1-3.1,1.41,37.63,37.63,0,0,0-7.69,1.14,39.62,39.62,0,0,0-.42-7.81,4.69,4.69,0,0,1,.85-3.26,3.34,3.34,0,0,1,4.69-.37,3.37,3.37,0,0,1,.91,4.12A3.37,3.37,0,0,1,196.09,74.68Z"/><path class="cls-42" d="M196.14,79.56a2.79,2.79,0,0,0,.33-.34,3.13,3.13,0,0,0-.51-4.38,3.26,3.26,0,0,0-4-.15l-.4.3.21-.46a3.25,3.25,0,0,0-.91-3.91,3.13,3.13,0,0,0-4.4.34,3.6,3.6,0,0,0-.63,1.25l0,.1C184.88,77.58,195.36,75.63,196.14,79.56Z"/><path class="cls-43" d="M217,74.85a5.88,5.88,0,0,1,1,8.24,8,8,0,0,1-5.47,2.48c-5.29.57-8.25.49-13.56,2a56.14,56.14,0,0,0-.2-9l9.21-11.19,0,0a6,6,0,0,1,1.6,7.27A6,6,0,0,1,217,74.85Z"/><path class="cls-44" d="M217.07,83.46a5.68,5.68,0,0,0,.58-.59,5.51,5.51,0,0,0-.91-7.72,5.74,5.74,0,0,0-7.08-.27l-.71.52.36-.81a5.73,5.73,0,0,0-1.62-6.89l0,0L201,75.76C205.71,78.87,216,78.34,217.07,83.46Z"/><path class="cls-45" d="M202.08,58.54l2.31,1.9,1.26,1-1,1.2-.95-.78-4.66,10,.93.76-1.19,1.44-3.18-2.62,1.19-1.44,1,.86,1.1-2.34-2.51-2.07L194.32,68l1,.8-1.19,1.44L191,67.71l1.19-1.44.93.76h0l9-6.48-1-.81,1-1.2ZM198,65.35h0l1.76,1.45,1.76-4Z"/><path class="cls-46" d="M195.78,65.09c.64,1.63,4.58,1.17,5.17,2.72l2.75-5.91.95.78,1-1.2-1.26-1-2.31-1.9-1,1.2,1,.81-6.28,4.53Zm2.2.27,3.52-2.58-1.76,4L198,65.35Z"/></g></g></svg>