<?xml version="1.0" encoding="utf-8"?>
<!-- Generator: Adobe Illustrator 15.0.0, SVG Export Plug-In . SVG Version: 6.00 Build 0)  -->
<!DOCTYPE svg PUBLIC "-//W3C//DTD SVG 1.1//EN" "http://www.w3.org/Graphics/SVG/1.1/DTD/svg11.dtd">
<svg version="1.1" id="图层_1" xmlns="http://www.w3.org/2000/svg" xmlns:xlink="http://www.w3.org/1999/xlink" x="0px" y="0px"
	 width="200px" height="200px" viewBox="0 0 200 200" enable-background="new 0 0 200 200" xml:space="preserve">
<path fill="#FFFFFF" d="M180.07,0.229H18.628C8.345,0.24,0.011,8.573,0,18.856v37.256C0.011,66.396,8.345,74.729,18.628,74.74h5.24
	v106.358c0.014,10.282,8.345,18.614,18.627,18.628h113.707c10.28-0.017,18.608-8.348,18.622-18.628V74.74h5.246
	c10.281-0.014,18.611-8.347,18.623-18.628V18.856C198.685,8.574,190.353,0.24,180.07,0.229z M156.202,187.303H42.496
	c-3.426-0.002-6.204-2.777-6.209-6.204V43.689h126.12v137.41C162.4,184.523,159.627,187.297,156.202,187.303z M186.273,56.112
	c-0.002,3.426-2.777,6.204-6.203,6.209h-5.246V43.495c2.949-0.487,5.246-2.933,5.246-6.016c0-3.43-2.785-6.209-6.21-6.209H24.837
	c-3.43,0-6.209,2.779-6.209,6.209c0,3.087,2.292,5.528,5.24,6.016v18.827h-5.24c-3.428-0.003-6.207-2.781-6.209-6.209V18.856
	c0.002-3.428,2.781-6.207,6.209-6.209h161.437c3.421,0,6.209,2.784,6.209,6.209V56.112z"/>
<path fill="#FFFFFF" d="M121.287,76.217L99.349,98.156L77.41,76.217c-2.518-2.333-6.449-2.183-8.782,0.335
	c-2.209,2.384-2.208,6.067,0.002,8.45l19.792,19.782H77.868c-3.43,0.137-6.098,3.027-5.961,6.457
	c0.129,3.236,2.724,5.832,5.961,5.961h15.476v9.883h-15.6c-3.705,0.102-6.627,3.187-6.526,6.892c0.097,3.563,2.963,6.43,6.526,6.526
	h15.6v13.458c-0.001,3.429,2.778,6.21,6.208,6.212c3.43,0,6.21-2.778,6.211-6.208c0-0.001,0-0.003,0-0.004v-13.458h15.447
	c3.705-0.101,6.627-3.186,6.525-6.891c-0.097-3.564-2.963-6.43-6.525-6.527h-15.447v-9.883h15.57
	c3.43,0.001,6.211-2.777,6.212-6.207s-2.778-6.211-6.207-6.211c-0.001,0-0.003,0-0.005,0h-11.061l19.786-19.782
	c2.303-2.545,2.106-6.475-0.438-8.778C127.256,74.084,123.656,74.081,121.287,76.217L121.287,76.217z"/>
</svg>
