<?xml version="1.0" encoding="utf-8"?>
<!-- Generator: Adobe Illustrator 16.0.0, SVG Export Plug-In . SVG Version: 6.00 Build 0)  -->
<!DOCTYPE svg PUBLIC "-//W3C//DTD SVG 1.1//EN" "http://www.w3.org/Graphics/SVG/1.1/DTD/svg11.dtd">
<svg version="1.1" id="图层_1" xmlns="http://www.w3.org/2000/svg" xmlns:xlink="http://www.w3.org/1999/xlink" x="0px" y="0px"
	 width="612px" height="792px" viewBox="0 0 612 792" enable-background="new 0 0 612 792" xml:space="preserve">
<path fill="#6DC19D" d="M531.469,602.795V502.128c0-105.104-76.792-190.224-171.553-190.224
	c-94.697,0-171.521,85.12-171.521,190.224v100.667H531.469z"/>
<path fill="#193653" d="M528.958,657.901H75.235c-3.904,0-6.492-1.306-9.08-3.915c-2.59-2.568-3.904-6.481-3.904-9.092
	l2.589-272.203v-2.608c19.476-112.749,119.29-194.402,237.257-194.402c117.978,0,217.813,81.654,237.218,194.402v2.608
	l2.607,272.203c0,3.914-1.345,6.523-3.912,9.092C535.44,656.637,532.83,657.901,528.958,657.901L528.958,657.901z M88.198,630.668
	h426.533l-2.608-256.641c-16.897-99.836-104.973-171.135-210.026-171.135c-105.002,0-193.148,72.615-210.016,171.135L88.198,630.668
	z"/>
<path fill="#193653" d="M239.877,525.655c-11.689,0-23.338-1.304-35.008-7.745c-19.444-11.739-29.799-31.104-28.506-53.159
	c0-7.787,7.766-12.963,14.259-11.699c7.785,0,12.952,7.786,11.659,14.268c-1.284,11.742,3.933,22.057,14.298,28.496
	c10.374,5.178,20.75,5.178,33.714,3.913h99.805c12.964,0,20.75,0,28.496-5.136c9.151-6.564,14.329-19.486,14.329-32.451
	c0-27.271-24.685-31.103-35.08-31.103h-98.47c-27.241,1.304-67.415,2.607-80.399-32.41c-3.885-10.354-3.885-19.465-3.885-28.526
	v-2.568c0-18.161,10.356-35.007,28.466-45.372c15.572-9.122,31.125-7.786,45.403-7.786h106.256c10.396,0,22.096,0,33.713,6.512
	c27.232,14.248,32.45,46.646,33.714,60.905c0,7.786-5.177,14.308-11.68,14.308c-7.787,0-14.268-5.217-14.268-11.7
	c0-6.512-3.935-29.85-19.466-38.891c-5.219-2.609-12.964-2.609-20.75-2.609H250.192c-11.67,0-22.064-1.314-29.852,3.923
	c-5.178,2.568-15.531,10.355-15.531,22.064v2.569c0,7.785,0,12.943,2.567,18.162c6.514,15.53,25.928,15.53,54.453,14.267h99.784
	c37.628,0,62.251,23.277,62.251,57.033c0,20.708-9.092,41.457-24.663,53.117c-14.289,11.698-31.105,11.698-45.373,11.698h-98.531
	C250.252,524.394,245.074,525.655,239.877,525.655z"/>
<path fill="#193653" d="M299.529,560.674c-7.787,0-12.964-6.523-12.964-12.923V287.155c0-7.787,6.513-12.963,12.964-12.963
	c6.501,0,12.964,6.492,12.964,12.963V547.71C313.796,554.191,307.295,560.674,299.529,560.674L299.529,560.674z M307.295,195.126
	c-7.746,0-15.534-3.913-19.438-11.68l-42.783-64.807c-5.197-7.766-6.49-16.846-2.588-23.318
	c3.903-6.471,11.688-10.354,20.729-10.354h88.126c9.09,0,16.877,3.883,20.749,10.354c3.853,6.472,2.608,15.553-2.569,23.318
	l-42.803,64.807C321.542,189.959,315.06,195.126,307.295,195.126z M272.317,110.853l34.979,53.159l34.997-53.159H272.317z"/>
</svg>
