<?xml version="1.0" encoding="utf-8"?>
<!-- Generator: Adobe Illustrator 21.1.0, SVG Export Plug-In . SVG Version: 6.00 Build 0)  -->
<svg version="1.1" id="图层_1" xmlns="http://www.w3.org/2000/svg" xmlns:xlink="http://www.w3.org/1999/xlink" x="0px" y="0px"
	 viewBox="0 0 1024 1024" style="enable-background:new 0 0 1024 1024;" xml:space="preserve">
<path d="M254.7,267.8"/>
<g>

		<linearGradient id="SVGID_1APP_" gradientUnits="userSpaceOnUse" x1="482.3911" y1="1006.4002" x2="575.5587" y2="444.0766" gradientTransform="matrix(1 0 0 -1 0 1024)">
		<stop  offset="0.1675" style="stop-color:#FAB527"/>
		<stop  offset="0.7438" style="stop-color:#FC931B"/>
	</linearGradient>
	<path style="fill:url(#SVGID_1APP_);" d="M765.9,72H258.1c-26.7,0-48.4,26.3-48.4,58.7v137.1h45v-55.2h514.6v55.2h45V130.7
		C814.3,98.3,792.6,72,765.9,72z"/>

		<linearGradient id="SVGID_2APP_" gradientUnits="userSpaceOnUse" x1="387.4217" y1="990.6634" x2="480.5894" y2="428.3398" gradientTransform="matrix(1 0 0 -1 0 1024)">
		<stop  offset="0.1675" style="stop-color:#FAB527"/>
		<stop  offset="0.7438" style="stop-color:#FC931B"/>
	</linearGradient>
	<path style="fill:url(#SVGID_2APP_);" d="M254.7,671.3h-45v222c0,32.4,21.7,58.7,48.4,58.7h507.8c26.7,0,48.4-26.3,48.4-58.7v-222h-45
		H254.7z"/>
</g>
<path d="M512,913.7"/>
<path style="fill:#FFFFFF;" d="M922.7,249.6H101.3C85.1,249.6,72,262.8,72,279v381.3c0,16.2,13.1,29.3,29.3,29.3h821.3
	c16.2,0,29.3-13.1,29.3-29.3V279C952,262.8,938.9,249.6,922.7,249.6L922.7,249.6z"/>
<linearGradient id="SVGID_3APP__" gradientUnits="userSpaceOnUse" x1="514.2802" y1="739.327" x2="510.9512" y2="473.1366" gradientTransform="matrix(1 0 0 -1 0 1024)">
	<stop  offset="0.1675" style="stop-color:#FAB527"/>
	<stop  offset="0.7438" style="stop-color:#FC931B"/>
</linearGradient>
<path style="fill:url(#SVGID_3APP__);" d="M914.1,624.7c0,13.4-12,24.3-26.8,24.3H136.7c-14.8,0-26.8-10.9-26.8-24.3V309.3
	c0-13.4,12-24.3,26.8-24.3h750.5c14.8,0,26.8,10.9,26.8,24.3L914.1,624.7L914.1,624.7z"/>
<path style="fill:#FCD38F;" d="M914.1,624.7"/>
<g>
	<path style="fill:#FFFFFF;" d="M400.2,601.4c-7.9,0-15-3.4-19.4-8.9l-1.1,0.2l-3-7.7l-23-62.3h-78l-24.6,71.1l-1.7-0.5
		c-4.5,5-11.3,8.1-18.8,8.1c-12.6,0-23.1-8.9-24.3-20.2l-2-0.6l3.6-10L288.5,353c2.7-10.7,13.3-18.3,25.4-18.3
		c8.6,0,16.4,3.8,21.2,9.9h1.1l2.5,6.4l83.8,219c0.4,0.9,0.8,1.8,1.1,2.8l4.8,12.5l-5,0.7C420.2,594.9,411,601.4,400.2,601.4z
		 M337.3,478.4l-17.9-49.6c-1.8-5.1-3.6-9.9-5.2-14.5c-1.1,3.6-2.4,7.2-3.6,10.7l-19.5,53.4H337.3z"/>
	<path style="fill:#FFFFFF;" d="M414.2,576c-0.2-0.7-0.4-1.4-0.8-2l-84-219.5h-0.1c-2-5.7-8.1-9.9-15.5-9.9
		c-7.9,0-14.5,4.9-15.9,11.3l-81,218.2h0.1c-0.7,1.5-1.1,3.2-1.1,4.9c0,6.9,6.5,12.5,14.5,12.5c7,0,12.8-4.3,14.2-9.9h0.1l23.8-68.8
		h92l25.4,68.8h0.2c1.4,5.7,7.2,9.9,14.2,9.9c8,0,14.5-5.6,14.5-12.5c0-0.6-0.1-1.2-0.2-1.8h0.2L414.2,576z M276.9,488.3l24.3-66.6
		c5.2-14.4,9.2-28.8,12-43.4c3.3,12.1,8.4,27.8,15.5,47.1l22.7,62.9H276.9z"/>
	<path style="fill:#FFFFFF;" d="M456.2,602.6c-8.9,0-16.8-4.6-21-11.5H432l-0.2-9.9V334.6h92.3c20.6,0,35.7,1.6,46,5
		c14.7,4.8,26.6,13.7,35.3,26.6c8.6,12.7,13,28.3,13,46.4c0,23.8-7.1,43.5-21,58.8c-14.1,15.5-38,23.4-70.8,23.4h-46.1v85.7v0.1V591
		h-3.3C473,598,465.1,602.6,456.2,602.6z M527.2,447.2c15.3,0,26.3-2.8,32.6-8.3c6-5.2,8.9-13.4,8.9-24.9c0-7.6-1.5-13.8-4.6-18.9
		c-3-4.8-6.4-8.1-10.2-9.8c-2.5-1.1-9.4-2.9-27.3-2.9h-46.1v64.8L527.2,447.2L527.2,447.2z"/>
	<path style="fill:#FFFFFF;" d="M567,349.1c-9.2-3-23.5-4.5-42.9-4.5h-82.4v236.7h0.2c0.9,6.5,6.9,11.5,14.3,11.5s13.4-5,14.3-11.5
		h0.2v-1.4c0-0.1,0-0.1,0-0.2v-0.1V485h56c30.1,0,51.2-6.7,63.5-20.2c12.3-13.4,18.4-30.8,18.4-52.1c0-16.1-3.8-29.8-11.3-40.8
		C589.7,360.7,579.7,353.2,567,349.1L567,349.1z M566.3,446.3C558,453.5,545,457,527.2,457h-56.6v-84.6h56c15,0,25.4,1.2,31.2,3.7
		s10.7,7.1,14.7,13.7c4.1,6.7,6.1,14.7,6.1,24.1C578.7,428.4,574.6,439.2,566.3,446.3L566.3,446.3z"/>
	<path style="fill:#FFFFFF;" d="M659.9,602.6c-8.9,0-16.8-4.6-21-11.5h-3.2l-0.2-9.9V334.6h92.3c20.6,0,35.7,1.6,46,5
		c14.7,4.8,26.6,13.7,35.3,26.6c8.6,12.7,13,28.3,13,46.4c0,23.7-7,43.5-20.9,58.8c-14.2,15.5-38,23.4-70.8,23.4h-46.1V591H681
		C676.7,598,668.8,602.6,659.9,602.6z M730.9,447.2c15.3,0,26.3-2.8,32.6-8.3c6-5.2,9-13.4,9-24.9c0-7.5-1.6-13.8-4.7-18.9
		c-2.9-4.8-6.4-8.1-10.2-9.8c-2.5-1.1-9.4-2.9-27.3-2.9h-46.1v64.8L730.9,447.2L730.9,447.2z"/>
	<path style="fill:#FFFFFF;" d="M801,371.8c-7.5-11.1-17.6-18.7-30.2-22.8c-9.2-3-23.5-4.5-42.9-4.5h-82.4v236.7h0.2
		c0.9,6.5,6.9,11.5,14.3,11.5c7.4,0,13.4-5,14.3-11.5h0.2v-1.4c0-0.1,0-0.1,0-0.2v-0.1V485h56c30.1,0,51.2-6.7,63.5-20.2
		c12.2-13.4,18.4-30.8,18.4-52.1C812.2,396.5,808.5,382.9,801,371.8L801,371.8z M770,446.3c-8.2,7.2-21.3,10.7-39.1,10.7h-56.6
		v-84.6h56c15,0,25.4,1.2,31.2,3.7s10.7,7.1,14.7,13.7c4.1,6.7,6.1,14.7,6.1,24.1C782.4,428.4,778.3,439.2,770,446.3L770,446.3z"/>
</g>
<rect x="254.7" y="671.3" style="fill:#FFFFFF;" width="518.2" height="59.3"/>
<path style="fill:#FCF0D0;" d="M512,913.7c-18.1,0-32.8-14.7-32.8-32.8s14.7-32.8,32.8-32.8s32.8,14.7,32.8,32.8
	S530.1,913.7,512,913.7L512,913.7z"/>
</svg>
