<?xml version="1.0" encoding="utf-8"?>
<!-- Generator: Adobe Illustrator 21.1.0, SVG Export Plug-In . SVG Version: 6.00 Build 0)  -->
<svg version="1.1" id="图层_1" xmlns="http://www.w3.org/2000/svg" xmlns:xlink="http://www.w3.org/1999/xlink" x="0px" y="0px"
	 viewBox="0 0 1024 1024" style="enable-background:new 0 0 1024 1024;" xml:space="preserve">
<path style="fill:#193653;" d="M116.3,813.8c-24.4,0-44.3-19.9-44.3-44.3v-515c0-11.8,4.6-22.9,13-31.3c8.2-8.2,19.6-13,31.3-13
	h791.4c24.4,0,44.3,19.9,44.3,44.3v515c0,24.4-19.9,44.3-44.3,44.3H116.3z M117.2,768.6h789.6V255.4H117.2V768.6z"/>
<rect x="214" y="435.9" style="fill:#5099FC;" width="603.9" height="241.9"/>
<path style="fill:#5D5D5D;" d="M734.1,743.6c-12.5,0-22.7-10.1-22.7-22.6s10.2-22.7,22.7-22.7H844c12.5,0,22.6,10.2,22.6,22.7
	s-10.1,22.6-22.6,22.6H734.1z M94.6,458.5c-12.5,0-22.6-10.2-22.6-22.6s10.1-22.6,22.6-22.6h834.8c12.5,0,22.6,10.1,22.6,22.6
	s-10.1,22.6-22.6,22.6H94.6z"/>
</svg>
