<?xml version="1.0" encoding="utf-8"?>
<!-- Generator: Adobe Illustrator 21.1.0, SVG Export Plug-In . SVG Version: 6.00 Build 0)  -->
<svg version="1.1" id="图层_1" xmlns="http://www.w3.org/2000/svg" xmlns:xlink="http://www.w3.org/1999/xlink" x="0px" y="0px"
	 viewBox="0 0 1024 1024" style="enable-background:new 0 0 1024 1024;" xml:space="preserve">
<path style="fill:#193653;" d="M855.6,952H161c-42.9,0-77.7-32.7-77.7-72.8V202c0-40.1,34.8-72.8,77.7-72.8h354.5
	c11.5,0,21,9.4,21,21c0,11.5-9.4,21-21,21H161c-19.7,0-35.8,13.8-35.8,30.9v677.2c0,17.1,16.1,30.9,35.8,30.9h694.7
	c19.7,0,35.8-13.9,35.8-30.9l-1.6-321.5c-0.1-11.5,9.3-21,20.8-21.1c11.6,0,21,9.3,21.1,20.9l1.6,321.6
	C933.3,919.3,898.5,952,855.6,952L855.6,952z"/>
<path style="fill:#FD8A5A;" d="M780.9,552.1l1.1,217.8c0,19.4-17.3,35.1-38.4,35.1H273c-21.3,0-38.4-15.8-38.4-35.1V311.3
	c0-19.4,17.3-35.1,38.4-35.1h240.1"/>
<path style="fill:#193653;" d="M495.5,582.9c-5.5,0-11-2.2-15.1-6.4l-89.7-94.1c-3.9-4.1-6-9.6-5.8-15.3c0.2-5.7,2.8-11,7.1-14.8
	l367.8-325.2c8.5-7.4,21.3-6.9,29,1.3l89.7,94.1c3.9,4.1,6,9.6,5.8,15.3s-2.8,11-7.1,14.8L509.4,577.7
	C505.5,581.2,500.5,582.9,495.5,582.9L495.5,582.9z M435.9,469.1l60.9,63.7l336.4-297.3l-60.8-63.7L435.9,469.1z"/>
<path style="fill:#193653;" d="M864.2,257.1c-5.5,0-11-2.2-15.1-6.4l-89.8-94.1c-3.9-4.1-6-9.6-5.8-15.3s2.8-11,7.1-14.8l55.7-49.2
	c8.5-7.4,21.3-6.9,29,1.3l89.7,94.1c3.9,4.1,6,9.6,5.8,15.3s-2.8,11-7.1,14.8L878,252C874,255.4,869,257.1,864.2,257.1L864.2,257.1z
	 M804.6,143.4l60.8,63.7l24.2-21.4L828.9,122L804.6,143.4z M344,630.2c-5.8,0-11.5-2.4-15.7-7c-5.5-6.1-6.9-14.9-3.6-22.4
	l62.4-141.9c2.9-6.4,8.7-11,15.5-12.2c6.9-1.1,14,1.1,18.7,6.1l89.7,94.1c5,5.2,7,12.7,5.1,19.7c-1.8,7-7.1,12.6-13.9,14.7
	l-152,47.7C348.2,629.9,346.1,630.2,344,630.2L344,630.2z M412.9,504.6l-31.2,70.8l76-23.8L412.9,504.6z M758.4,673.8H622.3
	c-11.3,0-20.5-9.2-20.5-20.5v-0.9c0-11.3,9.2-20.5,20.5-20.5h136.1c11.3,0,20.5,9.2,20.5,20.5v0.9
	C778.9,664.6,769.7,673.8,758.4,673.8L758.4,673.8z M788.3,813.8H228.2c-10.6,0-19.3-8.7-19.3-19.3v-3.4c0-10.6,8.7-19.2,19.3-19.2
	h560.1c10.6,0,19.3,8.7,19.3,19.2v3.4C807.6,805.1,798.9,813.8,788.3,813.8L788.3,813.8z"/>
</svg>
