<?xml version="1.0" encoding="utf-8"?>
<!-- Generator: Adobe Illustrator 21.1.0, SVG Export Plug-In . SVG Version: 6.00 Build 0)  -->
<svg version="1.1" id="图层_1" xmlns="http://www.w3.org/2000/svg" xmlns:xlink="http://www.w3.org/1999/xlink" x="0px" y="0px"
	 viewBox="0 0 1024 1024" style="enable-background:new 0 0 1024 1024;" xml:space="preserve">
<path style="fill:#FFFFFF;" d="M356.2,383.4H302v-54.2c0-9.7-5.2-18.6-13.5-23.5c-8.4-4.8-18.7-4.8-27.1,0s-13.5,13.8-13.5,23.5
	v54.2h-54.2c-9.7,0-18.6,5.2-23.5,13.5c-4.8,8.4-4.8,18.7,0,27.1s13.8,13.5,23.5,13.5h54.2v54.2c0,9.7,5.2,18.6,13.5,23.5
	c8.4,4.8,18.7,4.8,27.1,0s13.5-13.8,13.5-23.5v-54.2h54.2c9.7,0,18.6-5.2,23.5-13.5c4.8-8.4,4.8-18.7,0-27.1
	C374.8,388.5,365.9,383.4,356.2,383.4z"/>
<path style="fill:#82CDFB;" d="M762.4,329.2c-44.9,0-81.2,36.4-81.2,81.2c0,44.9,36.4,81.2,81.2,81.2c44.9,0,81.3-36.4,81.3-81.2
	S807.3,329.2,762.4,329.2z"/>
<linearGradient id="SVGID_1GAM_" gradientUnits="userSpaceOnUse" x1="72" y1="588.5171" x2="950.1" y2="588.5171" gradientTransform="matrix(1 0 0 -1 0 1024)">
	<stop  offset="0" style="stop-color:#66CEFE"/>
	<stop  offset="1" style="stop-color:#57C7FC"/>
</linearGradient>
<path style="fill:url(#SVGID_1GAM_);" d="M851.1,193.9c-41.7-41.9-99.4-67.8-163.2-67.8h-8.5l0,0c-11.7-0.5-22.9,4.5-30.3,13.5l0,0
	C626.4,167.5,573.6,187,512,187s-114.5-19.6-137.1-47.4l0,0c-7.4-9-18.7-14-30.3-13.5l0,0h-8.5c-63.8,0-121.5,25.9-163.2,67.8
	C115.6,246.6,74.8,370.4,72,516.3V548c0.3,16.9,1.1,33.5,2.4,49.8C143,671,246.3,724.5,366.5,744.9c4-12.6,7.7-25.9,11-39.6
	c8.2-67,65.2-118.8,134.4-118.8s126.2,51.9,134.4,118.8c2,8.2,4,16.1,6.3,23.9c146.6-42.7,259-136.8,297.5-252.7
	C941.4,348.1,903,241.7,851.1,193.9z M379.7,424c-4.8,8.4-13.8,13.5-23.5,13.5H302v54.2c0,9.7-5.2,18.6-13.5,23.5
	c-8.4,4.8-18.7,4.8-27.1,0s-13.5-13.8-13.5-23.5v-54.2h-54.2c-9.7,0-18.6-5.2-23.5-13.5c-4.8-8.4-4.8-18.7,0-27.1
	s13.8-13.5,23.5-13.5h54.2v-54.2c0-9.7,5.2-18.6,13.5-23.5c8.4-4.8,18.7-4.8,27.1,0s13.5,13.8,13.5,23.5v54.2h54.2
	c9.7,0,18.6,5.2,23.5,13.5C384.5,405.3,384.5,415.6,379.7,424z M762.4,491.7c-44.9,0-81.2-36.4-81.2-81.2
	c0-44.9,36.4-81.2,81.2-81.2c44.9,0,81.3,36.4,81.3,81.2S807.3,491.7,762.4,491.7z"/>
<g>

		<linearGradient id="SVGID_2GAM_" gradientUnits="userSpaceOnUse" x1="459.2511" y1="690.3971" x2="554.0322" y2="332.5982" gradientTransform="matrix(1 0 0 -1 0 1024)">
		<stop  offset="0" style="stop-color:#65CEFD"/>
		<stop  offset="0.7882" style="stop-color:#44BEFD"/>
	</linearGradient>
	<path style="fill:url(#SVGID_2GAM_);" d="M950.1,476.5c-8.7-128.4-47.2-234.7-99-282.6c-41.7-41.9-99.4-67.8-163.2-67.8h-8.5l0,0
		c-11.7-0.5-22.9,4.5-30.3,13.5l0,0C626.4,167.5,573.6,187,512,187s-114.5-19.6-137.1-47.4l0,0c-7.4-9-18.7-14-30.3-13.5l0,0h-8.5
		c-63.8,0-121.5,25.9-163.2,67.8C115.6,246.6,74.8,370.4,72,516.3V548c0.3,16.9,1.1,33.5,2.4,49.8
		c13.7,170.7,80.1,300.1,159.9,300.1c54.5,0,102.7-60.4,132.2-153c4-12.6,7.7-25.9,11-39.6c8.2-67,65.2-118.8,134.4-118.8
		s126.2,51.9,134.4,118.8c2,8.2,4,16.1,6.3,23.9c28.9,101.4,79.4,168.7,136.9,168.7c89.7,0,162.5-163.7,162.5-365.6
		C952,513.3,951.4,494.7,950.1,476.5z"/>
</g>
<path style="fill:#FFFFFF;" d="M379.7,424c-4.8,8.4-13.8,13.5-23.5,13.5H302v54.2c0,9.7-5.2,18.6-13.5,23.5
	c-8.4,4.8-18.7,4.8-27.1,0s-13.5-13.8-13.5-23.5v-54.2h-54.2c-9.7,0-18.6-5.2-23.5-13.5c-4.8-8.4-4.8-18.7,0-27.1
	s13.8-13.5,23.5-13.5h54.2v-54.2c0-9.7,5.2-18.6,13.5-23.5c8.4-4.8,18.7-4.8,27.1,0s13.5,13.8,13.5,23.5v54.2h54.2
	c9.7,0,18.6,5.2,23.5,13.5C384.5,405.3,384.5,415.6,379.7,424z"/>
<path style="fill:#FFFFFF;" d="M762.4,329.2c44.9,0,81.3,36.4,81.3,81.2c0,44.9-36.4,81.2-81.3,81.2c-44.9,0-81.2-36.4-81.2-81.2
	S717.6,329.2,762.4,329.2z"/>
</svg>
