<?xml version="1.0" encoding="utf-8"?>
<!-- Generator: Adobe Illustrator 21.1.0, SVG Export Plug-In . SVG Version: 6.00 Build 0)  -->
<svg version="1.1" id="图层_1" xmlns="http://www.w3.org/2000/svg" xmlns:xlink="http://www.w3.org/1999/xlink" x="0px" y="0px"
	 viewBox="0 0 1024 1024" style="enable-background:new 0 0 1024 1024;" xml:space="preserve">
<linearGradient id="SVGID_1LMI_" gradientUnits="userSpaceOnUse" x1="512" y1="136.6119" x2="512" y2="843.5738">
	<stop  offset="9.585492e-02" style="stop-color:#4BDF9F"/>
	<stop  offset="0.9611" style="stop-color:#0FCD84"/>
</linearGradient>
<circle style="fill:url(#SVGID_1LMI_);" cx="512" cy="512" r="440"/>
<g>
	<path style="fill:#FFFFFF;" d="M254.9,477.6c-14.7-0.4-44.3-1.5-59-2c39.6,55.7,74.6,114.4,114.7,169.7
		c35.8-56.5,72.4-112.2,108-168.5c-18-0.2-54.3-0.7-72.3-1.1c12.7-73.5,56.3-148.5,132.7-168.7c59.9-24,119.1,7.6,175.7,24.5
		c-57.4-75-162.8-88.2-248.5-62.8C320.6,301.3,256.9,385,254.9,477.6"/>
	<path style="fill:#FFFFFF;" d="M538.8,767c-54.6,0-106.3-17.4-145.7-47.9c33.2,14,67.4,26.9,103.3,26.9c16.1,0,31.6-2.7,46.4-8
		c94.1-25.7,143.7-116.6,158.8-193.2c0.6-2.9-0.2-6-2-8.3c-1.9-2.3-4.7-3.7-7.7-3.8c-22.7-0.5-43.4-0.8-62.6-0.9
		c15.2-23.1,30.1-46.6,44.7-69.4c17.6-27.5,35.7-56,54.1-83.7l5.5,1.8c4.6,7.5,9.2,15,13.9,22.4c26.1,42.3,53,85.9,80.7,128.4
		c-13,0.5-27.7,1.1-37.1,1.5l-0.5,0c-4.2,0.2-7.9,3-9.2,7c-3.4,10.5-6.6,21.5-9.7,32.1c-14.1,48-28.7,97.7-67.8,129.7
		c-0.3,0.2-0.5,0.5-0.8,0.7C662.2,743.5,602.3,767,538.8,767C538.8,767,538.8,767,538.8,767z"/>
</g>
</svg>
