<?xml version="1.0" encoding="utf-8"?>
<!-- Generator: Adobe Illustrator 21.1.0, SVG Export Plug-In . SVG Version: 6.00 Build 0)  -->
<svg version="1.1" id="图层_1" xmlns="http://www.w3.org/2000/svg" xmlns:xlink="http://www.w3.org/1999/xlink" x="0px" y="0px"
	 viewBox="0 0 1024 1024" style="enable-background:new 0 0 1024 1024;" xml:space="preserve">
<g>

		<linearGradient id="SVGID_1MES_" gradientUnits="userSpaceOnUse" x1="504.3378" y1="236.3104" x2="529.1453" y2="139.6951" gradientTransform="matrix(1 0 0 -1 0 1024)">
		<stop  offset="0.2956" style="stop-color:#FDAAAA"/>
		<stop  offset="0.6897" style="stop-color:#FEBAAF"/>
	</linearGradient>
	<path style="fill:url(#SVGID_1MES_);" d="M632.2,785.8L391.6,786c-21.3-0.2-21.9,23.7-21.9,23.7c0,78.6,63.7,142.2,142.2,142.2
		s142.2-63.7,142.2-142.2C654.2,809.8,654.2,786.1,632.2,785.8L632.2,785.8z"/>
</g>
<g>

		<linearGradient id="SVGID_2_" gradientUnits="userSpaceOnUse" x1="256.4893" y1="761.0891" x2="672.981" y2="357.654" gradientTransform="matrix(1 0 0 -1 0 1024)">
		<stop  offset="0.1084" style="stop-color:#FF7D63"/>
		<stop  offset="0.9015" style="stop-color:#FF5B60"/>
	</linearGradient>
	<path style="fill:url(#SVGID_2_);" d="M843.9,601.6V403.9C843.9,220.6,695.3,72,512,72S180.1,220.6,180.1,403.9v197.6
		c-28.1,13.3-47.4,41.9-47.4,75c0,45.7,37.2,83,83,83h592.6c45.9,0,83-37.1,83-83C891.3,643.5,871.9,614.9,843.9,601.6L843.9,601.6z
		"/>
</g>
</svg>
