<?xml version="1.0" encoding="utf-8"?>
<!-- Generator: Adobe Illustrator 21.1.0, SVG Export Plug-In . SVG Version: 6.00 Build 0)  -->
<svg version="1.1" id="图层_1" xmlns="http://www.w3.org/2000/svg" xmlns:xlink="http://www.w3.org/1999/xlink" x="0px" y="0px"
	 viewBox="0 0 1024 1024" style="enable-background:new 0 0 1024 1024;" xml:space="preserve">
<g id="图层_2">
	<g id="图层_1-2">
		<path style="fill:#FCD28C;" d="M891.9,204.3h-73.2v-73.2c-2.5-12.6-17.7-20.2-30.3-17.7c-7.6,2.5-15.1,10.1-17.7,17.7v73.2h-73.2
			c-12.6,2.5-20.2,17.7-17.7,30.3c2.5,7.6,10.1,15.1,17.7,17.7h73.2v73.2c-2.5,12.6,5,27.8,17.7,30.3c12.6,2.5,27.8-5,30.3-17.7
			c0-5,0-10.1,0-12.6v-70.7h73.2c12.6-2.5,20.2-17.7,17.7-30.3C907.1,214.4,899.5,206.8,891.9,204.3L891.9,204.3z"/>

			<linearGradient id="SVGID_1MON_" gradientUnits="userSpaceOnUse" x1="451.1472" y1="-248.2785" x2="610.8813" y2="-842.5506" gradientTransform="matrix(1 0 0 -1 0 38)">
			<stop  offset="0" style="stop-color:#FDC708"/>
			<stop  offset="1" style="stop-color:#FCAD34"/>
		</linearGradient>
		<path style="fill:url(#SVGID_1MON_);" d="M924.8,360.8c0-2.5-2.5-5-5-7.6c-10.1-27.8-22.7-55.5-40.4-80.8h-42.9v53
			c0,25.2-20.2,45.4-45.4,45.4s-42.9-20.2-42.9-42.9v-55.5h-53c-25.2,0-45.4-20.2-45.4-45.4s20.2-45.4,45.4-45.4h53v-42.9
			C541.2,10,268.7,73.1,140,280C23.9,466.8,61.7,709,228.3,850.3C415,1006.8,695.1,979,849,792.3C950,671.2,977.7,507.1,924.8,360.8
			z"/>
		<path style="fill:#FFFFFF;" d="M677.5,340.6c0-25.2-20.2-42.9-42.9-42.9c-15.1,0-27.8,7.6-35.3,17.7L513.4,439l-88.3-123.6
			c-10.1-12.6-22.7-20.2-35.3-20.2c-25.2,0-42.9,20.2-45.4,45.4c0,10.1,2.5,17.7,10.1,25.2l75.7,106h-50.5
			c-15.1,0-25.2,12.6-25.2,25.2s12.6,25.2,25.2,25.2h85.8v40.4h-85.8c-15.1,0-25.2,12.6-25.2,25.2c0,12.6,12.6,25.2,25.2,25.2h85.8
			v73.2c0,20.2,15.1,40.4,37.9,40.4c2.5,0,5,0,7.6,0c20.2,2.5,40.4-12.6,45.4-32.8c0-2.5,0-5,0-7.6V613h88.3
			c15.1,0,25.2-12.6,25.2-25.2s-12.6-25.2-25.2-25.2h-85.8v-40.4h88.3c15.1,0,25.2-12.6,25.2-25.2s-12.6-25.2-25.2-25.2h-50.5
			l75.7-106C674.9,358.2,677.5,350.7,677.5,340.6L677.5,340.6z"/>
	</g>
</g>
</svg>
