<?xml version="1.0" encoding="utf-8"?>
<!-- Generator: Adobe Illustrator 21.1.0, SVG Export Plug-In . SVG Version: 6.00 Build 0)  -->
<svg version="1.1" id="图层_1" xmlns="http://www.w3.org/2000/svg" xmlns:xlink="http://www.w3.org/1999/xlink" x="0px" y="0px"
	 viewBox="0 0 1024 1024" style="enable-background:new 0 0 1024 1024;" xml:space="preserve">
<path style="fill:#EA5873;" d="M728.2,197.6H295.8c-21.6,0-39.2,17.6-39.2,39.3v550.3c0,21.6,17.6,39.3,39.2,39.3h432.4
	c21.6,0,39.2-17.6,39.2-39.3V236.9C767.4,215.2,749.8,197.6,728.2,197.6L728.2,197.6z"/>
<path style="fill:#333333;" d="M871,131.7c-4.9-11.6-11.9-22.1-20.9-31c-8.9-8.9-19.4-16-31-20.9C807,74.7,794.1,72,781,72H243.1
	c-13.1,0-26,2.5-38,7.7c-11.6,4.9-22.1,11.9-31,20.9s-16,19.4-20.9,31c-5.1,12.1-7.8,24.9-7.8,38c0,19.9,3.9,39,11.5,57.2
	c7.5,17.4,17.9,33.1,31.5,46.6c1.9,1.9,3.9,3.9,6,5.7V169.7c0-27,21.9-48.8,48.8-48.8H781c27,0,48.8,21.9,48.8,48.8v109.4
	c2.1-1.8,4-3.8,6-5.7c13.4-13.4,24-29.1,31.5-46.6c7.6-18,11.5-37.3,11.5-57.2C878.7,156.6,876.1,143.8,871,131.7L871,131.7z"/>
<path style="fill:#193653;" d="M801.2,238.9c-18.5,18.5-43,28.7-69.1,28.7H291.9c-26.1,0-50.6-10.1-69.1-28.7
	c-18.5-18.5-28.7-43-28.7-69.1v109.4c12.1,10.7,25.7,19.4,40.6,25.8c18,7.6,37.3,11.5,57.1,11.5h440c19.8,0,38.9-3.9,57.1-11.5
	c14.9-6.3,28.5-14.9,40.6-25.8V169.9C829.8,196,819.5,220.4,801.2,238.9L801.2,238.9z"/>
<path style="fill:#193653;" d="M871,131.7c-4.9-11.6-11.9-22.1-20.9-31c-8.9-8.9-19.4-16-31-20.9C807,74.7,794.1,72,781,72H243.1
	c-13.1,0-26,2.5-38,7.7c-11.6,4.9-22.1,11.9-31,20.9s-16,19.4-20.9,31c-5.1,12.1-7.8,24.9-7.8,38v684.6c0,13.1,2.5,26,7.8,38
	c4.9,11.6,11.9,22.1,20.9,31c8.9,8.9,19.4,16,31,20.9c12.1,5.1,24.9,7.7,38,7.7h537.8c13.1,0,26-2.5,38-7.7
	c11.6-4.9,22.1-11.9,31-20.9s16-19.4,20.9-31c5.1-12.1,7.8-24.9,7.8-38V169.9C878.7,156.6,876.1,143.8,871,131.7L871,131.7z
	 M835.6,860.5c0,27.4-22.4,49.7-49.7,49.7H238.1c-27.4,0-49.7-22.4-49.7-49.7V163.4c0-27.4,22.4-49.7,49.7-49.7h547.7
	c27.5,0,49.7,22.4,49.7,49.7L835.6,860.5L835.6,860.5z"/>
<path style="fill:#193653;" d="M635.7,425.8H590l-80.1,102.7l-80-102.7h-45.6l88.2,106.4h-95.8v24.5H490V617H376.7v24.3H490v79.2
	h40.1v-79.2h113.7V617H530.1v-60.3h113.7v-24.5h-96.2L635.7,425.8z"/>
</svg>
