<?xml version="1.0" encoding="utf-8"?>
<!-- Generator: Adobe Illustrator 21.1.0, SVG Export Plug-In . SVG Version: 6.00 Build 0)  -->
<svg version="1.1" id="图层_1" xmlns="http://www.w3.org/2000/svg" xmlns:xlink="http://www.w3.org/1999/xlink" x="0px" y="0px"
	 viewBox="0 0 1024 1024" style="enable-background:new 0 0 1024 1024;" xml:space="preserve">
<g>

		<linearGradient id="SVGID_1SET_" gradientUnits="userSpaceOnUse" x1="514.597" y1="807.9755" x2="509.8988" y2="272.3669" gradientTransform="matrix(1 0 0 -1 0 1024)">
		<stop  offset="0" style="stop-color:#FFB584"/>
		<stop  offset="0.8394" style="stop-color:#FC6928"/>
	</linearGradient>
	<path style="fill:url(#SVGID_1SET_);" d="M943.1,425.9c-4.7-25.1-19.7-41.3-38.3-40.9h-4c-63,0-114.4-51.4-114.4-114.4
		c0-20.7,9.9-43.5,9.9-43.7c9.9-21.8,2.3-48.9-17.4-62.7l-1.2-0.7L668,102.4l-1.2-0.5c-6.6-2.8-13.6-4.2-21.1-4.2
		c-15.7,0-31,6.1-41.1,16.7c-13.4,13.9-55.9,49.8-90,49.8c-34.5,0-77.1-36.6-90.7-50.7c-9.9-10.6-25.6-16.9-41.3-16.9
		c-7.5,0-14.3,1.4-20.9,4.2l-1.2,0.5l-113.9,62.5l-1.2,0.7c-19.7,13.6-27.3,40.6-17.4,62.5c0.2,0.2,9.9,23,9.9,43.7
		c0,63-51.4,114.4-114.4,114.4h-4c-18.3-0.5-33.4,15.7-38.3,40.9C80.7,428,72,475,72,512.1c0,37.1,8.7,84.3,9.2,86.2
		c4.7,24.9,19.3,40.9,37.6,40.9h4.7c63,0,114.4,51.4,114.4,114.4c0,20.7-9.9,43.5-9.9,43.7c-9.6,21.8-2.3,48.9,17.4,62.7l0.9,0.7
		l107.8,60.4l1.2,0.5c6.6,2.8,13.6,4.2,21.1,4.2c16,0,31.2-6.6,41.3-17.4c12.7-13.6,56.6-52.9,91.9-52.9c35.5,0,78.9,39,92.6,54
		c10.1,11,25.6,17.9,41.6,17.9c7.3,0,14.3-1.4,20.7-4.2l1.2-0.5L777.5,861l1.2-0.7c19.7-13.6,27.3-40.6,17.4-62.5
		c-0.2-0.2-9.9-23-9.9-43.7c0-63,51.4-114.4,114.4-114.4h4c18.3,0.5,33.4-15.7,38.3-40.9c0.5-2.1,9.2-49.1,9.2-86.2
		C952.2,475,943.3,427.8,943.1,425.9L943.1,425.9z M510.4,663.9c-83.9,0-152.5-68.4-152.5-152.5c0-83.9,68.4-152.5,152.5-152.5
		c83.9,0,152.5,68.4,152.5,152.5S594.5,663.9,510.4,663.9L510.4,663.9z"/>
</g>
<path style="fill:#FFB79C;" d="M510.4,410.9c-55.4,0-100.5,45.1-100.5,100.5c0,55.4,45.1,100.5,100.5,100.5s100.5-45.1,100.5-100.5
	C610.9,456,565.8,410.9,510.4,410.9L510.4,410.9z"/>
</svg>
