<?xml version="1.0" encoding="utf-8"?>
<!-- Generator: Adobe Illustrator 19.0.0, SVG Export Plug-In . SVG Version: 6.00 Build 0)  -->
<svg version="1.1" id="Layer_1" xmlns="http://www.w3.org/2000/svg" xmlns:xlink="http://www.w3.org/1999/xlink" x="0px" y="0px"
	 width="640px" height="388px" viewBox="-159 87 640 388" style="enable-background:new -159 87 640 388;" xml:space="preserve">
<style type="text/css">
	.st0{fill:#808080;}
	.st1{fill:#878E93;}
	.st2{fill:#242628;}
	.st3{fill:#1A1D1E;}
	.st4{fill:#191B1C;}
	.st5{fill:#EE2626;}
	.st6{fill:#EF7133;}
	.st7{fill:#D0AD0B;}
	.st8{fill:#0EAB0E;}
	.st9{fill:#1675BE;}
</style>
<path class="st0" d="M163.7,156.3h12.8v4.7h-12.8V156.3z M163.7,151.1h12.8v2.9h-12.8V151.1z M163.8,162.9h12.6v12.3h2.7l-8.7,13.1
	l-9.4-13.1h2.7L163.8,162.9L163.8,162.9z"/>
<path class="st0" d="M164.7,232.9h12.8v4.7h-12.8V232.9z M164.7,227.7h12.8v2.9h-12.8V227.7z M164.8,239.5h12.6v12.3h2.7l-8.7,13.1
	l-9.4-13.1h2.7L164.8,239.5L164.8,239.5z"/>
<path class="st0" d="M162.7,310.6h12.8v4.7h-12.8V310.6z M162.7,305.4h12.8v2.9h-12.8V305.4z M162.8,317.2h12.6v12.3h2.7l-8.7,13.1
	l-9.4-13.1h2.7L162.8,317.2L162.8,317.2z"/>
<path class="st0" d="M162.7,389.4h12.8v4.7h-12.8V389.4z M162.7,384.2h12.8v2.9h-12.8V384.2z M162.8,396h12.6v12.3h2.7l-8.7,13.1
	l-9.4-13.1h2.7L162.8,396L162.8,396z"/>
<path class="st1" d="M-54.5,135.8l-15.8,17.1c0.7,0.8,1.1,1.8,1.1,2.9c0,2.3-1.9,4.3-4.3,4.3s-4.3-1.9-4.3-4.3s1.9-4.3,4.3-4.3
	c0.5,0,1,0.1,1.5,0.3l16.3-17.7l0.6,0.5v-0.9h181.6v2H-54.5z"/>
<path class="st1" d="M394.8,135.8l15.8,17.1c-0.7,0.8-1.1,1.8-1.1,2.9c0,2.3,1.9,4.3,4.3,4.3s4.3-1.9,4.3-4.3s-1.9-4.3-4.3-4.3
	c-0.5,0-1,0.1-1.5,0.3L396,134.1l-0.6,0.5v-0.9H213.8v2H394.8z"/>
<path class="st1" d="M63.2,142.1v19.7h30.3v27.3H63.2v19.5h61.1v2H63.2v0h-2v-21.5H-7v-27.3h68.2v-21.6h1.1v-0.1h70.5v2L63.2,142.1
	L63.2,142.1z M-4.9,164v23.3h96.4V164H-4.9z"/>
<path class="st1" d="M62.7,216.3V236H93v27.3H62.7v19.5h61.1v2H62.7v0h-2v-21.5H-7.5V236h68.2v-21.6h1.1v-0.1h70.5v2H62.7z
	 M-5.4,238.2v23.3H91v-23.3H-5.4z"/>
<path class="st1" d="M60.1,292.3V312h30.3v27.3H60.1v19.5h61.1v2H60.1v0h-2v-21.5h-68.2V312h68.2v-21.6h1.1v-0.1h70.5v2L60.1,292.3
	L60.1,292.3z M-8,314.2v23.3h96.4v-23.3H-8z"/>
<path class="st1" d="M60.2,371.6v19.7h30.3v27.3H60.2v19.5h61.1v2H60.2v0h-2v-21.5H-10v-27.3h68.2v-21.6h1.1v-0.1h70.5v2L60.2,371.6
	L60.2,371.6z M-7.9,393.5v23.3h96.4v-23.3H-7.9z"/>
<path class="st1" d="M276.7,238v46.3h-1.1v0h-56.3v-2h55.3V238h-54.6v-27.3h54.6v-63.3h-69.6v-2h69.6v-0.1h2v65.4H331V238H276.7z
	 M329.5,211.9H221.7v24.8h107.8V211.9z"/>
<path class="st1" d="M343,314.5v45.3h-1.1v0H218.7v-2H341v-43.3h-54.6v-27.3H341V140.8H209.4v-2H341v-0.1h2v148.4h54.3v27.3H343z
	 M395.8,288.3H288v24.8h107.8V288.3z"/>
<path class="st2" d="M87.6,179.9c-0.5,0.5-1.1,0.8-1.8,0.8c-0.7,0-1.3-0.2-1.8-0.7c-0.4-0.5-0.7-1.1-0.7-1.9c0-0.9,0.2-1.6,0.7-2.1
	c0.5-0.5,1.1-0.8,1.9-0.8c0.7,0,1.3,0.2,1.8,0.7c0.4,0.5,0.6,1.1,0.6,2C88.3,178.7,88.1,179.4,87.6,179.9z M86.9,176.6
	c-0.2-0.3-0.6-0.5-1-0.5c-0.5,0-0.8,0.2-1.1,0.5c-0.3,0.3-0.4,0.8-0.4,1.4c0,0.6,0.1,1,0.4,1.3c0.3,0.3,0.6,0.5,1,0.5
	c0.5,0,0.8-0.2,1.1-0.5c0.2-0.3,0.4-0.8,0.4-1.4C87.3,177.3,87.1,176.9,86.9,176.6z M78.6,180.6l6.8-10.7h1.1l-6.8,10.7H78.6z
	 M79.4,175.3c-0.7,0-1.3-0.2-1.8-0.7s-0.7-1.1-0.7-1.9c0-0.9,0.2-1.6,0.7-2.1c0.5-0.5,1.1-0.8,1.9-0.8c0.8,0,1.3,0.2,1.8,0.7
	c0.4,0.5,0.6,1.1,0.6,2c0,0.8-0.2,1.5-0.7,2C80.8,175,80.2,175.3,79.4,175.3z M80.6,171.1c-0.2-0.3-0.6-0.5-1-0.5
	c-0.5,0-0.8,0.2-1.1,0.5c-0.3,0.3-0.4,0.8-0.4,1.4c0,0.6,0.1,1,0.4,1.4s0.6,0.5,1,0.5c0.5,0,0.8-0.2,1.1-0.5
	c0.2-0.3,0.4-0.8,0.4-1.4C80.9,171.9,80.8,171.5,80.6,171.1z M74.1,175.8c0.4,0.5,0.7,1,0.7,1.7c0,1-0.3,1.7-1,2.3
	c-0.7,0.6-1.6,0.9-2.7,0.9c-1,0-1.8-0.2-2.4-0.6v-1.4c0.7,0.6,1.5,0.8,2.5,0.8c0.7,0,1.3-0.2,1.7-0.5c0.4-0.4,0.6-0.8,0.6-1.4
	c0-1.3-1-2-2.9-2h-0.9v-1.1h0.8c1.7,0,2.6-0.6,2.6-1.9c0-1.2-0.6-1.7-1.9-1.7c-0.7,0-1.4,0.3-2.1,0.8v-1.3c0.7-0.4,1.5-0.6,2.4-0.6
	c0.9,0,1.6,0.2,2.2,0.7c0.5,0.5,0.8,1.1,0.8,1.8c0,1.4-0.7,2.3-2.1,2.7v0C73.1,175.1,73.7,175.4,74.1,175.8z M65.4,180.7
	c-0.3,0-0.5-0.1-0.6-0.3c-0.2-0.2-0.3-0.4-0.3-0.6c0-0.2,0.1-0.5,0.3-0.6c0.2-0.2,0.4-0.3,0.6-0.3c0.3,0,0.5,0.1,0.6,0.3
	c0.2,0.2,0.3,0.4,0.3,0.6c0,0.2-0.1,0.4-0.3,0.6S65.7,180.7,65.4,180.7z M58.9,180.7c-1.1,0-1.9-0.4-2.5-1.3
	c-0.6-0.9-0.9-2.2-0.9-3.9c0-1.9,0.3-3.3,0.9-4.2c0.6-1,1.5-1.4,2.7-1.4c2.2,0,3.4,1.8,3.4,5.4c0,1.8-0.3,3.2-0.9,4.1
	C61,180.2,60.1,180.7,58.9,180.7z M59.1,170.9c-1.5,0-2.2,1.5-2.2,4.5c0,2.8,0.7,4.2,2.1,4.2c1.4,0,2.1-1.4,2.1-4.3
	C61.2,172.4,60.5,170.9,59.1,170.9z M52.4,181.1c0.2,0,0.4-0.2,0.5-0.6c0.1-0.7,0.2-1.3,0.3-2.1c0.4,0.2,0.7,0.3,1,0.4
	c-0.1,1-0.3,1.8-0.5,2.4c-0.2,0.7-0.6,1-1.1,1.1c-0.6,0-1.1-0.2-1.6-0.6c-0.6-0.4-1-1-1.4-1.8c-0.8,0.8-1.6,1.6-2.5,2.2
	c-0.2-0.3-0.5-0.5-0.8-0.8c1.1-0.7,2-1.5,2.8-2.5c-0.5-1.3-0.8-3.5-0.9-6.5h-5.2v2.1h3.9c-0.1,1.7-0.1,3.2-0.2,4.4
	c-0.1,1.3-0.7,1.9-1.8,1.9c-0.4,0-0.9,0-1.5-0.1c-0.1-0.3-0.1-0.7-0.2-1.1c0.6,0.1,1.2,0.1,1.6,0.1c0.5,0,0.8-0.4,0.9-1.1
	c0.1-0.8,0.1-1.9,0.2-3.1h-2.8c-0.1,3.2-0.7,5.5-1.9,7c-0.2-0.3-0.5-0.6-0.7-0.9c1-1.4,1.5-3.5,1.5-6.5v-3.7h6.2
	c0-0.7-0.1-1.5-0.1-2.3h1.1c0,0.6,0,1.4,0,2.3H54v1h-4.7c0.1,2.5,0.3,4.3,0.7,5.5c0.9-1.2,1.6-2.6,2.2-4.1l1.1,0.5
	c-0.8,1.9-1.7,3.5-2.8,4.8C51.1,180.4,51.8,181.1,52.4,181.1z M50.3,169.6l0.6-0.7c0.8,0.4,1.5,0.9,2.1,1.4l-0.7,0.8
	C51.7,170.6,51,170.1,50.3,169.6z M37.9,181.5h-6.1v0.7h-1v-10.6h3.5V169h1v2.7h3.5v10.6h-1L37.9,181.5L37.9,181.5z M34.3,172.6
	h-2.5v3.4h2.5V172.6z M34.3,176.9h-2.5v3.8h2.5V176.9z M37.9,172.6h-2.5v3.4h2.5V172.6z M37.9,176.9h-2.5v3.8h2.5V176.9z
	 M28.8,175.3c0.5-0.2,1-0.3,1.5-0.5c0,0.3,0,0.6,0,1.1c-0.5,0.2-1,0.3-1.5,0.5v4.3c0,1-0.4,1.5-1.3,1.5c-0.3,0-0.7,0-1.2,0
	c0-0.4-0.1-0.8-0.2-1.1c0.4,0.1,0.8,0.1,1.1,0.1c0.4,0,0.5-0.2,0.5-0.6v-3.8c-0.6,0.2-1.1,0.4-1.7,0.6l-0.2-1.1
	c0.6-0.2,1.2-0.4,1.8-0.5v-3.1h-1.7v-0.9h1.7V169h1v2.6h1.6v0.9h-1.6L28.8,175.3L28.8,175.3z M24.3,180c-0.1,1.4-0.7,2-1.9,2
	c-0.6,0-1.3,0-2.1,0c-0.1-0.3-0.1-0.7-0.2-1.1c0.7,0.1,1.4,0.1,2,0.1c0.7,0,1.1-0.4,1.1-1.2c0.1-1,0.1-2.2,0.2-3.6h-5.7l0.4-5h1
	l-0.4,4h3.2l0.5-4.5h-5v-1h6.2l-0.6,5.5h1.4C24.5,177.1,24.4,178.7,24.3,180z M22.8,179H17v-1h5.8V179z M13.8,174.4h2.6v7.4h-1v-0.9
	h-1.7v1.1h-1v-5.7c-0.2,0.4-0.5,0.8-0.8,1.1c-0.1-0.3-0.3-0.6-0.6-0.9c1.1-1.5,1.9-3.3,2.4-5.3h-2v-1h5.1v1h-2
	C14.6,172.3,14.2,173.4,13.8,174.4z M13.8,180h1.7v-4.6h-1.7V180z M8.2,180.4c0,1.2-0.6,1.7-1.7,1.8c-0.6,0-1.4,0-2.4,0
	c0-0.4-0.1-0.8-0.2-1.2c1,0.1,1.8,0.1,2.3,0.1c0.6,0,0.8-0.3,0.8-1v-8.9H2.6v-1h7.9v1H8.2L8.2,180.4L8.2,180.4z M0.4,175.5
	c0.8-0.3,1.5-0.5,2.2-0.8c0,0.5,0.1,0.8,0.1,1.1c-0.8,0.3-1.6,0.5-2.3,0.8v4c0,1-0.5,1.5-1.4,1.5c-0.4,0-0.9,0-1.6,0
	c0-0.4-0.1-0.8-0.2-1.1c0.5,0.1,0.9,0.1,1.5,0.1c0.4,0,0.6-0.2,0.6-0.7v-3.4c-0.7,0.3-1.4,0.5-2.1,0.8l-0.3-1.1
	c0.8-0.3,1.7-0.5,2.5-0.8v-3.2h-2.2v-1h2.2V169h1.1v2.6h2v1h-2L0.4,175.5L0.4,175.5z"/>
<path class="st2" d="M87.6,253.9c-0.5,0.5-1.1,0.8-1.8,0.8c-0.7,0-1.3-0.2-1.8-0.7c-0.4-0.5-0.7-1.1-0.7-1.9c0-0.9,0.2-1.6,0.7-2.1
	c0.5-0.5,1.1-0.8,1.9-0.8c0.7,0,1.3,0.2,1.8,0.7s0.6,1.1,0.6,2C88.3,252.7,88.1,253.3,87.6,253.9z M86.9,250.5
	c-0.2-0.3-0.6-0.5-1-0.5c-0.5,0-0.8,0.2-1.1,0.5c-0.3,0.3-0.4,0.8-0.4,1.4c0,0.6,0.1,1,0.4,1.3c0.3,0.3,0.6,0.5,1,0.5
	c0.5,0,0.8-0.2,1.1-0.5s0.4-0.8,0.4-1.4C87.3,251.3,87.1,250.8,86.9,250.5z M78.6,254.5l6.8-10.7h1.1l-6.8,10.7H78.6z M79.4,249.2
	c-0.7,0-1.3-0.2-1.8-0.7s-0.7-1.1-0.7-1.9c0-0.9,0.2-1.6,0.7-2.1c0.5-0.5,1.1-0.8,1.9-0.8c0.8,0,1.3,0.2,1.8,0.7s0.6,1.1,0.6,2
	c0,0.8-0.2,1.5-0.7,2S80.2,249.2,79.4,249.2z M80.6,245.1c-0.2-0.3-0.6-0.5-1-0.5c-0.5,0-0.8,0.2-1.1,0.5c-0.3,0.3-0.4,0.8-0.4,1.4
	c0,0.6,0.1,1,0.4,1.4s0.6,0.5,1,0.5c0.5,0,0.8-0.2,1.1-0.5c0.3-0.3,0.4-0.8,0.4-1.4C80.9,245.8,80.8,245.4,80.6,245.1z M74.1,249.7
	c0.4,0.5,0.7,1,0.7,1.7c0,1-0.3,1.7-1,2.3s-1.6,0.9-2.7,0.9c-1,0-1.8-0.2-2.4-0.6v-1.4c0.7,0.6,1.5,0.8,2.5,0.8
	c0.7,0,1.3-0.2,1.7-0.5c0.4-0.4,0.6-0.8,0.6-1.4c0-1.3-1-2-2.9-2h-0.9v-1.1h0.8c1.7,0,2.6-0.6,2.6-1.9c0-1.2-0.6-1.7-1.9-1.7
	c-0.7,0-1.4,0.3-2.1,0.8v-1.3c0.7-0.4,1.5-0.6,2.4-0.6c0.9,0,1.6,0.2,2.2,0.7s0.8,1.1,0.8,1.8c0,1.4-0.7,2.3-2.1,2.7v0
	C73.1,249,73.7,249.3,74.1,249.7z M65.4,254.6c-0.3,0-0.5-0.1-0.6-0.3c-0.2-0.2-0.3-0.4-0.3-0.6c0-0.2,0.1-0.5,0.3-0.6
	c0.2-0.2,0.4-0.3,0.6-0.3c0.3,0,0.5,0.1,0.6,0.3c0.2,0.2,0.3,0.4,0.3,0.6c0,0.2-0.1,0.4-0.3,0.6C65.9,254.5,65.7,254.6,65.4,254.6z
	 M58.9,254.6c-1.1,0-1.9-0.4-2.5-1.3s-0.9-2.2-0.9-3.9c0-1.9,0.3-3.3,0.9-4.2c0.6-1,1.5-1.4,2.7-1.4c2.2,0,3.4,1.8,3.4,5.4
	c0,1.8-0.3,3.2-0.9,4.1C61,254.2,60.1,254.6,58.9,254.6z M59.1,244.8c-1.5,0-2.2,1.5-2.2,4.5c0,2.8,0.7,4.2,2.1,4.2
	c1.4,0,2.1-1.4,2.1-4.3C61.2,246.3,60.5,244.8,59.1,244.8z M52.4,255c0.2,0,0.4-0.2,0.5-0.6c0.1-0.7,0.2-1.3,0.3-2.1
	c0.4,0.2,0.7,0.3,1,0.4c-0.1,1-0.3,1.8-0.5,2.4c-0.2,0.7-0.6,1-1.1,1.1c-0.6,0-1.1-0.1-1.6-0.6c-0.6-0.4-1-1-1.4-1.8
	c-0.8,0.8-1.6,1.6-2.5,2.2c-0.2-0.3-0.5-0.5-0.8-0.8c1.1-0.7,2-1.5,2.8-2.5c-0.5-1.3-0.8-3.5-0.9-6.5h-5.2v2.1h3.9
	c-0.1,1.7-0.1,3.2-0.2,4.4c-0.1,1.3-0.7,1.9-1.8,1.9c-0.4,0-0.9,0-1.5-0.1c-0.1-0.3-0.1-0.7-0.2-1.1c0.6,0.1,1.2,0.1,1.6,0.1
	c0.5,0,0.8-0.4,0.9-1.1c0.1-0.8,0.1-1.9,0.2-3.1h-2.8c-0.1,3.2-0.7,5.5-1.9,7c-0.2-0.3-0.5-0.6-0.7-0.9c1-1.4,1.5-3.5,1.5-6.5v-3.7
	h6.2c0-0.7-0.1-1.5-0.1-2.3h1.1c0,0.6,0,1.4,0,2.3H54v1h-4.7c0.1,2.5,0.3,4.3,0.7,5.5c0.9-1.2,1.6-2.6,2.2-4.1l1.1,0.5
	c-0.8,1.9-1.7,3.5-2.8,4.8C51.1,254.3,51.8,255,52.4,255z M50.3,243.6l0.6-0.7c0.8,0.4,1.5,0.9,2.1,1.4l-0.7,0.8
	C51.7,244.5,51,244,50.3,243.6z M37.9,255.5h-6.1v0.7h-1v-10.6h3.5v-2.7h1v2.7h3.5v10.6h-1L37.9,255.5L37.9,255.5z M34.3,246.5h-2.5
	v3.4h2.5V246.5z M34.3,250.8h-2.5v3.8h2.5V250.8z M37.9,246.5h-2.5v3.4h2.5V246.5z M37.9,250.8h-2.5v3.8h2.5V250.8z M28.8,249.3
	c0.5-0.2,1-0.3,1.5-0.5c0,0.3,0,0.6,0,1.1c-0.5,0.2-1,0.3-1.5,0.5v4.3c0,1-0.4,1.5-1.3,1.5c-0.3,0-0.7,0-1.2,0
	c0-0.4-0.1-0.8-0.2-1.1c0.4,0.1,0.8,0.1,1.1,0.1c0.4,0,0.5-0.2,0.5-0.6v-3.8c-0.6,0.2-1.1,0.4-1.7,0.6l-0.1-1.1
	c0.6-0.2,1.2-0.4,1.8-0.5v-3.1h-1.7v-0.9h1.7v-2.6h1v2.6h1.6v0.9h-1.6L28.8,249.3L28.8,249.3z M24.3,253.9c-0.1,1.4-0.7,2-1.9,2
	c-0.6,0-1.3,0-2.1,0c-0.1-0.3-0.1-0.7-0.2-1.1c0.7,0.1,1.4,0.1,2,0.1c0.7,0,1.1-0.4,1.1-1.2c0.1-1,0.1-2.2,0.2-3.6h-5.7l0.4-5h1
	l-0.4,4h3.2l0.5-4.5h-5v-1h6.2l-0.6,5.5h1.4C24.5,251,24.4,252.6,24.3,253.9z M22.8,253H17v-1h5.8V253z M13.8,248.3h2.6v7.4h-1v-0.9
	h-1.7v1.1h-1v-5.7c-0.2,0.4-0.5,0.8-0.8,1.1c-0.1-0.3-0.3-0.6-0.6-0.9c1.1-1.5,1.9-3.3,2.4-5.3h-2v-1h5.1v1h-2
	C14.6,246.3,14.2,247.3,13.8,248.3z M13.8,253.9h1.7v-4.6h-1.7V253.9z M8.2,254.3c0,1.2-0.6,1.7-1.7,1.7c-0.6,0-1.4,0-2.4,0
	c0-0.4-0.1-0.8-0.2-1.2c1,0.1,1.8,0.1,2.3,0.1c0.6,0,0.8-0.3,0.8-1V245H2.6v-1h7.9v1H8.2L8.2,254.3L8.2,254.3z M0.4,249.5
	c0.8-0.3,1.5-0.5,2.2-0.8c0,0.5,0.1,0.8,0.1,1.1c-0.8,0.3-1.6,0.5-2.3,0.8v4c0,1-0.5,1.5-1.4,1.5c-0.4,0-0.9,0-1.6,0
	c0-0.4-0.1-0.8-0.2-1.1c0.5,0.1,0.9,0.1,1.5,0.1c0.4,0,0.6-0.2,0.6-0.7V251c-0.7,0.3-1.4,0.5-2.1,0.8l-0.3-1.1
	c0.8-0.3,1.7-0.5,2.5-0.8v-3.2h-2.2v-1h2.2V243h1.1v2.6h2v1h-2L0.4,249.5L0.4,249.5z"/>
<path class="st2" d="M84.2,330.3c-0.5,0.5-1.1,0.8-1.8,0.8c-0.7,0-1.3-0.2-1.8-0.7c-0.4-0.5-0.7-1.1-0.7-1.9c0-0.9,0.2-1.6,0.7-2.1
	c0.5-0.5,1.1-0.8,1.9-0.8c0.7,0,1.3,0.2,1.8,0.7c0.4,0.5,0.6,1.1,0.6,2C84.9,329.1,84.7,329.8,84.2,330.3z M83.5,326.9
	c-0.2-0.3-0.6-0.5-1-0.5c-0.5,0-0.8,0.2-1.1,0.5c-0.3,0.3-0.4,0.8-0.4,1.4c0,0.6,0.1,1,0.4,1.3c0.3,0.3,0.6,0.5,1,0.5
	c0.5,0,0.8-0.2,1.1-0.5c0.2-0.3,0.4-0.8,0.4-1.4C83.9,327.7,83.8,327.2,83.5,326.9z M75.3,331l6.8-10.7h1.1L76.4,331H75.3z
	 M76,325.6c-0.7,0-1.3-0.2-1.8-0.7s-0.7-1.1-0.7-1.9c0-0.9,0.2-1.6,0.7-2.1c0.5-0.5,1.1-0.8,1.9-0.8c0.8,0,1.3,0.2,1.8,0.7
	s0.6,1.1,0.6,2c0,0.8-0.2,1.5-0.7,2S76.8,325.6,76,325.6z M77.2,321.5c-0.2-0.3-0.6-0.5-1-0.5c-0.5,0-0.8,0.2-1.1,0.5
	c-0.3,0.3-0.4,0.8-0.4,1.4c0,0.6,0.1,1,0.4,1.4s0.6,0.5,1,0.5c0.5,0,0.8-0.2,1.1-0.5c0.3-0.3,0.4-0.8,0.4-1.4
	C77.5,322.3,77.4,321.8,77.2,321.5z M70.8,326.2c0.4,0.5,0.7,1,0.7,1.7c0,1-0.3,1.7-1,2.3s-1.6,0.9-2.7,0.9c-1,0-1.8-0.2-2.4-0.6
	v-1.4c0.7,0.6,1.5,0.8,2.5,0.8c0.7,0,1.3-0.2,1.7-0.5c0.4-0.4,0.6-0.8,0.6-1.4c0-1.3-1-2-2.9-2h-0.9v-1.1h0.8c1.7,0,2.6-0.6,2.6-1.9
	c0-1.2-0.6-1.7-1.9-1.7c-0.7,0-1.4,0.3-2.1,0.8v-1.3c0.7-0.4,1.5-0.6,2.4-0.6c0.9,0,1.6,0.2,2.2,0.7c0.5,0.5,0.8,1.1,0.8,1.8
	c0,1.4-0.7,2.3-2.1,2.7v0C69.7,325.5,70.3,325.7,70.8,326.2z M62,331.1c-0.3,0-0.5-0.1-0.6-0.3c-0.2-0.2-0.3-0.4-0.3-0.6
	c0-0.2,0.1-0.5,0.3-0.6c0.2-0.2,0.4-0.3,0.6-0.3c0.3,0,0.5,0.1,0.6,0.3c0.2,0.2,0.3,0.4,0.3,0.6c0,0.2-0.1,0.4-0.3,0.6
	C62.5,331,62.3,331.1,62,331.1z M55.6,331.1c-1.1,0-1.9-0.4-2.5-1.3s-0.9-2.2-0.9-3.9c0-1.9,0.3-3.3,0.9-4.2c0.6-1,1.5-1.4,2.7-1.4
	c2.2,0,3.4,1.8,3.4,5.4c0,1.8-0.3,3.2-0.9,4.1C57.6,330.6,56.7,331.1,55.6,331.1z M55.7,321.2c-1.5,0-2.2,1.5-2.2,4.5
	c0,2.8,0.7,4.2,2.1,4.2c1.4,0,2.1-1.4,2.1-4.3C57.8,322.7,57.1,321.2,55.7,321.2z M49.1,331.4c0.2,0,0.4-0.2,0.5-0.6
	c0.1-0.7,0.2-1.3,0.3-2.1c0.4,0.2,0.7,0.3,1,0.4c-0.1,1-0.3,1.8-0.5,2.4c-0.2,0.7-0.6,1-1.1,1.1c-0.6,0-1.1-0.1-1.6-0.6
	c-0.6-0.4-1-1-1.4-1.8c-0.8,0.8-1.6,1.6-2.5,2.2c-0.2-0.3-0.5-0.5-0.8-0.8c1.1-0.7,2-1.5,2.8-2.5c-0.5-1.3-0.8-3.5-0.9-6.5h-5.2v2.1
	h3.9c-0.1,1.7-0.1,3.2-0.2,4.4c-0.1,1.3-0.7,1.9-1.8,1.9c-0.4,0-0.9,0-1.5-0.1c-0.1-0.3-0.1-0.7-0.2-1.1c0.6,0.1,1.2,0.1,1.6,0.1
	c0.5,0,0.8-0.4,0.9-1.1c0.1-0.8,0.1-1.9,0.2-3.1h-2.8c-0.1,3.2-0.7,5.5-1.9,7c-0.2-0.3-0.5-0.6-0.7-0.9c1-1.4,1.5-3.5,1.5-6.5v-3.7
	h6.2c0-0.7-0.1-1.5-0.1-2.3h1.1c0,0.6,0,1.4,0,2.3h4.7v1H46c0.1,2.5,0.3,4.3,0.7,5.5c0.9-1.2,1.6-2.6,2.2-4.1l1.1,0.5
	c-0.8,1.9-1.7,3.5-2.8,4.8C47.8,330.8,48.4,331.4,49.1,331.4z M46.9,320l0.6-0.7c0.8,0.4,1.5,0.9,2.1,1.4l-0.7,0.8
	C48.4,321,47.7,320.5,46.9,320z M34.5,331.9h-6.1v0.7h-1V322H31v-2.7h1v2.7h3.5v10.6h-1L34.5,331.9L34.5,331.9z M31,322.9h-2.5v3.4
	H31V322.9z M31,327.2h-2.5v3.8H31V327.2z M34.5,322.9h-2.5v3.4h2.5V322.9z M34.5,327.2h-2.5v3.8h2.5V327.2z M25.5,325.7
	c0.5-0.2,1-0.3,1.5-0.5c0,0.3,0,0.6,0,1.1c-0.5,0.2-1,0.3-1.5,0.5v4.3c0,1-0.4,1.5-1.3,1.5c-0.3,0-0.7,0-1.2,0
	c0-0.4-0.1-0.8-0.2-1.1c0.4,0.1,0.8,0.1,1.1,0.1c0.4,0,0.5-0.2,0.5-0.6v-3.8c-0.6,0.2-1.1,0.4-1.7,0.6l-0.1-1.1
	c0.6-0.2,1.2-0.4,1.8-0.5V323h-1.7V322h1.7v-2.6h1v2.6h1.6v0.9h-1.6L25.5,325.7L25.5,325.7z M20.9,330.4c-0.1,1.4-0.7,2-1.9,2
	c-0.6,0-1.3,0-2.1,0c-0.1-0.3-0.1-0.7-0.2-1.1c0.7,0.1,1.4,0.1,2,0.1c0.7,0,1.1-0.4,1.1-1.2c0.1-1,0.1-2.2,0.2-3.6h-5.7l0.4-5h1
	l-0.4,4h3.2l0.5-4.5h-5v-1h6.2l-0.6,5.5h1.4C21.1,327.4,21,329,20.9,330.4z M19.4,329.4h-5.8v-1h5.8V329.4z M10.4,324.8h2.6v7.4h-1
	v-0.9h-1.7v1.1h-1v-5.7c-0.2,0.4-0.5,0.8-0.8,1.1c-0.1-0.3-0.3-0.6-0.6-0.9c1.1-1.5,1.9-3.3,2.4-5.3h-2v-1h5.1v1h-2
	C11.2,322.7,10.9,323.8,10.4,324.8z M10.4,330.3h1.7v-4.6h-1.7V330.3z M4.8,330.7c0,1.2-0.6,1.7-1.7,1.8c-0.6,0-1.4,0-2.4,0
	c0-0.4-0.1-0.8-0.2-1.2c1,0.1,1.8,0.1,2.3,0.1c0.6,0,0.8-0.3,0.8-1v-8.9h-4.4v-1h7.9v1H4.8L4.8,330.7L4.8,330.7z M-2.9,325.9
	c0.8-0.3,1.5-0.5,2.2-0.8c0,0.5,0.1,0.8,0.1,1.1c-0.8,0.3-1.6,0.5-2.3,0.8v4c0,1-0.5,1.5-1.4,1.5c-0.4,0-0.9,0-1.6,0
	c0-0.4-0.1-0.8-0.2-1.1c0.5,0.1,0.9,0.1,1.5,0.1c0.4,0,0.6-0.2,0.6-0.7v-3.4c-0.7,0.3-1.4,0.5-2.1,0.8l-0.3-1.1
	c0.8-0.3,1.7-0.5,2.5-0.8v-3.2h-2.2v-1H-4v-2.6h1.1v2.6h2v1h-2L-2.9,325.9L-2.9,325.9z"/>
<path class="st2" d="M85.2,409.8c-0.5,0.5-1.1,0.8-1.8,0.8c-0.7,0-1.3-0.2-1.8-0.7c-0.4-0.5-0.7-1.1-0.7-1.9c0-0.9,0.2-1.6,0.7-2.1
	c0.5-0.5,1.1-0.8,1.9-0.8c0.7,0,1.3,0.2,1.8,0.7s0.6,1.1,0.6,2C85.9,408.6,85.7,409.3,85.2,409.8z M84.5,406.4
	c-0.2-0.3-0.6-0.5-1-0.5c-0.5,0-0.8,0.2-1.1,0.5c-0.3,0.3-0.4,0.8-0.4,1.4c0,0.6,0.1,1,0.4,1.3c0.3,0.3,0.6,0.5,1,0.5
	c0.5,0,0.8-0.2,1.1-0.5s0.4-0.8,0.4-1.4C84.9,407.2,84.8,406.7,84.5,406.4z M76.3,410.5l6.8-10.7h1.1l-6.8,10.7H76.3z M77,405.1
	c-0.7,0-1.3-0.2-1.8-0.7s-0.7-1.1-0.7-1.9c0-0.9,0.2-1.6,0.7-2.1c0.5-0.5,1.1-0.8,1.9-0.8c0.8,0,1.3,0.2,1.8,0.7s0.6,1.1,0.6,2
	c0,0.8-0.2,1.5-0.7,2S77.8,405.1,77,405.1z M78.2,401c-0.2-0.3-0.6-0.5-1-0.5c-0.5,0-0.8,0.2-1.1,0.5c-0.3,0.3-0.4,0.8-0.4,1.4
	c0,0.6,0.1,1,0.4,1.4s0.6,0.5,1,0.5c0.5,0,0.8-0.2,1.1-0.5c0.3-0.3,0.4-0.8,0.4-1.4C78.5,401.8,78.4,401.3,78.2,401z M71.8,405.7
	c0.4,0.5,0.7,1,0.7,1.7c0,1-0.3,1.7-1,2.3s-1.6,0.9-2.7,0.9c-1,0-1.8-0.2-2.4-0.6v-1.4c0.7,0.6,1.5,0.8,2.5,0.8
	c0.7,0,1.3-0.2,1.7-0.5c0.4-0.4,0.6-0.8,0.6-1.4c0-1.3-1-2-2.9-2h-0.9v-1.1h0.8c1.7,0,2.6-0.6,2.6-1.9c0-1.2-0.6-1.7-1.9-1.7
	c-0.7,0-1.4,0.3-2.1,0.8v-1.3c0.7-0.4,1.5-0.6,2.4-0.6c0.9,0,1.6,0.2,2.2,0.7s0.8,1.1,0.8,1.8c0,1.4-0.7,2.3-2.1,2.7v0
	C70.7,405,71.3,405.2,71.8,405.7z M63,410.6c-0.3,0-0.5-0.1-0.6-0.3c-0.2-0.2-0.3-0.4-0.3-0.6c0-0.2,0.1-0.5,0.3-0.6
	c0.2-0.2,0.4-0.3,0.6-0.3c0.3,0,0.5,0.1,0.6,0.3c0.2,0.2,0.3,0.4,0.3,0.6c0,0.2-0.1,0.4-0.3,0.6C63.5,410.5,63.3,410.6,63,410.6z
	 M56.6,410.6c-1.1,0-1.9-0.4-2.5-1.3s-0.9-2.2-0.9-3.9c0-1.9,0.3-3.3,0.9-4.2c0.6-1,1.5-1.4,2.7-1.4c2.2,0,3.4,1.8,3.4,5.4
	c0,1.8-0.3,3.2-0.9,4.1C58.6,410.1,57.7,410.6,56.6,410.6z M56.7,400.7c-1.5,0-2.2,1.5-2.2,4.5c0,2.8,0.7,4.2,2.1,4.2
	c1.4,0,2.1-1.4,2.1-4.3C58.8,402.2,58.1,400.7,56.7,400.7z M50.1,410.9c0.2,0,0.4-0.2,0.5-0.6c0.1-0.7,0.2-1.3,0.3-2.1
	c0.4,0.2,0.7,0.3,1,0.4c-0.1,1-0.3,1.8-0.5,2.4c-0.2,0.7-0.6,1-1.1,1.1c-0.6,0-1.1-0.1-1.6-0.6c-0.6-0.4-1-1-1.4-1.8
	c-0.8,0.8-1.6,1.6-2.5,2.2c-0.2-0.3-0.5-0.5-0.8-0.8c1.1-0.7,2-1.5,2.8-2.5c-0.5-1.3-0.8-3.5-0.9-6.5h-5.2v2.1h3.9
	c-0.1,1.7-0.1,3.2-0.2,4.4c-0.1,1.3-0.7,1.9-1.8,1.9c-0.4,0-0.9,0-1.5-0.1c-0.1-0.3-0.1-0.7-0.2-1.1c0.6,0.1,1.2,0.1,1.6,0.1
	c0.5,0,0.8-0.4,0.9-1.1c0.1-0.8,0.1-1.9,0.2-3.1h-2.8c-0.1,3.2-0.7,5.5-1.9,7c-0.2-0.3-0.5-0.6-0.7-0.9c1-1.4,1.5-3.5,1.5-6.5v-3.7
	h6.2c0-0.7-0.1-1.5-0.1-2.3h1.1c0,0.6,0,1.4,0,2.3h4.7v1H47c0.1,2.5,0.3,4.3,0.7,5.5c0.9-1.2,1.6-2.6,2.2-4.1l1.1,0.5
	c-0.8,1.9-1.7,3.5-2.8,4.8C48.8,410.2,49.4,410.9,50.1,410.9z M47.9,399.5l0.6-0.7c0.8,0.4,1.5,0.9,2.1,1.4L50,401
	C49.4,400.4,48.7,400,47.9,399.5z M35.5,411.4h-6.1v0.7h-1v-10.6H32v-2.7h1v2.7h3.5v10.6h-1L35.5,411.4L35.5,411.4z M32,402.4h-2.5
	v3.4H32V402.4z M32,406.7h-2.5v3.8H32V406.7z M35.5,402.4h-2.5v3.4h2.5V402.4z M35.5,406.7h-2.5v3.8h2.5V406.7z M26.5,405.2
	c0.5-0.2,1-0.3,1.5-0.5c0,0.3,0,0.6,0,1.1c-0.5,0.2-1,0.3-1.5,0.5v4.3c0,1-0.4,1.5-1.3,1.5c-0.3,0-0.7,0-1.2,0
	c0-0.4-0.1-0.8-0.2-1.1c0.4,0.1,0.8,0.1,1.1,0.1c0.4,0,0.5-0.2,0.5-0.6v-3.8c-0.6,0.2-1.1,0.4-1.7,0.6l-0.1-1.1
	c0.6-0.2,1.2-0.4,1.8-0.5v-3.1h-1.7v-0.9h1.7v-2.6h1v2.6h1.6v0.9h-1.6L26.5,405.2L26.5,405.2z M21.9,409.9c-0.1,1.4-0.7,2-1.9,2
	c-0.6,0-1.3,0-2.1,0c-0.1-0.3-0.1-0.7-0.2-1.1c0.7,0.1,1.4,0.1,2,0.1c0.7,0,1.1-0.4,1.1-1.2c0.1-1,0.1-2.2,0.2-3.6h-5.7l0.4-5h1
	l-0.4,4h3.2l0.5-4.5h-5v-1h6.2l-0.6,5.5h1.4C22.1,406.9,22,408.5,21.9,409.9z M20.4,408.9h-5.8v-1h5.8V408.9z M11.4,404.3h2.6v7.4
	h-1v-0.9h-1.7v1.1h-1v-5.7c-0.2,0.4-0.5,0.8-0.8,1.1c-0.1-0.3-0.3-0.6-0.6-0.9c1.1-1.5,1.9-3.3,2.4-5.3h-2v-1h5.1v1h-2
	C12.2,402.2,11.9,403.3,11.4,404.3z M11.4,409.8h1.7v-4.6h-1.7V409.8z M5.8,410.2c0,1.2-0.6,1.7-1.7,1.8c-0.6,0-1.4,0-2.4,0
	c0-0.4-0.1-0.8-0.2-1.2c1,0.1,1.8,0.1,2.3,0.1c0.6,0,0.8-0.3,0.8-1V401H0.3v-1h7.9v1H5.8L5.8,410.2L5.8,410.2z M-1.9,405.4
	c0.8-0.3,1.5-0.5,2.2-0.8c0,0.5,0.1,0.8,0.1,1.1c-0.8,0.3-1.6,0.5-2.3,0.8v4c0,1-0.5,1.5-1.4,1.5c-0.4,0-0.9,0-1.6,0
	c0-0.4-0.1-0.8-0.2-1.1c0.5,0.1,0.9,0.1,1.5,0.1c0.4,0,0.6-0.2,0.6-0.7v-3.4c-0.7,0.3-1.4,0.5-2.1,0.8l-0.3-1.1
	c0.8-0.3,1.7-0.5,2.5-0.8v-3.2h-2.2v-1H-3v-2.6h1.1v2.6h2v1h-2L-1.9,405.4L-1.9,405.4z"/>
<path class="st3" d="M325.7,229.1c-0.5,0.5-1.1,0.8-1.8,0.8c-0.7,0-1.3-0.2-1.8-0.7c-0.4-0.5-0.7-1.1-0.7-1.9c0-0.9,0.2-1.6,0.7-2.1
	c0.5-0.5,1.1-0.8,1.9-0.8c0.7,0,1.3,0.2,1.8,0.7c0.4,0.5,0.6,1.1,0.6,2C326.4,227.9,326.2,228.6,325.7,229.1z M325,225.7
	c-0.2-0.3-0.6-0.5-1-0.5c-0.5,0-0.8,0.2-1.1,0.5c-0.3,0.3-0.4,0.8-0.4,1.4c0,0.6,0.1,1,0.4,1.3c0.3,0.3,0.6,0.5,1,0.5
	c0.5,0,0.8-0.2,1.1-0.5s0.4-0.8,0.4-1.4C325.4,226.5,325.3,226,325,225.7z M316.8,229.8l6.8-10.7h1.1l-6.8,10.7H316.8z M317.6,224.4
	c-0.7,0-1.3-0.2-1.8-0.7s-0.7-1.1-0.7-1.9c0-0.9,0.2-1.6,0.7-2.1s1.1-0.8,1.9-0.8c0.8,0,1.3,0.2,1.8,0.7s0.6,1.1,0.6,2
	c0,0.8-0.2,1.5-0.7,2S318.3,224.4,317.6,224.4z M318.7,220.3c-0.2-0.3-0.6-0.5-1-0.5c-0.5,0-0.8,0.2-1.1,0.5
	c-0.3,0.3-0.4,0.8-0.4,1.4c0,0.6,0.1,1,0.4,1.4c0.3,0.3,0.6,0.5,1,0.5c0.5,0,0.8-0.2,1.1-0.5c0.2-0.3,0.4-0.8,0.4-1.4
	C319.1,221.1,318.9,220.6,318.7,220.3z M309.5,223.2c1.1,0,2,0.3,2.6,0.8s0.9,1.3,0.9,2.3c0,1-0.3,1.9-1,2.5s-1.6,0.9-2.8,0.9
	c-1,0-1.7-0.1-2.2-0.4v-1.4c0.7,0.5,1.5,0.7,2.2,0.7c0.7,0,1.3-0.2,1.8-0.6c0.4-0.4,0.7-0.9,0.7-1.6c0-0.7-0.2-1.2-0.7-1.6
	c-0.5-0.4-1.1-0.6-2-0.6c-0.4,0-1,0-1.7,0.1v-5.4h5.2v1.2h-4v3C309,223.2,309.3,223.2,309.5,223.2z M298.3,228.5h2.4v-8l-2.4,0.7
	V220l3.8-1.1v9.7h2.4v1.2h-6.1V228.5z M294.8,229.8c-0.3,0-0.5-0.1-0.6-0.3c-0.2-0.2-0.3-0.4-0.3-0.6c0-0.2,0.1-0.5,0.3-0.6
	s0.4-0.3,0.6-0.3c0.3,0,0.5,0.1,0.6,0.3c0.2,0.2,0.3,0.4,0.3,0.6c0,0.2-0.1,0.4-0.3,0.6C295.3,229.8,295,229.8,294.8,229.8z
	 M288.3,229.9c-1.1,0-1.9-0.4-2.5-1.3c-0.6-0.9-0.9-2.2-0.9-3.9c0-1.9,0.3-3.3,0.9-4.2c0.6-1,1.5-1.4,2.7-1.4c2.2,0,3.4,1.8,3.4,5.4
	c0,1.8-0.3,3.2-0.9,4.1C290.4,229.4,289.5,229.9,288.3,229.9z M288.5,220c-1.5,0-2.2,1.5-2.2,4.5c0,2.8,0.7,4.2,2.1,4.2
	c1.4,0,2.1-1.4,2.1-4.3C290.6,221.5,289.9,220,288.5,220z M281.8,230.2c0.2,0,0.4-0.2,0.5-0.6c0.1-0.7,0.2-1.3,0.3-2.1
	c0.4,0.2,0.7,0.3,1,0.4c-0.1,1-0.3,1.8-0.5,2.4c-0.2,0.7-0.6,1-1.1,1.1c-0.6,0-1.1-0.1-1.6-0.6c-0.6-0.4-1-1-1.4-1.8
	c-0.8,0.8-1.6,1.6-2.5,2.2c-0.2-0.3-0.5-0.5-0.8-0.8c1.1-0.7,2-1.5,2.8-2.5c-0.5-1.3-0.8-3.5-0.9-6.5h-5.2v2.1h3.9
	c-0.1,1.7-0.1,3.2-0.2,4.4c-0.1,1.3-0.7,1.9-1.8,1.9c-0.4,0-0.9,0-1.5-0.1c-0.1-0.3-0.1-0.7-0.2-1.1c0.6,0.1,1.2,0.1,1.6,0.1
	c0.5,0,0.8-0.4,0.9-1.1c0.1-0.8,0.1-1.9,0.2-3.1h-2.8c-0.1,3.2-0.7,5.5-1.9,7c-0.2-0.3-0.5-0.6-0.7-0.9c1-1.4,1.5-3.5,1.5-6.5v-3.7
	h6.2c0-0.7-0.1-1.5-0.1-2.3h1.1c0,0.6,0,1.4,0,2.3h4.7v1h-4.7c0.1,2.5,0.3,4.3,0.7,5.5c0.9-1.2,1.6-2.6,2.2-4.1l1.1,0.5
	c-0.8,1.9-1.7,3.5-2.8,4.8C280.5,229.5,281.2,230.2,281.8,230.2z M279.7,218.8l0.6-0.7c0.8,0.4,1.5,0.9,2.1,1.4l-0.7,0.8
	C281.1,219.7,280.4,219.2,279.7,218.8z M267.2,230.7h-6.1v0.7h-1v-10.6h3.5v-2.7h1v2.7h3.5v10.6h-1V230.7z M263.7,221.7h-2.5v3.4
	h2.5V221.7z M263.7,226h-2.5v3.8h2.5V226z M267.2,221.7h-2.5v3.4h2.5V221.7z M267.2,226h-2.5v3.8h2.5V226z M258.2,224.5
	c0.5-0.2,1-0.3,1.5-0.5c0,0.3,0,0.6,0,1.1c-0.5,0.2-1,0.3-1.5,0.5v4.3c0,1-0.4,1.5-1.3,1.5c-0.3,0-0.7,0-1.2,0
	c0-0.4-0.1-0.8-0.2-1.1c0.4,0.1,0.8,0.1,1.1,0.1c0.4,0,0.5-0.2,0.5-0.6v-3.8c-0.6,0.2-1.1,0.4-1.7,0.6l-0.1-1.1
	c0.6-0.2,1.2-0.4,1.8-0.5v-3.1h-1.7v-0.9h1.7v-2.6h1v2.6h1.6v0.9h-1.6L258.2,224.5L258.2,224.5z M253.7,229.2c-0.1,1.4-0.7,2-1.9,2
	c-0.6,0-1.3,0-2.1,0c-0.1-0.3-0.1-0.7-0.2-1.1c0.7,0.1,1.4,0.1,2,0.1c0.7,0,1.1-0.4,1.1-1.2c0.1-1,0.1-2.2,0.2-3.6h-5.7l0.4-5h1
	l-0.4,4h3.2l0.5-4.5h-5v-1h6.2l-0.6,5.5h1.4C253.8,226.2,253.8,227.8,253.7,229.2z M252.1,228.2h-5.8v-1h5.8V228.2z M243.2,223.5
	h2.6v7.4h-1V230h-1.7v1.1h-1v-5.7c-0.2,0.4-0.5,0.8-0.8,1.1c-0.1-0.3-0.3-0.6-0.6-0.9c1.1-1.5,1.9-3.3,2.4-5.3h-2v-1h5.1v1h-2
	C244,221.5,243.6,222.6,243.2,223.5z M243.1,229.1h1.7v-4.6h-1.7V229.1z M237.5,229.5c0,1.2-0.6,1.7-1.7,1.8c-0.6,0-1.4,0-2.4,0
	c0-0.4-0.1-0.8-0.2-1.2c1,0.1,1.8,0.1,2.3,0.1c0.6,0,0.8-0.3,0.8-1v-8.9H232v-1h7.9v1h-2.4L237.5,229.5L237.5,229.5z M229.8,224.7
	c0.8-0.3,1.5-0.5,2.2-0.8c0,0.5,0.1,0.8,0.1,1.1c-0.8,0.3-1.6,0.6-2.3,0.8v4c0,1-0.5,1.5-1.4,1.5c-0.4,0-0.9,0-1.6,0
	c0-0.4-0.1-0.8-0.2-1.1c0.5,0.1,0.9,0.1,1.5,0.1c0.4,0,0.6-0.2,0.6-0.7v-3.4c-0.7,0.3-1.4,0.5-2.1,0.8l-0.3-1.1
	c0.8-0.3,1.7-0.5,2.5-0.8v-3.2h-2.2v-1h2.2v-2.6h1.1v2.6h2v1h-2L229.8,224.7L229.8,224.7z"/>
<path class="st4" d="M391.6,304.7c-0.5,0.5-1.1,0.8-1.8,0.8c-0.7,0-1.3-0.2-1.8-0.7c-0.4-0.5-0.7-1.1-0.7-1.9c0-0.9,0.2-1.6,0.7-2.1
	c0.5-0.5,1.1-0.8,1.9-0.8c0.7,0,1.3,0.2,1.8,0.7s0.6,1.1,0.6,2C392.3,303.5,392,304.2,391.6,304.7z M390.8,301.3
	c-0.2-0.3-0.6-0.5-1-0.5c-0.5,0-0.8,0.2-1.1,0.5c-0.3,0.3-0.4,0.8-0.4,1.4c0,0.6,0.1,1,0.4,1.3c0.3,0.3,0.6,0.5,1,0.5
	c0.5,0,0.8-0.2,1.1-0.5s0.4-0.8,0.4-1.4C391.2,302.1,391.1,301.6,390.8,301.3z M382.6,305.3l6.8-10.7h1.1l-6.8,10.7H382.6z
	 M383.4,300c-0.7,0-1.3-0.2-1.8-0.7s-0.7-1.1-0.7-1.9c0-0.9,0.2-1.6,0.7-2.1s1.1-0.8,1.9-0.8c0.8,0,1.3,0.2,1.8,0.7s0.6,1.1,0.6,2
	c0,0.8-0.2,1.5-0.7,2S384.1,300,383.4,300z M384.5,295.9c-0.2-0.3-0.6-0.5-1-0.5c-0.5,0-0.8,0.2-1.1,0.5c-0.3,0.3-0.4,0.8-0.4,1.4
	c0,0.6,0.1,1,0.4,1.4c0.3,0.3,0.6,0.5,1,0.5c0.5,0,0.8-0.2,1.1-0.5c0.2-0.3,0.4-0.8,0.4-1.4C384.9,296.7,384.8,296.2,384.5,295.9z
	 M375.3,298.8c1.1,0,2,0.3,2.6,0.8s0.9,1.3,0.9,2.3c0,1-0.3,1.9-1,2.5c-0.7,0.6-1.6,1-2.8,1c-1,0-1.7-0.1-2.2-0.4v-1.4
	c0.7,0.5,1.5,0.7,2.2,0.7c0.7,0,1.3-0.2,1.8-0.6c0.4-0.4,0.7-0.9,0.7-1.6c0-0.7-0.2-1.2-0.7-1.6c-0.5-0.4-1.1-0.6-2-0.6
	c-0.4,0-1,0-1.7,0.1v-5.4h5.2v1.2h-4v3C374.8,298.8,375.1,298.8,375.3,298.8z M366.8,305.5c-1.1,0-1.9-0.4-2.5-1.3s-0.9-2.2-0.9-3.9
	c0-1.9,0.3-3.3,0.9-4.2c0.6-1,1.5-1.4,2.7-1.4c2.2,0,3.4,1.8,3.4,5.4c0,1.8-0.3,3.2-0.9,4.1C368.9,305,368,305.5,366.8,305.5z
	 M367,295.6c-1.5,0-2.2,1.5-2.2,4.5c0,2.8,0.7,4.2,2.1,4.2c1.4,0,2.1-1.4,2.1-4.3C369.1,297.1,368.4,295.6,367,295.6z M360.6,305.4
	c-0.3,0-0.5-0.1-0.6-0.3c-0.2-0.2-0.3-0.4-0.3-0.6c0-0.2,0.1-0.5,0.3-0.6c0.2-0.2,0.4-0.3,0.6-0.3c0.3,0,0.5,0.1,0.6,0.3
	s0.3,0.4,0.3,0.6c0,0.2-0.1,0.4-0.3,0.6C361.1,305.4,360.9,305.4,360.6,305.4z M354.1,305.5c-1.1,0-1.9-0.4-2.5-1.3
	c-0.6-0.9-0.9-2.2-0.9-3.9c0-1.9,0.3-3.3,0.9-4.2c0.6-1,1.5-1.4,2.7-1.4c2.2,0,3.4,1.8,3.4,5.4c0,1.8-0.3,3.2-0.9,4.1
	C356.2,305,355.3,305.5,354.1,305.5z M354.3,295.6c-1.5,0-2.2,1.5-2.2,4.5c0,2.8,0.7,4.2,2.1,4.2c1.4,0,2.1-1.4,2.1-4.3
	C356.4,297.1,355.7,295.6,354.3,295.6z M347.6,305.8c0.2,0,0.4-0.2,0.5-0.6c0.1-0.7,0.2-1.3,0.3-2.1c0.4,0.2,0.7,0.3,1,0.4
	c-0.1,1-0.3,1.8-0.5,2.4c-0.2,0.7-0.6,1-1.1,1.1c-0.6,0-1.1-0.1-1.6-0.6c-0.6-0.4-1-1-1.4-1.8c-0.8,0.8-1.6,1.6-2.5,2.2
	c-0.2-0.3-0.5-0.5-0.8-0.8c1.1-0.7,2-1.5,2.8-2.5c-0.5-1.3-0.8-3.5-0.9-6.5h-5.2v2.1h3.9c-0.1,1.7-0.1,3.2-0.2,4.4
	c-0.1,1.3-0.7,1.9-1.8,1.9c-0.4,0-0.9,0-1.5-0.1c-0.1-0.3-0.1-0.7-0.2-1.1c0.6,0.1,1.2,0.1,1.6,0.1c0.5,0,0.8-0.4,0.9-1.1
	c0.1-0.8,0.1-1.9,0.2-3.1h-2.8c-0.1,3.2-0.7,5.5-1.9,7c-0.2-0.3-0.5-0.6-0.7-0.9c1-1.4,1.5-3.5,1.5-6.5V296h6.2
	c0-0.7-0.1-1.5-0.1-2.3h1.1c0,0.6,0,1.4,0,2.3h4.7v1h-4.7c0.1,2.5,0.3,4.3,0.7,5.5c0.9-1.2,1.6-2.6,2.2-4.1l1.1,0.5
	c-0.8,1.9-1.7,3.5-2.8,4.8C346.3,305.1,347,305.8,347.6,305.8z M345.5,294.4l0.6-0.7c0.8,0.4,1.5,0.9,2.1,1.4l-0.7,0.8
	C346.9,295.3,346.2,294.8,345.5,294.4z M333,306.3H327v0.7h-1v-10.6h3.5v-2.7h1v2.7h3.5V307h-1V306.3z M329.5,297.3H327v3.4h2.5
	V297.3z M329.5,301.6H327v3.8h2.5V301.6z M333,297.3h-2.5v3.4h2.5V297.3z M333,301.6h-2.5v3.8h2.5V301.6z M324,300.1
	c0.5-0.2,1-0.3,1.5-0.5c0,0.3,0,0.6,0,1.1c-0.5,0.2-1,0.3-1.5,0.5v4.3c0,1-0.4,1.5-1.3,1.5c-0.3,0-0.7,0-1.2,0
	c0-0.4-0.1-0.8-0.2-1.1c0.4,0.1,0.8,0.1,1.1,0.1c0.4,0,0.5-0.2,0.5-0.6v-3.8c-0.6,0.2-1.1,0.4-1.7,0.6l-0.1-1.1
	c0.6-0.2,1.2-0.4,1.8-0.5v-3.1h-1.7v-0.9h1.7v-2.6h1v2.6h1.6v0.9H324L324,300.1L324,300.1z M319.5,304.8c-0.1,1.4-0.7,2-1.9,2
	c-0.6,0-1.3,0-2.1,0c-0.1-0.3-0.1-0.7-0.2-1.1c0.7,0.1,1.4,0.1,2,0.1c0.7,0,1.1-0.4,1.1-1.2c0.1-1,0.1-2.2,0.2-3.7h-5.7l0.4-5h1
	l-0.4,4h3.2l0.5-4.5h-5v-1h6.2l-0.6,5.5h1.4C319.7,301.8,319.6,303.4,319.5,304.8z M318,303.8h-5.8v-1h5.8V303.8z M309,299.1h2.6
	v7.4h-1v-0.9H309v1.1h-1V301c-0.2,0.4-0.5,0.8-0.8,1.1c-0.1-0.3-0.3-0.6-0.6-0.9c1.1-1.5,1.9-3.3,2.4-5.3h-2v-1h5.1v1h-2
	C309.8,297.1,309.4,298.2,309,299.1z M309,304.7h1.7v-4.6H309V304.7z M303.4,305.1c0,1.2-0.6,1.7-1.7,1.8c-0.6,0-1.4,0-2.4,0
	c0-0.4-0.1-0.8-0.2-1.2c1,0.1,1.8,0.1,2.3,0.1c0.6,0,0.8-0.3,0.8-1v-8.9h-4.4v-1h7.9v1h-2.4V305.1z M295.6,300.3
	c0.8-0.3,1.5-0.5,2.2-0.8c0,0.5,0.1,0.8,0.1,1.1c-0.8,0.3-1.6,0.5-2.3,0.8v4c0,1-0.5,1.5-1.4,1.5c-0.4,0-0.9,0-1.6,0
	c0-0.4-0.1-0.8-0.2-1.1c0.5,0.1,0.9,0.1,1.5,0.1c0.4,0,0.6-0.2,0.6-0.7v-3.4c-0.7,0.3-1.4,0.5-2.1,0.8l-0.3-1.1
	c0.8-0.3,1.7-0.5,2.5-0.8v-3.2h-2.2v-1h2.2v-2.6h1.1v2.6h2v1h-2L295.6,300.3L295.6,300.3z"/>
<g>
	<rect x="141.2" y="136.4" class="st5" width="3.9" height="3"/>
	<rect x="141.2" y="132.1" class="st5" width="3.9" height="2.9"/>
	<rect x="141.2" y="127.9" class="st5" width="3.9" height="2.9"/>
	<polygon class="st5" points="136.6,132.5 136.6,132.5 136.6,132.5 	"/>
	<path class="st5" d="M202.1,126.6L202.1,126.6c-0.1,0.4-0.2,0.8-0.3,1l-2.2,6.1h4.9l-2.2-6.1C202.3,127.5,202.2,127.1,202.1,126.6z
		"/>
	<path class="st5" d="M229.3,112.1c-2.9,0-5.3,2.2-5.3,4.9c0,0.2,0,0.5,0.1,0.7l-25.1,3l-3.5-19.6c2.5-0.4,4.5-2.4,4.5-4.8
		c0-2.7-2.4-4.9-5.3-4.9s-5.3,2.2-5.3,4.9c0,1.3,0.5,2.4,1.4,3.3L170.2,117l-20.5-17.4c0.9-0.9,1.4-2,1.4-3.3c0-2.7-2.4-4.9-5.3-4.9
		c-2.9,0-5.3,2.2-5.3,4.9c0,2.4,1.9,4.5,4.5,4.8l-3.5,19.6l-26-3.2c0.1-0.3,0.1-0.6,0.1-0.9c0-2.7-2.4-4.9-5.3-4.9
		c-2.9,0-5.3,2.2-5.3,4.9c0,2.7,2.4,4.9,5.3,4.9c1.5,0,2.8-0.6,3.8-1.5l24,29v0.3h0.2l0.1,0.2c0,0,0.1-0.1,0.3-0.2h63.1
		c0.1,0.1,0.3,0.1,0.4,0.2l0.1-0.2h0v-0.1l23.6-28.6c0.9,0.7,2.1,1.2,3.4,1.2c2.9,0,5.3-2.2,5.3-4.9
		C234.6,114.3,232.2,112.1,229.3,112.1z M154.2,125.1h5v-1.7h1.4v1.7h5.3v-1.7h1.4v1.7h4.9v1.3h-4.9v1.4h-1.4v-1.4h-5.3v1.2h-1.4
		v-1.2h-5V125.1z M145.9,123.3c0.6,0.8,1.2,1.6,1.7,2.3l-1.3,0.8c-0.5-0.8-1-1.6-1.6-2.4L145.9,123.3z M136.6,134v5.7
		c0,1.3-0.5,2-1.5,2c-0.6,0-1.3,0-1.9,0c-0.1-0.5-0.1-1-0.2-1.6c0.6,0,1.1,0.1,1.5,0.1c0.5,0,0.7-0.2,0.7-0.7v-5.2
		c-0.8,0.2-1.5,0.5-2.3,0.7l-0.2-1.6c0.8-0.2,1.7-0.4,2.4-0.6v-4.6h-2.3v-1.3h2.3v-3.6h1.4v3.6h2.2v1.3h-2.2v4.2
		c0.8-0.2,1.5-0.4,2.2-0.6c0,0.6,0.1,1.1,0.1,1.5C138.2,133.5,137.4,133.8,136.6,134z M151.6,140.6h-10.4v1.4h0h-1.4v-12.1
		c-0.4,0.5-0.7,1-1.1,1.5c-0.2-0.3-0.6-0.6-1.1-1.1c1.6-1.9,3-4.3,4.3-7l1.4,0.5c-0.5,1-1,2-1.5,2.9h9.5v1.3h-4.7v2.9h4.4v1.3h-4.4
		v2.9h4.4v1.3h-4.4v3h5V140.6z M158.8,141.8h-1.4v-7.5c-0.9,1.1-1.8,2-2.7,2.8c-0.3-0.5-0.6-0.9-0.9-1.3c1.9-1.6,3.6-3.5,5-5.8h-4.4
		v0v-1.3h5.2c0.2-0.3,0.3-0.6,0.4-0.9h1.5c-0.1,0.3-0.3,0.6-0.4,0.9H172v1.3h-11.8c-0.5,0.8-1,1.6-1.5,2.4V141.8z M172.3,137h-5v2.5
		h0c0,1.5-0.7,2.2-2.1,2.2c-0.8,0-1.9,0-3.3,0c-0.1-0.5-0.1-1-0.2-1.5c1.2,0.1,2.2,0.2,3.2,0.2c0.7,0,1-0.4,1-1.1V137h-5.7v-1.3h5.7
		v-0.9l2.8-1.8h-7.4v-1.3h9.8v1.3l-3.7,2.3v0.4h5V137z M192.1,141.6c-3.7-2.1-6.4-5.9-8-11.3c-1.4,5.2-4.1,9-8.2,11.5
		c-0.3-0.5-0.7-0.9-1.2-1.4c5.5-3.2,8.4-8.8,8.7-16.7h1.7c-0.1,1.3-0.2,2.6-0.4,3.9c1.6,6.3,4.5,10.5,8.8,12.5
		C193,140.5,192.5,141,192.1,141.6z M206.6,139.4l-1.5-4H199l-1.4,4h-2.1l5.6-14.7h2l5.6,14.7H206.6z"/>
</g>
<g>
	<rect x="154.7" y="211.2" class="st6" width="3.5" height="2.6"/>
	<path class="st6" d="M138.7,207.6c0.4,1.7,1,3,2,4.2c0.9-1.1,1.6-2.5,2.1-4.2H138.7z"/>
	<rect x="136.8" y="203.3" class="st6" width="3.1" height="3.3"/>
	<rect x="154.7" y="207.5" class="st6" width="3.5" height="2.6"/>
	<path class="st6" d="M207.1,207.9h-1.7v4.5h0h2c0.9,0,1.5-0.2,2-0.6c0.5-0.4,0.7-1,0.7-1.7C210.1,208.7,209.1,207.9,207.1,207.9z"
		/>
	<path class="st6" d="M228.9,188.4c-2.9,0-5.3,2.2-5.3,4.9c0,0.2,0,0.5,0.1,0.7l-25.1,3l-3.5-19.6c2.5-0.4,4.5-2.4,4.5-4.8
		c0-2.7-2.4-4.9-5.3-4.9s-5.3,2.2-5.3,4.9c0,1.3,0.5,2.4,1.4,3.3l-20.5,17.4l-20.5-17.4c0.9-0.9,1.4-2,1.4-3.3
		c0-2.7-2.4-4.9-5.3-4.9c-2.9,0-5.3,2.2-5.3,4.9c0,2.4,1.9,4.5,4.5,4.8L141,197l-26-3.2c0.1-0.3,0.1-0.6,0.1-0.9
		c0-2.7-2.4-4.9-5.3-4.9c-2.9,0-5.3,2.2-5.3,4.9c0,2.7,2.4,4.9,5.3,4.9c1.5,0,2.8-0.6,3.8-1.5l24,29v0.3h0.2l0.1,0.2
		c0,0,0.1-0.1,0.3-0.2h63.1c0.1,0.1,0.3,0.1,0.4,0.2l0.1-0.2h0v-0.1l23.6-28.6c0.9,0.7,2.1,1.2,3.4,1.2c2.9,0,5.3-2.2,5.3-4.9
		C234.2,190.6,231.9,188.4,228.9,188.4z M158.7,199.7c0.5,0.7,1,1.4,1.5,2.1l-1.1,0.7c-0.4-0.7-0.9-1.4-1.4-2.1L158.7,199.7z
		 M131.8,199.6c0.5,0.8,0.9,1.5,1.3,2.3l-1.2,0.6c-0.3-0.7-0.7-1.5-1.2-2.3L131.8,199.6z M132.4,216h-1.2v-7.3
		c-0.6,0.7-1.2,1.3-1.9,1.9c-0.1-0.4-0.3-0.9-0.5-1.4c1.8-1.5,3.2-3.1,4.1-4.9h-4V203h5.4v1.2c-0.6,1-1.3,2.1-2,3v0.4
		c0.2,0.2,0.4,0.4,0.6,0.6c0.5-0.6,1-1.1,1.3-1.6l0.9,0.7c-0.4,0.5-0.9,1-1.5,1.6c0.4,0.5,0.8,0.9,1.1,1.2l-0.8,0.9
		c-0.5-0.6-1-1.3-1.6-2V216z M144.5,216c-1.6-0.7-2.9-1.5-3.8-2.4c-1.1,1-2.4,1.8-4,2.5c-0.2-0.4-0.5-0.7-0.8-1.1
		c1.7-0.6,3-1.4,4-2.3c-1.1-1.3-1.9-2.9-2.2-5.1h-0.8v0.9c0,3.2-0.9,5.7-2.6,7.5c-0.3-0.4-0.6-0.7-0.8-1c1.5-1.7,2.2-3.9,2.2-6.5
		v-6.3h4.3v-2.4h1.2v2.4h3.9v1c-0.2,0.8-0.5,1.5-0.8,2.2c-0.3-0.2-0.7-0.3-1.1-0.4c0.3-0.6,0.5-1.2,0.7-1.7h-2.7v3.3h3v1
		c-0.5,2.1-1.4,3.8-2.5,5.2c0.9,0.8,2.2,1.5,3.9,2.1C145.1,215.2,144.8,215.6,144.5,216z M150.7,209.1v5c0,1.1-0.4,1.7-1.3,1.8
		c-0.6,0-1.1,0-1.7,0c0-0.4-0.1-0.9-0.2-1.4c0.6,0,1,0.1,1.3,0.1c0.4,0,0.6-0.2,0.6-0.6v-4.5c-0.7,0.2-1.4,0.4-2,0.6l-0.2-1.4
		c0.7-0.2,1.5-0.3,2.1-0.5v-4h-2v-1.2h2v-3.2h1.2v3.2h1.9v1.2h-1.9v3.7h0c0.7-0.2,1.3-0.4,1.9-0.5c0,0.5,0.1,0.9,0.1,1.3
		C152,208.7,151.3,208.9,150.7,209.1z M163.8,214.9h-9.1v1.2h-1.3v-10.6c-0.3,0.4-0.6,0.9-0.9,1.3c-0.2-0.2-0.5-0.6-0.9-0.9
		c1.4-1.7,2.7-3.8,3.7-6.2l1.2,0.4c-0.4,0.9-0.9,1.7-1.3,2.5h8.3v1.1h-4.1v2.6h3.9v1.1h-3.9v2.6h3.9v1.1h-3.9v2.6h4.4V214.9z
		 M170.1,216h-1.3v-6.6c-0.8,0.9-1.6,1.7-2.4,2.4c-0.3-0.4-0.6-0.8-0.8-1.1c1.7-1.4,3.2-3.1,4.4-5.1h-3.9v-1.2h4.5
		c0.1-0.2,0.3-0.5,0.4-0.8h1.3c-0.1,0.3-0.3,0.5-0.4,0.8h9.7v1.2h-10.3c-0.4,0.7-0.8,1.4-1.3,2.1V216z M181.9,211.8h-4.4v2.2h0
		c0,1.3-0.6,2-1.8,2c-0.7,0-1.7,0-2.9,0c-0.1-0.4-0.1-0.9-0.2-1.3c1,0.1,1.9,0.1,2.8,0.1c0.6,0,0.9-0.3,0.9-0.9v-2h-5v-1.2h5v-0.8
		l2.4-1.6h-6.5v-1.1h8.6v1.1l-3.2,2v0.3h4.4V211.8z M181.9,202.4h-4.3v1.2h-1.3v-1.2h-4.6v1h-1.3v-1h-4.4v-1.2h4.4v-1.5h1.3v1.5h4.6
		v-1.5h1.3v1.5h4.3V202.4z M199.2,215.7c-3.3-1.9-5.6-5.1-7-9.9c-1.2,4.6-3.6,7.9-7.2,10c-0.3-0.4-0.6-0.8-1-1.3
		c4.8-2.8,7.4-7.7,7.6-14.7h1.5c-0.1,1.2-0.2,2.3-0.3,3.4c1.4,5.5,3.9,9.2,7.7,10.9C200,214.8,199.6,215.3,199.2,215.7z
		 M210.6,212.8c-0.8,0.7-1.8,1-3,1h-3.9V201h3.8c1.1,0,2,0.3,2.7,0.8c0.7,0.5,1,1.3,1,2.1c0,0.7-0.2,1.3-0.6,1.9
		c-0.4,0.5-1,0.9-1.7,1.2v0c0.9,0.1,1.6,0.4,2.1,1c0.5,0.6,0.8,1.3,0.8,2.1C211.8,211.3,211.4,212.1,210.6,212.8z"/>
	<path class="st6" d="M208.8,205.9c0.5-0.4,0.7-0.9,0.7-1.6c0-1.2-0.8-1.8-2.4-1.8h-1.7v4h1.5C207.7,206.5,208.3,206.3,208.8,205.9z
		"/>
	<rect x="154.7" y="203.8" class="st6" width="3.5" height="2.6"/>
</g>
<g>
	<rect x="155.7" y="286.7" class="st7" width="3.4" height="2.6"/>
	<polygon class="st7" points="151.8,283.4 151.8,283.4 151.8,283.4 	"/>
	<rect x="138.2" y="279" class="st7" width="3.1" height="3.2"/>
	<path class="st7" d="M140.1,283.3c0.3,1.6,1,3,1.9,4.1c0.9-1.1,1.5-2.4,2-4.1H140.1z"/>
	<path class="st7" d="M230.7,265c-2.9,0-5.3,2.2-5.3,4.9c0,0.2,0,0.5,0.1,0.7l-25.1,3.1l-3.5-19.6c2.5-0.4,4.5-2.4,4.5-4.8
		c0-2.7-2.4-4.9-5.3-4.9s-5.3,2.2-5.3,4.9c0,1.3,0.5,2.4,1.4,3.3l-20.5,17.4l-20.5-17.4c0.9-0.9,1.4-2,1.4-3.3
		c0-2.7-2.4-4.9-5.3-4.9c-2.9,0-5.3,2.2-5.3,4.9c0,2.4,1.9,4.5,4.5,4.8l-3.5,19.6l-26-3.2c0.1-0.3,0.1-0.6,0.1-0.9
		c0-2.7-2.4-4.9-5.3-4.9c-2.9,0-5.3,2.2-5.3,4.9c0,2.7,2.4,4.9,5.3,4.9c1.5,0,2.8-0.6,3.8-1.5l24,29v0.3h0.2l0.1,0.2
		c0,0,0.1-0.1,0.3-0.2h63.1c0.1,0.1,0.3,0.1,0.4,0.2l0.1-0.2h0v-0.1l23.6-28.6c0.9,0.7,2.1,1.2,3.4,1.2c2.9,0,5.3-2.2,5.3-4.9
		C236.1,267.2,233.7,265,230.7,265z M133.3,275.5c0.5,0.7,0.9,1.5,1.3,2.3l-1.2,0.6c-0.3-0.7-0.7-1.4-1.2-2.3L133.3,275.5z
		 M134,291.4h-1.1v-7.2c-0.6,0.6-1.2,1.3-1.8,1.9c-0.1-0.4-0.3-0.9-0.5-1.4c1.8-1.5,3.1-3.1,4-4.8h-3.9v-1.2h5.3v1.2
		c-0.6,1-1.2,2-2,3v0.4c0.2,0.2,0.4,0.4,0.6,0.6c0.5-0.6,0.9-1.1,1.3-1.5l0.9,0.7c-0.4,0.5-0.9,1-1.4,1.5c0.4,0.4,0.8,0.9,1.1,1.2
		l-0.8,0.8c-0.4-0.6-1-1.2-1.6-1.9V291.4z M145.8,291.4c-1.6-0.7-2.8-1.5-3.8-2.4c-1.1,1-2.4,1.8-3.9,2.4c-0.2-0.4-0.5-0.7-0.8-1.1
		c1.6-0.6,2.9-1.4,3.9-2.2c-1.1-1.2-1.8-2.9-2.2-5h-0.8v0.9c0,3.1-0.8,5.6-2.5,7.4c-0.3-0.4-0.5-0.7-0.8-1c1.5-1.7,2.2-3.8,2.2-6.4
		v-6.2h4.2v-2.4h1.2v2.4h3.9v1c-0.2,0.7-0.5,1.5-0.8,2.2c-0.3-0.1-0.7-0.3-1.1-0.4c0.3-0.6,0.5-1.1,0.7-1.7h-2.6v3.2h2.9v1
		c-0.5,2-1.3,3.7-2.5,5c0.9,0.8,2.2,1.5,3.8,2C146.4,290.6,146.1,291,145.8,291.4z M159.7,275.5c0.5,0.7,1,1.3,1.5,2l-1.1,0.7
		c-0.4-0.7-0.9-1.4-1.4-2.1L159.7,275.5z M151.8,284.7v4.9c0,1.1-0.4,1.7-1.3,1.7c-0.5,0-1.1,0-1.7,0c0-0.4-0.1-0.9-0.2-1.3
		c0.5,0,1,0.1,1.3,0.1c0.4,0,0.6-0.2,0.6-0.6V285c-0.7,0.2-1.3,0.4-1.9,0.6l-0.2-1.4c0.7-0.2,1.4-0.3,2.1-0.5v-3.9h-2v-1.1h2v-3.1
		h1.2v3.1h1.9v1.1h-1.9v3.6c0.7-0.2,1.3-0.4,1.9-0.5c0,0.5,0.1,0.9,0.1,1.3C153.1,284.3,152.4,284.5,151.8,284.7z M164.6,290.3h-8.9
		v1.2h-1.2v-10.4c-0.3,0.4-0.6,0.8-0.9,1.3c-0.2-0.2-0.5-0.5-0.9-0.9c1.4-1.7,2.6-3.7,3.7-6l1.2,0.4c-0.4,0.9-0.8,1.7-1.3,2.5h8.1
		v1.1h-4v2.5h3.8v1.1h-3.8v2.5h3.8v1.1h-3.8v2.6h4.3V290.3z M170.7,291.4h-1.2V285c-0.7,0.9-1.5,1.7-2.3,2.4
		c-0.3-0.4-0.5-0.8-0.8-1.1c1.7-1.3,3.1-3,4.3-5h-3.8v0v-1.1h4.4c0.1-0.2,0.3-0.5,0.4-0.7h1.3c-0.1,0.3-0.2,0.5-0.4,0.7h9.5v1.1H172
		c-0.4,0.7-0.8,1.4-1.3,2V291.4z M182.3,287.3H178v2.2h0c0,1.3-0.6,1.9-1.8,1.9c-0.7,0-1.6,0-2.8,0c-0.1-0.4-0.1-0.8-0.2-1.3
		c1,0.1,1.9,0.1,2.7,0.1c0.6,0,0.8-0.3,0.8-0.9v-2h-4.9v-1.1h4.9v-0.8l2.4-1.5h-6.4v-1.1h8.4v1.1l-3.1,2v0.3h4.3V287.3z
		 M182.3,278.2h-4.2v1.2h-1.2v-1.2h-4.5v1h-1.2v-1h-4.3V277h4.3v-1.4h1.2v1.4h4.5v-1.5h1.2v1.5h4.2V278.2z M199.3,291.2
		c-3.2-1.8-5.5-5-6.9-9.6c-1.2,4.5-3.5,7.7-7,9.8c-0.3-0.4-0.6-0.8-1-1.2c4.7-2.7,7.2-7.5,7.5-14.3h1.4c-0.1,1.2-0.2,2.3-0.3,3.3
		c1.3,5.4,3.9,9,7.6,10.7C200,290.3,199.6,290.7,199.3,291.2z M212.2,288.8c-0.9,0.5-2.1,0.7-3.5,0.7c-1.8,0-3.2-0.6-4.3-1.7
		c-1.1-1.1-1.6-2.7-1.6-4.5c0-2,0.6-3.6,1.8-4.9c1.2-1.2,2.7-1.8,4.6-1.8c1.2,0,2.2,0.2,3,0.5v1.7c-0.9-0.5-1.9-0.7-3-0.7
		c-1.4,0-2.5,0.5-3.4,1.4c-0.9,0.9-1.3,2.2-1.3,3.8c0,1.5,0.4,2.7,1.2,3.6c0.8,0.9,1.9,1.3,3.2,1.3c1.2,0,2.3-0.3,3.2-0.8V288.8z"/>
	<rect x="155.7" y="283.1" class="st7" width="3.4" height="2.5"/>
	<rect x="155.7" y="279.5" class="st7" width="3.4" height="2.5"/>
</g>
<g>
	<rect x="154.5" y="365" class="st8" width="3.4" height="2.6"/>
	<rect x="154.5" y="361.4" class="st8" width="3.4" height="2.5"/>
	<path class="st8" d="M138.7,361.5c0.3,1.6,1,3,1.9,4.1c0.9-1.1,1.6-2.5,2-4.1H138.7z"/>
	<rect x="136.8" y="357.2" class="st8" width="3.1" height="3.2"/>
	<path class="st8" d="M206.5,356.4h-1.9v9.8h1.8c1.6,0,2.9-0.4,3.8-1.3c0.9-0.9,1.4-2.1,1.4-3.7s-0.5-2.8-1.4-3.6
		C209.3,356.8,208,356.4,206.5,356.4z"/>
	<path class="st8" d="M228.8,342.8c-2.9,0-5.3,2.2-5.3,4.9c0,0.2,0,0.5,0.1,0.7l-25.1,3l-3.5-19.6c2.5-0.4,4.5-2.4,4.5-4.8
		c0-2.7-2.4-4.9-5.3-4.9s-5.3,2.2-5.3,4.9c0,1.3,0.5,2.4,1.4,3.3l-20.5,17.4l-20.5-17.4c0.9-0.9,1.4-2,1.4-3.3
		c0-2.7-2.4-4.9-5.3-4.9c-2.9,0-5.3,2.2-5.3,4.9c0,2.4,1.9,4.5,4.5,4.8l-3.5,19.6l-26-3.2c0.1-0.3,0.1-0.6,0.1-0.9
		c0-2.7-2.4-4.9-5.3-4.9c-2.9,0-5.3,2.2-5.3,4.9c0,2.7,2.4,4.9,5.3,4.9c1.5,0,2.8-0.6,3.8-1.5l24,29v0.3h0.2l0.1,0.2
		c0,0,0.1-0.1,0.3-0.2h63.1c0.1,0.1,0.3,0.1,0.4,0.2l0.1-0.2h0V380l23.6-28.6c0.9,0.7,2.1,1.2,3.4,1.2c2.9,0,5.3-2.2,5.3-4.9
		C234.1,345,231.7,342.8,228.8,342.8z M158.5,353.7c0.5,0.7,1,1.4,1.5,2l-1.1,0.7c-0.4-0.7-0.9-1.4-1.4-2.1L158.5,353.7z
		 M131.8,353.6c0.5,0.8,0.9,1.5,1.3,2.3l-1.2,0.6c-0.3-0.7-0.7-1.5-1.2-2.3L131.8,353.6z M132.5,369.8h-1.1v-7.2
		c-0.6,0.6-1.2,1.3-1.9,1.9c-0.1-0.4-0.3-0.9-0.5-1.4c1.8-1.5,3.1-3.1,4-4.9h-3.9v-1.2h5.4v1.2c-0.6,1-1.3,2-2,3v0.4
		c0.2,0.2,0.4,0.4,0.6,0.6c0.5-0.6,0.9-1.1,1.3-1.5l0.9,0.7c-0.4,0.5-0.9,1-1.4,1.6c0.4,0.5,0.8,0.9,1.1,1.2l-0.8,0.9
		c-0.5-0.6-1-1.3-1.6-2V369.8z M144.4,369.8c-1.6-0.7-2.8-1.5-3.8-2.4c-1.1,1-2.4,1.8-4,2.5c-0.2-0.4-0.5-0.7-0.8-1.1
		c1.7-0.6,3-1.4,4-2.2c-1.1-1.2-1.8-2.9-2.2-5h-0.8v0.9c0,3.2-0.8,5.7-2.5,7.5c-0.3-0.4-0.6-0.7-0.8-1c1.5-1.7,2.2-3.8,2.2-6.4v-6.2
		h4.2v-2.4h1.2v2.4h3.9v1c-0.2,0.8-0.5,1.5-0.8,2.2c-0.3-0.2-0.7-0.3-1.1-0.4c0.3-0.6,0.5-1.1,0.7-1.7H141v3.2h2.9v1
		c-0.5,2.1-1.4,3.8-2.5,5.1c0.9,0.8,2.2,1.5,3.9,2C145,369,144.7,369.4,144.4,369.8z M150.5,363v5c0,1.1-0.4,1.7-1.3,1.8
		c-0.5,0-1.1,0-1.7,0c0-0.4-0.1-0.9-0.2-1.4c0.5,0,1,0.1,1.3,0.1c0.4,0,0.6-0.2,0.6-0.6v-4.5c-0.7,0.2-1.3,0.4-2,0.6l-0.2-1.4
		c0.7-0.2,1.4-0.3,2.1-0.5v-4h-2v-1.1h2v-3.1h1.2v3.1h1.9v1.1h-1.9v3.7c0.7-0.2,1.3-0.4,1.9-0.5c0,0.5,0.1,0.9,0.1,1.3
		C151.8,362.6,151.1,362.8,150.5,363z M163.4,368.7h-9v1.2h-1.2v-10.5c-0.3,0.4-0.6,0.9-0.9,1.3c-0.2-0.2-0.5-0.5-0.9-0.9
		c1.4-1.7,2.6-3.7,3.7-6.1l1.2,0.4c-0.4,0.9-0.9,1.7-1.3,2.5h8.2v1.1h-4.1v2.5h3.8v1.1h-3.8v2.5h3.8v1.1h-3.8v2.6h4.3V368.7z
		 M169.7,369.7h-1.2v-6.5c-0.8,0.9-1.5,1.7-2.4,2.4c-0.3-0.4-0.6-0.8-0.8-1.1c1.7-1.4,3.1-3,4.3-5.1h-3.8v-1.1h4.5
		c0.1-0.2,0.3-0.5,0.4-0.8h1.3c-0.1,0.3-0.3,0.5-0.4,0.8h9.6v1.1H171c-0.4,0.7-0.8,1.4-1.3,2.1V369.7z M181.4,365.6h-4.3v2.2h0
		c0,1.3-0.6,1.9-1.8,1.9c-0.7,0-1.6,0-2.9,0c-0.1-0.4-0.1-0.9-0.2-1.3c1,0.1,1.9,0.1,2.8,0.1c0.6,0,0.9-0.3,0.9-0.9v-2h-4.9v-1.1
		h4.9v-0.8l2.4-1.5h-6.4V361h8.5v1.1l-3.2,2v0.3h4.3V365.6z M181.4,356.4h-4.3v1.2h-1.2v-1.2h-4.6v1h-1.2v-1h-4.3v-1.1h4.3v-1.5h1.2
		v1.5h4.6v-1.5h1.2v1.5h4.3V356.4z M198.5,369.5c-3.2-1.8-5.6-5.1-6.9-9.7c-1.2,4.5-3.6,7.8-7.1,9.9c-0.3-0.4-0.6-0.8-1-1.2
		c4.8-2.8,7.3-7.6,7.6-14.5h1.4c-0.1,1.2-0.2,2.3-0.3,3.3c1.4,5.5,3.9,9.1,7.6,10.8C199.3,368.6,198.9,369.1,198.5,369.5z
		 M211.4,365.9c-1.3,1.2-2.9,1.8-4.9,1.8H203V355h3.6c1.9,0,3.5,0.6,4.8,1.7c1.3,1.1,1.9,2.6,1.9,4.5
		C213.3,363.1,212.7,364.7,211.4,365.9z"/>
	<rect x="154.5" y="357.7" class="st8" width="3.4" height="2.5"/>
</g>
<g>
	<polygon class="st9" points="149.9,440.5 149.9,440.5 149.9,440.5 	"/>
	<rect x="153.9" y="444" class="st9" width="3.5" height="2.7"/>
	<path class="st9" d="M137.8,440.4c0.4,1.7,1,3.1,2,4.2c0.9-1.1,1.6-2.5,2.1-4.2H137.8z"/>
	<rect x="135.8" y="436" class="st9" width="3.2" height="3.3"/>
	<rect x="153.9" y="440.2" class="st9" width="3.5" height="2.6"/>
	<path class="st9" d="M228.8,422.5c-2.9,0-5.3,2.2-5.3,4.9c0,0.2,0,0.5,0.1,0.7l-25.1,3l-3.5-19.6c2.5-0.4,4.5-2.4,4.5-4.8
		c0-2.7-2.4-4.9-5.3-4.9c-2.9,0-5.3,2.2-5.3,4.9c0,1.3,0.5,2.4,1.4,3.3l-20.5,17.4L149.1,410c0.9-0.9,1.4-2,1.4-3.3
		c0-2.7-2.4-4.9-5.3-4.9s-5.3,2.2-5.3,4.9c0,2.4,1.9,4.5,4.5,4.8l-3.5,19.6l-26-3.2c0.1-0.3,0.1-0.6,0.1-0.9c0-2.7-2.4-4.9-5.3-4.9
		c-2.9,0-5.3,2.2-5.3,4.9c0,2.7,2.4,4.9,5.3,4.9c1.5,0,2.8-0.6,3.8-1.5l24,29v0.3h0.2l0.1,0.2c0,0,0.1-0.1,0.3-0.2h63.1
		c0.1,0.1,0.3,0.1,0.4,0.2l0.1-0.2h0v-0.1l23.6-28.6c0.9,0.7,2.1,1.2,3.4,1.2c2.9,0,5.3-2.2,5.3-4.9
		C234.1,424.7,231.7,422.5,228.8,422.5z M130.8,432.3c0.5,0.8,0.9,1.6,1.3,2.3l-1.2,0.6c-0.3-0.7-0.7-1.5-1.3-2.4L130.8,432.3z
		 M131.4,448.8h-1.2v-7.4c-0.6,0.7-1.2,1.3-1.9,1.9c-0.1-0.4-0.3-0.9-0.5-1.5c1.8-1.5,3.2-3.2,4.1-5h-4v-1.2h5.5v1.3
		c-0.6,1.1-1.3,2.1-2,3.1v0.4c0.2,0.2,0.4,0.4,0.6,0.6c0.5-0.6,1-1.1,1.3-1.6l0.9,0.7c-0.4,0.5-0.9,1-1.5,1.6
		c0.4,0.5,0.8,0.9,1.1,1.3l-0.8,0.9c-0.5-0.6-1-1.3-1.7-2V448.8z M143.6,448.9c-1.6-0.7-2.9-1.5-3.9-2.5c-1.1,1-2.5,1.8-4.1,2.5
		c-0.2-0.4-0.5-0.8-0.8-1.1c1.7-0.6,3.1-1.4,4.1-2.3c-1.1-1.3-1.9-3-2.3-5.1h-0.8v0.9c0,3.2-0.9,5.8-2.6,7.6c-0.3-0.4-0.6-0.7-0.9-1
		c1.5-1.7,2.3-3.9,2.3-6.6v-6.4h4.3v-2.5h1.2v2.5h4v1.1c-0.2,0.8-0.5,1.5-0.9,2.3c-0.3-0.2-0.7-0.3-1.1-0.4c0.3-0.6,0.5-1.2,0.7-1.8
		h-2.7v3.3h3v1c-0.5,2.1-1.4,3.9-2.6,5.2c0.9,0.8,2.2,1.5,3.9,2.1C144.3,448,143.9,448.5,143.6,448.9z M158.1,432.4
		c0.5,0.7,1.1,1.4,1.5,2.1l-1.2,0.7c-0.4-0.7-0.9-1.4-1.4-2.1L158.1,432.4z M149.9,441.9v5.1c0,1.1-0.4,1.7-1.3,1.8
		c-0.6,0-1.1,0-1.7,0c0-0.4-0.1-0.9-0.2-1.4c0.6,0,1,0.1,1.3,0.1c0.4,0,0.6-0.2,0.6-0.7v-4.6c-0.7,0.2-1.4,0.4-2,0.6l-0.2-1.4
		c0.8-0.2,1.5-0.3,2.2-0.5v-4.1h-2v-1.2h2v-3.2h1.3v3.2h1.9v1.2h-1.9v3.7c0.7-0.2,1.3-0.4,1.9-0.6c0,0.5,0.1,1,0.1,1.3
		C151.2,441.5,150.5,441.7,149.9,441.9z M163.1,447.8h-9.2v1.3h0h-1.3v-10.8c-0.3,0.4-0.6,0.9-1,1.3c-0.2-0.2-0.5-0.6-0.9-0.9
		c1.4-1.7,2.7-3.8,3.8-6.2l1.3,0.4c-0.4,0.9-0.9,1.7-1.3,2.6h8.4v1.1h-4.2v2.6h3.9v1.1h-3.9v2.6h3.9v1.1h-3.9v2.7h4.4V447.8z
		 M169.5,448.8h-1.3v-6.6c-0.8,0.9-1.6,1.8-2.4,2.5c-0.3-0.4-0.6-0.8-0.8-1.1c1.7-1.4,3.2-3.1,4.4-5.2h-3.9v-1.2h4.6
		c0.1-0.3,0.3-0.5,0.4-0.8h1.3c-0.1,0.3-0.3,0.5-0.4,0.8h9.8v1.2h-10.4c-0.4,0.8-0.9,1.5-1.3,2.1V448.8z M181.5,444.6h-4.4v2.2h0
		c0,1.3-0.6,2-1.8,2c-0.7,0-1.7,0-2.9,0c-0.1-0.4-0.1-0.9-0.2-1.4c1,0.1,2,0.1,2.8,0.1c0.6,0,0.9-0.3,0.9-0.9v-2h-5.1v-1.2h5.1v-0.8
		l2.5-1.6h-6.6v-1.1h8.7v1.1l-3.3,2.1v0.3h4.4V444.6z M181.5,435.1h-4.4v1.2h-1.3v-1.2h-4.7v1h-1.3v-1h-4.4V434h4.4v-1.5h1.3v1.5
		h4.7v-1.5h1.3v1.5h4.4V435.1z M199.1,448.6c-3.3-1.9-5.7-5.2-7.1-10c-1.2,4.6-3.7,8-7.3,10.2c-0.3-0.4-0.7-0.8-1.1-1.3
		c4.9-2.8,7.5-7.8,7.7-14.8h1.5c-0.1,1.2-0.2,2.3-0.4,3.4c1.4,5.6,4,9.3,7.8,11C199.8,447.7,199.4,448.1,199.1,448.6z M210.6,445.2
		v1.5h-7v-13h6.7v1.5h-5v4.2h4.7v1.5h-4.7v4.4L210.6,445.2L210.6,445.2z"/>
	<rect x="153.9" y="436.5" class="st9" width="3.5" height="2.6"/>
</g>
<g>
	<rect x="-98.1" y="179.4" class="st1" width="3.6" height="2.7"/>
	<rect x="-98.1" y="183.3" class="st1" width="3.6" height="2.7"/>
	<rect x="-98.1" y="187.2" class="st1" width="3.6" height="2.8"/>
	<path class="st1" d="M-23.5,165.4c-2.5,0-4.6,1.9-4.6,4.2c0,0.2,0,0.4,0.1,0.6l-21.7,2.6l-3.1-17c2.2-0.3,3.9-2.1,3.9-4.2
		c0-2.3-2.1-4.2-4.6-4.2c-2.5,0-4.6,1.9-4.6,4.2c0,1.1,0.5,2.1,1.2,2.9l-17.7,15.1l-17.8-15.1c0.8-0.8,1.2-1.8,1.2-2.9
		c0-2.3-2.1-4.2-4.6-4.2c-2.5,0-4.6,1.9-4.6,4.2c0,2.1,1.7,3.9,3.9,4.2l-3.1,17l-22.6-2.8c0-0.2,0.1-0.5,0.1-0.7
		c0-2.3-2.1-4.2-4.6-4.2c-2.5,0-4.6,1.9-4.6,4.2c0,2.3,2.1,4.2,4.6,4.2c1.3,0,2.5-0.5,3.3-1.3l20.8,25.1v0.2h0.2l0.1,0.1
		c0,0,0.1,0,0.3-0.1h54.6c0.1,0,0.2,0.1,0.4,0.1l0.1-0.1h0v-0.1l20.4-24.7c0.8,0.6,1.8,1,3,1c2.5,0,4.6-1.9,4.6-4.2
		C-18.9,167.3-20.9,165.4-23.5,165.4z M-93.8,175.1c0.6,0.7,1.1,1.5,1.6,2.2l-1.2,0.8c-0.4-0.7-0.9-1.5-1.5-2.2L-93.8,175.1z
		 M-102.4,185v5.3c0,1.2-0.5,1.8-1.4,1.9c-0.6,0-1.2,0-1.8,0c0-0.5-0.1-1-0.2-1.5c0.6,0,1.1,0.1,1.4,0.1c0.4,0,0.7-0.2,0.7-0.7v-4.8
		c-0.7,0.2-1.4,0.4-2.1,0.6l-0.2-1.5c0.8-0.2,1.5-0.4,2.3-0.6v-4.3h-2.1v-1.2h2.1v-3.3h1.3v3.3h2v1.2h-2v3.9h0
		c0.7-0.2,1.4-0.4,2-0.6c0,0.5,0.1,1,0.1,1.4C-101,184.6-101.7,184.8-102.4,185z M-88.5,191.1h-9.6v1.3h0h-1.3v-11.3
		c-0.3,0.5-0.7,0.9-1,1.4c-0.2-0.3-0.5-0.6-1-1c1.5-1.8,2.8-4,4-6.5l1.3,0.4c-0.4,0.9-0.9,1.8-1.4,2.7h8.8v1.2h-4.4v2.7h4.1v1.2
		h-4.1v2.7h4.1v1.2h-4.1v2.8h4.6V191.1z M-81.9,192.2h-1.3v-6.9c-0.8,1-1.7,1.8-2.5,2.6c-0.3-0.5-0.6-0.9-0.8-1.2
		c1.8-1.4,3.3-3.2,4.6-5.4H-86v-1.2h4.8c0.1-0.3,0.3-0.5,0.4-0.8h1.4c-0.1,0.3-0.3,0.5-0.4,0.8h10.3v1.2h-10.9
		c-0.4,0.8-0.9,1.5-1.4,2.2V192.2z M-69.3,187.8h-4.6v2.3h0c0,1.4-0.6,2.1-1.9,2.1c-0.7,0-1.8,0-3.1,0c-0.1-0.4-0.1-0.9-0.2-1.4
		c1.1,0.1,2.1,0.1,2.9,0.1c0.6,0,0.9-0.3,0.9-1v-2.1h-5.3v-1.2h5.3v-0.9l2.6-1.6h-6.9v-1.2h9.1v1.2l-3.4,2.2v0.4h4.6V187.8z
		 M-69.3,177.9h-4.6v1.3h-1.3v-1.3h-4.9v1.1h-1.3v-1.1h-4.6v-1.2h4.6v-1.6h1.3v1.6h4.9v-1.6h1.3v1.6h4.6V177.9z M-51,192
		c-3.5-2-5.9-5.4-7.4-10.4c-1.3,4.8-3.8,8.4-7.6,10.6c-0.3-0.4-0.7-0.9-1.1-1.3c5.1-2.9,7.8-8.1,8.1-15.5h1.5
		c-0.1,1.3-0.2,2.4-0.4,3.6c1.4,5.8,4.2,9.7,8.2,11.5C-50.2,191-50.6,191.5-51,192z M-39.3,178h-5.2v4.5h4.9v1.5h-4.9v5.9h-1.8
		v-13.6h7V178z"/>
</g>
<g>
	<rect x="389.9" y="184.1" class="st1" width="3.4" height="2.5"/>
	<rect x="389.9" y="187.7" class="st1" width="3.4" height="2.6"/>
	<polygon class="st1" points="386,184.4 386,184.4 386,184.4 	"/>
	<rect x="389.9" y="180.5" class="st1" width="3.4" height="2.5"/>
	<path class="st1" d="M465.6,166.2c-2.5,0-4.6,1.9-4.6,4.2c0,0.2,0,0.4,0.1,0.6l-21.5,2.6l-3-16.9c2.2-0.3,3.9-2,3.9-4.1
		c0-2.3-2-4.2-4.6-4.2c-2.5,0-4.6,1.9-4.6,4.2c0,1.1,0.5,2.1,1.2,2.8l-17.6,14.9l-17.6-14.9c0.8-0.7,1.2-1.7,1.2-2.8
		c0-2.3-2-4.2-4.6-4.2c-2.5,0-4.6,1.9-4.6,4.2c0,2.1,1.7,3.8,3.9,4.1l-3,16.9l-22.4-2.7c0-0.2,0.1-0.5,0.1-0.7c0-2.3-2-4.2-4.6-4.2
		c-2.5,0-4.6,1.9-4.6,4.2s2,4.2,4.6,4.2c1.3,0,2.4-0.5,3.3-1.3l20.6,24.9v0.2h0.2l0.1,0.1c0,0,0.1,0,0.3-0.1h54.2
		c0.1,0,0.2,0.1,0.4,0.1l0.1-0.1h0v-0.1l20.3-24.5c0.8,0.6,1.8,1,3,1c2.5,0,4.6-1.9,4.6-4.2C470.2,168.1,468.2,166.2,465.6,166.2z
		 M401.1,178h4.3v-1.5h1.2v1.5h4.5v-1.5h1.2v1.5h4.2v1.1h-4.2v1.2h-1.2v-1.2h-4.5v1h-1.2v-1h-4.3V178z M393.9,176.5
		c0.5,0.7,1,1.4,1.5,2l-1.1,0.7c-0.4-0.7-0.9-1.4-1.4-2.1L393.9,176.5z M386,185.7v4.9c0,1.1-0.4,1.7-1.3,1.7c-0.5,0-1.1,0-1.7,0
		c0-0.4-0.1-0.9-0.2-1.4c0.5,0,1,0.1,1.3,0.1c0.4,0,0.6-0.2,0.6-0.6V186c-0.7,0.2-1.3,0.4-1.9,0.6l-0.2-1.4c0.7-0.2,1.4-0.3,2.1-0.5
		v-4h-2v-1.1h2v-3.1h1.2v3.1h1.9v1.1H386v3.6c0.7-0.2,1.3-0.4,1.9-0.5c0,0.5,0.1,0.9,0.1,1.3C387.3,185.3,386.6,185.5,386,185.7z
		 M398.8,191.4h-8.9v1.2h-1.2v-10.5c-0.3,0.4-0.6,0.9-0.9,1.3c-0.2-0.2-0.5-0.5-0.9-0.9c1.4-1.7,2.6-3.7,3.7-6l1.2,0.4
		c-0.4,0.9-0.8,1.7-1.3,2.5h8.1v1.1h-4v2.5h3.8v1.1h-3.8v2.5h3.8v1.1h-3.8v2.6h4.3V191.4z M405,192.4h-1.2V186
		c-0.8,0.9-1.5,1.7-2.4,2.4c-0.3-0.4-0.5-0.8-0.8-1.1c1.7-1.3,3.1-3,4.3-5h-3.8v-1.1h4.5c0.1-0.2,0.3-0.5,0.4-0.8h1.3
		c-0.1,0.3-0.3,0.5-0.4,0.8h9.5v1.1h-10.1c-0.4,0.7-0.8,1.4-1.3,2.1V192.4z M416.6,188.3h-4.3v2.2h0c0,1.3-0.6,1.9-1.8,1.9
		c-0.7,0-1.6,0-2.8,0c-0.1-0.4-0.1-0.9-0.2-1.3c1,0.1,1.9,0.1,2.7,0.1c0.6,0,0.8-0.3,0.8-0.9v-2h-4.9v-1.1h4.9v-0.8l2.4-1.5h-6.4
		v-1.1h8.4v1.1l-3.2,2v0.3h4.3V188.3z M433.7,192.2c-3.2-1.8-5.5-5.1-6.9-9.7c-1.2,4.5-3.5,7.8-7.1,9.9c-0.3-0.4-0.6-0.8-1-1.2
		c4.7-2.7,7.2-7.5,7.5-14.4h1.4c-0.1,1.2-0.2,2.3-0.3,3.3c1.3,5.4,3.9,9,7.6,10.7C434.4,191.3,434,191.8,433.7,192.2z M447.6,189.5
		c-1.3,0.7-2.7,1.1-4.3,1.1c-1.8,0-3.3-0.6-4.4-1.7c-1.1-1.2-1.7-2.7-1.7-4.6c0-2,0.6-3.6,1.8-4.8c1.2-1.3,2.8-1.9,4.7-1.9
		c1.4,0,2.5,0.2,3.5,0.7v1.8c-1-0.6-2.2-1-3.6-1c-1.4,0-2.5,0.5-3.4,1.4c-0.9,0.9-1.3,2.2-1.3,3.7c0,1.6,0.4,2.8,1.2,3.7
		c0.8,0.9,1.9,1.3,3.3,1.3c1,0,1.8-0.2,2.5-0.6v-3.4h-2.7v-1.4h4.4V189.5z"/>
</g>
</svg>
