<?xml version="1.0" encoding="utf-8"?>
<!-- Generator: Adobe Illustrator 21.1.0, SVG Export Plug-In . SVG Version: 6.00 Build 0)  -->
<svg version="1.1" id="Layer_1" xmlns="http://www.w3.org/2000/svg" xmlns:xlink="http://www.w3.org/1999/xlink" x="0px" y="0px"
	 viewBox="0 0 157 156" style="enable-background:new 0 0 157 156;" xml:space="preserve">
<style type="text/css">
	.st0{fill:#5B4516;}
</style>
<g>
	<path class="st0" d="M125.9,91.9l-0.2-40.7c0.5-8.2-2.9-10.8-2.9-10.8L89,20.4c-10-3.5-15.5,0-15.5,0l-37.1,17
		c-6.1,3-6.1,11.3-6.1,11.3l1.3,53.4c0,5.9,6.6,8.8,6.6,8.8l32.6,12.5c0.2-4.3,2.4-8.2,5.6-10.7L75.4,68L42,47.7l34.3,17.5
		l40.3-19.8L77.8,67.9l-1.1,44.8c2.4-1.8,5.4-2.9,8.6-2.9h0.1c6.7-7,13.2-13.1,16.3-18.8c2-7.1-3.8-10.6-8-9.7v-3l6.8-11.8
		c-5.2,1.9-14.8,6.4-15.4,5.6c-0.1-4.1,1.2-7,4.7-8.2l21.7-8.8l-11.8,21c4.3-1.4,8.3-1.9,10.7,0.8c2.6,4,2.2,8.5-0.4,13.6
		c-1.9,4-10.1,12.6-23.5,19.4h27.4c0.7,0,1.3,0,1.9,0.1l1.7-0.7C127.4,105.2,125.9,91.9,125.9,91.9z M67.6,110.2
		c-3.7,0.8-8.4-12.5-5.6-16.2C67.8,92.4,71,107.6,67.6,110.2z M63,67.6c0.6,2.4-0.1,4.6-1,6.4c2.6,1,4.6,2,5.9,3.2
		c0.5,1.3-0.7,5.5-1.1,8.2c-0.4,1.6,2.5,1.3,4.7,3c0.8,0.7,0.7,2.3,0.2,4.8c-4.3-0.2-10.3-4.9-12.5-3.7c-0.4,5.2-3,12.8-5.6,15.7
		c-1.2-3,0.4-12.2,1.6-17.4c-0.5-1.2-2.5-1.1-3.8-1.7c-0.5-1.9-1.1-5.5,0.1-6.2c1.2-0.6,4.7,2.2,5.3,1.8c0.8,0.4,0.8-5.8,0.2-5.6
		c-2.3-0.7-4.3-2-3.8-5.3c1.2-0.8,3.5,2,4.6,1.4c0.5-0.8,1.1-4.1,0.2-4.4c-0.8-0.2-3-0.8-2.8-2.2C56.1,64.8,60.9,65.5,63,67.6z
		 M43,71.8l2.2,1c2.6-8,5.4-13.3,8.5-13.6C52.3,64.2,50,69.9,50,74.6c4.2,1.6,6.1,2.9,4.9,4.2c-0.6,1.3-4.3-1.4-5.4-0.7
		c-1.6,4.4,1,14.9-0.4,14.6c-2.5,0-4.7,0-6-2c-1.2-2.4,0.1-9.1,1.4-13.3c-0.2-1-2.5-1.3-3.4-1.3c-0.4,1.1-0.1,2.6-1.2,3.2
		c-0.7,0-1-2.5-1.6-3.8c-3.4-2.2-1.8-5.6,0.8-5.2C39,66.2,39,60,39.6,59.8C44.6,60.1,46.4,63.7,43,71.8z M73.5,37.4l-2.8,4
		c-5.3-0.7-8.2,2.6-2.9,4.1l-2,3.1C51.6,47.1,58.2,36,73.5,37.4z M78.3,32.1H87l-2,2h-5.3L69.6,48.6h-2.8L78.3,32.1z M80.4,34.8H89
		l-2,2h-5.3l-9.8,14.3h-2.8L80.4,34.8z M83.5,48.4l-3.6,5.2H71l11.4-16.3h8.6C105,40.5,99.8,50.2,83.5,48.4z"/>
	<path id="XMLID_13_" class="st0" d="M63.1,84.7c1.1-0.5,1-3.7,1-5.4c-1.4-1.7-2.2-1.3-2.5-0.8c-0.5,2-1,4.2-0.6,4.9
		C61,84.3,62,84.7,63.1,84.7z"/>
	<path id="XMLID_12_" class="st0" d="M88.5,41.4l-2.8,4C91.3,46.2,95,41.5,88.5,41.4z"/>
</g>
<g>
	<path id="XMLID_11_" class="st0" d="M91.7,129.7c2-1,3.5-2.3,4-3.8h-7.8C88.2,127.4,89.6,128.7,91.7,129.7z"/>
	<path class="st0" d="M114.2,112.9H110H88.3c-7.2,0-13,5.8-13,13v0.1c0,7.1,5.9,12.8,13,12.8h25.9c7.2,0,13-5.8,13-13
		C127.2,118.8,121.4,112.9,114.2,112.9z M111.6,117.9h2.2v3.7h-2.2V117.9z M108.6,119.8v-2.6h2.4v2.6h0.6l-0.4,1.9h-5.3V118h2.2v1.9
		L108.6,119.8L108.6,119.8z M101.1,125.8h-1.9c-0.2,2-1.6,3.7-3.5,5.2c1.7,0.4,3.6,0.6,5.5,0.6v2.9c-3.6-0.1-6.8-0.6-9.4-1.6
		c-2.6,1-5.8,1.4-9.4,1.6v-2.9c1.9-0.1,3.7-0.2,5.4-0.6c-2-1.4-3.2-3.1-3.5-5.2h-1.9v-2.3h1.8v-1.2h3.5v1.2H96v-1.2h3.5v1.2h1.9
		L101.1,125.8L101.1,125.8z M101.1,122h-3.7v-1.8H86v1.8h-3.7v-3.7h7.6v-1.1h3.8v1.1h7.6C101.1,118.3,101.1,122,101.1,122z
		 M104.9,134.6h-2.5v-7.8h-0.7l-0.5-2h0.7l1.2-2.6h-1.4l-0.5-2h0.7l1.2-2.8h2.8l-2.2,4.7h2.2l-1.7,3.6h0.6
		C104.9,125.5,104.9,134.6,104.9,134.6z M105.6,134.2l-0.4-1.2h0.5l0.2-2h1.9l-0.4,3.2H105.6L105.6,134.2z M113.5,134.2h-1.9
		l-0.4-3.2h1.9l0.2,2h0.5L113.5,134.2z M111.9,130.4l-0.1-1.9l-0.4,1.9H111v4.2h-2.8l-0.4-1.4h0.7v-2.8h-2.5v-1.9h1.7l0.6-0.7h-2.4
		v-1.4l1.7-2.3h-1.3v-1.8h7.7v1.8h-3.7l-1.4,1.9h1.1l0.7-0.8h2.8l-2.9,3.4h1.4l-0.1-1h2l0.2,2.9L111.9,130.4L111.9,130.4z
		 M120.2,120.7h-0.5c0,3.8-0.4,6.8-1.4,9.2c0.5,0.7,1.1,1.3,1.7,1.8v2.9c-1.2-0.7-2.2-1.6-2.9-2.5c-0.7,1-1.7,1.8-2.9,2.5v-2.9
		c0.6-0.5,1.1-1.1,1.6-1.8c-1.1-2.3-1.4-5.2-1.6-9h2.2c0,2.2,0.2,4.1,0.6,5.6c0.4-1.7,0.6-3.6,0.6-5.9h-3.7l0.7-3.5h2.6l-0.4,1.4
		h3.4L120.2,120.7L120.2,120.7z"/>
</g>
</svg>
