<?xml version="1.0" encoding="utf-8"?>
<!-- Generator: Adobe Illustrator 19.0.0, SVG Export Plug-In . SVG Version: 6.00 Build 0)  -->
<svg version="1.1" id="Layer_1" xmlns="http://www.w3.org/2000/svg" xmlns:xlink="http://www.w3.org/1999/xlink" x="0px" y="0px"
	 viewBox="0 0 157 156" style="enable-background:new 0 0 157 156;" xml:space="preserve">
<g>
	<path id="XMLID_27_" style="fill:#5B4516;" d="M103,80.1c-2.5-1.1-10.6-13.9-11.7-16.9c-0.1,0-0.1-0.1-0.2-0.1
		c-1.1,1-2.2,2-3.4,3.1c-0.5,1.1-0.2,3.4-0.2,4.9c0,4.5,0,9,0,13.5c5.4-0.9,4-6.6,4-12.7c0,0,0.1,0,0.2,0c1.2,1.8,2.3,3.6,3.5,5.4
		c4,6.1,5.3,7.1,15.5,7c0-1.2,0-2.5,0-3.7C108.2,80.6,104.9,81,103,80.1z"/>
	<path id="XMLID_26_" style="fill:#5B4516;" d="M103.8,78.6c1.8,0.7,4.7,0.2,6.9,0.2c-0.6-1.5-0.5-3.4-2.9-4c-1.2-0.4-2.3,0.3-3-0.5
		c-2.5-3.9-4.9-7.7-7.4-11.6c4.3-4.3,8.6-8.7,12.9-13c-1.9,0-3.8-0.1-5.7-0.1c-4.1,4.2-8.2,8.4-12.4,12.6
		C95.7,65.5,99.6,76.9,103.8,78.6z"/>
	<path id="XMLID_25_" style="fill:#5B4516;" d="M53.4,78.4c2.7-1.7,5.2-12.9,6.5-16.6c1-2.9,1.4-7.2,4.4-8c4.5-1.1,4.9,3.9,5.7,6.7
		c1,3.2,4.6,16,6.4,17.5c1,0.8,2.2,1,3.8,0.9c0-0.1,0.1-0.1,0.1-0.2c-1.8-5.4-3.6-10.9-5.4-16.3c-2-6.4-1.7-12.6-10.3-12.6
		c-1.8,0-3.3,0.7-4.3,1.5c-4.7,3.6-5.6,17.8-9.2,23.4c-3.6,0.6-4.5,0.7-5.4,3.9c0,0.1,0,0.2,0,0.3C48.1,79,51.8,79.4,53.4,78.4z"/>
	<path style="fill:#5B4516;" d="M81.9,80c-2.4,0.7-5.3,0.3-6.7-1.4c-1.1-1.4-1.5-3.5-2.2-5.4c-1.3-3.8-2.5-7.5-3.8-11.3
		c-0.7-2-1.2-7.5-4.4-6.7c-2.3,0.6-3.6,7.1-4.3,9.6c-1.4,4.3-3.3,13.2-7.1,14.8c-1.9,0.8-5.1,0.4-7.6,0.4c0,1.5,0,2.9,0,4.4
		c3.4,0,7,0.4,9.4-0.7c2.7-1.2,4.3-3.4,5.5-6.2c0,0.1,0,0.2,0,0.3c0,3.2,3.3,3.9,4.6,1.4c0,0.8-0.3,2.4-1,2.6
		c-0.1,0-0.1,0.1-0.1,0.2c0.5,0.3,2.2,0.2,2.4,0.2c0.3-0.1,0.1-0.2,0.1-0.2c-0.6-0.3-1.1-1.4-1.1-2.6c1.3,2.3,4.5,1.7,4.6-1.4
		c0-0.1,0-0.2,0-0.3c1.2,2.7,2.8,5.1,5.3,6.1c2.6,1.1,7,0.8,10.7,0.8c0-11.7,0.1-23.3,0.1-35c-1.4,0-2.8,0-4.2,0
		C81.9,59.8,81.9,69.9,81.9,80z M67.2,74.8c-1-0.7-1.8-1.7-1.9-2.1c-0.1,0.4-0.9,1.4-2,2.1c-0.7,0.5-1.7,0.9-2.3,1.7
		c0.8-2.1,1.4-4.4,2.1-6.7c0.6-2.2,1.3-4.3,1.9-6.5c0,0,0.1,0,0.1,0c0.5,1.4,0.9,2.8,1.4,4.2c0.9,2.7,1.7,6,2.9,9
		C68.9,75.7,67.9,75.3,67.2,74.8z"/>
	<path id="XMLID_22_" style="fill:#5B4516;" d="M97.1,49.6c-1.8,1.9-3.7,3.7-5.5,5.6c0-1.9,0-3.7,0-5.6c-1.3,0-2.6,0-3.9,0
		c0,5,0,10.1,0,15.1c5-5,10-10.1,15.1-15.1C100.8,49.6,98.9,49.6,97.1,49.6z"/>
</g>
<g>
	<path style="fill:#5B4516;" d="M72.5,94.2h-4.4v12.4h3.3v-4l1,0l0,0c1.3,0,2.5-0.4,3.4-1.1c1-0.8,1.5-1.9,1.5-3.2
		C77.2,96.4,76.4,94.2,72.5,94.2z M72,100.6h-1.5v-4.6h1.5c2.2,0,2.6,1.4,2.6,2.3C74.6,99.8,73.7,100.6,72,100.6z"/>
	<path id="XMLID_19_" style="fill:#5B4516;" d="M76.8,86.7h-2.2c-0.3,0-0.5,0.2-0.5,0.5v4.4c0,0.3,0.2,0.5,0.5,0.5h2.2
		c0.3,0,0.5-0.2,0.5-0.5v-4.4C77.3,86.9,77.1,86.7,76.8,86.7z"/>
	<path id="XMLID_18_" style="fill:#5B4516;" d="M97.7,94c-1.9,0-3.5,0.6-4.7,1.9c-1.2,1.2-1.8,2.8-1.8,4.8c0,1.8,0.6,3.3,1.7,4.4
		c1.1,1.1,2.6,1.7,4.4,1.7c1.4,0,2.6-0.2,3.5-0.7l0.2-0.1v-3.3l-0.6,0.4c-0.8,0.5-1.6,0.7-2.6,0.7c-1,0-1.7-0.3-2.3-0.9
		c-0.6-0.6-0.9-1.4-0.9-2.4c0-1.1,0.3-1.9,0.9-2.5c0.6-0.6,1.4-0.9,2.4-0.9c0.9,0,1.7,0.2,2.4,0.6l0.6,0.4h0v-3.4l-0.3-0.1
		C99.9,94.1,98.9,94,97.7,94z"/>
	<path id="XMLID_17_" style="fill:#5B4516;" d="M87.5,103.8c-0.4,0.3-0.6,0.7-0.6,1.2c0,0.5,0.2,0.9,0.6,1.2
		c0.4,0.3,0.8,0.5,1.3,0.5c0.5,0,1-0.2,1.3-0.5c0.4-0.3,0.6-0.7,0.6-1.2c0-0.5-0.2-0.9-0.5-1.2C89.4,103.2,88.2,103.2,87.5,103.8z"
		/>
	<path style="fill:#5B4516;" d="M107.4,94c-1.8,0-3.4,0.6-4.5,1.8c-1.1,1.2-1.7,2.8-1.7,4.7c0,1.8,0.6,3.3,1.7,4.5
		c1.1,1.2,2.6,1.8,4.3,1.8c1.8,0,3.3-0.6,4.4-1.8c1.1-1.2,1.7-2.8,1.7-4.7c0-1.8-0.5-3.3-1.6-4.5C110.6,94.6,109.2,94,107.4,94z
		 M109.8,103.4c-0.6,0.8-1.5,1.2-2.6,1.2c-1.1,0-1.9-0.4-2.6-1.2c-0.6-0.8-0.9-1.8-0.9-3c0-1.2,0.3-2.2,0.9-3
		c0.6-0.8,1.5-1.2,2.6-1.2c1.1,0,1.9,0.4,2.5,1.2c0.6,0.8,0.9,1.8,0.9,3.1C110.7,101.6,110.4,102.7,109.8,103.4z"/>
	<path style="fill:#5B4516;" d="M84.5,100c1.1-0.7,1.6-1.6,1.6-2.8c0-1-0.4-1.8-1.2-2.4C84.1,94.3,83.1,94,82,94
		c-1.2,0-2.1,0.3-2.9,0.9c-0.8,0.6-1.2,1.5-1.2,2.5c0,1.1,0.5,2,1.5,2.7c-1.2,0.7-1.9,1.8-1.9,3.1c0,1.1,0.4,2,1.2,2.6
		c0.8,0.6,1.8,0.9,3,0.9c1.4,0,2.5-0.3,3.3-0.9c0.9-0.7,1.3-1.6,1.3-2.8c0-0.8-0.3-1.5-0.7-2.1C85.3,100.6,84.9,100.3,84.5,100z
		 M83.5,104.5c-0.4,0.3-0.9,0.5-1.5,0.5c-0.6,0-1.1-0.2-1.5-0.5c-0.4-0.4-0.7-0.8-0.7-1.4c0-1.1,0.7-1.9,2-2.4l0.1-0.1l0.1,0.1
		c1.4,0.5,2.1,1.3,2.1,2.4C84.1,103.6,83.9,104.1,83.5,104.5z M80.7,96.2c0.4-0.3,0.8-0.5,1.3-0.5c0.5,0,1,0.2,1.3,0.5
		c0.4,0.3,0.5,0.8,0.5,1.3c0,0.6-0.3,1.5-1.7,2.1L82,99.6l-0.2-0.1c-1.4-0.6-1.7-1.5-1.7-2.1C80.1,97,80.3,96.5,80.7,96.2z"/>
	<rect id="XMLID_11_" x="67.3" y="96.9" style="fill:#5B4516;" width="0" height="0"/>
	<rect id="XMLID_10_" x="29.2" y="88.5" style="fill:#5B4516;" width="42.2" height="1.9"/>
	<path id="XMLID_9_" style="fill:#5B4516;" d="M30,82c0.8,0.5,1.8,0.1,2.4-0.1c-0.6,1.3-1.4,1.3-2.8,1.4c0,0.2,0,0.3,0,0.5
		c2.1,0,4.1,0,6.2,0c0-0.1,0-0.3,0-0.4c-0.1,0-0.1,0-0.2,0c-1.5-0.5-2.1-0.1-2.7-1.5c2,0.9,3.2,0.2,3.5-0.9c0.3-1.1-2.9-4.2-3.7-5
		c-0.9,1.7-3.3,2.9-3.6,5C29.4,81.4,29.5,81.7,30,82z"/>
	<path style="fill:#5B4516;" d="M33.2,94.2l-4.5,12.4h3.6l0.8-2.6h3.6l0.9,2.6h3.6l-4.4-12.4H33.2z M33.9,101.1l1-2.9l1,2.9H33.9z"
		/>
	<path id="XMLID_6_" style="fill:#5B4516;" d="M44.9,80.1c-0.1-0.2-1.7-2-3.4-3.8c-1.1,1.2-2.5,2.5-3.7,3.7c-0.9-1,1.5,1.5,3.4,3.9
		C41.3,83.8,43.7,81.4,44.9,80.1z"/>
	<polygon id="XMLID_5_" style="fill:#5B4516;" points="62.6,94.2 62,94.2 59.1,94.2 56.7,102.1 54.2,94.2 51.8,94.2 50.7,94.2 
		47.9,94.2 44.8,98.6 44.8,94.2 41.5,94.2 41.5,106.5 44.8,106.5 44.8,101.9 48,106.5 52.2,106.5 47.4,100.1 51,95.2 54.9,106.5 
		58.3,106.5 62,95.8 62,96.9 63,96.9 63,103.8 62,103.8 62,106.5 67.3,106.5 67.3,103.8 66.3,103.8 66.3,96.9 67.3,96.9 67.3,94.2 	
		"/>
	<path id="XMLID_4_" style="fill:#5B4516;" d="M115.4,83.8c0,0,0.2-0.3,0.6-1.1c1-1.9,4.6-3.9,2.6-5.9c-0.3-0.2-1-0.4-1.2-0.5
		c-0.9,0-1.5,0.3-1.8,0.9l0,0c-0.3-0.7-1-1-1.8-1c-0.3,0.1-0.9,0.3-1.3,0.5c-2.1,1.9,1.5,4,2.4,6C115.2,83.5,115.4,83.8,115.4,83.8z
		"/>
	<path id="XMLID_3_" style="fill:#5B4516;" d="M121.4,82.1c2,0.8,2.2-0.3,2.8-0.8c0.2-0.1,0.2-0.1,0.3,0.3c0,1.2-1.1,2-3,1.9
		c0,0.1,0,0.3,0,0.4c1.3,0,5.3,0.1,6.3,0.1c0-0.1,0-0.3,0-0.4c-1.5,0-2.4-0.3-2.8-1.2c-0.1-0.5-0.2-1.2,0.1-1.2
		c0.1,0.1,0.2,0.1,0.3,0.2c0.2,0.7,0.8,1,1.4,1.1c1.5,0.1,2-0.9,1.7-2.4c-0.5-1.2-1.4-0.8-2.6-0.9c0.4-0.7,0.7-1.2,0.3-2.1
		c-0.5-0.9-1-0.9-1.9-0.8c-1.6,0.4-1.3,1.7-0.9,3.1c0,0-0.1,0-0.1,0c-0.6-0.4-1.2-0.5-1.7-0.1C120.7,79.8,120.2,81.4,121.4,82.1z"/>
	<rect id="XMLID_2_" x="79.5" y="88.6" style="fill:#5B4516;" width="49.1" height="1.9"/>
	<path id="XMLID_1_" style="fill:#5B4516;" d="M121.5,101.4c0,0.1-0.1,0.2-0.1,0.2c0-0.1-0.1-0.2-0.1-0.2l-2.6-7.2h-4.3v12.4h3.1
		v-6.8l2.5,6.8h2.5l2.4-6.8v6.8h3.3V94.2h-4.2L121.5,101.4z"/>
</g>
</svg>
