<?xml version="1.0" encoding="utf-8"?>
<!-- Generator: Adobe Illustrator 21.1.0, SVG Export Plug-In . SVG Version: 6.00 Build 0)  -->
<svg version="1.1" id="图层_1" xmlns="http://www.w3.org/2000/svg" xmlns:xlink="http://www.w3.org/1999/xlink" x="0px" y="0px"
	 viewBox="0 0 1024 1024" style="enable-background:new 0 0 1024 1024;" xml:space="preserve">
<style type="text/css">
	.st0{fill:#5B4516;}
</style>
<g>
	<g>
		<path class="st0" d="M668.7,381.7c-20.1,35.4-40,70.9-60.3,106.2c15.6-6,31.2-12.1,46.7-18.1c10-17.6,19.8-35.2,29.5-52.6
			c0.7-0.3,1.2-0.7,2-0.9v40.2c15.9-6,31.9-12.1,47.8-18.1v-46.9c-14.6,5.8-29.3,11.4-44,17.2c14.6-29.4,88.1-31.4,113.7-52.6
			c4.1-8.3,8.3-16.7,12.5-24.9c3.5-7.1,7-14,10.5-21.1c-16.9,6.7-33.7,13.4-50.5,20.1c-2.2,4.1-4.5,8.3-6.7,12.5l0,0
			C736.3,355.6,702.6,368.7,668.7,381.7z M747.1,578l10.5-102.4c7-3.2,14-6.4,21-9.6c3.2-10.2,6.4-20.5,9.6-30.6h-2.9
			c-20.1,8-40,15.9-60.3,24l3.8-12.5c-17.2,6.4-34.4,12.7-51.6,19.2c-2,5.1-3.8,10.2-5.8,15.2c-21.3,8.3-42.7,16.7-64.1,24.9
			c-3.2,10.2-6.4,20.5-9.6,30.6c6.7-2.6,13.4-5.1,20.1-7.6c-21.4,41.5-42.7,83-64.1,124.4l47.8-18.1L653.2,535l2-0.9
			c-10.5,31.9-21,63.8-31.5,95.7v0.9c17.2-6.7,34.4-13.4,51.6-20.1l0,0c10.2-31.9,20.5-63.8,30.6-95.7c-2,27.2-3.8,54.2-5.8,81.4
			C715.9,590.2,731.6,584,747.1,578z M620,752.2v-27.8c2.8-7.9,24-39.4,21-44c-5.4,2.2-10.8,4.5-16.3,6.7
			c-5.8,3.4-10.5,16.9-12.5,24c-0.7,0.3-1.2,0.7-2,0.9c-3.5-5.4-7-10.9-10.5-16.3c-6.4,2.2-12.7,4.5-19,6.7c-0.3,0.7-0.7,1.2-0.9,2
			c14.6,13.1,22.7,24.4,21.9,53.6C608,756,614,754.1,620,752.2z M799.7,366.5h-2.9c-15.2,6.2-30.6,12.1-45.8,18.1v46.9
			c15.6-6.2,31.2-12.1,46.7-18.2C798.4,397.7,799.1,382.1,799.7,366.5z M576.2,494.7c7.9-3.2,15.9-6.4,23.9-9.6
			c6.7-18.5,13.4-37,20.1-55.5l-21.9,8.5h-0.9c5.1-14.7,10.2-29.4,15.2-44h-2c-15.6,6-31.2,12.1-46.7,18.1l-15.2,45
			c-24.8,9.6-49.8,19-74.6,28.7c-6.4,17.9-12.7,35.7-19,53.6l72.6-26.8c-2,5.1-3.8,10.2-5.8,15.2c-0.1,8.7,5.4,18.6,0.9,29.7
			c-5.5,13.5-18.5,22.2-23.9,34.5l-8.5,22.1c-10.8,4.5-21.7,8.9-32.4,13.4c-10.8,8-15.6,39.6-21,52.6c24.5-9.6,49.1-19.2,73.6-28.7
			C530.4,636.9,568.2,526.9,576.2,494.7z M494.9,534.9c-12.5,6.4-48.2,36.2-23.9,54.6C502.4,596.6,529.6,534.3,494.9,534.9z
			 M323.9,699.5l91.8-34.5c14-39.2,28.1-78.5,42-117.7v-0.9c-4.7,1.6-9.6,3.2-14.3,4.7l25.7-69.8c2.6-4.1,10.2-6.4,15.2-7.6
			c2.2-6.4,4.5-12.7,6.7-19.2h-2.9c-29.5,11.4-59.3,23-88.9,34.5C374.2,559.2,349.1,629.4,323.9,699.5z M415.5,535.8
			c3.2-4.3,9.6-5.1,14.3-7.6c1.2,4.6-3.7,16.5-6.7,21.1c-2.6,4.3-9.6,5.8-14.3,7.6h-0.9C410.5,549.9,413,542.9,415.5,535.8z
			 M406.1,597.1c-2.6,7-5.1,14-7.6,21.1c-2.6,4.1-9.7,5.8-14.3,7.6h-0.9c2.9-8,5.8-15.9,8.5-24c4.1-1.6,8.3-3.2,12.5-4.7H406.1
			L406.1,597.1z M228.3,620.1c-4.5,1.6-8.9,3.2-13.4,4.7H214c8.5-24.3,17.2-48.4,25.7-72.7c5.1-1.6,10.2-3.2,15.2-4.7
			c2-6.7,3.8-13.4,5.8-20.1c-30.6,11.8-61.2,23.6-91.8,35.4c-25.1,70.1-50.3,140.3-75.5,210.6l92.7-34.5c14-39.2,28.1-78.5,42-117.7
			L228.3,620.1L228.3,620.1z M169.1,693.9c-5.1,2-10.2,3.8-15.2,5.8c2.6-8,5.1-15.9,7.6-24c4.1-1.6,8.3-3.2,12.5-4.7h2.9
			C174.1,678.5,171.6,686.1,169.1,693.9z M193.9,625c-5.1,2-10.2,3.8-15.2,5.8c2.9-7.9,5.8-15.9,8.5-24c4.1-1.6,8.3-3.2,12.5-4.7
			C202.3,605.8,195.8,618.4,193.9,625z M347.6,566.5c28-7.1,37.8-34.9,42.9-63.1l-23,8.5l14.3-45c-15.6,6.2-31.2,12.1-46.7,18.1
			c-5.8,15.2-11.4,30.6-17.2,45.9c-24.5,9.3-49.1,18.5-73.6,27.8l-19,53.6v0.9c24.2-9.3,48.4-18.5,72.6-27.8
			c-2,5.4-3.8,10.9-5.8,16.3c0.1,12.5,5.6,19-0.9,33.5c-5,10.8-15.6,18.1-21,27.8l-7.6,22.1c-5.4,7.5-25.5,12.7-35.3,15.2l0,0
			c-6.4,17.6-12.7,35.2-19,52.6c18.2-3.7,61.2-19.3,74.6-29.7C306,705.4,334.7,601.5,347.6,566.5z M242.6,662.2
			c25.7,5.4,46.3-26.8,37.3-50.7c-4.1-2.4-6.4-3.8-13.4-3.8l0,0C254.6,614.5,218.1,643.9,242.6,662.2z M281.9,858.5
			c0.3-10.9,3.9-40.4-2-46.9c-5.4,2-10.9,3.8-16.3,5.8c-0.3,0.7-0.7,1.2-0.9,2v61.3l46.7-16.3v-15.2c-8.9,3.2-17.9,6.4-26.8,9.6
			L281.9,858.5L281.9,858.5z M345.8,786.7c-18.6,10.1-42.1,21.1-34.4,53.6c1.6,7,3,12.5,8.5,15.2
			C358.5,874.9,399.1,784.3,345.8,786.7z M333.3,840.2c-4.3-6.4-7.2-19.4-2-27.8c2.5-5.3,5.8-6.6,10.5-9.6h4.7
			c0.7,0.3,1.2,0.7,2,0.9C357.6,818.2,351.6,840.2,333.3,840.2z M473,742.6h-3.8c-33.1,12.1-66.3,24.3-99.4,36.4v16.3
			c6-2.2,12.1-4.5,18.1-6.7v46.9c6-2,12.1-3.8,18.1-5.8v-47.8c9.8-3.5,19.8-7,29.5-10.5v46.9l16.3-5.8c16.7-13.8-18.2-44.2,21-54.5
			l0,0l0,0L473,742.6L473,742.6z M494,783.8c-0.8-16.4,14.2-19.4,26.8-21.1c0.3-4.7,0.7-9.6,0.9-14.3c-9.3,3.5-18.5,7.1-27.7,10.5
			v-10.5c9.8-3.2,19.8-6.4,29.5-9.6c-0.3-4.7-0.7-9.6-0.9-14.3c-15.6,5.8-31.2,11.4-46.7,17.2v63.1c16.3-5.8,32.4-11.4,48.8-17.2
			v-14.3c-9.8,3.5-19.8,7.1-29.5,10.5L494,783.8L494,783.8z M545.5,753.1c2-0.3,3.8-0.7,5.8-0.9c4.1,6.7,8.3,13.4,12.5,20.1
			c6.7-2.2,13.4-4.5,20.1-6.7c0.8-6.2-8.5-20.5-16.3-22.1c5.9-7.1,15.6-14.4,11.4-28.7c-1.6-3.4-2.2-4.2-5.8-5.8
			c-2.2-0.3-4.5-0.7-6.7-0.9c-13.1,4.5-26.1,8.9-39.1,13.4v64.2c6-2.2,12.1-4.5,18.1-6.7V753.1L545.5,753.1z M556,724.3h3.8
			c0.7,2,1.2,3.8,2,5.8c-3.5,6.2-8.1,8-15.2,10.5c-0.3-4.1-0.7-8.3-0.9-12.5C549,727,552.6,725.8,556,724.3z M880.9,342.5
			c7.1-32.3,32.7-49.2,49.6-71.8h-2.9c-24.3,9.6-48.4,19.2-72.6,28.7l-15.2,25.9c-14.8,24.5-21.9,52-27.7,87
			c-7.9,47.3,10.6,74.7-8.5,114.9c-14,29.3-35.8,52.2-50.5,79.4c-4.1,7.5-12.6,23-6.7,33.5c3,6.3,48.7,26.5,57.4,29.7
			c-19.6,49.8-74.7,73.5-117.5,100.6c-50.8,32-125.6,101.1-145.3,161.7l92.7-36.4c14.6-75.9,74.8-107.6,128-145.4
			c23-19,45.8-38.3,68.8-57.4c14.8-11.8,32.4-26.4,41.1-44c17.7-35.8-60.8-38.1-50.5-95.7c3.8-21.9,14.8-37,21.9-55.5
			c2.6-9.6,5.1-19,7.6-28.7c8.9-17.6,28-29.5,36.2-49.8l0,0C898.5,390.4,874.8,370.4,880.9,342.5z M517,217.6l-177.7,56.4
			l-12.1,34.7l177.7-56.4L517,217.6z M481.4,295.5l-159.6,50.7l-12.5,35.6L469.1,331L481.4,295.5z M468.4,374.6l-192.8,61.2
			l-12.5,35.6l192.8-61.2L468.4,374.6z M636.4,173.4L588,188.7c-21.4,28.4-44.2,55.8-68.8,82.3l55.9-17.7
			C596.9,227.3,617.4,200.7,636.4,173.4z M526,388c12.5-14.6,23.9-29.4,34-44.8c12.7-19.4,23.9-39,33.6-58.7l51.3-16.3L630.3,310
			c-3.7,10.2-9.2,20.5-16.7,30.8c-7.2,9.6-15.2,18.5-24.3,26.8l51.6-16.3c6.3-7.5,11.7-15.4,16.1-23.2c5.8-10.6,10.5-21,14.2-31.4
			l26.3-75L523.7,277L512,310.4l39.8-12.6c-19.4,36.1-43.8,71.3-73,105.1L526,388z M714.2,209.2c-9.1-16.4-16.4-34.1-22.2-53.4
			l-48.8,15.5c4.7,18.9,10.2,37.3,16.1,55.4L714.2,209.2z"/>
	</g>
</g>
<g>
	<path class="st0" d="M169.1,432.5c-0.1,14.8-2.8,20.2-13.8,29.9c14.8,0.1,20.2,2.8,29.9,13.8c0.1-14.8,2.8-20.2,13.8-29.9
		C184.3,446.3,178.8,443.7,169.1,432.5z"/>
	<path class="st0" d="M226.2,257.4c-0.1,14.8-2.8,20.2-13.8,29.9c14.8,0.1,20.2,2.8,29.9,13.8c0.1-14.8,2.8-20.2,13.8-29.9
		C241.6,271.1,235.9,268.6,226.2,257.4z"/>
	<path class="st0" d="M399.5,133.9c-0.1,14.8-2.8,20.2-13.8,29.9c14.8,0.1,20.2,2.8,29.9,13.8c0.1-14.8,2.8-20.2,13.8-29.9
		C414.6,147.5,409.1,145,399.5,133.9z"/>
	<path class="st0" d="M802.1,136c-0.1,14.8-2.6,20.2-13.8,29.9c14.8,0.1,20.2,2.8,29.9,13.8c0.1-14.8,2.8-20.2,13.8-29.9
		C817.3,149.6,811.8,147,802.1,136z"/>
	<path class="st0" d="M588.5,92c-0.1,14.8-2.8,20.2-13.8,29.9c14.8,0.1,20.2,2.8,29.9,13.8c0.1-14.8,2.8-20.2,13.8-29.9
		C603.6,105.7,598.1,103.2,588.5,92z"/>
</g>
</svg>
