<?xml version="1.0" encoding="utf-8"?>
<!-- Generator: Adobe Illustrator 19.0.0, SVG Export Plug-In . SVG Version: 6.00 Build 0)  -->
<svg version="1.1" id="Layer_1" xmlns="http://www.w3.org/2000/svg" xmlns:xlink="http://www.w3.org/1999/xlink" x="0px" y="0px"
	 viewBox="0 0 157 156" style="enable-background:new 0 0 157 156;" xml:space="preserve">
<g>
	<path style="fill:#5B4516;" d="M103.6,89.2v14.5h-50V89.2h-6.2v30.2c0,5.2,4.2,9.4,9.4,9.4h43.8c5.2,0,9.4-4.2,9.4-9.4V89.2H103.6z
		 M78.6,122.5c-3.5,0-6.3-2.8-6.3-6.3c0-3.5,2.8-6.3,6.3-6.3s6.3,2.8,6.3,6.3C84.9,119.7,82.1,122.5,78.6,122.5z"/>
	<path style="fill:#5B4516;" d="M53.6,41.3h50v13.7h6.2V38.2c0-5.2-4.2-9.4-9.4-9.4H56.8c-5.2,0-9.4,4.2-9.4,9.4v16.8h6.2L53.6,41.3
		L53.6,41.3z M66.1,33.5h25v3.1h-25V33.5z"/>
</g>
<g>
	<polygon id="XMLID_10_" style="fill:#5B4516;" points="106.2,63.8 87,63.8 87,65.9 93,65.9 91.9,81.1 97,81.1 97.9,65.9 
		106.2,65.9 	"/>
	<polygon id="XMLID_9_" style="fill:#5B4516;" points="101.3,80.7 105.5,80.7 102.5,67.4 98.3,67.4 	"/>
	<path style="fill:#5B4516;" d="M78,74.9c4.8,0.1,7.1-2,7-6.3c0.1-4.2-2.3-6.3-7-6.3h-8.3v19.3h4.2v-6.7H78z M73.9,65h3.3
		c2.4-0.1,3.6,1.1,3.5,3.6c0.1,2.4-1,3.6-3.5,3.5h-3.3V65z"/>
	<polygon id="XMLID_6_" style="fill:#5B4516;" points="117.4,75 119.9,75 119.9,73.4 117.5,73.4 117.6,71.6 113.1,71.6 112.9,73.4 
		111.7,73.4 112.9,71.2 120.1,71.2 120.1,69.5 113.8,69.5 114.1,68.9 110.1,68.9 109.8,69.5 107.6,69.5 107.6,71.2 108.9,71.2 
		107.7,73.3 107.7,75 112.8,75 112.7,76.3 107.5,76.3 107.5,77.9 112.5,77.9 112.3,80.9 117,80.9 117.2,77.9 120.3,77.9 120.3,77.9 
		120.3,76.3 117.3,76.3 	"/>
	<path style="fill:#5B4516;" d="M55.8,74.9H60c4.8,0.1,7.1-2,7-6.3c0.1-4.2-2.3-6.3-7-6.3h-8.3v19.3h4.2L55.8,74.9L55.8,74.9z
		 M55.8,65h3.3c2.4-0.1,3.6,1.1,3.5,3.6c0.1,2.4-1,3.6-3.5,3.5h-3.3V65z"/>
	<path style="fill:#5B4516;" d="M36,77.2h7.5l1.6,4.4h4.5l-7.3-19.3h-5.2l-7.3,19.3h4.5L36,77.2z M39.8,66.2l2.8,8.2h-5.7L39.8,66.2
		z"/>
	<polygon id="XMLID_1_" style="fill:#5B4516;" points="107.9,65.8 111.6,65.8 111.5,66.8 107.3,66.8 107.3,68.5 120.7,68.5 
		121.2,73 120.3,73.4 120.3,75.5 121.4,75.1 122,80.9 126.1,80.9 125.2,73.5 126.7,72.9 126.7,70.8 125,71.5 124.6,68.5 126.8,68.5 
		126.4,64.7 124.8,64.7 125,66.8 124.4,66.8 124,63.4 120.2,63.4 120.6,66.8 116.1,66.8 116.2,65.8 119.7,65.8 119.7,64.2 
		116.3,64.2 116.4,63.4 111.9,63.4 111.8,64.2 107.9,64.2 	"/>
</g>
</svg>
