<?xml version="1.0" encoding="utf-8"?>
<!-- Generator: Adobe Illustrator 21.1.0, SVG Export Plug-In . SVG Version: 6.00 Build 0)  -->
<svg version="1.1" id="Layer_1" xmlns="http://www.w3.org/2000/svg" xmlns:xlink="http://www.w3.org/1999/xlink" x="0px" y="0px"
	 viewBox="0 0 157 156" style="enable-background:new 0 0 157 156;" xml:space="preserve">
<style type="text/css">
	.st0{fill:#5B4516;}
</style>
<g>
	<polygon id="XMLID_33_" class="st0" points="59.6,67.5 63.9,60.1 63.9,67.3 69.1,67.2 68.8,57.7 71.8,57.6 72.1,56.1 66.1,56.3 
		68.2,52.5 63.2,52.7 61,56.5 57.8,56.5 57.3,58.1 60.1,58 54.6,67.6 	"/>
	<path class="st0" d="M47.6,66.6l-7.7,0.3l0.4-1.5l7.2-0.3l0.4-1.3l-7.2,0.1l0.4-1.4l4.8-0.1c1.1,0,2.3-0.9,2.7-2l1.6-5.7l-6.8,0.1
		l0.4-1.5l7.7-0.3l0.4-1.3L44.1,52l0.4-1.5l6.7-0.1l0.4-1.3l-18.6,0.5l-0.4,1.3l6.7-0.1l-0.4,1.5L31,52.5l-0.4,1.3l7.7-0.3L38,55.1
		l-6.8,0.1L29,62.8l6.8-0.1L35.5,64l-7.1,0.3L28,65.6l7.2-0.3l-0.5,1.5L27,67.1l-0.4,1.3l20.6-0.6L47.6,66.6z M42.8,56.6l2.4-0.1
		l-0.5,1.6h-2.4L42.8,56.6z M41.9,59.4l2.4-0.1l-0.3,0.9c-0.1,0.4-0.6,0.8-1,0.8h-1.5L41.9,59.4z M36.3,61.1h-2.3l0.5-1.6h2.3
		L36.3,61.1z M37.1,58.2l-2.3,0.1l0.5-1.6l2.3-0.1L37.1,58.2z"/>
	<polygon id="XMLID_27_" class="st0" points="63.2,48.4 62.6,50.1 53.5,50.4 48.7,67.7 53.9,67.6 58.3,51.8 73.5,51.4 73.9,49.9 
		67.8,50 68.3,48.2 	"/>
</g>
<g>
	<path id="XMLID_26_" class="st0" d="M78.5,110.7l0.9-3c0.6-0.8,4-3.5,3.8-4.2c-0.6,0.1-1.4,0.1-2,0.3c-0.8,0.1-1.8,1.5-2.1,2.3
		c-0.1,0-0.1,0-0.3,0c-0.3-0.8-0.4-1.4-0.6-2.1c-0.8,0-1.5,0.1-2.4,0.1l-0.1,0.1c1.1,1.9,1.8,3.5,0.6,6.7L78.5,110.7z"/>
	<path id="XMLID_25_" class="st0" d="M111.5,73.9l-0.4-0.1l-5.7,0.5l-1.5,5.2c1.9-0.1,3.9-0.3,5.8-0.5
		C110.3,77.3,110.8,75.7,111.5,73.9z"/>
	<path id="XMLID_24_" class="st0" d="M98.6,95.7c1.5-3.7,3-7.3,4.6-11c0.9-0.1,1.8-0.3,2.7-0.4c0.8-1,1.4-2,2.1-3l-0.4-0.1
		c-2.5,0.3-5.1,0.4-7.5,0.6c0.3-0.4,0.5-0.9,0.9-1.3c-2.1,0.1-4.3,0.3-6.4,0.4c-0.4,0.5-0.8,1-1.1,1.5c-2.7,0.3-5.3,0.4-8,0.6
		l-2.1,3c0.9,0,1.6-0.1,2.5-0.1c-3.8,3.9-7.6,7.7-11.3,11.6c2-0.1,3.9-0.3,5.9-0.4c3-3.2,6.1-6.3,9.1-9.4c0.1,0,0.1,0,0.3,0
		c-2.3,3.2-4.4,6.3-6.7,9.6v0.1c2.1-0.1,4.3-0.4,6.4-0.5c2.1-3.2,4.4-6.4,6.6-9.6c-1.1,2.9-2.3,5.9-3.4,8.9
		C94.6,95.9,96.5,95.8,98.6,95.7z"/>
	<path id="XMLID_23_" class="st0" d="M67.2,109.8c-1.3,0-2.4,0.1-3.7,0.1h-0.1c0.5-1.9,2.3-1.6,3.7-1.4c0.3-0.5,0.4-1,0.6-1.5
		c-1.1,0.1-2.3,0.1-3.4,0.3l0.4-1.1l3.7-0.1c0.1-0.5,0.3-1.1,0.4-1.6c-1.9,0.1-3.9,0.3-5.8,0.4l-2.1,7c2-0.1,4-0.1,6.1-0.3
		L67.2,109.8z"/>
	<path class="st0" d="M67.3,82.5L67.3,82.5c-0.5-0.1-1.1-0.1-1.8,0c1.8-2.3,3.5-4.6,5.2-6.8c0.4-0.4,1.4-0.4,2-0.4
		c0.5-0.6,0.9-1.3,1.4-1.9l-0.3-0.1L62.8,74L47.2,94.9c3.8-0.3,7.6-0.5,11.4-0.8C61.5,90.2,64.4,86.4,67.3,82.5z M63,79.9
		c0.5-0.4,1.3-0.3,1.9-0.4c0,0.5-1,1.6-1.4,2.1C63,82,62.3,81.9,61.6,82h-0.1C61.9,81.2,62.4,80.5,63,79.9z M56.5,88.7L56.5,88.7
		c0.5-0.8,1-1.6,1.6-2.4c0.5,0,1-0.1,1.5-0.1l0.3,0.1c-0.5,0.8-1,1.4-1.5,2C57.8,88.7,57.1,88.7,56.5,88.7z"/>
	<path id="XMLID_19_" class="st0" d="M67.3,87.7c3.3,1.9,8.3-4.2,4.6-5.3C70.2,82.6,65.3,84.8,67.3,87.7z"/>
	<path id="XMLID_18_" class="st0" d="M54.4,81c3.4,0.1,5.4-2.7,7-5.6c-0.9,0-1.9,0.1-2.8,0.1c1-1.5,2-3,3.2-4.6l-6.1,0.5
		c-1.1,1.5-2.3,3-3.4,4.6c-3,0.3-6.1,0.4-9.1,0.6c-1.3,1.8-2.7,3.5-3.9,5.3v0.1c3-0.3,6.1-0.4,9-0.6c-0.4,0.5-0.8,1-1.1,1.6
		c-0.4,1.4,0,2.3-1.3,3.7c-0.9,1-2.4,1.5-3.3,2.4l-1.6,2.1c-0.9,0.6-3.3,0.5-4.4,0.5c-1.3,1.8-2.7,3.4-3.9,5.2
		c2.1,0.3,7.5-0.1,9.4-0.8C45.1,94.9,51.8,84.4,54.4,81z"/>
	<path class="st0" d="M46.8,105.3c-2.4,0.5-5.4,0.9-5.7,4.8c0,0.9-0.1,1.5,0.5,2C45.2,115.5,52.8,106.8,46.8,105.3z M44.3,107.7
		c0.5-0.5,0.9-0.5,1.5-0.8l0.5,0.1l0.1,0.1c0.5,1.9-0.9,4.2-2.9,3.5C43.3,109.9,43.4,108.4,44.3,107.7z"/>
	<path id="XMLID_15_" class="st0" d="M38.6,105.9c-0.6,0-1.4,0-2,0.1l-0.1,0.1l-2,6.8c1.9-0.1,3.8-0.1,5.8-0.3l0.5-1.6
		c-1.1,0-2.1,0.1-3.3,0.1h-0.1C37.6,109.9,39,106.8,38.6,105.9z"/>
	<path id="XMLID_14_" class="st0" d="M45.3,83.6c-0.4-0.4-0.6-0.6-1.4-0.9c-1.5,0.4-6.6,2.4-4.6,5.3C42.2,89.5,45.6,86.6,45.3,83.6z
		"/>
	<path class="st0" d="M75.2,105.1c-0.1-0.4-0.1-0.5-0.5-0.9l-0.8-0.4c-1.6,0-3.2,0.1-4.8,0.1l0,0l-2.1,7.1c0.8,0,1.5-0.1,2.3-0.1
		l0.9-2.9c0.3,0,0.5,0,0.6,0.1c0.3,0.9,0.5,1.8,0.8,2.7l2.4-0.1c0.3-0.6-0.3-2.5-1-3C73.9,107.4,75.2,106.9,75.2,105.1z M70.7,106.9
		c0.1-0.5,0.3-0.9,0.3-1.4c0.4,0,0.9,0,1.3-0.1l0.4,0.1c0,0.3,0,0.5,0,0.8C72.1,106.9,71.6,106.9,70.7,106.9z"/>
	<path class="st0" d="M39.3,83L39.3,83c-0.5-0.1-1,0-1.6,0h-0.1l5.3-7.2c0.6,0,1.3,0,1.9,0l1.3-2c-3.8,0.3-7.6,0.5-11.4,0.9
		c-5.2,7-10.4,13.9-15.4,20.9c3.8-0.3,7.7-0.5,11.5-0.8C33.4,90.7,36.3,86.8,39.3,83z M35.1,80c0.5,0,1-0.1,1.5-0.1
		c0.1,0.5-1,1.6-1.4,2.4c-0.6,0-1.3,0.1-1.9,0.1C33.9,81.6,34.6,80.7,35.1,80z M28.3,89.2c0.5-0.8,1.1-1.6,1.6-2.4
		c0.5,0,1-0.1,1.5-0.1l0.4,0.1c-0.5,0.8-1.1,1.5-1.6,2.3C29.5,89.1,28.9,89.1,28.3,89.2z"/>
	<path id="XMLID_8_" class="st0" d="M119.9,68.3c-0.9,0.8-1.8,1.5-2.5,2.4c-2.5,2.3-4.2,5.1-6.1,8.7c-2.4,4.9-1.3,8.6-4.8,12.5
		c-2.5,2.8-5.7,4.6-8.3,7.1c-0.8,0.8-2.1,2.1-1.9,3.5c0.1,0.8,4.6,4.6,5.4,5.2c-3.8,4.8-10.7,5.7-16.4,7.2c-6.7,1.9-17.4,7-21.6,13
		l11.5-0.9c4.2-8,12-9.5,19.1-11.9c3.2-1.4,6.4-2.7,9.6-4c2-0.8,4.6-1.9,6.1-3.5c3.2-3.4-5.4-6.3-2.4-12.4c1.1-2.3,2.9-3.7,4.3-5.4
		c0.6-1,1.3-1.9,1.8-2.9c1.6-1.6,4-2.3,5.7-4.3c2.3-2.8,0.3-5.8,1.9-8.7c1.8-3.3,5.1-4.3,7.7-6.1l-0.1-0.3
		C125.9,67.8,123,68.1,119.9,68.3z"/>
	<path id="XMLID_7_" class="st0" d="M110.6,26.4c-3.4-1.4-7.1-2.4-10.9-2.9v-3.9h5.4v-4H87.4v4h2.7v3.4C68.5,23.8,48,35.8,48,35.8
		h10.9c0,0,31-14.3,50.3-2.7c19.3,11.5,23.1,34,23.1,34l0,0h6.8C139.1,67.1,135.4,40.3,110.6,26.4z"/>
	<path id="XMLID_6_" class="st0" d="M109.2,116c0,0-21,16.3-39.5,16.3C39.5,132.3,29,116,29,116h-9.5c0,0,5.2,25.8,50.3,25.8
		c24.4,0,47.8-22,48.9-25.8C118.8,116.3,109.2,116,109.2,116z"/>
	<polygon id="XMLID_5_" class="st0" points="77.9,67.1 84.8,67.1 95.7,33.1 88.8,33.1 	"/>
	<path id="XMLID_4_" class="st0" d="M57.7,111.7c2.3-1-0.5-5.6,4.2-5.3c0.1-0.5,0.4-1.1,0.5-1.6l-0.4-0.1l-12.3,0.6l-0.5,1.8
		l2.3-0.1l-1.5,5.2c0.8,0,1.5,0,2.3,0l1.6-5.3c1.3,0,2.4-0.1,3.7-0.1l-1.5,5.2C56.5,111.8,57.1,111.7,57.7,111.7z"/>
	<polygon id="XMLID_3_" class="st0" points="87.4,67.1 95.7,67.1 113.2,53.5 110.6,48.1 	"/>
	<path id="XMLID_2_" class="st0" d="M114.6,70.6c0.6-0.6,1.3-1.3,1.9-2c-2.1,0.1-4.2,0.4-6.3,0.5c-0.4,0.4-0.8,0.8-1.1,1.1
		c-4.2,0.3-8.3,0.6-12.6,0.9c-3.4,3.3-6.8,6.4-10.2,9.7c1.9-0.1,3.9-0.3,5.8-0.4c1.6-1.6,3.4-3.3,5.1-4.8c0.1,0,0.1,0,0.3,0
		l-1.4,4.4c2-0.1,3.9-0.3,5.9-0.4l1.5-5.2c-1.8,0.1-3.7,0.3-5.4,0.4c2.7-2.8,10.9-0.5,14.4-2C113.1,72.1,113.9,71.4,114.6,70.6z"/>
	<path id="XMLID_1_" class="st0" d="M67.2,81.5c3-0.1,5.9-0.4,9-0.5c-0.4,0.5-0.8,1-1.1,1.5c-0.3,1,0,2.3-0.9,3.3
		c-1,1.3-2.8,1.9-3.8,3c-0.5,0.8-1.1,1.4-1.6,2.1c-1.4,0.1-2.7,0.3-4,0.4c-1.5,0.5-3,3.9-4,5.2c3-0.3,6.1-0.5,9.1-0.8
		c2.8-1,10.6-11.9,12.6-15.2c1-0.1,2-0.1,3-0.3c1.4-1.8,2.8-3.7,4-5.4l-2.9,0.3h-0.1c1-1.5,2.1-2.9,3.2-4.4h-0.3l-5.8,0.4
		c-1,1.5-2.1,3-3.2,4.4c-3,0.3-6.2,0.5-9.2,0.6C69.9,78,68.5,79.7,67.2,81.5z"/>
</g>
</svg>
