<?xml version="1.0" encoding="utf-8"?>
<!-- Generator: Adobe Illustrator 21.1.0, SVG Export Plug-In . SVG Version: 6.00 Build 0)  -->
<svg version="1.1" id="Layer_1" xmlns="http://www.w3.org/2000/svg" xmlns:xlink="http://www.w3.org/1999/xlink" x="0px" y="0px"
	 viewBox="0 0 157 156" style="enable-background:new 0 0 157 156;" xml:space="preserve">
<style type="text/css">
	.st0{fill:#5B4516;}
</style>
<path id="XMLID_13_" class="st0" d="M103.8,74.9c-6.3,0-11.4,5.1-11.4,11.4c0,0.5,0,1,0.1,1.6c0,0,0,0,0-0.1c0.7,5.7,5.5,10,11.3,10
	l0,0l0,0c6.3,0,11.4-5.1,11.4-11.4C115.1,80.1,110.1,74.9,103.8,74.9z"/>
<path class="st0" d="M133.7,82.9c-1.2,0.7-2.6,1.2-4.1,1.2c-4.2,0-7.6-3.5-7.6-7.8c0-3.6,2.4-6.7,5.7-7.6c-0.1-0.1-7.8-11.8-23-11.7
	H75.8l-2.4,11.2c0,0-4.7-8.5-20.6-8.4C37,59.9,27.6,69.1,26,78.2h16.6c0,0,3.8-10.5,12.7-4.8c1.9,1.6,5.9,9.3-10.7,15.6
	c0,0,11.7,4.7,7.2,14.4c-1.6,3.8-8.1,6.1-13,5.1c-2.8-1.2-4.2-4.1-3.1-8.5c-4.9-0.1-16,0-16,0s-2,8.3,2.5,14.4
	c1.1,1.4,2.6,2.9,4.7,4c10.1,4.2,19,3.2,25.1,1.6c9.1-2.3,12.4-6.7,12.4-6.7h20.2L88.1,96l2.8,3l-5.9,30.1c0,0,7.3,0,16.8-3.1
	c7.5-2.4,18.3-8.1,24.1-14.4C135.5,100.7,133.7,83.4,133.7,82.9z M69.1,92.2L68.2,92c0,0-1.7-2.2-4.3-3.7c2.5-2.3,5.8-4.4,5.8-4.4
	L69.1,92.2z M102.9,102.5c-8.7,0-15.6-7.2-15.6-16.1s7-16.1,15.6-16.1s15.6,7.2,15.6,16.1C118.5,95.4,111.5,102.5,102.9,102.5z"/>
<path id="XMLID_9_" class="st0" d="M136.3,61.8c-1,0.4-1.7,0.5-2.2,1.2c-1.4,1.9,0.2,5.3,3,4.6C140.4,66.8,139.9,61.9,136.3,61.8z"
	/>
<circle id="XMLID_8_" class="st0" cx="130.5" cy="75.8" r="6.4"/>
<g>
	<path id="XMLID_7_" class="st0" d="M120.8,48.9c4.3,1.6,8.5,3.1,12.9,4.7c-1.8-1.9-6.4-3.8-9-4.9c-6.7-3-13.6-5.5-21.8-7.5
		c-2.2-0.4-4.3-0.7-6.4-1.1c-0.1,1.4-0.7,2-1.1,3.1c-0.1,0.1-0.2,0.2-0.4,0.4C104.3,44.6,112.8,46.4,120.8,48.9z"/>
	<path class="st0" d="M85.7,33c-2.3,5.8-4.6,11.5-6.9,17.3h4.3c0.7-1.8,1.4-3.5,2.2-5.3c1.6,0,3.1-0.1,4.7-0.1
		c1.7-0.4,3.2-1.4,4.1-2.6c2-2.9,0.8-7.6-1.9-8.7C90.6,32.9,87.8,33,85.7,33z M89.6,38c0.4,0.2,0.4,0.2,0.5,0.6
		c0,1.9-1.4,2.8-3.2,2.5V41c0.5-1.2,1-2.3,1.4-3.5C88.9,37.5,89.3,37.6,89.6,38z"/>
	<path id="XMLID_4_" class="st0" d="M76.2,47.3h2c1.9-4.9,3.8-9.9,5.8-14.8h3.8c0.2-0.6,0.5-1.3,0.7-1.9h-5.8
		C80.6,36.2,78.3,41.7,76.2,47.3z"/>
	<path id="XMLID_3_" class="st0" d="M74.7,45.1c3.1,0,2.8-2.3,3.6-4.3c1.3-3.5,2.8-7,4.1-10.6h3.7c0.4-0.7,0.7-1.4,1.1-2.2h-6.1l0,0
		c-2.2,5.5-4.3,11.2-6.5,16.7L74.7,45.1L74.7,45.1z"/>
	<path id="XMLID_2_" class="st0" d="M73.4,45.1H74c0.5-1.2,0.8-2.5,1.3-3.7c-0.8,0-1.2,0-1.4-0.6c-0.8-1.9,1.3-3.2,3.1-3.1
		c0.6-1.4,1.1-2.9,1.7-4.3C78.1,33,77,33,76.2,33c-2.5,1-4.7,0.8-6.3,2.8l0,0C66.7,40,69.2,43.9,73.4,45.1z"/>
	<path id="XMLID_1_" class="st0" d="M42.3,49.6c5.9-2,12-3.2,18.8-4.7c2.5-0.4,4.9-0.7,7.5-1.1c-0.6-1.1-1.2-2-1.3-3.5h-0.6
		c-1.6,0.4-3,0.6-4.6,1c-4,1.1-8.1,2-11.8,3.5c-4.1,1.6-8.1,3.2-11.9,5.2l0,0c-1.9,1.1-3.8,2-5.8,3.1C35.8,51.9,39,50.7,42.3,49.6z"
		/>
</g>
</svg>
