<?xml version="1.0" encoding="utf-8"?>
<!-- Generator: Adobe Illustrator 21.1.0, SVG Export Plug-In . SVG Version: 6.00 Build 0)  -->
<svg version="1.1" id="Layer_1" xmlns="http://www.w3.org/2000/svg" xmlns:xlink="http://www.w3.org/1999/xlink" x="0px" y="0px"
	 viewBox="0 0 157 156" style="enable-background:new 0 0 157 156;" xml:space="preserve">
<style type="text/css">
	.st0{fill:#5B4516;}
</style>
<g>
	<path id="XMLID_31_" class="st0" d="M101.2,119.1c0.5,0,0.7-0.1,1-0.4c0.2-0.2,0.2-0.7,0.2-1.3v-2h-8.5v-0.1
		c-0.1-0.5-0.2-0.7-0.4-0.8c-0.2-0.1-0.5-0.2-1-0.2h-3.7l0.2,1.2h-3.6c-0.5,0-0.8,0.1-1.1,0.2s-0.5,0.4-0.6,0.8v-1.1h-4.1v3.7h4.1
		v-1h14.7v1H101.2L101.2,119.1L101.2,119.1z"/>
	<path class="st0" d="M100.6,129.6h2.3l-1.6-2h1.4v-2.4h-5.3v-0.7h4.2v-2h-4.2v-0.6h4.9v-2.2h-4.9V119h-4v0.6h-4.9V119h-4v0.6h-4.6
		v2.2h4.6v0.6h-3.8v2.2h3.8v0.7h-5.3v2.4h1.7l-1.7,2h2.5v5H85l-4.1,3.4h4c1,0,1.6,0,1.8-0.1c0.4-0.1,0.7-0.4,1.2-0.8l3.4-3l3.6,3.1
		c0.5,0.4,1,0.7,1.3,0.8c0.2,0,0.5,0.1,1.1,0.1h4.4l-4.4-3.4h3.5L100.6,129.6L100.6,129.6z M88.5,121.8h5v0.6h-4.9v-0.6H88.5z
		 M88.5,124.5h5v0.7h-4.9v-0.7H88.5z M95.8,133.8c-0.4-0.1-0.8-0.2-1.4-0.2h-2.8l1.7-1.4h-5.2l-2.2,1.8v-2.4h10.6v2.8
		C96.3,133.9,96.1,133.8,95.8,133.8z M87.8,128.5L87.8,128.5c-0.5,0-1,0-1.2,0.2c-0.2,0.1-0.5,0.5-0.6,1v-1.2h-1.2l0.7-0.8h11.4
		l0.6,0.8H87.8L87.8,128.5z"/>
	<path id="XMLID_25_" class="st0" d="M62.2,118.6h12.3c0.6,0,1-0.1,1.2-0.4c0.2-0.2,0.4-0.7,0.4-1.3v-1.7H62.2V118.6z"/>
	<path id="XMLID_24_" class="st0" d="M74.9,127.2c-0.2-0.1-0.5-0.2-1-0.2h-3l1.1,2.8h-5.5l2.6-4.9h8.3v-3.6H60.9v3.6h3.5l-2.8,5.5
		v2.9h9.6l1.2-2.6l0.8,2c0.1,0.4,0.4,0.7,0.5,0.8c0.2,0.1,0.5,0.2,1,0.2h3l-2.2-5.6C75.4,127.6,75.2,127.3,74.9,127.2z"/>
	<path id="XMLID_23_" class="st0" d="M58.1,114.5h-2.9l0.6,3.8c0.1,0.6,0.2,1,0.5,1.2s0.7,0.4,1.2,0.4h2.9l-0.7-3.8
		c-0.1-0.6-0.2-1-0.6-1.1C59.1,114.7,58.6,114.5,58.1,114.5z"/>
	<path id="XMLID_22_" class="st0" d="M99.3,37.3c2.4,1.9,4.3,4.3,5.4,7.3c1.2,2.4,1.9,5,2.3,7.8c0.1,0.8,0.1,1.8,0.1,2.6
		c0.7-0.5,1.3-1.1,1.9-1.8c6.1-7,2.3-13.5,12.5-11.1c0,0-8.4-7.1-12-4.1c-4.1,4.7-4.8-1.2-1.1-1.6c3.5-0.4,7.4-0.4,9.6-4.1
		c1.9-3.5-0.5-5.5-0.5-5.5c-1.6,3.5-2.9,4.2-7.4,3.5c-4.3-0.5,2.2-2.6,3.7-5.6c1.8-4-1.6-6.4-1.6-6.4s0,7.7-11.7,8
		c-3,0.1-6,0.7-8.2,2c-1.6,1-2.6,2-3.4,3.2C92.9,32.7,96.4,34.7,99.3,37.3L99.3,37.3z"/>
	<path id="XMLID_21_" class="st0" d="M119.4,128.1h7.2v-3.4h-7.2v-3.6h-4.4v3.5h-4.4l2.6-4.8h14.5v-3.4H115l1.2-2.3h-3.6
		c-0.6,0-1.1,0.1-1.4,0.4c-0.1,0.1-0.2,0.2-0.4,0.6l-0.7,1.2H105v3.4h3.2l-2.6,4.8v3.4h9.4v2.2h-10.5v3.4h10.5v4.4h4.4v-4.4h9V130
		h-9V128.1L119.4,128.1z"/>
	<path id="XMLID_20_" class="st0" d="M60.2,122.6h-6.5v3.4h2.3v8.3l-1.8,4.1h3.1c0.6,0,1.1-0.1,1.3-0.2c0.2-0.2,0.5-0.6,0.7-1.1
		l0.2-0.6l0.7,0.7c0.5,0.5,0.8,0.7,1.1,0.8c0.2,0.1,0.7,0.1,1.3,0.1H76c0.6,0,1-0.1,1.3-0.5c0.2-0.2,0.4-0.7,0.4-1.3v-1.9H60.2
		V122.6z"/>
	<path class="st0" d="M43,129.6h6.6c0.6,0,1-0.1,1.2-0.5c0.2-0.4,0.4-0.8,0.4-1.7v-1h-4l1.1-2.2h4v-3.1h-9.4v-1.6h6.2
		c0.6,0,1-0.1,1.2-0.5s0.4-0.8,0.4-1.6v-1.1h-7.8v-2.2h-4.6v2.2h-7.9v3.1h7.9v1.6h-9.5v3.1h4.1l1.1,2.2h-4.2v3.1h8.5v1.8h-9.8v3.1
		h9.8v4h4.6v-4h9.5v-3.1h-9.5L43,129.6L43,129.6z M38.7,126.6l-1.1-2.2h6.2l-1.1,2.2H38.7z"/>
	<path class="st0" d="M58.8,110.9c12.9,1.6,25-3,33.6-11.3c6.4,7.1,16.7,10,26.3,6.5c12.4-4.7,18.7-18.5,14.2-30.9
		c-4.3-11.7-16.8-17.9-28.6-14.8c-3.8-16.7-17.7-29.9-35.7-32.1C45.9,25.8,25.2,42,22.6,64.8C19.8,87.5,36.1,108.2,58.8,110.9z
		 M104.1,66.7c0.4-0.1,0.7-0.2,1.1-0.4c9-2.8,18.7,1.9,22.1,10.9c3.5,9.4-1.3,19.7-10.6,23.2c-7.3,2.8-15.4,0.4-20.1-5.4
		c-1.3-1.6-2.3-3.2-3-5.3c-1-2.8-1.3-5.5-1-8.2c0.2-2.2,0.8-4.3,1.9-6.2C96.4,71.5,99.8,68.4,104.1,66.7z M32.8,66
		c2-17.2,17.5-29.3,34.7-27.4c14.4,1.7,25.3,13.1,27.3,26.8c-1.3,1.1-2.4,2.4-3.5,3.7v0.2l0,0c-2.9,4-4.7,9-4.7,14.3
		c0,0.4,0,0.6,0,1c-0.1,0.6-0.1,0.6-0.1,0.6c0.1,1.7,0.4,3.2,0.8,4.9c-6.5,7.4-16.6,11.8-27.1,10.5C43,98.6,30.7,83.1,32.8,66z"/>
	<path class="st0" d="M97.9,93.4c1.6,2,3.6,3.7,6,4.8c3.7,1.7,8,2,12.1,0.5c4.1-1.6,7.2-4.6,8.9-8.3c1.7-3.7,1.9-8,0.4-12.3
		c-1.6-4.2-4.6-7.3-8.3-9c-3.6-1.7-7.7-1.9-11.7-0.6c-0.1,0-0.4,0.1-0.5,0.1c-4.1,1.6-7.2,4.6-8.9,8.3c-1.7,3.7-1.9,8-0.4,12.3
		C96.2,90.8,96.9,92.2,97.9,93.4z M106.5,97.2c-0.6-0.1-1.2-0.4-1.8-0.7c-2.3-1.1-4.2-2.6-5.8-4.8c-0.2-0.5-0.6-0.8-0.8-1.3l2-0.7
		l6-2.3c0.5,0.5,1,1,1.6,1.3L106.5,97.2z M123.3,89.6c-0.1,0.1-0.1,0.4-0.2,0.5l-7.1-4.9c0.1-0.5,0.1-1,0.1-1.4l7.9-4
		C125,83.1,124.7,86.6,123.3,89.6z M114.6,70.2c0.6,0.2,1.2,0.4,1.8,0.7c2.8,1.2,5,3.4,6.5,6.1l-8,3c-0.5-0.5-1-1-1.6-1.2
		L114.6,70.2z M112.5,89c0.5-0.1,0.8-0.4,1.2-0.7l7.1,4.9c-2.6,2.9-6.5,4.6-10.5,4.6l1.3-8.6C111.9,89.2,112.3,89.1,112.5,89z
		 M105.3,70.6c0.1,0,0.1-0.1,0.2-0.1c1.7-0.6,3.5-1,5-0.8l-1.3,8.6c-0.2,0-0.6,0.1-0.8,0.2l0,0c-0.5,0.1-0.8,0.4-1.3,0.6l-2.6-1.8
		l-4.4-3.1C101.6,72.6,103.3,71.4,105.3,70.6z M97.8,77.8c0.1-0.1,0.1-0.4,0.2-0.5l5.6,4l1.4,1c-0.1,0.5-0.1,1-0.2,1.4l-2.5,1.2
		l-5.4,2.6C96.1,84.3,96.4,80.8,97.8,77.8z"/>
</g>
<path class="st0" d="M91,68.7c0-0.4,0-0.6,0-1c0-0.2,0-0.5,0-0.7c-0.1-0.7-0.1-1.3-0.2-1.9c0-0.1,0-0.1,0-0.2
	c-0.8-4.4-2.6-8.5-5.3-11.9c0,0,0-0.1-0.1-0.1c-0.1-0.1-0.1-0.1-0.2-0.2c-0.1-0.1-0.2-0.2-0.4-0.4C80.5,47,74.2,43.3,67,42.5
	c-7.6-0.8-14.8,1.3-20.2,5.8c-0.1,0.1-0.2,0.2-0.4,0.2l-0.1,0.1c-0.2,0.2-0.6,0.5-0.8,0.7l-0.1,0.1c-0.2,0.2-0.6,0.6-0.8,0.8l0,0
	c-0.5,0.5-1,1-1.3,1.4C43.1,51.8,43,52,43,52.1c-0.4,0.5-0.7,1-1.1,1.4c-0.1,0.1-0.2,0.2-0.2,0.4L41.5,54c0,0,0,0,0,0.1
	c-0.2,0.4-0.5,0.8-0.7,1.2c-0.1,0.2-0.4,0.6-0.5,0.8l0,0l0,0c-0.1,0.1-0.1,0.2-0.2,0.4c-0.1,0.1-0.1,0.2-0.2,0.4
	c-0.4,0.6-0.6,1.2-0.8,1.8l0,0l0,0c0,0,0,0.1-0.1,0.1c-0.2,0.5-0.4,1-0.5,1.4l0,0l0,0c0,0.1-0.1,0.1-0.1,0.2s-0.1,0.2-0.1,0.4
	c-0.1,0.5-0.4,1-0.5,1.4c-0.1,0.2-0.1,0.5-0.1,0.7c0,0.2-0.1,0.4-0.1,0.6c0,0.2-0.1,0.5-0.1,0.7c0,0.1,0,0.2-0.1,0.4
	c-0.1,0.6-0.2,1.2-0.2,1.8c0.1-0.7,0.2-1.3,0.4-2c0-0.2,0.1-0.4,0.1-0.6s0.1-0.5,0.1-0.7c0-0.1,0.1-0.2,0.1-0.4
	c0.1-0.2,0.1-0.6,0.2-0.8c0-0.2,0.1-0.4,0.1-0.5c0,0,0,0,0-0.1c-0.1,0.4-0.2,0.7-0.2,1.1l0,0c0,0,0,0.1,0,0.2v0.1
	c-0.1,0.4-0.2,0.8-0.2,1.2c0,0.1,0,0.2-0.1,0.4c0,0.1,0,0.1,0,0.2s0,0.2,0,0.2c0,0.1,0,0.2-0.1,0.5c0,0.1,0,0.4-0.1,0.5
	c0,0.2-0.1,0.6-0.1,0.8c0,0.1,0,0.2,0,0.2V67v0.1c0,0.1,0,0.2,0,0.4s0,0.4,0,0.5c0,0.5,0,1,0,1.4c-0.8,15.5,11.4,27.7,26.5,27.7
	c0.6,0,1.1,0,1.6,0c0.1,0,0.4,0,0.5,0c0.4,0,0.7-0.1,1.1-0.1c0.1,0,0.4,0,0.5-0.1c0.4,0,0.7-0.1,1.1-0.1c0.1,0,0.4,0,0.5-0.1
	c0.5-0.1,1.1-0.2,1.6-0.4l0,0c0.5-0.1,1-0.2,1.4-0.5c0.1,0,0.2-0.1,0.5-0.1c0.4-0.1,0.7-0.2,1.1-0.4c0.1,0,0.2-0.1,0.5-0.1
	c0.4-0.1,0.7-0.4,1.1-0.5c0.1,0,0.2-0.1,0.4-0.1c0.5-0.2,1-0.5,1.4-0.7l0,0c0.5-0.2,0.8-0.5,1.3-0.7c0.1-0.1,0.2-0.1,0.4-0.2
	c0.4-0.2,0.6-0.5,1-0.6c0.1-0.1,0.2-0.1,0.4-0.2c0.4-0.2,0.7-0.5,1-0.7c0.1,0,0.1-0.1,0.2-0.1c0.8-0.6,1.6-1.3,2.3-2
	c0.1-0.1,0.1-0.1,0.2-0.2c0.2-0.2,0.6-0.6,0.8-1c0.1-0.1,0.1-0.2,0.2-0.2c0.2-0.4,0.6-0.7,0.8-1.1l0.1-0.1c0.4-0.5,0.6-0.8,1-1.3
	l0,0c2.9-4.3,4.6-9.4,4.6-14.9l0,0c0-0.1,0-0.2,0-0.2C91,69.4,91,69,91,68.7z M66.6,45.8c3.1,0.4,6.1,1.3,8.5,2.6l-8.8,12.3
	c-0.5-0.1-1-0.2-1.4-0.2l0,0c-0.8-0.1-1.7-0.1-2.5,0l-7.1-13.3C58.8,45.8,62.7,45.4,66.6,45.8z M48.7,50.9c0.2-0.2,0.5-0.4,0.7-0.6
	l7.1,13.3c-0.5,0.6-1,1.3-1.4,2l-15.3-0.1C41.1,59.5,44.3,54.5,48.7,50.9z M44.7,85.2c-3.2-4.1-5-9.1-5.2-14.7l14.8,1.8
	c0.2,1.2,0.7,2.2,1.3,3.1l-8.8,12.3C46.1,87,45.4,86.2,44.7,85.2z M52.3,91.7l8.8-12.3c0.5,0.1,1,0.2,1.4,0.2c0.8,0.1,1.7,0.1,2.4,0
	L72,93C65.7,95.4,58.4,95,52.3,91.7z M78.8,89.3c-0.2,0.1-0.5,0.4-0.7,0.6L71,76.6c0.5-0.6,1-1.3,1.4-2l15.3,0.2
	C86.5,80.7,83.2,85.7,78.8,89.3z M73.1,67.8c-0.2-1.2-0.7-2.2-1.4-3.1l8.8-12.3c0.8,0.8,1.6,1.6,2.3,2.5c3.2,4.1,5,9.1,5.2,14.7
	L73.1,67.8z"/>
</svg>
