<?xml version="1.0" encoding="utf-8"?>
<!-- Generator: Adobe Illustrator 19.0.0, SVG Export Plug-In . SVG Version: 6.00 Build 0)  -->
<svg version="1.1" id="Layer_1" xmlns="http://www.w3.org/2000/svg" xmlns:xlink="http://www.w3.org/1999/xlink" x="0px" y="0px"
	 viewBox="0 0 157 156" style="enable-background:new 0 0 157 156;" xml:space="preserve">
<g>
	<polygon id="XMLID_21_" style="fill:#5B4516;" points="62.1,97.4 65.3,91.5 61.4,91.5 58.2,97.4 	"/>
	<polygon id="XMLID_20_" style="fill:#5B4516;" points="27.1,87.9 30.2,86.7 27.9,101.7 33.8,101.7 35.8,80.2 27.1,84 	"/>
	<polygon id="XMLID_19_" style="fill:#5B4516;" points="58.6,85.1 57.8,80.4 54.3,80.4 55.1,85.1 	"/>
	<path id="XMLID_18_" style="fill:#5B4516;" d="M57,97l1.6-11.1h-5.5l-0.8,2.8h2c0,0-1.3,8.3-1.2,10.3c0.1,2,2.4,2.8,2.4,2.8h16.5
		l0.4-2.8H57.8C56.7,98.7,57,97,57,97z"/>
	<polygon id="XMLID_17_" style="fill:#5B4516;" points="39.6,87.9 42.8,86.7 40.4,101.7 46.3,101.7 49.1,80 39.6,84 	"/>
	<path id="XMLID_16_" style="fill:#5B4516;" d="M87.4,86.8l0.4-3.5h12.6l0.4-6.1H82.2l-1.7,15.3c0,0,12.8-0.2,13,5.7
		c0,5.7-14.7,4.8-14.7,4.8s-0.2,0.7-0.4,5.2c11.3,1.2,22.1-2.3,22.1-10.9C100.3,88.6,87.4,86.8,87.4,86.8z"/>
	<path id="XMLID_15_" style="fill:#5B4516;" d="M69.6,80.4h-3.5L65.7,82v0h-1.6l0.4-1.6h-3.1L59,86.7h3.5l0.8-2.4h2l-0.4,3.6h-5.5
		L59,90.3h7.8c0,0-0.9,4.4-0.8,5.5c0.1,1.1,1.6,1.6,1.6,1.6h5.1l0.4-2.8H70c-0.6,0-0.4-1.2-0.4-1.2l0.4-3.2h3.5l0.4-2.4h-5.5
		l0.4-3.6h5.5l0.4-2.4h-5.5L69.6,80.4z"/>
</g>
<g>
	<path id="XMLID_14_" style="fill:#5B4516;" d="M59.5,68.7c-1.9-2.2-3.5-8.3-3.3-12.4C57.7,44.5,64.4,41,66,37
		c1.6-4-0.6-7.2-3.3-8.2c-2.7-1.1-10.2-0.9-13.1,14C46.7,61.1,59.5,68.7,59.5,68.7z"/>
	<path id="XMLID_13_" style="fill:#5B4516;" d="M45.2,52.2c-1.2-5.7-4.1-6.6-5.9-6.7c-2.1-0.2-7.9,2.7-2.9,11.4
		c8.9,14.7,23.5,13.4,23.5,13.4C49.9,67.4,46.3,57.9,45.2,52.2z"/>
	<path id="XMLID_12_" style="fill:#5B4516;" d="M50.1,71.6c-5.1-1-8-2.8-9.5-4.2c-2.8-2.5-5.2-1.5-5.8,0.4c-1.3,4.5,5.8,5.7,8.4,6.2
		c9,1.5,13.9-1.2,15.5-2.1C58.7,72,53.5,72.2,50.1,71.6z"/>
	<path id="XMLID_11_" style="fill:#5B4516;" d="M98.4,43.3c3.8,0.8,9.8,0,9.8-6.6c-0.7-9.2-15.5-7.4-15.5-7.4
		c-22.1,1.5-31.1,23.5-31.1,23.5s2.4-2.3,6.5-4.9C80.5,39.6,94.6,42.5,98.4,43.3z"/>
	<path id="XMLID_10_" style="fill:#5B4516;" d="M124.3,68.5C122.4,64,113.6,48,92.6,47.1c-14.4-0.3-25.3,8.5-27.7,13.7
		c-3,6.6,2.1,12.5,6,13.8c4.9,1.6,8.9-2.7,8.9-2.7c6.5-6.4,10.1-7.2,16.9-7.2c24.1,2.9,16.5,27.3,16,29.1
		c-7.3,16.3-19.5,19.3-29,18.8c-3.8-0.2-7.1-1.1-9.4-1.9c0-0.1,0.3,2.5,0.3,2.3c2.4,1.4,5.5,2.9,8,3.6c7.1,2,16.1,1.8,25.7-2.7
		C125.2,104.6,131.1,84.3,124.3,68.5z"/>
</g>
<path style="fill:#5B4516;" d="M68.8,107.5H44.1c-5.7,0-10.4,4.6-10.4,10.4c0,5.7,4.6,10.4,10.4,10.4h24.7c5.5,0,10-4.3,10.3-9.7
	l-0.3-3.3C77.7,110.8,73.7,107.5,68.8,107.5z M56.4,114.7H44.4v10.6c0,0.3,0,0.5-0.1,0.7c-0.1,0.3-0.4,0.5-0.7,0.6
	c-0.2,0.1-0.4,0.1-0.7,0.1h-1.6v-14.5h3.1v0.9c0.2-0.4,0.3-0.6,0.5-0.7c0.2-0.2,0.5-0.2,0.8-0.2h2.2l-0.5-1.7h2.5
	c0.3,0,0.5,0,0.6,0.1c0.2,0.1,0.3,0.3,0.3,0.5l0.3,1h5.2L56.4,114.7L56.4,114.7z M60.8,125.3c-0.2,0.1-0.5,0.2-0.8,0.2h-1.9l1.3-4.1
	c0.1-0.4,0.3-0.6,0.4-0.7c0.2-0.1,0.4-0.2,0.8-0.2l1.9,0l-1.3,4.1C61.1,124.9,61,125.2,60.8,125.3z M71.4,125.5
	c-0.4,0-0.6-0.1-0.8-0.2c-0.2-0.1-0.3-0.4-0.4-0.7l-1.1-4.1l1.9,0c0.4,0,0.6,0.1,0.8,0.2c0.2,0.1,0.3,0.4,0.4,0.7l1.2,4.1
	C73.4,125.5,71.4,125.5,71.4,125.5z M73.5,114.5H63.1l-1.4,3.1h2.9v-2.3h3v2.3h5.4v2.3h-5.4v4.8c0,0.6-0.1,1-0.4,1.3
	c-0.2,0.3-0.6,0.4-1.2,0.4h-3c-0.5,0-0.8-0.3-0.8-0.8V124h2.2c0.2,0,0.3-0.1,0.3-0.3v-3.9h-6.1v-2l1.5-3.3h-2.2v-2.3h3.3l0.4-1
	c0.1-0.3,0.3-0.5,0.4-0.5c0.2-0.1,0.4-0.1,0.7-0.1h2.2l-0.7,1.6h9.4L73.5,114.5L73.5,114.5z"/>
<path id="XMLID_4_" style="fill:#5B4516;" d="M74.5,113.8c0-0.1,0-0.2,0-0.3C74.5,113.6,74.5,113.7,74.5,113.8L74.5,113.8z"/>
<path id="XMLID_3_" style="fill:#5B4516;" d="M74.2,110.4L74.2,110.4C74.2,110.5,74.2,110.5,74.2,110.4
	C74.2,110.5,74.2,110.4,74.2,110.4z"/>
<path id="XMLID_2_" style="fill:#5B4516;" d="M74.2,110.5C74.2,110.5,74.2,110.5,74.2,110.5l0.3,3.3c0-0.1,0-0.1,0-0.2
	C74.5,112.7,74.2,110.7,74.2,110.5z"/>
<path id="XMLID_1_" style="fill:#5B4516;" d="M88,113.1"/>
</svg>
