<?xml version="1.0" encoding="utf-8"?>
<!-- Generator: Adobe Illustrator 19.0.0, SVG Export Plug-In . SVG Version: 6.00 Build 0)  -->
<svg version="1.1" id="Layer_1" xmlns="http://www.w3.org/2000/svg" xmlns:xlink="http://www.w3.org/1999/xlink" x="0px" y="0px"
	 viewBox="0 0 157 156" style="enable-background:new 0 0 157 156;" xml:space="preserve">
<path style="fill:#5B4516;" d="M92,43.3c-16.1,0-29.1,13-29.1,29.1c0,16.1,13,29.1,29.1,29.1s29.1-13,29.1-29.1
	C121.1,56.3,108.1,43.3,92,43.3z M90.8,90.2c-2.3-8.1-7.5-14.9-14.5-19.2c7.4-3.3,13.4-9.1,16.8-16.4c2.3,8.1,7.5,14.9,14.5,19.2
	C100.3,77.1,94.3,82.9,90.8,90.2z"/>
<g>
	<path style="fill:#5B4516;" d="M30.9,106.7h60.8c38.8-0.5,35.6-36.7,35.6-36.7c-6.4-35.6-39.1-31.1-39.1-31.1v-4.5
		c0-4.5-5.7-2.9-5.7-2.9l-49,26.6c-5,6.1,2.4,8.8,2.4,8.8h8.8L37,87.3h-4c-4.3,0.8-3.2,3.7-3.2,3.7l-2.1,11.2
		C26.6,106.4,30.9,106.7,30.9,106.7z M31.2,100.4l1.4-7.2c0,0-1-2.7,3-3.5h3.7L48,64.3h-8.2c0,0-8,0.2-3.3-5.5l45.5-24.7
		c0,0,3.7-1.5,3.7,2.7v4.2c0,0,34-2.6,37.9,28.9c0,0,3,33.6-33.1,34.1H34.1C34.1,104,30.2,104.3,31.2,100.4z"/>
	<path id="XMLID_12_" style="fill:#5B4516;" d="M60.2,72.4c0-13.2,8.1-24.6,19.6-29.4v-3l-38,19.9l13.4-0.3L41.8,94.7h-7.4l-1.6,6.1
		h44.9C67.3,95.6,60.2,84.8,60.2,72.4z"/>
	<polygon id="XMLID_11_" style="fill:#5B4516;" points="38.9,116.1 39.9,113.4 38.7,113.4 40.1,109.5 36.5,109.5 30.6,126.5 
		34.2,126.5 37.8,116.1 	"/>
	<path style="fill:#5B4516;" d="M47.7,119.9h3.7l0.8-2.3h-0.9l2.2-6.4h-5.4l0.6-1.8h-3.8l-0.6,1.8h-3.2l-0.7,2h3.2l-1.5,4.4h-3.8
		l-0.8,2.3h3.7c-1.1,1.8-3.2,3-5.1,3.7l-1,2.8c3.1-0.6,6.7-2.1,8.9-5l1,5h3.3l1.2-1.7h-0.7L47.7,119.9z M45.9,117.6l1.5-4.4h1.6
		l-1.5,4.4H45.9z"/>
	<polygon id="XMLID_8_" style="fill:#5B4516;" points="35.4,110.8 32.2,110.8 27.4,124.6 30.6,124.6 	"/>
	<polygon id="XMLID_7_" style="fill:#5B4516;" points="72.1,120 68.3,120 67.7,126 71.3,126 72.9,123.7 71.7,123.7 	"/>
	<polygon id="XMLID_6_" style="fill:#5B4516;" points="54,120 51.8,123.7 50.6,123.7 50.6,126 54.3,126 57.8,120 	"/>
	<polygon id="XMLID_5_" style="fill:#5B4516;" points="74.4,112 76.5,109.8 56.4,109.8 53.4,118.8 61.2,118.8 59.2,124.6 
		57.5,124.6 57.9,126.5 62.7,126.5 65.3,118.8 73.7,118.8 74.4,116.7 66,116.7 67,113.8 62.9,113.8 61.9,116.7 58.1,116.7 59.7,112 
			"/>
	<polygon id="XMLID_4_" style="fill:#5B4516;" points="98.4,116.1 89.5,116.1 91.8,109.5 87.3,109.5 85,116.1 76.1,116.1 
		75.4,118.2 84.3,118.2 81.5,126.4 85.9,126.4 88.8,118.2 97.7,118.2 	"/>
	<polygon id="XMLID_3_" style="fill:#5B4516;" points="110.5,109.7 108.8,111.8 115.1,111.8 115.8,116.1 121.1,116.1 119.8,109.7 	
		"/>
	<polygon id="XMLID_2_" style="fill:#5B4516;" points="104.2,116.2 109.9,109.7 105,109.7 99.1,116.2 	"/>
	<polygon id="XMLID_1_" style="fill:#5B4516;" points="99.4,118.8 102.4,118.8 98.5,124.3 96.9,124.3 96.9,126.4 101.8,126.4 
		107.1,118.8 113.6,118.8 111.7,124.3 109,124.3 109.6,126.4 115.5,126.4 118.9,116.7 100.1,116.7 	"/>
</g>
</svg>
