<?xml version="1.0" encoding="utf-8"?>
<!-- Generator: Adobe Illustrator 21.1.0, SVG Export Plug-In . SVG Version: 6.00 Build 0)  -->
<svg version="1.1" id="Layer_1" xmlns="http://www.w3.org/2000/svg" xmlns:xlink="http://www.w3.org/1999/xlink" x="0px" y="0px"
	 viewBox="0 0 157 156" style="enable-background:new 0 0 157 156;" xml:space="preserve">
<style type="text/css">
	.st0{fill:#5B4516;}
</style>
<g>
	<path class="st0" d="M53,95.1l8.4-60.2l-21.3,5.5c-0.7,0.2-1.1,0.9-0.9,1.5L53,95.1z M44.4,42.5c1.3-0.4,2.2,0.7,2.2,0.7
		s0.4-1.4,1.5-1.6c0,0,2.3-0.4,3.1,2.5c0,0,0.5,1.6-1,4.5c0,0-1.4,2.4-1.5,3c-0.4-0.5-2.7-2-2.7-2c-2.7-1.7-3.1-3.4-3.1-3.4
		C42.1,43.4,44.4,42.5,44.4,42.5z"/>
	<path class="st0" d="M50.4,95.2L38.7,50.6L22.6,62.9c-0.5,0.5-0.6,1.3-0.3,1.8l23.5,31C47.4,95.5,48.6,95.4,50.4,95.2z M36.1,68.9
		L35,69.7l-1.1,0.8c0.2-0.7-0.5-2.2-1.3-3.4c0.2,0.8-0.1,1.7-0.7,2.2c-0.9,0.7-2.3,0.5-3.1-0.5s-0.6-2.4,0.3-3.1
		c0.3-0.2,0.5-0.3,0.8-0.4c-0.5-0.1-1.1-0.4-1.5-0.9c-0.7-1-0.6-2.4,0.3-3.1c0.9-0.7,2.3-0.5,3.1,0.5c0.4,0.5,0.5,1.1,0.5,1.6
		c0.1-0.3,0.3-0.5,0.5-0.6c0.9-0.7,2.3-0.5,3.1,0.5c0.8,1,0.6,2.4-0.3,3.1c-0.6,0.5-1.5,0.5-2.3,0.2C34.3,67.9,35.4,68.9,36.1,68.9z
		"/>
	<path class="st0" d="M83.2,45.9c1.1-1.8,3.5-2.5,5.3-1.4l28.5,16.7l3.3-23.5c0.1-0.7-0.4-1.4-1.1-1.5L66,29
		c-0.7-0.1-1.4,0.4-1.5,1.1l-8.6,62.2L83.2,45.9z M71.6,32l3.5,5.7l-4.8,4.6l-3.5-5.7L71.6,32z"/>
	<path class="st0" d="M133.3,73.8L87.1,46.7c-0.6-0.4-1.4-0.2-1.7,0.5l-28.7,49c1.2-0.1,2.4-0.2,3.8-0.3c0.1,0,0.2,0,0.3,0
		c0.9,0,1.7,0.3,2.5,0.9c0.4,0.4,0.7,0.7,0.9,1.2c0.6-0.7,1.3-1.5,2.1-2.3c0.6-0.7,1.5-1.2,2.5-1.2c2.7-0.1,5-0.2,7-0.2
		c0.1-0.2,0.2-0.3,0.2-0.3c2.5-4.4,9.9-6.6,9.9-6.6c7.6-2.2,12.8-6.1,12.8-6.1s-0.8,6.4,0.9,14.2c0,0,0,0.1,0.1,0.3
		c0.7,0.1,1.4,0.1,2,0.2c0.7-0.7,1.6-1.1,2.6-1.1c0.1,0,0.3,0,0.4,0c3.2,0.3,4.8,0.5,8,0.8c1.1,0.1,2.1,0.7,2.6,1.6
		c0.5,0.1,0.9,0.1,1.3,0.2c0.6-0.6,1.5-0.9,2.5-0.9c0.2,0,0.4,0,0.5,0c0.6,0.1,1.2,0.2,1.7,0.3l12.5-21.4
		C134.1,74.9,133.9,74.2,133.3,73.8z M91.4,61c0,0-1.2,2-3,1c0,0-0.9-0.5-0.9-1.5c-0.3,0.7-0.6,1.7-0.2,2.3l-1.1-0.6l-1.1-0.6
		c0.7,0.1,1.5-0.6,1.9-1.3c-0.9,0.5-1.7-0.2-1.7-0.2c-1.8-1.1-0.6-3.2-0.6-3.2c0.7-1.3,3-2,3-2c2.3-0.6,3.8-1.8,3.8-1.8
		s-0.3,1.9,0.3,4.3C91.6,57.5,92.2,59.7,91.4,61z"/>
	<path class="st0" d="M38.9,100.3c-2.6,0.4-3.9,0.5-6.5,1c0.4,3.5,0.5,5.2,1,8.6c-0.7,7.6-1,11.5-1.5,19.1c2-0.4,3-0.5,5.1-0.9
		c0.2-4.2,0.3-6.3,0.5-10.5c1.1,4,1.6,6.1,2.7,10.1c2-0.3,3.1-0.5,5.1-0.7c-2.2-7.4-3.3-11.1-5.6-18.4
		C39.3,105.2,39.2,103.5,38.9,100.3z"/>
	<path class="st0" d="M31.5,102.2c-1.2,0.2-1.8,0.3-3,0.5c0.4,3.7,0.6,5.5,1,9.3c1.2-0.2,1.7-0.4,2.9-0.5
		C32,107.7,31.8,105.8,31.5,102.2z"/>
	<path class="st0" d="M61.7,115.4c-2.8,0.2-4.2,0.3-7,0.5c-0.1-2.1-0.2-3.2-0.3-5.4c2.7-0.3,4.1-0.4,6.9-0.5
		c-0.1-1.1-0.1-1.6-0.2-2.7c-2.7,0.2-4.1,0.3-6.8,0.5c-0.1-1.9-0.1-2.9-0.2-4.8c2.7-0.3,4-0.4,6.7-0.5c-0.1-1.2-0.1-1.8-0.2-3
		c-4.1,0.3-6.1,0.5-10.2,0.9c0.3-0.6,0.5-1,0.7-1.6c-2.7,0.3-4.1,0.5-6.8,0.7c-0.5,1.3-0.7,1.9-1.3,3.3c-0.1-1-0.1-1.5-0.1-2.5
		c-1.3,0.2-1.9,0.3-3.1,0.5c0.3,3.7,0.4,5.5,0.5,9.3c1.2-0.2,1.8-0.3,3-0.5c-0.1-2.2-0.2-3.3-0.3-5.4c1.2-0.2,1.7-0.3,2.9-0.4
		c0.5,9.1,0.8,13.5,1.5,22.6c3.1-0.4,4.6-0.5,7.7-0.8c-0.2-2.8-0.3-4.2-0.4-6.9c2.8-0.3,4.2-0.4,7-0.5
		C61.9,117.1,61.8,116.5,61.7,115.4z"/>
	<path class="st0" d="M68.8,98.3c-2.5,2.6-3.5,3.9-5.9,6.6c3.5-0.2,5.3-0.3,8.8-0.4c1.3-1.4,1.8-2.1,3.1-3.4c3.9-0.1,5.9-0.1,9.9,0
		c1.1,1.4,1.6,2,2.7,3.4c3.4,0.1,5,0.2,8.4,0.4c-2-2.6-3-4-5-6.5C82,97.9,77.6,97.9,68.8,98.3z"/>
	<path class="st0" d="M94.9,108.5c0.1-1.1,0.1-1.6,0.2-2.7c-12.5-0.7-18.6-0.7-31.1-0.1c0.1,1.1,0.1,1.6,0.2,2.7
		c4.6-0.3,6.9-0.4,11.5-0.4c-0.1,1.1-0.1,1.6-0.2,2.6c-4.7,0.1-7.1,0.2-11.7,0.5c0.1,1.1,0.1,1.6,0.2,2.7c4.5-0.3,6.8-0.4,11.5-0.5
		c-0.2,3.4-0.3,5-0.5,8.4c-0.5,0-0.7,0-1.3,0c-1-2.7-1.5-4.2-2.6-6.9c-2.5,0.1-3.7,0.1-6.3,0.3c1.2,2.7,1.7,4.1,2.8,6.8
		c-1.4,0.1-2,0.1-3.3,0.2c0.1,1.1,0.1,1.6,0.2,2.7c12-0.7,18.1-0.7,30.1,0c0.1-1.1,0.1-1.6,0.2-2.7c-1.5-0.1-2.2-0.1-3.6-0.2
		c1.3-2.7,1.9-4.1,3.2-6.8c-2.5-0.2-3.8-0.2-6.5-0.3c-1.3,2.7-1.8,4.1-3,6.9c-0.8,0-1.3,0-2.1,0c0.3-3.3,0.5-5,0.7-8.3
		c4.6,0.1,6.9,0.2,11.5,0.5c0.1-1.1,0.1-1.6,0.2-2.7c-4.5-0.3-6.8-0.4-11.5-0.5c0.1-1.1,0.2-1.6,0.3-2.6
		C88.2,108.2,90.5,108.3,94.9,108.5z"/>
	<path class="st0" d="M122.8,107.9c-3.3-0.5-4.9-0.8-8.2-1.2c-0.4,1.6-0.5,2.5-1,4.1c-1.7,0-2.6,0-4.4,0c-0.2,1.2-0.2,1.8-0.4,3
		c1.6,0,2.5,0,4,0c-1.2,5-1.7,7.5-2.8,12.6c6.5,0.8,9.7,1.3,16.1,2.5c0.3-1.2,0.4-1.7,0.5-2.9c-3.4-0.6-5-0.9-8.4-1.5
		c1.1-4.3,1.6-6.4,2.7-10.6c3,0.1,4.5,0.2,7.5,0.4c0.3-1.2,0.4-1.8,0.5-3c-2.9-0.2-4.4-0.3-7.3-0.4
		C122.3,109.8,122.5,109.2,122.8,107.9z"/>
	<path class="st0" d="M126.6,101.5c-3.1-0.5-4.6-0.8-7.7-1.2c-0.2,0.5-0.2,0.8-0.4,1.3c-2.8-0.4-4.2-0.5-7-0.9
		c0.2-0.5,0.3-0.7,0.5-1.3c-3.2-0.4-4.7-0.5-7.9-0.8c-0.2,0.5-0.3,0.8-0.5,1.3c-2.2-0.2-3.4-0.3-5.5-0.5c-0.1,1.2-0.1,1.8-0.2,3
		c1.9,0.1,2.8,0.2,4.7,0.4c-0.3,0.7-0.4,1.1-0.6,1.8c3.1,0.3,4.6,0.5,7.7,0.7c0.3-0.7,0.4-1.1,0.6-1.7c2.9,0.4,4.4,0.5,7.3,0.9
		c-0.2,0.7-0.3,1.1-0.5,1.7c3,0.5,4.5,0.6,7.6,1.2c0.2-0.7,0.3-1.1,0.5-1.7c1.9,0.4,2.9,0.5,4.8,0.9c0.2-1.2,0.4-1.7,0.5-2.9
		c-1.8-0.4-2.6-0.5-4.5-0.8C126.4,102.3,126.5,102,126.6,101.5z"/>
	<path class="st0" d="M103.2,105.5c-2.1,0.5-3.2,0.8-5.3,1.5c-0.2,2.1-0.3,3.2-0.4,5.3c1-0.3,1.5-0.4,2.5-0.6
		c-1,5.5-1.5,8.3-2.5,13.8c2.9,0.2,4.5,0.4,7.4,0.6c1.5-8,2.4-12,4-20C106.7,105.7,105.5,105.6,103.2,105.5z"/>
</g>
</svg>
