<?xml version="1.0" encoding="utf-8"?>
<!-- Generator: Adobe Illustrator 21.1.0, SVG Export Plug-In . SVG Version: 6.00 Build 0)  -->
<svg version="1.1" id="Layer_1" xmlns="http://www.w3.org/2000/svg" xmlns:xlink="http://www.w3.org/1999/xlink" x="0px" y="0px"
	 viewBox="0 0 157 156" style="enable-background:new 0 0 157 156;" xml:space="preserve">
<style type="text/css">
	.st0{fill:#5B4516;}
</style>
<g>
	<path id="XMLID_34_" class="st0" d="M35,32.3c-4,3.1-5.8,8.6-4,13.7c0.5,1.3,1.1,2.4,1.9,3.5C40.9,43.5,38.5,37,35,32.3z"/>
	<path id="XMLID_33_" class="st0" d="M53.5,36.6c-2.6-5.5-9.1-8.3-15.1-6.1h-0.1c4,11.6,0.1,18.8-2.2,21.8c3,1.9,7,2.4,10.5,1.1
		c2.5-1,4.6-2.6,6-4.7C45.3,43.1,50,38.6,53.5,36.6z"/>
	<path id="XMLID_32_" class="st0" d="M53.9,37.8c-0.1-0.2-0.2-0.6-0.4-0.8c-5.4,4.7-2.5,9.6-0.8,11.6C54.8,45.5,55.3,41.5,53.9,37.8
		z"/>
</g>
<g>
	<polygon id="XMLID_31_" class="st0" points="106.2,44.3 105.7,51.7 109.7,51.7 110,44.4 	"/>
	<path id="XMLID_30_" class="st0" d="M54.7,73.3c-0.1,0.2,0,0.4,0.2,0.4l30.3,0.2c0.2,0,0.5-0.2,0.5-0.4l1.2-3.8
		c0.1-0.2,0-0.4-0.2-0.5L56.3,69c-0.2,0-0.5,0.2-0.5,0.4L54.7,73.3z"/>
	<path id="XMLID_29_" class="st0" d="M23,64.3l30.8,0.1c0.2,0,0.5-0.2,0.5-0.4l1.4-4.4c0.1-0.2,0-0.4-0.2-0.4L24.6,59
		c-0.2,0-0.5,0.2-0.5,0.4l-1.4,4.4C22.7,64,22.8,64.3,23,64.3z"/>
	<polygon id="XMLID_28_" class="st0" points="97,31.9 92.3,31.9 92.2,36.2 97,36.2 	"/>
	<path id="XMLID_27_" class="st0" d="M48.4,65.8l-4.9-0.1c-0.1,0-0.2,0-0.4,0.1C43,66,43,66.1,42.9,66.1l-5.6,17.7
		c-0.5,1.4-0.7,2.8-1,4.1c-0.1,1.1,0.2,2.4,3,2.5h6c0.2,0,0.5-0.2,0.5-0.4l1.4-4.4c0.1-0.2,0-0.4-0.2-0.4h-3.1c-0.5,0-0.8-0.1-1-0.4
		c-0.1-0.1-0.1-0.7,0.4-2l5.3-16.5C48.7,66.1,48.6,65.8,48.4,65.8z"/>
	<path id="XMLID_26_" class="st0" d="M56.6,68.1h1.9c0.1,0,0.2,0,0.4,0s0.4,0,0.6,0l0,0c0,0,0.1,0.1,0.2,0.1h0.1
		c1.1-0.4,2.3-1,3.2-1.9l4.6-4.6L81,61.9l0.7,3.5c0,1,0.2,1.7,1,2.3c0.6,0.4,1.2,0.5,1.9,0.5c0.1,0,0.1,0,0.2,0h2.5
		c0.2,0,0.5-0.2,0.5-0.4L89,64c0.1-0.2,0-0.4-0.2-0.4h-1.1h-0.1c-0.1,0-0.2,0-0.4,0h-0.1c-0.2-0.1-0.4-0.5-0.4-0.7L86,57.7
		c0-0.1-0.1-0.2-0.2-0.2l-20-0.1c-0.1,0-0.2,0.1-0.4,0.2l-3.6,4.1c-1.1,1.2-1.6,1.6-1.8,1.7c-0.4,0.1-0.7,0.2-1.1,0.2h-0.6
		c-0.2,0-0.5,0.2-0.5,0.4L56.6,68.1c0,0.1,0,0.2,0,0.2C56.3,68.1,56.5,68.1,56.6,68.1z"/>
	<path id="XMLID_25_" class="st0" d="M93.1,70.4h3.7c0.2,0,0.5-0.2,0.5-0.4l1.1-3.5c0.1-0.2,0-0.4-0.2-0.5h-1.3
		c-0.2,0-0.4-0.1-0.4-0.1s0-0.1,0.1-0.7l0.5-1.4c0.1-0.2,0-0.4-0.2-0.4h-3.7c-0.2,0-0.5,0.2-0.5,0.4l-0.6,1.9
		c-0.2,0.7-0.5,1.6-0.5,2.3c-0.1,0.8,0,1.4,0.2,1.8C92.1,70.1,92.5,70.4,93.1,70.4z"/>
	<path class="st0" d="M70.8,54.6h4.4l3.5-9.1l1.4,2.2l-3.7,7l4.7,0.1l1.6-3.1l2.2,3.2l1.1-4.1l-1.6-2.3l4.2-8.1l0.5-1.8h-1.6
		l2.8-4.4l0.4-1.7l-12.5-0.1l-0.6,2.5h1L70.8,54.6z M82.8,34.8h2.3l-3,4.9l-0.2,1.2h1.9l-1.9,3.6l-1.7-2.6L82.8,34.8z"/>
	<polygon id="XMLID_22_" class="st0" points="66.9,37.4 61.6,54.2 64.4,54.2 68.8,40 69.6,40.1 65.3,54.6 70.2,54.6 74.6,40.1 
		75.8,40.1 76.4,37.6 75.3,37.6 75.9,35.8 76.8,35.8 77.4,33.2 76.6,33.2 77.1,31.7 72.2,31.6 71.7,33.2 67,33.1 66.3,35.6 71,35.8 
		70.4,37.6 	"/>
	<path id="XMLID_21_" class="st0" d="M37.3,65.8c0-0.1-0.1-0.1-0.2-0.1h-4.9c-0.2,0-0.5,0.2-0.5,0.4l-5.3,16.5
		c-0.5,1.4-0.8,1.9-1.1,2c-0.2,0.2-0.7,0.4-1.2,0.4l-3-0.1c-0.1,0-0.2,0-0.4,0.1c-0.1,0.1-0.1,0.2-0.2,0.2l-1.4,4.4
		c-0.1,0.2,0,0.4,0.2,0.5h5.9c2.8,0,4.1-1.3,4.6-2.4c0.7-1.3,1.2-2.6,1.7-4L37.2,66C37.3,66.1,37.3,66,37.3,65.8z"/>
	<path id="XMLID_20_" class="st0" d="M113.9,59.1l0.6-1.8c0.1-0.2,0-0.4-0.2-0.4h-4c-0.2,0-0.5,0.2-0.5,0.4l-0.1,0.5
		c-0.1,0.4-0.2,0.5-0.1,0.5l0,0c-0.2,0.1-0.4,0.1-0.6,0.1h-0.1L95,58.3c-0.2,0-0.5,0.2-0.5,0.4l-1.3,4c-0.1,0.2,0,0.4,0.2,0.5
		l14.7,0.1c0.1,0,2.3,0,2.6-0.1c0.7-0.2,1.4-0.8,2-1.6C113.3,60.7,113.6,59.8,113.9,59.1z"/>
	<path id="XMLID_19_" class="st0" d="M116.6,55.8c0,0.1,0,0.1,0,0.2l4.3,5.6l-9.8,8.5c-0.1,0.1-0.2,0.4-0.1,0.5c0,0,0.1,0.1,0.2,0.1
		s0.1,0,0.2,0l17.9-9.6c0.1,0,0.2-0.1,0.2-0.2c0-0.1,0-0.2,0-0.2l-4.3-5.3l13.7-13.2c0.1-0.1,0.1-0.4,0.1-0.5l-0.1-0.1
		c-0.1,0-0.2,0-0.2,0.1L117,55.6C116.7,55.5,116.6,55.6,116.6,55.8z"/>
	<path id="XMLID_18_" class="st0" d="M132.2,64.3c-0.1,0-0.1,0-0.2,0l-21,10.1c-0.1,0-0.1,0.1-0.1,0.1c0,0.1,0,0.1,0,0.2l5.3,4.4
		l-12,11l1.1-3.4c0.1-0.2,0-0.5-0.2-0.5h-0.6c-0.4,0-0.5-0.1-0.6-0.2c0,0-0.1-0.4,0.1-1.7l1.4-7.2c0-0.2-0.1-0.4-0.2-0.4h-3.7
		c-0.1,0-0.2,0-0.4,0.1c-0.1,0.1-0.1,0.2-0.2,0.4L99,85.9c-0.5,2.2-0.4,3.5,0.1,4s1.3,0.7,2.2,0.7h2l-4.8,4.3
		c-0.1,0.1-0.1,0.2,0,0.4h0.1c0.1,0,0.1,0,0.2-0.1L124,78.8c0.1,0,0.1-0.1,0.1-0.1c0-0.1,0-0.1,0-0.1l-4.7-4.2l12.9-10.1
		c0.1-0.1,0.1-0.2,0-0.4C132.3,64.3,132.3,64.3,132.2,64.3z"/>
	<path id="XMLID_17_" class="st0" d="M108,76.9c0.2,0,0.5-0.2,0.5-0.4l1.3-4.1c0.1-0.2,0-0.4-0.2-0.4h-7.1l0.4-1.1
		c0-0.1,0-0.2,0-0.2h0.5c0.2,0,0.5-0.2,0.5-0.4l1.1-3.2c0.1-0.2,0-0.4-0.2-0.4h-1.3c-0.2,0-0.4-0.1-0.4-0.1s0-0.1,0.1-0.7l0.5-1.7
		c0.1-0.2,0-0.4-0.2-0.4H100c-0.2,0-0.5,0.2-0.5,0.4L99,65.8c-0.4,1.1-0.6,2.2-0.7,3c-0.1,0.6,0,1.4,0.8,1.7h-0.5
		c-0.2,0-0.5,0.2-0.5,0.4L97.7,72h-7.1c-0.2,0-0.5,0.2-0.5,0.4l-1.3,4.1c-0.1,0.2,0,0.4,0.2,0.4h7.1l-0.2,0.6c0,0-0.1,0-0.2,0H92
		c-0.2,0-0.4,0.1-0.5,0.4l-3,6.6c-0.2,0.7-0.6,1.6-1.1,2.2c-0.2,0.2-0.4,0.4-0.2,0.4l0,0c-0.2,0.1-0.5,0.1-0.6,0.1h-0.1H86
		c-0.2,0-0.5,0.2-0.5,0.4L84.3,91c-0.1,0.2,0,0.4,0.2,0.5h1.6c1.3,0,2.4-0.2,3.2-0.7s1.8-1.9,3-4.6l3.1-6.8l-3.7,11.5
		c-0.1,0.2,0,0.4,0.2,0.4H96c0.2,0,0.5-0.2,0.5-0.4l4.4-13.8L108,76.9z"/>
	<path class="st0" d="M103.6,36.4l-5.3-0.1l-2.6,7.2l5.8,0.1L99,51.7l4.7,0.1l2.4-8.1l5.3,0.1l2.2-7.3l-5.3-0.1l0.4-1.1l5.6,0.1
		l0.6-2.3l-5.5-0.1l0.2-1l-4.7-0.1l-0.2,1h-6.5l-0.6,2.3l6.4,0.1L103.6,36.4z M102,41.5h-1.3l1.1-3h1.1L102,41.5z M107.6,38.6h1.3
		l-0.8,3h-1.3L107.6,38.6z"/>
	<polygon id="XMLID_13_" class="st0" points="96.7,44.1 92.8,51.5 97.1,51.6 100.8,44.3 	"/>
	<polygon id="XMLID_12_" class="st0" points="109.2,55.1 109.9,52.5 92.2,52.3 96.7,38.3 90.4,38.2 89.7,40.7 91.2,40.8 86.5,54.8 	
		"/>
	<path id="XMLID_11_" class="st0" d="M108.7,63.4c-0.2,0-0.5,0.2-0.5,0.4l-0.4,1.2c-0.2,0.8-0.4,1-0.4,1.1c0,0-0.2,0.1-0.5,0.1h-1.2
		c-0.2,0-0.5,0.2-0.5,0.4l-1.1,3.4c-0.1,0.2,0,0.4,0.2,0.5h3.4c1.2,0,2.8-0.6,3.8-3.7l0.8-2.6c0.1-0.2,0-0.4-0.2-0.4L108.7,63.4z"/>
	<path class="st0" d="M68.6,102.5c-5.2-4.2-12.8-3.2-17,2c-4.2,5.3-3.4,12.8,1.8,17s12.8,3.2,17-2C74.6,114.4,73.7,106.7,68.6,102.5
		z M55.9,110.9c-1.1,1.3-2.9,1.6-4.2,0.5s-1.4-2.9-0.5-4.2c1.1-1.3,2.9-1.6,4.2-0.5C56.7,107.7,56.9,109.6,55.9,110.9z M67.5,121.2
		c-1.9,2.4-5.5,2.9-7.9,1s-2.8-5.5-0.8-7.9c1.9-2.4,5.5-2.9,7.9-1C69.2,115.3,69.5,118.8,67.5,121.2z M68,107.9
		c-1.4,1.9-4.2,2.2-6,0.7c-1.8-1.4-2.2-4.2-0.6-6c1.4-1.9,4.2-2.2,6-0.7C69.2,103.3,69.4,106.1,68,107.9z"/>
	<path class="st0" d="M84,75.7l-29.1-0.2c-0.2,0-0.5,0.2-0.5,0.4L49.8,90c-0.1,0.2,0,0.4,0.2,0.4l25,0.1c2.2,0,3.6-0.5,4.3-1.4
		c0.8-1.1,1.4-2.2,1.9-3.5c0-0.1,0.1-0.2,0.1-0.4l3-9.3C84.4,75.8,84.3,75.7,84,75.7z M76,84.5c-0.2,0.6-0.5,0.8-1,0.8l-17.9-0.1
		l1.6-5l18.6,0.1L76,84.5z"/>
	<path class="st0" d="M105.6,103.9c-6.7-9.2-17.1-12.9-23.2-8.5c-6.1,4.4-5.6,15.6,1.1,24.7c6.7,9.2,17.1,12.9,23.2,8.5
		C112.8,124.2,112.3,113.2,105.6,103.9z M89.4,107.3c-1.1,0.7-3-0.5-4.4-2.5c-1.3-2-1.6-4.3-0.5-5s3,0.5,4.3,2.5
		C90.3,104.3,90.5,106.6,89.4,107.3z M101.5,127.2C101.5,127.2,101.4,127.2,101.5,127.2c-0.4,0.2-0.7,0.4-1.1,0.5
		c-2,0.4-5-1.7-7.2-5c-2.5-3.8-2.9-8-0.8-9.3c2-1.3,5.8,0.8,8.1,4.7C103.1,121.7,103.4,125.8,101.5,127.2z M101.9,112.7
		c-1.6,1-4.3-0.6-6.2-3.6c-1.9-3-2.2-6.1-0.6-7.2c1.6-1,4.3,0.6,6.2,3.6S103.4,111.7,101.9,112.7z"/>
</g>
</svg>
