<?xml version="1.0" encoding="utf-8"?>
<!-- Generator: Adobe Illustrator 21.1.0, SVG Export Plug-In . SVG Version: 6.00 Build 0)  -->
<svg version="1.1" id="Layer_1" xmlns="http://www.w3.org/2000/svg" xmlns:xlink="http://www.w3.org/1999/xlink" x="0px" y="0px"
	 viewBox="0 0 157 156" style="enable-background:new 0 0 157 156;" xml:space="preserve">
<style type="text/css">
	.st0{fill:#5B4516;}
</style>
<g>
	<path class="st0" d="M126.4,93.2l-0.2-41.1c0.5-8.3-2.9-10.9-2.9-10.9L89.3,21c-10.1-3.5-15.7,0-15.7,0L36,38.1
		c-6.1,3-6.1,11.4-6.1,11.4l1.3,54.1c0,6,6.7,8.9,6.7,8.9L71,125.2c0.2-4.4,2.4-8.3,5.8-10.8l-1.3-45.3L41.7,48.6l34.8,17.7l40.8-20
		L77.9,69l-1.1,45.3c2.4-1.8,5.4-2.9,8.8-2.9h0.2c6.8-7.1,13.3-13.2,16.5-19.1c2-7.2-3.8-10.7-8.2-9.8v-3l6.8-12
		c-5.2,1.9-14.9,6.5-15.6,5.8c-0.1-4.2,1.2-7.1,4.8-8.3l21.9-8.9l-11.9,21.2c4.4-1.4,8.4-2,10.8,0.8c2.6,4,2.2,8.6-0.4,13.8
		c-2,4-10.2,12.7-23.7,19.7h27.7c0.7,0,1.3,0.1,1.9,0.1l1.7-0.7C128,106.7,126.4,93.2,126.4,93.2z M67.6,111.8
		c-3.8,0.8-8.5-12.6-5.8-16.3C67.7,93.8,71,109.1,67.6,111.8z M62.9,68.7c0.6,2.4-0.1,4.7-1,6.5c2.6,1,4.7,2,6,3.2
		c0.5,1.3-0.7,5.5-1.1,8.3c-0.4,1.6,2.6,1.3,4.8,3c0.8,0.7,0.8,2.3,0.2,4.9c-4.3-0.2-10.4-4.9-12.6-3.8c-0.4,5.2-3,12.9-5.8,15.9
		c-1.2-3.1,0.4-12.5,1.6-17.6c-0.6-1.2-2.6-1.1-4-1.7c-0.5-1.9-1.1-5.6,0.1-6.2c1.2-0.6,4.8,2.3,5.4,1.9c0.8,0.4,0.8-5.8,0.2-5.8
		c-2.3-0.7-4.4-2-3.8-5.4c1.2-0.8,3.6,2,4.6,1.4c0.5-0.8,1.1-4.1,0.2-4.6c-0.8-0.2-3-1-2.9-2.3C55.9,65.7,60.8,66.6,62.9,68.7z
		 M42.7,72.9l2.3,1c2.6-8.2,5.5-13.4,8.6-13.8c-1.4,5-3.8,10.8-3.7,15.6c4.2,1.6,6.2,3,4.9,4.3c-0.6,1.3-4.4-1.4-5.4-0.7
		c-1.6,4.6,0.8,15.2-0.4,15c-2.6,0-4.8,0-6.1-2c-1.2-2.4,0.1-9.2,1.4-13.5c-0.2-1-2.5-1.3-3.5-1.3c-0.4,1.1-0.1,2.6-1.2,3.2
		c-0.7,0-1-2.6-1.6-4c-3.5-2.3-1.9-5.6,0.8-5.2c-0.4-4.1-0.4-10.4,0.2-10.6C44.3,61.2,46.1,64.6,42.7,72.9z M73.6,38.1l-2.8,4.1
		c-5.4-0.7-8.3,2.6-2.9,4.2l-2.2,3C51.4,48,58,36.7,73.6,38.1z M78.4,32.8h8.8l-2,2.2h-5.4L69.5,49.5h-2.8L78.4,32.8z M80.5,35.5
		h8.8l-2,2.2h-5.4L71.8,52.1H69L80.5,35.5z M83.6,49.4L80,54.7h-9l11.5-16.5h8.8C105.3,41.3,100.1,51.1,83.6,49.4z"/>
	<path id="XMLID_11_" class="st0" d="M62.9,86c1.1-0.5,1-3.7,1-5.4c-1.4-1.7-2.2-1.3-2.5-0.8c-0.6,2.2-1,4.3-0.7,5
		C61,85.6,61.8,86,62.9,86z"/>
	<path id="XMLID_10_" class="st0" d="M88.8,42.1l-2.9,4C91.5,47,95.4,42.3,88.8,42.1z"/>
</g>
<path class="st0" d="M114.6,113.8h-4.1H89.1c-7.1,0-12.8,5.8-12.8,12.8v0.1c0,7,5.8,12.7,12.7,12.7h25.5c7.1,0,12.8-5.8,12.8-12.8
	C127.4,119.4,121.6,113.8,114.6,113.8z M87.1,133.9h-3.5l-0.6-1.8h0.8l0.7-4.3h3.7L87.1,133.9z M87.8,126.9h-3.5l-1.1-3.4h3.6l0.7,2
	h0.6L87.8,126.9z M87.8,122.6h-3.4l-1.1-3.4H87l0.7,2h0.6L87.8,122.6z M101.8,133.9H88.9V132h4.6v-10.6h-4v-1.9h11.6v1.9h-4V132h4.7
	V133.9z M102,129.6h0.5l1.3-3.5h3.1l-1.7,4.8h-2.9L102,129.6z M117.3,133.9h-5.5l-1-1.7h2.8v-7.2h-2.3l-2.9,8.9h-4l-0.5-1.6h1.2
	l2.5-7.3H103v-1.8h5.3l0.5-1.3h3.6l-0.5,1.3h5.5C117.3,123.3,117.3,133.9,117.3,133.9z M120.4,132.1h-2.6v-7.1h2.6V132.1z
	 M120.7,121.5h-2.5v0.7h-3.5v-0.7h-6.6v0.7h-3.5v-0.7h-2.5v-1.7h2.5v-0.7h3.5v0.7h6.6v-0.7h3.5v0.7h2.5V121.5L120.7,121.5z"/>
</svg>
