<?xml version="1.0" encoding="utf-8"?>
<!-- Generator: Adobe Illustrator 21.1.0, SVG Export Plug-In . SVG Version: 6.00 Build 0)  -->
<svg version="1.1" id="Layer_1" xmlns="http://www.w3.org/2000/svg" xmlns:xlink="http://www.w3.org/1999/xlink" x="0px" y="0px"
	 viewBox="0 0 157 156" style="enable-background:new 0 0 157 156;" xml:space="preserve">
<style type="text/css">
	.st0{fill:#5B4516;}
</style>
<g>
	<path id="XMLID_9_" class="st0" d="M96.1,89.7L80.8,74.5L64.2,89.7l0,0c-5.9,5.1-12.7,7-13.8,7.2c9,8.8,20.9,12.4,30.3,16.7
		c12.7-5.2,21.6-10.8,28-16.6C106.5,96.4,101.7,94.7,96.1,89.7L96.1,89.7z"/>
	<path id="XMLID_8_" class="st0" d="M128.2,31.8l-2.3-7.5c-5.1,2.3-11.4,3.6-18.4,3.6c-11.9,0-22.1-3.8-26.9-9.5
		c-4.7,5.7-15,9.5-26.8,9.5c-7,0-13.5-1.3-18.5-3.6L32.8,32c0.5,0.5,5.3,4.7,4.8,21.9c-1.3,22.1,4.3,34.9,12.6,43
		c0.2-1.1,1.7-6.7,8.2-13.1l0,0l16.2-15L62.5,56.9l0,0c0-0.1-0.1-0.1-0.1-0.2c-2.2-2.2-5.7-2.2-7.8,0c-1.6,1.6-2,3.8-1.2,5.8
		c-1.4,0.5-2.6,0.4-3.2-0.2c-1.7-1.7,0.7-6.7,5.5-12.3l-7.5-7.3l1.3-1.3l-4.8-5.7l2.4-2.4l5.8,4.7l1.3-1.3l7.5,7.3
		c5.5-4.7,10.8-7.1,12.5-5.4c0.6,0.6,0.7,1.8,0.2,3.2c-2-0.7-4.3-0.4-5.9,1.2c-2.2,2.2-2.2,5.5,0,7.7c0.1,0,0.1,0.1,0.2,0.1l0,0
		l12.4,12l12.1-11.2l0,0c0.1,0,0.1-0.1,0.2-0.1c2.2-2,2.3-5.5,0.2-7.7c-1.6-1.7-3.8-2-5.9-1.3c-0.4-1.4-0.4-2.6,0.4-3.2
		c1.7-1.6,6.9,1,12.4,5.8l7.7-7.1l1.3,1.3l5.9-4.6l2.3,2.4l-4.9,5.5l1.3,1.3l-7.7,7.1c4.6,5.7,7,10.8,5.2,12.4
		c-0.7,0.6-1.8,0.6-3.2,0.1c0.8-1.9,0.5-4.2-1.1-5.9c-2-2.2-5.7-2.3-7.8-0.2c-0.1,0.1-0.1,0.1-0.1,0.2l0,0l-12,11.1l15.3,15l0,0
		c4.3,4.6,6.6,10,7.5,12.3c17.8-16.8,13.8-34.9,14.2-47C123.4,41.2,126.6,32.8,128.2,31.8z"/>
</g>
<g>
	<path id="XMLID_7_" class="st0" d="M72,130.7c0.2-2.8,0.5-5.5,0.7-8.3c5.1,0.4,10.1,0.2,15.2-0.2c0.1,0.6,0.1,1,0.2,1.6
		c1.8-0.2,2.6-0.4,4.4-0.6c-0.2-1.6-0.5-2.4-0.7-4.1c-3.5,0.6-7.1,1-10.7,1c0-0.4,0-0.5,0-0.7c3.2-0.1,6.4-0.4,9.5-0.8
		c-0.1-0.8-0.2-1.3-0.4-2.2c-3,0.4-6.1,0.7-9.1,0.8c0-0.2,0-0.4,0-0.7c-1.8,0-2.8,0-4.6,0c-0.1,1.4-0.1,2.2-0.1,3.7
		c-2.8-0.1-5.5-0.4-8.3-0.7c-0.6,3.8-1.2,7.7-1.8,11.4c-0.2,2.3-1.1,3.7-2.5,4.4c-0.2,1.1-0.2,1.6-0.5,2.6
		C67.4,137.1,72.1,135.6,72,130.7z"/>
	<path id="XMLID_6_" class="st0" d="M63.1,120.2c0.2-1.1,0.4-1.7,0.6-2.9c-1.8-0.4-2.8-0.6-4.6-1.1c0.2-0.8,0.4-1.2,0.6-1.9
		c-1.7-0.5-2.5-0.7-4.1-1.3c-0.2,0.7-0.5,1.2-0.7,1.9c-2.2-0.7-3.1-1.1-5.2-2c0.5-1,0.6-1.4,1.1-2.3c-1.8-0.8-2.8-1.2-4.4-2.2
		c-0.5,0.8-0.7,1.3-1.2,2.3c-1.9-1-2.9-1.6-4.7-2.6c-0.6,1-1,1.4-1.7,2.5c1.9,1.2,2.9,1.7,4.8,2.8c-3.1,4.9-7,7.7-12.9,8.9
		c-0.7,1-1,1.6-1.7,2.5c8.4,1.1,15.6-1.4,19.4-9.1c0.6,0.2,0.8,0.4,1.4,0.6c-1.1,2.4-2.2,4.9-3.2,7.3c-0.4-0.1-0.8-0.1-1.6-0.4
		c-0.5-0.1-0.8-0.2-1.2-0.2c-0.5,1-0.7,1.4-1.2,2.4c1.1,0.4,1.9,0.6,2.8,0.8c-0.4,0.7-0.5,1.1-0.8,1.8c-1.4,2.6,1.1,4.7,3.5,5.4
		c2.2,0.7,3.2,1.1,5.4,1.7c2.2,0.7,5.4,0.7,5.9-2c0.1-0.6,0.2-1,0.4-1.6c-1.8-0.4-2.6-0.6-4.4-1.1c-0.1,0.5-0.2,0.7-0.4,1.1
		c-0.1,0.7-0.7,1-1.9,0.6c-0.6-0.2-1-0.2-1.6-0.5c-1.4-0.4-1.9-1.1-1.4-2c0.4-1,0.5-1.4,0.8-2.5c4.2,0.2,8.4-1.2,11.1-4.4
		c-1.9-0.5-2.9-0.7-4.8-1.2c-1.7,1.3-3.4,2-5.1,2.3c0.7-1.9,1.3-3.8,2-5.7C57.3,118.8,60.2,119.5,63.1,120.2z"/>
	<path id="XMLID_5_" class="st0" d="M79.8,129.8c3-0.1,5.9-0.2,8.9-0.5c2.4-0.2,3.5-1.3,3.1-3c-0.1-0.5-0.1-0.6-0.1-1.1
		c-1.4,0.2-2.2,0.4-3.6,0.5c0,0.1,0,0.1,0,0.2c0.1,0.7-0.2,1.1-1.1,1.2c-1.7,0.1-2.6,0.2-4.3,0.2c-1,0.1-1.4-0.2-1.4-1
		c2,0,4.2-0.1,6.3-0.4c-0.1-1-0.1-1.6-0.2-2.5c-2,0.2-4,0.4-6,0.4c0-0.4,0-0.6,0-1c-1.9,0-2.9,0-4.8,0c0,0.4,0,0.6,0,1
		c-1.3,0-2-0.1-3.2-0.2c-0.1,1-0.1,1.6-0.2,2.5c1.3,0.1,2,0.1,3.4,0.2c0,0.2,0,0.4,0,0.6C76.1,128.9,77.3,130,79.8,129.8z"/>
	<path id="XMLID_4_" class="st0" d="M108.3,123.7c-0.6-1.4-0.8-2.3-1.4-3.7c-3-0.1-6,0.2-8.9,0.8c0.4,1.2,0.5,1.9,0.8,3.1
		C101.9,123.6,105,123.6,108.3,123.7z"/>
	<path id="XMLID_3_" class="st0" d="M107.8,117.5c-0.6-1.4-1-2.2-1.6-3.6c-2.8,0-5.5,0.4-8.2,1c0.4,1.2,0.5,1.8,0.8,3
		C101.9,117.5,104.9,117.3,107.8,117.5z"/>
	<path id="XMLID_2_" class="st0" d="M94.7,133.6c-1.6,0.2-2.3,0.4-3.8,0.6c0,0.2,0,0.2,0.1,0.5c0.1,0.5-0.1,0.7-0.7,0.7
		c-0.2,0-0.4,0-0.6,0.1c-0.6,0.1-1-0.1-1-0.5c-0.2-2-0.4-3-0.6-5.1c-4.7,0.4-9.4,0.5-14.1,0.2c-0.1,1.1-0.1,1.7-0.2,2.8
		c0,1.8-1.2,2.9-3.5,3.2c-0.1,1-0.1,1.4-0.2,2.3c3.4-0.2,9.7-1,8.9-5.7c1.7,0,2.4,0,4.1-0.1c0,1.2,0.1,1.8,0.1,2.9
		c0,1.8,1.3,2.5,4,2.3c1.8-0.1,2.6-0.2,4.4-0.5c2.6-0.4,3.7-1.3,3.4-2.9C94.8,134.3,94.8,134.1,94.7,133.6z"/>
	<path id="XMLID_1_" class="st0" d="M126.2,119.7c-0.6-1-1-1.4-1.7-2.4c-1.8,1.2-3.7,2.3-5.7,3.2c-2.3-4.1-4.4-8.1-6.7-12.1
		c-1.8,1-2.8,1.4-4.7,2.2c1.9,4.2,3.8,8.4,5.8,12.5c-5.3,2.2-10.6,3.8-16.1,5.1c0.2,1.1,0.4,1.7,0.6,2.9c5.8-1.3,11.2-3,16.7-5.3
		c0.8,1.8,1.7,3.6,2.4,5.3c2.2-1,4.2-1.9,6.3-3c-1-1.7-1.9-3.5-2.9-5.2C122.2,122,124.2,120.9,126.2,119.7z"/>
</g>
</svg>
