<?xml version="1.0" encoding="utf-8"?>
<!-- Generator: Adobe Illustrator 21.1.0, SVG Export Plug-In . SVG Version: 6.00 Build 0)  -->
<svg version="1.1" id="Layer_1" xmlns="http://www.w3.org/2000/svg" xmlns:xlink="http://www.w3.org/1999/xlink" x="0px" y="0px"
	 viewBox="0 0 157 156" style="enable-background:new 0 0 157 156;" xml:space="preserve">
<style type="text/css">
	.st0{fill:#5B4516;}
</style>
<path class="st0" d="M79,18.4c-33.1,0-60,26.9-60,60s26.9,60,60,60s60-26.9,60-60S112.1,18.4,79,18.4z M86.1,26.7
	c3.4,0,6.1,2.8,6.2,6.1c0,3.4-2.8,6.1-6.1,6.2c-3.4,0-6.1-2.8-6.2-6.1C80,29.4,82.7,26.7,86.1,26.7z M56.4,34.2
	c2.3,0,4.2,1.8,4.2,4.1s-1.8,4.2-4.1,4.2c-2.3,0-4.2-1.8-4.2-4.1C52.4,36.2,54.2,34.2,56.4,34.2z M37,99c-2.2,0-4-1.8-4-4s1.8-4,4-4
	s4,1.8,4,4S39.2,99,37,99z M37.6,74.4c-4.4,0-8.2-3.6-8.2-8s3.6-8.2,8-8.2s8.2,3.6,8.2,8C45.8,70.7,42.2,74.4,37.6,74.4z
	 M56.1,126.6c-4.1,0-7.3-3.2-7.3-7.2c0-4.1,3.2-7.3,7.2-7.3c4.1,0,7.3,3.2,7.3,7.2C63.3,123.4,60.2,126.6,56.1,126.6z M90.8,119.4
	c-20.6,0.1-37.4-16.4-37.7-37.1C53,61.7,69.5,44.9,90.2,44.7c20.6-0.1,37.6,16.4,37.7,37.1C128,102.4,111.4,119.3,90.8,119.4z"/>
<path id="XMLID_1_" class="st0" d="M111.8,66L95.1,90.8c-0.4,0.4-0.5,0.8-0.5,1.3c-0.1,0.8,0.1,1.6,0.7,2.3c0.6,0.7,1.3,1.1,2.2,1.2
	c1,0.1,1.8-0.1,2.5-0.6c0.8-0.5,1.3-1.2,1.4-2.2c0.1-1-0.1-1.7-0.7-2.4c-0.6-0.7-1.3-1.1-2.4-1.2c-0.4,0-0.6,0-1,0l5.6-8.6
	c3.4,1.8,5.6,3.7,7,5.9c1.3,2,1.8,4.6,1.3,7.4c-0.6,3.5-2.3,6.2-5.3,8.3s-6.4,2.8-10.1,2.3c-3.6-0.5-6.5-2-8.8-4.8
	c-2.3-2.8-3.1-5.8-2.6-8.9c0.2-1.4,1.2-3.7,3-6.7l15-21.6c-1.4-0.2-2.9-0.4-4.3-0.4C85,62.2,74.3,73,74.4,86.2s10.9,23.9,24.1,23.8
	s23.9-10.9,23.8-24.1C122.3,77.4,118.1,70.2,111.8,66z"/>
</svg>
