<?xml version="1.0" encoding="utf-8"?>
<!-- Generator: Adobe Illustrator 21.1.0, SVG Export Plug-In . SVG Version: 6.00 Build 0)  -->
<svg version="1.1" id="Layer_1" xmlns="http://www.w3.org/2000/svg" xmlns:xlink="http://www.w3.org/1999/xlink" x="0px" y="0px"
	 viewBox="0 0 157 156" style="enable-background:new 0 0 157 156;" xml:space="preserve">
<style type="text/css">
	.st0{fill:#5B4516;}
</style>
<g>
	<path id="XMLID_23_" class="st0" d="M89.4,72.9c0,0.2,0,0.5-0.1,1c-0.1,0.5-0.1,0.7-0.1,1c0,0.2,0.1,0.6,0.2,0.8
		c0.2,0.1,1,0.2,2.2,0.4c1,0.1,1.6,0.4,1.9,0.8c0.1,1.4,0.2,3.1,0.2,4.8c0,1.7-0.2,5.5-0.6,11.4c0,0.2-0.2,0.6-0.5,0.7
		c-0.2,0.2-0.8,0.4-1.7,0.5c-0.8,0.1-1.4,0.2-1.8,0.6c0,0.2,0,0.6-0.1,1.1c-0.1,0.5-0.1,0.8-0.1,1c0,0.5,0.2,0.8,0.7,1.1
		c6.5-0.4,12.2-0.2,17.5,0.1c0.4-0.1,0.6-0.4,0.7-0.6c0-0.1,0-0.5,0.1-0.8c0.1-0.4,0.1-0.7,0.1-0.8c0-0.5-0.1-0.8-0.5-1.1
		c-0.4-0.1-1.1-0.4-2.2-0.5c-1-0.1-1.7-0.4-2.2-0.6c0.2-10.9,0.5-17.2,0.7-19.2c0,0,0.4-0.5,1-1.3c0.4-0.5,0.6-1,0.6-1.3
		c0-0.2-0.1-0.5-0.1-0.6c-0.1-0.2-0.2-0.4-0.4-0.4c-0.5,0-3.1,0.4-7.8,1C94,72.2,91.4,72.6,89.4,72.9z"/>
	<path class="st0" d="M42.1,88.1c3-0.7,5-2.3,6.1-4.7c0.7-1.6,1.1-3.2,1.1-5.1c0-2.4-0.6-4.3-1.8-5.7c-1-1.1-2.6-1.8-4.9-2
		c-9.2,0.4-16.8,0.4-22.6,0c-0.4,0.1-0.6,0.5-0.6,1c0,0.1,0,0.5,0.1,1c0,0.4,0,0.7,0,1c0.2,0.5,0.7,0.7,1.4,1c1,0.2,1.6,0.5,1.8,0.6
		c0,3,0,6.1,0,9.1c0,3.6-0.1,6.6-0.2,9.1c0,0.5-0.4,0.8-1,1.1c-0.6,0.2-1.1,0.4-1.7,0.6c-0.2,0.7-0.4,1.3-0.4,1.9s0.1,1,0.4,1.3
		c1.9,0.1,5.1,0.1,9.9,0c4.2,0,7.5,0,9.9,0.2c0.1,0,0.4,0,0.5-0.1c0.1-0.1,0.4-0.2,0.5-0.4c0.5-1.4,0.7-2.2,0.7-2.3
		c0-0.2,0-0.5-0.1-0.7c-3.2-0.6-5.4-1-6.3-1.1c0,0-0.2-0.1-0.5-0.4c-0.2-0.1-0.5-0.4-0.5-0.5c-0.2-0.8-0.4-1.6-0.4-2.3
		c0-0.8,0.1-1.4,0.5-1.9C38.2,88.6,41,88.4,42.1,88.1z M33.7,84.7c0-0.1,0-0.2-0.1-0.2l0.1-4.9c0-2,0.1-3.6,0.4-4.8
		c0.6-0.4,1.3-0.5,1.9-0.1c0.8,0.4,1.4,1,1.8,1.8c0.5,1.2,0.6,2.4,0.6,3.6c0,1.6-0.4,2.8-1.1,3.6c-1,1.1-2,1.6-3.4,1.3
		C33.8,84.9,33.7,84.8,33.7,84.7z"/>
	<path id="XMLID_20_" class="st0" d="M87,95.2c-0.1-0.1-0.5-0.4-1-0.5s-0.8-0.4-1-0.6c-2.9-3.7-5.9-7.9-8.9-12.7
		c1.2-2,3.2-4.4,6.3-6.9c0.1,0,0.7-0.2,1.7-0.6c0.6-0.2,1.1-0.5,1.3-1c0.1-0.4,0.1-0.8,0.1-1.2c0-0.5-0.1-0.8-0.1-1.2
		c-0.1-0.2-0.4-0.4-0.7-0.4c-0.1,0-0.4,0-0.7,0.1c-0.4,0.1-0.7,0.1-0.8,0.1c-0.2,0-0.5,0-0.8,0H81c-0.8,0-1.8,0-3.1,0H75
		c-0.1,0.2-0.2,1.1-0.1,2.3c0,0.1,0.1,0.4,0.2,0.6c0.2,0.2,0.2,0.4,0.2,0.5s0,0.2-0.1,0.4c-1.9,2.4-4.1,4.7-6.3,6.9
		c-0.1,0-0.5,0.1-0.8,0.4c-0.4,0.2-0.7,0.2-0.8,0.2s-0.4,0-0.5-0.1c-0.1-0.8-0.1-1.9,0-3.2L67,75c0.2-0.5,0.7-0.7,1.4-1
		c0.8-0.2,1.3-0.5,1.6-0.8c0-0.1,0.1-0.5,0.2-0.8c0.1-0.5,0.2-0.7,0.2-1c0-0.5-0.2-0.8-0.6-1.1c-3.1,0.2-6.1,0.4-9.2,0.4
		c-2.4,0-4.9,0-7.3-0.1c0,0.1,0,0.1-0.1,0.1c-0.5,0.1-0.6,0.6-0.6,1.2c0,0.1,0,0.5,0,0.8c0,0.4,0,0.6,0,0.8c0.2,0.4,0.7,0.6,1.6,0.7
		c0.8,0.1,1.3,0.4,1.6,0.7c0.2,4.8,0.1,11-0.4,18.7c-0.2,0.5-0.8,1-1.7,1.3c-0.7,0-1.1,0.4-1.1,1c0,0.1,0,0.7,0,1.6
		c0.2,0.2,0.5,0.5,0.6,0.5c7.7-0.1,13.1-0.1,16.3,0c0.5-0.2,0.7-1.2,0.7-2.8c-0.1-0.6-0.7-1-1.6-1c-1.1-0.1-1.7-0.4-1.9-0.8
		c-0.2-1-0.2-2-0.2-3.5c0-1.2,0.1-2.4,0.1-3.6c0.2-0.5,0.4-0.7,0.4-0.8c0.1-0.1,0.1-0.1,0.2-0.1c0,0,0.4,0.1,0.8,0.5
		c2.8,4.9,4.8,9,6.3,12.1c4.6-0.5,8.4-0.5,11.5,0c0.1,0,0.1,0,0.2,0s0.2-0.1,0.2-0.1c0-0.1,0.1-0.6,0.5-1.3C87,96,87,95.6,87,95.2z"
		/>
	<path class="st0" d="M136.2,75.9c0-0.1,0-0.2,0-0.4c0-0.2,0.2-0.5,0.7-0.6c0.6-0.1,1-0.2,1.1-0.5c0.7-1.4,1.1-2.4,1.1-2.6
		s0-0.5-0.1-0.7c-0.1,0-0.2,0-0.4,0c-1.9,0.4-4.8,0.5-8.7,0.2c-4.2-0.2-7.2-0.2-9,0.1c-3.2,0.5-5.6,1.8-7.4,3.8
		c-1.9,2.9-2.9,6.3-2.9,10.3c0,3.4,0.7,6.2,2.2,8.9c2.2,3,5.9,4.6,11,4.6c1.8,0,3.7-0.2,6-0.6c1.8-0.2,3.5-1.1,5-2.3
		c1.6-1.2,2.6-2.6,3.1-4.3c1-3.4,1.4-6.1,1.4-8.4C139.1,80.1,138.1,77.6,136.2,75.9z M126.7,93.6c-0.7,1-1.4,1.3-2.2,1.3
		c-0.6,0-1.2-0.2-1.7-0.6c-1.4-2.4-2.2-5.3-2.2-8.7c0-2,0.2-4.2,0.7-6.7c0.4-1.9,1.3-3.1,2.9-3.5c1.1,0,1.9,0.6,2.4,1.7l1.1,3
		c0.4,1.8,0.5,3.6,0.5,5.3C128.4,88.4,127.8,91.3,126.7,93.6z"/>
	<g>
		<polygon id="XMLID_17_" class="st0" points="47.9,114 47.8,106 45.5,106 45.6,116.2 52.5,116.2 52.5,114 		"/>
		<path class="st0" d="M57.1,105.7L57.1,105.7c-1.8,0-3.1,0.6-4,1.9c-0.7,1-1.1,2.2-1.1,3.5c0,1.3,0.4,2.5,1.1,3.5
			c0.8,1.2,2.2,1.9,4,1.9l0,0c1.7,0,3-0.6,4-1.9c0.7-1,1.1-2.2,1.1-3.5c0-1.3-0.4-2.5-1.1-3.5C60.1,106.3,58.8,105.7,57.1,105.7z
			 M55.2,113.4c-0.5-0.6-0.7-1.3-0.7-2.4c0-1,0.2-1.8,0.7-2.4c0.5-0.6,1.1-0.8,1.9-0.8v-0.5v0.5c0.8,0,1.4,0.2,1.9,0.8
			c0.5,0.6,0.7,1.3,0.7,2.3c0,1-0.2,1.8-0.7,2.4c-0.5,0.6-1.1,0.8-1.9,0.8C56.3,114.2,55.7,114,55.2,113.4z"/>
		<polygon id="XMLID_14_" class="st0" points="70.2,106 61.8,106 61.8,108.1 64.9,108.1 64.9,116.2 67.2,116.2 67.2,108.1 70.2,108 
					"/>
		<polygon id="XMLID_13_" class="st0" points="78.9,105.9 70.4,106 70.4,108.1 73.6,108 73.6,116.2 75.8,116 75.8,108 78.9,108 		
			"/>
		<polygon id="XMLID_12_" class="st0" points="81.5,113.9 81.5,112 86.5,111.9 86.5,109.8 81.5,109.8 81.5,108 86.8,108 86.8,105.9 
			79.2,105.9 79.2,116 87,116 87,113.9 		"/>
		<path class="st0" d="M91,105.9L87.2,116h2.4l1-2.6h2.9l1,2.6h2.5l-3.7-10.2H91z M91.3,111.3l0.7-1.9l0.6,1.9H91.3z"/>
		<path class="st0" d="M105.4,114.8c-0.1-0.1-0.1-0.1-0.1-0.1l0,0c0,0,0-0.1,0-0.4l0,0l-0.1-1.7c0-0.7-0.1-1.2-0.5-1.6
			c0-0.1-0.1-0.1-0.1-0.1c0.1-0.1,0.2-0.2,0.4-0.4c0.4-0.5,0.5-1.1,0.5-1.8c0-1.1-0.4-1.9-1.2-2.4c-0.6-0.4-1.3-0.6-2.3-0.6h-4.8
			V116h2.3v-4h2.5c0.5,0,0.8,0.1,1,0.4c0,0.1,0.1,0.2,0.1,0.8c0,0.4,0,0.8,0,1.2c0,0.5,0.1,0.8,0.2,1.2l0.1,0.4h2.4V115L105.4,114.8
			z M99.3,109.9v-2h2.5v-0.5l0,0v0.5c0.4,0,0.6,0,0.7,0.1c0.1,0,0.4,0.2,0.4,0.8c0,0.6-0.2,0.8-0.4,0.8c-0.1,0.1-0.5,0.2-1,0.2
			L99.3,109.9z"/>
		<polygon id="XMLID_7_" class="st0" points="114.9,105.7 112.2,105.7 110,109.7 107.6,105.7 104.8,105.9 108.8,112 108.8,115.9 
			111,115.9 111,112 		"/>
	</g>
</g>
<polygon id="XMLID_6_" class="st0" points="93.9,39.9 92.5,42.8 101,42.8 103.9,48.4 110.8,48.4 106.1,39.9 "/>
<polygon id="XMLID_5_" class="st0" points="83.3,52 87.3,52 84.6,59.3 82.4,59.3 83.4,62.2 90,62.2 93.6,52 102.1,52 102.1,59.3 
	98.6,59.3 98.6,59.3 100.3,62.2 108.2,62.2 108.2,49.1 83.3,49.1 "/>
<polygon id="XMLID_4_" class="st0" points="93,39.9 86.5,39.9 81.6,48.5 88.4,48.5 "/>
<path id="XMLID_3_" class="st0" d="M48.2,41.1h6.5L52.8,61h-6.5L48.2,41.1z"/>
<path id="XMLID_2_" class="st0" d="M59.8,60h-5l1-5h4.9L59.8,60z"/>
<path id="XMLID_1_" class="st0" d="M79.1,41.1v2.4H68.5l-0.6,4.8h10.7L77.4,61H60.9v-2.4h10.4l0.8-7.9H61.5l1.1-9.6L79.1,41.1
	L79.1,41.1z"/>
</svg>
