<?xml version="1.0" encoding="utf-8"?>
<!-- Generator: Adobe Illustrator 21.1.0, SVG Export Plug-In . SVG Version: 6.00 Build 0)  -->
<svg version="1.1" id="图层_1" xmlns="http://www.w3.org/2000/svg" xmlns:xlink="http://www.w3.org/1999/xlink" x="0px" y="0px"
	 viewBox="0 0 1024 1024" style="enable-background:new 0 0 1024 1024;" xml:space="preserve">
<style type="text/css">
	.st0{fill:#5B4516;}
</style>
<g>
	<g>
		<path class="st0" d="M327.5,463.1c-29,16.7-56.7,35-83.3,55.4c-7.2-34.9-14-69.9-20.1-105c28.5-18,57.9-34.1,88.4-48.6
			c-0.7-4.5-1-6.8-1.7-11.3c-36.4,16.9-71.2,36.1-104.8,58c-2.8-7.8-5.7-15.6-8.5-23.4c35.3-22.2,71.8-41.7,109.9-58.6
			c-0.7-4.7-1-7-1.7-11.6c-36.4,15.9-71.5,34-105.5,54.6c-2.8-7.8-5.5-15.6-8.3-23.4c87.6-51.5,182.5-86.4,282.4-104.6
			c0.5,8.8,0.7,13.2,1.2,22c-33.7,6.5-66.9,15-99.6,25.3c0.3,4.6,0.4,6.8,0.7,11.4c35.2-11.3,70.7-20.5,107-27.4
			c0.4,8.8,0.6,13.2,1,22c-36.1,7.4-71.5,16.9-106.4,28.9c0.3,4.4,0.4,6.6,0.7,11.1c32.9-11.5,66.1-20.9,100-28.4
			c-0.2,30.3-0.4,60.7-0.4,91c-31.6,9.2-62.3,20.2-92.4,33.2c0.4,5.1,0.7,7.6,1.1,12.8c31.8-14.2,64.2-26,97.6-35.7
			c0.4,8.8,0.6,13.2,1,22c-33.2,10.2-65.2,22.6-96.6,37.4c0.7,7.8,1,11.6,1.7,19.4c31.9-15.7,64.6-28.9,98.5-39.6
			c0.4,8.7,0.5,13.2,0.9,21.9c-80.5,27.3-153.6,68.9-217.5,125.1c-2.8-7.8-5.5-15.6-8.3-23.4c23-19.3,47-37.1,72.3-53.3
			c-1.3-7.9-2-11.9-3.3-19.9c-24.7,15.3-48.3,31.8-71,50c-2.7-7.8-5.4-15.6-8.1-23.4c24.1-18.5,49-35.3,75.1-50.6
			C328.8,470.9,328.3,468.3,327.5,463.1z M324,441c-1.2-7.5-1.7-11.3-2.8-18.8c-9.7,5.1-19.3,10.4-28.9,15.9
			c1,7.8,1.5,11.7,2.6,19.6C304.6,451.9,314.2,446.4,324,441z M315.8,386.8c-9.5,4.6-18.8,9.4-28.1,14.4c0.8,6.4,1.2,9.6,2,15.9
			c9.3-5.2,18.8-10.2,28.4-15C317.2,396,316.7,393,315.8,386.8z M383,393.8c0.5,7.3,0.8,11.1,1.4,18.4c9.9-4.1,19.9-8.1,30-11.9
			c-0.4-7.2-0.6-10.8-0.9-18C403.2,385.9,393,389.7,383,393.8z M381.5,374.2c10.3-3.9,20.6-7.6,31-11.2c-0.3-5.9-0.5-8.9-0.8-14.8
			c-10.5,3.5-20.9,7.1-31.3,10.9C380.8,365.1,381,368.2,381.5,374.2z"/>
		<path class="st0" d="M591.2,305.6c14-0.9,28-1.6,42-2c5.3-9.9,10.7-19.6,16.2-29.4c25.6,0.4,51.1,2,76.6,4.4
			c-6.2,8.9-12.2,17.8-18.1,26.9c35,2.8,69.7,7.5,104.2,14.3c-2.6,8.4-3.9,12.6-6.5,20.9c-13.2-2.4-26.5-4.7-39.9-6.5
			c1.6,36.1,2.2,72.1,1.7,108.3c-22.1-2.1-44.1-3.3-66.3-3.6c-0.2-37-1.5-74-3.6-111c-1.5-0.1-2.2-0.1-3.6-0.1
			c-22.9,37.1-43.8,75.2-62.9,114.4c-21.5,2.3-42.8,5.5-64.1,9.5c16.1-42.2,34.1-83.4,54.2-123.8c-11.4,0.6-22.8,1.4-34.2,2.4
			c-7.3,40.4-14.3,80.9-20.6,121.6c-20.4,4.2-40.4,9.2-60.3,15.1c5.4-74.2,12.3-148.3,20.8-222.3c39.7-4.4,79.5-6.3,119.4-5.7
			c2.3-4.9,3.4-7.3,5.7-12.1c31.5,1.2,62.7,3.9,93.9,8.1c-2.8,4.4-4.1,6.6-6.8,11.1c31.4,4.2,62.4,10,93.2,17.2
			c-2.3,7.5-4.7,15-7,22.5c-74.4-16.4-149.6-23.3-225.8-20.5C596.4,278.7,593.7,292.1,591.2,305.6z"/>
	</g>
</g>
<g>
	<path class="st0" d="M493,728.5l-61.9,42.2l0,0c-8.6-12.6-13.2-25-14-37.3c-0.7-12.2,2.1-28.9,8.6-50.1c3.3-10.6,4.7-18.9,4.3-25
		c-0.4-6.1-2.7-12.3-6.9-18.5c-4.4-6.5-9.6-10.9-15.6-13.2c-5.9-2.3-11.1-1.8-15.6,1.2c-6.1,4.1-9.2,9.2-9,15
		c0.1,5.8,3.3,13.2,9.6,22.2l-22,15c-10.5-14.8-15.2-28.9-14.2-42.5c1-13.5,7.5-24.4,19.6-32.6c11.3-7.7,23.3-10,36.1-6.8
		c12.7,3.2,23.4,11.1,32.1,23.8c6.7,9.8,10.3,19.6,10.7,29.5c0.4,9.9-2,23.5-7.3,41c-4.7,15.1-7,27.3-6.9,36.5l38.3-26.1
		c-0.3-0.7-0.6-1.3-0.9-1.9c-19.8-44.4-21.1-93.8-3.7-139.2c3.1-8.2,6.9-16.1,11.2-23.7c-38.9-14-83.8-10-120.6,15.1
		c-60.9,41.5-76.7,124.6-35.3,185.6C371,799.7,454,815.5,515.1,774c3.9-2.7,7.6-5.5,11.2-8.6C513.5,754.6,502.3,742.3,493,728.5z"/>
	<path class="st0" d="M704.7,468c-87.8-33.6-186.1,10.3-219.7,98c-16.8,43.8-14.3,90.5,3.5,130.2c4,8.9,8.7,17.5,14.3,25.7
		c18.9,28.1,46.2,50.8,80.3,63.8c87.8,33.6,186.1-10.3,219.7-98C836.4,600,792.4,501.6,704.7,468z M721.6,597.8
		c-5.8,15.2-15.6,25.4-29.3,30.8c-2.9,1.2-5.9,2-8.9,2.6c3.1,3.9,5.7,8.1,7.6,12.5c7,15.2,7,31.8,0.1,49.9
		c-7.8,20.2-19.6,34.5-35.5,42.5c-15.9,8.1-32.9,8.7-51.1,1.7s-30.6-18.5-37.3-34.4c-6.7-16-6.3-33.4,0.9-52.6
		c7.3-19.2,18.8-32.5,34.5-40c4.7-2.3,9.5-3.8,14.6-4.7c-1.9-2.6-3.6-5.4-5.1-8.4c-6.5-13.2-6.8-27.3-1.1-42.5
		c6.6-17.2,17-29.2,31.1-35.8c14.2-6.6,29.5-6.8,46-0.4c16.7,6.4,28,16.8,34.1,31.2C728.5,564.8,728.2,580.6,721.6,597.8z"/>
	<path class="st0" d="M642.7,638.2c-8-3.1-15.4-2.5-22.2,1.6s-12.1,11.5-16.1,21.9c-4,10.4-4.9,19.3-2.5,26.9
		c2.3,7.6,7.4,12.9,15.4,15.9c8,3.1,15.4,2.5,22.2-1.5s12.1-11.3,16.1-21.7c4-10.5,4.9-19.5,2.6-27.1
		C655.8,646.7,650.7,641.4,642.7,638.2z"/>
	<path class="st0" d="M675.5,552.6c-6.9-2.7-13.3-2.4-19,0.9c-5.7,3.3-10.2,9.1-13.5,17.5c-3.2,8.3-3.7,15.6-1.6,21.7
		c2.1,6.2,6.6,10.6,13.6,13.3c7,2.7,13.3,2.4,19.1-0.8c5.7-3.2,10.3-8.9,13.5-17.2c3.2-8.4,3.8-15.8,1.6-22
		C687,559.7,682.5,555.2,675.5,552.6z"/>
</g>
</svg>
