<?xml version="1.0" encoding="utf-8"?>
<!-- Generator: Adobe Illustrator 21.1.0, SVG Export Plug-In . SVG Version: 6.00 Build 0)  -->
<svg version="1.1" id="图层_1" xmlns="http://www.w3.org/2000/svg" xmlns:xlink="http://www.w3.org/1999/xlink" x="0px" y="0px"
	 viewBox="0 0 1024 1024" style="enable-background:new 0 0 1024 1024;" xml:space="preserve">
<style type="text/css">
	.st0{fill:#5B4516;}
</style>
<g>
	<path class="st0" d="M347,500.7c-35.8,16.5-53.2,25.6-86.6,45.7c-12.1-62.8-18.2-94.2-29.7-157c33.4-16.2,50.6-23.7,85.7-37
		c-1.8-11.1-2.8-16.8-4.5-28.1c-35.3,13.1-52.7,20.2-86.4,36c-2.3-12.8-3.6-19.1-6.1-31.9c-28.6,12.9-42.8,19.9-70.1,34.7
		c3.2,12.9,4.7,19.4,7.8,32.3c-35.1,19.7-52.1,30.3-85,52.9c4.3,11.6,6.5,17.2,10.7,28.7c31.4-22.4,47.9-32.9,81.4-52.4
		c15.5,63.4,23.4,95.2,39.5,158.6c-28.7,20.4-42.8,31.2-69.2,54c4.3,11.6,6.5,17.2,10.9,28.7c73-65.6,115-93.8,206-137.4
		C349.6,517.5,348.6,511.8,347,500.7z"/>
	<path class="st0" d="M367.2,306.5c0.1,63.4,0.6,95.2,2.3,159c-5.4,2.1-7.8,3.2-13.1,5.5c1.5,10.5,2.2,15.5,3.7,25.9
		c61.6-27.4,94.1-38.4,161.5-54.5c-0.6,10-0.7,15.3-1.2,25.3c25.2-6.5,38-9.2,63.9-13.9c1-9.8,1.4-14.7,2.3-24.5
		c10-1.7,15.1-2.3,25.3-3.9c0.7-9.5,1.1-14.3,1.8-23.9c-9.8,1.2-14.7,1.9-24.5,3.4c5.9-57.6,8.9-86.4,15.3-143.7
		c8-0.6,12-1,19.9-1.4c0.7-9.6,1-14.4,1.7-23.9c-120.7,6.3-180,17.6-290.9,53.6c1.5,10.5,2.2,15.5,3.7,25.9
		C350.3,311.7,355.8,310,367.2,306.5z M434.6,288.1c37.8-8.9,56.9-12.7,95.9-18.6c-0.7,11.6-1,17.3-1.7,28.7
		c-38.9,6.2-58,10.2-95.7,19.9C433.6,306.2,433.9,300.2,434.6,288.1z M432.1,342.7c37.5-10,56.7-14.3,95.4-21
		c-0.7,12.7-1,19.1-1.7,31.9c-38.8,7.3-57.8,12-95.2,22.7C431.3,362.8,431.4,356,432.1,342.7z M429.9,400.6
		c37.1-11.3,56.1-16.1,94.8-23.9c-0.8,16.4-1.2,24.5-1.9,40.8c-38.4,8.7-57.3,13.9-94.1,26.1C429.1,426.3,429.3,417.8,429.9,400.6z"
		/>
	<path class="st0" d="M932.8,266.5c1.4-3.9,2.1-5.6,3.4-9.5c-31.2-6.7-46.8-9.6-78-14.3c-1.2,4-1.8,6.1-2.9,9.9
		c-37.3-5.4-55.8-7.3-92.8-9.6c1.2-4.1,1.8-6.2,2.9-10.5c-30.9-2.1-46.3-2.8-77.1-2.8c-1,4.3-1.4,6.5-2.3,10.9
		c-15.7,0-23.5,0.1-39.1,0.8c-0.8,9.5-1.2,14.3-2.1,23.7c14.3-0.7,21.5-1,35.9-1.1c-9.4,43-13.8,64.5-22.6,107.8
		c-10.7,0.8-16.1,1.2-26.7,2.3c-0.8,9.5-1.2,14.2-2.1,23.7c13.3-1.5,19.9-2.1,33.6-3.2c-15.7,20.5-23.2,30.9-38,52.4
		c27-3.7,40.6-5,67.9-6.7c15.3-19.9,23-29.6,39.2-48.5c30.3-0.1,45.4,0.1,75.9,2.3c6.6,18.8,9.8,28.2,15.5,46.8
		c27.5,1.9,41.4,3.4,69.2,7.3c-5.5-18.6-8.5-28.1-14.7-46.9c12.7,1.7,19.1,2.8,31.8,4.8c2.8-8.3,4.1-12.2,6.7-20.5
		c-10.5-1.9-15.7-2.8-26.3-4.3c13.8-37.8,20.8-56.7,34.7-94.3c8.1,1.7,12.2,2.5,20.4,4.3c2.8-8.3,4-12.2,6.7-20.6
		C944.3,269,940.5,268.2,932.8,266.5z M819.2,372.9c-36.9-3.2-55.1-3.9-91.5-3.7c2.5-9.4,3.9-14.2,6.3-23.7
		c36.4,0.3,54.7,1.2,91.7,4.8C823.2,359.6,821.7,364,819.2,372.9z M831.9,330.6c-37-3.9-55.6-5.1-92.1-5.9
		c2.1-7.8,3.2-11.8,5.4-19.7c36.7,1.2,55.1,2.5,92.3,6.7C835.2,319.3,834.1,323,831.9,330.6z M843.4,291.8
		c-37.1-4.7-55.6-6.2-92.4-7.8c2.1-7.4,3-11.1,5.1-18.6c36.9,1.9,55.6,3.6,92.7,8.7C846.6,281.2,845.6,284.8,843.4,291.8z"/>
	<path class="st0" d="M489.6,726.6l-61.1,41.7l0,0c-8.5-12.4-13.1-24.8-13.8-36.7c-0.7-12,2.1-28.5,8.5-49.4
		c3.2-10.5,4.5-18.6,4.3-24.8c-0.4-6.1-2.6-12.1-6.7-18.2c-4.4-6.5-9.5-10.7-15.3-13.1c-5.8-2.2-11-1.8-15.4,1.2
		c-6.1,4.1-8.9,8.9-8.9,14.7c0.1,5.6,3.3,13.1,9.5,21.9L369,678.8c-10.3-14.6-15-28.5-14-41.8s7.4-24.1,19.3-32
		c11.1-7.6,23-9.8,35.5-6.7c12.5,3,23,11,31.5,23.4c6.6,9.8,10,19.4,10.5,29.2c0.6,9.8-2.1,23.2-7.3,40.4
		c-4.5,14.9-6.7,26.8-6.7,35.9l37.8-25.7c-0.3-0.6-0.6-1.2-1-1.9c-19.5-43.7-20.8-92.4-3.7-137c3.2-8.1,6.7-16,11-23.2
		c-38.4-13.9-82.5-9.9-118.8,14.9c-60,40.8-75.6,122.7-34.7,182.8c40.8,60,122.7,75.6,182.8,34.7c3.9-2.6,7.6-5.5,11.1-8.4
		C509.6,752.5,498.8,740.3,489.6,726.6z"/>
	<path class="st0" d="M698,470.2c-86.4-33.1-183.3,10-216.5,96.5c-16.6,43.2-14,89.1,3.4,128.2c3.9,8.8,8.7,17.3,14,25.3
		c18.6,27.6,45.7,50.1,79.1,62.8c86.4,33.1,183.3-10,216.5-96.5C827.7,600,784.4,503.3,698,470.2z M714.7,598.1
		c-5.6,14.9-15.4,25.2-28.9,30.4c-2.9,1.1-5.8,2.1-8.8,2.6c3.2,3.9,5.6,7.8,7.6,12.2c6.9,15,6.9,31.4,0.1,49.1
		c-7.6,19.9-19.3,34-35.1,41.9c-15.8,8-32.5,8.5-50.5,1.7c-17.9-6.9-30.3-18.2-36.7-34c-6.6-15.7-6.2-33,1-51.8
		c7.2-18.8,18.6-32,34-39.5c4.5-2.2,9.4-3.9,14.4-4.5c-1.9-2.6-3.4-5.4-5-8.3c-6.5-13.1-6.7-27-1-41.8c6.5-17.1,16.6-28.7,30.7-35.2
		c13.9-6.5,29.2-6.7,45.2-0.4c16.4,6.3,27.6,16.5,33.6,30.7C721.4,565.5,721.2,581,714.7,598.1z"/>
	<path class="st0" d="M669.3,553.5c-6.7-2.6-13.1-2.3-18.7,1c-5.6,3.2-10,8.9-13.2,17.2c-3.2,8.3-3.7,15.3-1.7,21.5
		c2.1,6.1,6.5,10.5,13.3,13.1c6.7,2.6,13.1,2.3,18.8-0.8c5.6-3.2,10-8.8,13.2-17.1s3.7-15.5,1.7-21.7
		C680.6,560.5,676.2,556.1,669.3,553.5z"/>
	<path class="st0" d="M637,637.8c-7.8-3-15.3-2.5-21.9,1.7c-6.7,4.1-12,11.3-16,21.6c-3.9,10.2-4.8,19-2.5,26.5
		c2.2,7.4,7.3,12.7,15.3,15.7c7.8,3,15.3,2.5,21.9-1.5c6.6-4,12-11.1,15.8-21.5c4-10.3,4.8-19.3,2.6-26.7
		C649.8,646.2,644.8,640.8,637,637.8z"/>
</g>
</svg>
