<?xml version="1.0" encoding="utf-8"?>
<!-- Generator: Adobe Illustrator 21.1.0, SVG Export Plug-In . SVG Version: 6.00 Build 0)  -->
<svg version="1.1" id="图层_1" xmlns="http://www.w3.org/2000/svg" xmlns:xlink="http://www.w3.org/1999/xlink" x="0px" y="0px"
	 viewBox="0 0 1024 1024" style="enable-background:new 0 0 1024 1024;" xml:space="preserve">
<style type="text/css">
	.st0{fill:#5B4516;}
</style>
<g>
	<g>
		<path class="st0" d="M98.5,431.8c-7,4.3-10.5,6.5-17.5,11c-3-9.8-6-19.4-8.9-29.2c8.3-5.1,12.2-7.6,20.6-12.5
			c-1.2-6.3-1.9-9.3-3.2-15.7c16.2-9.3,32.5-18.4,48.9-27.2c1,6.2,1.5,9.3,2.5,15.5c19.9-10.6,40.1-20.8,60.5-30.3
			c13.5,84.6,27.5,169.3,41.9,253.7c-14.7,9.3-29.2,19.1-43.4,29.3c-15.3-75.8-30.3-151.7-44.6-227.7c-3.8,2.1-5.8,3.2-9.8,5.4
			c12.9,77.4,26.5,154.7,41.1,232c-13.3,9.9-26.5,20.1-39.5,30.5C130.3,588.4,113.9,510.2,98.5,431.8z M354.2,535.7
			c-36.2,17.5-70.9,36.7-105,57.8c-13.6-85.7-26.5-171.5-38.8-257.4c38.9-17.5,78.4-33.1,118.7-47
			C337.3,371.3,345.7,453.5,354.2,535.7z M305.7,531.6c-8.5-65.7-16.9-131.5-25.2-197.3c-6.6,2.8-9.9,4-16.5,6.7
			c7.8,66.5,16.1,133.1,24.6,199.6C295.5,537.1,299,535.3,305.7,531.6z"/>
		<path class="st0" d="M634.9,248.9c-24.1,2.3-47.8,5.2-71.8,8.7c-2.8-3.2-4.3-4.5-7-7.7c-43,6.7-85.5,15.4-127.7,26.1
			c-3.4,4.5-5,6.9-8.3,11.5c-22.8,6.3-45.5,13.1-68.1,20.4c8.7-13.6,17.5-27,26.5-40.3c74.9-21.5,151.2-36.2,228.9-44.6
			C616.7,231.7,625.8,240.2,634.9,248.9z M363.3,395.2c1.2-19.7,2.8-39.3,4.3-58.8c84.6-27.9,171.1-46.8,259.5-56.9
			c-2.5,17.2-4.9,34.2-7.4,51.6C531.9,343.4,446.4,364.7,363.3,395.2z M542.2,374.7c-0.3,3.6-0.4,5.5-0.7,9.1
			c28.1-6,56.1-11.1,84.4-15.5c-0.6,8-0.7,12-1.2,19.9c-28.6,4.5-56.9,10-85.3,16.6c-0.3,3.9-0.5,5.9-0.8,9.8
			c28.3-6.6,56.7-12.2,85.4-17c-0.5,8-0.7,12-1.2,19.9c-28.9,5.1-57.5,11.1-85.9,18.2c-1,10.9-1.8,21.7-2.8,32.5
			c-44.8,12.5-88.6,27.5-131.6,45.1c-0.8-8.7-1.2-13.1-2.1-21.6c23.7-9.3,47.6-18.1,71.8-26.1c0.1-4.7,0.3-7,0.6-11.7
			c-33.8,10.9-67,23.2-99.5,37c-1-8.7-1.5-13.1-2.5-21.9c34-13.9,68.3-26.3,103.3-37c0.1-4.1,0.3-6,0.5-10
			c-35.3,10.7-70,23-104.2,36.6c-1-8.7-1.5-13.1-2.5-21.9c35.5-13.8,71.4-26,107.9-36.6c0.1-3.8,0.3-5.6,0.5-9.3
			c-37.1,10.5-73.6,22.7-109.6,36.6c-1.1-9.5-1.7-14.3-2.8-23.8c85.7-31.9,173.9-53.8,264.6-66.1c-0.6,8.8-0.8,13.1-1.2,21.9
			C598.9,363.6,570.4,368.7,542.2,374.7z M626.1,272.8c-89.9,10-177.9,29.3-263.7,57.8c-1-8-1.4-12-2.3-19.9
			c87-28,176.1-46.6,267-56.2C626.6,261.8,626.5,265.4,626.1,272.8z M424,354.5c43.9-13.1,88.4-23.7,133.4-32
			c0.8-6,1.2-8.9,2.1-14.8c-45.2,8-89.6,18.3-133.8,30.9C424.9,344.9,424.5,348,424,354.5z"/>
		<path class="st0" d="M893.9,281.5c4.7,50.2,8.3,100.4,10.5,150.7c-23-1.4-46.1-2.3-69.2-2.5c-3.3-51.2-7.8-102.3-13.5-153.3
			c-6.7-0.3-10.2-0.4-17-0.5c-34.8,51.8-67,105-96.4,160c-23.6,2.6-47.3,5.9-70.8,9.8c26.8-58.2,56.4-114.7,88.8-169.8
			c-25.6,1-51,2.5-76.5,4.8c0.6-9.1,1.2-18.2,1.9-27.2c30.3-2.3,60.4-3.7,90.8-4.3c7.8-12.7,15.8-25.2,23.9-37.5
			c27.1,0.5,54,1.9,81.1,3.8c-8.7,11.5-17.1,23.2-25.4,35.2c43.6,2.3,86.8,6.7,129.9,12.9c-2.5,9.6-3.8,14.4-6.3,23.9
			C928.5,285.2,911.3,283.1,893.9,281.5z"/>
	</g>
</g>
<g>
	<path class="st0" d="M499.4,743.2l-62.6,42.5l0,0c-8.7-12.7-13.3-25.2-14.2-37.5c-0.7-12.2,2.2-29.2,8.7-50.5
		c3.3-10.7,4.7-19.1,4.3-25.2c-0.4-6.1-2.8-12.4-7-18.6c-4.5-6.6-9.8-11-15.5-13.2c-6-2.3-11.1-1.9-15.8,1.2
		c-6.2,4.3-9.2,9.2-9.1,15.1s3.3,13.3,9.8,22.4l-22.1,15.1c-10.5-14.8-15.3-29.1-14.3-42.8c1-13.6,7.6-24.5,19.7-32.9
		c11.4-7.8,23.7-10,36.4-6.9c12.8,3.2,23.7,11.1,32.3,24.1c6.7,9.9,10.3,19.8,10.9,29.7c0.5,9.9-2.1,23.7-7.4,41.3
		c-4.7,15.3-7,27.5-7,36.8l38.6-26.3c-0.3-0.6-0.5-1.2-1-1.9c-19.9-44.7-21.3-94.5-3.7-140.3c3.2-8.3,7-16.4,11.3-23.9
		c-39.2-14.2-84.4-10-121.5,15.3c-61.5,41.8-77.3,125.5-35.5,186.9c41.8,61.5,125.5,77.3,186.9,35.5c4-2.8,7.7-5.6,11.3-8.7
		C520.1,769.6,508.8,757.1,499.4,743.2z"/>
	<path class="st0" d="M650.3,652.3c-8.1-3.2-15.5-2.6-22.3,1.6c-6.7,4.3-12.2,11.6-16.4,22.1c-4,10.4-4.9,19.5-2.6,27.1
		c2.3,7.6,7.6,13.1,15.5,16.1c8.1,3.2,15.5,2.6,22.3-1.5s12.2-11.4,16.2-21.9c4-10.4,5-19.7,2.8-27.4
		C663.5,660.7,658.3,655.4,650.3,652.3z"/>
	<path class="st0" d="M683.4,565.8c-7-2.8-13.3-2.3-19.3,1s-10.3,9.1-13.5,17.6c-3.2,8.4-3.8,15.7-1.7,21.9
		c2.1,6.2,6.7,10.7,13.8,13.3c7,2.8,13.3,2.3,19.3-0.8c5.8-3.2,10.3-8.9,13.5-17.5s3.8-15.9,1.7-22.1
		C694.8,573.1,690.3,568.6,683.4,565.8z"/>
	<path class="st0" d="M712.7,480.7c-88.4-34-187.5,10.3-221.4,98.7C457.4,668,501.5,767,589.9,801c88.4,34,187.5-10.3,221.4-98.7
		C845.1,613.8,801.1,514.6,712.7,480.7z M729.8,611.6c-5.9,15.3-15.7,25.6-29.6,31.1c-2.9,1.1-5.9,2.1-8.9,2.8
		c3.2,3.8,5.6,8.1,7.7,12.6c7,15.3,7,32,0.1,50.2c-7.8,20.4-19.7,34.7-35.8,42.9c-16,8.3-33.1,8.7-51.6,1.7
		c-18.3-7-30.9-18.6-37.5-34.7c-6.7-16.1-6.5-33.7,1-52.9c7.4-19.3,19-32.7,34.8-40.3c4.7-2.3,9.6-3.8,14.7-4.7
		c-1.9-2.8-3.6-5.5-5.1-8.4c-6.6-13.3-6.9-27.5-1.1-42.8c6.6-17.3,17.1-29.4,31.3-36.2c14.3-6.7,29.7-6.7,46.3-0.6
		c16.8,6.5,28.2,16.9,34.4,31.3C736.6,578.2,736.5,594.2,729.8,611.6z"/>
</g>
</svg>
