<?xml version="1.0" encoding="utf-8"?>
<!-- Generator: Adobe Illustrator 21.1.0, SVG Export Plug-In . SVG Version: 6.00 Build 0)  -->
<svg version="1.1" id="图层_1" xmlns="http://www.w3.org/2000/svg" xmlns:xlink="http://www.w3.org/1999/xlink" x="0px" y="0px"
	 viewBox="0 0 1024 1024" style="enable-background:new 0 0 1024 1024;" xml:space="preserve">
<style type="text/css">
	.st0{fill:#5B4516;}
</style>
<g>
	<g>
		<path class="st0" d="M332,443.6c-0.9,0.5-1.4,0.8-2.3,1.3c6.8,31.9,13.7,63.8,20.7,95.6c-12.7,8.8-25,18-37.1,27.6
			c-8.9-32.4-17.6-64.7-26.2-97.2c-1.3,0.9-2,1.4-3.3,2.3c6.6,33.7,13.7,67.2,21.1,100.7c-8.7,7.4-17.2,15.1-25.5,22.9
			c-8.7-34.1-16.9-68.4-24.6-102.7c-4.3,3.3-6.4,4.9-10.6,8.3c-3.4-8.7-6.8-17.4-10.3-26c14-10.5,28.2-20.6,42.8-30.1
			c-2.3-8.3-3.6-12.4-5.9-20.7c-15.6,9.8-30.7,20.1-45.6,31.1c-3.4-8.7-6.9-17.4-10.3-26c5.9-4.2,8.9-6.3,14.9-10.3
			c-5.5-7-11-14-16.5-20.9c16.4-10.8,32.9-20.9,50-30.5c5.1,7.1,10.2,14.2,15.2,21.4c28.3-15.6,57.2-29.4,87.2-41.4
			c-1.2-11.3-2.5-22.7-3.6-34c-3.7,1.4-5.5,2-9.2,3.4c-1.2,9.5-2.3,19.1-3.3,28.7c-17.9,7.5-35.4,15.6-52.7,24.4
			c0.9-10.2,2-20.4,3.2-30.5c-33.9,16.3-66.4,34.8-97.7,55.7c-3.5-8.7-6.9-17.4-10.4-26c15.4-10,31.1-19.4,47.1-28.4
			c0.7-5.9,1-8.8,1.8-14.7c21.4-11.2,43.1-21.5,65.2-31c-1.2,5.6-1.9,8.4-3.1,14c18.6-8,37.4-15.3,56.4-22c-0.2-2.5-0.3-3.8-0.5-6.3
			c40.7-13.5,81.9-23.9,124.1-31.2c0.4,8.2,0.8,16.4,1.2,24.7c-22.8,4.3-45.2,9.4-67.6,15.4c0.5,12.1,1,24.4,1.6,36.5
			c21.8-6.5,43.9-12,66.1-16.7c0.5,54,1.2,108.2,2.1,162.2c-14.9,5.1-29.7,10.8-44.1,17c-3.5-47.5-6.7-95-9.7-142.5
			c-5.2,1.6-7.9,2.4-13.1,4.1c2.5,48.2,5.6,96.4,9,144.7c-14.4,6.7-28.6,14-42.3,22c-0.1-0.4-0.1-0.6-0.2-0.9
			c-9.2,5.2-18.1,10.7-26.9,16.4C350.2,503.7,341.3,473.6,332,443.6z M371,395.8c-0.9-8.2-1.5-12.4-2.3-20.7
			c-15,6.4-29.8,13.2-44.4,20.4c1.5,8.4,2.2,12.5,3.6,20.9C342,409.1,356.4,402.1,371,395.8z M363.8,427.2
			c7.2,26.9,14.2,53.8,21,80.8c-3.8-28.5-7.3-57.1-10.8-85.6C369.9,424.3,367.9,425.2,363.8,427.2z"/>
		<path class="st0" d="M554.1,358.2c0.7-6,1-8.9,1.7-14.9c-17,2.3-33.8,5.1-50.6,8.4c2-21.2,4.2-42.3,6.5-63.5
			c14.8-2.2,29.7-4,44.7-5.5c1-7.9,1.5-11.9,2.5-19.9c-18.5,1.6-37,3.7-55.4,6.4c-0.2-8.6-0.4-12.9-0.6-21.5
			c37.9-5.1,75.9-7.6,114.1-7.8c-3.3,20.1-6.6,40.2-9.8,60.4c-16.3,0.7-32.4,1.8-48.7,3.3c-1.5,7.3-2.2,10.9-3.6,18.2
			c17.5-2,35-3.3,52.5-4.2c-7,43.6-13.7,87.3-20.1,131c-26.8,4.3-53,10.2-79.1,17.7c-0.1-8.4-0.2-12.6-0.4-20.9
			c12.6-3.5,25.3-6.6,38.1-9.2c0.4-3.6,0.6-5.5,0.9-9c-14.2,3-28.1,6.3-42.1,10c-0.1-7-0.2-10.5-0.4-17.5c3.7-0.9,5.6-1.5,9.3-2.3
			c0.5-11.7,1-23.4,1.5-35.1c-4.5,0.9-6.8,1.5-11.3,2.5c-0.1-7-0.3-10.5-0.4-17.5c5-1.1,7.5-1.6,12.6-2.6c0.1-3.5,0.2-5.2,0.4-8.7
			c9.8-1.9,19.6-3.6,29.5-5c-0.3,3.4-0.4,5.2-0.7,8.6C548.8,358.9,550.5,358.7,554.1,358.2z M552.3,375.4c-3.5,0.5-5.2,0.8-8.7,1.4
			c-0.9,11.5-1.9,23.1-2.8,34.5c3.1-0.6,4.7-0.9,7.7-1.5C549.9,398.4,551,386.9,552.3,375.4z M591.2,447.8c0.7-7.3,1-10.8,1.7-18.1
			c60.6-7.4,120.9-6.3,181.3,2.6c-2.2,6.3-3.3,9.3-5.5,15.6C709.6,439.8,650.5,439.6,591.2,447.8z M594.4,422.9
			c5.5-22,11.1-44,17.1-66c60.9-3.1,121,1.2,180.8,12.8c-7.6,18.5-15.1,37.2-22.7,55.8C711.3,417.2,653,416.2,594.4,422.9z
			 M605.8,351.5c0.7-6.7,0.9-10,1.6-16.7c65.8-3,130.7,2.5,195.1,16.2c-2,5.7-3,8.7-4.9,14.4C734.2,352.7,670.3,347.9,605.8,351.5z
			 M610.2,329.4c6-21.6,12.3-43.1,18.8-64.5c65.1,0.9,129.1,9.5,192.3,25.3c-7.6,18.3-15.1,36.7-22.5,55.1
			C736.6,332.4,673.8,326.9,610.2,329.4z M622.5,258.3c0.7-7.3,1.1-10.9,1.8-18.2c70.4,1.3,139.6,11.3,207.7,29.5
			c-2.2,6.3-3.2,9.5-5.4,15.8C759.7,268.1,691.7,259,622.5,258.3z M649.1,393.4c-1.2,3.8-1.8,5.7-3,9.5c7.4-0.2,11.1-0.3,18.6-0.4
			c1.2-3.7,1.7-5.6,2.9-9.2C660.3,393.2,656.6,393.2,649.1,393.4z M674.2,372c-7.4-0.1-11.1-0.2-18.4-0.2c-0.9,2.9-1.3,4.4-2.3,7.3
			c7.3-0.1,11.1-0.1,18.4,0.1C672.9,376.3,673.4,374.9,674.2,372z M685.1,313.8c1.1-3.3,1.6-5,2.7-8.4c-7.3-0.5-11-0.7-18.3-1.1
			c-1.2,3.4-1.7,5.1-2.8,8.5C674,313.2,677.7,313.3,685.1,313.8z M694.5,284.3c-7.3-0.7-10.9-0.9-18.2-1.4c-0.9,2.8-1.4,4.2-2.3,7.1
			c7.3,0.4,11,0.7,18.4,1.2C693.3,288.5,693.7,287.2,694.5,284.3z M708.7,403.8c7.1,0.4,10.8,0.7,17.9,1.4c1.2-3.5,1.9-5.2,3.1-8.7
			c-7.1-0.7-10.7-1-17.8-1.5C710.6,398.5,709.9,400.3,708.7,403.8z M736.4,310.4c-1.2,3.2-1.8,4.8-3,8.1c7.8,1,11.7,1.5,19.6,2.8
			c1.1-3.2,1.6-4.8,2.6-8C747.8,312,744,311.4,736.4,310.4z M719.3,374.6c-1,2.8-1.5,4.1-2.5,6.8c7,0.6,10.5,0.9,17.5,1.7
			c0.9-2.7,1.5-4.1,2.5-6.8C729.7,375.5,726.2,375.2,719.3,374.6z M741.5,296.9c7.6,1.1,11.3,1.7,18.8,3c0.9-2.6,1.4-4,2.3-6.6
			c-7.5-1.3-11.2-1.9-18.6-3.1C743,292.9,742.5,294.2,741.5,296.9z"/>
	</g>
</g>
<g>
	<path class="st0" d="M506.5,717.7l-59.9,40.7l0,0c-8.3-12.2-12.8-24.1-13.5-36c-0.7-11.8,2-27.9,8.3-48.4
		c3.1-10.3,4.5-18.3,4.1-24.1S443,638,438.9,632c-4.3-6.3-9.3-10.5-15-12.7c-5.7-2.2-10.8-1.7-15.1,1.2c-5.9,4-8.8,8.8-8.7,14.5
		c0.1,5.6,3.2,12.8,9.3,21.5l-21.2,14.5c-10.1-14.3-14.7-27.9-13.7-41c0.9-13,7.3-23.5,18.8-31.4c11-7.5,22.5-9.7,34.8-6.5
		c12.3,3.1,22.6,10.8,30.9,23c6.5,9.5,9.9,19,10.3,28.5c0.4,9.5-2,22.7-7.1,39.6c-4.5,14.5-6.7,26.3-6.7,35.2l37-25.2
		c-0.3-0.7-0.6-1.2-0.9-1.8c-19.1-42.8-20.4-90.6-3.6-134.4c3.1-7.9,6.7-15.6,10.8-22.9c-37.6-13.6-81-9.7-116.5,14.5
		c-58.9,40.1-74.1,120.3-34,179.2s120.3,74.1,179.2,34c3.8-2.6,7.4-5.4,10.8-8.3C526.3,743,515.5,731.1,506.5,717.7z"/>
	<path class="st0" d="M711,466.2c-84.7-32.5-179.8,9.9-212.3,94.6c-16.2,42.4-13.7,87.4,3.3,125.8c3.9,8.7,8.4,16.9,13.7,24.8
		c18.3,27.1,44.7,49.1,77.5,61.7c84.7,32.5,179.8-9.9,212.3-94.6C838.1,593.7,795.7,498.6,711,466.2z M727.3,591.5
		c-5.6,14.6-15.1,24.6-28.3,29.7c-2.8,1.1-5.7,2-8.6,2.5c3,3.8,5.5,7.8,7.4,12.1c6.7,14.7,6.8,30.8,0.1,48.2
		c-7.5,19.6-18.9,33.2-34.3,41.1c-15.3,7.8-31.8,8.4-49.4,1.6c-17.6-6.8-29.6-17.8-36-33.2c-6.5-15.4-6.1-32.4,0.9-50.8
		c7.1-18.5,18.2-31.4,33.3-38.6c4.5-2.2,9.2-3.7,14.1-4.5c-1.8-2.5-3.5-5.2-4.9-8.1c-6.3-12.7-6.6-26.4-1-41
		c6.4-16.7,16.4-28.1,30.1-34.5c13.7-6.4,28.5-6.5,44.4-0.4c16.1,6.2,27.1,16.2,32.9,30.1C734,559.6,733.7,574.9,727.3,591.5z"/>
	<path class="st0" d="M682.7,547.8c-6.7-2.5-12.8-2.3-18.4,0.9c-5.5,3.1-9.9,8.7-12.9,16.9c-3.1,8-3.6,15.1-1.5,21
		c2,6,6.4,10.3,13.1,12.8c6.7,2.5,12.9,2.3,18.4-0.7c5.6-3.1,9.9-8.6,12.9-16.7c3.1-8.1,3.6-15.2,1.5-21.2
		C693.9,554.7,689.5,550.4,682.7,547.8z"/>
	<path class="st0" d="M651,630.6c-7.8-3-14.9-2.5-21.4,1.5c-6.5,4-11.7,11.1-15.6,21.2c-3.9,10-4.7,18.7-2.5,26
		c2.2,7.3,7.1,12.4,14.9,15.4c7.8,3,14.9,2.5,21.4-1.5c6.5-3.9,11.6-10.9,15.5-20.9c3.9-10.1,4.7-18.8,2.5-26.2
		S658.8,633.6,651,630.6z"/>
</g>
</svg>
