<?xml version="1.0" encoding="utf-8"?>
<!-- Generator: Adobe Illustrator 21.1.0, SVG Export Plug-In . SVG Version: 6.00 Build 0)  -->
<svg version="1.1" id="图层_1" xmlns="http://www.w3.org/2000/svg" xmlns:xlink="http://www.w3.org/1999/xlink" x="0px" y="0px"
	 viewBox="0 0 1024 1024" style="enable-background:new 0 0 1024 1024;" xml:space="preserve">
<style type="text/css">
	.st0{fill:#5B4516;}
</style>
<g>
	<path class="st0" d="M225.1,447c-1.5-12-3-23.8-4.5-35.6c14.8-7.7,29.7-15.1,44.7-22.3c-1.4-9.8-2.1-14.7-3.6-24.5
		C234,377.5,207,391.3,180.1,406c0.5,4.5,1,6.7,1.6,11.1c-4.5,2.6-6.9,3.8-11.5,6.6c-1.1-6.6-1.6-9.8-2.7-16.4
		c-12.6,7.1-25.2,14.4-37.5,22.1c1.2,6.6,1.8,9.9,3.2,16.6c-4.9,3.2-7.4,4.5-12.2,7.8c-1.2-6.7-1.9-10-3.2-16.6
		c-12.6,7.8-25,15.9-37.3,24.3c1.4,6.7,2.1,10,3.4,16.8c-4.8,3.3-7.1,4.9-12,8.2c2.6,10,3.8,15.3,6.5,25.3c4.3-3.2,6.5-4.5,10.7-7.7
		c8.2,39.5,16.4,79.1,24.7,118.5c-2.3,1.8-3.4,2.7-5.6,4.5c2.6,10,3.8,15.3,6.5,25.3c4.9-4,7.3-5.9,12.2-9.8
		c-0.3,19.5-0.5,39-0.5,58.6c10-8.7,20.3-17,30.8-25.4c0.3-19.1,0.5-38.2,1.1-57.3c2.3-1.8,3.6-2.6,6-4.4
		c5.9,14.2,11.8,28.5,17.7,42.8c10.2-7.6,20.5-15.1,30.9-22.4c-6-14-12-27.9-18.1-41.8c4.5-3.2,6.7-4.5,11.4-7.7
		c2.3,16.4,4.8,32.6,7.1,48.9c10.9-7.6,22-15.1,33.1-22.3c-6.2-47-12.4-94-18.6-140.9c4.3-2.3,6.5-3.6,10.9-6
		c5.9,46.7,12,93.5,18.1,140.2c10.4-6.6,21-13.1,31.8-19.2c-6.5-53.8-12.8-107.6-19.1-161.5C254.7,431.4,239.8,439,225.1,447z
		 M125.4,479.6c4.9-3.2,7.4-4.8,12.4-8c1.6,8.4,2.3,12.6,3.8,21c-4.9,3.2-7.4,4.8-12.2,8.1C127.9,492.1,127.1,487.9,125.4,479.6z
		 M133.8,524.2c4.9-3.3,7.4-4.9,12.2-8.2c1.6,8.9,2.5,13.3,4.3,22.1c-4.9,3.4-7.4,4.9-12.2,8.5C136.4,537.7,135.6,533.3,133.8,524.2
		z M147.6,597c-2.1-10.6-3-15.8-4.9-26.4c4.9-3.4,7.4-5.2,12.2-8.7c2.1,10.4,3,15.7,4.9,26.1C154.8,591.7,152.5,593.4,147.6,597z
		 M194.3,564.5c-6.6-38.5-13.2-77-19.8-115.6c4.3-2.6,6.5-3.8,10.9-6.3c5.6,38.9,11.1,77.8,16.9,116.7
		C199.1,561.4,197.6,562.4,194.3,564.5z"/>
	<path class="st0" d="M489.1,472c-26.5,8.9-52.8,18.7-78.8,29.3c-0.1-11.5-0.1-17.5-0.4-28.9c24.5-9.6,49.1-18.6,74.1-26.7
		c-0.3-8.7-0.4-12.9-0.7-21.4c-24.7,7.8-49.4,16.4-73.7,25.7c-0.1-7.1-0.1-10.7-0.1-17.7c22.5-8.4,45.2-16.1,68.2-23.2
		c0.4-40.3,0.8-80.6,1.2-120.8c-64.8,16.6-127.7,37.9-189.3,64.1c1.2,43.7,2.7,87.4,4.5,131c22.1-11.1,44.5-21.6,67.2-31.6
		c0.1,7.3,0.4,10.9,0.5,18.1c-22.1,9.9-43.9,20.3-65.4,31.3c1.2,8.9,1.8,13.5,3.2,22.5c20.8-10.9,41.9-21.3,63.2-31.1
		c0.4,11.8,0.5,17.7,1,29.6c-21.6,10.4-42.9,21.2-63.9,32.7c1.2,8.9,1.9,13.5,3.2,22.5c59.8-33.4,121.9-61.3,186.6-83.7
		C489.5,484.9,489.3,480.7,489.1,472z M336.9,356c8.7-3.4,13.1-5.1,21.9-8.4c0.3,11.1,0.4,16.6,0.7,27.6c-8.9,3.4-13.3,5.4-22.3,8.9
		C337,372.9,337,367.2,336.9,356z M338,438.4c-0.1-11-0.4-22-0.5-32.9c8.9-3.8,13.5-5.6,22.5-9.3c0.3,10.9,0.5,21.6,1,32.4
		C351.6,432.5,347,434.5,338,438.4z M408.8,330.1c8.7-2.7,13.1-4.3,21.7-6.7c0,10.9-0.1,16.2-0.1,26.9c-8.7,2.7-13.1,4.3-21.4,7.1
		C408.8,346.5,408.8,341,408.8,330.1z M409,378c8.5-3,12.6-4.4,21.3-7.1c0,10.4,0,21,0,31.5c-8.5,2.9-12.6,4.4-21,7.6
		C409.2,399.1,409.2,388.7,409,378z"/>
	<path class="st0" d="M506.5,366.3c0.1,9.2,0.3,13.7,0.4,23c64.3-17,129.5-28.9,195.6-35.3c0.7-8.7,1.1-12.9,1.8-21.4
		C637.5,338.4,571.7,349.5,506.5,366.3z"/>
	<path class="st0" d="M497.9,318.6c71.6-17.3,144.2-28.2,217.8-32.9c0.8-9.2,1.2-13.7,2.1-23c-9.8,0.5-14.7,0.8-24.5,1.4
		c2.7-5.6,4.1-8.7,6.7-14.3c-19.2,1.2-38.5,2.7-57.7,4.8c-2.5,5.9-3.8,8.9-6.2,14.8c-19.1,2.3-38.1,4.9-57.1,8
		c-2.6-5.4-4-8-6.6-13.3c-18.6,3.2-37.1,6.7-55.5,10.4c2.5,5.4,3.8,8.1,6.3,13.3c-10.3,2.2-15.4,3.4-25.7,5.8
		C497.6,303.7,497.7,308.7,497.9,318.6z"/>
	<path class="st0" d="M500.5,485.7c65.9-21,132.8-36,201.3-45.1c0.8-9.2,1.2-13.7,2.1-23c-69.3,8.5-137.1,23-203.9,43.4
		C500.2,470.9,500.3,475.8,500.5,485.7z"/>
	<path class="st0" d="M854.1,286c31.5,2.1,62.8,4.9,94,8.9c1.5-7.1,2.3-10.9,3.8-18c-31.1-4.3-62.1-7.6-93.3-9.8
		c1.6-6.7,2.3-10,3.8-16.6c-19-1.2-37.9-2.3-57.1-2.9c-4.5,21.4-9.2,42.9-13.7,64.3c-21.9,0.1-43.9,1-65.6,2.1
		c-0.8,8.5-1.2,12.8-2.1,21.3c19.1-1.2,38.1-2.1,57.2-2.5c-7.4,35.1-14.6,70.3-21.7,105.4c17.7-1.2,35.7-2.2,53.6-2.6
		c7.8-34.2,15.7-68.3,23.6-102.4c36.6,1.2,73,4,109.3,8.2c1.6-7.7,2.5-11.5,4.3-19.2c-34.2-4.3-68.3-7.1-102.7-8.9
		C850.2,302.5,851.5,297,854.1,286z"/>
	<path class="st0" d="M842.5,340c6.7,30.7,13.1,61.3,18.8,92.1c16.9,0.3,33.8,1.1,50.7,2.2c-5.9-30.7-12.1-61-18.7-91.6
		C876.3,341.5,859.4,340.6,842.5,340z"/>
	<path class="st0" d="M492.6,713.8l-56.2,38.4l0,0c-7.8-11.4-12-22.7-12.6-33.8c-0.7-11.1,1.9-26.3,7.8-45.5
		c2.9-9.6,4.3-17.2,3.8-22.7c-0.3-5.5-2.3-11.1-6.3-16.8c-4-5.9-8.7-9.9-14.2-12c-5.4-2.1-10-1.6-14.2,1.1
		c-5.6,3.8-8.2,8.2-8.2,13.6c0.1,5.4,3,12,8.7,20.2L381.3,670c-9.5-13.3-13.7-26.3-12.9-38.5c0.8-12.2,6.7-22.1,17.7-29.6
		c10.3-7,21.2-9.1,32.7-6.2c11.5,2.9,21.2,10,29.1,21.6c6,8.9,9.3,17.7,9.8,26.8c0.4,8.9-1.8,21.3-6.7,37.3
		c-4.3,13.7-6.3,24.7-6.3,33.1l34.8-23.6c-0.3-0.5-0.5-1.2-0.8-1.6c-17.9-40.3-19.1-85.1-3.4-126.2c2.9-7.6,6.3-14.6,10.2-21.4
		c-35.3-12.8-76-9.1-109.4,13.6c-55.3,37.7-69.6,113-32,168.3c37.7,55.3,113,69.6,168.3,32c3.6-2.3,7-4.9,10.2-7.8
		C511.1,737.6,501,726.5,492.6,713.8z"/>
	<path class="st0" d="M658.2,554.3c-6.3-2.3-12-2.1-17.3,0.8c-5.2,2.9-9.3,8.2-12.2,15.9c-2.9,7.6-3.4,14.2-1.5,19.8
		c1.9,5.6,6,9.6,12.2,12.1c6.3,2.3,12.1,2.2,17.3-0.7c5.2-2.9,9.3-8.1,12.2-15.5c2.9-7.6,3.4-14.3,1.5-19.9
		C668.6,560.8,664.5,556.8,658.2,554.3z"/>
	<path class="st0" d="M684.6,477.6c-79.6-30.5-168.8,9.3-199.3,88.9c-15.3,39.7-12.9,81.9,3.2,118.1c3.6,8.1,7.8,15.9,12.9,23.2
		c17,25.4,41.9,46.1,72.7,57.9c79.6,30.5,168.8-9.3,199.3-88.9C804,597.2,764.2,508.1,684.6,477.6z M700,595.4
		c-5.4,13.7-14.2,23.1-26.5,28c-2.6,1-5.4,1.8-8.1,2.3c2.7,3.4,5.1,7.3,6.9,11.4c6.3,13.7,6.3,28.9,0.1,45.2
		c-7,18.4-17.7,31.2-32.2,38.6c-14.4,7.3-29.8,7.8-46.3,1.5c-16.5-6.3-27.8-16.6-34-31.2c-6-14.4-5.8-30.4,1-47.7
		c6.7-17.5,17-29.6,31.3-36.3c4.3-2.1,8.7-3.4,13.2-4.3c-1.6-2.3-3.3-4.9-4.5-7.6c-5.9-12-6.2-24.7-1-38.5
		c6-15.5,15.4-26.5,28.3-32.4c12.8-6,26.8-6.2,41.8-0.4c15.1,5.8,25.4,15.3,30.9,28.3C706.1,565.5,706,579.8,700,595.4z"/>
	<path class="st0" d="M628.5,632c-7.3-2.7-14-2.3-20.1,1.5c-6,3.8-11,10.4-14.6,19.9c-3.6,9.3-4.4,17.5-2.3,24.3
		c2.1,6.7,6.7,11.7,14,14.4c7.3,2.7,14,2.3,20.1-1.4c6-3.7,11-10.3,14.6-19.7c3.6-9.5,4.4-17.7,2.3-24.6
		C640.3,639.7,635.6,634.9,628.5,632z"/>
</g>
</svg>
