<?xml version="1.0" encoding="utf-8"?>
<!-- Generator: Adobe Illustrator 21.1.0, SVG Export Plug-In . SVG Version: 6.00 Build 0)  -->
<svg version="1.1" id="图层_1" xmlns="http://www.w3.org/2000/svg" xmlns:xlink="http://www.w3.org/1999/xlink" x="0px" y="0px"
	 viewBox="0 0 1024 1024" style="enable-background:new 0 0 1024 1024;" xml:space="preserve">
<style type="text/css">
	.st0{fill:#5B4516;}
</style>
<g>
	<g>
		<path class="st0" d="M173,428.6c-7.8,37.9-14.7,76.2-20.5,114.5c11.5-7.1,23.1-14.3,34.8-21c2.6,11.4,3.8,17,6.5,28.5
			c-28.3,17.2-55.7,35.3-82.6,54.6c-3-10.4-4.5-15.5-7.6-25.8c3.8-37.1,8.7-74.1,14.3-110.9c-12.8,7.6-25.4,15.5-38.1,23.6
			c-3.2-10.7-4.5-15.9-7.7-26.7c6-30.2,12.6-60.5,19.9-90.5c19.2-10.4,38.6-20.3,58.4-29.8c-7.8,27.9-15,56-21.6,84.3
			c13.1-7.1,26.3-14.2,39.5-21C170.2,416.2,171.2,420.3,173,428.6z M206,574.6c-4.8-37.7-9.3-75.5-13.7-113.3
			c-3.6,1.9-5.4,2.7-8.9,4.8c-2.5-11.4-3.8-17-6.3-28.5c4.8-2.5,7.1-3.7,12-6.2c-2.3-21.4-4.7-42.8-7-64.1
			c-7.7,3.7-11.5,5.5-19.2,9.3c-2.6-11.4-3.8-17-6.5-28.5c52.7-24.7,106.4-46.3,161.5-64.8c7,73.8,14.2,147.7,21.4,221.5
			c2.7-1.2,4.1-1.8,6.7-3c1.2,11,2.1,16.5,3.3,27.6c-78.8,36.3-152.6,80.4-221.6,132.8c-3.3-11.5-4.9-17.5-8.2-28.9
			C147.4,612.5,176.3,593,206,574.6z M253.7,547.1c11.3-6,22.5-12,34-17.9c-4.5-35.9-8.9-71.6-13.3-107.5
			c-10.4,4.5-20.8,9.3-31.1,14.2C246.5,473,249.9,509.9,253.7,547.1z M235.4,343.6c1.6,21,3.4,41.9,5.2,63
			c10-4.5,20.1-8.9,30.2-13.3c-2.5-20.3-4.9-40.7-7.6-61C252,336.6,246.4,338.8,235.4,343.6z"/>
		<path class="st0" d="M360.3,524.4c-3.2-66.7-5.6-133.4-8-200c20.8-6.7,41.5-12.9,62.4-18.6c0.1-9.2,0.1-13.7,0.3-23
			c-25.8,6.9-51.6,14.4-77,22.5c-1.2-11-1.9-16.5-3.2-27.5c95.7-29.4,193.3-48.5,293-57.7c-0.5,10-0.8,15.3-1.2,25.3
			c-22.3,2.3-44.5,4.9-66.8,8.1c-1,8.7-1.2,13.1-2.2,21.9c21.3-3.3,42.6-6.2,63.9-8.5c-5.5,60.2-10.9,120.6-15.9,180.8
			C521.2,464.8,439.5,490.1,360.3,524.4z M415.5,476c43.2-15.4,86.9-28.5,131.4-39.3c0.7-11.3,1.2-22.7,2.1-34
			c-20.8,4.7-41.4,9.8-62,15.3c1.5-35.3,3.2-70.5,4.9-105.9c-5.8,1.2-8.7,1.9-14.4,3.3c-1.4,35.5-2.7,70.9-4,106.4
			c-19.5,5.6-38.8,11.8-58,18.3C415.2,452.1,415.3,464,415.5,476z M429.9,327.4c-6,1.6-8.9,2.3-14.8,4.1c0,28.3,0,56.6,0.1,84.8
			c5.5-1.8,8.2-2.7,13.7-4.4C429.2,383.7,429.5,355.6,429.9,327.4z M479.8,267.7c-0.5,8.9-0.8,13.5-1.2,22.5
			c5.8-1.2,8.8-1.9,14.6-3.2c0.4-8.9,0.5-13.3,1.1-22.3C488.5,265.9,485.6,266.5,479.8,267.7z M539.8,302.5
			c-2.1,27.1-4.1,54.2-6,81.2c6.6-1.5,9.9-2.2,16.5-3.4c1.6-26.8,3.2-53.6,4.8-80.4C549,301,545.8,301.4,539.8,302.5z"/>
		<path class="st0" d="M682,227.4c-2.9-6.2-4.3-9.3-7.1-15.5c25.8-1.2,51.7-1.8,77.5-1.9c3.2,6.2,4.5,9.3,7.6,15.5
			c26.5,0.1,52.8,1.1,79.3,2.5c4.1-5.8,6.2-8.7,10.4-14.4c26.7,2.1,53.2,4.5,79.7,7.8c-4.5,5.4-6.7,8.1-11.1,13.5
			c11.3,1.2,22.5,2.7,33.7,4.3c-2.3,9.5-3.4,14.3-5.8,23.8c-100.2-12.5-200.7-14.7-301.4-6.5c0.7-10.9,1-16.2,1.6-26.9
			C658.3,228.9,670.2,228.1,682,227.4z M631.5,438.6c0.7-10.9,1.1-16.1,1.8-26.9c92.7-14.2,185.6-18,279.2-12.2
			c-2.3,9.5-3.6,14.2-5.9,23.6C814.2,418.5,722.5,423.5,631.5,438.6z M649.7,334.7c0.7-10,1.1-15,1.8-25c91-8.9,182-8.7,273.2,0.1
			c-2.1,8.9-3.2,13.3-5.4,22.1C829.3,324.2,739.5,324.9,649.7,334.7z"/>
	</g>
</g>
<g>
	<path class="st0" d="M677,559.8c-7.1-2.7-13.7-2.5-19.8,1c-6,3.4-10.6,9.3-14,18.1c-3.3,8.7-3.8,16.2-1.6,22.5
		c2.2,6.5,6.9,11,14.2,13.7c7.3,2.7,13.7,2.5,19.8-0.8c6-3.3,10.6-9.3,14-17.9c3.3-8.8,3.8-16.4,1.6-23
		C688.8,567.3,684.1,562.7,677,559.8z"/>
	<path class="st0" d="M487.1,742.7l-64.3,43.9l0,0c-8.9-13.1-13.7-26-14.4-38.6c-0.8-12.6,2.2-30.1,8.9-52.1c3.4-11,4.9-19.7,4.5-26
		c-0.4-6.3-2.7-12.6-7.1-19.2c-4.5-6.7-10-11.3-16.1-13.7c-6.2-2.3-11.5-1.9-16.4,1.2c-6.5,4.3-9.5,9.5-9.3,15.5s3.4,13.7,10,23.1
		l-23,15.5c-10.9-15.4-15.8-30.1-14.8-44.1c1-14,7.8-25.3,20.3-33.8c11.8-8,24.3-10.4,37.5-7.1c13.2,3.3,24.3,11.5,33.3,24.7
		c6.9,10.2,10.7,20.3,11.1,30.7c0.5,10.2-2.1,24.3-7.7,42.6c-4.8,15.7-7.1,28.3-7.1,37.9l39.9-27.1c-0.3-0.7-0.5-1.2-1-2.1
		c-20.6-46.1-21.9-97.5-3.8-144.6c3.3-8.7,7.1-16.8,11.5-24.6c-40.6-14.6-87-10.4-125.4,15.5c-63.2,42.8-79.6,129.1-36.4,192.5
		s129.5,79.7,192.9,36.6c4.1-2.7,8-5.8,11.7-8.9C508.4,769.9,497,757,487.1,742.7z"/>
	<path class="st0" d="M707.2,472c-91.1-35.1-193.4,10.6-228.5,101.9c-17.5,45.6-14.8,94,3.6,135.3c4.1,9.3,9.1,18.1,14.8,26.7
		c19.7,29.1,48.1,52.8,83.3,66.4c91.1,35.1,193.4-10.6,228.5-101.9C844,609.1,798.3,507.1,707.2,472z M724.8,607
		c-6,15.8-16.2,26.4-30.5,32c-3,1.2-6,2.1-9.3,2.7c3.2,4,5.9,8.4,8,13.1c7.1,15.8,7.3,33.1,0.1,51.8c-8.1,21-20.3,35.7-36.8,44.1
		c-16.5,8.4-34.2,8.9-53.2,1.6c-18.8-7.3-31.8-19.2-38.8-35.7c-6.9-16.6-6.6-34.8,1-54.6c7.6-19.9,19.7-33.8,35.9-41.5
		c4.9-2.3,9.9-4,15.3-4.9c-2.1-2.7-3.7-5.6-5.4-8.7c-6.7-13.7-7.1-28.5-1.1-44.1c6.9-17.9,17.7-30.2,32.4-37.3
		c14.7-6.9,30.7-7.1,47.8-0.5c17.3,6.6,29.1,17.5,35.3,32.4C731.8,572.6,731.7,589.1,724.8,607z"/>
	<path class="st0" d="M642.7,648.9c-8.2-3.2-15.9-2.6-23,1.6c-7,4.3-12.6,12-16.8,22.8c-4.1,10.9-4.9,20.1-2.7,27.9
		c2.3,7.8,7.7,13.3,15.9,16.6c8.2,3.2,15.9,2.7,23-1.6c7-4.3,12.6-11.8,16.6-22.5c4.3-10.9,5.1-20.3,2.7-28.2
		C656.3,657.7,651.1,652.1,642.7,648.9z"/>
</g>
</svg>
