<?xml version="1.0" encoding="utf-8"?>
<!-- Generator: Adobe Illustrator 21.1.0, SVG Export Plug-In . SVG Version: 6.00 Build 0)  -->
<svg version="1.1" id="图层_1" xmlns="http://www.w3.org/2000/svg" xmlns:xlink="http://www.w3.org/1999/xlink" x="0px" y="0px"
	 viewBox="0 0 1024 1024" style="enable-background:new 0 0 1024 1024;" xml:space="preserve">
<style type="text/css">
	.st0{fill:#5B4516;}
</style>
<g>
	<g>
		<path class="st0" d="M157.7,521c-2.1,11.4-4,22.8-5.8,34.4c-13.6,9.1-27,18.6-40.1,28.1c1.8-14.4,3.8-28.9,5.9-43.3
			c25.6-17.2,51.8-33.6,78.5-49c7.2,7.8,14.2,16,21,23.9c-14.4,8.3-28.6,16.8-42.8,25.6C167.8,532.9,164.4,528.9,157.7,521z
			 M172,427.5c-29.6,16.1-58.4,33.3-86.6,51.3c-4.5-27.4-9.1-54.5-13.3-82c77.3-45.2,158.4-82.1,243.2-111.1c2.3,24.6,4.5,49.2,7,74
			c-30.5,11.5-60.6,24.1-90.2,37.8c0.4,3,0.6,4.5,1,7.6c30-13.9,60.4-26.7,91.2-38.5c1.2,8.5,1.7,12.8,2.9,21.3
			c-31.1,12.1-61.3,25.3-91.3,39.7c0.4,3.3,0.5,5,1,8.3c31.2-15.1,62.8-28.9,95.2-41.5c1.2,9.3,1.8,13.9,3.2,23.2
			c-82.5,33.4-160.5,75.2-233.8,125.8c-3-9.8-4.5-14.6-7.6-24.3c27.8-18.7,56-36.2,85.1-52.8c-0.6-3.3-1-4.9-1.4-8.3
			c-28.2,16-55.7,32.7-82.6,50.6c-2.8-8.9-4.1-13.3-6.7-22.1c28-18.2,56.4-35.1,85.7-51.2C172.8,432.1,172.5,430.6,172,427.5z
			 M252.3,508.9c28.2-14.8,56.8-28.5,86.1-41.3c1.2,9.3,1.8,14,3.2,23.2c-29.2,13.1-57.8,27.4-86.1,42.5c0.8,5.6,1.1,8.7,1.9,14.3
			c29.6-16.4,59.7-31.3,90.5-45.4c1.2,9.3,1.8,13.9,3,23.2c-77.1,36-149.2,80-216.3,132.5c-3-9.8-4.4-14.6-7.4-24.3
			c24.3-18.6,49.4-36.3,75.1-53.1c-1-5.9-1.2-8.9-2.1-14.8c-24.9,15.9-49.2,32.7-73,50.3c-2.9-9.8-4.4-14.6-7.3-24.3
			c24.9-18,50.3-35.1,76.4-51.3c-0.4-2.8-0.5-4.1-1-6.7c18.4-11.1,37.1-21.7,56.1-31.8C251.7,505,252,506.2,252.3,508.9z
			 M169.5,369.2c-16.1,8-32,16.4-47.7,25c1.2,11.3,2.8,22.5,4.1,33.8c16-9.2,32.2-18,48.5-26.4C172.8,390.8,171,380,169.5,369.2z
			 M159.7,380c5.2,7,7.8,10.4,12.9,17.5c-12.2,6.3-24.3,12.8-36.4,19.5c-5.4-7-7.8-10.5-13.3-17.5
			C135.1,392.8,147.3,386.2,159.7,380z M209.9,483.4c14.6-7.8,29.4-15.5,44.3-23.1c7.2,7.8,14.4,15.7,21.5,23.7
			c-15.1,7.6-30,15.3-44.8,23.4C223.9,499.3,216.9,491.5,209.9,483.4z M217.3,346.7c1.2,10.7,2.3,21.5,3.6,32.2
			c16.1-7.6,32.4-14.6,48.9-21.3c-1-10.5-1.7-21-2.6-31.6C250.5,332.5,233.8,339.4,217.3,346.7z M266,331.8
			c-2.8,9.6-4.1,14.4-6.7,24.2c-12.5,5.2-24.9,10.6-37.3,16.4c2.5-10,3.8-14.9,6.5-24.8C240.8,342,253.4,336.8,266,331.8z
			 M269.9,452.8c15.5-7.3,31.1-14.3,46.9-21c6.5,8.3,12.9,16.4,19.3,24.6c-15.8,6.7-31.4,13.8-46.9,21
			C282.8,469.2,276.3,461.1,269.9,452.8z"/>
		<path class="st0" d="M362.1,520.9c-3.4-65.5-6.3-131-8.8-196.5c20.5-6.7,41.1-12.9,61.9-18.6c0.1-8.9,0.1-13.5,0.1-22.5
			c-25.7,6.7-51.2,14.3-76.5,22.5c-1.2-10.9-2.1-16.2-3.3-27c95.1-29.6,192.2-48.3,291.5-56.7c-0.6,9.9-0.8,14.8-1.4,24.8
			c-22.1,2.1-44.4,4.5-66.6,7.7c-1,8.7-1.4,12.8-2.3,21.4c21-3.2,42.3-5.9,63.7-8c-5.6,59.3-11.1,118.4-16.5,177.5
			C520.8,461.9,440.2,486.9,362.1,520.9z M416.4,473.2c42.6-15.3,85.8-28,129.8-38.6c0.7-11.1,1.4-22.1,2.1-33.4
			c-20.6,4.5-41,9.5-61.3,14.8c1.5-34.7,3.2-69.3,4.8-104.1c-5.8,1.2-8.7,1.9-14.4,3.2c-1.4,34.8-2.8,69.7-3.9,104.5
			c-19.3,5.6-38.4,11.5-57.5,18C416,449.7,416.2,461.4,416.4,473.2z M430.2,327c-5.9,1.7-8.8,2.3-14.7,4.1c0,27.8,0.1,55.6,0.3,83.5
			c5.4-1.8,8.3-2.8,13.6-4.4C429.6,382.4,429.9,354.8,430.2,327z M479.7,268.3c-0.5,8.8-0.8,13.2-1.2,22.1c5.8-1.2,8.7-1.9,14.4-3.2
			c0.4-8.8,0.5-13.1,1.1-21.9C488.3,266.7,485.5,267.2,479.7,268.3z M539.4,302.8c-2.1,26.5-4.1,53.2-6.1,79.8
			c6.5-1.4,9.8-2.1,16.4-3.4c1.7-26.3,3.2-52.7,4.9-78.9C548.4,301.2,545.4,301.7,539.4,302.8z"/>
		<path class="st0" d="M843.5,335.7c-69.4-3.2-138.5-1-207.5,6.7c0.5-8.5,1-12.7,1.4-21.2c97.5-10,195-8.9,292.3,2.6
			c-2.1,7.4-3,11.1-4.9,18.6c-4.4-0.5-6.6-0.8-11-1.2c-8.7,28.9-17.3,57.8-26,86.8c-23-1.2-45.8-2.1-68.8-2.2
			C827.3,395.8,835.4,365.7,843.5,335.7z M862.3,243.8c-72.1-6-144.1-6.7-216.4-2.1c0.6-8.5,1-12.7,1.4-21.2
			c102.2-6.1,203.6-1,304.7,14.8c-1.9,7.4-2.9,11.1-4.9,18.6c-4.4-0.7-6.6-1-11-1.7c-6.6,21.5-13.3,42.8-19.9,64.1
			c-24.1-2.8-48.1-4.8-72.3-6.3C850.1,288.3,856.3,266,862.3,243.8z M631.5,439.5c7.2-29.2,14.6-58.3,22.3-87.5
			c57.1-5.8,114-7.8,171.2-6.3c-6.7,26.3-13.3,52.7-19.9,78.9C746.8,425.6,689.1,430.6,631.5,439.5z M667.4,250
			c59.7-3.2,119.1-2.8,178.8,1.5c-4.9,18.6-10,36.8-15.1,55.4c-59.9-2.6-119.8-1.4-179.6,3.8C656.8,290.5,662.2,270.2,667.4,250z
			 M700.7,410.1c14.8-1.4,29.6-2.3,44.4-3.2c3.2-13.8,6.5-27.6,9.8-41.3c-13.8,0.4-27.5,1.1-41.3,2.1
			C709.2,381.8,704.9,395.9,700.7,410.1z M721,287.6c16.8-0.4,33.6-0.5,50.3-0.5c2.1-8.3,3.2-12.2,5.4-20.5
			c-16.4-0.1-32.4-0.1-48.8,0C725.1,274.9,723.9,279.2,721,287.6z"/>
	</g>
</g>
<g>
	<path class="st0" d="M492.1,735.5l-63.3,43.2l0,0c-8.8-12.9-13.5-25.4-14.3-37.9c-0.7-12.5,2.2-29.6,8.8-51.2
		c3.3-10.9,4.8-19.3,4.4-25.6c-0.4-6.2-2.8-12.5-7.2-18.8c-4.5-6.6-9.8-11.1-16-13.3c-6-2.3-11.4-1.9-16,1.2
		c-6.3,4.3-9.3,9.4-9.2,15.3c0.1,5.9,3.4,13.5,9.8,22.7l-22.4,15.3c-10.7-15.1-15.5-29.6-14.4-43.3c1-13.8,7.6-24.9,19.9-33.3
		c11.5-7.8,23.9-10.2,36.8-6.9c13.1,3.3,23.9,11.3,32.7,24.3c6.7,10,10.5,20.1,10.9,30.1c0.5,10-2.1,24.1-7.6,41.8
		c-4.7,15.4-7.2,27.8-7.2,37.3l39-26.5c-0.3-0.7-0.5-1.2-1-2.1c-20.2-45.4-21.5-95.7-3.8-142c3.2-8.4,7.2-16.5,11.4-24.2
		c-39.7-14.4-85.5-10.2-123.1,15.4c-62.2,42.3-78.4,127.2-36,189.5c42.4,62.2,127.2,78.4,189.5,36c4-2.8,7.8-5.6,11.5-8.7
		C513,762.4,501.5,749.7,492.1,735.5z"/>
	<path class="st0" d="M708.1,469.8c-89.7-34.4-190,10.5-224.4,100c-17.2,44.8-14.4,92.3,3.6,133c4.1,9.1,8.9,17.9,14.4,26.3
		c19.3,28.7,47.2,52,81.9,65.2c89.7,34.4,190-10.4,224.4-100C842.4,604.5,797.7,504,708.1,469.8z M725.4,602.3
		c-5.9,15.5-15.9,26-30,31.5c-3,1.2-6.1,2.1-9.1,2.8c3.2,4,5.8,8.3,7.8,12.8c7.2,15.5,7.2,32.4,0.1,50.9
		c-7.8,20.8-19.9,35.1-36.2,43.4c-16.2,8.3-33.6,8.8-52.3,1.7c-18.6-7.2-31.3-18.8-38.1-35.1c-6.7-16.4-6.5-34.2,1-53.8
		c7.6-19.7,19.3-33.3,35.2-40.8c4.8-2.3,9.8-3.9,14.8-4.8c-2.1-2.8-3.7-5.5-5.2-8.5c-6.7-13.3-7-27.9-1.1-43.5
		c6.7-17.6,17.3-29.8,31.8-36.6c14.4-6.7,30.1-6.9,47-0.6c17.1,6.5,28.6,17.1,34.8,31.8C732.4,568.6,732.1,584.7,725.4,602.3z"/>
	<path class="st0" d="M644.7,643.6c-8.3-3.2-15.7-2.6-22.6,1.7c-6.9,4.3-12.4,11.7-16.5,22.4c-4.1,10.6-4.9,19.7-2.6,27.4
		c2.3,7.7,7.6,13.1,15.8,16.4c8.3,3.2,15.7,2.6,22.6-1.7c6.9-4.3,12.2-11.5,16.4-22.1c4.1-10.7,4.9-19.9,2.8-27.8
		C658.3,652.2,652.9,646.7,644.7,643.6z"/>
	<path class="st0" d="M678.4,556.1c-7.2-2.8-13.6-2.3-19.4,1c-5.9,3.3-10.4,9.3-13.8,17.7c-3.3,8.5-3.8,15.9-1.7,22.1
		c2.2,6.3,6.7,10.9,13.9,13.6c7.2,2.8,13.6,2.5,19.5-0.8c5.9-3.2,10.4-9.1,13.8-17.6c3.3-8.7,3.8-16.1,1.7-22.5
		C690.1,563.4,685.4,558.7,678.4,556.1z"/>
</g>
</svg>
