<?xml version="1.0" encoding="utf-8"?>
<!-- Generator: Adobe Illustrator 21.1.0, SVG Export Plug-In . SVG Version: 6.00 Build 0)  -->
<svg version="1.1" id="图层_1" xmlns="http://www.w3.org/2000/svg" xmlns:xlink="http://www.w3.org/1999/xlink" x="0px" y="0px"
	 viewBox="0 0 1024 1024" style="enable-background:new 0 0 1024 1024;" xml:space="preserve">
<style type="text/css">
	.st0{fill:#5B4516;}
</style>
<g>
	<path class="st0" d="M294.2,322c1.6,13.8,3.3,27.6,4.9,41.4c-3.4,1.6-5.2,2.5-8.5,4.1c2.4,10.3,3.6,15.4,6,25.7
		c2.3-1.2,3.5-1.7,5.9-3c2.2,17.2,4.4,34.3,6.8,51.3c-3.2,1.7-4.7,2.6-7.9,4.4c2.5,10.3,3.7,15.4,6.2,25.7c2.2-1.3,3.3-1.9,5.5-3.2
		c3.9,27.5,8,55,12.2,82.5c11.8-8,17.8-11.9,30.1-19.3c-3.3-27-6.3-54-9.4-81.1c4.4-2.3,6.6-3.3,11.1-5.5
		c3.6,26.4,7.1,52.9,10.8,79.3c13.2-7.6,20-11.2,33.7-18.1c-8.4-81.3-16.5-162.7-24.1-244.1c-34.5,10.7-68.3,23-101.5,37.2
		c2.6,11.1,3.9,16.7,6.6,27.9C287.3,325,289.6,323.9,294.2,322z M353.7,419c-4.2,2-6.3,2.9-10.4,4.9c-1.8-16.8-3.5-33.6-5.2-50.5
		c3.7-1.6,5.5-2.4,9.2-4C349.5,386.1,351.6,402.5,353.7,419z M339,303.8c1.7,13.3,3.3,26.6,5,39.9c-3.4,1.4-5.1,2-8.5,3.5
		c-1.2-13.6-2.5-27.1-3.6-40.7C334.8,305.4,336.2,304.9,339,303.8z"/>
	<path class="st0" d="M442.7,487.3c-4.2-70.1-8.2-140.2-12-210.3c7.2-1.8,10.8-2.7,18.1-4.4c-3.4,24.3-6.5,48.6-9.5,72.9
		c0.6,6.3,0.9,9.5,1.4,15.9c3.6-1.1,5.5-1.7,9.2-2.8c-0.4,39.6-0.5,79.1-0.3,118.8c12.9-5.2,19.4-7.6,32.7-12.1
		c1.1-46.4,2.5-92.8,4.3-139.2c-5.2,1.2-7.9,1.8-13.2,3.1c3.3-20.9,6.8-41.8,10.6-62.7c-0.5-11.6-0.7-17.5-1.3-29
		c-33.2,6-65.8,13.5-98.3,22.6c8.1,80.8,16.4,161.6,24.9,242.3C422.5,496,429.1,493,442.7,487.3z"/>
	<path class="st0" d="M290.6,427.3c3.9-4,5.7-6,9.7-9.8c-2.8-11.9-4.2-17.7-7-29.6c-3.6,3.4-5.5,5.1-9,8.6
		c-3.8-18.2-7.5-36.4-11.2-54.5c3.3-1.6,5-2.4,8.3-3.9c-2.6-11.1-4-16.6-6.6-27.6c-3,1.3-4.4,2-7.4,3.3c-1.2-6.2-1.8-9.2-3-15.3
		c-18.1,8.3-35.9,17-53.5,26.3c1.6,6.2,2.4,9.3,4,15.5c-9.2,5-13.7,7.6-22.8,12.9c3.6,11.2,5.5,16.8,9.2,27.9
		c8.3-5,12.5-7.5,21-12.4c6.3,24.7,12.7,49.2,19.2,73.9c-5.9,6.9-8.8,10.4-14.5,17.5c4,12.4,6,18.5,10,30.8c5-6.7,7.6-10,12.7-16.5
		c7.3,27.5,14.5,55,21.9,82.4c-4.6,3.5-6.8,5.3-11.3,8.9c3.6,11.2,5.4,16.7,8.9,27.9c15.9-13.1,32-25.5,48.7-37.5
		C308.6,513.1,299.6,470.2,290.6,427.3z"/>
	<path class="st0" d="M579.1,331.5c3.7-0.4,5.6-0.7,9.3-1.1c-2.3,14.5-4.4,29.2-6.5,43.7c3.1,7.9,4.7,11.9,7.6,19.9
		c-8.4,18-16.4,36.1-24.1,54.5c14.7-3.2,29.5-5.7,44.4-8.1c6.2-14.9,12.4-29.8,18.9-44.6c2,13.7,3.9,27.6,5.5,41.3
		c14.7-1.7,29.4-3,44.1-3.8c-2.3-15-4.8-30-7.4-44.9c5.4-9.7,8.1-14.5,13.7-24.1c3.1-12.9,6.3-25.7,9.5-38.6
		c4.3,0.1,6.5,0.1,10.8,0.3c1.5-8.6,2.3-12.9,3.8-21.4c-3.7-0.1-5.6-0.2-9.3-0.4c0.8-3.3,1.2-4.9,2-8.2c-16.1-0.5-32.1-0.7-48.1-0.6
		c-0.7,3.4-1,5.1-1.7,8.5c-5.1,0.1-7.6,0.2-12.7,0.4c0.7-3.4,1.1-5.2,1.9-8.6c-15.9,0.7-31.6,1.5-47.5,2.8c-0.5,3.6-0.8,5.3-1.3,8.8
		c-3.6,0.4-5.5,0.5-9,0.9c1.2-6.8,1.7-10.3,2.9-17c39.4-3.2,78.6-4,118.2-2.5c1.3-7.9,2-11.9,3.3-19.9c-39.3-1.9-78.3-1.6-117.6,0.9
		c0.7-4.1,1-6.1,1.7-10.2c40-2.3,79.6-2.3,119.6-0.1c1.2,22,2,43.9,2.5,66c-6,2-9,3-14.9,5.1c-2,11.9-3.1,17.9-5.1,29.8
		c8.2-3.2,12.4-4.7,20.7-7.7c0.3,26.5,0.2,53.2-0.2,79.7c19.3-0.1,38.6,0.5,57.8,1.9c1.7-33.2,2.8-66.2,3.3-99.4
		c11.4-2.8,17.2-4,28.8-6.3c3.1-10.8,4.5-16.2,7.6-27c-14.7,2.5-21.9,3.9-36.3,7.1c-0.1-14.3-0.2-28.4-0.5-42.7
		c15.4,2.3,30.8,4.7,46,7.5c0.9-12.4,1.4-18.7,2.1-31.2c-15.2-3.1-22.8-4.4-38-6.8c0.1,3.6,0.1,5.5,0.1,9.2c-4.4-0.7-6.5-1-10.9-1.6
		c-0.1-5.5-0.3-8.3-0.4-13.8c-21.6-3.1-43.3-5.6-65-7.3c0.4,5.7,0.5,8.4,0.9,14.1c-61.2-3.9-121.8-2.3-182.7,4.9
		c-8.7,74.3-16,148.9-21.8,223.5c18.3-5.7,36.9-10.6,55.6-14.8C566.5,410.1,572.6,370.7,579.1,331.5z M634,326.7
		c5.2-0.3,7.9-0.4,13.2-0.6c-2.4,12.6-3.6,18.8-6,31.4c-4,8.2-6,12.4-9.9,20.7c-1.6-7.9-2.4-11.8-4.1-19.7
		C629.9,345.8,631.3,339.4,634,326.7z"/>
	<path class="st0" d="M506.7,732.6l-62.8,42.8l0,0c-8.7-12.8-13.5-25.4-14.2-37.7c-0.7-12.4,2.2-29.3,8.7-50.8
		c3.3-10.8,4.7-19.2,4.4-25.4c-0.4-6.2-2.7-12.4-7.1-18.8c-4.5-6.6-9.7-11.1-15.7-13.3c-6-2.3-11.3-1.9-15.9,1.2
		c-6.2,4.2-9.2,9.2-9.2,15.2c0.1,5.9,3.3,13.5,9.7,22.5l-22.3,15.2c-10.6-15-15.4-29.3-14.4-43s7.6-24.7,19.8-33
		c11.5-7.9,23.7-10.1,36.6-6.9c12.9,3.2,23.7,11.3,32.4,24.1c6.8,10,10.4,19.9,10.8,29.9c0.4,10-2,23.9-7.5,41.5
		c-4.7,15.3-7.1,27.6-7.1,36.9l38.8-26.5c-0.3-0.7-0.6-1.3-0.9-2c-20.1-44.9-21.4-95-3.8-141c3.2-8.4,7.1-16.4,11.3-24
		c-39.4-14.3-84.9-10.2-122.2,15.3c-61.8,42-77.7,126.2-35.7,188.1s126.2,77.7,188.1,35.7c4-2.7,7.8-5.6,11.3-8.7
		C527.4,759.1,516.1,746.6,506.7,732.6z"/>
	<path class="st0" d="M691.6,554.4c-7.1-2.7-13.5-2.4-19.3,0.9c-5.8,3.3-10.3,9.2-13.6,17.7c-3.2,8.4-3.8,15.8-1.6,22
		s6.8,10.8,13.7,13.5c7.1,2.7,13.5,2.5,19.3-0.8c5.8-3.2,10.4-9,13.6-17.5c3.3-8.5,3.9-16,1.7-22.3
		C703.2,561.6,698.6,557.1,691.6,554.4z"/>
	<path class="st0" d="M658.3,641.2c-8.1-3.1-15.6-2.5-22.5,1.6c-6.8,4.2-12.3,11.6-16.4,22.2c-4,10.5-4.9,19.6-2.6,27.3
		c2.3,7.6,7.5,13,15.6,16.1c8.1,3.1,15.6,2.6,22.5-1.5c6.8-4.1,12.2-11.5,16.3-22c4.1-10.6,4.9-19.8,2.7-27.5
		C671.7,649.7,666.4,644.3,658.3,641.2z"/>
	<path class="st0" d="M721.2,468.6c-88.9-34-188.6,10.4-222.7,99.3c-17,44.4-14.5,91.6,3.6,131.9c4.1,9.1,8.9,17.8,14.4,26
		c19.1,28.4,46.9,51.6,81.4,64.7c88.9,34.1,188.6-10.4,222.7-99.3S810.1,502.7,721.2,468.6z M738.4,600.3
		c-5.9,15.3-15.8,25.7-29.7,31.3c-2.9,1.2-6,2-9,2.7c3.2,3.9,5.7,8.1,7.8,12.7c7.1,15.4,7.1,32.3,0.1,50.5
		c-7.9,20.5-19.9,34.9-36,43.1c-16.1,8.2-33.4,8.8-51.8,1.7c-18.5-7.1-31.1-18.7-37.8-34.9c-6.8-16.2-6.4-34,0.9-53.3
		c7.4-19.4,19.1-32.9,35-40.5c4.7-2.3,9.7-3.9,14.8-4.7c-2-2.7-3.6-5.5-5.1-8.4c-6.6-13.3-7-27.7-1.1-43.1
		c6.7-17.5,17.2-29.5,31.6-36.3c14.3-6.7,29.9-6.9,46.6-0.4c16.9,6.5,28.4,17,34.5,31.6C745.3,566.7,745,582.8,738.4,600.3z"/>
</g>
</svg>
