<?xml version="1.0" encoding="utf-8"?>
<!-- Generator: Adobe Illustrator 21.1.0, SVG Export Plug-In . SVG Version: 6.00 Build 0)  -->
<svg version="1.1" id="图层_1" xmlns="http://www.w3.org/2000/svg" xmlns:xlink="http://www.w3.org/1999/xlink" x="0px" y="0px"
	 viewBox="0 0 1024 1024" style="enable-background:new 0 0 1024 1024;" xml:space="preserve">
<style type="text/css">
	.st0{fill:#5B4516;}
</style>
<g>
	<path class="st0" d="M279.1,334.6c9.7,17.6,19.2,35.3,28.5,53.1c18.5-8.6,37.2-16.5,56.2-23.9c-8.4-17.8-17-35.6-25.8-53.2
		C318.1,318,298.5,326,279.1,334.6z"/>
	<path class="st0" d="M284.3,437.2c31.4-17.2,63.6-32.1,96.9-45.2c3.6,39.6,7.4,79.3,11.3,118.9c20.2-9.8,40.7-18.7,61.7-26.8
		c-1.2-38.4-2.4-76.8-3.4-115.2c8.1-2.3,16.3-4.4,24.5-6.5c-0.4-8.3-0.7-16.6-1.1-24.9c-8.1,1.8-16.1,3.9-24.1,5.9
		c-0.9-34.7-1.7-69.4-2.4-104.1c-89.6,18.2-175.1,48.8-255.7,92c8.2,38.3,16.7,76.7,25.5,114.8c-7.1,4.7-10.7,7.1-17.7,11.9
		c3.1,8.9,6.1,17.8,9.2,26.7c5.9-4.3,8.9-6.3,14.9-10.5c10,42.5,20.4,84.9,31.1,127.3c16.4-13.9,33.3-27.1,50.8-39.5
		C298.3,520.6,291.1,478.9,284.3,437.2z M267.1,326.5c34.1-15.3,68.9-28.6,104.6-39.8c2.3,26.4,4.6,52.7,7,79.1
		c-33.9,12.6-66.8,27.1-98.8,43.8C275.5,382,271.3,354.3,267.1,326.5z"/>
	<path class="st0" d="M789.8,339.7c-63-8.9-126.1-11.2-189.5-6.5c3.5-4,5.3-6,8.9-10c-27.7,2-55.1,5.1-82.5,9.5
		c-9.7,12.9-19.1,26.3-28,39.7c61.2-13.4,123.1-19.7,185.8-19.4c-15.6,8.5-30.8,17.5-45.9,27.1c-10.5-6.2-21.1-12.2-31.7-18.2
		c-28.7,2.7-57.1,6.7-85.5,12.1c11.1,5.8,22.3,11.8,33.2,17.9c-21.9,25-42.1,51.1-60.9,78.5c28.8-8.7,57.9-15.6,87.6-21
		c17.7-21.9,36.4-42.8,56.2-62.8c11.6,17.5,22.8,35.1,33.7,52.9c30.5-1.2,60.9-0.7,91.4,1.5c-12.7-20-25.9-39.7-39.5-59.1
		c20.5-10.5,41.4-20,62.8-28.6C787.4,348,788.2,345.2,789.8,339.7z"/>
	<path class="st0" d="M490.5,310.4c0.2,8.2,0.4,16.4,0.7,24.7c104.7-21.2,211-22.4,316.3-4.9c2.4-8.1,3.6-12.3,6-20.4
		c-41.5-7.4-83.1-12.1-125.1-14.1c1.8-5.7,2.8-8.7,4.6-14.4c38.5,2.2,76.6,6.7,114.5,13.4c2.2-7.6,3.3-11.5,5.5-19.1
		c-37.5-7.1-75.2-11.9-113.2-14.7c1.5-4.4,2.2-6.5,3.6-10.8c39.5,3.2,78.6,8.7,117.5,16.4c2.4-8.2,3.6-12.4,5.9-20.6
		c-38.4-8.1-77-14-116.1-17.7c0.9-2.8,1.4-4.1,2.3-6.9c-29.5-2.6-58.9-4.1-88.5-4.2c-0.8,3-1.2,4.4-1.9,7.3
		c-43,0.4-85.6,3.6-128.2,9.5c0.2,8.2,0.4,16.4,0.6,24.7c40.2-6.1,80.5-9.7,121.2-10.8c-1.2,4.6-1.8,6.9-3.1,11.5
		c-38.1,1.4-75.9,4.9-113.6,10.7c0.1,9.1,0.3,13.7,0.4,22.8c35.7-5.9,71.5-9.8,107.6-11.6c-1.6,6.1-2.4,9.2-3.9,15.3
		C565.5,298.6,527.9,303.4,490.5,310.4z"/>
	<path class="st0" d="M686.6,550.6c-7.3-2.8-14-2.5-19.9,0.9c-6,3.4-10.7,9.5-14.1,18.3c-3.3,8.7-3.9,16.4-1.7,22.8
		c2.3,6.5,7,11.1,14.3,14c7.3,2.8,14,2.5,20-0.8c6-3.3,10.8-9.4,14.1-18.1c3.4-8.8,3.9-16.5,1.7-23.1
		C698.7,558.1,693.9,553.3,686.6,550.6z"/>
	<path class="st0" d="M495.1,735.2L430,779.5l0,0c-9-13.2-13.9-26.3-14.6-39.1c-0.8-12.8,2.3-30.4,9-52.7
		c3.4-11.1,4.9-19.9,4.5-26.3c-0.4-6.4-2.8-12.9-7.3-19.4c-4.7-6.8-10.1-11.4-16.3-13.8c-6.2-2.3-11.7-2-16.4,1.3
		c-6.4,4.4-9.6,9.6-9.5,15.7s3.5,13.9,10.1,23.3l-23.1,15.7c-11-15.6-15.9-30.4-14.9-44.6s7.9-25.5,20.5-34.2
		c11.9-8.1,24.5-10.5,37.9-7.1c13.3,3.3,24.6,11.6,33.6,25c7,10.3,10.8,20.7,11.3,31c0.5,10.3-2.1,24.7-7.7,43
		c-4.9,15.9-7.3,28.6-7.3,38.3l40.2-27.4c-0.3-0.7-0.7-1.3-0.9-2c-20.7-46.5-22.2-98.5-3.9-146c3.3-8.7,7.3-16.9,11.8-24.9
		C446,520.5,399,524.7,360.3,551c-64,43.6-80.6,130.8-37,194.8s130.8,80.6,194.8,37c4.1-2.8,8.1-5.8,11.8-9
		C516.6,762.7,504.9,749.7,495.1,735.2z"/>
	<path class="st0" d="M717.3,461.8c-92.1-35.3-195.4,10.8-230.7,102.8c-17.7,46-15,94.9,3.6,136.7c4.2,9.4,9.2,18.4,14.9,27
		c19.8,29.5,48.6,53.4,84.3,67.1c92.1,35.3,195.4-10.8,230.7-102.8C855.4,600.4,809.4,497.1,717.3,461.8z M735.1,598.1
		c-6.1,15.9-16.4,26.7-30.8,32.4c-3.1,1.2-6.2,2.1-9.4,2.8c3.3,4.1,6,8.4,8,13.2c7.3,16,7.3,33.5,0.1,52.3
		c-8.1,21.2-20.6,36.1-37.2,44.7c-16.7,8.5-34.5,9.1-53.7,1.7c-19.1-7.3-32.1-19.3-39.2-36.1c-7-16.7-6.7-35.1,1-55.2
		c7.7-20.1,19.8-34.1,36.2-42c4.9-2.3,10-4,15.3-4.9c-2-2.8-3.8-5.7-5.3-8.7c-6.8-13.8-7.2-28.7-1.1-44.6
		c6.9-18.1,17.8-30.6,32.7-37.6c14.8-7,31-7.1,48.3-0.5c17.5,6.7,29.4,17.6,35.8,32.7C742.3,563.5,742,580,735.1,598.1z"/>
	<path class="st0" d="M652.2,640.5c-8.4-3.2-16.1-2.6-23.3,1.7c-7.1,4.4-12.7,12-16.9,23c-4.1,10.9-5.1,20.3-2.7,28.2
		c2.4,7.9,7.8,13.5,16.2,16.7c8.4,3.2,16.1,2.7,23.3-1.6c7.1-4.3,12.7-11.9,16.9-22.8c4.2-11,5.2-20.4,2.8-28.4
		C666,649.3,660.6,643.7,652.2,640.5z"/>
</g>
</svg>
