<?xml version="1.0" encoding="utf-8"?>
<!-- Generator: Adobe Illustrator 21.1.0, SVG Export Plug-In . SVG Version: 6.00 Build 0)  -->
<svg version="1.1" id="图层_1" xmlns="http://www.w3.org/2000/svg" xmlns:xlink="http://www.w3.org/1999/xlink" x="0px" y="0px"
	 viewBox="0 0 1024 1024" style="enable-background:new 0 0 1024 1024;" xml:space="preserve">
<style type="text/css">
	.st0{fill:#5B4516;}
</style>
<g>
	<path class="st0" d="M486.7,469.2c-0.4-8.3-0.7-16.5-1-24.8c-18.5,5.7-36.7,12.3-54.5,19.6c-3.7-49.1-7.1-98.2-10.3-147.3
		c18.9-7.9,38.1-14.9,57.6-21.3c-0.4-9.2-0.9-18.3-1.5-27.5c-19.6,6-38.9,12.6-58,20c-0.7-11.5-1.4-23.1-2.1-34.5
		c-26.1,6.4-51.8,13.9-77.2,22.7c11.6,81.2,23.9,162.2,37.2,243.1C411.8,498.6,448.3,482.1,486.7,469.2z"/>
	<path class="st0" d="M310.9,286.6c-24.7,10-48.6,21-72.3,33.2c3.6,14.1,7.3,28.2,11,42.3c-19.7,11.3-38.8,23.4-57.6,36.4
		c3.6,8.8,7.3,17.5,11,26.3c17.5-12.6,35.4-24.4,53.9-35.5c13.6,50.9,27.6,101.7,41.9,152.3c-12.1,9.8-23.9,19.9-35.3,30.5
		c3.6,8.8,7.2,17.5,10.8,26.3c25.3-24.8,52.4-46.8,81.8-66.6C340,450.4,324.9,368.6,310.9,286.6z"/>
	<path class="st0" d="M757.6,368.4c-22.5-3.8-44.9-6.6-67.6-8.4c4,27.1,7.2,54.1,9.7,81.4c21.1,1.3,42,3.6,62.8,6.8
		C761.6,421.5,760,394.9,757.6,368.4z"/>
	<path class="st0" d="M525.2,278.4c-7.9,29.3-15.1,58.7-21.6,88.4c35.3-7,70.8-11.3,106.8-13.1c-7.4,30.5-14.4,61.1-21.1,91.8
		c23.1-2.8,46.2-4.5,69.4-5c8.6-28.7,17.3-57.2,26.3-85.7c32.7,2.5,64.8,7.1,96.9,13.7c9.9-22.7,19.8-45.4,29.9-68
		C717.9,275.6,621.8,268,525.2,278.4z M725.5,301.3c-4.1,12.4-8.3,24.7-12.4,37c-42.8-4.7-85.6-5.8-128.6-3.2
		c4.9-13.9,9.8-27.7,15-41.5C641.8,292.9,683.7,295.4,725.5,301.3z"/>
	<path class="st0" d="M713.8,251c4.2-3.4,6.3-5.1,10.6-8.4c-32.4-5-64.9-8.2-97.6-9.7c-3.9,4-5.7,6-9.5,10.1
		c-41.3-0.6-82.2,1.7-123.1,7.2c0.3,7.6,0.5,15.3,0.7,22.9c111-16.1,222.4-8,330.4,22.7c2.7-7.3,4-11.1,6.7-18.4
		C793.1,265.8,753.8,257,713.8,251z"/>
	<path class="st0" d="M603.7,359.1c-22.2,1.4-44.1,3.6-66,6.9c-15.1,32.4-28.3,65.5-39.9,99.3c19.9-5.8,39.8-10.8,60.1-14.8
		C571.7,419.3,586.9,388.8,603.7,359.1z"/>
	<path class="st0" d="M497.6,724.3l-60.4,41.1l0,0c-8.4-12.3-12.9-24.4-13.6-36.3c-0.7-11.9,2.1-28.2,8.4-48.8
		c3.1-10.3,4.6-18.5,4.2-24.4c-0.4-6-2.6-11.9-6.8-18c-4.3-6.3-9.4-10.6-15.1-12.8c-5.7-2.2-10.8-1.8-15.3,1.2
		c-6,4.1-8.9,8.9-8.8,14.5c0.1,5.7,3.2,12.9,9.4,21.7l-21.4,14.5c-10.2-14.4-14.8-28.2-13.8-41.3c0.9-13.2,7.3-23.7,19.1-31.7
		c11.1-7.5,22.8-9.7,35.1-6.6c12.4,3.1,22.8,10.8,31.2,23.2c6.5,9.6,10,19.1,10.4,28.7c0.4,9.6-2,22.9-7.2,39.9
		c-4.5,14.7-6.8,26.5-6.8,35.5l37.4-25.5c-0.3-0.7-0.6-1.2-0.9-1.9c-19.3-43.2-20.6-91.3-3.6-135.5c3.1-8,6.8-15.7,10.9-23.1
		c-37.9-13.7-81.6-9.7-117.4,14.6c-59.3,40.4-74.8,121.3-34.3,180.7c40.4,59.3,121.3,74.8,180.7,34.3c3.9-2.6,7.5-5.4,10.9-8.4
		C517.6,749.8,506.7,737.7,497.6,724.3z"/>
	<path class="st0" d="M643.4,636.4c-7.8-3-15-2.5-21.6,1.6c-6.5,4.1-11.8,11.1-15.7,21.4c-3.9,10.1-4.7,18.8-2.5,26.2
		c2.2,7.3,7.2,12.5,15.1,15.5c7.8,3,15,2.5,21.6-1.5c6.5-4,11.8-11.1,15.6-21.2c3.9-10.2,4.8-19,2.5-26.4
		C656.2,644.6,651.1,639.4,643.4,636.4z"/>
	<path class="st0" d="M675.4,552.9c-6.8-2.6-12.9-2.3-18.5,0.9c-5.6,3.1-10,8.8-13.1,17c-3.1,8.1-3.6,15.2-1.6,21.2
		c2,6,6.5,10.3,13.2,12.9s12.9,2.3,18.5-0.7c5.6-3.1,10-8.7,13.1-16.8c3.1-8.2,3.6-15.3,1.6-21.5
		C686.6,559.9,682.1,555.6,675.4,552.9z"/>
	<path class="st0" d="M703.8,470.6c-85.4-32.7-181.3,10-214,95.4c-16.4,42.8-13.9,88.1,3.4,126.8c3.9,8.7,8.5,17.1,13.9,25
		c18.4,27.3,45.1,49.5,78.2,62.2c85.4,32.7,181.3-10,214-95.4C831.9,599.2,789.2,503.3,703.8,470.6z M720.2,597.1
		c-5.7,14.8-15.2,24.8-28.6,30c-2.8,1.1-5.7,2-8.7,2.5c3.1,3.8,5.5,7.9,7.4,12.2c6.8,14.8,6.8,31.1,0.1,48.6
		c-7.6,19.7-19.1,33.5-34.5,41.4c-15.5,7.9-32.1,8.4-49.8,1.7s-29.8-18-36.4-33.5c-6.5-15.6-6.2-32.6,0.9-51.2
		c7.1-18.7,18.3-31.6,33.6-38.9c4.6-2.2,9.3-3.7,14.3-4.6c-1.9-2.5-3.5-5.2-4.9-8.1c-6.3-12.8-6.7-26.6-1-41.4
		c6.4-16.8,16.5-28.4,30.3-34.8c13.8-6.5,28.7-6.6,44.8-0.4c16.2,6.2,27.3,16.3,33.2,30.3C726.9,564.9,726.7,580.3,720.2,597.1z"/>
</g>
</svg>
