<?xml version="1.0" encoding="utf-8"?>
<!-- Generator: Adobe Illustrator 21.1.0, SVG Export Plug-In . SVG Version: 6.00 Build 0)  -->
<svg version="1.1" id="Layer_1" xmlns="http://www.w3.org/2000/svg" xmlns:xlink="http://www.w3.org/1999/xlink" x="0px" y="0px"
	 viewBox="0 0 157 156" style="enable-background:new 0 0 157 156;" xml:space="preserve">
<style type="text/css">
	.st0{fill:#5B4516;}
</style>
<g>
	<path class="st0" d="M73,110.1c-4.6,0-8.2,3.6-8.2,8s3.7,8,8.2,8c4.6,0,8.2-3.6,8.2-8S77.6,110.1,73,110.1z M71.5,111
		c1.1,0,2,0.8,2,2c0,1.1-1,2-2,2c-1.1,0-2-0.8-2-2C69.4,111.9,70.4,111,71.5,111z M71,125.6c-2,0-3.8-1.7-3.8-3.7s1.7-3.7,3.8-3.7
		c2.2,0,3.8,1.7,3.8,3.7S73.2,125.6,71,125.6z M81.1,117.3c0,1.6-1.3,2.9-2.9,2.9s-2.9-1.3-2.9-2.9s1.3-2.9,2.9-2.9
		C79.8,114.4,81.1,115.7,81.1,117.3z"/>
	<polygon id="XMLID_21_" class="st0" points="68,57.7 60.3,57.7 60.3,43.9 67.5,43.9 67.5,40.3 60.3,40.3 60.3,34.6 54.7,34.6 
		54.7,60.9 66.4,60.9 	"/>
	<path id="XMLID_20_" class="st0" d="M80.7,69.6c-2,3.8-5.6,6.7-10.6,8.9l-0.4,3.2c4.2-0.8,7.6-2.2,10-4.1l-2.3,22h5.8l3.2-30H80.7
		L80.7,69.6z"/>
	<polygon id="XMLID_19_" class="st0" points="100.1,39.9 100.1,36.6 87.5,36.6 87.5,34.8 81.1,34.8 81.1,36.6 68.5,36.6 68.5,39.9 	
		"/>
	<path class="st0" d="M35.1,69.7H21.9l-3.1,29.9h5.8l1.2-10.8H33c7.4,0.2,11.3-3,11.9-9.6C45.4,72.8,42.2,69.7,35.1,69.7z
		 M38.8,79.2c-0.2,4.1-2.5,6-6.7,5.9h-6.2L27,73.4h6.4C37.5,73.2,39.4,75.2,38.8,79.2z"/>
	<polygon id="XMLID_16_" class="st0" points="44.5,61.1 50.1,61.1 50.1,34.6 44.5,34.6 44.5,40.3 37,40.3 37,43.9 44.5,43.9 
		44.5,53.4 37,54.5 37,58.3 44.5,57.2 	"/>
	<polygon id="XMLID_15_" class="st0" points="72.9,99.6 61.5,82.3 75.2,69.6 67.6,69.6 52,84.7 53.7,69.6 47.9,69.6 44.7,99.6 
		50.5,99.6 51.3,91.8 57.3,86.3 66,99.6 	"/>
	<path class="st0" d="M138.8,63c0-0.2,0-0.5,0-0.7s0-0.5-0.1-0.7c0-0.1,0-0.4-0.1-0.5c-0.1-0.4-0.1-0.7-0.2-1V60
		c-1.6-5.9-6.8-10.1-13.1-10.1c-7.6,0-13.6,6.1-13.6,13.6c0,7.6,6.1,13.6,13.6,13.6c6.8,0,12.5-5.2,13.5-11.8c0-0.1,0-0.1,0-0.2
		c0-0.2,0-0.5,0-0.7c0-0.2,0-0.5,0-0.6s0-0.1,0-0.2C138.8,63.2,138.8,63.1,138.8,63z M116,59.5c-1-1.6-0.5-3.6,1.1-4.6
		s3.6-0.6,4.6,1s0.5,3.6-1.1,4.6C119.1,61.4,117,61.1,116,59.5z M129,75.4c-2.9,1.8-6.7,1-8.5-1.8c-1.8-2.9-1-6.6,1.9-8.5
		c2.9-1.8,6.7-1,8.5,1.8C132.9,69.7,131.9,73.6,129,75.4z M134.2,61.7c-2.2,1.4-5.2,0.7-6.5-1.4c-1.4-2.2-0.7-5,1.4-6.5
		c2.2-1.4,5.2-0.7,6.5,1.4C137.1,57.3,136.3,60.2,134.2,61.7z"/>
	<path class="st0" d="M104.4,105.7c-0.2,0-0.5,0-0.7,0c0.8,0.5,1.4,1.2,1.8,2.2c0.6,1.9-0.5,4-2.5,4.6c-1.9,0.6-4.1-0.5-4.7-2.4
		s0.5-4,2.5-4.6c0.2-0.1,0.4-0.1,0.6-0.1c-2.6-0.6-5.2-1.8-7.3-3.5c-0.4,0.1-0.8,0.1-1.2,0.2c-5.5,1.7-8.8,7.6-7.1,13.1
		c1.7,5.5,7.6,8.6,13.2,6.8c5.5-1.7,8.8-7.6,7.1-13.1C105.7,107.8,105.1,106.7,104.4,105.7z M91.4,103.8c1.4-0.5,2.9,0.4,3.2,1.7
		c0.5,1.3-0.4,2.8-1.8,3.2c-1.4,0.5-2.9-0.4-3.2-1.7C89.3,105.6,90,104.2,91.4,103.8z M96.2,121.8c-2.6,0.8-5.3-0.6-6.1-3.2
		c-0.8-2.5,0.7-5.3,3.2-6c2.6-0.8,5.3,0.6,6.1,3.2C100.3,118.4,98.8,121.1,96.2,121.8z"/>
	<polygon id="XMLID_7_" class="st0" points="68.6,57.1 70.2,60.8 76.2,60.8 77.7,52.1 72,52.1 71.1,57.1 	"/>
	<polygon id="XMLID_6_" class="st0" points="78.3,57 79.5,60.9 87.5,60.9 87.5,51 91.7,51 93.5,47.8 75.2,47.8 75.2,44.7 93.6,44.7 
		93.6,51 99.7,51 99.7,41.6 69.1,41.6 69.1,51 69.1,51 81.1,51 81.1,57 	"/>
	<polygon id="XMLID_5_" class="st0" points="98.6,60.8 100.2,57.1 97.8,57.1 96.8,52.1 91.1,52.1 92.7,60.8 	"/>
</g>
<path class="st0" d="M122.5,76.4c-2.2-3.6-5.5-6.5-9.5-8c-2.2-0.8-4.6-1.3-7.1-1.3c-7.7,0-14.3,4.4-17.4,10.9
	c-1.2,2.5-1.9,5.4-1.9,8.4c0,1.3,0.1,2.5,0.4,3.7c0,0.2,0.1,0.5,0.1,0.7c0,0.1,0,0.2,0.1,0.2c1.1,4.3,3.6,8,7,10.7
	c2.2,1.7,4.6,2.9,7.3,3.5c0.8-0.1,1.6,0,2.3,0.4c0.2,0,0.5,0,0.7,0c0.5,0,1.1,0.1,1.6,0.1c10.7,0,19.3-8.6,19.3-19.3
	C125.3,82.8,124.3,79.3,122.5,76.4z M101.6,70.7c3.5,0,6.2,2.8,6.2,6.2c0,3.5-2.8,6.2-6.2,6.2c-3.5,0-6.2-2.8-6.2-6.2
	C95.4,73.6,98.1,70.7,101.6,70.7z M102.1,103.6c-3.5,0.1-6.6-1.9-6.7-1.9c-2-1.7-3.2-4.1-3.2-6.8c0-4.9,4-8.9,9-8.9c4.9,0,9,4,9,8.9
	C110,99.3,106.6,103,102.1,103.6z M117.8,91c-3.7,0-6.8-3-6.8-6.7s3-6.7,6.8-6.7c3.7,0,6.8,3,6.8,6.7C124.7,87.8,121.7,91,117.8,91z
	"/>
</svg>
