<?xml version="1.0" encoding="utf-8"?>
<!-- Generator: Adobe Illustrator 19.0.0, SVG Export Plug-In . SVG Version: 6.00 Build 0)  -->
<svg version="1.1" id="Layer_1" xmlns="http://www.w3.org/2000/svg" xmlns:xlink="http://www.w3.org/1999/xlink" x="0px" y="0px"
	 viewBox="0 0 157 156" style="enable-background:new 0 0 157 156;" xml:space="preserve">
<path id="XMLID_25_" style="fill:#5B4516;" d="M34.4,63.5c0,2.3-0.4,3.2-2.2,4.7c2.3,0,3.2,0.4,4.7,2.2c0-2.3,0.4-3.2,2.2-4.7
	C36.8,65.7,35.9,65.3,34.4,63.5z"/>
<path id="XMLID_24_" style="fill:#5B4516;" d="M49.7,53.2c0-2.7,0.5-3.7,2.5-5.4c-2.7,0-3.7-0.5-5.4-2.5c0,2.7-0.5,3.7-2.5,5.4
	C47,50.7,47.9,51.2,49.7,53.2z"/>
<path id="XMLID_23_" style="fill:#5B4516;" d="M69,39.6c0-3.1,0.6-4.2,2.9-6.2c-3.1,0-4.2-0.6-6.2-2.9c0,3.1-0.6,4.2-2.9,6.2
	C65.9,36.8,67,37.3,69,39.6z"/>
<path id="XMLID_22_" style="fill:#5B4516;" d="M93,38.2c0-3.4,0.6-4.7,3.2-6.9c-3.4,0-4.7-0.6-6.9-3.2c0,3.4-0.6,4.7-3.2,7
	C89.5,35.1,90.8,35.6,93,38.2z"/>
<path id="XMLID_21_" style="fill:#5B4516;" d="M114.4,45.5c0-4.2,0.8-5.7,3.9-8.5c-4.2-0.1-5.7-0.8-8.5-3.9
	c-0.1,4.2-0.8,5.7-3.9,8.5C110.2,41.6,111.7,42.4,114.4,45.5z"/>
<g>
	<path id="XMLID_20_" style="fill:#5B4516;" d="M99.3,108.8l0.1-3.2c0.3-0.9,2.9-4.4,2.6-5c-0.6,0.2-1.3,0.5-1.9,0.7
		c-0.7,0.4-1.3,1.9-1.5,2.7c-0.1,0-0.1,0.1-0.2,0.1c-0.4-0.6-0.8-1.3-1.1-1.9c-0.8,0.2-1.5,0.5-2.2,0.7c0,0.1-0.1,0.1-0.1,0.2
		c1.6,1.6,2.5,2.9,2.3,6.3L99.3,108.8z"/>
	<path id="XMLID_19_" style="fill:#5B4516;" d="M106.8,92.3c0.4-3.4,0.7-6.9,1-10.3c0.7-0.3,1.4-0.6,2.1-1c0.3-1,0.6-2.1,1-3.1
		l-0.3,0l-6.1,2.4c0.1-0.4,0.3-0.8,0.4-1.3c-1.7,0.7-3.5,1.3-5.2,1.9c-0.2,0.5-0.4,1-0.6,1.5c-2.1,0.8-4.3,1.7-6.4,2.5
		c-0.3,1-0.6,2.1-0.9,3.1c0.7-0.2,1.3-0.5,2-0.8L87.3,100c1.6-0.6,3.2-1.2,4.8-1.8c1.7-3.4,3.4-6.8,5.2-10.1c0.1,0,0.1-0.1,0.2-0.1
		c-1.1,3.2-2.1,6.4-3.1,9.6v0.1c1.7-0.7,3.5-1.4,5.2-2c1-3.2,2-6.4,3.1-9.7c-0.2,2.7-0.4,5.5-0.6,8.2
		C103.6,93.5,105.2,92.9,106.8,92.3z"/>
	<path id="XMLID_18_" style="fill:#5B4516;" d="M112,71h-0.3l-4.6,1.8l0,4.7c1.6-0.6,3.1-1.2,4.7-1.8C111.9,74.2,112,72.6,112,71z"
		/>
	<path style="fill:#5B4516;" d="M94.7,104.4c-0.2-0.4-0.2-0.5-0.6-0.7c-0.2,0-0.5-0.1-0.8-0.1c-1.5,0.5-3,0.9-4.6,1.4l-0.3,7.4
		c0.7-0.2,1.4-0.5,2.1-0.7l0.1-3c0.2,0,0.4-0.1,0.7-0.1c0.5,0.8,0.9,1.6,1.4,2.4c0.8-0.2,1.6-0.5,2.3-0.7c0.1-0.7-0.9-2.4-1.8-2.6
		C94,106.9,95.2,106,94.7,104.4z M90.9,107.2c0-0.5,0-1,0-1.4c0.4-0.1,0.8-0.3,1.2-0.4l0.4,0l0.2,0.7
		C92.3,106.8,91.7,107,90.9,107.2z"/>
	<path id="XMLID_15_" style="fill:#5B4516;" d="M88.2,110.8c-1.1,0.4-2.3,0.7-3.4,1.1l-0.1,0c0-1.9,1.7-2.2,3.2-2.3
		c0.1-0.5,0.1-1.1,0.2-1.6c-1.1,0.4-2.1,0.7-3.2,1.1l0-1.2c1.1-0.3,2.3-0.6,3.4-1c0-0.6,0-1.1,0-1.6c-1.8,0.6-3.6,1.2-5.5,1.8
		l-0.3,7.3c1.9-0.6,3.8-1.2,5.7-1.8C88.2,112,88.2,111.4,88.2,110.8z"/>
	<path id="XMLID_14_" style="fill:#5B4516;" d="M70.4,110.8l-0.1,1.9c0.7-0.2,1.4-0.5,2.1-0.7l-0.2,5.4l2.1-0.6l0.2-5.5
		c1.1-0.4,2.3-0.7,3.5-1.1l-0.2,5.4l1.9-0.6c2-1.5-1.9-5.2,2.6-6.2c0-0.6,0-1.2,0.1-1.8l-0.4,0C78.1,108.3,74.3,109.6,70.4,110.8z"
		/>
	<path style="fill:#5B4516;" d="M67.6,111.6c-2.2,1.1-4.9,2.2-4.2,6c0.2,0.8,0.3,1.5,0.9,1.8C68.7,121.8,73.7,111.6,67.6,111.6z
		 M65.9,117.7c-0.5-0.7-0.7-2.3-0.1-3.2c0.3-0.6,0.7-0.7,1.3-1l0.5,0c0.1,0,0.1,0.1,0.2,0.1C68.8,115.3,68,117.8,65.9,117.7z"/>
	<path id="XMLID_11_" style="fill:#5B4516;" d="M59.9,119.6c0.1-1.3,0.6-4.6,0-5.4l-1.9,0.6c0,0.1-0.1,0.1-0.1,0.2l-0.3,7
		c1.8-0.6,3.6-1.1,5.5-1.7c0-0.6,0-1.2,0.1-1.8c-1,0.3-2.1,0.6-3.1,1L59.9,119.6z"/>
	<path id="XMLID_10_" style="fill:#5B4516;" d="M92.8,83.3c1.6-0.6,3.1-1.2,4.7-1.8c1-1.8,2-3.5,3-5.3c0.1,0,0.1-0.1,0.2-0.1l0,4
		c1.6-0.6,3.2-1.2,4.8-1.8l0-4.7c-1.5,0.6-3,1.2-4.4,1.7c1.5-3,8.9-3.2,11.4-5.3c0.4-0.8,0.8-1.7,1.3-2.5c0.4-0.7,0.7-1.4,1.1-2.1
		c-1.7,0.7-3.4,1.4-5.1,2c-0.2,0.4-0.5,0.8-0.7,1.3c-3.4,1.3-6.8,2.6-10.2,4C96.8,76.2,94.8,79.7,92.8,83.3z"/>
	<path id="XMLID_9_" style="fill:#5B4516;" d="M120.2,68.6c0.7-3.2,3.3-5,5-7.2h-0.3c-2.4,1-4.9,1.9-7.3,2.9c-0.5,0.9-1,1.7-1.5,2.6
		c-1.5,2.5-2.2,5.2-2.8,8.8c-0.8,4.7,1.1,7.5-0.8,11.6c-1.4,2.9-3.6,5.3-5.1,8c-0.4,0.8-1.3,2.3-0.7,3.4c0.3,0.6,4.9,2.7,5.8,3
		c-2,5-7.5,7.4-11.8,10.1c-5.1,3.2-12.6,10.2-14.6,16.3l9.3-3.7c1.4-7.6,7.5-10.9,12.9-14.7c2.3-1.9,4.6-3.9,6.9-5.8
		c1.5-1.2,3.3-2.7,4.1-4.4c1.8-3.6-6.1-3.8-5.1-9.6c0.4-2.2,1.5-3.7,2.2-5.6c0.2-1,0.5-1.9,0.8-2.9c0.9-1.8,2.8-3,3.6-5
		C122,73.4,119.6,71.4,120.2,68.6z"/>
	<polygon id="XMLID_8_" style="fill:#5B4516;" points="66,90.9 44.4,98.2 42.2,103.1 63.8,95.7 	"/>
	<path id="XMLID_7_" style="fill:#5B4516;" d="M69.6,87.3L69.6,87.3l-1.1,0.4l-1.9,4.1l5.8-1.9c1.2-1.1,2.5-2.6,3.8-4.8l4.5-6.7
		l-5.8,2L72,84.6C70.7,86.7,69.9,87.2,69.6,87.3z"/>
	<path id="XMLID_6_" style="fill:#5B4516;" d="M92.2,78.7l1.1-4.6l-12.6,4.3l-2.2,4.7l8.3-2.9l-0.5,3.1c-0.1,0.5-0.1,0.9,0.1,1.2
		c0.1,0.2,0.3,0.4,0.8,0.4l4.9-1.6l2.1-4.6l-1.9,0.7l0,0c-0.1,0-0.1,0.1-0.2,0.1C92,79.4,92,79.2,92.2,78.7L92.2,78.7z"/>
	<path id="XMLID_5_" style="fill:#5B4516;" d="M81,95.9c-0.3,0.7-0.6,0.9-0.9,0.9l0,0l-7.8,2.7l-2.1,4.5l10.3-3.5
		c2.6-0.8,4.4-2.4,5.4-4.9l5-11l-24.6,8.2l-1.8,4l4.6-1.6l-3.8,5.9c-0.7,0.8-1.1,1.1-1.4,1.3l-2.4,0.8l-2.1,4.5l4.9-1.7
		c1.9-0.6,3.5-2,4.7-4l5.9-8.9l8.7-3L81,95.9L81,95.9z"/>
	<path style="fill:#5B4516;" d="M58.9,80.2c2.4-0.7,4.7-1.8,6.7-3.5l2,2.3l3.3-3.7l-1.9-2.2c2.3-2.9,3.9-6.4,4.8-10.3
		c1.1-4.4,0.9-7.6-0.6-9.7c-1.5-2-3.9-2.6-7.5-1.6c-3.5,0.9-6.6,3-9.4,6.2c-2.7,3.2-4.6,6.9-5.7,11.4c-1.1,4.4-0.9,7.6,0.6,9.7
		C52.9,80.6,55.4,81.1,58.9,80.2z M55.9,67.6c0.7-2.9,1.8-5.4,3.4-7.4c1.6-2,3.4-3.3,5.4-3.8c2-0.5,3.4-0.1,4.1,1.3
		c0.8,1.4,0.8,3.6,0.1,6.5c-0.5,2.2-1.3,4.2-2.4,5.9l-1.7-2l-3.4,3.8l1.8,2c-1,0.7-2,1.2-3.1,1.5c-2,0.5-3.4,0.1-4.1-1.3
		C55.2,72.6,55.2,70.5,55.9,67.6z"/>
	<path style="fill:#5B4516;" d="M84.9,73.2c2.4-0.7,4.7-1.8,6.7-3.5l2,2.3l3.3-3.7l-1.9-2.2c2.3-2.9,3.9-6.4,4.8-10.3
		c1.1-4.4,0.9-7.6-0.6-9.7c-1.5-2-3.9-2.6-7.5-1.6c-3.5,0.9-6.6,3-9.4,6.2s-4.6,6.9-5.7,11.4c-1.1,4.4-0.9,7.6,0.6,9.7
		C78.9,73.6,81.4,74.2,84.9,73.2z M81.9,60.6c0.7-2.9,1.9-5.4,3.4-7.4c1.6-2,3.4-3.3,5.4-3.8c2-0.5,3.4-0.1,4.1,1.3
		c0.8,1.4,0.8,3.6,0.1,6.5c-0.5,2.2-1.3,4.2-2.4,5.9l-1.7-2l-3.4,3.8l1.8,2.1c-1,0.7-2,1.2-3.1,1.5c-2,0.5-3.4,0.1-4.1-1.3
		C81.2,65.7,81.2,63.5,81.9,60.6z"/>
</g>
</svg>
