<?xml version="1.0" encoding="utf-8"?>
<!-- Generator: Adobe Illustrator 19.0.0, SVG Export Plug-In . SVG Version: 6.00 Build 0)  -->
<svg version="1.1" id="Layer_1" xmlns="http://www.w3.org/2000/svg" xmlns:xlink="http://www.w3.org/1999/xlink" x="0px" y="0px"
	 viewBox="0 0 157 156" style="enable-background:new 0 0 157 156;" xml:space="preserve">
<g>
	<polygon id="XMLID_21_" style="fill:#5B4516;" points="62.1,97.4 65.3,91.5 61.4,91.5 58.2,97.4 	"/>
	<polygon id="XMLID_20_" style="fill:#5B4516;" points="27.1,87.9 30.2,86.7 27.9,101.7 33.8,101.7 35.8,80.2 27.1,84 	"/>
	<polygon id="XMLID_19_" style="fill:#5B4516;" points="58.6,85.1 57.8,80.4 54.3,80.4 55.1,85.1 	"/>
	<path id="XMLID_18_" style="fill:#5B4516;" d="M57,97l1.6-11.1h-5.5l-0.8,2.8h2c0,0-1.3,8.3-1.2,10.3c0.1,2,2.4,2.8,2.4,2.8h16.5
		l0.4-2.8H57.8C56.7,98.7,57,97,57,97z"/>
	<polygon id="XMLID_17_" style="fill:#5B4516;" points="39.6,87.9 42.8,86.7 40.4,101.7 46.3,101.7 49.1,80 39.6,84 	"/>
	<path id="XMLID_16_" style="fill:#5B4516;" d="M87.4,86.8l0.4-3.5h12.6l0.4-6.1H82.2l-1.7,15.3c0,0,12.8-0.2,13,5.7
		c0,5.7-14.7,4.8-14.7,4.8s-0.2,0.7-0.4,5.2c11.3,1.2,22.1-2.3,22.1-10.9C100.3,88.6,87.4,86.8,87.4,86.8z"/>
	<path id="XMLID_15_" style="fill:#5B4516;" d="M69.6,80.4h-3.5L65.7,82v0h-1.6l0.4-1.6h-3.1L59,86.7h3.5l0.8-2.4h2l-0.4,3.6h-5.5
		L59,90.3h7.8c0,0-0.9,4.4-0.8,5.5c0.1,1.1,1.6,1.6,1.6,1.6h5.1l0.4-2.8H70c-0.6,0-0.4-1.2-0.4-1.2l0.4-3.2h3.5l0.4-2.4h-5.5
		l0.4-3.6h5.5l0.4-2.4h-5.5L69.6,80.4z"/>
</g>
<g>
	<path id="XMLID_14_" style="fill:#5B4516;" d="M59.5,68.7c-1.9-2.2-3.5-8.3-3.3-12.4C57.7,44.5,64.4,41,66,37
		c1.6-4-0.6-7.2-3.3-8.2c-2.7-1.1-10.2-0.9-13.1,14C46.7,61.1,59.5,68.7,59.5,68.7z"/>
	<path id="XMLID_13_" style="fill:#5B4516;" d="M45.2,52.2c-1.2-5.7-4.1-6.6-5.9-6.7c-2.1-0.2-7.9,2.7-2.9,11.4
		c8.9,14.7,23.5,13.4,23.5,13.4C49.9,67.4,46.3,57.9,45.2,52.2z"/>
	<path id="XMLID_12_" style="fill:#5B4516;" d="M50.1,71.6c-5.1-1-8-2.8-9.5-4.2c-2.8-2.5-5.2-1.5-5.8,0.4c-1.3,4.5,5.8,5.7,8.4,6.2
		c9,1.5,13.9-1.2,15.5-2.1C58.7,72,53.5,72.2,50.1,71.6z"/>
	<path id="XMLID_11_" style="fill:#5B4516;" d="M98.4,43.3c3.8,0.8,9.8,0,9.8-6.6c-0.7-9.2-15.5-7.4-15.5-7.4
		c-22.1,1.5-31.1,23.5-31.1,23.5s2.4-2.3,6.5-4.9C80.5,39.6,94.6,42.5,98.4,43.3z"/>
	<path id="XMLID_10_" style="fill:#5B4516;" d="M124.3,68.5C122.4,64,113.6,48,92.6,47.1c-14.4-0.3-25.3,8.5-27.7,13.7
		c-3,6.6,2.1,12.5,6,13.8c4.9,1.6,8.9-2.7,8.9-2.7c6.5-6.4,10.1-7.2,16.9-7.2c24.1,2.9,16.5,27.3,16,29.1
		c-7.3,16.3-19.5,19.3-29,18.8c-3.8-0.2-7.1-1.1-9.4-1.9c0-0.1,0.3,2.5,0.3,2.3c2.4,1.4,5.5,2.9,8,3.6c7.1,2,16.1,1.8,25.7-2.7
		C125.2,104.6,131.1,84.3,124.3,68.5z"/>
</g>
<path id="XMLID_9_" style="fill:#5B4516;" d="M74.5,113.8c0-0.1,0-0.2,0-0.3C74.5,113.6,74.5,113.7,74.5,113.8L74.5,113.8z"/>
<path id="XMLID_8_" style="fill:#5B4516;" d="M74.2,110.4L74.2,110.4C74.2,110.5,74.2,110.5,74.2,110.4
	C74.2,110.5,74.2,110.4,74.2,110.4z"/>
<path id="XMLID_7_" style="fill:#5B4516;" d="M74.2,110.5C74.2,110.5,74.2,110.5,74.2,110.5l0.3,3.3c0-0.1,0-0.1,0-0.2
	C74.5,112.7,74.2,110.7,74.2,110.5z"/>
<path id="XMLID_6_" style="fill:#5B4516;" d="M88,113.1"/>
<path style="fill:#5B4516;" d="M78.9,115.3c-1.2-4.5-5.2-7.8-10-7.8H44.1c-5.7,0-10.4,4.6-10.4,10.4s4.6,10.4,10.4,10.4h24.7
	c5.5,0,10-4.3,10.3-9.7L78.9,115.3z M56.1,125.1h-3v-2l-0.6,2h-12v-13.7h3v11.7h3.2v-12.7h3.2v12.7h3.2v-11.7h3V125.1z M59.9,125H57
	l-0.5-1.4h0.9l0.5-3.7h2.7L59.9,125z M71.9,125H69l-0.7-5.1H71l0.5,3.7h0.9L71.9,125z M72.5,113.6H61.5l-1.7,3.4h3.2v-2.3H66v2.3
	h5.9v1.9H66v6.4h-3.4l-0.7-1.6h1.2v-4.7H57v-2.3l1.5-2.9h-2v-1.9h2.9l0.7-1.4h3.1l-0.7,1.4h10C72.5,111.7,72.5,113.6,72.5,113.6z"/>
</svg>
