<?xml version="1.0" encoding="utf-8"?>
<!-- Generator: Adobe Illustrator 21.1.0, SVG Export Plug-In . SVG Version: 6.00 Build 0)  -->
<svg version="1.1" id="Layer_1" xmlns="http://www.w3.org/2000/svg" xmlns:xlink="http://www.w3.org/1999/xlink" x="0px" y="0px"
	 viewBox="0 0 157 156" style="enable-background:new 0 0 157 156;" xml:space="preserve">
<style type="text/css">
	.st0{fill:#5B4516;}
</style>
<g>
	<path class="st0" d="M126.4,92l-0.2-41c0.5-8.3-2.9-10.9-2.9-10.9l-34-19.9c-10.1-3.5-15.6,0-15.6,0l-37.4,17
		c-6.1,3-6.1,11.3-6.1,11.3l1.3,53.9c0,6,6.7,8.9,6.7,8.9L71,123.8c0.2-4.3,2.4-8.3,5.8-10.7L75.5,68L41.9,47.6l34.6,17.6l40.7-19.9
		L78,67.9L76.9,113c2.4-1.8,5.4-2.9,8.6-2.9h0.2c6.8-7,13.2-13.2,16.4-19c2-7.2-3.8-10.7-8-9.8v-3l6.8-11.9
		c-5.2,1.9-14.9,6.5-15.5,5.8c-0.1-4.1,1.2-7.1,4.7-8.3l21.8-8.9l-11.9,21.1c4.4-1.4,8.4-2,10.7,0.8c2.6,4,2.2,8.6-0.4,13.7
		c-2,4-10.1,12.6-23.6,19.6h27.6c0.7,0,1.3,0.1,1.9,0.1l1.7-0.7C127.8,105.6,126.4,92,126.4,92z M67.7,110.5
		c-3.8,0.8-8.5-12.6-5.8-16.3C67.8,92.6,71,108,67.7,110.5z M63,67.7c0.6,2.4-0.1,4.7-1,6.5c2.6,1,4.6,2,5.9,3.2
		c0.5,1.3-0.7,5.5-1.1,8.3c-0.4,1.6,2.6,1.3,4.8,3c0.8,0.7,0.8,2.3,0.2,4.9c-4.3-0.2-10.4-4.9-12.6-3.8c-0.4,5.2-3,13-5.8,15.8
		c-1.2-3.1,0.4-12.4,1.6-17.5c-0.5-1.2-2.6-1.1-3.8-1.7c-0.5-1.9-1.1-5.6,0.1-6.2s4.7,2.3,5.3,1.8c0.8,0.4,0.8-5.8,0.2-5.8
		c-2.3-0.7-4.4-2-3.8-5.3c1.2-0.8,3.6,2,4.6,1.4c0.5-0.8,1.1-4.1,0.2-4.6c-0.8-0.2-3-1-2.9-2.2C56,64.8,61,65.5,63,67.7z M43,71.9
		l2.3,1c2.6-8.2,5.5-13.4,8.6-13.7c-1.4,4.9-3.7,10.8-3.7,15.5c4.2,1.6,6.1,3,4.9,4.3c-0.6,1.3-4.3-1.4-5.4-0.7
		c-1.6,4.4,1,15-0.4,14.8c-2.6,0-4.8,0-6.1-2c-1.2-2.4,0.1-9.2,1.4-13.4c-0.2-1-2.5-1.3-3.4-1.3c-0.4,1.1-0.1,2.6-1.2,3.2
		c-0.7,0-1-2.6-1.6-3.8c-3.5-2.3-1.9-5.6,0.8-5.2C39,66.4,39,60.1,39.6,60C44.4,60.1,46.2,63.6,43,71.9z M73.6,37.2l-2.8,4.1
		c-5.4-0.7-8.2,2.6-2.9,4.2l-2,3C51.5,47,58.1,35.8,73.6,37.2z M78.4,31.9h8.8l-2,2h-5.3L69.7,48.5H67L78.4,31.9z M80.5,34.6h8.8
		l-2,2H82L72,51h-2.8L80.5,34.6z M83.7,48.4l-3.6,5.3h-8.9l11.5-16.4h8.6C105.3,40.3,100.1,50.2,83.7,48.4z"/>
	<path id="XMLID_13_" class="st0" d="M63,84.8c1.1-0.5,1-3.7,1-5.4c-1.4-1.7-2.2-1.3-2.5-0.8c-0.6,2-1,4.3-0.7,5
		C61.1,84.5,61.9,84.8,63,84.8z"/>
	<path id="XMLID_12_" class="st0" d="M88.8,41.2l-2.8,4C91.6,46,95.3,41.4,88.8,41.2z"/>
</g>
<g>
	<path class="st0" d="M111,132.5h4.8c0.2,0,0.4-0.1,0.4-0.5v-2.9H111V132.5z M113.9,129.6c0.2,0,0.5,0,0.6,0.1
		c0.1,0.1,0.2,0.2,0.4,0.5l0.7,1.8h-2.2c-0.2,0-0.5,0-0.6-0.1c-0.1-0.1-0.2-0.2-0.4-0.5l-0.7-1.8H113.9z"/>
	<path class="st0" d="M111,126.7h5.2v-3H111V126.7z M113.9,124.1c0.2,0,0.5,0,0.6,0.1c0.1,0.1,0.2,0.2,0.4,0.5l0.7,1.7h-2.2
		c-0.2,0-0.5,0-0.6-0.1c-0.1-0.1-0.2-0.2-0.4-0.5l-0.7-1.7H113.9z"/>
	<path class="st0" d="M114.3,113.2h-4.1H88.8c-7.1,0-12.7,5.6-12.7,12.7v0.1c0,7,5.8,12.6,12.7,12.6h25.4c7.1,0,12.7-5.6,12.7-12.7
		C127,118.8,121.2,113.2,114.3,113.2z M108,117.6c0.1-0.4,0.2-0.5,0.4-0.6c0.1-0.1,0.4-0.1,0.7-0.1h2.4l-0.4,1.1h8.9v2.5h-9.6l0,0
		c-0.1,0.4-0.2,0.5-0.4,0.6c-0.1,0.1-0.4,0.1-0.7,0.1h-2.6L108,117.6z M104.4,117c0.5,0,0.7,0.1,1,0.2s0.4,0.5,0.5,0.8l0.8,2.6h-2.5
		c-0.4,0-0.7-0.1-0.8-0.2c-0.2-0.1-0.4-0.5-0.5-0.8l-0.7-2.6H104.4L104.4,117z M100.3,134.9H82.2v-3h6v-9v-6h3.7v4.4v1h8.3v1.4
		c0,0.6-0.1,1-0.4,1.2c-0.2,0.2-0.7,0.4-1.2,0.4h-6.6v6.6h8.5L100.3,134.9L100.3,134.9z M105.4,133.4c-0.1,0.5-0.2,0.8-0.5,1.1
		c-0.2,0.2-0.6,0.4-1,0.4h-2l1.4-6.1c0.1-0.5,0.2-0.8,0.5-1.1c0.2-0.2,0.6-0.2,1.1-0.2h1.9L105.4,133.4z M104.4,126
		c-0.4,0-0.7-0.1-0.8-0.2c-0.2-0.1-0.4-0.5-0.5-0.8l-0.8-3h2.5c0.6,0,1,0.4,1.2,1.1l0.8,3L104.4,126L104.4,126z M120.3,129.2h-1.1
		v3.4c0,0.8-0.2,1.4-0.6,1.8c-0.4,0.4-1.1,0.5-2,0.5H108v-5.6h-1v-2.5h1v-5.4h3v1c0.1-0.4,0.4-0.6,0.5-0.7c0.2-0.1,0.5-0.2,0.8-0.2
		h6.8v5.4h1.1V129.2z"/>
</g>
</svg>
