<?xml version="1.0" encoding="utf-8"?>
<!-- Generator: Adobe Illustrator 19.0.0, SVG Export Plug-In . SVG Version: 6.00 Build 0)  -->
<svg version="1.1" id="Layer_1" xmlns="http://www.w3.org/2000/svg" xmlns:xlink="http://www.w3.org/1999/xlink" x="0px" y="0px"
	 viewBox="0 0 157 156" style="enable-background:new 0 0 157 156;" xml:space="preserve">
<g>
	<polygon id="XMLID_23_" style="fill:#5B4516;" points="62.1,98.5 65.3,92.5 61.4,92.5 58.2,98.5 	"/>
	<polygon id="XMLID_22_" style="fill:#5B4516;" points="27.1,89 30.2,87.8 27.9,102.8 33.8,102.8 35.8,81.3 27.1,85 	"/>
	<polygon id="XMLID_21_" style="fill:#5B4516;" points="58.6,86.2 57.8,81.5 54.3,81.5 55.1,86.2 	"/>
	<path id="XMLID_20_" style="fill:#5B4516;" d="M57,98.1L58.6,87h-5.5l-0.8,2.8h2c0,0-1.3,8.3-1.2,10.3c0.1,2,2.4,2.8,2.4,2.8h16.5
		l0.4-2.8H57.8C56.7,99.8,57,98.1,57,98.1z"/>
	<polygon id="XMLID_19_" style="fill:#5B4516;" points="39.6,89 42.8,87.8 40.4,102.8 46.3,102.8 49.1,81.1 39.6,85 	"/>
	<path id="XMLID_18_" style="fill:#5B4516;" d="M87.4,87.9l0.4-3.5h12.6l0.4-6.1H82.2l-1.7,15.3c0,0,12.8-0.2,13,5.7
		c0,5.7-14.7,4.8-14.7,4.8s-0.2,0.7-0.4,5.2c11.3,1.2,22.1-2.3,22.1-10.9C100.3,89.7,87.4,87.9,87.4,87.9z"/>
	<path id="XMLID_17_" style="fill:#5B4516;" d="M69.6,81.5h-3.5L65.7,83v0h-1.6l0.4-1.6h-3.1L59,87.8h3.5l0.8-2.4h2L64.9,89h-5.5
		L59,91.3h7.8c0,0-0.9,4.4-0.8,5.5c0.1,1.1,1.6,1.6,1.6,1.6h5.1l0.4-2.8H70c-0.6,0-0.4-1.2-0.4-1.2l0.4-3.2h3.5l0.4-2.4h-5.5
		l0.4-3.6h5.5l0.4-2.4h-5.5L69.6,81.5z"/>
</g>
<g>
	<path id="XMLID_16_" style="fill:#5B4516;" d="M59.5,69.7c-1.9-2.2-3.5-8.3-3.3-12.4C57.7,45.6,64.4,42.1,66,38
		c1.6-4-0.6-7.2-3.3-8.2c-2.7-1.1-10.2-0.9-13.1,14C46.7,62.1,59.5,69.7,59.5,69.7z"/>
	<path id="XMLID_15_" style="fill:#5B4516;" d="M45.2,53.3c-1.2-5.7-4.1-6.6-5.9-6.7c-2.1-0.2-7.9,2.7-2.9,11.4
		c8.9,14.7,23.5,13.4,23.5,13.4C49.9,68.5,46.3,59,45.2,53.3z"/>
	<path id="XMLID_14_" style="fill:#5B4516;" d="M50.1,72.6c-5.1-1-8-2.8-9.5-4.2c-2.8-2.5-5.2-1.5-5.8,0.4c-1.3,4.5,5.8,5.7,8.4,6.2
		c9,1.5,13.9-1.2,15.5-2.1C58.7,73,53.5,73.3,50.1,72.6z"/>
	<path id="XMLID_13_" style="fill:#5B4516;" d="M98.4,44.4c3.8,0.8,9.8,0,9.8-6.6c-0.7-9.2-15.5-7.4-15.5-7.4
		c-22.1,1.5-31.1,23.5-31.1,23.5s2.4-2.3,6.5-4.9C80.5,40.7,94.6,43.6,98.4,44.4z"/>
	<path id="XMLID_12_" style="fill:#5B4516;" d="M124.3,69.5c-1.9-4.4-10.8-20.4-31.7-21.3c-14.4-0.3-25.3,8.5-27.7,13.7
		c-3,6.6,2.1,12.5,6,13.8c4.9,1.6,8.9-2.7,8.9-2.7c6.5-6.4,10.1-7.2,16.9-7.2c24.1,2.9,16.5,27.3,16,29.1
		c-7.3,16.3-19.5,19.3-29,18.8c-3.8-0.2-7.1-1.1-9.4-1.9c0-0.1,0.3,2.5,0.3,2.3c2.4,1.4,5.5,2.9,8,3.6c7.1,2,16.1,1.8,25.7-2.7
		C125.2,105.7,131.1,85.4,124.3,69.5z"/>
</g>
<path id="XMLID_11_" style="fill:#5B4516;" d="M74.5,114.9c0-0.1,0-0.2,0-0.3C74.5,114.7,74.5,114.7,74.5,114.9L74.5,114.9z"/>
<path id="XMLID_10_" style="fill:#5B4516;" d="M74.2,111.5L74.2,111.5C74.2,111.5,74.2,111.5,74.2,111.5
	C74.2,111.5,74.2,111.5,74.2,111.5z"/>
<path id="XMLID_9_" style="fill:#5B4516;" d="M74.2,111.5C74.2,111.5,74.2,111.5,74.2,111.5l0.3,3.3c0-0.1,0-0.1,0-0.2
	C74.5,113.7,74.2,111.8,74.2,111.5z"/>
<path id="XMLID_8_" style="fill:#5B4516;" d="M88,114.2"/>
<g>
	<rect id="XMLID_7_" x="66.8" y="116.3" style="fill:#5B4516;" width="1.1" height="4.2"/>
	<path id="XMLID_6_" style="fill:#5B4516;" d="M59.1,120.1c0.9-0.2,1.1-1,1.1-2.4v-1.3h-1.1V120.1z"/>
	<path id="XMLID_5_" style="fill:#5B4516;" d="M64,122.5v-6.1h-1v1.4c0,3.2-1.2,4.5-3.9,4.7v1.4h8.8v-1.4H64z"/>
	<rect id="XMLID_4_" x="63" y="113.3" style="fill:#5B4516;" width="1" height="1.3"/>
	<path style="fill:#5B4516;" d="M77.8,115.9c-1.2-4.5-5.2-7.8-10-7.8H43c-5.7,0-10.4,4.6-10.4,10.4c0,5.7,4.6,10.4,10.4,10.4h24.7
		c5.5,0,10-4.3,10.3-9.7L77.8,115.9z M55.2,125.7h-3v-2l-0.6,1.9h-12v-13.4h3v11.5h3.2v-12.5h3.2v12.5h3.2v-11.5h3
		C55.2,112.3,55.2,125.7,55.2,125.7z M71.2,113.3h-4.4v1.3H71v11h-3.1v-1.7l-1.1,1.7H56v-11h4.2v-1.3h-4.3v-1.8h15.3V113.3z"/>
</g>
</svg>
