<?xml version="1.0" encoding="utf-8"?>
<!-- Generator: Adobe Illustrator 21.1.0, SVG Export Plug-In . SVG Version: 6.00 Build 0)  -->
<svg version="1.1" id="Layer_1" xmlns="http://www.w3.org/2000/svg" xmlns:xlink="http://www.w3.org/1999/xlink" x="0px" y="0px"
	 viewBox="0 0 157 156" style="enable-background:new 0 0 157 156;" xml:space="preserve">
<style type="text/css">
	.st0{fill:#5B4516;}
</style>
<g>
	<path id="XMLID_12_" class="st0" d="M116.6,94c-5.4,0-9.8,4.4-9.8,9.8c0,5.4,4.4,9.8,9.8,9.8c5.4,0,9.8-4.4,9.8-9.8
		C126.5,98.5,122,94,116.6,94z"/>
	<g>
		<polygon id="XMLID_11_" class="st0" points="60.4,117.9 61.5,93.1 53,118.7 		"/>
		<path class="st0" d="M131.2,51.2l-0.1-0.1c-1.1,0.6-2.4,1-3.7,1c-4.3,0-7.8-3.5-7.8-7.9c0-0.7,0.1-1.6,0.4-2.3l-0.1-0.1
			c-4.4-2.3-9.6-3.5-14.8-3.5c-13.5,0-25.1,8-30.3,19.6H26.7c-1.7,0-3.1,1.3-3.5,3l-4.7,25.4c-0.2,1.7,0.8,3,2.4,3h55.7
			c5.7,9.3,16,15.5,27.7,15.7c-1.1,0,0.5,0,0.5,0c0-0.4,0-0.7,0-1c0-3.2,1.3-6.1,3.3-8.3c-5.1,0.6-11.4-0.2-15.2-2.2
			c-2.3-1.2-4.1-2.8-5.4-4.8c-1.3-2-2.3-4.4-2.8-7.4l12.8-0.7c0.2,2.6,0.8,4.4,1.8,5.5c1,1.1,2.2,1.7,3.8,1.8
			c1.7,0.1,3.2-0.4,4.4-1.6c1.2-1.2,2-2.8,2.2-4.9c0.2-2.2-0.1-3.8-1.1-5c-1-1.2-2.4-1.9-4.2-2c-1-0.1-2.4,0.1-4.2,0.5l1.6-9.1
			c0.7,0.1,1.2,0.2,1.7,0.2c1.7,0.1,3.1-0.4,4.3-1.3c1.2-1,1.9-2.2,2-3.7c0.1-1.4-0.1-2.5-0.8-3.5c-0.7-0.8-1.8-1.4-3.2-1.6
			c-1.4-0.1-2.8,0.2-3.7,1.1c-1.1,0.8-1.8,2.4-2.4,4.7l-11.7-3.1c1.4-3.7,3.7-6.3,6.6-8.4c6.1-4.3,19.6-3.5,24.8,2.2
			c2.3,2.5,3.5,5.4,3.1,8.7c-0.2,2-1,3.7-2.2,5.3c-1.2,1.6-3,2.9-5.3,3.8c1.7,0.6,3,1.2,3.8,1.8c1.4,1.1,2.4,2.4,3.1,3.9
			c0.7,1.6,1,3.5,0.7,5.6c-0.2,2.6-1.2,5.1-2.9,7.5c-0.7,1.1-1.7,2-2.6,2.9c3.8,0.1,7.2,2,9.2,5l0.2-0.2
			c7.2-6.1,11.7-15.2,11.7-25.4C138.2,63.9,135.5,56.9,131.2,51.2z M29.7,83.9c-0.4,1.7-1.1,2.4-3,2.4h-3.1l0.2-1.7
			c2,0,1.9-0.6,2.2-1.9c0.1-0.7,0.7-3.8,0.7-3.8l-1.9,0.2l0.2-1.7l1.9-0.2l1.4-8.1h-1.9l0.2-1.7h1.8l1.2-6.8h3.9l-1.2,6.8h1.8
			L34,69.1h-1.8l-1.3,7.3l1.6-0.2l-0.2,1.8l-1.6,0.2C30.6,78.1,29.8,82.9,29.7,83.9z M34.6,86.3l0.8-4.9h-3.3l0.2-1.7h3.3l1-5.4
			h-2.9l0.2-1.7h2.9l1.1-6h-3.1l0.2-1.7h3.3l0.7-4.3h4.2l-4.5,25.6H34.6L34.6,86.3z M49.4,74.3h-2.9l-1,5.5h3.3l-0.2,1.7h-3.3
			l-0.8,4.8h-4.2l4.4-25.5h4.2l-0.7,4.3h3.1l-0.2,1.7H48l-1.1,6h2.9L49.4,74.3z M55.2,86.3h-4.7c2-2.2,4.2-4.2,5.5-6h-2.6l-0.8-4.1
			h3.8l0.6,2.4h0.2c0,0,2.5-4.3,3.8-6.8c1.2-2.3,1-2.8,1-2.6h-2.9l-2.8,5.4h-4.2c0,0,2.5-5,4.1-8.4c0.7-1.7,1.1-3.2,1.1-3.2H54
			l0.2-1.7h13.3L67.2,63h-5.7c0,0-1,3.1-1.6,4.7c1.7,0,3.2,0,4.7,0c1.6,0,1.9,0.8,1.4,2.3C61.5,81.3,55.2,86.3,55.2,86.3z
			 M68.3,63.2h3.9L68.8,83h-4.1L68.3,63.2z M74.9,83.3c-0.4,2.3-1.1,3-3.3,3c-1.6,0-4.7,0-4.7,0l0.2-1.7c0,0,1.1,0,1.6,0
			c1.8,0,1.8-0.1,2.3-2.4c2.4-13.5,3.7-21.4,3.7-21.4h4.2C78.9,60.8,77.4,68.8,74.9,83.3z"/>
		<polygon id="XMLID_3_" class="st0" points="74.8,110.1 77.7,105.5 69.2,97.2 		"/>
		<polygon id="XMLID_2_" class="st0" points="38.3,105.9 51.5,95.8 32.9,101.2 		"/>
	</g>
	<path id="XMLID_1_" class="st0" d="M127.4,50c3.2,0,5.9-2.6,5.9-5.9s-2.6-5.9-5.9-5.9c-3.2,0-5.9,2.6-5.9,5.9S124.2,50,127.4,50z"
		/>
</g>
</svg>
