<?xml version="1.0" encoding="utf-8"?>
<!-- Generator: Adobe Illustrator 21.1.0, SVG Export Plug-In . SVG Version: 6.00 Build 0)  -->
<svg version="1.1" id="Layer_1" xmlns="http://www.w3.org/2000/svg" xmlns:xlink="http://www.w3.org/1999/xlink" x="0px" y="0px"
	 viewBox="0 0 157 156" style="enable-background:new 0 0 157 156;" xml:space="preserve">
<style type="text/css">
	.st0{fill:#5B4516;}
</style>
<g>
	<path id="XMLID_46_" class="st0" d="M78.1,110.4l0.9-3c0.6-0.8,4-3.5,3.8-4.2c-0.6,0.1-1.4,0.1-2,0.3c-0.8,0.1-1.8,1.5-2.1,2.3
		c-0.1,0-0.1,0-0.3,0c-0.3-0.8-0.4-1.4-0.6-2.1c-0.8,0-1.5,0.1-2.4,0.1l-0.1,0.1c1.1,1.9,1.8,3.5,0.6,6.7L78.1,110.4z"/>
	<path id="XMLID_45_" class="st0" d="M111.1,73.6l-0.4-0.1L105,74l-1.6,5.2c1.9-0.1,3.9-0.3,5.8-0.5C109.8,77,110.4,75.4,111.1,73.6
		z"/>
	<path id="XMLID_44_" class="st0" d="M98,95.4c1.5-3.7,3-7.3,4.6-11c0.9-0.1,1.8-0.3,2.7-0.4c0.8-1,1.4-2,2.1-3l-0.4-0.1
		c-2.5,0.3-5.1,0.4-7.5,0.6c0.3-0.4,0.5-0.9,0.9-1.3c-2.1,0.1-4.3,0.3-6.4,0.4c-0.4,0.5-0.8,1-1.1,1.5c-2.7,0.3-5.3,0.4-8,0.6l-2,3
		c0.9,0,1.6-0.1,2.5-0.1c-3.8,3.9-7.6,7.7-11.3,11.6c2-0.1,3.9-0.3,5.9-0.4c3-3.2,6.1-6.3,9.1-9.4c0.1,0,0.1,0,0.3,0
		c-2.3,3.2-4.4,6.3-6.7,9.6v0.1c2.1-0.1,4.3-0.4,6.4-0.5c2.1-3.2,4.4-6.4,6.6-9.6c-1.1,2.9-2.3,5.9-3.4,8.9
		C94.1,95.6,96.1,95.5,98,95.4z"/>
	<path id="XMLID_43_" class="st0" d="M66.7,109.5c-1.3,0-2.4,0.1-3.7,0.1h-0.1c0.5-1.9,2.3-1.6,3.7-1.4c0.3-0.5,0.4-1,0.6-1.5
		c-1.1,0.1-2.3,0.1-3.4,0.3l0.4-1.1l3.7-0.1c0.1-0.5,0.3-1.1,0.4-1.6c-1.9,0.1-3.9,0.3-5.8,0.4l-2.1,7c2-0.1,4-0.1,6.1-0.3
		L66.7,109.5z"/>
	<path class="st0" d="M66.8,82.2L66.8,82.2c-0.5-0.1-1.1-0.1-1.8,0c1.8-2.3,3.5-4.6,5.2-6.8c0.4-0.4,1.4-0.4,2-0.4
		c0.5-0.6,0.9-1.3,1.4-1.9l-0.3-0.3l-11,0.9L46.8,94.6c3.8-0.3,7.6-0.5,11.4-0.8C61,89.9,63.9,86,66.8,82.2z M62.5,79.4
		c0.5-0.4,1.3-0.3,1.9-0.4c0,0.5-1,1.6-1.4,2.1c-0.5,0.4-1.3,0.3-1.9,0.4H61C61.5,80.8,62,80.2,62.5,79.4z M55.9,88.4L55.9,88.4
		c0.5-0.8,1-1.6,1.6-2.4c0.5,0,1-0.1,1.5-0.1l0.3,0.1c-0.5,0.8-1,1.4-1.5,2C57.4,88.4,56.6,88.4,55.9,88.4z"/>
	<path id="XMLID_39_" class="st0" d="M66.9,87.3c3.3,1.9,8.3-4.2,4.6-5.3C69.7,82.3,64.8,84.5,66.9,87.3z"/>
	<path id="XMLID_38_" class="st0" d="M53.9,80.6c3.4,0.1,5.4-2.7,7-5.6c-0.9,0-1.9,0.1-2.8,0.1c1-1.5,2-3,3.2-4.6l-5.8,0.5
		c-1.1,1.5-2.3,3-3.4,4.6c-3,0.3-6.1,0.4-9.1,0.6c-1.3,1.8-2.7,3.5-3.9,5.3v0.1c3-0.3,6.1-0.4,9-0.6c-0.4,0.5-0.8,1-1.1,1.6
		c-0.4,1.4,0,2.3-1.3,3.7c-0.9,1-2.4,1.5-3.3,2.4l-1.6,2.1c-0.9,0.6-3.3,0.5-4.4,0.5c-1.3,1.8-2.7,3.4-3.9,5.2
		c2.1,0.3,7.5-0.1,9.4-0.8C44.5,94.6,51.2,84.1,53.9,80.6z"/>
	<path class="st0" d="M46.3,105c-2.4,0.5-5.4,0.9-5.7,4.8c0,0.9-0.1,1.5,0.5,2C44.8,115.2,52.3,106.5,46.3,105z M43.8,107.4
		c0.5-0.5,0.9-0.5,1.5-0.8l0.5,0.1l0.1,0.1c0.5,1.9-0.9,4.2-2.9,3.5C42.9,109.6,43,108.1,43.8,107.4z"/>
	<path id="XMLID_35_" class="st0" d="M38.1,105.5c-0.6,0-1.4,0-2,0.1l-0.1,0.1l-2,6.8c1.9-0.1,3.8-0.1,5.8-0.3l0.5-1.6
		c-1.1,0-2.1,0.1-3.3,0.1h-0.1C37.2,109.6,38.6,106.5,38.1,105.5z"/>
	<path id="XMLID_34_" class="st0" d="M44.8,83.3c-0.4-0.4-0.6-0.6-1.4-0.9c-1.5,0.4-6.6,2.4-4.6,5.3C41.6,89.2,45.1,86.3,44.8,83.3z
		"/>
	<path class="st0" d="M74.8,104.8c-0.1-0.4-0.1-0.5-0.5-0.9l-0.8-0.4c-1.6,0-3.2,0.1-4.8,0.1l0,0l-2.1,7.1c0.8,0,1.5-0.1,2.3-0.1
		l0.9-2.9c0.3,0,0.5,0,0.6,0.1c0.3,0.9,0.5,1.8,0.8,2.7l2.4-0.1c0.3-0.6-0.3-2.5-1-3C73.4,107.1,74.6,106.6,74.8,104.8z M70.2,106.6
		c0.1-0.5,0.3-0.9,0.3-1.4c0.4,0,0.9,0,1.3-0.1l0.4,0.1c0,0.3,0,0.5,0,0.8C71.7,106.6,71.1,106.6,70.2,106.6z"/>
	<path class="st0" d="M38.7,82.6L38.7,82.6c-0.5-0.1-1,0-1.6,0H37l5.4-7.2c0.6,0,1.3,0,1.9,0l1.3-2c-3.8,0.3-7.6,0.5-11.4,0.9
		c-5.2,7-10.4,13.9-15.4,20.9c3.8-0.3,7.7-0.5,11.5-0.8C33,90.4,35.8,86.5,38.7,82.6z M34.7,79.7c0.5,0,1-0.1,1.5-0.1
		c0.1,0.5-1,1.6-1.4,2.4c-0.6,0-1.3,0.1-1.9,0.1C33.5,81.2,34.1,80.4,34.7,79.7z M27.9,88.8c0.5-0.8,1.1-1.6,1.6-2.4
		c0.5,0,1-0.1,1.5-0.1l0.3,0.1c-0.5,0.8-1.1,1.5-1.6,2.3C29.1,88.8,28.5,88.8,27.9,88.8z"/>
	<path id="XMLID_28_" class="st0" d="M119.4,68c-0.9,0.8-1.8,1.5-2.5,2.4c-2.5,2.3-4.2,5.1-6.1,8.7c-2.4,4.9-1.3,8.6-4.8,12.5
		c-2.5,2.8-5.7,4.6-8.3,7.1c-0.8,0.8-2.1,2.1-1.9,3.5c0.1,0.8,4.6,4.6,5.4,5.2c-3.8,4.8-10.7,5.7-16.4,7.2c-6.7,1.9-17.4,7-21.6,13
		l11.5-0.9c4.2-8,11.9-9.5,19.1-11.9c3.2-1.4,6.4-2.7,9.6-4c2-0.8,4.6-1.9,6.1-3.5c3.2-3.4-5.4-6.3-2.4-12.4
		c1.1-2.3,2.9-3.7,4.3-5.4c0.6-1,1.3-1.9,1.8-2.9c1.6-1.6,4-2.3,5.7-4.3c2.3-2.8,0.3-5.8,1.9-8.7c1.8-3.3,5.1-4.3,7.7-6.1l-0.1-0.3
		C125.5,67.5,122.4,67.8,119.4,68z"/>
	<path id="XMLID_27_" class="st0" d="M110,26.1c-3.4-1.4-7.1-2.4-10.9-2.9v-3.9h5.4v-4H87v4h2.7v3.4c-21.6,0.9-42.1,12.9-42.1,12.9
		h10.9c0,0,31-14.3,50.3-2.7c19.3,11.5,23.1,34,23.1,34l0,0h6.8C138.6,66.8,135,40,110,26.1z"/>
	<path id="XMLID_26_" class="st0" d="M108.8,115.7c0,0-21,16.3-39.5,16.3c-30.2,0-40.7-16.3-40.7-16.3h-9.5c0,0,5.2,25.8,50.3,25.8
		c24.4,0,47.8-22,48.9-25.8C118.3,116,108.8,115.7,108.8,115.7z"/>
	<polygon id="XMLID_25_" class="st0" points="77.4,66.8 84.3,66.8 95.1,32.8 88.3,32.8 	"/>
	<path id="XMLID_24_" class="st0" d="M57.3,111.4c2.3-1-0.5-5.6,4.2-5.3c0.1-0.5,0.4-1.1,0.5-1.6l-0.4-0.1l-12.3,0.8l-0.5,1.8
		l2.3-0.1l-1.5,5.2c0.8,0,1.5,0,2.3,0l1.6-5.3c1.3,0,2.4-0.1,3.7-0.1l-1.5,5.2C55.9,111.4,56.6,111.4,57.3,111.4z"/>
	<polygon id="XMLID_23_" class="st0" points="87,66.8 95.1,66.8 112.8,53.2 110,47.8 	"/>
	<path id="XMLID_22_" class="st0" d="M114.1,70.3c0.6-0.6,1.3-1.3,1.9-2c-2.1,0.1-4.2,0.4-6.3,0.5c-0.4,0.4-0.8,0.8-1.1,1.1
		c-4.2,0.3-8.3,0.6-12.6,0.9c-3.4,3.3-6.8,6.4-10.2,9.7c1.9-0.1,3.9-0.3,5.8-0.4c1.6-1.6,3.4-3.3,5.1-4.8c0.1,0,0.1,0,0.3,0
		l-1.4,4.4c2-0.1,3.9-0.3,5.9-0.4l1.5-5.2c-1.8,0.1-3.7,0.3-5.4,0.4c2.7-2.8,10.9-0.5,14.4-2C112.6,71.8,113.3,71.1,114.1,70.3z"/>
	<path id="XMLID_21_" class="st0" d="M66.8,81.2c3-0.1,5.9-0.4,9-0.5c-0.4,0.5-0.8,1-1.1,1.5c-0.3,1,0,2.3-0.9,3.3
		c-1,1.3-2.8,1.9-3.8,3c-0.5,0.8-1.1,1.4-1.6,2.1c-1.4,0.1-2.7,0.3-4,0.4c-1.5,0.5-3,3.9-4,5.2c3-0.3,6.1-0.5,9.1-0.8
		c2.8-1,10.6-11.9,12.6-15.2c1-0.1,2-0.1,3-0.3c1.4-1.8,2.8-3.7,4-5.4l-2.8,0.3h-0.1c1-1.5,2.1-2.9,3.2-4.4h-0.3l-5.8,0.4
		c-1,1.5-2.1,3-3.2,4.4c-3,0.3-6.2,0.5-9.2,0.6C69.3,77.7,68.1,79.4,66.8,81.2z"/>
</g>
<g>
	<path class="st0" d="M26.5,56.9l0.3-1.4h-4.3l0.4-2.1h2l-0.4-2.1h-1.1l0.4-2.1h3.8l0.3-1.3h4.6L32,49.1h3.8l-0.4,2.1h-1.1l-1.1,2.1
		h2l-0.4,2.1h-4.3l-0.3,1.4h4.3l-0.4,2.1h-4.3l-1.4,7.7h-3.7L24.4,65l-0.4,1.8h-2.8l-0.5-1.6h0.6l1.3-5.3h3l-1.3,5.1h0.6l1-5.8h-4.3
		l0.4-2.1C22.3,56.9,26.5,56.9,26.5,56.9z M28.4,53.4h1.3l1.1-2.1H28L28.4,53.4z M29.4,66.8l0.8-7h3l-0.5,5.3h0.6l-1,1.6H29.4z
		 M38.7,66.8l1.9-11.1h-1.3l-1.9,11.1H33l0.5-2.8h0.6L37,48.1h10l-1.1,2.1h-5.4l-0.5,3h6.1l-0.4,2.4h-1l-1.9,11.1L38.7,66.8
		L38.7,66.8z"/>
	<path class="st0" d="M49.4,58.3l-0.1,0.9h0.9l-0.3,1.5H49l-0.3,1.8h1L49.5,64h-5.1l0.3-1.5h1.1l0.3-1.8h-1.1l0.3-1.5h1.1l0.1-0.9
		C46.6,58.3,49.4,58.3,49.4,58.3z M52.8,66.7h-7.8l-0.1-1.9h4.6l1.3-7h-4.9l1-5.7h5.1l-1,2H50l-0.3,1.5h5.1L52.8,66.7z M51.4,54.1
		l0.8-4h-5.1l0.4-2.1h8.7L55,54.1H51.4L51.4,54.1z M70.1,49.7H56.3l0.3-1.6h13.8L70.1,49.7z M68.6,58.2H54.8l0.3-1.8h13.8L68.6,58.2
		z M67.1,66.7H53.3l0.3-1.6h13.8L67.1,66.7z M65.3,55.8h3.3l0.9-5.3H56.6l-0.9,5.3h8.6l1.3-1L65.3,55.8z M63.8,64.3h3.3l0.9-5.3H55
		l-0.9,5.3h8.6l1.3-1L63.8,64.3z M59.7,51.6h1.5l-0.3,1h-1.5L59.7,51.6z M59.3,53.8h1.5l-0.1,1h-1.5L59.3,53.8z M58.2,60.1h1.5
		L59.6,61h-1.5L58.2,60.1z M57.8,62.2h1.5l-0.1,1h-1.6L57.8,62.2z M65.8,52.6h-1.5l0.1-0.9h1.5L65.8,52.6z M63.9,54.8l0.1-1h1.5
		l-0.1,1H63.9z M64.4,61.1h-1.5l0.1-0.9h1.5L64.4,61.1z M62.4,63.2l0.1-1H64l-0.1,1H62.4z"/>
</g>
</svg>
