<?xml version="1.0" encoding="utf-8"?>
<!-- Generator: Adobe Illustrator 21.1.0, SVG Export Plug-In . SVG Version: 6.00 Build 0)  -->
<svg version="1.1" id="Layer_1" xmlns="http://www.w3.org/2000/svg" xmlns:xlink="http://www.w3.org/1999/xlink" x="0px" y="0px"
	 viewBox="0 0 157 156" style="enable-background:new 0 0 157 156;" xml:space="preserve">
<style type="text/css">
	.st0{fill:#5B4516;}
</style>
<g>
	<path id="XMLID_34_" class="st0" d="M59.4,74.3c0.6,0.2,1.3,0.5,1.8,0.7c-1.9,3.6-1.8,8.2,2.9,10.6c3.8,2,10.6-0.4,13.1-2.4
		c0,0.1,0.1,0.4,0.1,0.5c0.2,1.3,3-0.7,3.2-1.9c-1-1.9-2.5-4.7-4.3-5.4c-0.7-0.2-1.3-0.1-2.2,0.5c-0.7,0.5-0.6,0.8-0.1,1.3
		c0.4,0.4,0.7,0.8,1.1,1.2c-2.6,1.9-7,3-9.2,1.7c-2-1.2-2.3-4.6,0.1-5.5c1.9,0.4,6.4,0.1,9.7-1c3.2-1,4.7-2.5,2.5-6.5
		c-8.3,2.3-14,1.9-20.3-0.7C56.4,70.5,56,72.9,59.4,74.3z"/>
	<path id="XMLID_33_" class="st0" d="M27.7,85.5c6.1-3.2,19.4-4.9,26.3-4.4c0.4-1.7,1.2-2.9,1.4-4.4c-2.2-0.7-6.2-1-9.2-1.1
		c0.1-1.1,0.4-2,0.2-3.8c1.6-0.2,3.7-0.1,5.6,0c2.3,0,2,0.5,2.3-0.8c0.2-1.6,0.7-3.1,0.8-4.7c-3-0.2-5.6-0.7-8.6-1
		c0.1-2.2,0.1-5.2-1-6.1C44.3,58,39,58.3,37,58.5c-0.1,0.2,1.1,1.3,1.3,2.3c0.2,1.6,0.4,3.1,0.4,4.9c-5.4,0.1-11,0.6-16.8,1.4
		c-1.9,0.2-3,0.1-3.2,2.4c-0.2,2.5,1.2,6,3.2,5.9c4-1.2,10.6-2.6,15.8-3c2.3,0,1.6,1.1,1.7,3.5c-2.2,0.1-8.4,0.7-13.6,2.5
		c-1.8,0.6-1.7,0.4-1,2c0.5,1.4,1,2.6,1.6,4.1C26.8,86,26.4,86,27.7,85.5z"/>
	<path id="XMLID_32_" class="st0" d="M45.6,95.6h-0.2c-0.1-1.2-0.2-2.2-0.2-3.2c2.6-0.5,6.1-1,9.6-1.4c6.2,7.1,19.9,4.6,25.4-2
		c1.1-2-2.5-2.8-4.8-1c-4.6,3.7-12.7,4.8-17.6,0.5c0-0.5,0-1.1,0-1.6c-11.8-1.6-23.3,1.3-30,1.6c-0.8,0-1.6,0.2-1.8,0.6
		c-0.4,0.4,0,1.1,0.4,2.2c0.5,1.7,1,3.4,1.3,4.8c2.4-0.7,8.8-2.5,12.7-2.9c-0.1,1.1-0.4,2.5-0.5,3.6c-2.8,1.1-7.2,1.3-10.7,1.4
		l-0.2,0.5c0.6,1.9,1,4.7,2.5,5.5c3,0.6,7.1-0.5,8.9-1c0.4,3.7,1,6.5,1.7,9.8c3,0.5,4.4,0.4,7-0.5c-1.1-3.5-1.8-7.4-2.5-11.3
		c3.5-0.8,7.6-2.3,10.2-3.5c0-0.5,0.7-3.2-0.2-5.2C52.8,93.8,48.9,95.1,45.6,95.6z"/>
	<path class="st0" d="M87.5,78.3c-1.4,4.4-2.8,7.7-4.2,12.1c-0.4,1,4.1,2.6,4.8,1.7c0.5-0.8,1.1-3.7,1.4-4.7
		c2.2,4.1,7.8,4.6,12.6-0.2c0.1-0.4,1.2,0.2,1.6,0.2c2.9,1,4.1-1.9,3.5-3.2c-0.5-1.1-13.6-6.7-15-7.4l1.7-6.4
		c2.3-0.6,4.2-1.2,6.6-1.2c-0.1,1-0.6,2.5-0.7,3.4c2,0.1,2.8-0.1,4.4-0.5c0.8-3,3.1-5.9-0.6-7.6c-2.2-1-5.4-0.5-8.4,0.1
		c-0.2-1.4,0.4-1.8-0.2-2.3c-0.5-0.1-2.6-0.6-3.2-0.1c-0.6,1.3-0.7,2.4-1.3,3.7c-1.2,0.2-4,1-5.8,1.7c0-0.4-0.4-1.6-0.7-1.7
		c-1-0.4-1.9,0-2.4,0.4c-0.5,0.4-0.1,0-0.5,0.5c-0.7,3.1,1.7,10.4,2.9,12.4C86.2,79.3,86.4,79,87.5,78.3z M91.9,81.3
		c1.9,1.1,5.3,2.5,7.3,3.5C94.7,88.7,91.3,86.1,91.9,81.3z M87.1,72.7c0.4-0.6,1.3-0.6,2.4-1.1c0,0.8-1,3.1-1.2,4.1
		C86.9,74.5,86.6,73.3,87.1,72.7z"/>
	<path id="XMLID_28_" class="st0" d="M105.5,77.8c-0.4,0.7-0.4,3.4,0.4,4.2c1.2,0.7,7,1.7,10.6,0.4c0.1-1.1,0.5-2.5,0.1-2.8
		c-0.8-0.2-2-0.5-3-0.8c0.8-1.8,1.2-2,2-3.8c1.2,0.4,1.9,0.7,2.4,0.8c1.1,0.2,3.8-3.1,2.5-4.3c-0.7-0.6-1.6-1.2-2.3-1.8
		c1.1-1.8,1.8-2.8,1.6-3.6c-0.7-1.2-4.8-4-5.9-2.2c-0.4,0.6-1,1.4-1.4,2.5c-1.9-0.5-1.9-1-3,1c-0.4,0.6-2,3.7-1.1,4.3
		c1,0.5,0,0.1,1.6,0.7c-1,2-1.6,3.2-2,4.9C107.5,77.9,105.8,77.1,105.5,77.8z"/>
	<path id="XMLID_27_" class="st0" d="M118.4,87.8c1.8,0,9.6-3.1,10.6-5.9c0.2-0.6-0.1-1.1-0.8-1.6c-1-0.7-1.8-1.2-2.8-0.2
		c-3.1,2.8-7.1,3.4-9.4,3.4C114.8,84.5,116.6,87.7,118.4,87.8z"/>
	<path id="XMLID_26_" class="st0" d="M131.1,86.1c0.1-1.3-1.2-3.2-2.8-2.2c-3.4,2.4-17.6,10.4-22.4,11c-1,0.1-0.8,0.2-0.7,1.3
		c0.2,1.8,1.6,3.8,3.2,3.7C111.6,99.5,129.2,89,131.1,86.1z"/>
	<path id="XMLID_25_" class="st0" d="M132.2,75.7c1.4-0.7,1.6-1.3,2.2-1.9c4.9-5.5-7.1-7.9-11.5-7.8c-1.6-0.2-2.2,3.6-1.6,4.7
		c1.6-0.2,2.8-0.8,5.5-0.2c10.9,1.9-5,3.7-6.1,4c-0.4,0.1-1,0.6-1.1,1c-0.2,0.4,0,1.2,0.1,1.8c0.2,1.2,0.8,1,1.9,1
		c3.5-0.1,10.8-0.1,12.4,4c1.4,3.7-5.4,10.7-10.4,13.3c-1.2,0.6-1.1,0.7-0.5,1.7c0.5,1,1.1,2.3,3.1,2.5c4.3-2,10.1-8.3,11.9-13.9
		C139.3,81.3,138.7,77.2,132.2,75.7z"/>
	<path id="XMLID_24_" class="st0" d="M64.3,96.2h-1.8c-0.1,0-0.2,0.1-0.2,0.2v7.1c0,0.1,0.1,0.2,0.2,0.2h4.9c0.1,0,0.2-0.1,0.2-0.2
		v-1.2c0-0.1-0.1-0.2-0.2-0.2h-2.9v-5.5C64.6,96.3,64.4,96.2,64.3,96.2z"/>
	<path id="XMLID_23_" class="st0" d="M70.1,96.2h-1.8c-0.1,0-0.2,0.1-0.2,0.2v4.2c0,2.2,1.2,3.4,3.6,3.4s3.7-1.2,3.7-3.4v-4
		c0-0.1-0.1-0.2-0.2-0.2h-1.8c-0.1,0-0.2,0.1-0.2,0.2v4c0,1-0.4,1.4-1.3,1.4c-1,0-1.3-0.5-1.3-1.4v-4.1
		C70.3,96.3,70.2,96.2,70.1,96.2z"/>
	<path id="XMLID_22_" class="st0" d="M76.1,100.1c0,1.1,0.4,2,1.2,2.8c0.8,0.7,1.8,1,3.1,1c1,0,1.8-0.1,2.5-0.4
		c0.1,0,0.1-0.1,0.1-0.2v-1.3c0-0.1,0-0.1-0.1-0.2h-0.1h-0.1c-0.6,0.2-1.2,0.5-1.9,0.5c-0.7,0-1.3-0.2-1.7-0.6
		c-0.4-0.4-0.6-0.8-0.6-1.4c0-0.6,0.2-1.1,0.6-1.6c0.5-0.4,1.1-0.6,1.8-0.6s1.3,0.1,1.8,0.4h0.1h0.1c0.1,0,0.1-0.1,0.1-0.2v-1.4
		c0-0.1-0.1-0.2-0.2-0.2c-0.6-0.2-1.3-0.2-2.2-0.2c-1.3,0-2.5,0.4-3.4,1.1C76.6,98,76.1,98.9,76.1,100.1z"/>
	<path id="XMLID_21_" class="st0" d="M91.3,103.6c0-0.1,0-0.2,0-0.2l-3.1-3.5l2.6-3l2.5,4.2v2.4c0,0.1,0.1,0.2,0.2,0.2h1.8
		c0.1,0,0.2-0.1,0.2-0.2v-2.4l2.6-4.4c0-0.1,0-0.2,0-0.2c0-0.1-0.1-0.1-0.2-0.1h-1.9c-0.1,0-0.2,0-0.2,0.1l-1.2,2.5l-1.3-2.6
		c0-0.1-0.1-0.1-0.2-0.1h-2c0,0,0,0-0.1,0c0,0,0,0-0.1,0h-2.2c-0.1,0-0.1,0-0.2,0.1l-2.2,2.6v-2.5c0-0.1-0.1-0.2-0.2-0.2h-1.8
		c-0.1,0-0.2,0.1-0.2,0.2v7.1c0,0.1,0.1,0.2,0.2,0.2H86c0.1,0,0.2-0.1,0.2-0.2v-2.6l2.3,2.8c0,0.1,0.1,0.1,0.2,0.1h2.3
		C91.2,103.7,91.3,103.7,91.3,103.6z"/>
	<polygon id="XMLID_20_" class="st0" points="64.9,105.2 61.9,105.2 61.9,116.8 69,116.8 69,114.2 64.9,114.2 	"/>
	<path class="st0" d="M74.5,105.1c-1.7,0-3.1,0.6-4.2,1.7c-1.1,1.1-1.6,2.6-1.6,4.4c0,1.7,0.5,3.1,1.6,4.2c1.1,1.1,2.4,1.7,4.1,1.7
		s3.1-0.6,4.1-1.7c1.1-1.1,1.6-2.6,1.6-4.3s-0.5-3.1-1.6-4.2C77.5,105.7,76.2,105.1,74.5,105.1z M76.2,113.5
		c-0.5,0.6-1.1,0.8-1.8,0.8c-0.8,0-1.4-0.2-1.8-0.8c-0.5-0.6-0.7-1.4-0.7-2.4s0.2-1.8,0.7-2.4c0.5-0.6,1.1-0.8,1.9-0.8
		c0.8,0,1.3,0.2,1.8,0.8c0.5,0.6,0.7,1.4,0.7,2.5C76.9,112.1,76.7,112.9,76.2,113.5z"/>
	<polygon id="XMLID_17_" class="st0" points="79.6,107.8 82.7,107.8 82.7,116.8 85.7,116.8 85.7,107.8 88.8,107.8 88.8,105.2 
		79.6,105.2 	"/>
	<polygon id="XMLID_16_" class="st0" points="89.4,107.8 92.5,107.8 92.5,116.8 95.5,116.8 95.5,107.8 98.6,107.8 98.6,105.2 
		89.4,105.2 	"/>
	<polygon id="XMLID_15_" class="st0" points="102.5,112.3 106.1,112.3 106.1,109.7 102.5,109.7 102.5,107.8 106.3,107.8 
		106.3,105.2 99.5,105.2 99.5,116.8 106.5,116.8 106.5,114.2 102.5,114.2 	"/>
	<path class="st0" d="M114.1,111.7c0.5-0.2,1-0.6,1.3-1c0.5-0.6,0.7-1.3,0.7-2.2c0-1.6-0.7-3.4-4.2-3.4h-4.2v11.6h3v-4.2h0.4
		c0.1,0,0.4,0,0.5,0.2c0.1,0.1,0.4,0.4,0.7,1.1l1.8,3h3.5l-2.4-3.7C114.8,112.4,114.5,112,114.1,111.7z M112.5,109.7
		c-0.2,0.2-0.6,0.4-1.1,0.4h-0.8v-2.4h0.8c1.2,0,1.4,0.6,1.4,1.1C112.9,109.3,112.8,109.5,112.5,109.7z"/>
	<polygon id="XMLID_12_" class="st0" points="121.4,109.5 119.6,105.2 116.1,105.2 119.7,112.7 119.7,116.8 122.9,116.8 
		122.9,112.7 126.6,105.2 123.3,105.2 	"/>
	<path id="XMLID_11_" class="st0" d="M48.4,117c-1.6,0-2.8,1.2-2.8,2.8l0,0c0,1.6,1.2,2.8,2.8,2.8s2.8-1.2,2.8-2.8
		S49.8,117,48.4,117z"/>
</g>
<g>
	<path id="XMLID_10_" class="st0" d="M93.5,43.2c0.1,0,0.1,0,0.2,0l2.4-0.5c0.8-0.1,1.3-1,1.2-1.8s-1-1.3-1.8-1.2l-2.4,0.5
		c-0.8,0.1-1.3,1-1.2,1.8C92,42.7,92.6,43.2,93.5,43.2z"/>
	<path class="st0" d="M102.1,50.7c4.7-1.1,8.3-5.6,7.3-10.1l-8,1.8l-5.9,1.3l-0.6,0.1l-3.2,0.7C92.6,48.9,98,51.7,102.1,50.7z
		 M104.8,43.3l0.4-0.6c0.4-0.5,1-0.7,1.4-0.4c0.5,0.4,0.7,1,0.4,1.4l-0.4,0.6c-0.2,0.4-0.5,0.5-0.8,0.5c-0.2,0-0.5,0-0.6-0.1
		C104.6,44.5,104.5,43.9,104.8,43.3z M103.6,47.2l0.4-0.6c0.4-0.5,1-0.7,1.4-0.4c0.5,0.4,0.7,1,0.4,1.4l-0.4,0.6
		c-0.2,0.4-0.5,0.5-0.8,0.5c-0.2,0-0.5,0-0.6-0.1C103.3,48.4,103.2,47.7,103.6,47.2z M100.2,44.4l0.4-0.6c0.4-0.5,1-0.7,1.4-0.4
		c0.5,0.4,0.7,1,0.4,1.4l-0.4,0.6c-0.2,0.4-0.5,0.5-0.8,0.5c-0.2,0-0.5,0-0.6-0.1C100.1,45.6,99.8,44.8,100.2,44.4z M98.8,48.3
		l0.4-0.6c0.4-0.5,1-0.7,1.4-0.4c0.5,0.4,0.7,1,0.4,1.4l-0.4,0.6c-0.2,0.4-0.5,0.5-0.8,0.5c-0.2,0-0.5,0-0.6-0.1
		C98.5,49.5,98.4,48.9,98.8,48.3z M95,45.6l0.4-0.6c0.4-0.5,1-0.7,1.4-0.4c0.5,0.4,0.7,1,0.4,1.4l-0.4,0.6c-0.2,0.4-0.5,0.5-0.8,0.5
		c-0.2,0-0.5,0-0.6-0.1C94.8,46.8,94.7,46,95,45.6z"/>
	<path id="XMLID_3_" class="st0" d="M118.5,37.8c-0.1-0.8-0.6-1.6-1.2-2c-0.7-0.5-1.6-0.6-2.3-0.5L102.2,38c-0.8,0.1-1.3,1-1.2,1.8
		c0.1,0.8,1,1.3,1.8,1.2l12.7-2.8c1,7.9-4.4,15.5-12.2,17.2s-15.8-2.9-18.2-10.6l1.1-0.2c0.7,3,2.9,5.8,6,7.7
		c2.8,1.8,5.9,2.5,8.9,2.3c0.7,0,1.3-0.1,2-0.4c1.8-0.5,3.5-1.2,5-2.3c1.4-1.1,2.8-2.3,3.8-3.7c1.1-1.4,1.8-3,2.2-4.7
		c0.5-1.8,0.5-3.5,0.1-5.2l-3,0.6c1.1,5-3,10.8-8.9,12.2c-2.8,0.7-5.9,0.1-8.6-1.7c-2.4-1.4-4.1-3.6-4.7-5.8h0.2
		c0.8-0.1,1.3-1,1.2-1.8c-0.2-0.8-1-1.3-1.8-1.2l-4.4,1c-0.8,0.1-1.4,0.7-1.9,1.4c-0.4,0.7-0.5,1.6-0.2,2.3
		c1.3,4.4,4.3,8.2,8.4,10.6c2.3,1.3,4.9,2.2,7.4,2.4v-0.1l5.4-0.2v0.1c0.2,0,0.4-0.1,0.6-0.1c4.6-1,8.6-3.7,11.3-7.6
		C118.1,47.1,119.1,42.4,118.5,37.8z"/>
</g>
<path class="st0" d="M74,62.3h-2.6c-0.1,0-0.2,0-0.4,0c0.1,0,0.1-0.1,0.2-0.1l1.9-1.9c0.4-0.4,0.4-0.8,0-1.2c-0.4-0.4-0.8-0.4-1.2,0
	L70.1,61C70,61.2,70,61.2,70,61.3c0-0.1,0.1-0.2,0.1-0.2v-2.6c0-0.5-0.4-0.8-0.8-0.8c-0.5,0-0.8,0.4-0.8,0.8V61c0,0.1,0,0.2,0.1,0.4
	c0-0.1-0.1-0.2-0.1-0.2l-1.9-1.9c-0.4-0.4-0.8-0.4-1.2,0c-0.4,0.4-0.4,0.8,0,1.2l1.9,1.9c0.1,0.1,0.1,0.1,0.2,0.1
	c-0.1,0-0.2,0-0.2,0h-2.6c-0.2,0-0.5,0.1-0.6,0.2l-0.1,1c0.1,0.2,0.5,0.5,0.7,0.5h2.6c0.1,0,0.2,0,0.4-0.1c-0.1,0-0.2,0.1-0.2,0.1
	l-1.9,1.9c-0.4,0.4-0.4,0.8,0,1.2c0.1,0.1,0.4,0.2,0.6,0.2s0.5-0.1,0.6-0.2l1.9-1.9c0.1-0.1,0.1-0.1,0.1-0.2c0,0.1-0.1,0.2-0.1,0.4
	v2.8c0,0.5,0.4,0.8,0.8,0.8c0.5,0,0.8-0.4,0.8-0.8v-2.6c0-0.1,0-0.2,0-0.2c0,0.1,0.1,0.1,0.1,0.2l1.9,1.9c0.1,0.1,0.4,0.2,0.6,0.2
	s0.5-0.1,0.6-0.2c0.4-0.4,0.4-0.8,0-1.2l-1.9-1.9c-0.1-0.1-0.1-0.1-0.2-0.1c0.1,0,0.2,0.1,0.4,0.1h2.6c0.5,0,0.8-0.4,0.8-0.8
	C74.9,62.8,74.5,62.3,74,62.3z M69.1,64.7c-0.8,0-1.6-0.7-1.6-1.6c0-0.8,0.7-1.6,1.6-1.6c0.8,0,1.6,0.7,1.6,1.6
	C70.7,64.1,70,64.7,69.1,64.7z"/>
</svg>
