<?xml version="1.0" encoding="utf-8"?>
<!-- Generator: Adobe Illustrator 19.0.0, SVG Export Plug-In . SVG Version: 6.00 Build 0)  -->
<svg version="1.1" id="Layer_1" xmlns="http://www.w3.org/2000/svg" xmlns:xlink="http://www.w3.org/1999/xlink" x="0px" y="0px"
	 viewBox="0 0 157 156" style="enable-background:new 0 0 157 156;" xml:space="preserve">
<polygon id="XMLID_24_" style="fill:#5B4516;" points="77.3,112.9 80.4,112.9 81.3,110.9 78.1,110.9 "/>
<g>
	<polygon id="XMLID_23_" style="fill:#5B4516;" points="32.3,101.5 31.6,103.1 36.6,103.1 35.6,105.5 30.6,105.5 30,107.1 
		34.9,107.1 33.7,110 28.6,110 28.4,111.6 36.5,111.6 38.3,107.2 37.4,106.5 38.9,105.7 40.2,102.7 39.1,101.5 	"/>
	<polygon id="XMLID_22_" style="fill:#5B4516;" points="51.5,101.5 42,101.5 41.3,103.1 47.3,103.1 40.3,111.6 44,111.6 50.9,103.1 
			"/>
	<polygon id="XMLID_21_" style="fill:#5B4516;" points="76.1,101.5 74.6,103.1 76.5,103.1 73,111.6 76.4,111.6 80.6,101.5 	"/>
	<polygon id="XMLID_20_" style="fill:#5B4516;" points="58.3,107.7 60.9,101.5 57.2,101.5 54.6,107.7 53.7,107.7 56.3,101.5 
		52.8,101.5 49.5,109.3 53.9,109.3 53,111.6 56.7,111.6 57.6,109.3 58.9,109.3 60.4,107.7 	"/>
	<polygon id="XMLID_19_" style="fill:#5B4516;" points="73.8,101.5 64.3,101.5 63.6,103.1 69.5,103.1 68.9,104.5 60.9,109.6 
		60.1,111.6 69.4,111.6 70.5,110 70.5,109.9 65,109.9 72.2,105.3 	"/>
	<polygon id="XMLID_18_" style="fill:#5B4516;" points="110.4,78.9 111.2,76.1 98.1,76.1 97.4,78.9 99.8,78.9 98.4,81.7 96.5,81.7 
		96,84.7 97.6,84.7 93.8,98.2 98.6,98.2 100.4,95.8 99.1,95.8 102.6,83.6 103.9,83.6 99.8,98.2 104.5,98.2 109.4,81 103.2,81 
		104.2,78.9 	"/>
	<polygon id="XMLID_17_" style="fill:#5B4516;" points="118.4,90.8 107.4,90.8 106.5,93.8 117.6,93.8 	"/>
	<path style="fill:#5B4516;" d="M40.7,98.3h5.5l1.1-3.8h4.6l2.5-2.6H48L51,81.1h6.5l-3.8,13.5h5.5l4.6-16.1h-12l0.8-2.8h-5.5
		l-0.8,2.8h-12l-4.6,16.2h12L40.7,98.3z M35.9,91.8L39,81h6.6l-3.1,10.8H35.9z"/>
	<polygon id="XMLID_14_" style="fill:#5B4516;" points="116.4,105.7 116.6,101.6 112.9,101.6 106.4,109.5 105.5,111.6 108.7,111.6 
		109.6,109.4 113.3,105.1 112.6,110.9 115.8,110.9 120,105.1 120.1,109.4 119.2,111.6 122.3,111.6 123.2,109.5 123.4,101.6 
		119.6,101.6 	"/>
	<path style="fill:#5B4516;" d="M97.8,101.5l-3.7,8.8l0.8,1.3l0,0h9.1l4.2-10.1L97.8,101.5L97.8,101.5z M101.7,109.7h-4l2.6-6.4h4
		L101.7,109.7z"/>
	<polygon id="XMLID_11_" style="fill:#5B4516;" points="113,75.8 112.2,78.8 122.3,78.8 118.9,85.6 115.1,85.6 117.4,80.6 
		112.3,80.6 108.7,88.5 120.1,88.5 118.1,95.8 111,95.8 111.3,98.3 122.3,98.3 125.9,85.6 124.1,85.6 128.4,75.8 	"/>
	<polygon id="XMLID_10_" style="fill:#5B4516;" points="89.2,103.4 95.4,103.4 96.2,101.6 86.6,101.6 82.4,111.6 91.5,111.6 
		92.9,109.8 86.6,109.8 	"/>
	<polygon id="XMLID_9_" style="fill:#5B4516;" points="96,76.7 66.8,76.7 65.9,79.6 86.8,79.6 77,83.9 73.7,95.6 67.9,95.6 
		69.1,98.3 78.6,98.3 82.2,85.5 95.2,79.4 	"/>
</g>
<path id="XMLID_8_" style="fill:#5B4516;" d="M66.1,48.1c0-1.5,1.2-2.8,2.8-2.8c1.5,0,2.8,1.2,2.8,2.8c0,0,0,0.1,0,0.1
	c0,0.1,0,0.3,0,0.4c0,0.1-0.1,0.2-0.1,0.4c0,0,0,0,0,0c-0.1,0.3-0.2,0.5-0.4,0.7l0.5,0.4c0.5-0.6,0.8-1.3,0.8-2.1
	c0-1.9-1.5-3.4-3.4-3.4c-1.9,0-3.4,1.5-3.4,3.4c0,1.9,1.5,3.4,3.3,3.4l0.1-0.7C67.4,50.8,66.1,49.6,66.1,48.1z"/>
<path id="XMLID_7_" style="fill:#5B4516;" d="M71.6,48.2c0,0.1,0,0.3,0,0.4C71.6,48.5,71.6,48.3,71.6,48.2z"/>
<path id="XMLID_6_" style="fill:#5B4516;" d="M71.5,49C71.5,49,71.5,49,71.5,49C71.5,49,71.5,49,71.5,49z"/>
<path id="XMLID_5_" style="fill:#5B4516;" d="M71.5,50.2L71,49.7c-0.5,0.6-1.3,1.1-2.2,1.1c0,0,0,0,0,0l-0.1,0.7c0,0,0.1,0,0.1,0
	C70,51.5,70.9,51,71.5,50.2z"/>
<path id="XMLID_4_" style="fill:#5B4516;" d="M103.1,57.9c0-1.3,1-2.3,2.3-2.3c1.3,0,2.3,1,2.3,2.3s-1,2.3-2.3,2.3
	c-0.6,0-1.1-0.2-1.5-0.5l-0.1,0.1c0.5,0.4,1.1,0.6,1.7,0.6c0,0,0,0,0,0c0.9,0,1.7-0.4,2.2-1.1c0.2-0.2,0.3-0.5,0.4-0.7c0,0,0,0,0,0
	c0-0.1,0.1-0.2,0.1-0.4c0-0.1,0-0.3,0-0.4c0,0,0-0.1,0-0.1c0-1.5-1.2-2.8-2.8-2.8c-1.5,0-2.8,1.2-2.8,2.8c0,0.2,0,0.4,0.1,0.6l0.3,0
	C103.1,58.1,103.1,58,103.1,57.9z"/>
<path id="XMLID_3_" style="fill:#5B4516;" d="M102.2,58.3l-9.9,1.3l-1.5-9.2c1.1-0.2,1.9-1.1,1.9-2.3c0-1.3-1-2.3-2.3-2.3
	c-1.3,0-2.3,1-2.3,2.3c0,0.6,0.2,1.1,0.6,1.6l-8.9,8.2l-8.3-7.7c-0.6,0.8-1.6,1.3-2.7,1.3c0,0-0.1,0-0.1,0l-1.4,8.2l-11.3-1.5
	c0-0.1,0-0.3,0-0.4c0-1.3-1-2.3-2.3-2.3s-2.3,1-2.3,2.3c0,1.3,1,2.3,2.3,2.3c0.6,0,1.2-0.3,1.7-0.7l10.5,13.8c0,0,12.4-6.8,27.6,0
	l9.8-12.9C102.8,59.8,102.4,59.1,102.2,58.3z"/>
<path style="fill:#5B4516;" d="M105.5,54.2c-1.9,0-3.4,1.5-3.4,3.4c0,0.2,0,0.5,0.1,0.7c0.2,0.8,0.6,1.5,1.2,2
	c0.6,0.4,1.2,0.7,2,0.7c0,0,0.1,0,0.1,0c1.1,0,2-0.5,2.7-1.3c0.5-0.6,0.8-1.3,0.8-2.1C109,55.7,107.4,54.2,105.5,54.2z M108.2,58.2
	c0,0.1-0.1,0.2-0.1,0.4c0,0,0,0,0,0c-0.1,0.3-0.2,0.5-0.4,0.7c-0.5,0.6-1.3,1.1-2.2,1.1c0,0,0,0,0,0c-0.7,0-1.2-0.2-1.7-0.6
	c-0.5-0.4-0.8-0.9-1-1.5c0-0.2-0.1-0.4-0.1-0.6c0-1.5,1.2-2.8,2.8-2.8c1.5,0,2.8,1.2,2.8,2.8c0,0,0,0.1,0,0.1
	C108.3,57.9,108.3,58,108.2,58.2z"/>
</svg>
