<svg xmlns="http://www.w3.org/2000/svg" viewBox="0 0 69.19 29.35"><defs><style>.cls-1{isolation:isolate;}.cls-2{fill:#8c6575;}.cls-3{fill:#9a7183;}.cls-4{fill:#c9acbc;}.cls-5{fill:#9a7384;}.cls-6{fill:#d5bfcc;}.cls-7{fill:#af8a9d;}.cls-8{font-size:13.24px;fill:#fff;font-family:MicrosoftYaHei, Microsoft YaHei;}.cls-9{opacity:0.4;mix-blend-mode:multiply;}.cls-10{fill:#916775;}.cls-11{fill:#ecdee7;}</style></defs><title>资源 1</title><g class="cls-1"><g id="图层_2" data-name="图层 2"><g id="图层_1-2" data-name="图层 1"><path class="cls-2" d="M69.19,13.78A9.17,9.17,0,0,1,60,23H27.56a9.17,9.17,0,0,1-9.17-9.17h0a9.17,9.17,0,0,1,9.17-9.17H60a9.17,9.17,0,0,1,9.17,9.17Z"/><polygon class="cls-3" points="5.53 17.36 0 22.9 6.15 22.9 6.15 29.35 12.45 22.13 5.53 17.36"/><polygon class="cls-3" points="26.97 17.36 32.5 22.9 26.35 22.9 26.35 29.35 20.05 22.13 26.97 17.36"/><path class="cls-4" d="M15.83,0A12.29,12.29,0,1,0,28.12,12.29,12.31,12.31,0,0,0,15.83,0Zm0,22.74A10.45,10.45,0,1,1,26.28,12.29,10.46,10.46,0,0,1,15.83,22.74Z"/><path class="cls-5" d="M15.83,1.84A10.45,10.45,0,1,0,26.28,12.29,10.46,10.46,0,0,0,15.83,1.84Zm0,19.67A9.22,9.22,0,1,1,25,12.29,9.22,9.22,0,0,1,15.83,21.51Z"/><path class="cls-6" d="M15.83,3.07a9.22,9.22,0,0,0-6.6,15.65L22.6,6.05A9.19,9.19,0,0,0,15.83,3.07Z"/><path class="cls-7" d="M15.83,21.51A9.21,9.21,0,0,0,22.6,6.05L9.22,18.72A9.19,9.19,0,0,0,15.83,21.51Z"/><text class="cls-8" transform="matrix(1, 0, -0.09, 1, 34.53, 18.68)">钻石</text><g class="cls-9"><path class="cls-10" d="M15.55,18.88a.45.45,0,0,1-.34-.15l-4.85-5.44a.44.44,0,0,1-.06-.5L12.15,9.3a.45.45,0,0,1,.4-.24h6a.45.45,0,0,1,.4.24l1.85,3.49a.44.44,0,0,1-.06.5l-4.85,5.44a.45.45,0,0,1-.34.15Zm-4.31-5.95"/></g><path class="cls-11" d="M15.55,17.88a.45.45,0,0,1-.34-.15l-4.85-5.44a.44.44,0,0,1-.06-.5L12.15,8.3a.45.45,0,0,1,.4-.24h6a.45.45,0,0,1,.4.24l1.85,3.49a.44.44,0,0,1-.06.5l-4.85,5.44a.45.45,0,0,1-.34.15Zm-4.31-5.95"/></g></g></g></svg>