<svg xmlns="http://www.w3.org/2000/svg" viewBox="0 0 69.5 29.35"><defs><style>.cls-1{isolation:isolate;}.cls-2{fill:#b63546;}.cls-3{font-size:13.24px;fill:#fff;font-family:MicrosoftYaHei, Microsoft YaHei;}.cls-4{fill:#c04052;}.cls-5{fill:#df8097;}.cls-5,.cls-6{fill-rule:evenodd;}.cls-6{fill:#c04253;}.cls-7{fill:#e69aae;}.cls-8{fill:#ce586f;}.cls-9{opacity:0.4;mix-blend-mode:multiply;}.cls-10{fill:#aa5d54;}.cls-11{fill:#f4c8d7;}</style></defs><title>资源 1</title><g class="cls-1"><g id="图层_2" data-name="图层 2"><g id="图层_1-2" data-name="图层 1"><path class="cls-2" d="M69.5,13.78A9.17,9.17,0,0,1,60.33,23H27.87a9.17,9.17,0,0,1-9.17-9.17h0a9.17,9.17,0,0,1,9.17-9.17H60.33a9.17,9.17,0,0,1,9.17,9.17Z"/><text class="cls-3" transform="matrix(1, 0, -0.09, 1, 34.84, 18.68)">皇冠</text><polygon class="cls-4" points="5.53 17.36 0 22.9 6.15 22.9 6.15 29.35 12.45 22.13 5.53 17.36"/><polygon class="cls-4" points="27.35 17.36 32.88 22.9 26.74 22.9 26.74 29.35 20.44 22.13 27.35 17.36"/><path class="cls-5" d="M16.14,0A12.29,12.29,0,1,0,28.43,12.29,12.31,12.31,0,0,0,16.14,0Zm0,22.74A10.45,10.45,0,1,1,26.59,12.29,10.46,10.46,0,0,1,16.14,22.74Z"/><path class="cls-6" d="M16.14,1.84A10.45,10.45,0,1,0,26.59,12.29,10.46,10.46,0,0,0,16.14,1.84Zm0,19.67a9.22,9.22,0,1,1,9.22-9.22A9.22,9.22,0,0,1,16.14,21.51Z"/><path class="cls-7" d="M16.14,3.07a9.22,9.22,0,0,0-6.6,15.65L22.91,6.05A9.19,9.19,0,0,0,16.14,3.07Z"/><path class="cls-8" d="M16.14,21.51A9.21,9.21,0,0,0,22.91,6.05L9.54,18.72A9.19,9.19,0,0,0,16.14,21.51Z"/><g class="cls-9"><path class="cls-10" d="M21.58,11.4a.82.82,0,1,0-1.49.47,2.92,2.92,0,0,1-1.56.59l-.33,0a2.56,2.56,0,0,1-1.75-1.86.82.82,0,1,0-.64,0c-.06.42-.62,1.74-1.69,1.89l-.27,0a3,3,0,0,1-1.58-.59A.82.82,0,0,0,10.95,11h0v0a.82.82,0,0,0,.58,1.4l2.12,5.15h5l2.21-5.36a.82.82,0,0,0,.74-.81ZM18.23,17"/></g><path class="cls-11" d="M21.58,10.4a.82.82,0,1,0-1.49.47,2.92,2.92,0,0,1-1.56.59l-.33,0a2.56,2.56,0,0,1-1.75-1.86.82.82,0,1,0-.64,0c-.06.42-.62,1.74-1.69,1.89l-.27,0a3,3,0,0,1-1.58-.59A.82.82,0,0,0,10.95,10h0v0a.82.82,0,0,0,.58,1.4l2.12,5.15h5l2.21-5.36a.82.82,0,0,0,.74-.81ZM18.23,16"/></g></g></g></svg>