<svg xmlns="http://www.w3.org/2000/svg" viewBox="0 0 69.13 29.35"><defs><style>.cls-1{isolation:isolate;}.cls-2{fill:#d99721;}.cls-3{font-size:13.24px;fill:#fff;font-family:MicrosoftYaHei, Microsoft YaHei;}.cls-4{fill:#e1a846;}.cls-5{fill:#f7d6af;}.cls-6{fill:#e1a744;}.cls-10,.cls-11,.cls-6{fill-rule:evenodd;}.cls-7{fill:#f9dbc0;}.cls-8{fill:#edbf75;}.cls-9{opacity:0.4;mix-blend-mode:multiply;}.cls-10{fill:#dda034;}.cls-11{fill:#fff3f2;}</style></defs><title>资源 1</title><g class="cls-1"><g id="图层_2" data-name="图层 2"><g id="图层_1-2" data-name="图层 1"><path class="cls-2" d="M69.13,13.78A9.17,9.17,0,0,1,60,23H27.5a9.17,9.17,0,0,1-9.17-9.17h0A9.17,9.17,0,0,1,27.5,4.61H60a9.17,9.17,0,0,1,9.17,9.17Z"/><text class="cls-3" transform="matrix(1, 0, -0.09, 1, 34.48, 18.68)">黄金</text><polygon class="cls-4" points="5.53 17.36 0 22.9 6.15 22.9 6.15 29.35 12.45 22.13 5.53 17.36"/><polygon class="cls-4" points="26.97 17.36 32.5 22.9 26.35 22.9 26.35 29.35 20.05 22.13 26.97 17.36"/><path class="cls-5" d="M15.83,0A12.29,12.29,0,1,0,28.12,12.29,12.31,12.31,0,0,0,15.83,0Zm0,22.74A10.45,10.45,0,1,1,26.28,12.29,10.46,10.46,0,0,1,15.83,22.74Z"/><path class="cls-6" d="M15.83,1.84A10.45,10.45,0,1,0,26.28,12.29,10.46,10.46,0,0,0,15.83,1.84Zm0,19.67A9.22,9.22,0,1,1,25,12.29,9.22,9.22,0,0,1,15.83,21.51Z"/><path class="cls-7" d="M15.83,3.07a9.22,9.22,0,0,0-6.6,15.65L22.6,6.05A9.19,9.19,0,0,0,15.83,3.07Z"/><path class="cls-8" d="M15.83,21.51A9.21,9.21,0,0,0,22.6,6.05L9.22,18.72A9.19,9.19,0,0,0,15.83,21.51Z"/><g class="cls-9"><polygon class="cls-10" points="19.63 14.88 21.22 13.29 19.63 11.71 19.63 9.46 17.39 9.46 15.8 7.88 14.21 9.46 11.97 9.46 11.97 11.71 10.38 13.29 11.97 14.88 11.97 17.12 14.21 17.12 15.8 18.71 17.39 17.12 19.63 17.12 19.63 14.88"/></g><polygon class="cls-11" points="19.63 13.88 21.22 12.29 19.63 10.71 19.63 8.46 17.39 8.46 15.8 6.88 14.21 8.46 11.97 8.46 11.97 10.71 10.38 12.29 11.97 13.88 11.97 16.12 14.21 16.12 15.8 17.71 17.39 16.12 19.63 16.12 19.63 13.88"/></g></g></g></svg>