<svg xmlns="http://www.w3.org/2000/svg" viewBox="0 0 69.19 29.35"><defs><style>.cls-1{isolation:isolate;}.cls-2{fill:#7c8199;}.cls-3{fill:#8b8ea5;}.cls-4{fill:#c2c4d1;fill-rule:evenodd;}.cls-5{fill:#8b8fa5;}.cls-6{fill:#cccdd8;}.cls-7{fill:#a1a3b7;}.cls-8{font-size:13.24px;fill:#fff;font-family:MicrosoftYaHei, Microsoft YaHei;}.cls-9{opacity:0.4;mix-blend-mode:multiply;}.cls-10{fill:#726e7e;}.cls-11{fill:#ebeef3;}</style></defs><title>资源 1</title><g class="cls-1"><g id="图层_2" data-name="图层 2"><g id="图层_1-2" data-name="图层 1"><path class="cls-2" d="M69.19,13.78A9.17,9.17,0,0,1,60,23H27.56a9.17,9.17,0,0,1-9.17-9.17h0a9.17,9.17,0,0,1,9.17-9.17H60a9.17,9.17,0,0,1,9.17,9.17Z"/><polygon class="cls-3" points="5.53 17.36 0 22.9 6.15 22.9 6.15 29.35 12.45 22.13 5.53 17.36"/><polygon class="cls-3" points="26.97 17.36 32.5 22.9 26.35 22.9 26.35 29.35 20.05 22.13 26.97 17.36"/><path class="cls-4" d="M15.83,0A12.29,12.29,0,1,0,28.12,12.29,12.31,12.31,0,0,0,15.83,0Zm0,22.74A10.45,10.45,0,1,1,26.28,12.29,10.46,10.46,0,0,1,15.83,22.74Z"/><path class="cls-5" d="M15.83,1.84A10.45,10.45,0,1,0,26.28,12.29,10.46,10.46,0,0,0,15.83,1.84Zm0,19.67A9.22,9.22,0,1,1,25,12.29,9.22,9.22,0,0,1,15.83,21.51Z"/><path class="cls-6" d="M15.83,3.07a9.22,9.22,0,0,0-6.6,15.65L22.6,6.05A9.19,9.19,0,0,0,15.83,3.07Z"/><path class="cls-7" d="M15.83,21.51A9.21,9.21,0,0,0,22.6,6.05L9.22,18.72A9.19,9.19,0,0,0,15.83,21.51Z"/><text class="cls-8" transform="matrix(1, 0, -0.09, 1, 34.53, 18.68)">白金</text><g class="cls-9"><polygon class="cls-10" points="12.89 17.9 10.23 13.29 12.89 8.69 18.21 8.69 20.87 13.29 18.21 17.9 12.89 17.9"/></g><polygon class="cls-11" points="12.89 16.9 10.23 12.29 12.89 7.69 18.21 7.69 20.87 12.29 18.21 16.9 12.89 16.9"/></g></g></g></svg>