<svg xmlns="http://www.w3.org/2000/svg" viewBox="0 0 69.8 29.35"><defs><style>.cls-1{isolation:isolate;}.cls-2{fill:#b2b2b2;}.cls-3{fill:silver;}.cls-4{fill:#e2e2e2;}.cls-5{fill:#bfbfbf;}.cls-6{fill:#e6e6e6;}.cls-7{fill:#d2d2d0;}.cls-8{font-size:13.24px;fill:#fff;font-family:MicrosoftYaHei, Microsoft YaHei;}.cls-9{opacity:0.4;mix-blend-mode:multiply;}.cls-10{fill:#f6f6f6;}</style></defs><title>资源 1</title><g class="cls-1"><g id="图层_2" data-name="图层 2"><g id="图层_1-2" data-name="图层 1"><path class="cls-2" d="M69.8,13.78A9.17,9.17,0,0,1,60.63,23H28.17A9.17,9.17,0,0,1,19,13.78h0a9.17,9.17,0,0,1,9.17-9.17H60.63a9.17,9.17,0,0,1,9.17,9.17Z"/><polygon class="cls-3" points="5.53 17.36 0 22.9 6.15 22.9 6.15 29.35 12.45 22.13 5.53 17.36"/><polygon class="cls-3" points="27.35 17.36 32.88 22.9 26.74 22.9 26.74 29.35 20.44 22.13 27.35 17.36"/><path class="cls-4" d="M16.44,0A12.29,12.29,0,1,0,28.74,12.29,12.31,12.31,0,0,0,16.44,0Zm0,22.74A10.45,10.45,0,1,1,26.89,12.29,10.46,10.46,0,0,1,16.44,22.74Z"/><path class="cls-5" d="M16.44,1.84A10.45,10.45,0,1,0,26.89,12.29,10.46,10.46,0,0,0,16.44,1.84Zm0,19.67a9.22,9.22,0,1,1,9.22-9.22A9.22,9.22,0,0,1,16.44,21.51Z"/><path class="cls-6" d="M16.44,3.07a9.22,9.22,0,0,0-6.6,15.65L23.22,6.05A9.19,9.19,0,0,0,16.44,3.07Z"/><path class="cls-7" d="M16.44,21.51A9.21,9.21,0,0,0,23.22,6.05L9.84,18.72A9.19,9.19,0,0,0,16.44,21.51Z"/><text class="cls-8" transform="matrix(1, 0, -0.09, 1, 35.15, 18.68)">白银</text><g class="cls-9"><polygon class="cls-2" points="16.44 7.05 18.21 10.64 22.18 11.22 19.31 14.02 19.99 17.96 16.44 16.1 12.9 17.96 13.57 14.02 10.71 11.22 14.67 10.64 16.44 7.05"/></g><polygon class="cls-10" points="16.44 6.05 18.21 9.64 22.18 10.22 19.31 13.02 19.99 16.96 16.44 15.1 12.9 16.96 13.57 13.02 10.71 10.22 14.67 9.64 16.44 6.05"/></g></g></g></svg>