<svg xmlns="http://www.w3.org/2000/svg" viewBox="0 0 69.45 29.35"><defs><style>.cls-1{isolation:isolate;}.cls-2{fill:#b56258;}.cls-3,.cls-4{font-size:13.24px;font-family:MicrosoftYaHei, Microsoft YaHei;}.cls-3{fill:#ebeef3;}.cls-4{fill:#fff;}.cls-5{fill:#bf6e66;}.cls-6{fill:#dfaaa4;}.cls-7{fill:#bf7067;}.cls-8{fill:#e6bdb7;}.cls-9{fill:#ce877f;}.cls-10{opacity:0.15;mix-blend-mode:multiply;}.cls-11{fill:#f4dddc;}</style></defs><title>资源 1</title><g class="cls-1"><g id="图层_2" data-name="图层 2"><g id="图层_1-2" data-name="图层 1"><path class="cls-2" d="M69.45,13.78A9.17,9.17,0,0,1,60.27,23H27.82a9.17,9.17,0,0,1-9.17-9.17h0a9.17,9.17,0,0,1,9.17-9.17H60.27a9.17,9.17,0,0,1,9.17,9.17Z"/><text class="cls-3" transform="matrix(1, 0, -0.09, 1, 34.79, 18.68)">青铜</text><text class="cls-4" transform="matrix(1, 0, -0.09, 1, 34.79, 18.68)">青铜</text><polygon class="cls-5" points="5.53 17.36 0 22.9 6.15 22.9 6.15 29.35 12.45 22.13 5.53 17.36"/><polygon class="cls-5" points="27.35 17.36 32.88 22.9 26.74 22.9 26.74 29.35 20.44 22.13 27.35 17.36"/><path class="cls-6" d="M16.14,0A12.29,12.29,0,1,0,28.43,12.29,12.31,12.31,0,0,0,16.14,0Zm0,22.74A10.45,10.45,0,1,1,26.59,12.29,10.46,10.46,0,0,1,16.14,22.74Z"/><path class="cls-7" d="M16.14,1.84A10.45,10.45,0,1,0,26.59,12.29,10.46,10.46,0,0,0,16.14,1.84Zm0,19.67a9.22,9.22,0,1,1,9.22-9.22A9.22,9.22,0,0,1,16.14,21.51Z"/><path class="cls-8" d="M16.14,3.07a9.22,9.22,0,0,0-6.6,15.65L22.91,6.05A9.19,9.19,0,0,0,16.14,3.07Z"/><path class="cls-9" d="M16.14,21.51A9.21,9.21,0,0,0,22.91,6.05L9.54,18.72A9.19,9.19,0,0,0,16.14,21.51Z"/><g class="cls-10"><path d="M18.27,11.64a9.78,9.78,0,0,1-2.13-3.75h0a6.54,6.54,0,0,1-2.07,3.75A14.64,14.64,0,0,1,10.69,13,12.33,12.33,0,0,1,14,15a9.78,9.78,0,0,1,2.13,3.75h0A6.54,6.54,0,0,1,18.21,15a14.64,14.64,0,0,1,3.38-1.39A12.33,12.33,0,0,1,18.27,11.64Z"/></g><path class="cls-11" d="M18.27,10.64a9.78,9.78,0,0,1-2.13-3.75h0a6.54,6.54,0,0,1-2.07,3.75A14.64,14.64,0,0,1,10.69,12,12.33,12.33,0,0,1,14,14a9.78,9.78,0,0,1,2.13,3.75h0A6.54,6.54,0,0,1,18.21,14a14.64,14.64,0,0,1,3.38-1.39A12.33,12.33,0,0,1,18.27,10.64Z"/></g></g></g></svg>