<svg xmlns="http://www.w3.org/2000/svg" viewBox="0 0 69.48 29.35"><defs><style>.cls-1{isolation:isolate;}.cls-2{fill:#7c8999;}.cls-3{fill:#8b95a5;}.cls-4{fill:#bfc4ce;}.cls-5{fill:#8b96a5;}.cls-6{fill:#ccd0d8;fill-rule:evenodd;}.cls-7{fill:#a1a9b7;}.cls-8{font-size:13.24px;fill:#fff;font-family:MicrosoftYaHei, Microsoft YaHei;}.cls-9{opacity:0.4;mix-blend-mode:multiply;}.cls-10{fill:#7e8896;}.cls-11{fill:#e8eaee;}</style></defs><title>资源 1</title><g class="cls-1"><g id="图层_2" data-name="图层 2"><g id="图层_1-2" data-name="图层 1"><path class="cls-2" d="M69.48,13.78A9.17,9.17,0,0,1,60.31,23H27.85a9.17,9.17,0,0,1-9.17-9.17h0a9.17,9.17,0,0,1,9.17-9.17H60.31a9.17,9.17,0,0,1,9.17,9.17Z"/><polygon class="cls-3" points="5.53 17.36 0 22.9 6.15 22.9 6.15 29.35 12.45 22.13 5.53 17.36"/><polygon class="cls-3" points="27.35 17.36 32.88 22.9 26.74 22.9 26.74 29.35 20.44 22.13 27.35 17.36"/><path class="cls-4" d="M16.12,0A12.29,12.29,0,1,0,28.41,12.29,12.31,12.31,0,0,0,16.12,0Zm0,22.74A10.45,10.45,0,1,1,26.57,12.29,10.46,10.46,0,0,1,16.12,22.74Z"/><path class="cls-5" d="M16.12,1.84A10.45,10.45,0,1,0,26.57,12.29,10.46,10.46,0,0,0,16.12,1.84Zm0,19.67a9.22,9.22,0,1,1,9.22-9.22A9.22,9.22,0,0,1,16.12,21.51Z"/><path class="cls-6" d="M16.12,3.07a9.22,9.22,0,0,0-6.6,15.65L22.89,6.05A9.19,9.19,0,0,0,16.12,3.07Z"/><path class="cls-7" d="M16.12,21.51A9.21,9.21,0,0,0,22.89,6.05L9.52,18.72A9.19,9.19,0,0,0,16.12,21.51Z"/><text class="cls-8" transform="matrix(1, 0, -0.09, 1, 34.82, 18.68)">普通</text><g class="cls-9"><circle class="cls-10" cx="16.12" cy="13.29" r="5"/></g><circle class="cls-11" cx="16.12" cy="12.29" r="5"/></g></g></g></svg>